<?xml version="1.0" encoding="utf-8" standalone="no"?>
<!DOCTYPE svg PUBLIC "-//W3C//DTD SVG 1.1//EN"
  "http://www.w3.org/Graphics/SVG/1.1/DTD/svg11.dtd">
<!-- Created with matplotlib (http://matplotlib.org/) -->
<svg height="345.6pt" version="1.1" viewBox="0 0 460.8 345.6" width="460.8pt" xmlns="http://www.w3.org/2000/svg" xmlns:xlink="http://www.w3.org/1999/xlink">
 <defs>
  <style type="text/css">
*{stroke-linecap:butt;stroke-linejoin:round;}
  </style>
 </defs>
 <g id="figure_1">
  <g id="patch_1">
   <path d="M 0 345.6 
L 460.8 345.6 
L 460.8 0 
L 0 0 
z
" style="fill:#ffffff;"/>
  </g>
  <g id="axes_1">
   <g id="patch_2">
    <path d="M 57.6 307.584 
L 414.72 307.584 
L 414.72 41.472 
L 57.6 41.472 
z
" style="fill:#ffffff;"/>
   </g>
   <g id="matplotlib.axis_1">
    <g id="xtick_1">
     <g id="line2d_1">
      <defs>
       <path d="M 0 0 
L 0 3.5 
" id="mad5a0b7905" style="stroke:#000000;stroke-width:0.8;"/>
      </defs>
      <g>
       <use style="stroke:#000000;stroke-width:0.8;" x="322.237742" xlink:href="#mad5a0b7905" y="307.584"/>
      </g>
     </g>
     <g id="text_1">
      <!-- $\mathdefault{10^{3}}$ -->
      <defs>
       <path d="M 12.40625 8.296875 
L 28.515625 8.296875 
L 28.515625 63.921875 
L 10.984375 60.40625 
L 10.984375 69.390625 
L 28.421875 72.90625 
L 38.28125 72.90625 
L 38.28125 8.296875 
L 54.390625 8.296875 
L 54.390625 0 
L 12.40625 0 
z
" id="DejaVuSans-31"/>
       <path d="M 31.78125 66.40625 
Q 24.171875 66.40625 20.328125 58.90625 
Q 16.5 51.421875 16.5 36.375 
Q 16.5 21.390625 20.328125 13.890625 
Q 24.171875 6.390625 31.78125 6.390625 
Q 39.453125 6.390625 43.28125 13.890625 
Q 47.125 21.390625 47.125 36.375 
Q 47.125 51.421875 43.28125 58.90625 
Q 39.453125 66.40625 31.78125 66.40625 
z
M 31.78125 74.21875 
Q 44.046875 74.21875 50.515625 64.515625 
Q 56.984375 54.828125 56.984375 36.375 
Q 56.984375 17.96875 50.515625 8.265625 
Q 44.046875 -1.421875 31.78125 -1.421875 
Q 19.53125 -1.421875 13.0625 8.265625 
Q 6.59375 17.96875 6.59375 36.375 
Q 6.59375 54.828125 13.0625 64.515625 
Q 19.53125 74.21875 31.78125 74.21875 
z
" id="DejaVuSans-30"/>
       <path d="M 40.578125 39.3125 
Q 47.65625 37.796875 51.625 33 
Q 55.609375 28.21875 55.609375 21.1875 
Q 55.609375 10.40625 48.1875 4.484375 
Q 40.765625 -1.421875 27.09375 -1.421875 
Q 22.515625 -1.421875 17.65625 -0.515625 
Q 12.796875 0.390625 7.625 2.203125 
L 7.625 11.71875 
Q 11.71875 9.328125 16.59375 8.109375 
Q 21.484375 6.890625 26.8125 6.890625 
Q 36.078125 6.890625 40.9375 10.546875 
Q 45.796875 14.203125 45.796875 21.1875 
Q 45.796875 27.640625 41.28125 31.265625 
Q 36.765625 34.90625 28.71875 34.90625 
L 20.21875 34.90625 
L 20.21875 43.015625 
L 29.109375 43.015625 
Q 36.375 43.015625 40.234375 45.921875 
Q 44.09375 48.828125 44.09375 54.296875 
Q 44.09375 59.90625 40.109375 62.90625 
Q 36.140625 65.921875 28.71875 65.921875 
Q 24.65625 65.921875 20.015625 65.03125 
Q 15.375 64.15625 9.8125 62.3125 
L 9.8125 71.09375 
Q 15.4375 72.65625 20.34375 73.4375 
Q 25.25 74.21875 29.59375 74.21875 
Q 40.828125 74.21875 47.359375 69.109375 
Q 53.90625 64.015625 53.90625 55.328125 
Q 53.90625 49.265625 50.4375 45.09375 
Q 46.96875 40.921875 40.578125 39.3125 
z
" id="DejaVuSans-33"/>
      </defs>
      <g transform="translate(313.437742 322.182437)scale(0.1 -0.1)">
       <use transform="translate(0 0.765625)" xlink:href="#DejaVuSans-31"/>
       <use transform="translate(63.623047 0.765625)" xlink:href="#DejaVuSans-30"/>
       <use transform="translate(128.203125 39.046875)scale(0.7)" xlink:href="#DejaVuSans-33"/>
      </g>
     </g>
    </g>
    <g id="xtick_2">
     <g id="line2d_2">
      <defs>
       <path d="M 0 0 
L 0 2 
" id="m83d5ba1979" style="stroke:#000000;stroke-width:0.6;"/>
      </defs>
      <g>
       <use style="stroke:#000000;stroke-width:0.6;" x="110.160934" xlink:href="#m83d5ba1979" y="307.584"/>
      </g>
     </g>
    </g>
    <g id="xtick_3">
     <g id="line2d_3">
      <g>
       <use style="stroke:#000000;stroke-width:0.6;" x="163.589367" xlink:href="#m83d5ba1979" y="307.584"/>
      </g>
     </g>
    </g>
    <g id="xtick_4">
     <g id="line2d_4">
      <g>
       <use style="stroke:#000000;stroke-width:0.6;" x="201.497443" xlink:href="#m83d5ba1979" y="307.584"/>
      </g>
     </g>
    </g>
    <g id="xtick_5">
     <g id="line2d_5">
      <g>
       <use style="stroke:#000000;stroke-width:0.6;" x="230.901232" xlink:href="#m83d5ba1979" y="307.584"/>
      </g>
     </g>
    </g>
    <g id="xtick_6">
     <g id="line2d_6">
      <g>
       <use style="stroke:#000000;stroke-width:0.6;" x="254.925876" xlink:href="#m83d5ba1979" y="307.584"/>
      </g>
     </g>
    </g>
    <g id="xtick_7">
     <g id="line2d_7">
      <g>
       <use style="stroke:#000000;stroke-width:0.6;" x="275.238424" xlink:href="#m83d5ba1979" y="307.584"/>
      </g>
     </g>
    </g>
    <g id="xtick_8">
     <g id="line2d_8">
      <g>
       <use style="stroke:#000000;stroke-width:0.6;" x="292.833953" xlink:href="#m83d5ba1979" y="307.584"/>
      </g>
     </g>
    </g>
    <g id="xtick_9">
     <g id="line2d_9">
      <g>
       <use style="stroke:#000000;stroke-width:0.6;" x="308.35431" xlink:href="#m83d5ba1979" y="307.584"/>
      </g>
     </g>
    </g>
    <g id="xtick_10">
     <g id="line2d_10">
      <g>
       <use style="stroke:#000000;stroke-width:0.6;" x="413.574251" xlink:href="#m83d5ba1979" y="307.584"/>
      </g>
     </g>
    </g>
    <g id="text_2">
     <!-- Execution time (s) -->
     <defs>
      <path d="M 9.8125 72.90625 
L 55.90625 72.90625 
L 55.90625 64.59375 
L 19.671875 64.59375 
L 19.671875 43.015625 
L 54.390625 43.015625 
L 54.390625 34.71875 
L 19.671875 34.71875 
L 19.671875 8.296875 
L 56.78125 8.296875 
L 56.78125 0 
L 9.8125 0 
z
" id="DejaVuSans-45"/>
      <path d="M 54.890625 54.6875 
L 35.109375 28.078125 
L 55.90625 0 
L 45.3125 0 
L 29.390625 21.484375 
L 13.484375 0 
L 2.875 0 
L 24.125 28.609375 
L 4.6875 54.6875 
L 15.28125 54.6875 
L 29.78125 35.203125 
L 44.28125 54.6875 
z
" id="DejaVuSans-78"/>
      <path d="M 56.203125 29.59375 
L 56.203125 25.203125 
L 14.890625 25.203125 
Q 15.484375 15.921875 20.484375 11.0625 
Q 25.484375 6.203125 34.421875 6.203125 
Q 39.59375 6.203125 44.453125 7.46875 
Q 49.3125 8.734375 54.109375 11.28125 
L 54.109375 2.78125 
Q 49.265625 0.734375 44.1875 -0.34375 
Q 39.109375 -1.421875 33.890625 -1.421875 
Q 20.796875 -1.421875 13.15625 6.1875 
Q 5.515625 13.8125 5.515625 26.8125 
Q 5.515625 40.234375 12.765625 48.109375 
Q 20.015625 56 32.328125 56 
Q 43.359375 56 49.78125 48.890625 
Q 56.203125 41.796875 56.203125 29.59375 
z
M 47.21875 32.234375 
Q 47.125 39.59375 43.09375 43.984375 
Q 39.0625 48.390625 32.421875 48.390625 
Q 24.90625 48.390625 20.390625 44.140625 
Q 15.875 39.890625 15.1875 32.171875 
z
" id="DejaVuSans-65"/>
      <path d="M 48.78125 52.59375 
L 48.78125 44.1875 
Q 44.96875 46.296875 41.140625 47.34375 
Q 37.3125 48.390625 33.40625 48.390625 
Q 24.65625 48.390625 19.8125 42.84375 
Q 14.984375 37.3125 14.984375 27.296875 
Q 14.984375 17.28125 19.8125 11.734375 
Q 24.65625 6.203125 33.40625 6.203125 
Q 37.3125 6.203125 41.140625 7.25 
Q 44.96875 8.296875 48.78125 10.40625 
L 48.78125 2.09375 
Q 45.015625 0.34375 40.984375 -0.53125 
Q 36.96875 -1.421875 32.421875 -1.421875 
Q 20.0625 -1.421875 12.78125 6.34375 
Q 5.515625 14.109375 5.515625 27.296875 
Q 5.515625 40.671875 12.859375 48.328125 
Q 20.21875 56 33.015625 56 
Q 37.15625 56 41.109375 55.140625 
Q 45.0625 54.296875 48.78125 52.59375 
z
" id="DejaVuSans-63"/>
      <path d="M 8.5 21.578125 
L 8.5 54.6875 
L 17.484375 54.6875 
L 17.484375 21.921875 
Q 17.484375 14.15625 20.5 10.265625 
Q 23.53125 6.390625 29.59375 6.390625 
Q 36.859375 6.390625 41.078125 11.03125 
Q 45.3125 15.671875 45.3125 23.6875 
L 45.3125 54.6875 
L 54.296875 54.6875 
L 54.296875 0 
L 45.3125 0 
L 45.3125 8.40625 
Q 42.046875 3.421875 37.71875 1 
Q 33.40625 -1.421875 27.6875 -1.421875 
Q 18.265625 -1.421875 13.375 4.4375 
Q 8.5 10.296875 8.5 21.578125 
z
M 31.109375 56 
z
" id="DejaVuSans-75"/>
      <path d="M 18.3125 70.21875 
L 18.3125 54.6875 
L 36.8125 54.6875 
L 36.8125 47.703125 
L 18.3125 47.703125 
L 18.3125 18.015625 
Q 18.3125 11.328125 20.140625 9.421875 
Q 21.96875 7.515625 27.59375 7.515625 
L 36.8125 7.515625 
L 36.8125 0 
L 27.59375 0 
Q 17.1875 0 13.234375 3.875 
Q 9.28125 7.765625 9.28125 18.015625 
L 9.28125 47.703125 
L 2.6875 47.703125 
L 2.6875 54.6875 
L 9.28125 54.6875 
L 9.28125 70.21875 
z
" id="DejaVuSans-74"/>
      <path d="M 9.421875 54.6875 
L 18.40625 54.6875 
L 18.40625 0 
L 9.421875 0 
z
M 9.421875 75.984375 
L 18.40625 75.984375 
L 18.40625 64.59375 
L 9.421875 64.59375 
z
" id="DejaVuSans-69"/>
      <path d="M 30.609375 48.390625 
Q 23.390625 48.390625 19.1875 42.75 
Q 14.984375 37.109375 14.984375 27.296875 
Q 14.984375 17.484375 19.15625 11.84375 
Q 23.34375 6.203125 30.609375 6.203125 
Q 37.796875 6.203125 41.984375 11.859375 
Q 46.1875 17.53125 46.1875 27.296875 
Q 46.1875 37.015625 41.984375 42.703125 
Q 37.796875 48.390625 30.609375 48.390625 
z
M 30.609375 56 
Q 42.328125 56 49.015625 48.375 
Q 55.71875 40.765625 55.71875 27.296875 
Q 55.71875 13.875 49.015625 6.21875 
Q 42.328125 -1.421875 30.609375 -1.421875 
Q 18.84375 -1.421875 12.171875 6.21875 
Q 5.515625 13.875 5.515625 27.296875 
Q 5.515625 40.765625 12.171875 48.375 
Q 18.84375 56 30.609375 56 
z
" id="DejaVuSans-6f"/>
      <path d="M 54.890625 33.015625 
L 54.890625 0 
L 45.90625 0 
L 45.90625 32.71875 
Q 45.90625 40.484375 42.875 44.328125 
Q 39.84375 48.1875 33.796875 48.1875 
Q 26.515625 48.1875 22.3125 43.546875 
Q 18.109375 38.921875 18.109375 30.90625 
L 18.109375 0 
L 9.078125 0 
L 9.078125 54.6875 
L 18.109375 54.6875 
L 18.109375 46.1875 
Q 21.34375 51.125 25.703125 53.5625 
Q 30.078125 56 35.796875 56 
Q 45.21875 56 50.046875 50.171875 
Q 54.890625 44.34375 54.890625 33.015625 
z
" id="DejaVuSans-6e"/>
      <path id="DejaVuSans-20"/>
      <path d="M 52 44.1875 
Q 55.375 50.25 60.0625 53.125 
Q 64.75 56 71.09375 56 
Q 79.640625 56 84.28125 50.015625 
Q 88.921875 44.046875 88.921875 33.015625 
L 88.921875 0 
L 79.890625 0 
L 79.890625 32.71875 
Q 79.890625 40.578125 77.09375 44.375 
Q 74.3125 48.1875 68.609375 48.1875 
Q 61.625 48.1875 57.5625 43.546875 
Q 53.515625 38.921875 53.515625 30.90625 
L 53.515625 0 
L 44.484375 0 
L 44.484375 32.71875 
Q 44.484375 40.625 41.703125 44.40625 
Q 38.921875 48.1875 33.109375 48.1875 
Q 26.21875 48.1875 22.15625 43.53125 
Q 18.109375 38.875 18.109375 30.90625 
L 18.109375 0 
L 9.078125 0 
L 9.078125 54.6875 
L 18.109375 54.6875 
L 18.109375 46.1875 
Q 21.1875 51.21875 25.484375 53.609375 
Q 29.78125 56 35.6875 56 
Q 41.65625 56 45.828125 52.96875 
Q 50 49.953125 52 44.1875 
z
" id="DejaVuSans-6d"/>
      <path d="M 31 75.875 
Q 24.46875 64.65625 21.28125 53.65625 
Q 18.109375 42.671875 18.109375 31.390625 
Q 18.109375 20.125 21.3125 9.0625 
Q 24.515625 -2 31 -13.1875 
L 23.1875 -13.1875 
Q 15.875 -1.703125 12.234375 9.375 
Q 8.59375 20.453125 8.59375 31.390625 
Q 8.59375 42.28125 12.203125 53.3125 
Q 15.828125 64.359375 23.1875 75.875 
z
" id="DejaVuSans-28"/>
      <path d="M 44.28125 53.078125 
L 44.28125 44.578125 
Q 40.484375 46.53125 36.375 47.5 
Q 32.28125 48.484375 27.875 48.484375 
Q 21.1875 48.484375 17.84375 46.4375 
Q 14.5 44.390625 14.5 40.28125 
Q 14.5 37.15625 16.890625 35.375 
Q 19.28125 33.59375 26.515625 31.984375 
L 29.59375 31.296875 
Q 39.15625 29.25 43.1875 25.515625 
Q 47.21875 21.78125 47.21875 15.09375 
Q 47.21875 7.46875 41.1875 3.015625 
Q 35.15625 -1.421875 24.609375 -1.421875 
Q 20.21875 -1.421875 15.453125 -0.5625 
Q 10.6875 0.296875 5.421875 2 
L 5.421875 11.28125 
Q 10.40625 8.6875 15.234375 7.390625 
Q 20.0625 6.109375 24.8125 6.109375 
Q 31.15625 6.109375 34.5625 8.28125 
Q 37.984375 10.453125 37.984375 14.40625 
Q 37.984375 18.0625 35.515625 20.015625 
Q 33.0625 21.96875 24.703125 23.78125 
L 21.578125 24.515625 
Q 13.234375 26.265625 9.515625 29.90625 
Q 5.8125 33.546875 5.8125 39.890625 
Q 5.8125 47.609375 11.28125 51.796875 
Q 16.75 56 26.8125 56 
Q 31.78125 56 36.171875 55.265625 
Q 40.578125 54.546875 44.28125 53.078125 
z
" id="DejaVuSans-73"/>
      <path d="M 8.015625 75.875 
L 15.828125 75.875 
Q 23.140625 64.359375 26.78125 53.3125 
Q 30.421875 42.28125 30.421875 31.390625 
Q 30.421875 20.453125 26.78125 9.375 
Q 23.140625 -1.703125 15.828125 -13.1875 
L 8.015625 -13.1875 
Q 14.5 -2 17.703125 9.0625 
Q 20.90625 20.125 20.90625 31.390625 
Q 20.90625 42.671875 17.703125 53.65625 
Q 14.5 64.65625 8.015625 75.875 
z
" id="DejaVuSans-29"/>
     </defs>
     <g transform="translate(190.49125 335.860562)scale(0.1 -0.1)">
      <use xlink:href="#DejaVuSans-45"/>
      <use x="63.183594" xlink:href="#DejaVuSans-78"/>
      <use x="122.316406" xlink:href="#DejaVuSans-65"/>
      <use x="183.839844" xlink:href="#DejaVuSans-63"/>
      <use x="238.820312" xlink:href="#DejaVuSans-75"/>
      <use x="302.199219" xlink:href="#DejaVuSans-74"/>
      <use x="341.408203" xlink:href="#DejaVuSans-69"/>
      <use x="369.191406" xlink:href="#DejaVuSans-6f"/>
      <use x="430.373047" xlink:href="#DejaVuSans-6e"/>
      <use x="493.751953" xlink:href="#DejaVuSans-20"/>
      <use x="525.539062" xlink:href="#DejaVuSans-74"/>
      <use x="564.748047" xlink:href="#DejaVuSans-69"/>
      <use x="592.53125" xlink:href="#DejaVuSans-6d"/>
      <use x="689.943359" xlink:href="#DejaVuSans-65"/>
      <use x="751.466797" xlink:href="#DejaVuSans-20"/>
      <use x="783.253906" xlink:href="#DejaVuSans-28"/>
      <use x="822.267578" xlink:href="#DejaVuSans-73"/>
      <use x="874.367188" xlink:href="#DejaVuSans-29"/>
     </g>
    </g>
   </g>
   <g id="matplotlib.axis_2">
    <g id="ytick_1">
     <g id="line2d_11">
      <defs>
       <path d="M 0 0 
L -3.5 0 
" id="maf72ed90d0" style="stroke:#000000;stroke-width:0.8;"/>
      </defs>
      <g>
       <use style="stroke:#000000;stroke-width:0.8;" x="57.6" xlink:href="#maf72ed90d0" y="276.1344"/>
      </g>
     </g>
     <g id="text_3">
      <!-- 10 -->
      <g transform="translate(37.875 279.933619)scale(0.1 -0.1)">
       <use xlink:href="#DejaVuSans-31"/>
       <use x="63.623047" xlink:href="#DejaVuSans-30"/>
      </g>
     </g>
    </g>
    <g id="ytick_2">
     <g id="line2d_12">
      <g>
       <use style="stroke:#000000;stroke-width:0.8;" x="57.6" xlink:href="#maf72ed90d0" y="227.7504"/>
      </g>
     </g>
     <g id="text_4">
      <!-- 20 -->
      <defs>
       <path d="M 19.1875 8.296875 
L 53.609375 8.296875 
L 53.609375 0 
L 7.328125 0 
L 7.328125 8.296875 
Q 12.9375 14.109375 22.625 23.890625 
Q 32.328125 33.6875 34.8125 36.53125 
Q 39.546875 41.84375 41.421875 45.53125 
Q 43.3125 49.21875 43.3125 52.78125 
Q 43.3125 58.59375 39.234375 62.25 
Q 35.15625 65.921875 28.609375 65.921875 
Q 23.96875 65.921875 18.8125 64.3125 
Q 13.671875 62.703125 7.8125 59.421875 
L 7.8125 69.390625 
Q 13.765625 71.78125 18.9375 73 
Q 24.125 74.21875 28.421875 74.21875 
Q 39.75 74.21875 46.484375 68.546875 
Q 53.21875 62.890625 53.21875 53.421875 
Q 53.21875 48.921875 51.53125 44.890625 
Q 49.859375 40.875 45.40625 35.40625 
Q 44.1875 33.984375 37.640625 27.21875 
Q 31.109375 20.453125 19.1875 8.296875 
z
" id="DejaVuSans-32"/>
      </defs>
      <g transform="translate(37.875 231.549619)scale(0.1 -0.1)">
       <use xlink:href="#DejaVuSans-32"/>
       <use x="63.623047" xlink:href="#DejaVuSans-30"/>
      </g>
     </g>
    </g>
    <g id="ytick_3">
     <g id="line2d_13">
      <g>
       <use style="stroke:#000000;stroke-width:0.8;" x="57.6" xlink:href="#maf72ed90d0" y="179.3664"/>
      </g>
     </g>
     <g id="text_5">
      <!-- 30 -->
      <g transform="translate(37.875 183.165619)scale(0.1 -0.1)">
       <use xlink:href="#DejaVuSans-33"/>
       <use x="63.623047" xlink:href="#DejaVuSans-30"/>
      </g>
     </g>
    </g>
    <g id="ytick_4">
     <g id="line2d_14">
      <g>
       <use style="stroke:#000000;stroke-width:0.8;" x="57.6" xlink:href="#maf72ed90d0" y="130.9824"/>
      </g>
     </g>
     <g id="text_6">
      <!-- 40 -->
      <defs>
       <path d="M 37.796875 64.3125 
L 12.890625 25.390625 
L 37.796875 25.390625 
z
M 35.203125 72.90625 
L 47.609375 72.90625 
L 47.609375 25.390625 
L 58.015625 25.390625 
L 58.015625 17.1875 
L 47.609375 17.1875 
L 47.609375 0 
L 37.796875 0 
L 37.796875 17.1875 
L 4.890625 17.1875 
L 4.890625 26.703125 
z
" id="DejaVuSans-34"/>
      </defs>
      <g transform="translate(37.875 134.781619)scale(0.1 -0.1)">
       <use xlink:href="#DejaVuSans-34"/>
       <use x="63.623047" xlink:href="#DejaVuSans-30"/>
      </g>
     </g>
    </g>
    <g id="ytick_5">
     <g id="line2d_15">
      <g>
       <use style="stroke:#000000;stroke-width:0.8;" x="57.6" xlink:href="#maf72ed90d0" y="82.5984"/>
      </g>
     </g>
     <g id="text_7">
      <!-- 50 -->
      <defs>
       <path d="M 10.796875 72.90625 
L 49.515625 72.90625 
L 49.515625 64.59375 
L 19.828125 64.59375 
L 19.828125 46.734375 
Q 21.96875 47.46875 24.109375 47.828125 
Q 26.265625 48.1875 28.421875 48.1875 
Q 40.625 48.1875 47.75 41.5 
Q 54.890625 34.8125 54.890625 23.390625 
Q 54.890625 11.625 47.5625 5.09375 
Q 40.234375 -1.421875 26.90625 -1.421875 
Q 22.3125 -1.421875 17.546875 -0.640625 
Q 12.796875 0.140625 7.71875 1.703125 
L 7.71875 11.625 
Q 12.109375 9.234375 16.796875 8.0625 
Q 21.484375 6.890625 26.703125 6.890625 
Q 35.15625 6.890625 40.078125 11.328125 
Q 45.015625 15.765625 45.015625 23.390625 
Q 45.015625 31 40.078125 35.4375 
Q 35.15625 39.890625 26.703125 39.890625 
Q 22.75 39.890625 18.8125 39.015625 
Q 14.890625 38.140625 10.796875 36.28125 
z
" id="DejaVuSans-35"/>
      </defs>
      <g transform="translate(37.875 86.397619)scale(0.1 -0.1)">
       <use xlink:href="#DejaVuSans-35"/>
       <use x="63.623047" xlink:href="#DejaVuSans-30"/>
      </g>
     </g>
    </g>
    <g id="text_8">
     <!-- Number of core species -->
     <defs>
      <path d="M 9.8125 72.90625 
L 23.09375 72.90625 
L 55.421875 11.921875 
L 55.421875 72.90625 
L 64.984375 72.90625 
L 64.984375 0 
L 51.703125 0 
L 19.390625 60.984375 
L 19.390625 0 
L 9.8125 0 
z
" id="DejaVuSans-4e"/>
      <path d="M 48.6875 27.296875 
Q 48.6875 37.203125 44.609375 42.84375 
Q 40.53125 48.484375 33.40625 48.484375 
Q 26.265625 48.484375 22.1875 42.84375 
Q 18.109375 37.203125 18.109375 27.296875 
Q 18.109375 17.390625 22.1875 11.75 
Q 26.265625 6.109375 33.40625 6.109375 
Q 40.53125 6.109375 44.609375 11.75 
Q 48.6875 17.390625 48.6875 27.296875 
z
M 18.109375 46.390625 
Q 20.953125 51.265625 25.265625 53.625 
Q 29.59375 56 35.59375 56 
Q 45.5625 56 51.78125 48.09375 
Q 58.015625 40.1875 58.015625 27.296875 
Q 58.015625 14.40625 51.78125 6.484375 
Q 45.5625 -1.421875 35.59375 -1.421875 
Q 29.59375 -1.421875 25.265625 0.953125 
Q 20.953125 3.328125 18.109375 8.203125 
L 18.109375 0 
L 9.078125 0 
L 9.078125 75.984375 
L 18.109375 75.984375 
z
" id="DejaVuSans-62"/>
      <path d="M 41.109375 46.296875 
Q 39.59375 47.171875 37.8125 47.578125 
Q 36.03125 48 33.890625 48 
Q 26.265625 48 22.1875 43.046875 
Q 18.109375 38.09375 18.109375 28.8125 
L 18.109375 0 
L 9.078125 0 
L 9.078125 54.6875 
L 18.109375 54.6875 
L 18.109375 46.1875 
Q 20.953125 51.171875 25.484375 53.578125 
Q 30.03125 56 36.53125 56 
Q 37.453125 56 38.578125 55.875 
Q 39.703125 55.765625 41.0625 55.515625 
z
" id="DejaVuSans-72"/>
      <path d="M 37.109375 75.984375 
L 37.109375 68.5 
L 28.515625 68.5 
Q 23.6875 68.5 21.796875 66.546875 
Q 19.921875 64.59375 19.921875 59.515625 
L 19.921875 54.6875 
L 34.71875 54.6875 
L 34.71875 47.703125 
L 19.921875 47.703125 
L 19.921875 0 
L 10.890625 0 
L 10.890625 47.703125 
L 2.296875 47.703125 
L 2.296875 54.6875 
L 10.890625 54.6875 
L 10.890625 58.5 
Q 10.890625 67.625 15.140625 71.796875 
Q 19.390625 75.984375 28.609375 75.984375 
z
" id="DejaVuSans-66"/>
      <path d="M 18.109375 8.203125 
L 18.109375 -20.796875 
L 9.078125 -20.796875 
L 9.078125 54.6875 
L 18.109375 54.6875 
L 18.109375 46.390625 
Q 20.953125 51.265625 25.265625 53.625 
Q 29.59375 56 35.59375 56 
Q 45.5625 56 51.78125 48.09375 
Q 58.015625 40.1875 58.015625 27.296875 
Q 58.015625 14.40625 51.78125 6.484375 
Q 45.5625 -1.421875 35.59375 -1.421875 
Q 29.59375 -1.421875 25.265625 0.953125 
Q 20.953125 3.328125 18.109375 8.203125 
z
M 48.6875 27.296875 
Q 48.6875 37.203125 44.609375 42.84375 
Q 40.53125 48.484375 33.40625 48.484375 
Q 26.265625 48.484375 22.1875 42.84375 
Q 18.109375 37.203125 18.109375 27.296875 
Q 18.109375 17.390625 22.1875 11.75 
Q 26.265625 6.109375 33.40625 6.109375 
Q 40.53125 6.109375 44.609375 11.75 
Q 48.6875 17.390625 48.6875 27.296875 
z
" id="DejaVuSans-70"/>
     </defs>
     <g transform="translate(31.795312 233.814719)rotate(-90)scale(0.1 -0.1)">
      <use xlink:href="#DejaVuSans-4e"/>
      <use x="74.804688" xlink:href="#DejaVuSans-75"/>
      <use x="138.183594" xlink:href="#DejaVuSans-6d"/>
      <use x="235.595703" xlink:href="#DejaVuSans-62"/>
      <use x="299.072266" xlink:href="#DejaVuSans-65"/>
      <use x="360.595703" xlink:href="#DejaVuSans-72"/>
      <use x="401.708984" xlink:href="#DejaVuSans-20"/>
      <use x="433.496094" xlink:href="#DejaVuSans-6f"/>
      <use x="494.677734" xlink:href="#DejaVuSans-66"/>
      <use x="529.882812" xlink:href="#DejaVuSans-20"/>
      <use x="561.669922" xlink:href="#DejaVuSans-63"/>
      <use x="616.650391" xlink:href="#DejaVuSans-6f"/>
      <use x="677.832031" xlink:href="#DejaVuSans-72"/>
      <use x="718.914062" xlink:href="#DejaVuSans-65"/>
      <use x="780.4375" xlink:href="#DejaVuSans-20"/>
      <use x="812.224609" xlink:href="#DejaVuSans-73"/>
      <use x="864.324219" xlink:href="#DejaVuSans-70"/>
      <use x="927.800781" xlink:href="#DejaVuSans-65"/>
      <use x="989.324219" xlink:href="#DejaVuSans-63"/>
      <use x="1044.304688" xlink:href="#DejaVuSans-69"/>
      <use x="1072.087891" xlink:href="#DejaVuSans-65"/>
      <use x="1133.611328" xlink:href="#DejaVuSans-73"/>
     </g>
    </g>
   </g>
   <g id="line2d_16">
    <path clip-path="url(#pec665ebf77)" d="M 73.832727 295.488 
L 76.956709 290.6496 
L 78.890814 285.8112 
L 83.211761 280.9728 
L 86.874062 276.1344 
L 91.595974 271.296 
L 99.445826 266.4576 
L 102.872845 261.6192 
L 111.528188 256.7808 
L 120.737712 251.9424 
L 128.168472 247.104 
L 141.498403 242.2656 
L 145.957589 237.4272 
L 158.85067 232.5888 
L 168.626948 227.7504 
L 175.710633 222.912 
L 181.050796 218.0736 
L 190.198753 213.2352 
L 198.516357 208.3968 
L 209.463176 203.5584 
L 212.62332 198.72 
L 220.036833 193.8816 
L 230.372678 189.0432 
L 236.888178 184.2048 
L 242.482427 179.3664 
L 250.999638 174.528 
L 256.80811 169.6896 
L 263.997396 164.8512 
L 273.292153 160.0128 
L 281.570148 155.1744 
L 291.473081 150.336 
L 301.251645 145.4976 
L 303.694667 140.6592 
L 314.896781 135.8208 
L 322.203652 130.9824 
L 324.995103 126.144 
L 331.584638 121.3056 
L 334.988675 116.4672 
L 335.538025 116.4672 
L 340.737339 111.6288 
L 343.304441 106.7904 
L 348.503025 101.952 
L 355.670028 97.1136 
L 356.559106 92.2752 
L 365.16959 87.4368 
L 372.325139 82.5984 
L 379.607419 77.76 
L 381.082022 72.9216 
L 383.226089 68.0832 
L 390.645556 63.2448 
L 393.338297 58.4064 
L 398.487273 53.568 
" style="fill:none;stroke:#0000ff;stroke-linecap:square;stroke-width:1.5;"/>
    <defs>
     <path d="M 0 3 
C 0.795609 3 1.55874 2.683901 2.12132 2.12132 
C 2.683901 1.55874 3 0.795609 3 0 
C 3 -0.795609 2.683901 -1.55874 2.12132 -2.12132 
C 1.55874 -2.683901 0.795609 -3 0 -3 
C -0.795609 -3 -1.55874 -2.683901 -2.12132 -2.12132 
C -2.683901 -1.55874 -3 -0.795609 -3 0 
C -3 0.795609 -2.683901 1.55874 -2.12132 2.12132 
C -1.55874 2.683901 -0.795609 3 0 3 
z
" id="ma88e359fd9" style="stroke:#0000ff;"/>
    </defs>
    <g clip-path="url(#pec665ebf77)">
     <use style="fill:#0000ff;stroke:#0000ff;" x="73.832727" xlink:href="#ma88e359fd9" y="295.488"/>
     <use style="fill:#0000ff;stroke:#0000ff;" x="76.956709" xlink:href="#ma88e359fd9" y="290.6496"/>
     <use style="fill:#0000ff;stroke:#0000ff;" x="78.890814" xlink:href="#ma88e359fd9" y="285.8112"/>
     <use style="fill:#0000ff;stroke:#0000ff;" x="83.211761" xlink:href="#ma88e359fd9" y="280.9728"/>
     <use style="fill:#0000ff;stroke:#0000ff;" x="86.874062" xlink:href="#ma88e359fd9" y="276.1344"/>
     <use style="fill:#0000ff;stroke:#0000ff;" x="91.595974" xlink:href="#ma88e359fd9" y="271.296"/>
     <use style="fill:#0000ff;stroke:#0000ff;" x="99.445826" xlink:href="#ma88e359fd9" y="266.4576"/>
     <use style="fill:#0000ff;stroke:#0000ff;" x="102.872845" xlink:href="#ma88e359fd9" y="261.6192"/>
     <use style="fill:#0000ff;stroke:#0000ff;" x="111.528188" xlink:href="#ma88e359fd9" y="256.7808"/>
     <use style="fill:#0000ff;stroke:#0000ff;" x="120.737712" xlink:href="#ma88e359fd9" y="251.9424"/>
     <use style="fill:#0000ff;stroke:#0000ff;" x="128.168472" xlink:href="#ma88e359fd9" y="247.104"/>
     <use style="fill:#0000ff;stroke:#0000ff;" x="141.498403" xlink:href="#ma88e359fd9" y="242.2656"/>
     <use style="fill:#0000ff;stroke:#0000ff;" x="145.957589" xlink:href="#ma88e359fd9" y="237.4272"/>
     <use style="fill:#0000ff;stroke:#0000ff;" x="158.85067" xlink:href="#ma88e359fd9" y="232.5888"/>
     <use style="fill:#0000ff;stroke:#0000ff;" x="168.626948" xlink:href="#ma88e359fd9" y="227.7504"/>
     <use style="fill:#0000ff;stroke:#0000ff;" x="175.710633" xlink:href="#ma88e359fd9" y="222.912"/>
     <use style="fill:#0000ff;stroke:#0000ff;" x="181.050796" xlink:href="#ma88e359fd9" y="218.0736"/>
     <use style="fill:#0000ff;stroke:#0000ff;" x="190.198753" xlink:href="#ma88e359fd9" y="213.2352"/>
     <use style="fill:#0000ff;stroke:#0000ff;" x="198.516357" xlink:href="#ma88e359fd9" y="208.3968"/>
     <use style="fill:#0000ff;stroke:#0000ff;" x="209.463176" xlink:href="#ma88e359fd9" y="203.5584"/>
     <use style="fill:#0000ff;stroke:#0000ff;" x="212.62332" xlink:href="#ma88e359fd9" y="198.72"/>
     <use style="fill:#0000ff;stroke:#0000ff;" x="220.036833" xlink:href="#ma88e359fd9" y="193.8816"/>
     <use style="fill:#0000ff;stroke:#0000ff;" x="230.372678" xlink:href="#ma88e359fd9" y="189.0432"/>
     <use style="fill:#0000ff;stroke:#0000ff;" x="236.888178" xlink:href="#ma88e359fd9" y="184.2048"/>
     <use style="fill:#0000ff;stroke:#0000ff;" x="242.482427" xlink:href="#ma88e359fd9" y="179.3664"/>
     <use style="fill:#0000ff;stroke:#0000ff;" x="250.999638" xlink:href="#ma88e359fd9" y="174.528"/>
     <use style="fill:#0000ff;stroke:#0000ff;" x="256.80811" xlink:href="#ma88e359fd9" y="169.6896"/>
     <use style="fill:#0000ff;stroke:#0000ff;" x="263.997396" xlink:href="#ma88e359fd9" y="164.8512"/>
     <use style="fill:#0000ff;stroke:#0000ff;" x="273.292153" xlink:href="#ma88e359fd9" y="160.0128"/>
     <use style="fill:#0000ff;stroke:#0000ff;" x="281.570148" xlink:href="#ma88e359fd9" y="155.1744"/>
     <use style="fill:#0000ff;stroke:#0000ff;" x="291.473081" xlink:href="#ma88e359fd9" y="150.336"/>
     <use style="fill:#0000ff;stroke:#0000ff;" x="301.251645" xlink:href="#ma88e359fd9" y="145.4976"/>
     <use style="fill:#0000ff;stroke:#0000ff;" x="303.694667" xlink:href="#ma88e359fd9" y="140.6592"/>
     <use style="fill:#0000ff;stroke:#0000ff;" x="314.896781" xlink:href="#ma88e359fd9" y="135.8208"/>
     <use style="fill:#0000ff;stroke:#0000ff;" x="322.203652" xlink:href="#ma88e359fd9" y="130.9824"/>
     <use style="fill:#0000ff;stroke:#0000ff;" x="324.995103" xlink:href="#ma88e359fd9" y="126.144"/>
     <use style="fill:#0000ff;stroke:#0000ff;" x="331.584638" xlink:href="#ma88e359fd9" y="121.3056"/>
     <use style="fill:#0000ff;stroke:#0000ff;" x="334.988675" xlink:href="#ma88e359fd9" y="116.4672"/>
     <use style="fill:#0000ff;stroke:#0000ff;" x="335.538025" xlink:href="#ma88e359fd9" y="116.4672"/>
     <use style="fill:#0000ff;stroke:#0000ff;" x="340.737339" xlink:href="#ma88e359fd9" y="111.6288"/>
     <use style="fill:#0000ff;stroke:#0000ff;" x="343.304441" xlink:href="#ma88e359fd9" y="106.7904"/>
     <use style="fill:#0000ff;stroke:#0000ff;" x="348.503025" xlink:href="#ma88e359fd9" y="101.952"/>
     <use style="fill:#0000ff;stroke:#0000ff;" x="355.670028" xlink:href="#ma88e359fd9" y="97.1136"/>
     <use style="fill:#0000ff;stroke:#0000ff;" x="356.559106" xlink:href="#ma88e359fd9" y="92.2752"/>
     <use style="fill:#0000ff;stroke:#0000ff;" x="365.16959" xlink:href="#ma88e359fd9" y="87.4368"/>
     <use style="fill:#0000ff;stroke:#0000ff;" x="372.325139" xlink:href="#ma88e359fd9" y="82.5984"/>
     <use style="fill:#0000ff;stroke:#0000ff;" x="379.607419" xlink:href="#ma88e359fd9" y="77.76"/>
     <use style="fill:#0000ff;stroke:#0000ff;" x="381.082022" xlink:href="#ma88e359fd9" y="72.9216"/>
     <use style="fill:#0000ff;stroke:#0000ff;" x="383.226089" xlink:href="#ma88e359fd9" y="68.0832"/>
     <use style="fill:#0000ff;stroke:#0000ff;" x="390.645556" xlink:href="#ma88e359fd9" y="63.2448"/>
     <use style="fill:#0000ff;stroke:#0000ff;" x="393.338297" xlink:href="#ma88e359fd9" y="58.4064"/>
     <use style="fill:#0000ff;stroke:#0000ff;" x="398.487273" xlink:href="#ma88e359fd9" y="53.568"/>
    </g>
   </g>
   <g id="patch_3">
    <path d="M 57.6 307.584 
L 57.6 41.472 
" style="fill:none;stroke:#000000;stroke-linecap:square;stroke-linejoin:miter;stroke-width:0.8;"/>
   </g>
   <g id="patch_4">
    <path d="M 414.72 307.584 
L 414.72 41.472 
" style="fill:none;stroke:#000000;stroke-linecap:square;stroke-linejoin:miter;stroke-width:0.8;"/>
   </g>
   <g id="patch_5">
    <path d="M 57.6 307.584 
L 414.72 307.584 
" style="fill:none;stroke:#000000;stroke-linecap:square;stroke-linejoin:miter;stroke-width:0.8;"/>
   </g>
   <g id="patch_6">
    <path d="M 57.6 41.472 
L 414.72 41.472 
" style="fill:none;stroke:#000000;stroke-linecap:square;stroke-linejoin:miter;stroke-width:0.8;"/>
   </g>
  </g>
  <g id="axes_2">
   <g id="matplotlib.axis_3">
    <g id="ytick_6">
     <g id="line2d_17">
      <defs>
       <path d="M 0 0 
L 3.5 0 
" id="ma13d30d591" style="stroke:#000000;stroke-width:0.8;"/>
      </defs>
      <g>
       <use style="stroke:#000000;stroke-width:0.8;" x="414.72" xlink:href="#ma13d30d591" y="295.488"/>
      </g>
     </g>
     <g id="text_9">
      <!-- 0 -->
      <g transform="translate(421.72 299.287219)scale(0.1 -0.1)">
       <use xlink:href="#DejaVuSans-30"/>
      </g>
     </g>
    </g>
    <g id="ytick_7">
     <g id="line2d_18">
      <g>
       <use style="stroke:#000000;stroke-width:0.8;" x="414.72" xlink:href="#ma13d30d591" y="260.729379"/>
      </g>
     </g>
     <g id="text_10">
      <!-- 25 -->
      <g transform="translate(421.72 264.528598)scale(0.1 -0.1)">
       <use xlink:href="#DejaVuSans-32"/>
       <use x="63.623047" xlink:href="#DejaVuSans-35"/>
      </g>
     </g>
    </g>
    <g id="ytick_8">
     <g id="line2d_19">
      <g>
       <use style="stroke:#000000;stroke-width:0.8;" x="414.72" xlink:href="#ma13d30d591" y="225.970759"/>
      </g>
     </g>
     <g id="text_11">
      <!-- 50 -->
      <g transform="translate(421.72 229.769977)scale(0.1 -0.1)">
       <use xlink:href="#DejaVuSans-35"/>
       <use x="63.623047" xlink:href="#DejaVuSans-30"/>
      </g>
     </g>
    </g>
    <g id="ytick_9">
     <g id="line2d_20">
      <g>
       <use style="stroke:#000000;stroke-width:0.8;" x="414.72" xlink:href="#ma13d30d591" y="191.212138"/>
      </g>
     </g>
     <g id="text_12">
      <!-- 75 -->
      <defs>
       <path d="M 8.203125 72.90625 
L 55.078125 72.90625 
L 55.078125 68.703125 
L 28.609375 0 
L 18.3125 0 
L 43.21875 64.59375 
L 8.203125 64.59375 
z
" id="DejaVuSans-37"/>
      </defs>
      <g transform="translate(421.72 195.011357)scale(0.1 -0.1)">
       <use xlink:href="#DejaVuSans-37"/>
       <use x="63.623047" xlink:href="#DejaVuSans-35"/>
      </g>
     </g>
    </g>
    <g id="ytick_10">
     <g id="line2d_21">
      <g>
       <use style="stroke:#000000;stroke-width:0.8;" x="414.72" xlink:href="#ma13d30d591" y="156.453517"/>
      </g>
     </g>
     <g id="text_13">
      <!-- 100 -->
      <g transform="translate(421.72 160.252736)scale(0.1 -0.1)">
       <use xlink:href="#DejaVuSans-31"/>
       <use x="63.623047" xlink:href="#DejaVuSans-30"/>
       <use x="127.246094" xlink:href="#DejaVuSans-30"/>
      </g>
     </g>
    </g>
    <g id="ytick_11">
     <g id="line2d_22">
      <g>
       <use style="stroke:#000000;stroke-width:0.8;" x="414.72" xlink:href="#ma13d30d591" y="121.694897"/>
      </g>
     </g>
     <g id="text_14">
      <!-- 125 -->
      <g transform="translate(421.72 125.494115)scale(0.1 -0.1)">
       <use xlink:href="#DejaVuSans-31"/>
       <use x="63.623047" xlink:href="#DejaVuSans-32"/>
       <use x="127.246094" xlink:href="#DejaVuSans-35"/>
      </g>
     </g>
    </g>
    <g id="ytick_12">
     <g id="line2d_23">
      <g>
       <use style="stroke:#000000;stroke-width:0.8;" x="414.72" xlink:href="#ma13d30d591" y="86.936276"/>
      </g>
     </g>
     <g id="text_15">
      <!-- 150 -->
      <g transform="translate(421.72 90.735495)scale(0.1 -0.1)">
       <use xlink:href="#DejaVuSans-31"/>
       <use x="63.623047" xlink:href="#DejaVuSans-35"/>
       <use x="127.246094" xlink:href="#DejaVuSans-30"/>
      </g>
     </g>
    </g>
    <g id="ytick_13">
     <g id="line2d_24">
      <g>
       <use style="stroke:#000000;stroke-width:0.8;" x="414.72" xlink:href="#ma13d30d591" y="52.177655"/>
      </g>
     </g>
     <g id="text_16">
      <!-- 175 -->
      <g transform="translate(421.72 55.976874)scale(0.1 -0.1)">
       <use xlink:href="#DejaVuSans-31"/>
       <use x="63.623047" xlink:href="#DejaVuSans-37"/>
       <use x="127.246094" xlink:href="#DejaVuSans-35"/>
      </g>
     </g>
    </g>
    <g id="text_17">
     <!-- Number of core reactions -->
     <defs>
      <path d="M 34.28125 27.484375 
Q 23.390625 27.484375 19.1875 25 
Q 14.984375 22.515625 14.984375 16.5 
Q 14.984375 11.71875 18.140625 8.90625 
Q 21.296875 6.109375 26.703125 6.109375 
Q 34.1875 6.109375 38.703125 11.40625 
Q 43.21875 16.703125 43.21875 25.484375 
L 43.21875 27.484375 
z
M 52.203125 31.203125 
L 52.203125 0 
L 43.21875 0 
L 43.21875 8.296875 
Q 40.140625 3.328125 35.546875 0.953125 
Q 30.953125 -1.421875 24.3125 -1.421875 
Q 15.921875 -1.421875 10.953125 3.296875 
Q 6 8.015625 6 15.921875 
Q 6 25.140625 12.171875 29.828125 
Q 18.359375 34.515625 30.609375 34.515625 
L 43.21875 34.515625 
L 43.21875 35.40625 
Q 43.21875 41.609375 39.140625 45 
Q 35.0625 48.390625 27.6875 48.390625 
Q 23 48.390625 18.546875 47.265625 
Q 14.109375 46.140625 10.015625 43.890625 
L 10.015625 52.203125 
Q 14.9375 54.109375 19.578125 55.046875 
Q 24.21875 56 28.609375 56 
Q 40.484375 56 46.34375 49.84375 
Q 52.203125 43.703125 52.203125 31.203125 
z
" id="DejaVuSans-61"/>
     </defs>
     <g transform="translate(452.405937 238.2655)rotate(-90)scale(0.1 -0.1)">
      <use xlink:href="#DejaVuSans-4e"/>
      <use x="74.804688" xlink:href="#DejaVuSans-75"/>
      <use x="138.183594" xlink:href="#DejaVuSans-6d"/>
      <use x="235.595703" xlink:href="#DejaVuSans-62"/>
      <use x="299.072266" xlink:href="#DejaVuSans-65"/>
      <use x="360.595703" xlink:href="#DejaVuSans-72"/>
      <use x="401.708984" xlink:href="#DejaVuSans-20"/>
      <use x="433.496094" xlink:href="#DejaVuSans-6f"/>
      <use x="494.677734" xlink:href="#DejaVuSans-66"/>
      <use x="529.882812" xlink:href="#DejaVuSans-20"/>
      <use x="561.669922" xlink:href="#DejaVuSans-63"/>
      <use x="616.650391" xlink:href="#DejaVuSans-6f"/>
      <use x="677.832031" xlink:href="#DejaVuSans-72"/>
      <use x="718.914062" xlink:href="#DejaVuSans-65"/>
      <use x="780.4375" xlink:href="#DejaVuSans-20"/>
      <use x="812.224609" xlink:href="#DejaVuSans-72"/>
      <use x="853.306641" xlink:href="#DejaVuSans-65"/>
      <use x="914.830078" xlink:href="#DejaVuSans-61"/>
      <use x="976.109375" xlink:href="#DejaVuSans-63"/>
      <use x="1031.089844" xlink:href="#DejaVuSans-74"/>
      <use x="1070.298828" xlink:href="#DejaVuSans-69"/>
      <use x="1098.082031" xlink:href="#DejaVuSans-6f"/>
      <use x="1159.263672" xlink:href="#DejaVuSans-6e"/>
      <use x="1222.642578" xlink:href="#DejaVuSans-73"/>
     </g>
    </g>
   </g>
   <g id="line2d_25">
    <path clip-path="url(#pec665ebf77)" d="M 73.832727 295.488 
L 76.956709 295.488 
L 78.890814 295.488 
L 83.211761 294.097655 
L 86.874062 294.097655 
L 91.595974 292.70731 
L 99.445826 292.70731 
L 102.872845 291.316966 
L 111.528188 289.926621 
L 120.737712 281.584552 
L 128.168472 274.632828 
L 141.498403 273.242483 
L 145.957589 271.852138 
L 158.85067 270.461793 
L 168.626948 269.071448 
L 175.710633 267.681103 
L 181.050796 266.290759 
L 190.198753 264.900414 
L 198.516357 259.339034 
L 209.463176 257.94869 
L 212.62332 245.435586 
L 220.036833 244.045241 
L 230.372678 242.654897 
L 236.888178 241.264552 
L 242.482427 231.532138 
L 250.999638 230.141793 
L 256.80811 228.751448 
L 263.997396 227.361103 
L 273.292153 225.970759 
L 281.570148 224.580414 
L 291.473081 223.190069 
L 301.251645 221.799724 
L 303.694667 209.286621 
L 314.896781 207.896276 
L 322.203652 206.505931 
L 324.995103 206.505931 
L 331.584638 205.115586 
L 334.988675 203.725241 
L 335.538025 203.725241 
L 340.737339 193.992828 
L 343.304441 168.966621 
L 348.503025 166.185931 
L 355.670028 136.98869 
L 356.559106 121.694897 
L 365.16959 120.304552 
L 372.325139 118.914207 
L 379.607419 117.523862 
L 381.082022 99.449379 
L 383.226089 98.059034 
L 390.645556 96.66869 
L 393.338297 54.958345 
L 398.487273 53.568 
" style="fill:none;stroke:#ff0000;stroke-linecap:square;stroke-width:1.5;"/>
    <defs>
     <path d="M 0 3 
C 0.795609 3 1.55874 2.683901 2.12132 2.12132 
C 2.683901 1.55874 3 0.795609 3 0 
C 3 -0.795609 2.683901 -1.55874 2.12132 -2.12132 
C 1.55874 -2.683901 0.795609 -3 0 -3 
C -0.795609 -3 -1.55874 -2.683901 -2.12132 -2.12132 
C -2.683901 -1.55874 -3 -0.795609 -3 0 
C -3 0.795609 -2.683901 1.55874 -2.12132 2.12132 
C -1.55874 2.683901 -0.795609 3 0 3 
z
" id="m7c787ff298" style="stroke:#ff0000;"/>
    </defs>
    <g clip-path="url(#pec665ebf77)">
     <use style="fill:#ff0000;stroke:#ff0000;" x="73.832727" xlink:href="#m7c787ff298" y="295.488"/>
     <use style="fill:#ff0000;stroke:#ff0000;" x="76.956709" xlink:href="#m7c787ff298" y="295.488"/>
     <use style="fill:#ff0000;stroke:#ff0000;" x="78.890814" xlink:href="#m7c787ff298" y="295.488"/>
     <use style="fill:#ff0000;stroke:#ff0000;" x="83.211761" xlink:href="#m7c787ff298" y="294.097655"/>
     <use style="fill:#ff0000;stroke:#ff0000;" x="86.874062" xlink:href="#m7c787ff298" y="294.097655"/>
     <use style="fill:#ff0000;stroke:#ff0000;" x="91.595974" xlink:href="#m7c787ff298" y="292.70731"/>
     <use style="fill:#ff0000;stroke:#ff0000;" x="99.445826" xlink:href="#m7c787ff298" y="292.70731"/>
     <use style="fill:#ff0000;stroke:#ff0000;" x="102.872845" xlink:href="#m7c787ff298" y="291.316966"/>
     <use style="fill:#ff0000;stroke:#ff0000;" x="111.528188" xlink:href="#m7c787ff298" y="289.926621"/>
     <use style="fill:#ff0000;stroke:#ff0000;" x="120.737712" xlink:href="#m7c787ff298" y="281.584552"/>
     <use style="fill:#ff0000;stroke:#ff0000;" x="128.168472" xlink:href="#m7c787ff298" y="274.632828"/>
     <use style="fill:#ff0000;stroke:#ff0000;" x="141.498403" xlink:href="#m7c787ff298" y="273.242483"/>
     <use style="fill:#ff0000;stroke:#ff0000;" x="145.957589" xlink:href="#m7c787ff298" y="271.852138"/>
     <use style="fill:#ff0000;stroke:#ff0000;" x="158.85067" xlink:href="#m7c787ff298" y="270.461793"/>
     <use style="fill:#ff0000;stroke:#ff0000;" x="168.626948" xlink:href="#m7c787ff298" y="269.071448"/>
     <use style="fill:#ff0000;stroke:#ff0000;" x="175.710633" xlink:href="#m7c787ff298" y="267.681103"/>
     <use style="fill:#ff0000;stroke:#ff0000;" x="181.050796" xlink:href="#m7c787ff298" y="266.290759"/>
     <use style="fill:#ff0000;stroke:#ff0000;" x="190.198753" xlink:href="#m7c787ff298" y="264.900414"/>
     <use style="fill:#ff0000;stroke:#ff0000;" x="198.516357" xlink:href="#m7c787ff298" y="259.339034"/>
     <use style="fill:#ff0000;stroke:#ff0000;" x="209.463176" xlink:href="#m7c787ff298" y="257.94869"/>
     <use style="fill:#ff0000;stroke:#ff0000;" x="212.62332" xlink:href="#m7c787ff298" y="245.435586"/>
     <use style="fill:#ff0000;stroke:#ff0000;" x="220.036833" xlink:href="#m7c787ff298" y="244.045241"/>
     <use style="fill:#ff0000;stroke:#ff0000;" x="230.372678" xlink:href="#m7c787ff298" y="242.654897"/>
     <use style="fill:#ff0000;stroke:#ff0000;" x="236.888178" xlink:href="#m7c787ff298" y="241.264552"/>
     <use style="fill:#ff0000;stroke:#ff0000;" x="242.482427" xlink:href="#m7c787ff298" y="231.532138"/>
     <use style="fill:#ff0000;stroke:#ff0000;" x="250.999638" xlink:href="#m7c787ff298" y="230.141793"/>
     <use style="fill:#ff0000;stroke:#ff0000;" x="256.80811" xlink:href="#m7c787ff298" y="228.751448"/>
     <use style="fill:#ff0000;stroke:#ff0000;" x="263.997396" xlink:href="#m7c787ff298" y="227.361103"/>
     <use style="fill:#ff0000;stroke:#ff0000;" x="273.292153" xlink:href="#m7c787ff298" y="225.970759"/>
     <use style="fill:#ff0000;stroke:#ff0000;" x="281.570148" xlink:href="#m7c787ff298" y="224.580414"/>
     <use style="fill:#ff0000;stroke:#ff0000;" x="291.473081" xlink:href="#m7c787ff298" y="223.190069"/>
     <use style="fill:#ff0000;stroke:#ff0000;" x="301.251645" xlink:href="#m7c787ff298" y="221.799724"/>
     <use style="fill:#ff0000;stroke:#ff0000;" x="303.694667" xlink:href="#m7c787ff298" y="209.286621"/>
     <use style="fill:#ff0000;stroke:#ff0000;" x="314.896781" xlink:href="#m7c787ff298" y="207.896276"/>
     <use style="fill:#ff0000;stroke:#ff0000;" x="322.203652" xlink:href="#m7c787ff298" y="206.505931"/>
     <use style="fill:#ff0000;stroke:#ff0000;" x="324.995103" xlink:href="#m7c787ff298" y="206.505931"/>
     <use style="fill:#ff0000;stroke:#ff0000;" x="331.584638" xlink:href="#m7c787ff298" y="205.115586"/>
     <use style="fill:#ff0000;stroke:#ff0000;" x="334.988675" xlink:href="#m7c787ff298" y="203.725241"/>
     <use style="fill:#ff0000;stroke:#ff0000;" x="335.538025" xlink:href="#m7c787ff298" y="203.725241"/>
     <use style="fill:#ff0000;stroke:#ff0000;" x="340.737339" xlink:href="#m7c787ff298" y="193.992828"/>
     <use style="fill:#ff0000;stroke:#ff0000;" x="343.304441" xlink:href="#m7c787ff298" y="168.966621"/>
     <use style="fill:#ff0000;stroke:#ff0000;" x="348.503025" xlink:href="#m7c787ff298" y="166.185931"/>
     <use style="fill:#ff0000;stroke:#ff0000;" x="355.670028" xlink:href="#m7c787ff298" y="136.98869"/>
     <use style="fill:#ff0000;stroke:#ff0000;" x="356.559106" xlink:href="#m7c787ff298" y="121.694897"/>
     <use style="fill:#ff0000;stroke:#ff0000;" x="365.16959" xlink:href="#m7c787ff298" y="120.304552"/>
     <use style="fill:#ff0000;stroke:#ff0000;" x="372.325139" xlink:href="#m7c787ff298" y="118.914207"/>
     <use style="fill:#ff0000;stroke:#ff0000;" x="379.607419" xlink:href="#m7c787ff298" y="117.523862"/>
     <use style="fill:#ff0000;stroke:#ff0000;" x="381.082022" xlink:href="#m7c787ff298" y="99.449379"/>
     <use style="fill:#ff0000;stroke:#ff0000;" x="383.226089" xlink:href="#m7c787ff298" y="98.059034"/>
     <use style="fill:#ff0000;stroke:#ff0000;" x="390.645556" xlink:href="#m7c787ff298" y="96.66869"/>
     <use style="fill:#ff0000;stroke:#ff0000;" x="393.338297" xlink:href="#m7c787ff298" y="54.958345"/>
     <use style="fill:#ff0000;stroke:#ff0000;" x="398.487273" xlink:href="#m7c787ff298" y="53.568"/>
    </g>
   </g>
   <g id="patch_7">
    <path d="M 57.6 307.584 
L 57.6 41.472 
" style="fill:none;stroke:#000000;stroke-linecap:square;stroke-linejoin:miter;stroke-width:0.8;"/>
   </g>
   <g id="patch_8">
    <path d="M 414.72 307.584 
L 414.72 41.472 
" style="fill:none;stroke:#000000;stroke-linecap:square;stroke-linejoin:miter;stroke-width:0.8;"/>
   </g>
   <g id="patch_9">
    <path d="M 57.6 307.584 
L 414.72 307.584 
" style="fill:none;stroke:#000000;stroke-linecap:square;stroke-linejoin:miter;stroke-width:0.8;"/>
   </g>
   <g id="patch_10">
    <path d="M 57.6 41.472 
L 414.72 41.472 
" style="fill:none;stroke:#000000;stroke-linecap:square;stroke-linejoin:miter;stroke-width:0.8;"/>
   </g>
  </g>
 </g>
 <defs>
  <clipPath id="pec665ebf77">
   <rect height="266.112" width="357.12" x="57.6" y="41.472"/>
  </clipPath>
 </defs>
</svg>
