<?xml version="1.0" encoding="utf-8" standalone="no"?>
<!DOCTYPE svg PUBLIC "-//W3C//DTD SVG 1.1//EN"
  "http://www.w3.org/Graphics/SVG/1.1/DTD/svg11.dtd">
<!-- Created with matplotlib (http://matplotlib.org/) -->
<svg height="345.6pt" version="1.1" viewBox="0 0 460.8 345.6" width="460.8pt" xmlns="http://www.w3.org/2000/svg" xmlns:xlink="http://www.w3.org/1999/xlink">
 <defs>
  <style type="text/css">
*{stroke-linecap:butt;stroke-linejoin:round;}
  </style>
 </defs>
 <g id="figure_1">
  <g id="patch_1">
   <path d="M 0 345.6 
L 460.8 345.6 
L 460.8 0 
L 0 0 
z
" style="fill:#ffffff;"/>
  </g>
  <g id="axes_1">
   <g id="patch_2">
    <path d="M 57.6 307.584 
L 414.72 307.584 
L 414.72 41.472 
L 57.6 41.472 
z
" style="fill:#ffffff;"/>
   </g>
   <g id="matplotlib.axis_1">
    <g id="xtick_1">
     <g id="line2d_1">
      <defs>
       <path d="M 0 0 
L 0 3.5 
" id="mb5df33e695" style="stroke:#000000;stroke-width:0.8;"/>
      </defs>
      <g>
       <use style="stroke:#000000;stroke-width:0.8;" x="150.646247" xlink:href="#mb5df33e695" y="307.584"/>
      </g>
     </g>
     <g id="text_1">
      <!-- $\mathdefault{10^{3}}$ -->
      <defs>
       <path d="M 12.40625 8.296875 
L 28.515625 8.296875 
L 28.515625 63.921875 
L 10.984375 60.40625 
L 10.984375 69.390625 
L 28.421875 72.90625 
L 38.28125 72.90625 
L 38.28125 8.296875 
L 54.390625 8.296875 
L 54.390625 0 
L 12.40625 0 
z
" id="DejaVuSans-31"/>
       <path d="M 31.78125 66.40625 
Q 24.171875 66.40625 20.328125 58.90625 
Q 16.5 51.421875 16.5 36.375 
Q 16.5 21.390625 20.328125 13.890625 
Q 24.171875 6.390625 31.78125 6.390625 
Q 39.453125 6.390625 43.28125 13.890625 
Q 47.125 21.390625 47.125 36.375 
Q 47.125 51.421875 43.28125 58.90625 
Q 39.453125 66.40625 31.78125 66.40625 
z
M 31.78125 74.21875 
Q 44.046875 74.21875 50.515625 64.515625 
Q 56.984375 54.828125 56.984375 36.375 
Q 56.984375 17.96875 50.515625 8.265625 
Q 44.046875 -1.421875 31.78125 -1.421875 
Q 19.53125 -1.421875 13.0625 8.265625 
Q 6.59375 17.96875 6.59375 36.375 
Q 6.59375 54.828125 13.0625 64.515625 
Q 19.53125 74.21875 31.78125 74.21875 
z
" id="DejaVuSans-30"/>
       <path d="M 40.578125 39.3125 
Q 47.65625 37.796875 51.625 33 
Q 55.609375 28.21875 55.609375 21.1875 
Q 55.609375 10.40625 48.1875 4.484375 
Q 40.765625 -1.421875 27.09375 -1.421875 
Q 22.515625 -1.421875 17.65625 -0.515625 
Q 12.796875 0.390625 7.625 2.203125 
L 7.625 11.71875 
Q 11.71875 9.328125 16.59375 8.109375 
Q 21.484375 6.890625 26.8125 6.890625 
Q 36.078125 6.890625 40.9375 10.546875 
Q 45.796875 14.203125 45.796875 21.1875 
Q 45.796875 27.640625 41.28125 31.265625 
Q 36.765625 34.90625 28.71875 34.90625 
L 20.21875 34.90625 
L 20.21875 43.015625 
L 29.109375 43.015625 
Q 36.375 43.015625 40.234375 45.921875 
Q 44.09375 48.828125 44.09375 54.296875 
Q 44.09375 59.90625 40.109375 62.90625 
Q 36.140625 65.921875 28.71875 65.921875 
Q 24.65625 65.921875 20.015625 65.03125 
Q 15.375 64.15625 9.8125 62.3125 
L 9.8125 71.09375 
Q 15.4375 72.65625 20.34375 73.4375 
Q 25.25 74.21875 29.59375 74.21875 
Q 40.828125 74.21875 47.359375 69.109375 
Q 53.90625 64.015625 53.90625 55.328125 
Q 53.90625 49.265625 50.4375 45.09375 
Q 46.96875 40.921875 40.578125 39.3125 
z
" id="DejaVuSans-33"/>
      </defs>
      <g transform="translate(141.846247 322.182437)scale(0.1 -0.1)">
       <use transform="translate(0 0.765625)" xlink:href="#DejaVuSans-31"/>
       <use transform="translate(63.623047 0.765625)" xlink:href="#DejaVuSans-30"/>
       <use transform="translate(128.203125 39.046875)scale(0.7)" xlink:href="#DejaVuSans-33"/>
      </g>
     </g>
    </g>
    <g id="xtick_2">
     <g id="line2d_2">
      <g>
       <use style="stroke:#000000;stroke-width:0.8;" x="285.343505" xlink:href="#mb5df33e695" y="307.584"/>
      </g>
     </g>
     <g id="text_2">
      <!-- $\mathdefault{10^{4}}$ -->
      <defs>
       <path d="M 37.796875 64.3125 
L 12.890625 25.390625 
L 37.796875 25.390625 
z
M 35.203125 72.90625 
L 47.609375 72.90625 
L 47.609375 25.390625 
L 58.015625 25.390625 
L 58.015625 17.1875 
L 47.609375 17.1875 
L 47.609375 0 
L 37.796875 0 
L 37.796875 17.1875 
L 4.890625 17.1875 
L 4.890625 26.703125 
z
" id="DejaVuSans-34"/>
      </defs>
      <g transform="translate(276.543505 322.182437)scale(0.1 -0.1)">
       <use transform="translate(0 0.684375)" xlink:href="#DejaVuSans-31"/>
       <use transform="translate(63.623047 0.684375)" xlink:href="#DejaVuSans-30"/>
       <use transform="translate(128.203125 38.965625)scale(0.7)" xlink:href="#DejaVuSans-34"/>
      </g>
     </g>
    </g>
    <g id="xtick_3">
     <g id="line2d_3">
      <defs>
       <path d="M 0 0 
L 0 2 
" id="m98fea4506e" style="stroke:#000000;stroke-width:0.6;"/>
      </defs>
      <g>
       <use style="stroke:#000000;stroke-width:0.6;" x="80.215913" xlink:href="#m98fea4506e" y="307.584"/>
      </g>
     </g>
    </g>
    <g id="xtick_4">
     <g id="line2d_4">
      <g>
       <use style="stroke:#000000;stroke-width:0.6;" x="97.044819" xlink:href="#m98fea4506e" y="307.584"/>
      </g>
     </g>
    </g>
    <g id="xtick_5">
     <g id="line2d_5">
      <g>
       <use style="stroke:#000000;stroke-width:0.6;" x="110.098332" xlink:href="#m98fea4506e" y="307.584"/>
      </g>
     </g>
    </g>
    <g id="xtick_6">
     <g id="line2d_6">
      <g>
       <use style="stroke:#000000;stroke-width:0.6;" x="120.763828" xlink:href="#m98fea4506e" y="307.584"/>
      </g>
     </g>
    </g>
    <g id="xtick_7">
     <g id="line2d_7">
      <g>
       <use style="stroke:#000000;stroke-width:0.6;" x="129.781377" xlink:href="#m98fea4506e" y="307.584"/>
      </g>
     </g>
    </g>
    <g id="xtick_8">
     <g id="line2d_8">
      <g>
       <use style="stroke:#000000;stroke-width:0.6;" x="137.592734" xlink:href="#m98fea4506e" y="307.584"/>
      </g>
     </g>
    </g>
    <g id="xtick_9">
     <g id="line2d_9">
      <g>
       <use style="stroke:#000000;stroke-width:0.6;" x="144.482838" xlink:href="#m98fea4506e" y="307.584"/>
      </g>
     </g>
    </g>
    <g id="xtick_10">
     <g id="line2d_10">
      <g>
       <use style="stroke:#000000;stroke-width:0.6;" x="191.194162" xlink:href="#m98fea4506e" y="307.584"/>
      </g>
     </g>
    </g>
    <g id="xtick_11">
     <g id="line2d_11">
      <g>
       <use style="stroke:#000000;stroke-width:0.6;" x="214.913171" xlink:href="#m98fea4506e" y="307.584"/>
      </g>
     </g>
    </g>
    <g id="xtick_12">
     <g id="line2d_12">
      <g>
       <use style="stroke:#000000;stroke-width:0.6;" x="231.742077" xlink:href="#m98fea4506e" y="307.584"/>
      </g>
     </g>
    </g>
    <g id="xtick_13">
     <g id="line2d_13">
      <g>
       <use style="stroke:#000000;stroke-width:0.6;" x="244.79559" xlink:href="#m98fea4506e" y="307.584"/>
      </g>
     </g>
    </g>
    <g id="xtick_14">
     <g id="line2d_14">
      <g>
       <use style="stroke:#000000;stroke-width:0.6;" x="255.461086" xlink:href="#m98fea4506e" y="307.584"/>
      </g>
     </g>
    </g>
    <g id="xtick_15">
     <g id="line2d_15">
      <g>
       <use style="stroke:#000000;stroke-width:0.6;" x="264.478635" xlink:href="#m98fea4506e" y="307.584"/>
      </g>
     </g>
    </g>
    <g id="xtick_16">
     <g id="line2d_16">
      <g>
       <use style="stroke:#000000;stroke-width:0.6;" x="272.289992" xlink:href="#m98fea4506e" y="307.584"/>
      </g>
     </g>
    </g>
    <g id="xtick_17">
     <g id="line2d_17">
      <g>
       <use style="stroke:#000000;stroke-width:0.6;" x="279.180096" xlink:href="#m98fea4506e" y="307.584"/>
      </g>
     </g>
    </g>
    <g id="xtick_18">
     <g id="line2d_18">
      <g>
       <use style="stroke:#000000;stroke-width:0.6;" x="325.89142" xlink:href="#m98fea4506e" y="307.584"/>
      </g>
     </g>
    </g>
    <g id="xtick_19">
     <g id="line2d_19">
      <g>
       <use style="stroke:#000000;stroke-width:0.6;" x="349.610429" xlink:href="#m98fea4506e" y="307.584"/>
      </g>
     </g>
    </g>
    <g id="xtick_20">
     <g id="line2d_20">
      <g>
       <use style="stroke:#000000;stroke-width:0.6;" x="366.439335" xlink:href="#m98fea4506e" y="307.584"/>
      </g>
     </g>
    </g>
    <g id="xtick_21">
     <g id="line2d_21">
      <g>
       <use style="stroke:#000000;stroke-width:0.6;" x="379.492848" xlink:href="#m98fea4506e" y="307.584"/>
      </g>
     </g>
    </g>
    <g id="xtick_22">
     <g id="line2d_22">
      <g>
       <use style="stroke:#000000;stroke-width:0.6;" x="390.158344" xlink:href="#m98fea4506e" y="307.584"/>
      </g>
     </g>
    </g>
    <g id="xtick_23">
     <g id="line2d_23">
      <g>
       <use style="stroke:#000000;stroke-width:0.6;" x="399.175893" xlink:href="#m98fea4506e" y="307.584"/>
      </g>
     </g>
    </g>
    <g id="xtick_24">
     <g id="line2d_24">
      <g>
       <use style="stroke:#000000;stroke-width:0.6;" x="406.98725" xlink:href="#m98fea4506e" y="307.584"/>
      </g>
     </g>
    </g>
    <g id="xtick_25">
     <g id="line2d_25">
      <g>
       <use style="stroke:#000000;stroke-width:0.6;" x="413.877354" xlink:href="#m98fea4506e" y="307.584"/>
      </g>
     </g>
    </g>
    <g id="text_3">
     <!-- Execution time (s) -->
     <defs>
      <path d="M 9.8125 72.90625 
L 55.90625 72.90625 
L 55.90625 64.59375 
L 19.671875 64.59375 
L 19.671875 43.015625 
L 54.390625 43.015625 
L 54.390625 34.71875 
L 19.671875 34.71875 
L 19.671875 8.296875 
L 56.78125 8.296875 
L 56.78125 0 
L 9.8125 0 
z
" id="DejaVuSans-45"/>
      <path d="M 54.890625 54.6875 
L 35.109375 28.078125 
L 55.90625 0 
L 45.3125 0 
L 29.390625 21.484375 
L 13.484375 0 
L 2.875 0 
L 24.125 28.609375 
L 4.6875 54.6875 
L 15.28125 54.6875 
L 29.78125 35.203125 
L 44.28125 54.6875 
z
" id="DejaVuSans-78"/>
      <path d="M 56.203125 29.59375 
L 56.203125 25.203125 
L 14.890625 25.203125 
Q 15.484375 15.921875 20.484375 11.0625 
Q 25.484375 6.203125 34.421875 6.203125 
Q 39.59375 6.203125 44.453125 7.46875 
Q 49.3125 8.734375 54.109375 11.28125 
L 54.109375 2.78125 
Q 49.265625 0.734375 44.1875 -0.34375 
Q 39.109375 -1.421875 33.890625 -1.421875 
Q 20.796875 -1.421875 13.15625 6.1875 
Q 5.515625 13.8125 5.515625 26.8125 
Q 5.515625 40.234375 12.765625 48.109375 
Q 20.015625 56 32.328125 56 
Q 43.359375 56 49.78125 48.890625 
Q 56.203125 41.796875 56.203125 29.59375 
z
M 47.21875 32.234375 
Q 47.125 39.59375 43.09375 43.984375 
Q 39.0625 48.390625 32.421875 48.390625 
Q 24.90625 48.390625 20.390625 44.140625 
Q 15.875 39.890625 15.1875 32.171875 
z
" id="DejaVuSans-65"/>
      <path d="M 48.78125 52.59375 
L 48.78125 44.1875 
Q 44.96875 46.296875 41.140625 47.34375 
Q 37.3125 48.390625 33.40625 48.390625 
Q 24.65625 48.390625 19.8125 42.84375 
Q 14.984375 37.3125 14.984375 27.296875 
Q 14.984375 17.28125 19.8125 11.734375 
Q 24.65625 6.203125 33.40625 6.203125 
Q 37.3125 6.203125 41.140625 7.25 
Q 44.96875 8.296875 48.78125 10.40625 
L 48.78125 2.09375 
Q 45.015625 0.34375 40.984375 -0.53125 
Q 36.96875 -1.421875 32.421875 -1.421875 
Q 20.0625 -1.421875 12.78125 6.34375 
Q 5.515625 14.109375 5.515625 27.296875 
Q 5.515625 40.671875 12.859375 48.328125 
Q 20.21875 56 33.015625 56 
Q 37.15625 56 41.109375 55.140625 
Q 45.0625 54.296875 48.78125 52.59375 
z
" id="DejaVuSans-63"/>
      <path d="M 8.5 21.578125 
L 8.5 54.6875 
L 17.484375 54.6875 
L 17.484375 21.921875 
Q 17.484375 14.15625 20.5 10.265625 
Q 23.53125 6.390625 29.59375 6.390625 
Q 36.859375 6.390625 41.078125 11.03125 
Q 45.3125 15.671875 45.3125 23.6875 
L 45.3125 54.6875 
L 54.296875 54.6875 
L 54.296875 0 
L 45.3125 0 
L 45.3125 8.40625 
Q 42.046875 3.421875 37.71875 1 
Q 33.40625 -1.421875 27.6875 -1.421875 
Q 18.265625 -1.421875 13.375 4.4375 
Q 8.5 10.296875 8.5 21.578125 
z
M 31.109375 56 
z
" id="DejaVuSans-75"/>
      <path d="M 18.3125 70.21875 
L 18.3125 54.6875 
L 36.8125 54.6875 
L 36.8125 47.703125 
L 18.3125 47.703125 
L 18.3125 18.015625 
Q 18.3125 11.328125 20.140625 9.421875 
Q 21.96875 7.515625 27.59375 7.515625 
L 36.8125 7.515625 
L 36.8125 0 
L 27.59375 0 
Q 17.1875 0 13.234375 3.875 
Q 9.28125 7.765625 9.28125 18.015625 
L 9.28125 47.703125 
L 2.6875 47.703125 
L 2.6875 54.6875 
L 9.28125 54.6875 
L 9.28125 70.21875 
z
" id="DejaVuSans-74"/>
      <path d="M 9.421875 54.6875 
L 18.40625 54.6875 
L 18.40625 0 
L 9.421875 0 
z
M 9.421875 75.984375 
L 18.40625 75.984375 
L 18.40625 64.59375 
L 9.421875 64.59375 
z
" id="DejaVuSans-69"/>
      <path d="M 30.609375 48.390625 
Q 23.390625 48.390625 19.1875 42.75 
Q 14.984375 37.109375 14.984375 27.296875 
Q 14.984375 17.484375 19.15625 11.84375 
Q 23.34375 6.203125 30.609375 6.203125 
Q 37.796875 6.203125 41.984375 11.859375 
Q 46.1875 17.53125 46.1875 27.296875 
Q 46.1875 37.015625 41.984375 42.703125 
Q 37.796875 48.390625 30.609375 48.390625 
z
M 30.609375 56 
Q 42.328125 56 49.015625 48.375 
Q 55.71875 40.765625 55.71875 27.296875 
Q 55.71875 13.875 49.015625 6.21875 
Q 42.328125 -1.421875 30.609375 -1.421875 
Q 18.84375 -1.421875 12.171875 6.21875 
Q 5.515625 13.875 5.515625 27.296875 
Q 5.515625 40.765625 12.171875 48.375 
Q 18.84375 56 30.609375 56 
z
" id="DejaVuSans-6f"/>
      <path d="M 54.890625 33.015625 
L 54.890625 0 
L 45.90625 0 
L 45.90625 32.71875 
Q 45.90625 40.484375 42.875 44.328125 
Q 39.84375 48.1875 33.796875 48.1875 
Q 26.515625 48.1875 22.3125 43.546875 
Q 18.109375 38.921875 18.109375 30.90625 
L 18.109375 0 
L 9.078125 0 
L 9.078125 54.6875 
L 18.109375 54.6875 
L 18.109375 46.1875 
Q 21.34375 51.125 25.703125 53.5625 
Q 30.078125 56 35.796875 56 
Q 45.21875 56 50.046875 50.171875 
Q 54.890625 44.34375 54.890625 33.015625 
z
" id="DejaVuSans-6e"/>
      <path id="DejaVuSans-20"/>
      <path d="M 52 44.1875 
Q 55.375 50.25 60.0625 53.125 
Q 64.75 56 71.09375 56 
Q 79.640625 56 84.28125 50.015625 
Q 88.921875 44.046875 88.921875 33.015625 
L 88.921875 0 
L 79.890625 0 
L 79.890625 32.71875 
Q 79.890625 40.578125 77.09375 44.375 
Q 74.3125 48.1875 68.609375 48.1875 
Q 61.625 48.1875 57.5625 43.546875 
Q 53.515625 38.921875 53.515625 30.90625 
L 53.515625 0 
L 44.484375 0 
L 44.484375 32.71875 
Q 44.484375 40.625 41.703125 44.40625 
Q 38.921875 48.1875 33.109375 48.1875 
Q 26.21875 48.1875 22.15625 43.53125 
Q 18.109375 38.875 18.109375 30.90625 
L 18.109375 0 
L 9.078125 0 
L 9.078125 54.6875 
L 18.109375 54.6875 
L 18.109375 46.1875 
Q 21.1875 51.21875 25.484375 53.609375 
Q 29.78125 56 35.6875 56 
Q 41.65625 56 45.828125 52.96875 
Q 50 49.953125 52 44.1875 
z
" id="DejaVuSans-6d"/>
      <path d="M 31 75.875 
Q 24.46875 64.65625 21.28125 53.65625 
Q 18.109375 42.671875 18.109375 31.390625 
Q 18.109375 20.125 21.3125 9.0625 
Q 24.515625 -2 31 -13.1875 
L 23.1875 -13.1875 
Q 15.875 -1.703125 12.234375 9.375 
Q 8.59375 20.453125 8.59375 31.390625 
Q 8.59375 42.28125 12.203125 53.3125 
Q 15.828125 64.359375 23.1875 75.875 
z
" id="DejaVuSans-28"/>
      <path d="M 44.28125 53.078125 
L 44.28125 44.578125 
Q 40.484375 46.53125 36.375 47.5 
Q 32.28125 48.484375 27.875 48.484375 
Q 21.1875 48.484375 17.84375 46.4375 
Q 14.5 44.390625 14.5 40.28125 
Q 14.5 37.15625 16.890625 35.375 
Q 19.28125 33.59375 26.515625 31.984375 
L 29.59375 31.296875 
Q 39.15625 29.25 43.1875 25.515625 
Q 47.21875 21.78125 47.21875 15.09375 
Q 47.21875 7.46875 41.1875 3.015625 
Q 35.15625 -1.421875 24.609375 -1.421875 
Q 20.21875 -1.421875 15.453125 -0.5625 
Q 10.6875 0.296875 5.421875 2 
L 5.421875 11.28125 
Q 10.40625 8.6875 15.234375 7.390625 
Q 20.0625 6.109375 24.8125 6.109375 
Q 31.15625 6.109375 34.5625 8.28125 
Q 37.984375 10.453125 37.984375 14.40625 
Q 37.984375 18.0625 35.515625 20.015625 
Q 33.0625 21.96875 24.703125 23.78125 
L 21.578125 24.515625 
Q 13.234375 26.265625 9.515625 29.90625 
Q 5.8125 33.546875 5.8125 39.890625 
Q 5.8125 47.609375 11.28125 51.796875 
Q 16.75 56 26.8125 56 
Q 31.78125 56 36.171875 55.265625 
Q 40.578125 54.546875 44.28125 53.078125 
z
" id="DejaVuSans-73"/>
      <path d="M 8.015625 75.875 
L 15.828125 75.875 
Q 23.140625 64.359375 26.78125 53.3125 
Q 30.421875 42.28125 30.421875 31.390625 
Q 30.421875 20.453125 26.78125 9.375 
Q 23.140625 -1.703125 15.828125 -13.1875 
L 8.015625 -13.1875 
Q 14.5 -2 17.703125 9.0625 
Q 20.90625 20.125 20.90625 31.390625 
Q 20.90625 42.671875 17.703125 53.65625 
Q 14.5 64.65625 8.015625 75.875 
z
" id="DejaVuSans-29"/>
     </defs>
     <g transform="translate(190.49125 335.860562)scale(0.1 -0.1)">
      <use xlink:href="#DejaVuSans-45"/>
      <use x="63.183594" xlink:href="#DejaVuSans-78"/>
      <use x="122.316406" xlink:href="#DejaVuSans-65"/>
      <use x="183.839844" xlink:href="#DejaVuSans-63"/>
      <use x="238.820312" xlink:href="#DejaVuSans-75"/>
      <use x="302.199219" xlink:href="#DejaVuSans-74"/>
      <use x="341.408203" xlink:href="#DejaVuSans-69"/>
      <use x="369.191406" xlink:href="#DejaVuSans-6f"/>
      <use x="430.373047" xlink:href="#DejaVuSans-6e"/>
      <use x="493.751953" xlink:href="#DejaVuSans-20"/>
      <use x="525.539062" xlink:href="#DejaVuSans-74"/>
      <use x="564.748047" xlink:href="#DejaVuSans-69"/>
      <use x="592.53125" xlink:href="#DejaVuSans-6d"/>
      <use x="689.943359" xlink:href="#DejaVuSans-65"/>
      <use x="751.466797" xlink:href="#DejaVuSans-20"/>
      <use x="783.253906" xlink:href="#DejaVuSans-28"/>
      <use x="822.267578" xlink:href="#DejaVuSans-73"/>
      <use x="874.367188" xlink:href="#DejaVuSans-29"/>
     </g>
    </g>
   </g>
   <g id="matplotlib.axis_2">
    <g id="ytick_1">
     <g id="line2d_26">
      <defs>
       <path d="M 0 0 
L -3.5 0 
" id="m122b1753af" style="stroke:#000000;stroke-width:0.8;"/>
      </defs>
      <g>
       <use style="stroke:#000000;stroke-width:0.8;" x="57.6" xlink:href="#m122b1753af" y="291.489322"/>
      </g>
     </g>
     <g id="text_4">
      <!-- 40 -->
      <g transform="translate(37.875 295.288541)scale(0.1 -0.1)">
       <use xlink:href="#DejaVuSans-34"/>
       <use x="63.623047" xlink:href="#DejaVuSans-30"/>
      </g>
     </g>
    </g>
    <g id="ytick_2">
     <g id="line2d_27">
      <g>
       <use style="stroke:#000000;stroke-width:0.8;" x="57.6" xlink:href="#m122b1753af" y="251.502545"/>
      </g>
     </g>
     <g id="text_5">
      <!-- 60 -->
      <defs>
       <path d="M 33.015625 40.375 
Q 26.375 40.375 22.484375 35.828125 
Q 18.609375 31.296875 18.609375 23.390625 
Q 18.609375 15.53125 22.484375 10.953125 
Q 26.375 6.390625 33.015625 6.390625 
Q 39.65625 6.390625 43.53125 10.953125 
Q 47.40625 15.53125 47.40625 23.390625 
Q 47.40625 31.296875 43.53125 35.828125 
Q 39.65625 40.375 33.015625 40.375 
z
M 52.59375 71.296875 
L 52.59375 62.3125 
Q 48.875 64.0625 45.09375 64.984375 
Q 41.3125 65.921875 37.59375 65.921875 
Q 27.828125 65.921875 22.671875 59.328125 
Q 17.53125 52.734375 16.796875 39.40625 
Q 19.671875 43.65625 24.015625 45.921875 
Q 28.375 48.1875 33.59375 48.1875 
Q 44.578125 48.1875 50.953125 41.515625 
Q 57.328125 34.859375 57.328125 23.390625 
Q 57.328125 12.15625 50.6875 5.359375 
Q 44.046875 -1.421875 33.015625 -1.421875 
Q 20.359375 -1.421875 13.671875 8.265625 
Q 6.984375 17.96875 6.984375 36.375 
Q 6.984375 53.65625 15.1875 63.9375 
Q 23.390625 74.21875 37.203125 74.21875 
Q 40.921875 74.21875 44.703125 73.484375 
Q 48.484375 72.75 52.59375 71.296875 
z
" id="DejaVuSans-36"/>
      </defs>
      <g transform="translate(37.875 255.301764)scale(0.1 -0.1)">
       <use xlink:href="#DejaVuSans-36"/>
       <use x="63.623047" xlink:href="#DejaVuSans-30"/>
      </g>
     </g>
    </g>
    <g id="ytick_3">
     <g id="line2d_28">
      <g>
       <use style="stroke:#000000;stroke-width:0.8;" x="57.6" xlink:href="#m122b1753af" y="211.515769"/>
      </g>
     </g>
     <g id="text_6">
      <!-- 80 -->
      <defs>
       <path d="M 31.78125 34.625 
Q 24.75 34.625 20.71875 30.859375 
Q 16.703125 27.09375 16.703125 20.515625 
Q 16.703125 13.921875 20.71875 10.15625 
Q 24.75 6.390625 31.78125 6.390625 
Q 38.8125 6.390625 42.859375 10.171875 
Q 46.921875 13.96875 46.921875 20.515625 
Q 46.921875 27.09375 42.890625 30.859375 
Q 38.875 34.625 31.78125 34.625 
z
M 21.921875 38.8125 
Q 15.578125 40.375 12.03125 44.71875 
Q 8.5 49.078125 8.5 55.328125 
Q 8.5 64.0625 14.71875 69.140625 
Q 20.953125 74.21875 31.78125 74.21875 
Q 42.671875 74.21875 48.875 69.140625 
Q 55.078125 64.0625 55.078125 55.328125 
Q 55.078125 49.078125 51.53125 44.71875 
Q 48 40.375 41.703125 38.8125 
Q 48.828125 37.15625 52.796875 32.3125 
Q 56.78125 27.484375 56.78125 20.515625 
Q 56.78125 9.90625 50.3125 4.234375 
Q 43.84375 -1.421875 31.78125 -1.421875 
Q 19.734375 -1.421875 13.25 4.234375 
Q 6.78125 9.90625 6.78125 20.515625 
Q 6.78125 27.484375 10.78125 32.3125 
Q 14.796875 37.15625 21.921875 38.8125 
z
M 18.3125 54.390625 
Q 18.3125 48.734375 21.84375 45.5625 
Q 25.390625 42.390625 31.78125 42.390625 
Q 38.140625 42.390625 41.71875 45.5625 
Q 45.3125 48.734375 45.3125 54.390625 
Q 45.3125 60.0625 41.71875 63.234375 
Q 38.140625 66.40625 31.78125 66.40625 
Q 25.390625 66.40625 21.84375 63.234375 
Q 18.3125 60.0625 18.3125 54.390625 
z
" id="DejaVuSans-38"/>
      </defs>
      <g transform="translate(37.875 215.314987)scale(0.1 -0.1)">
       <use xlink:href="#DejaVuSans-38"/>
       <use x="63.623047" xlink:href="#DejaVuSans-30"/>
      </g>
     </g>
    </g>
    <g id="ytick_4">
     <g id="line2d_29">
      <g>
       <use style="stroke:#000000;stroke-width:0.8;" x="57.6" xlink:href="#m122b1753af" y="171.528992"/>
      </g>
     </g>
     <g id="text_7">
      <!-- 100 -->
      <g transform="translate(31.5125 175.32821)scale(0.1 -0.1)">
       <use xlink:href="#DejaVuSans-31"/>
       <use x="63.623047" xlink:href="#DejaVuSans-30"/>
       <use x="127.246094" xlink:href="#DejaVuSans-30"/>
      </g>
     </g>
    </g>
    <g id="ytick_5">
     <g id="line2d_30">
      <g>
       <use style="stroke:#000000;stroke-width:0.8;" x="57.6" xlink:href="#m122b1753af" y="131.542215"/>
      </g>
     </g>
     <g id="text_8">
      <!-- 120 -->
      <defs>
       <path d="M 19.1875 8.296875 
L 53.609375 8.296875 
L 53.609375 0 
L 7.328125 0 
L 7.328125 8.296875 
Q 12.9375 14.109375 22.625 23.890625 
Q 32.328125 33.6875 34.8125 36.53125 
Q 39.546875 41.84375 41.421875 45.53125 
Q 43.3125 49.21875 43.3125 52.78125 
Q 43.3125 58.59375 39.234375 62.25 
Q 35.15625 65.921875 28.609375 65.921875 
Q 23.96875 65.921875 18.8125 64.3125 
Q 13.671875 62.703125 7.8125 59.421875 
L 7.8125 69.390625 
Q 13.765625 71.78125 18.9375 73 
Q 24.125 74.21875 28.421875 74.21875 
Q 39.75 74.21875 46.484375 68.546875 
Q 53.21875 62.890625 53.21875 53.421875 
Q 53.21875 48.921875 51.53125 44.890625 
Q 49.859375 40.875 45.40625 35.40625 
Q 44.1875 33.984375 37.640625 27.21875 
Q 31.109375 20.453125 19.1875 8.296875 
z
" id="DejaVuSans-32"/>
      </defs>
      <g transform="translate(31.5125 135.341434)scale(0.1 -0.1)">
       <use xlink:href="#DejaVuSans-31"/>
       <use x="63.623047" xlink:href="#DejaVuSans-32"/>
       <use x="127.246094" xlink:href="#DejaVuSans-30"/>
      </g>
     </g>
    </g>
    <g id="ytick_6">
     <g id="line2d_31">
      <g>
       <use style="stroke:#000000;stroke-width:0.8;" x="57.6" xlink:href="#m122b1753af" y="91.555438"/>
      </g>
     </g>
     <g id="text_9">
      <!-- 140 -->
      <g transform="translate(31.5125 95.354657)scale(0.1 -0.1)">
       <use xlink:href="#DejaVuSans-31"/>
       <use x="63.623047" xlink:href="#DejaVuSans-34"/>
       <use x="127.246094" xlink:href="#DejaVuSans-30"/>
      </g>
     </g>
    </g>
    <g id="ytick_7">
     <g id="line2d_32">
      <g>
       <use style="stroke:#000000;stroke-width:0.8;" x="57.6" xlink:href="#m122b1753af" y="51.568661"/>
      </g>
     </g>
     <g id="text_10">
      <!-- 160 -->
      <g transform="translate(31.5125 55.36788)scale(0.1 -0.1)">
       <use xlink:href="#DejaVuSans-31"/>
       <use x="63.623047" xlink:href="#DejaVuSans-36"/>
       <use x="127.246094" xlink:href="#DejaVuSans-30"/>
      </g>
     </g>
    </g>
    <g id="text_11">
     <!-- Number of core species -->
     <defs>
      <path d="M 9.8125 72.90625 
L 23.09375 72.90625 
L 55.421875 11.921875 
L 55.421875 72.90625 
L 64.984375 72.90625 
L 64.984375 0 
L 51.703125 0 
L 19.390625 60.984375 
L 19.390625 0 
L 9.8125 0 
z
" id="DejaVuSans-4e"/>
      <path d="M 48.6875 27.296875 
Q 48.6875 37.203125 44.609375 42.84375 
Q 40.53125 48.484375 33.40625 48.484375 
Q 26.265625 48.484375 22.1875 42.84375 
Q 18.109375 37.203125 18.109375 27.296875 
Q 18.109375 17.390625 22.1875 11.75 
Q 26.265625 6.109375 33.40625 6.109375 
Q 40.53125 6.109375 44.609375 11.75 
Q 48.6875 17.390625 48.6875 27.296875 
z
M 18.109375 46.390625 
Q 20.953125 51.265625 25.265625 53.625 
Q 29.59375 56 35.59375 56 
Q 45.5625 56 51.78125 48.09375 
Q 58.015625 40.1875 58.015625 27.296875 
Q 58.015625 14.40625 51.78125 6.484375 
Q 45.5625 -1.421875 35.59375 -1.421875 
Q 29.59375 -1.421875 25.265625 0.953125 
Q 20.953125 3.328125 18.109375 8.203125 
L 18.109375 0 
L 9.078125 0 
L 9.078125 75.984375 
L 18.109375 75.984375 
z
" id="DejaVuSans-62"/>
      <path d="M 41.109375 46.296875 
Q 39.59375 47.171875 37.8125 47.578125 
Q 36.03125 48 33.890625 48 
Q 26.265625 48 22.1875 43.046875 
Q 18.109375 38.09375 18.109375 28.8125 
L 18.109375 0 
L 9.078125 0 
L 9.078125 54.6875 
L 18.109375 54.6875 
L 18.109375 46.1875 
Q 20.953125 51.171875 25.484375 53.578125 
Q 30.03125 56 36.53125 56 
Q 37.453125 56 38.578125 55.875 
Q 39.703125 55.765625 41.0625 55.515625 
z
" id="DejaVuSans-72"/>
      <path d="M 37.109375 75.984375 
L 37.109375 68.5 
L 28.515625 68.5 
Q 23.6875 68.5 21.796875 66.546875 
Q 19.921875 64.59375 19.921875 59.515625 
L 19.921875 54.6875 
L 34.71875 54.6875 
L 34.71875 47.703125 
L 19.921875 47.703125 
L 19.921875 0 
L 10.890625 0 
L 10.890625 47.703125 
L 2.296875 47.703125 
L 2.296875 54.6875 
L 10.890625 54.6875 
L 10.890625 58.5 
Q 10.890625 67.625 15.140625 71.796875 
Q 19.390625 75.984375 28.609375 75.984375 
z
" id="DejaVuSans-66"/>
      <path d="M 18.109375 8.203125 
L 18.109375 -20.796875 
L 9.078125 -20.796875 
L 9.078125 54.6875 
L 18.109375 54.6875 
L 18.109375 46.390625 
Q 20.953125 51.265625 25.265625 53.625 
Q 29.59375 56 35.59375 56 
Q 45.5625 56 51.78125 48.09375 
Q 58.015625 40.1875 58.015625 27.296875 
Q 58.015625 14.40625 51.78125 6.484375 
Q 45.5625 -1.421875 35.59375 -1.421875 
Q 29.59375 -1.421875 25.265625 0.953125 
Q 20.953125 3.328125 18.109375 8.203125 
z
M 48.6875 27.296875 
Q 48.6875 37.203125 44.609375 42.84375 
Q 40.53125 48.484375 33.40625 48.484375 
Q 26.265625 48.484375 22.1875 42.84375 
Q 18.109375 37.203125 18.109375 27.296875 
Q 18.109375 17.390625 22.1875 11.75 
Q 26.265625 6.109375 33.40625 6.109375 
Q 40.53125 6.109375 44.609375 11.75 
Q 48.6875 17.390625 48.6875 27.296875 
z
" id="DejaVuSans-70"/>
     </defs>
     <g transform="translate(25.432812 233.814719)rotate(-90)scale(0.1 -0.1)">
      <use xlink:href="#DejaVuSans-4e"/>
      <use x="74.804688" xlink:href="#DejaVuSans-75"/>
      <use x="138.183594" xlink:href="#DejaVuSans-6d"/>
      <use x="235.595703" xlink:href="#DejaVuSans-62"/>
      <use x="299.072266" xlink:href="#DejaVuSans-65"/>
      <use x="360.595703" xlink:href="#DejaVuSans-72"/>
      <use x="401.708984" xlink:href="#DejaVuSans-20"/>
      <use x="433.496094" xlink:href="#DejaVuSans-6f"/>
      <use x="494.677734" xlink:href="#DejaVuSans-66"/>
      <use x="529.882812" xlink:href="#DejaVuSans-20"/>
      <use x="561.669922" xlink:href="#DejaVuSans-63"/>
      <use x="616.650391" xlink:href="#DejaVuSans-6f"/>
      <use x="677.832031" xlink:href="#DejaVuSans-72"/>
      <use x="718.914062" xlink:href="#DejaVuSans-65"/>
      <use x="780.4375" xlink:href="#DejaVuSans-20"/>
      <use x="812.224609" xlink:href="#DejaVuSans-73"/>
      <use x="864.324219" xlink:href="#DejaVuSans-70"/>
      <use x="927.800781" xlink:href="#DejaVuSans-65"/>
      <use x="989.324219" xlink:href="#DejaVuSans-63"/>
      <use x="1044.304688" xlink:href="#DejaVuSans-69"/>
      <use x="1072.087891" xlink:href="#DejaVuSans-65"/>
      <use x="1133.611328" xlink:href="#DejaVuSans-73"/>
     </g>
    </g>
   </g>
   <g id="line2d_33">
    <path clip-path="url(#pa6965c1f1c)" d="M 73.832727 295.488 
L 95.588114 293.488661 
L 103.402214 291.489322 
L 115.764469 289.489983 
L 127.080714 287.490645 
L 132.741155 285.491306 
L 140.035967 283.491967 
L 147.363024 281.492628 
L 151.275718 279.493289 
L 158.159399 277.49395 
L 163.146473 275.494612 
L 168.239092 273.495273 
L 172.443453 271.495934 
L 174.957612 269.496595 
L 179.053983 267.497256 
L 183.160913 265.497917 
L 187.045543 263.498579 
L 192.088678 261.49924 
L 195.917827 259.499901 
L 200.471257 257.500562 
L 204.023259 255.501223 
L 207.339513 253.501884 
L 211.558527 251.502545 
L 215.787927 249.503207 
L 220.592675 247.503868 
L 226.375625 245.504529 
L 229.563258 243.50519 
L 234.231164 241.505851 
L 235.480265 241.505851 
L 238.033589 239.506512 
L 240.552138 237.507174 
L 241.572162 235.507835 
L 243.84747 233.508496 
L 246.026767 231.509157 
L 249.464533 229.509818 
L 253.266377 227.510479 
L 258.914627 225.51114 
L 261.979541 223.511802 
L 264.691846 221.512463 
L 267.763264 219.513124 
L 271.144986 217.513785 
L 271.291627 217.513785 
L 274.137913 215.514446 
L 276.564043 213.515107 
L 278.616575 211.515769 
L 280.378087 209.51643 
L 282.410195 207.517091 
L 284.484859 205.517752 
L 286.429273 203.518413 
L 290.793163 201.519074 
L 293.315198 199.519736 
L 295.319802 197.520397 
L 297.280703 195.521058 
L 299.865849 193.521719 
L 301.109694 191.52238 
L 304.939966 189.523041 
L 307.143065 187.523702 
L 308.508163 185.524364 
L 310.201895 183.525025 
L 310.923686 181.525686 
L 312.091134 179.526347 
L 313.190113 177.527008 
L 314.648527 175.527669 
L 317.893928 173.528331 
L 319.786781 171.528992 
L 321.248661 169.529653 
L 322.618018 167.530314 
L 323.110055 165.530975 
L 323.464741 163.531636 
L 324.700962 161.532298 
L 326.506947 159.532959 
L 328.521299 157.53362 
L 330.610163 155.534281 
L 331.920313 153.534942 
L 333.002446 151.535603 
L 335.380512 149.536264 
L 337.092904 147.536926 
L 338.299906 145.537587 
L 340.03689 143.538248 
L 341.405139 141.538909 
L 342.777068 139.53957 
L 345.888928 137.540231 
L 347.508397 135.540893 
L 348.850742 133.541554 
L 349.440615 131.542215 
L 350.793579 129.542876 
L 351.486337 127.543537 
L 351.74869 125.544198 
L 352.857154 123.54486 
L 354.466287 121.545521 
L 355.921352 119.546182 
L 359.842783 117.546843 
L 361.738125 115.547504 
L 363.495992 113.548165 
L 365.392058 111.548826 
L 366.233316 109.549488 
L 368.183291 107.550149 
L 370.699656 105.55081 
L 372.01101 103.551471 
L 372.826433 101.552132 
L 374.060159 99.552793 
L 374.835644 97.553455 
L 375.643742 95.554116 
L 376.383943 93.554777 
L 377.497256 91.555438 
L 377.98028 89.556099 
L 379.076321 87.55676 
L 380.065441 85.557421 
L 380.959655 83.558083 
L 382.30753 81.558744 
L 383.080833 79.559405 
L 383.659843 77.560066 
L 385.821538 75.560727 
L 387.164925 73.561388 
L 389.842327 71.56205 
L 391.234095 69.562711 
L 392.608572 67.563372 
L 393.633345 65.564033 
L 394.707318 63.564694 
L 394.798093 63.564694 
L 396.293012 61.565355 
L 396.972463 59.566017 
L 397.238784 57.566678 
L 397.760594 55.567339 
L 398.487273 53.568 
" style="fill:none;stroke:#0000ff;stroke-linecap:square;stroke-width:1.5;"/>
    <defs>
     <path d="M 0 3 
C 0.795609 3 1.55874 2.683901 2.12132 2.12132 
C 2.683901 1.55874 3 0.795609 3 0 
C 3 -0.795609 2.683901 -1.55874 2.12132 -2.12132 
C 1.55874 -2.683901 0.795609 -3 0 -3 
C -0.795609 -3 -1.55874 -2.683901 -2.12132 -2.12132 
C -2.683901 -1.55874 -3 -0.795609 -3 0 
C -3 0.795609 -2.683901 1.55874 -2.12132 2.12132 
C -1.55874 2.683901 -0.795609 3 0 3 
z
" id="m997b94145f" style="stroke:#0000ff;"/>
    </defs>
    <g clip-path="url(#pa6965c1f1c)">
     <use style="fill:#0000ff;stroke:#0000ff;" x="73.832727" xlink:href="#m997b94145f" y="295.488"/>
     <use style="fill:#0000ff;stroke:#0000ff;" x="95.588114" xlink:href="#m997b94145f" y="293.488661"/>
     <use style="fill:#0000ff;stroke:#0000ff;" x="103.402214" xlink:href="#m997b94145f" y="291.489322"/>
     <use style="fill:#0000ff;stroke:#0000ff;" x="115.764469" xlink:href="#m997b94145f" y="289.489983"/>
     <use style="fill:#0000ff;stroke:#0000ff;" x="127.080714" xlink:href="#m997b94145f" y="287.490645"/>
     <use style="fill:#0000ff;stroke:#0000ff;" x="132.741155" xlink:href="#m997b94145f" y="285.491306"/>
     <use style="fill:#0000ff;stroke:#0000ff;" x="140.035967" xlink:href="#m997b94145f" y="283.491967"/>
     <use style="fill:#0000ff;stroke:#0000ff;" x="147.363024" xlink:href="#m997b94145f" y="281.492628"/>
     <use style="fill:#0000ff;stroke:#0000ff;" x="151.275718" xlink:href="#m997b94145f" y="279.493289"/>
     <use style="fill:#0000ff;stroke:#0000ff;" x="158.159399" xlink:href="#m997b94145f" y="277.49395"/>
     <use style="fill:#0000ff;stroke:#0000ff;" x="163.146473" xlink:href="#m997b94145f" y="275.494612"/>
     <use style="fill:#0000ff;stroke:#0000ff;" x="168.239092" xlink:href="#m997b94145f" y="273.495273"/>
     <use style="fill:#0000ff;stroke:#0000ff;" x="172.443453" xlink:href="#m997b94145f" y="271.495934"/>
     <use style="fill:#0000ff;stroke:#0000ff;" x="174.957612" xlink:href="#m997b94145f" y="269.496595"/>
     <use style="fill:#0000ff;stroke:#0000ff;" x="179.053983" xlink:href="#m997b94145f" y="267.497256"/>
     <use style="fill:#0000ff;stroke:#0000ff;" x="183.160913" xlink:href="#m997b94145f" y="265.497917"/>
     <use style="fill:#0000ff;stroke:#0000ff;" x="187.045543" xlink:href="#m997b94145f" y="263.498579"/>
     <use style="fill:#0000ff;stroke:#0000ff;" x="192.088678" xlink:href="#m997b94145f" y="261.49924"/>
     <use style="fill:#0000ff;stroke:#0000ff;" x="195.917827" xlink:href="#m997b94145f" y="259.499901"/>
     <use style="fill:#0000ff;stroke:#0000ff;" x="200.471257" xlink:href="#m997b94145f" y="257.500562"/>
     <use style="fill:#0000ff;stroke:#0000ff;" x="204.023259" xlink:href="#m997b94145f" y="255.501223"/>
     <use style="fill:#0000ff;stroke:#0000ff;" x="207.339513" xlink:href="#m997b94145f" y="253.501884"/>
     <use style="fill:#0000ff;stroke:#0000ff;" x="211.558527" xlink:href="#m997b94145f" y="251.502545"/>
     <use style="fill:#0000ff;stroke:#0000ff;" x="215.787927" xlink:href="#m997b94145f" y="249.503207"/>
     <use style="fill:#0000ff;stroke:#0000ff;" x="220.592675" xlink:href="#m997b94145f" y="247.503868"/>
     <use style="fill:#0000ff;stroke:#0000ff;" x="226.375625" xlink:href="#m997b94145f" y="245.504529"/>
     <use style="fill:#0000ff;stroke:#0000ff;" x="229.563258" xlink:href="#m997b94145f" y="243.50519"/>
     <use style="fill:#0000ff;stroke:#0000ff;" x="234.231164" xlink:href="#m997b94145f" y="241.505851"/>
     <use style="fill:#0000ff;stroke:#0000ff;" x="235.480265" xlink:href="#m997b94145f" y="241.505851"/>
     <use style="fill:#0000ff;stroke:#0000ff;" x="238.033589" xlink:href="#m997b94145f" y="239.506512"/>
     <use style="fill:#0000ff;stroke:#0000ff;" x="240.552138" xlink:href="#m997b94145f" y="237.507174"/>
     <use style="fill:#0000ff;stroke:#0000ff;" x="241.572162" xlink:href="#m997b94145f" y="235.507835"/>
     <use style="fill:#0000ff;stroke:#0000ff;" x="243.84747" xlink:href="#m997b94145f" y="233.508496"/>
     <use style="fill:#0000ff;stroke:#0000ff;" x="246.026767" xlink:href="#m997b94145f" y="231.509157"/>
     <use style="fill:#0000ff;stroke:#0000ff;" x="249.464533" xlink:href="#m997b94145f" y="229.509818"/>
     <use style="fill:#0000ff;stroke:#0000ff;" x="253.266377" xlink:href="#m997b94145f" y="227.510479"/>
     <use style="fill:#0000ff;stroke:#0000ff;" x="258.914627" xlink:href="#m997b94145f" y="225.51114"/>
     <use style="fill:#0000ff;stroke:#0000ff;" x="261.979541" xlink:href="#m997b94145f" y="223.511802"/>
     <use style="fill:#0000ff;stroke:#0000ff;" x="264.691846" xlink:href="#m997b94145f" y="221.512463"/>
     <use style="fill:#0000ff;stroke:#0000ff;" x="267.763264" xlink:href="#m997b94145f" y="219.513124"/>
     <use style="fill:#0000ff;stroke:#0000ff;" x="271.144986" xlink:href="#m997b94145f" y="217.513785"/>
     <use style="fill:#0000ff;stroke:#0000ff;" x="271.291627" xlink:href="#m997b94145f" y="217.513785"/>
     <use style="fill:#0000ff;stroke:#0000ff;" x="274.137913" xlink:href="#m997b94145f" y="215.514446"/>
     <use style="fill:#0000ff;stroke:#0000ff;" x="276.564043" xlink:href="#m997b94145f" y="213.515107"/>
     <use style="fill:#0000ff;stroke:#0000ff;" x="278.616575" xlink:href="#m997b94145f" y="211.515769"/>
     <use style="fill:#0000ff;stroke:#0000ff;" x="280.378087" xlink:href="#m997b94145f" y="209.51643"/>
     <use style="fill:#0000ff;stroke:#0000ff;" x="282.410195" xlink:href="#m997b94145f" y="207.517091"/>
     <use style="fill:#0000ff;stroke:#0000ff;" x="284.484859" xlink:href="#m997b94145f" y="205.517752"/>
     <use style="fill:#0000ff;stroke:#0000ff;" x="286.429273" xlink:href="#m997b94145f" y="203.518413"/>
     <use style="fill:#0000ff;stroke:#0000ff;" x="290.793163" xlink:href="#m997b94145f" y="201.519074"/>
     <use style="fill:#0000ff;stroke:#0000ff;" x="293.315198" xlink:href="#m997b94145f" y="199.519736"/>
     <use style="fill:#0000ff;stroke:#0000ff;" x="295.319802" xlink:href="#m997b94145f" y="197.520397"/>
     <use style="fill:#0000ff;stroke:#0000ff;" x="297.280703" xlink:href="#m997b94145f" y="195.521058"/>
     <use style="fill:#0000ff;stroke:#0000ff;" x="299.865849" xlink:href="#m997b94145f" y="193.521719"/>
     <use style="fill:#0000ff;stroke:#0000ff;" x="301.109694" xlink:href="#m997b94145f" y="191.52238"/>
     <use style="fill:#0000ff;stroke:#0000ff;" x="304.939966" xlink:href="#m997b94145f" y="189.523041"/>
     <use style="fill:#0000ff;stroke:#0000ff;" x="307.143065" xlink:href="#m997b94145f" y="187.523702"/>
     <use style="fill:#0000ff;stroke:#0000ff;" x="308.508163" xlink:href="#m997b94145f" y="185.524364"/>
     <use style="fill:#0000ff;stroke:#0000ff;" x="310.201895" xlink:href="#m997b94145f" y="183.525025"/>
     <use style="fill:#0000ff;stroke:#0000ff;" x="310.923686" xlink:href="#m997b94145f" y="181.525686"/>
     <use style="fill:#0000ff;stroke:#0000ff;" x="312.091134" xlink:href="#m997b94145f" y="179.526347"/>
     <use style="fill:#0000ff;stroke:#0000ff;" x="313.190113" xlink:href="#m997b94145f" y="177.527008"/>
     <use style="fill:#0000ff;stroke:#0000ff;" x="314.648527" xlink:href="#m997b94145f" y="175.527669"/>
     <use style="fill:#0000ff;stroke:#0000ff;" x="317.893928" xlink:href="#m997b94145f" y="173.528331"/>
     <use style="fill:#0000ff;stroke:#0000ff;" x="319.786781" xlink:href="#m997b94145f" y="171.528992"/>
     <use style="fill:#0000ff;stroke:#0000ff;" x="321.248661" xlink:href="#m997b94145f" y="169.529653"/>
     <use style="fill:#0000ff;stroke:#0000ff;" x="322.618018" xlink:href="#m997b94145f" y="167.530314"/>
     <use style="fill:#0000ff;stroke:#0000ff;" x="323.110055" xlink:href="#m997b94145f" y="165.530975"/>
     <use style="fill:#0000ff;stroke:#0000ff;" x="323.464741" xlink:href="#m997b94145f" y="163.531636"/>
     <use style="fill:#0000ff;stroke:#0000ff;" x="324.700962" xlink:href="#m997b94145f" y="161.532298"/>
     <use style="fill:#0000ff;stroke:#0000ff;" x="326.506947" xlink:href="#m997b94145f" y="159.532959"/>
     <use style="fill:#0000ff;stroke:#0000ff;" x="328.521299" xlink:href="#m997b94145f" y="157.53362"/>
     <use style="fill:#0000ff;stroke:#0000ff;" x="330.610163" xlink:href="#m997b94145f" y="155.534281"/>
     <use style="fill:#0000ff;stroke:#0000ff;" x="331.920313" xlink:href="#m997b94145f" y="153.534942"/>
     <use style="fill:#0000ff;stroke:#0000ff;" x="333.002446" xlink:href="#m997b94145f" y="151.535603"/>
     <use style="fill:#0000ff;stroke:#0000ff;" x="335.380512" xlink:href="#m997b94145f" y="149.536264"/>
     <use style="fill:#0000ff;stroke:#0000ff;" x="337.092904" xlink:href="#m997b94145f" y="147.536926"/>
     <use style="fill:#0000ff;stroke:#0000ff;" x="338.299906" xlink:href="#m997b94145f" y="145.537587"/>
     <use style="fill:#0000ff;stroke:#0000ff;" x="340.03689" xlink:href="#m997b94145f" y="143.538248"/>
     <use style="fill:#0000ff;stroke:#0000ff;" x="341.405139" xlink:href="#m997b94145f" y="141.538909"/>
     <use style="fill:#0000ff;stroke:#0000ff;" x="342.777068" xlink:href="#m997b94145f" y="139.53957"/>
     <use style="fill:#0000ff;stroke:#0000ff;" x="345.888928" xlink:href="#m997b94145f" y="137.540231"/>
     <use style="fill:#0000ff;stroke:#0000ff;" x="347.508397" xlink:href="#m997b94145f" y="135.540893"/>
     <use style="fill:#0000ff;stroke:#0000ff;" x="348.850742" xlink:href="#m997b94145f" y="133.541554"/>
     <use style="fill:#0000ff;stroke:#0000ff;" x="349.440615" xlink:href="#m997b94145f" y="131.542215"/>
     <use style="fill:#0000ff;stroke:#0000ff;" x="350.793579" xlink:href="#m997b94145f" y="129.542876"/>
     <use style="fill:#0000ff;stroke:#0000ff;" x="351.486337" xlink:href="#m997b94145f" y="127.543537"/>
     <use style="fill:#0000ff;stroke:#0000ff;" x="351.74869" xlink:href="#m997b94145f" y="125.544198"/>
     <use style="fill:#0000ff;stroke:#0000ff;" x="352.857154" xlink:href="#m997b94145f" y="123.54486"/>
     <use style="fill:#0000ff;stroke:#0000ff;" x="354.466287" xlink:href="#m997b94145f" y="121.545521"/>
     <use style="fill:#0000ff;stroke:#0000ff;" x="355.921352" xlink:href="#m997b94145f" y="119.546182"/>
     <use style="fill:#0000ff;stroke:#0000ff;" x="359.842783" xlink:href="#m997b94145f" y="117.546843"/>
     <use style="fill:#0000ff;stroke:#0000ff;" x="361.738125" xlink:href="#m997b94145f" y="115.547504"/>
     <use style="fill:#0000ff;stroke:#0000ff;" x="363.495992" xlink:href="#m997b94145f" y="113.548165"/>
     <use style="fill:#0000ff;stroke:#0000ff;" x="365.392058" xlink:href="#m997b94145f" y="111.548826"/>
     <use style="fill:#0000ff;stroke:#0000ff;" x="366.233316" xlink:href="#m997b94145f" y="109.549488"/>
     <use style="fill:#0000ff;stroke:#0000ff;" x="368.183291" xlink:href="#m997b94145f" y="107.550149"/>
     <use style="fill:#0000ff;stroke:#0000ff;" x="370.699656" xlink:href="#m997b94145f" y="105.55081"/>
     <use style="fill:#0000ff;stroke:#0000ff;" x="372.01101" xlink:href="#m997b94145f" y="103.551471"/>
     <use style="fill:#0000ff;stroke:#0000ff;" x="372.826433" xlink:href="#m997b94145f" y="101.552132"/>
     <use style="fill:#0000ff;stroke:#0000ff;" x="374.060159" xlink:href="#m997b94145f" y="99.552793"/>
     <use style="fill:#0000ff;stroke:#0000ff;" x="374.835644" xlink:href="#m997b94145f" y="97.553455"/>
     <use style="fill:#0000ff;stroke:#0000ff;" x="375.643742" xlink:href="#m997b94145f" y="95.554116"/>
     <use style="fill:#0000ff;stroke:#0000ff;" x="376.383943" xlink:href="#m997b94145f" y="93.554777"/>
     <use style="fill:#0000ff;stroke:#0000ff;" x="377.497256" xlink:href="#m997b94145f" y="91.555438"/>
     <use style="fill:#0000ff;stroke:#0000ff;" x="377.98028" xlink:href="#m997b94145f" y="89.556099"/>
     <use style="fill:#0000ff;stroke:#0000ff;" x="379.076321" xlink:href="#m997b94145f" y="87.55676"/>
     <use style="fill:#0000ff;stroke:#0000ff;" x="380.065441" xlink:href="#m997b94145f" y="85.557421"/>
     <use style="fill:#0000ff;stroke:#0000ff;" x="380.959655" xlink:href="#m997b94145f" y="83.558083"/>
     <use style="fill:#0000ff;stroke:#0000ff;" x="382.30753" xlink:href="#m997b94145f" y="81.558744"/>
     <use style="fill:#0000ff;stroke:#0000ff;" x="383.080833" xlink:href="#m997b94145f" y="79.559405"/>
     <use style="fill:#0000ff;stroke:#0000ff;" x="383.659843" xlink:href="#m997b94145f" y="77.560066"/>
     <use style="fill:#0000ff;stroke:#0000ff;" x="385.821538" xlink:href="#m997b94145f" y="75.560727"/>
     <use style="fill:#0000ff;stroke:#0000ff;" x="387.164925" xlink:href="#m997b94145f" y="73.561388"/>
     <use style="fill:#0000ff;stroke:#0000ff;" x="389.842327" xlink:href="#m997b94145f" y="71.56205"/>
     <use style="fill:#0000ff;stroke:#0000ff;" x="391.234095" xlink:href="#m997b94145f" y="69.562711"/>
     <use style="fill:#0000ff;stroke:#0000ff;" x="392.608572" xlink:href="#m997b94145f" y="67.563372"/>
     <use style="fill:#0000ff;stroke:#0000ff;" x="393.633345" xlink:href="#m997b94145f" y="65.564033"/>
     <use style="fill:#0000ff;stroke:#0000ff;" x="394.707318" xlink:href="#m997b94145f" y="63.564694"/>
     <use style="fill:#0000ff;stroke:#0000ff;" x="394.798093" xlink:href="#m997b94145f" y="63.564694"/>
     <use style="fill:#0000ff;stroke:#0000ff;" x="396.293012" xlink:href="#m997b94145f" y="61.565355"/>
     <use style="fill:#0000ff;stroke:#0000ff;" x="396.972463" xlink:href="#m997b94145f" y="59.566017"/>
     <use style="fill:#0000ff;stroke:#0000ff;" x="397.238784" xlink:href="#m997b94145f" y="57.566678"/>
     <use style="fill:#0000ff;stroke:#0000ff;" x="397.760594" xlink:href="#m997b94145f" y="55.567339"/>
     <use style="fill:#0000ff;stroke:#0000ff;" x="398.487273" xlink:href="#m997b94145f" y="53.568"/>
    </g>
   </g>
   <g id="patch_3">
    <path d="M 57.6 307.584 
L 57.6 41.472 
" style="fill:none;stroke:#000000;stroke-linecap:square;stroke-linejoin:miter;stroke-width:0.8;"/>
   </g>
   <g id="patch_4">
    <path d="M 414.72 307.584 
L 414.72 41.472 
" style="fill:none;stroke:#000000;stroke-linecap:square;stroke-linejoin:miter;stroke-width:0.8;"/>
   </g>
   <g id="patch_5">
    <path d="M 57.6 307.584 
L 414.72 307.584 
" style="fill:none;stroke:#000000;stroke-linecap:square;stroke-linejoin:miter;stroke-width:0.8;"/>
   </g>
   <g id="patch_6">
    <path d="M 57.6 41.472 
L 414.72 41.472 
" style="fill:none;stroke:#000000;stroke-linecap:square;stroke-linejoin:miter;stroke-width:0.8;"/>
   </g>
  </g>
  <g id="axes_2">
   <g id="matplotlib.axis_3">
    <g id="ytick_8">
     <g id="line2d_34">
      <defs>
       <path d="M 0 0 
L 3.5 0 
" id="m52b08f1041" style="stroke:#000000;stroke-width:0.8;"/>
      </defs>
      <g>
       <use style="stroke:#000000;stroke-width:0.8;" x="414.72" xlink:href="#m52b08f1041" y="298.073651"/>
      </g>
     </g>
     <g id="text_12">
      <!-- 400 -->
      <g transform="translate(421.72 301.87287)scale(0.1 -0.1)">
       <use xlink:href="#DejaVuSans-34"/>
       <use x="63.623047" xlink:href="#DejaVuSans-30"/>
       <use x="127.246094" xlink:href="#DejaVuSans-30"/>
      </g>
     </g>
    </g>
    <g id="ytick_9">
     <g id="line2d_35">
      <g>
       <use style="stroke:#000000;stroke-width:0.8;" x="414.72" xlink:href="#m52b08f1041" y="265.75301"/>
      </g>
     </g>
     <g id="text_13">
      <!-- 600 -->
      <g transform="translate(421.72 269.552229)scale(0.1 -0.1)">
       <use xlink:href="#DejaVuSans-36"/>
       <use x="63.623047" xlink:href="#DejaVuSans-30"/>
       <use x="127.246094" xlink:href="#DejaVuSans-30"/>
      </g>
     </g>
    </g>
    <g id="ytick_10">
     <g id="line2d_36">
      <g>
       <use style="stroke:#000000;stroke-width:0.8;" x="414.72" xlink:href="#m52b08f1041" y="233.432369"/>
      </g>
     </g>
     <g id="text_14">
      <!-- 800 -->
      <g transform="translate(421.72 237.231587)scale(0.1 -0.1)">
       <use xlink:href="#DejaVuSans-38"/>
       <use x="63.623047" xlink:href="#DejaVuSans-30"/>
       <use x="127.246094" xlink:href="#DejaVuSans-30"/>
      </g>
     </g>
    </g>
    <g id="ytick_11">
     <g id="line2d_37">
      <g>
       <use style="stroke:#000000;stroke-width:0.8;" x="414.72" xlink:href="#m52b08f1041" y="201.111727"/>
      </g>
     </g>
     <g id="text_15">
      <!-- 1000 -->
      <g transform="translate(421.72 204.910946)scale(0.1 -0.1)">
       <use xlink:href="#DejaVuSans-31"/>
       <use x="63.623047" xlink:href="#DejaVuSans-30"/>
       <use x="127.246094" xlink:href="#DejaVuSans-30"/>
       <use x="190.869141" xlink:href="#DejaVuSans-30"/>
      </g>
     </g>
    </g>
    <g id="ytick_12">
     <g id="line2d_38">
      <g>
       <use style="stroke:#000000;stroke-width:0.8;" x="414.72" xlink:href="#m52b08f1041" y="168.791086"/>
      </g>
     </g>
     <g id="text_16">
      <!-- 1200 -->
      <g transform="translate(421.72 172.590305)scale(0.1 -0.1)">
       <use xlink:href="#DejaVuSans-31"/>
       <use x="63.623047" xlink:href="#DejaVuSans-32"/>
       <use x="127.246094" xlink:href="#DejaVuSans-30"/>
       <use x="190.869141" xlink:href="#DejaVuSans-30"/>
      </g>
     </g>
    </g>
    <g id="ytick_13">
     <g id="line2d_39">
      <g>
       <use style="stroke:#000000;stroke-width:0.8;" x="414.72" xlink:href="#m52b08f1041" y="136.470445"/>
      </g>
     </g>
     <g id="text_17">
      <!-- 1400 -->
      <g transform="translate(421.72 140.269664)scale(0.1 -0.1)">
       <use xlink:href="#DejaVuSans-31"/>
       <use x="63.623047" xlink:href="#DejaVuSans-34"/>
       <use x="127.246094" xlink:href="#DejaVuSans-30"/>
       <use x="190.869141" xlink:href="#DejaVuSans-30"/>
      </g>
     </g>
    </g>
    <g id="ytick_14">
     <g id="line2d_40">
      <g>
       <use style="stroke:#000000;stroke-width:0.8;" x="414.72" xlink:href="#m52b08f1041" y="104.149804"/>
      </g>
     </g>
     <g id="text_18">
      <!-- 1600 -->
      <g transform="translate(421.72 107.949022)scale(0.1 -0.1)">
       <use xlink:href="#DejaVuSans-31"/>
       <use x="63.623047" xlink:href="#DejaVuSans-36"/>
       <use x="127.246094" xlink:href="#DejaVuSans-30"/>
       <use x="190.869141" xlink:href="#DejaVuSans-30"/>
      </g>
     </g>
    </g>
    <g id="ytick_15">
     <g id="line2d_41">
      <g>
       <use style="stroke:#000000;stroke-width:0.8;" x="414.72" xlink:href="#m52b08f1041" y="71.829162"/>
      </g>
     </g>
     <g id="text_19">
      <!-- 1800 -->
      <g transform="translate(421.72 75.628381)scale(0.1 -0.1)">
       <use xlink:href="#DejaVuSans-31"/>
       <use x="63.623047" xlink:href="#DejaVuSans-38"/>
       <use x="127.246094" xlink:href="#DejaVuSans-30"/>
       <use x="190.869141" xlink:href="#DejaVuSans-30"/>
      </g>
     </g>
    </g>
    <g id="text_20">
     <!-- Number of core reactions -->
     <defs>
      <path d="M 34.28125 27.484375 
Q 23.390625 27.484375 19.1875 25 
Q 14.984375 22.515625 14.984375 16.5 
Q 14.984375 11.71875 18.140625 8.90625 
Q 21.296875 6.109375 26.703125 6.109375 
Q 34.1875 6.109375 38.703125 11.40625 
Q 43.21875 16.703125 43.21875 25.484375 
L 43.21875 27.484375 
z
M 52.203125 31.203125 
L 52.203125 0 
L 43.21875 0 
L 43.21875 8.296875 
Q 40.140625 3.328125 35.546875 0.953125 
Q 30.953125 -1.421875 24.3125 -1.421875 
Q 15.921875 -1.421875 10.953125 3.296875 
Q 6 8.015625 6 15.921875 
Q 6 25.140625 12.171875 29.828125 
Q 18.359375 34.515625 30.609375 34.515625 
L 43.21875 34.515625 
L 43.21875 35.40625 
Q 43.21875 41.609375 39.140625 45 
Q 35.0625 48.390625 27.6875 48.390625 
Q 23 48.390625 18.546875 47.265625 
Q 14.109375 46.140625 10.015625 43.890625 
L 10.015625 52.203125 
Q 14.9375 54.109375 19.578125 55.046875 
Q 24.21875 56 28.609375 56 
Q 40.484375 56 46.34375 49.84375 
Q 52.203125 43.703125 52.203125 31.203125 
z
" id="DejaVuSans-61"/>
     </defs>
     <g transform="translate(458.768438 238.2655)rotate(-90)scale(0.1 -0.1)">
      <use xlink:href="#DejaVuSans-4e"/>
      <use x="74.804688" xlink:href="#DejaVuSans-75"/>
      <use x="138.183594" xlink:href="#DejaVuSans-6d"/>
      <use x="235.595703" xlink:href="#DejaVuSans-62"/>
      <use x="299.072266" xlink:href="#DejaVuSans-65"/>
      <use x="360.595703" xlink:href="#DejaVuSans-72"/>
      <use x="401.708984" xlink:href="#DejaVuSans-20"/>
      <use x="433.496094" xlink:href="#DejaVuSans-6f"/>
      <use x="494.677734" xlink:href="#DejaVuSans-66"/>
      <use x="529.882812" xlink:href="#DejaVuSans-20"/>
      <use x="561.669922" xlink:href="#DejaVuSans-63"/>
      <use x="616.650391" xlink:href="#DejaVuSans-6f"/>
      <use x="677.832031" xlink:href="#DejaVuSans-72"/>
      <use x="718.914062" xlink:href="#DejaVuSans-65"/>
      <use x="780.4375" xlink:href="#DejaVuSans-20"/>
      <use x="812.224609" xlink:href="#DejaVuSans-72"/>
      <use x="853.306641" xlink:href="#DejaVuSans-65"/>
      <use x="914.830078" xlink:href="#DejaVuSans-61"/>
      <use x="976.109375" xlink:href="#DejaVuSans-63"/>
      <use x="1031.089844" xlink:href="#DejaVuSans-74"/>
      <use x="1070.298828" xlink:href="#DejaVuSans-69"/>
      <use x="1098.082031" xlink:href="#DejaVuSans-6f"/>
      <use x="1159.263672" xlink:href="#DejaVuSans-6e"/>
      <use x="1222.642578" xlink:href="#DejaVuSans-73"/>
     </g>
    </g>
   </g>
   <g id="line2d_42">
    <path clip-path="url(#pa6965c1f1c)" d="M 73.832727 295.488 
L 95.588114 295.326397 
L 103.402214 291.286317 
L 115.764469 288.054253 
L 127.080714 287.892649 
L 132.741155 287.569443 
L 140.035967 287.40784 
L 147.363024 287.246236 
L 151.275718 287.084633 
L 158.159399 286.92303 
L 163.146473 282.39814 
L 168.239092 278.84287 
L 172.443453 278.681267 
L 174.957612 273.994774 
L 179.053983 268.985074 
L 183.160913 268.823471 
L 187.045543 268.338661 
L 192.088678 268.177058 
L 195.917827 267.530645 
L 200.471257 267.369042 
L 204.023259 267.207439 
L 207.339513 267.045836 
L 211.558527 266.884232 
L 215.787927 261.874533 
L 220.592675 252.501547 
L 226.375625 252.178341 
L 229.563258 252.016737 
L 234.231164 251.855134 
L 235.480265 251.855134 
L 238.033589 241.189323 
L 240.552138 235.371607 
L 241.572162 235.048401 
L 243.84747 234.886798 
L 246.026767 230.361908 
L 249.464533 230.200305 
L 253.266377 229.715495 
L 258.914627 229.553892 
L 261.979541 229.392289 
L 264.691846 229.230685 
L 267.763264 229.069082 
L 271.144986 228.745876 
L 271.291627 228.745876 
L 274.137913 217.595255 
L 276.564043 210.80792 
L 278.616575 210.646317 
L 280.378087 205.79822 
L 282.410195 205.636617 
L 284.484859 205.151808 
L 286.429273 204.666998 
L 290.793163 197.394854 
L 293.315198 197.071647 
L 295.319802 196.586838 
L 297.280703 196.425234 
L 299.865849 196.263631 
L 301.109694 195.940425 
L 304.939966 195.617218 
L 307.143065 195.455615 
L 308.508163 195.294012 
L 310.201895 195.132409 
L 310.923686 194.970806 
L 312.091134 187.860265 
L 313.190113 187.698661 
L 314.648527 187.213852 
L 317.893928 181.234533 
L 319.786781 180.749723 
L 321.248661 180.426517 
L 322.618018 180.103311 
L 323.110055 172.50796 
L 323.464741 172.02315 
L 324.700962 171.699944 
L 326.506947 170.730325 
L 328.521299 170.568721 
L 330.610163 170.407118 
L 331.920313 170.245515 
L 333.002446 170.083912 
L 335.380512 169.760705 
L 337.092904 169.599102 
L 338.299906 169.437499 
L 340.03689 169.114293 
L 341.405139 168.952689 
L 342.777068 168.629483 
L 345.888928 168.46788 
L 347.508397 168.306277 
L 348.850742 162.973371 
L 349.440615 162.811768 
L 350.793579 162.650164 
L 351.486337 162.488561 
L 351.74869 154.408401 
L 352.857154 154.246798 
L 354.466287 153.923591 
L 355.921352 153.438782 
L 359.842783 153.115575 
L 361.738125 152.792369 
L 363.495992 152.469162 
L 365.392058 152.145956 
L 366.233316 143.419383 
L 368.183291 143.096176 
L 370.699656 142.934573 
L 372.01101 135.016016 
L 372.826433 129.198301 
L 374.060159 123.380585 
L 374.835644 123.218982 
L 375.643742 114.654012 
L 376.383943 114.492409 
L 377.497256 114.330806 
L 377.98028 114.169202 
L 379.076321 102.210565 
L 380.065441 102.048962 
L 380.959655 101.887359 
L 382.30753 101.725756 
L 383.080833 83.626196 
L 383.659843 77.485275 
L 385.821538 67.950685 
L 387.164925 67.789082 
L 389.842327 61.324954 
L 391.234095 61.163351 
L 392.608572 61.001747 
L 393.633345 60.840144 
L 394.707318 60.678541 
L 394.798093 60.678541 
L 396.293012 60.516938 
L 396.972463 54.05281 
L 397.238784 53.891206 
L 397.760594 53.729603 
L 398.487273 53.568 
" style="fill:none;stroke:#ff0000;stroke-linecap:square;stroke-width:1.5;"/>
    <defs>
     <path d="M 0 3 
C 0.795609 3 1.55874 2.683901 2.12132 2.12132 
C 2.683901 1.55874 3 0.795609 3 0 
C 3 -0.795609 2.683901 -1.55874 2.12132 -2.12132 
C 1.55874 -2.683901 0.795609 -3 0 -3 
C -0.795609 -3 -1.55874 -2.683901 -2.12132 -2.12132 
C -2.683901 -1.55874 -3 -0.795609 -3 0 
C -3 0.795609 -2.683901 1.55874 -2.12132 2.12132 
C -1.55874 2.683901 -0.795609 3 0 3 
z
" id="m4470bc8f6f" style="stroke:#ff0000;"/>
    </defs>
    <g clip-path="url(#pa6965c1f1c)">
     <use style="fill:#ff0000;stroke:#ff0000;" x="73.832727" xlink:href="#m4470bc8f6f" y="295.488"/>
     <use style="fill:#ff0000;stroke:#ff0000;" x="95.588114" xlink:href="#m4470bc8f6f" y="295.326397"/>
     <use style="fill:#ff0000;stroke:#ff0000;" x="103.402214" xlink:href="#m4470bc8f6f" y="291.286317"/>
     <use style="fill:#ff0000;stroke:#ff0000;" x="115.764469" xlink:href="#m4470bc8f6f" y="288.054253"/>
     <use style="fill:#ff0000;stroke:#ff0000;" x="127.080714" xlink:href="#m4470bc8f6f" y="287.892649"/>
     <use style="fill:#ff0000;stroke:#ff0000;" x="132.741155" xlink:href="#m4470bc8f6f" y="287.569443"/>
     <use style="fill:#ff0000;stroke:#ff0000;" x="140.035967" xlink:href="#m4470bc8f6f" y="287.40784"/>
     <use style="fill:#ff0000;stroke:#ff0000;" x="147.363024" xlink:href="#m4470bc8f6f" y="287.246236"/>
     <use style="fill:#ff0000;stroke:#ff0000;" x="151.275718" xlink:href="#m4470bc8f6f" y="287.084633"/>
     <use style="fill:#ff0000;stroke:#ff0000;" x="158.159399" xlink:href="#m4470bc8f6f" y="286.92303"/>
     <use style="fill:#ff0000;stroke:#ff0000;" x="163.146473" xlink:href="#m4470bc8f6f" y="282.39814"/>
     <use style="fill:#ff0000;stroke:#ff0000;" x="168.239092" xlink:href="#m4470bc8f6f" y="278.84287"/>
     <use style="fill:#ff0000;stroke:#ff0000;" x="172.443453" xlink:href="#m4470bc8f6f" y="278.681267"/>
     <use style="fill:#ff0000;stroke:#ff0000;" x="174.957612" xlink:href="#m4470bc8f6f" y="273.994774"/>
     <use style="fill:#ff0000;stroke:#ff0000;" x="179.053983" xlink:href="#m4470bc8f6f" y="268.985074"/>
     <use style="fill:#ff0000;stroke:#ff0000;" x="183.160913" xlink:href="#m4470bc8f6f" y="268.823471"/>
     <use style="fill:#ff0000;stroke:#ff0000;" x="187.045543" xlink:href="#m4470bc8f6f" y="268.338661"/>
     <use style="fill:#ff0000;stroke:#ff0000;" x="192.088678" xlink:href="#m4470bc8f6f" y="268.177058"/>
     <use style="fill:#ff0000;stroke:#ff0000;" x="195.917827" xlink:href="#m4470bc8f6f" y="267.530645"/>
     <use style="fill:#ff0000;stroke:#ff0000;" x="200.471257" xlink:href="#m4470bc8f6f" y="267.369042"/>
     <use style="fill:#ff0000;stroke:#ff0000;" x="204.023259" xlink:href="#m4470bc8f6f" y="267.207439"/>
     <use style="fill:#ff0000;stroke:#ff0000;" x="207.339513" xlink:href="#m4470bc8f6f" y="267.045836"/>
     <use style="fill:#ff0000;stroke:#ff0000;" x="211.558527" xlink:href="#m4470bc8f6f" y="266.884232"/>
     <use style="fill:#ff0000;stroke:#ff0000;" x="215.787927" xlink:href="#m4470bc8f6f" y="261.874533"/>
     <use style="fill:#ff0000;stroke:#ff0000;" x="220.592675" xlink:href="#m4470bc8f6f" y="252.501547"/>
     <use style="fill:#ff0000;stroke:#ff0000;" x="226.375625" xlink:href="#m4470bc8f6f" y="252.178341"/>
     <use style="fill:#ff0000;stroke:#ff0000;" x="229.563258" xlink:href="#m4470bc8f6f" y="252.016737"/>
     <use style="fill:#ff0000;stroke:#ff0000;" x="234.231164" xlink:href="#m4470bc8f6f" y="251.855134"/>
     <use style="fill:#ff0000;stroke:#ff0000;" x="235.480265" xlink:href="#m4470bc8f6f" y="251.855134"/>
     <use style="fill:#ff0000;stroke:#ff0000;" x="238.033589" xlink:href="#m4470bc8f6f" y="241.189323"/>
     <use style="fill:#ff0000;stroke:#ff0000;" x="240.552138" xlink:href="#m4470bc8f6f" y="235.371607"/>
     <use style="fill:#ff0000;stroke:#ff0000;" x="241.572162" xlink:href="#m4470bc8f6f" y="235.048401"/>
     <use style="fill:#ff0000;stroke:#ff0000;" x="243.84747" xlink:href="#m4470bc8f6f" y="234.886798"/>
     <use style="fill:#ff0000;stroke:#ff0000;" x="246.026767" xlink:href="#m4470bc8f6f" y="230.361908"/>
     <use style="fill:#ff0000;stroke:#ff0000;" x="249.464533" xlink:href="#m4470bc8f6f" y="230.200305"/>
     <use style="fill:#ff0000;stroke:#ff0000;" x="253.266377" xlink:href="#m4470bc8f6f" y="229.715495"/>
     <use style="fill:#ff0000;stroke:#ff0000;" x="258.914627" xlink:href="#m4470bc8f6f" y="229.553892"/>
     <use style="fill:#ff0000;stroke:#ff0000;" x="261.979541" xlink:href="#m4470bc8f6f" y="229.392289"/>
     <use style="fill:#ff0000;stroke:#ff0000;" x="264.691846" xlink:href="#m4470bc8f6f" y="229.230685"/>
     <use style="fill:#ff0000;stroke:#ff0000;" x="267.763264" xlink:href="#m4470bc8f6f" y="229.069082"/>
     <use style="fill:#ff0000;stroke:#ff0000;" x="271.144986" xlink:href="#m4470bc8f6f" y="228.745876"/>
     <use style="fill:#ff0000;stroke:#ff0000;" x="271.291627" xlink:href="#m4470bc8f6f" y="228.745876"/>
     <use style="fill:#ff0000;stroke:#ff0000;" x="274.137913" xlink:href="#m4470bc8f6f" y="217.595255"/>
     <use style="fill:#ff0000;stroke:#ff0000;" x="276.564043" xlink:href="#m4470bc8f6f" y="210.80792"/>
     <use style="fill:#ff0000;stroke:#ff0000;" x="278.616575" xlink:href="#m4470bc8f6f" y="210.646317"/>
     <use style="fill:#ff0000;stroke:#ff0000;" x="280.378087" xlink:href="#m4470bc8f6f" y="205.79822"/>
     <use style="fill:#ff0000;stroke:#ff0000;" x="282.410195" xlink:href="#m4470bc8f6f" y="205.636617"/>
     <use style="fill:#ff0000;stroke:#ff0000;" x="284.484859" xlink:href="#m4470bc8f6f" y="205.151808"/>
     <use style="fill:#ff0000;stroke:#ff0000;" x="286.429273" xlink:href="#m4470bc8f6f" y="204.666998"/>
     <use style="fill:#ff0000;stroke:#ff0000;" x="290.793163" xlink:href="#m4470bc8f6f" y="197.394854"/>
     <use style="fill:#ff0000;stroke:#ff0000;" x="293.315198" xlink:href="#m4470bc8f6f" y="197.071647"/>
     <use style="fill:#ff0000;stroke:#ff0000;" x="295.319802" xlink:href="#m4470bc8f6f" y="196.586838"/>
     <use style="fill:#ff0000;stroke:#ff0000;" x="297.280703" xlink:href="#m4470bc8f6f" y="196.425234"/>
     <use style="fill:#ff0000;stroke:#ff0000;" x="299.865849" xlink:href="#m4470bc8f6f" y="196.263631"/>
     <use style="fill:#ff0000;stroke:#ff0000;" x="301.109694" xlink:href="#m4470bc8f6f" y="195.940425"/>
     <use style="fill:#ff0000;stroke:#ff0000;" x="304.939966" xlink:href="#m4470bc8f6f" y="195.617218"/>
     <use style="fill:#ff0000;stroke:#ff0000;" x="307.143065" xlink:href="#m4470bc8f6f" y="195.455615"/>
     <use style="fill:#ff0000;stroke:#ff0000;" x="308.508163" xlink:href="#m4470bc8f6f" y="195.294012"/>
     <use style="fill:#ff0000;stroke:#ff0000;" x="310.201895" xlink:href="#m4470bc8f6f" y="195.132409"/>
     <use style="fill:#ff0000;stroke:#ff0000;" x="310.923686" xlink:href="#m4470bc8f6f" y="194.970806"/>
     <use style="fill:#ff0000;stroke:#ff0000;" x="312.091134" xlink:href="#m4470bc8f6f" y="187.860265"/>
     <use style="fill:#ff0000;stroke:#ff0000;" x="313.190113" xlink:href="#m4470bc8f6f" y="187.698661"/>
     <use style="fill:#ff0000;stroke:#ff0000;" x="314.648527" xlink:href="#m4470bc8f6f" y="187.213852"/>
     <use style="fill:#ff0000;stroke:#ff0000;" x="317.893928" xlink:href="#m4470bc8f6f" y="181.234533"/>
     <use style="fill:#ff0000;stroke:#ff0000;" x="319.786781" xlink:href="#m4470bc8f6f" y="180.749723"/>
     <use style="fill:#ff0000;stroke:#ff0000;" x="321.248661" xlink:href="#m4470bc8f6f" y="180.426517"/>
     <use style="fill:#ff0000;stroke:#ff0000;" x="322.618018" xlink:href="#m4470bc8f6f" y="180.103311"/>
     <use style="fill:#ff0000;stroke:#ff0000;" x="323.110055" xlink:href="#m4470bc8f6f" y="172.50796"/>
     <use style="fill:#ff0000;stroke:#ff0000;" x="323.464741" xlink:href="#m4470bc8f6f" y="172.02315"/>
     <use style="fill:#ff0000;stroke:#ff0000;" x="324.700962" xlink:href="#m4470bc8f6f" y="171.699944"/>
     <use style="fill:#ff0000;stroke:#ff0000;" x="326.506947" xlink:href="#m4470bc8f6f" y="170.730325"/>
     <use style="fill:#ff0000;stroke:#ff0000;" x="328.521299" xlink:href="#m4470bc8f6f" y="170.568721"/>
     <use style="fill:#ff0000;stroke:#ff0000;" x="330.610163" xlink:href="#m4470bc8f6f" y="170.407118"/>
     <use style="fill:#ff0000;stroke:#ff0000;" x="331.920313" xlink:href="#m4470bc8f6f" y="170.245515"/>
     <use style="fill:#ff0000;stroke:#ff0000;" x="333.002446" xlink:href="#m4470bc8f6f" y="170.083912"/>
     <use style="fill:#ff0000;stroke:#ff0000;" x="335.380512" xlink:href="#m4470bc8f6f" y="169.760705"/>
     <use style="fill:#ff0000;stroke:#ff0000;" x="337.092904" xlink:href="#m4470bc8f6f" y="169.599102"/>
     <use style="fill:#ff0000;stroke:#ff0000;" x="338.299906" xlink:href="#m4470bc8f6f" y="169.437499"/>
     <use style="fill:#ff0000;stroke:#ff0000;" x="340.03689" xlink:href="#m4470bc8f6f" y="169.114293"/>
     <use style="fill:#ff0000;stroke:#ff0000;" x="341.405139" xlink:href="#m4470bc8f6f" y="168.952689"/>
     <use style="fill:#ff0000;stroke:#ff0000;" x="342.777068" xlink:href="#m4470bc8f6f" y="168.629483"/>
     <use style="fill:#ff0000;stroke:#ff0000;" x="345.888928" xlink:href="#m4470bc8f6f" y="168.46788"/>
     <use style="fill:#ff0000;stroke:#ff0000;" x="347.508397" xlink:href="#m4470bc8f6f" y="168.306277"/>
     <use style="fill:#ff0000;stroke:#ff0000;" x="348.850742" xlink:href="#m4470bc8f6f" y="162.973371"/>
     <use style="fill:#ff0000;stroke:#ff0000;" x="349.440615" xlink:href="#m4470bc8f6f" y="162.811768"/>
     <use style="fill:#ff0000;stroke:#ff0000;" x="350.793579" xlink:href="#m4470bc8f6f" y="162.650164"/>
     <use style="fill:#ff0000;stroke:#ff0000;" x="351.486337" xlink:href="#m4470bc8f6f" y="162.488561"/>
     <use style="fill:#ff0000;stroke:#ff0000;" x="351.74869" xlink:href="#m4470bc8f6f" y="154.408401"/>
     <use style="fill:#ff0000;stroke:#ff0000;" x="352.857154" xlink:href="#m4470bc8f6f" y="154.246798"/>
     <use style="fill:#ff0000;stroke:#ff0000;" x="354.466287" xlink:href="#m4470bc8f6f" y="153.923591"/>
     <use style="fill:#ff0000;stroke:#ff0000;" x="355.921352" xlink:href="#m4470bc8f6f" y="153.438782"/>
     <use style="fill:#ff0000;stroke:#ff0000;" x="359.842783" xlink:href="#m4470bc8f6f" y="153.115575"/>
     <use style="fill:#ff0000;stroke:#ff0000;" x="361.738125" xlink:href="#m4470bc8f6f" y="152.792369"/>
     <use style="fill:#ff0000;stroke:#ff0000;" x="363.495992" xlink:href="#m4470bc8f6f" y="152.469162"/>
     <use style="fill:#ff0000;stroke:#ff0000;" x="365.392058" xlink:href="#m4470bc8f6f" y="152.145956"/>
     <use style="fill:#ff0000;stroke:#ff0000;" x="366.233316" xlink:href="#m4470bc8f6f" y="143.419383"/>
     <use style="fill:#ff0000;stroke:#ff0000;" x="368.183291" xlink:href="#m4470bc8f6f" y="143.096176"/>
     <use style="fill:#ff0000;stroke:#ff0000;" x="370.699656" xlink:href="#m4470bc8f6f" y="142.934573"/>
     <use style="fill:#ff0000;stroke:#ff0000;" x="372.01101" xlink:href="#m4470bc8f6f" y="135.016016"/>
     <use style="fill:#ff0000;stroke:#ff0000;" x="372.826433" xlink:href="#m4470bc8f6f" y="129.198301"/>
     <use style="fill:#ff0000;stroke:#ff0000;" x="374.060159" xlink:href="#m4470bc8f6f" y="123.380585"/>
     <use style="fill:#ff0000;stroke:#ff0000;" x="374.835644" xlink:href="#m4470bc8f6f" y="123.218982"/>
     <use style="fill:#ff0000;stroke:#ff0000;" x="375.643742" xlink:href="#m4470bc8f6f" y="114.654012"/>
     <use style="fill:#ff0000;stroke:#ff0000;" x="376.383943" xlink:href="#m4470bc8f6f" y="114.492409"/>
     <use style="fill:#ff0000;stroke:#ff0000;" x="377.497256" xlink:href="#m4470bc8f6f" y="114.330806"/>
     <use style="fill:#ff0000;stroke:#ff0000;" x="377.98028" xlink:href="#m4470bc8f6f" y="114.169202"/>
     <use style="fill:#ff0000;stroke:#ff0000;" x="379.076321" xlink:href="#m4470bc8f6f" y="102.210565"/>
     <use style="fill:#ff0000;stroke:#ff0000;" x="380.065441" xlink:href="#m4470bc8f6f" y="102.048962"/>
     <use style="fill:#ff0000;stroke:#ff0000;" x="380.959655" xlink:href="#m4470bc8f6f" y="101.887359"/>
     <use style="fill:#ff0000;stroke:#ff0000;" x="382.30753" xlink:href="#m4470bc8f6f" y="101.725756"/>
     <use style="fill:#ff0000;stroke:#ff0000;" x="383.080833" xlink:href="#m4470bc8f6f" y="83.626196"/>
     <use style="fill:#ff0000;stroke:#ff0000;" x="383.659843" xlink:href="#m4470bc8f6f" y="77.485275"/>
     <use style="fill:#ff0000;stroke:#ff0000;" x="385.821538" xlink:href="#m4470bc8f6f" y="67.950685"/>
     <use style="fill:#ff0000;stroke:#ff0000;" x="387.164925" xlink:href="#m4470bc8f6f" y="67.789082"/>
     <use style="fill:#ff0000;stroke:#ff0000;" x="389.842327" xlink:href="#m4470bc8f6f" y="61.324954"/>
     <use style="fill:#ff0000;stroke:#ff0000;" x="391.234095" xlink:href="#m4470bc8f6f" y="61.163351"/>
     <use style="fill:#ff0000;stroke:#ff0000;" x="392.608572" xlink:href="#m4470bc8f6f" y="61.001747"/>
     <use style="fill:#ff0000;stroke:#ff0000;" x="393.633345" xlink:href="#m4470bc8f6f" y="60.840144"/>
     <use style="fill:#ff0000;stroke:#ff0000;" x="394.707318" xlink:href="#m4470bc8f6f" y="60.678541"/>
     <use style="fill:#ff0000;stroke:#ff0000;" x="394.798093" xlink:href="#m4470bc8f6f" y="60.678541"/>
     <use style="fill:#ff0000;stroke:#ff0000;" x="396.293012" xlink:href="#m4470bc8f6f" y="60.516938"/>
     <use style="fill:#ff0000;stroke:#ff0000;" x="396.972463" xlink:href="#m4470bc8f6f" y="54.05281"/>
     <use style="fill:#ff0000;stroke:#ff0000;" x="397.238784" xlink:href="#m4470bc8f6f" y="53.891206"/>
     <use style="fill:#ff0000;stroke:#ff0000;" x="397.760594" xlink:href="#m4470bc8f6f" y="53.729603"/>
     <use style="fill:#ff0000;stroke:#ff0000;" x="398.487273" xlink:href="#m4470bc8f6f" y="53.568"/>
    </g>
   </g>
   <g id="patch_7">
    <path d="M 57.6 307.584 
L 57.6 41.472 
" style="fill:none;stroke:#000000;stroke-linecap:square;stroke-linejoin:miter;stroke-width:0.8;"/>
   </g>
   <g id="patch_8">
    <path d="M 414.72 307.584 
L 414.72 41.472 
" style="fill:none;stroke:#000000;stroke-linecap:square;stroke-linejoin:miter;stroke-width:0.8;"/>
   </g>
   <g id="patch_9">
    <path d="M 57.6 307.584 
L 414.72 307.584 
" style="fill:none;stroke:#000000;stroke-linecap:square;stroke-linejoin:miter;stroke-width:0.8;"/>
   </g>
   <g id="patch_10">
    <path d="M 57.6 41.472 
L 414.72 41.472 
" style="fill:none;stroke:#000000;stroke-linecap:square;stroke-linejoin:miter;stroke-width:0.8;"/>
   </g>
  </g>
 </g>
 <defs>
  <clipPath id="pa6965c1f1c">
   <rect height="266.112" width="357.12" x="57.6" y="41.472"/>
  </clipPath>
 </defs>
</svg>
