<?xml version="1.0" encoding="utf-8" standalone="no"?>
<!DOCTYPE svg PUBLIC "-//W3C//DTD SVG 1.1//EN"
  "http://www.w3.org/Graphics/SVG/1.1/DTD/svg11.dtd">
<!-- Created with matplotlib (http://matplotlib.org/) -->
<svg height="345.6pt" version="1.1" viewBox="0 0 460.8 345.6" width="460.8pt" xmlns="http://www.w3.org/2000/svg" xmlns:xlink="http://www.w3.org/1999/xlink">
 <defs>
  <style type="text/css">
*{stroke-linecap:butt;stroke-linejoin:round;}
  </style>
 </defs>
 <g id="figure_1">
  <g id="patch_1">
   <path d="M 0 345.6 
L 460.8 345.6 
L 460.8 0 
L 0 0 
z
" style="fill:#ffffff;"/>
  </g>
  <g id="axes_1">
   <g id="patch_2">
    <path d="M 57.6 307.584 
L 414.72 307.584 
L 414.72 41.472 
L 57.6 41.472 
z
" style="fill:#ffffff;"/>
   </g>
   <g id="matplotlib.axis_1">
    <g id="xtick_1">
     <g id="line2d_1">
      <defs>
       <path d="M 0 0 
L 0 3.5 
" id="m1e67e13355" style="stroke:#000000;stroke-width:0.8;"/>
      </defs>
      <g>
       <use style="stroke:#000000;stroke-width:0.8;" x="150.646247" xlink:href="#m1e67e13355" y="307.584"/>
      </g>
     </g>
     <g id="text_1">
      <!-- $\mathdefault{10^{3}}$ -->
      <defs>
       <path d="M 12.40625 8.296875 
L 28.515625 8.296875 
L 28.515625 63.921875 
L 10.984375 60.40625 
L 10.984375 69.390625 
L 28.421875 72.90625 
L 38.28125 72.90625 
L 38.28125 8.296875 
L 54.390625 8.296875 
L 54.390625 0 
L 12.40625 0 
z
" id="DejaVuSans-31"/>
       <path d="M 31.78125 66.40625 
Q 24.171875 66.40625 20.328125 58.90625 
Q 16.5 51.421875 16.5 36.375 
Q 16.5 21.390625 20.328125 13.890625 
Q 24.171875 6.390625 31.78125 6.390625 
Q 39.453125 6.390625 43.28125 13.890625 
Q 47.125 21.390625 47.125 36.375 
Q 47.125 51.421875 43.28125 58.90625 
Q 39.453125 66.40625 31.78125 66.40625 
z
M 31.78125 74.21875 
Q 44.046875 74.21875 50.515625 64.515625 
Q 56.984375 54.828125 56.984375 36.375 
Q 56.984375 17.96875 50.515625 8.265625 
Q 44.046875 -1.421875 31.78125 -1.421875 
Q 19.53125 -1.421875 13.0625 8.265625 
Q 6.59375 17.96875 6.59375 36.375 
Q 6.59375 54.828125 13.0625 64.515625 
Q 19.53125 74.21875 31.78125 74.21875 
z
" id="DejaVuSans-30"/>
       <path d="M 40.578125 39.3125 
Q 47.65625 37.796875 51.625 33 
Q 55.609375 28.21875 55.609375 21.1875 
Q 55.609375 10.40625 48.1875 4.484375 
Q 40.765625 -1.421875 27.09375 -1.421875 
Q 22.515625 -1.421875 17.65625 -0.515625 
Q 12.796875 0.390625 7.625 2.203125 
L 7.625 11.71875 
Q 11.71875 9.328125 16.59375 8.109375 
Q 21.484375 6.890625 26.8125 6.890625 
Q 36.078125 6.890625 40.9375 10.546875 
Q 45.796875 14.203125 45.796875 21.1875 
Q 45.796875 27.640625 41.28125 31.265625 
Q 36.765625 34.90625 28.71875 34.90625 
L 20.21875 34.90625 
L 20.21875 43.015625 
L 29.109375 43.015625 
Q 36.375 43.015625 40.234375 45.921875 
Q 44.09375 48.828125 44.09375 54.296875 
Q 44.09375 59.90625 40.109375 62.90625 
Q 36.140625 65.921875 28.71875 65.921875 
Q 24.65625 65.921875 20.015625 65.03125 
Q 15.375 64.15625 9.8125 62.3125 
L 9.8125 71.09375 
Q 15.4375 72.65625 20.34375 73.4375 
Q 25.25 74.21875 29.59375 74.21875 
Q 40.828125 74.21875 47.359375 69.109375 
Q 53.90625 64.015625 53.90625 55.328125 
Q 53.90625 49.265625 50.4375 45.09375 
Q 46.96875 40.921875 40.578125 39.3125 
z
" id="DejaVuSans-33"/>
      </defs>
      <g transform="translate(141.846247 322.182437)scale(0.1 -0.1)">
       <use transform="translate(0 0.765625)" xlink:href="#DejaVuSans-31"/>
       <use transform="translate(63.623047 0.765625)" xlink:href="#DejaVuSans-30"/>
       <use transform="translate(128.203125 39.046875)scale(0.7)" xlink:href="#DejaVuSans-33"/>
      </g>
     </g>
    </g>
    <g id="xtick_2">
     <g id="line2d_2">
      <g>
       <use style="stroke:#000000;stroke-width:0.8;" x="285.343505" xlink:href="#m1e67e13355" y="307.584"/>
      </g>
     </g>
     <g id="text_2">
      <!-- $\mathdefault{10^{4}}$ -->
      <defs>
       <path d="M 37.796875 64.3125 
L 12.890625 25.390625 
L 37.796875 25.390625 
z
M 35.203125 72.90625 
L 47.609375 72.90625 
L 47.609375 25.390625 
L 58.015625 25.390625 
L 58.015625 17.1875 
L 47.609375 17.1875 
L 47.609375 0 
L 37.796875 0 
L 37.796875 17.1875 
L 4.890625 17.1875 
L 4.890625 26.703125 
z
" id="DejaVuSans-34"/>
      </defs>
      <g transform="translate(276.543505 322.182437)scale(0.1 -0.1)">
       <use transform="translate(0 0.684375)" xlink:href="#DejaVuSans-31"/>
       <use transform="translate(63.623047 0.684375)" xlink:href="#DejaVuSans-30"/>
       <use transform="translate(128.203125 38.965625)scale(0.7)" xlink:href="#DejaVuSans-34"/>
      </g>
     </g>
    </g>
    <g id="xtick_3">
     <g id="line2d_3">
      <defs>
       <path d="M 0 0 
L 0 2 
" id="m3bf45a66f2" style="stroke:#000000;stroke-width:0.6;"/>
      </defs>
      <g>
       <use style="stroke:#000000;stroke-width:0.6;" x="80.215913" xlink:href="#m3bf45a66f2" y="307.584"/>
      </g>
     </g>
    </g>
    <g id="xtick_4">
     <g id="line2d_4">
      <g>
       <use style="stroke:#000000;stroke-width:0.6;" x="97.044819" xlink:href="#m3bf45a66f2" y="307.584"/>
      </g>
     </g>
    </g>
    <g id="xtick_5">
     <g id="line2d_5">
      <g>
       <use style="stroke:#000000;stroke-width:0.6;" x="110.098332" xlink:href="#m3bf45a66f2" y="307.584"/>
      </g>
     </g>
    </g>
    <g id="xtick_6">
     <g id="line2d_6">
      <g>
       <use style="stroke:#000000;stroke-width:0.6;" x="120.763828" xlink:href="#m3bf45a66f2" y="307.584"/>
      </g>
     </g>
    </g>
    <g id="xtick_7">
     <g id="line2d_7">
      <g>
       <use style="stroke:#000000;stroke-width:0.6;" x="129.781377" xlink:href="#m3bf45a66f2" y="307.584"/>
      </g>
     </g>
    </g>
    <g id="xtick_8">
     <g id="line2d_8">
      <g>
       <use style="stroke:#000000;stroke-width:0.6;" x="137.592734" xlink:href="#m3bf45a66f2" y="307.584"/>
      </g>
     </g>
    </g>
    <g id="xtick_9">
     <g id="line2d_9">
      <g>
       <use style="stroke:#000000;stroke-width:0.6;" x="144.482838" xlink:href="#m3bf45a66f2" y="307.584"/>
      </g>
     </g>
    </g>
    <g id="xtick_10">
     <g id="line2d_10">
      <g>
       <use style="stroke:#000000;stroke-width:0.6;" x="191.194162" xlink:href="#m3bf45a66f2" y="307.584"/>
      </g>
     </g>
    </g>
    <g id="xtick_11">
     <g id="line2d_11">
      <g>
       <use style="stroke:#000000;stroke-width:0.6;" x="214.913171" xlink:href="#m3bf45a66f2" y="307.584"/>
      </g>
     </g>
    </g>
    <g id="xtick_12">
     <g id="line2d_12">
      <g>
       <use style="stroke:#000000;stroke-width:0.6;" x="231.742077" xlink:href="#m3bf45a66f2" y="307.584"/>
      </g>
     </g>
    </g>
    <g id="xtick_13">
     <g id="line2d_13">
      <g>
       <use style="stroke:#000000;stroke-width:0.6;" x="244.79559" xlink:href="#m3bf45a66f2" y="307.584"/>
      </g>
     </g>
    </g>
    <g id="xtick_14">
     <g id="line2d_14">
      <g>
       <use style="stroke:#000000;stroke-width:0.6;" x="255.461086" xlink:href="#m3bf45a66f2" y="307.584"/>
      </g>
     </g>
    </g>
    <g id="xtick_15">
     <g id="line2d_15">
      <g>
       <use style="stroke:#000000;stroke-width:0.6;" x="264.478635" xlink:href="#m3bf45a66f2" y="307.584"/>
      </g>
     </g>
    </g>
    <g id="xtick_16">
     <g id="line2d_16">
      <g>
       <use style="stroke:#000000;stroke-width:0.6;" x="272.289992" xlink:href="#m3bf45a66f2" y="307.584"/>
      </g>
     </g>
    </g>
    <g id="xtick_17">
     <g id="line2d_17">
      <g>
       <use style="stroke:#000000;stroke-width:0.6;" x="279.180096" xlink:href="#m3bf45a66f2" y="307.584"/>
      </g>
     </g>
    </g>
    <g id="xtick_18">
     <g id="line2d_18">
      <g>
       <use style="stroke:#000000;stroke-width:0.6;" x="325.89142" xlink:href="#m3bf45a66f2" y="307.584"/>
      </g>
     </g>
    </g>
    <g id="xtick_19">
     <g id="line2d_19">
      <g>
       <use style="stroke:#000000;stroke-width:0.6;" x="349.610429" xlink:href="#m3bf45a66f2" y="307.584"/>
      </g>
     </g>
    </g>
    <g id="xtick_20">
     <g id="line2d_20">
      <g>
       <use style="stroke:#000000;stroke-width:0.6;" x="366.439335" xlink:href="#m3bf45a66f2" y="307.584"/>
      </g>
     </g>
    </g>
    <g id="xtick_21">
     <g id="line2d_21">
      <g>
       <use style="stroke:#000000;stroke-width:0.6;" x="379.492848" xlink:href="#m3bf45a66f2" y="307.584"/>
      </g>
     </g>
    </g>
    <g id="xtick_22">
     <g id="line2d_22">
      <g>
       <use style="stroke:#000000;stroke-width:0.6;" x="390.158344" xlink:href="#m3bf45a66f2" y="307.584"/>
      </g>
     </g>
    </g>
    <g id="xtick_23">
     <g id="line2d_23">
      <g>
       <use style="stroke:#000000;stroke-width:0.6;" x="399.175893" xlink:href="#m3bf45a66f2" y="307.584"/>
      </g>
     </g>
    </g>
    <g id="xtick_24">
     <g id="line2d_24">
      <g>
       <use style="stroke:#000000;stroke-width:0.6;" x="406.98725" xlink:href="#m3bf45a66f2" y="307.584"/>
      </g>
     </g>
    </g>
    <g id="xtick_25">
     <g id="line2d_25">
      <g>
       <use style="stroke:#000000;stroke-width:0.6;" x="413.877354" xlink:href="#m3bf45a66f2" y="307.584"/>
      </g>
     </g>
    </g>
    <g id="text_3">
     <!-- Execution time (s) -->
     <defs>
      <path d="M 9.8125 72.90625 
L 55.90625 72.90625 
L 55.90625 64.59375 
L 19.671875 64.59375 
L 19.671875 43.015625 
L 54.390625 43.015625 
L 54.390625 34.71875 
L 19.671875 34.71875 
L 19.671875 8.296875 
L 56.78125 8.296875 
L 56.78125 0 
L 9.8125 0 
z
" id="DejaVuSans-45"/>
      <path d="M 54.890625 54.6875 
L 35.109375 28.078125 
L 55.90625 0 
L 45.3125 0 
L 29.390625 21.484375 
L 13.484375 0 
L 2.875 0 
L 24.125 28.609375 
L 4.6875 54.6875 
L 15.28125 54.6875 
L 29.78125 35.203125 
L 44.28125 54.6875 
z
" id="DejaVuSans-78"/>
      <path d="M 56.203125 29.59375 
L 56.203125 25.203125 
L 14.890625 25.203125 
Q 15.484375 15.921875 20.484375 11.0625 
Q 25.484375 6.203125 34.421875 6.203125 
Q 39.59375 6.203125 44.453125 7.46875 
Q 49.3125 8.734375 54.109375 11.28125 
L 54.109375 2.78125 
Q 49.265625 0.734375 44.1875 -0.34375 
Q 39.109375 -1.421875 33.890625 -1.421875 
Q 20.796875 -1.421875 13.15625 6.1875 
Q 5.515625 13.8125 5.515625 26.8125 
Q 5.515625 40.234375 12.765625 48.109375 
Q 20.015625 56 32.328125 56 
Q 43.359375 56 49.78125 48.890625 
Q 56.203125 41.796875 56.203125 29.59375 
z
M 47.21875 32.234375 
Q 47.125 39.59375 43.09375 43.984375 
Q 39.0625 48.390625 32.421875 48.390625 
Q 24.90625 48.390625 20.390625 44.140625 
Q 15.875 39.890625 15.1875 32.171875 
z
" id="DejaVuSans-65"/>
      <path d="M 48.78125 52.59375 
L 48.78125 44.1875 
Q 44.96875 46.296875 41.140625 47.34375 
Q 37.3125 48.390625 33.40625 48.390625 
Q 24.65625 48.390625 19.8125 42.84375 
Q 14.984375 37.3125 14.984375 27.296875 
Q 14.984375 17.28125 19.8125 11.734375 
Q 24.65625 6.203125 33.40625 6.203125 
Q 37.3125 6.203125 41.140625 7.25 
Q 44.96875 8.296875 48.78125 10.40625 
L 48.78125 2.09375 
Q 45.015625 0.34375 40.984375 -0.53125 
Q 36.96875 -1.421875 32.421875 -1.421875 
Q 20.0625 -1.421875 12.78125 6.34375 
Q 5.515625 14.109375 5.515625 27.296875 
Q 5.515625 40.671875 12.859375 48.328125 
Q 20.21875 56 33.015625 56 
Q 37.15625 56 41.109375 55.140625 
Q 45.0625 54.296875 48.78125 52.59375 
z
" id="DejaVuSans-63"/>
      <path d="M 8.5 21.578125 
L 8.5 54.6875 
L 17.484375 54.6875 
L 17.484375 21.921875 
Q 17.484375 14.15625 20.5 10.265625 
Q 23.53125 6.390625 29.59375 6.390625 
Q 36.859375 6.390625 41.078125 11.03125 
Q 45.3125 15.671875 45.3125 23.6875 
L 45.3125 54.6875 
L 54.296875 54.6875 
L 54.296875 0 
L 45.3125 0 
L 45.3125 8.40625 
Q 42.046875 3.421875 37.71875 1 
Q 33.40625 -1.421875 27.6875 -1.421875 
Q 18.265625 -1.421875 13.375 4.4375 
Q 8.5 10.296875 8.5 21.578125 
z
M 31.109375 56 
z
" id="DejaVuSans-75"/>
      <path d="M 18.3125 70.21875 
L 18.3125 54.6875 
L 36.8125 54.6875 
L 36.8125 47.703125 
L 18.3125 47.703125 
L 18.3125 18.015625 
Q 18.3125 11.328125 20.140625 9.421875 
Q 21.96875 7.515625 27.59375 7.515625 
L 36.8125 7.515625 
L 36.8125 0 
L 27.59375 0 
Q 17.1875 0 13.234375 3.875 
Q 9.28125 7.765625 9.28125 18.015625 
L 9.28125 47.703125 
L 2.6875 47.703125 
L 2.6875 54.6875 
L 9.28125 54.6875 
L 9.28125 70.21875 
z
" id="DejaVuSans-74"/>
      <path d="M 9.421875 54.6875 
L 18.40625 54.6875 
L 18.40625 0 
L 9.421875 0 
z
M 9.421875 75.984375 
L 18.40625 75.984375 
L 18.40625 64.59375 
L 9.421875 64.59375 
z
" id="DejaVuSans-69"/>
      <path d="M 30.609375 48.390625 
Q 23.390625 48.390625 19.1875 42.75 
Q 14.984375 37.109375 14.984375 27.296875 
Q 14.984375 17.484375 19.15625 11.84375 
Q 23.34375 6.203125 30.609375 6.203125 
Q 37.796875 6.203125 41.984375 11.859375 
Q 46.1875 17.53125 46.1875 27.296875 
Q 46.1875 37.015625 41.984375 42.703125 
Q 37.796875 48.390625 30.609375 48.390625 
z
M 30.609375 56 
Q 42.328125 56 49.015625 48.375 
Q 55.71875 40.765625 55.71875 27.296875 
Q 55.71875 13.875 49.015625 6.21875 
Q 42.328125 -1.421875 30.609375 -1.421875 
Q 18.84375 -1.421875 12.171875 6.21875 
Q 5.515625 13.875 5.515625 27.296875 
Q 5.515625 40.765625 12.171875 48.375 
Q 18.84375 56 30.609375 56 
z
" id="DejaVuSans-6f"/>
      <path d="M 54.890625 33.015625 
L 54.890625 0 
L 45.90625 0 
L 45.90625 32.71875 
Q 45.90625 40.484375 42.875 44.328125 
Q 39.84375 48.1875 33.796875 48.1875 
Q 26.515625 48.1875 22.3125 43.546875 
Q 18.109375 38.921875 18.109375 30.90625 
L 18.109375 0 
L 9.078125 0 
L 9.078125 54.6875 
L 18.109375 54.6875 
L 18.109375 46.1875 
Q 21.34375 51.125 25.703125 53.5625 
Q 30.078125 56 35.796875 56 
Q 45.21875 56 50.046875 50.171875 
Q 54.890625 44.34375 54.890625 33.015625 
z
" id="DejaVuSans-6e"/>
      <path id="DejaVuSans-20"/>
      <path d="M 52 44.1875 
Q 55.375 50.25 60.0625 53.125 
Q 64.75 56 71.09375 56 
Q 79.640625 56 84.28125 50.015625 
Q 88.921875 44.046875 88.921875 33.015625 
L 88.921875 0 
L 79.890625 0 
L 79.890625 32.71875 
Q 79.890625 40.578125 77.09375 44.375 
Q 74.3125 48.1875 68.609375 48.1875 
Q 61.625 48.1875 57.5625 43.546875 
Q 53.515625 38.921875 53.515625 30.90625 
L 53.515625 0 
L 44.484375 0 
L 44.484375 32.71875 
Q 44.484375 40.625 41.703125 44.40625 
Q 38.921875 48.1875 33.109375 48.1875 
Q 26.21875 48.1875 22.15625 43.53125 
Q 18.109375 38.875 18.109375 30.90625 
L 18.109375 0 
L 9.078125 0 
L 9.078125 54.6875 
L 18.109375 54.6875 
L 18.109375 46.1875 
Q 21.1875 51.21875 25.484375 53.609375 
Q 29.78125 56 35.6875 56 
Q 41.65625 56 45.828125 52.96875 
Q 50 49.953125 52 44.1875 
z
" id="DejaVuSans-6d"/>
      <path d="M 31 75.875 
Q 24.46875 64.65625 21.28125 53.65625 
Q 18.109375 42.671875 18.109375 31.390625 
Q 18.109375 20.125 21.3125 9.0625 
Q 24.515625 -2 31 -13.1875 
L 23.1875 -13.1875 
Q 15.875 -1.703125 12.234375 9.375 
Q 8.59375 20.453125 8.59375 31.390625 
Q 8.59375 42.28125 12.203125 53.3125 
Q 15.828125 64.359375 23.1875 75.875 
z
" id="DejaVuSans-28"/>
      <path d="M 44.28125 53.078125 
L 44.28125 44.578125 
Q 40.484375 46.53125 36.375 47.5 
Q 32.28125 48.484375 27.875 48.484375 
Q 21.1875 48.484375 17.84375 46.4375 
Q 14.5 44.390625 14.5 40.28125 
Q 14.5 37.15625 16.890625 35.375 
Q 19.28125 33.59375 26.515625 31.984375 
L 29.59375 31.296875 
Q 39.15625 29.25 43.1875 25.515625 
Q 47.21875 21.78125 47.21875 15.09375 
Q 47.21875 7.46875 41.1875 3.015625 
Q 35.15625 -1.421875 24.609375 -1.421875 
Q 20.21875 -1.421875 15.453125 -0.5625 
Q 10.6875 0.296875 5.421875 2 
L 5.421875 11.28125 
Q 10.40625 8.6875 15.234375 7.390625 
Q 20.0625 6.109375 24.8125 6.109375 
Q 31.15625 6.109375 34.5625 8.28125 
Q 37.984375 10.453125 37.984375 14.40625 
Q 37.984375 18.0625 35.515625 20.015625 
Q 33.0625 21.96875 24.703125 23.78125 
L 21.578125 24.515625 
Q 13.234375 26.265625 9.515625 29.90625 
Q 5.8125 33.546875 5.8125 39.890625 
Q 5.8125 47.609375 11.28125 51.796875 
Q 16.75 56 26.8125 56 
Q 31.78125 56 36.171875 55.265625 
Q 40.578125 54.546875 44.28125 53.078125 
z
" id="DejaVuSans-73"/>
      <path d="M 8.015625 75.875 
L 15.828125 75.875 
Q 23.140625 64.359375 26.78125 53.3125 
Q 30.421875 42.28125 30.421875 31.390625 
Q 30.421875 20.453125 26.78125 9.375 
Q 23.140625 -1.703125 15.828125 -13.1875 
L 8.015625 -13.1875 
Q 14.5 -2 17.703125 9.0625 
Q 20.90625 20.125 20.90625 31.390625 
Q 20.90625 42.671875 17.703125 53.65625 
Q 14.5 64.65625 8.015625 75.875 
z
" id="DejaVuSans-29"/>
     </defs>
     <g transform="translate(190.49125 335.860562)scale(0.1 -0.1)">
      <use xlink:href="#DejaVuSans-45"/>
      <use x="63.183594" xlink:href="#DejaVuSans-78"/>
      <use x="122.316406" xlink:href="#DejaVuSans-65"/>
      <use x="183.839844" xlink:href="#DejaVuSans-63"/>
      <use x="238.820312" xlink:href="#DejaVuSans-75"/>
      <use x="302.199219" xlink:href="#DejaVuSans-74"/>
      <use x="341.408203" xlink:href="#DejaVuSans-69"/>
      <use x="369.191406" xlink:href="#DejaVuSans-6f"/>
      <use x="430.373047" xlink:href="#DejaVuSans-6e"/>
      <use x="493.751953" xlink:href="#DejaVuSans-20"/>
      <use x="525.539062" xlink:href="#DejaVuSans-74"/>
      <use x="564.748047" xlink:href="#DejaVuSans-69"/>
      <use x="592.53125" xlink:href="#DejaVuSans-6d"/>
      <use x="689.943359" xlink:href="#DejaVuSans-65"/>
      <use x="751.466797" xlink:href="#DejaVuSans-20"/>
      <use x="783.253906" xlink:href="#DejaVuSans-28"/>
      <use x="822.267578" xlink:href="#DejaVuSans-73"/>
      <use x="874.367188" xlink:href="#DejaVuSans-29"/>
     </g>
    </g>
   </g>
   <g id="matplotlib.axis_2">
    <g id="ytick_1">
     <g id="line2d_26">
      <defs>
       <path d="M 0 0 
L -3.5 0 
" id="m3462f279bf" style="stroke:#000000;stroke-width:0.8;"/>
      </defs>
      <g>
       <use style="stroke:#000000;stroke-width:0.8;" x="57.6" xlink:href="#m3462f279bf" y="255.532478"/>
      </g>
     </g>
     <g id="text_4">
      <!-- $\mathdefault{10^{3}}$ -->
      <g transform="translate(33 259.331696)scale(0.1 -0.1)">
       <use transform="translate(0 0.765625)" xlink:href="#DejaVuSans-31"/>
       <use transform="translate(63.623047 0.765625)" xlink:href="#DejaVuSans-30"/>
       <use transform="translate(128.203125 39.046875)scale(0.7)" xlink:href="#DejaVuSans-33"/>
      </g>
     </g>
    </g>
    <g id="ytick_2">
     <g id="line2d_27">
      <g>
       <use style="stroke:#000000;stroke-width:0.8;" x="57.6" xlink:href="#m3462f279bf" y="59.787201"/>
      </g>
     </g>
     <g id="text_5">
      <!-- $\mathdefault{10^{4}}$ -->
      <g transform="translate(33 63.58642)scale(0.1 -0.1)">
       <use transform="translate(0 0.684375)" xlink:href="#DejaVuSans-31"/>
       <use transform="translate(63.623047 0.684375)" xlink:href="#DejaVuSans-30"/>
       <use transform="translate(128.203125 38.965625)scale(0.7)" xlink:href="#DejaVuSans-34"/>
      </g>
     </g>
    </g>
    <g id="ytick_3">
     <g id="line2d_28">
      <defs>
       <path d="M 0 0 
L -2 0 
" id="mf3984c0d76" style="stroke:#000000;stroke-width:0.6;"/>
      </defs>
      <g>
       <use style="stroke:#000000;stroke-width:0.6;" x="57.6" xlink:href="#mf3984c0d76" y="298.958322"/>
      </g>
     </g>
    </g>
    <g id="ytick_4">
     <g id="line2d_29">
      <g>
       <use style="stroke:#000000;stroke-width:0.6;" x="57.6" xlink:href="#mf3984c0d76" y="285.853805"/>
      </g>
     </g>
    </g>
    <g id="ytick_5">
     <g id="line2d_30">
      <g>
       <use style="stroke:#000000;stroke-width:0.6;" x="57.6" xlink:href="#mf3984c0d76" y="274.502155"/>
      </g>
     </g>
    </g>
    <g id="ytick_6">
     <g id="line2d_31">
      <g>
       <use style="stroke:#000000;stroke-width:0.6;" x="57.6" xlink:href="#mf3984c0d76" y="264.48929"/>
      </g>
     </g>
    </g>
    <g id="ytick_7">
     <g id="line2d_32">
      <g>
       <use style="stroke:#000000;stroke-width:0.6;" x="57.6" xlink:href="#mf3984c0d76" y="196.607278"/>
      </g>
     </g>
    </g>
    <g id="ytick_8">
     <g id="line2d_33">
      <g>
       <use style="stroke:#000000;stroke-width:0.6;" x="57.6" xlink:href="#mf3984c0d76" y="162.138245"/>
      </g>
     </g>
    </g>
    <g id="ytick_9">
     <g id="line2d_34">
      <g>
       <use style="stroke:#000000;stroke-width:0.6;" x="57.6" xlink:href="#mf3984c0d76" y="137.682078"/>
      </g>
     </g>
    </g>
    <g id="ytick_10">
     <g id="line2d_35">
      <g>
       <use style="stroke:#000000;stroke-width:0.6;" x="57.6" xlink:href="#mf3984c0d76" y="118.712401"/>
      </g>
     </g>
    </g>
    <g id="ytick_11">
     <g id="line2d_36">
      <g>
       <use style="stroke:#000000;stroke-width:0.6;" x="57.6" xlink:href="#mf3984c0d76" y="103.213046"/>
      </g>
     </g>
    </g>
    <g id="ytick_12">
     <g id="line2d_37">
      <g>
       <use style="stroke:#000000;stroke-width:0.6;" x="57.6" xlink:href="#mf3984c0d76" y="90.108528"/>
      </g>
     </g>
    </g>
    <g id="ytick_13">
     <g id="line2d_38">
      <g>
       <use style="stroke:#000000;stroke-width:0.6;" x="57.6" xlink:href="#mf3984c0d76" y="78.756878"/>
      </g>
     </g>
    </g>
    <g id="ytick_14">
     <g id="line2d_39">
      <g>
       <use style="stroke:#000000;stroke-width:0.6;" x="57.6" xlink:href="#mf3984c0d76" y="68.744013"/>
      </g>
     </g>
    </g>
    <g id="text_6">
     <!-- Number of edge species -->
     <defs>
      <path d="M 9.8125 72.90625 
L 23.09375 72.90625 
L 55.421875 11.921875 
L 55.421875 72.90625 
L 64.984375 72.90625 
L 64.984375 0 
L 51.703125 0 
L 19.390625 60.984375 
L 19.390625 0 
L 9.8125 0 
z
" id="DejaVuSans-4e"/>
      <path d="M 48.6875 27.296875 
Q 48.6875 37.203125 44.609375 42.84375 
Q 40.53125 48.484375 33.40625 48.484375 
Q 26.265625 48.484375 22.1875 42.84375 
Q 18.109375 37.203125 18.109375 27.296875 
Q 18.109375 17.390625 22.1875 11.75 
Q 26.265625 6.109375 33.40625 6.109375 
Q 40.53125 6.109375 44.609375 11.75 
Q 48.6875 17.390625 48.6875 27.296875 
z
M 18.109375 46.390625 
Q 20.953125 51.265625 25.265625 53.625 
Q 29.59375 56 35.59375 56 
Q 45.5625 56 51.78125 48.09375 
Q 58.015625 40.1875 58.015625 27.296875 
Q 58.015625 14.40625 51.78125 6.484375 
Q 45.5625 -1.421875 35.59375 -1.421875 
Q 29.59375 -1.421875 25.265625 0.953125 
Q 20.953125 3.328125 18.109375 8.203125 
L 18.109375 0 
L 9.078125 0 
L 9.078125 75.984375 
L 18.109375 75.984375 
z
" id="DejaVuSans-62"/>
      <path d="M 41.109375 46.296875 
Q 39.59375 47.171875 37.8125 47.578125 
Q 36.03125 48 33.890625 48 
Q 26.265625 48 22.1875 43.046875 
Q 18.109375 38.09375 18.109375 28.8125 
L 18.109375 0 
L 9.078125 0 
L 9.078125 54.6875 
L 18.109375 54.6875 
L 18.109375 46.1875 
Q 20.953125 51.171875 25.484375 53.578125 
Q 30.03125 56 36.53125 56 
Q 37.453125 56 38.578125 55.875 
Q 39.703125 55.765625 41.0625 55.515625 
z
" id="DejaVuSans-72"/>
      <path d="M 37.109375 75.984375 
L 37.109375 68.5 
L 28.515625 68.5 
Q 23.6875 68.5 21.796875 66.546875 
Q 19.921875 64.59375 19.921875 59.515625 
L 19.921875 54.6875 
L 34.71875 54.6875 
L 34.71875 47.703125 
L 19.921875 47.703125 
L 19.921875 0 
L 10.890625 0 
L 10.890625 47.703125 
L 2.296875 47.703125 
L 2.296875 54.6875 
L 10.890625 54.6875 
L 10.890625 58.5 
Q 10.890625 67.625 15.140625 71.796875 
Q 19.390625 75.984375 28.609375 75.984375 
z
" id="DejaVuSans-66"/>
      <path d="M 45.40625 46.390625 
L 45.40625 75.984375 
L 54.390625 75.984375 
L 54.390625 0 
L 45.40625 0 
L 45.40625 8.203125 
Q 42.578125 3.328125 38.25 0.953125 
Q 33.9375 -1.421875 27.875 -1.421875 
Q 17.96875 -1.421875 11.734375 6.484375 
Q 5.515625 14.40625 5.515625 27.296875 
Q 5.515625 40.1875 11.734375 48.09375 
Q 17.96875 56 27.875 56 
Q 33.9375 56 38.25 53.625 
Q 42.578125 51.265625 45.40625 46.390625 
z
M 14.796875 27.296875 
Q 14.796875 17.390625 18.875 11.75 
Q 22.953125 6.109375 30.078125 6.109375 
Q 37.203125 6.109375 41.296875 11.75 
Q 45.40625 17.390625 45.40625 27.296875 
Q 45.40625 37.203125 41.296875 42.84375 
Q 37.203125 48.484375 30.078125 48.484375 
Q 22.953125 48.484375 18.875 42.84375 
Q 14.796875 37.203125 14.796875 27.296875 
z
" id="DejaVuSans-64"/>
      <path d="M 45.40625 27.984375 
Q 45.40625 37.75 41.375 43.109375 
Q 37.359375 48.484375 30.078125 48.484375 
Q 22.859375 48.484375 18.828125 43.109375 
Q 14.796875 37.75 14.796875 27.984375 
Q 14.796875 18.265625 18.828125 12.890625 
Q 22.859375 7.515625 30.078125 7.515625 
Q 37.359375 7.515625 41.375 12.890625 
Q 45.40625 18.265625 45.40625 27.984375 
z
M 54.390625 6.78125 
Q 54.390625 -7.171875 48.1875 -13.984375 
Q 42 -20.796875 29.203125 -20.796875 
Q 24.46875 -20.796875 20.265625 -20.09375 
Q 16.0625 -19.390625 12.109375 -17.921875 
L 12.109375 -9.1875 
Q 16.0625 -11.328125 19.921875 -12.34375 
Q 23.78125 -13.375 27.78125 -13.375 
Q 36.625 -13.375 41.015625 -8.765625 
Q 45.40625 -4.15625 45.40625 5.171875 
L 45.40625 9.625 
Q 42.625 4.78125 38.28125 2.390625 
Q 33.9375 0 27.875 0 
Q 17.828125 0 11.671875 7.65625 
Q 5.515625 15.328125 5.515625 27.984375 
Q 5.515625 40.671875 11.671875 48.328125 
Q 17.828125 56 27.875 56 
Q 33.9375 56 38.28125 53.609375 
Q 42.625 51.21875 45.40625 46.390625 
L 45.40625 54.6875 
L 54.390625 54.6875 
z
" id="DejaVuSans-67"/>
      <path d="M 18.109375 8.203125 
L 18.109375 -20.796875 
L 9.078125 -20.796875 
L 9.078125 54.6875 
L 18.109375 54.6875 
L 18.109375 46.390625 
Q 20.953125 51.265625 25.265625 53.625 
Q 29.59375 56 35.59375 56 
Q 45.5625 56 51.78125 48.09375 
Q 58.015625 40.1875 58.015625 27.296875 
Q 58.015625 14.40625 51.78125 6.484375 
Q 45.5625 -1.421875 35.59375 -1.421875 
Q 29.59375 -1.421875 25.265625 0.953125 
Q 20.953125 3.328125 18.109375 8.203125 
z
M 48.6875 27.296875 
Q 48.6875 37.203125 44.609375 42.84375 
Q 40.53125 48.484375 33.40625 48.484375 
Q 26.265625 48.484375 22.1875 42.84375 
Q 18.109375 37.203125 18.109375 27.296875 
Q 18.109375 17.390625 22.1875 11.75 
Q 26.265625 6.109375 33.40625 6.109375 
Q 40.53125 6.109375 44.609375 11.75 
Q 48.6875 17.390625 48.6875 27.296875 
z
" id="DejaVuSans-70"/>
     </defs>
     <g transform="translate(26.920312 235.377219)rotate(-90)scale(0.1 -0.1)">
      <use xlink:href="#DejaVuSans-4e"/>
      <use x="74.804688" xlink:href="#DejaVuSans-75"/>
      <use x="138.183594" xlink:href="#DejaVuSans-6d"/>
      <use x="235.595703" xlink:href="#DejaVuSans-62"/>
      <use x="299.072266" xlink:href="#DejaVuSans-65"/>
      <use x="360.595703" xlink:href="#DejaVuSans-72"/>
      <use x="401.708984" xlink:href="#DejaVuSans-20"/>
      <use x="433.496094" xlink:href="#DejaVuSans-6f"/>
      <use x="494.677734" xlink:href="#DejaVuSans-66"/>
      <use x="529.882812" xlink:href="#DejaVuSans-20"/>
      <use x="561.669922" xlink:href="#DejaVuSans-65"/>
      <use x="623.193359" xlink:href="#DejaVuSans-64"/>
      <use x="686.669922" xlink:href="#DejaVuSans-67"/>
      <use x="750.146484" xlink:href="#DejaVuSans-65"/>
      <use x="811.669922" xlink:href="#DejaVuSans-20"/>
      <use x="843.457031" xlink:href="#DejaVuSans-73"/>
      <use x="895.556641" xlink:href="#DejaVuSans-70"/>
      <use x="959.033203" xlink:href="#DejaVuSans-65"/>
      <use x="1020.556641" xlink:href="#DejaVuSans-63"/>
      <use x="1075.537109" xlink:href="#DejaVuSans-69"/>
      <use x="1103.320312" xlink:href="#DejaVuSans-65"/>
      <use x="1164.84375" xlink:href="#DejaVuSans-73"/>
     </g>
    </g>
   </g>
   <g id="line2d_40">
    <path clip-path="url(#p1ee5a1b698)" d="M 73.832727 295.488 
L 95.588114 292.942166 
L 103.402214 288.819609 
L 115.764469 286.830954 
L 127.080714 281.821839 
L 132.741155 279.423785 
L 140.035967 272.922956 
L 147.363024 270.86198 
L 151.275718 268.058062 
L 158.159399 264.300586 
L 163.146473 261.79325 
L 168.239092 259.535787 
L 172.443453 254.855095 
L 174.957612 253.682509 
L 179.053983 249.860229 
L 183.160913 245.217887 
L 187.045543 243.577271 
L 192.088678 240.459244 
L 195.917827 235.817975 
L 200.471257 233.097919 
L 204.023259 231.417036 
L 207.339513 229.643268 
L 211.558527 227.721681 
L 215.787927 226.625535 
L 220.592675 224.888721 
L 226.375625 215.31171 
L 229.563258 210.024076 
L 234.231164 201.191785 
L 235.480265 201.236658 
L 238.033589 200.833655 
L 240.552138 192.21703 
L 241.572162 187.391576 
L 243.84747 185.282198 
L 246.026767 184.026581 
L 249.464533 182.5007 
L 253.266377 181.03711 
L 258.914627 178.663904 
L 261.979541 177.298234 
L 264.691846 176.054229 
L 267.763264 174.762394 
L 271.144986 173.198927 
L 271.291627 173.231208 
L 274.137913 172.973305 
L 276.564043 172.204259 
L 278.616575 170.906354 
L 280.378087 170.280349 
L 282.410195 169.195812 
L 284.484859 168.582232 
L 286.429273 168.064149 
L 290.793163 167.097417 
L 293.315198 165.963521 
L 295.319802 165.284491 
L 297.280703 164.029369 
L 299.865849 162.906809 
L 301.109694 161.883594 
L 304.939966 160.900471 
L 307.143065 159.625419 
L 308.508163 158.640724 
L 310.201895 158.071542 
L 310.923686 157.61355 
L 312.091134 156.864549 
L 313.190113 156.360031 
L 314.648527 155.858489 
L 317.893928 153.701589 
L 319.786781 150.99939 
L 321.248661 149.520899 
L 322.618018 147.732143 
L 323.110055 144.539745 
L 323.464741 143.032659 
L 324.700962 139.660169 
L 326.506947 135.500035 
L 328.521299 131.652722 
L 330.610163 127.442819 
L 331.920313 124.973174 
L 333.002446 122.306788 
L 335.380512 117.748757 
L 337.092904 114.678119 
L 338.299906 112.122643 
L 340.03689 111.604999 
L 341.405139 111.074944 
L 342.777068 110.65636 
L 345.888928 105.671057 
L 347.508397 102.972522 
L 348.850742 99.092332 
L 349.440615 98.621206 
L 350.793579 97.540797 
L 351.486337 95.860992 
L 351.74869 95.847999 
L 352.857154 95.472043 
L 354.466287 95.007642 
L 355.921352 93.465072 
L 359.842783 89.914439 
L 361.738125 88.15168 
L 363.495992 86.296904 
L 365.392058 84.527212 
L 366.233316 81.917828 
L 368.183291 80.26856 
L 370.699656 78.005733 
L 372.01101 75.760536 
L 372.826433 74.518138 
L 374.060159 72.460674 
L 374.835644 71.216611 
L 375.643742 70.076801 
L 376.383943 68.866896 
L 377.497256 67.069831 
L 377.98028 66.222017 
L 379.076321 65.700952 
L 380.065441 64.192454 
L 380.959655 62.464257 
L 382.30753 61.028886 
L 383.080833 59.143559 
L 383.659843 58.062096 
L 385.821538 57.729534 
L 387.164925 57.390002 
L 389.842327 56.985992 
L 391.234095 56.542968 
L 392.608572 56.069686 
L 393.633345 55.712394 
L 394.707318 55.372737 
L 394.798093 55.380808 
L 396.293012 54.954081 
L 396.972463 54.617435 
L 397.238784 54.505515 
L 397.760594 54.059303 
L 398.487273 53.568 
" style="fill:none;stroke:#0000ff;stroke-linecap:square;stroke-width:1.5;"/>
    <defs>
     <path d="M 0 3 
C 0.795609 3 1.55874 2.683901 2.12132 2.12132 
C 2.683901 1.55874 3 0.795609 3 0 
C 3 -0.795609 2.683901 -1.55874 2.12132 -2.12132 
C 1.55874 -2.683901 0.795609 -3 0 -3 
C -0.795609 -3 -1.55874 -2.683901 -2.12132 -2.12132 
C -2.683901 -1.55874 -3 -0.795609 -3 0 
C -3 0.795609 -2.683901 1.55874 -2.12132 2.12132 
C -1.55874 2.683901 -0.795609 3 0 3 
z
" id="m1a7c1a3401" style="stroke:#0000ff;"/>
    </defs>
    <g clip-path="url(#p1ee5a1b698)">
     <use style="fill:#0000ff;stroke:#0000ff;" x="73.832727" xlink:href="#m1a7c1a3401" y="295.488"/>
     <use style="fill:#0000ff;stroke:#0000ff;" x="95.588114" xlink:href="#m1a7c1a3401" y="292.942166"/>
     <use style="fill:#0000ff;stroke:#0000ff;" x="103.402214" xlink:href="#m1a7c1a3401" y="288.819609"/>
     <use style="fill:#0000ff;stroke:#0000ff;" x="115.764469" xlink:href="#m1a7c1a3401" y="286.830954"/>
     <use style="fill:#0000ff;stroke:#0000ff;" x="127.080714" xlink:href="#m1a7c1a3401" y="281.821839"/>
     <use style="fill:#0000ff;stroke:#0000ff;" x="132.741155" xlink:href="#m1a7c1a3401" y="279.423785"/>
     <use style="fill:#0000ff;stroke:#0000ff;" x="140.035967" xlink:href="#m1a7c1a3401" y="272.922956"/>
     <use style="fill:#0000ff;stroke:#0000ff;" x="147.363024" xlink:href="#m1a7c1a3401" y="270.86198"/>
     <use style="fill:#0000ff;stroke:#0000ff;" x="151.275718" xlink:href="#m1a7c1a3401" y="268.058062"/>
     <use style="fill:#0000ff;stroke:#0000ff;" x="158.159399" xlink:href="#m1a7c1a3401" y="264.300586"/>
     <use style="fill:#0000ff;stroke:#0000ff;" x="163.146473" xlink:href="#m1a7c1a3401" y="261.79325"/>
     <use style="fill:#0000ff;stroke:#0000ff;" x="168.239092" xlink:href="#m1a7c1a3401" y="259.535787"/>
     <use style="fill:#0000ff;stroke:#0000ff;" x="172.443453" xlink:href="#m1a7c1a3401" y="254.855095"/>
     <use style="fill:#0000ff;stroke:#0000ff;" x="174.957612" xlink:href="#m1a7c1a3401" y="253.682509"/>
     <use style="fill:#0000ff;stroke:#0000ff;" x="179.053983" xlink:href="#m1a7c1a3401" y="249.860229"/>
     <use style="fill:#0000ff;stroke:#0000ff;" x="183.160913" xlink:href="#m1a7c1a3401" y="245.217887"/>
     <use style="fill:#0000ff;stroke:#0000ff;" x="187.045543" xlink:href="#m1a7c1a3401" y="243.577271"/>
     <use style="fill:#0000ff;stroke:#0000ff;" x="192.088678" xlink:href="#m1a7c1a3401" y="240.459244"/>
     <use style="fill:#0000ff;stroke:#0000ff;" x="195.917827" xlink:href="#m1a7c1a3401" y="235.817975"/>
     <use style="fill:#0000ff;stroke:#0000ff;" x="200.471257" xlink:href="#m1a7c1a3401" y="233.097919"/>
     <use style="fill:#0000ff;stroke:#0000ff;" x="204.023259" xlink:href="#m1a7c1a3401" y="231.417036"/>
     <use style="fill:#0000ff;stroke:#0000ff;" x="207.339513" xlink:href="#m1a7c1a3401" y="229.643268"/>
     <use style="fill:#0000ff;stroke:#0000ff;" x="211.558527" xlink:href="#m1a7c1a3401" y="227.721681"/>
     <use style="fill:#0000ff;stroke:#0000ff;" x="215.787927" xlink:href="#m1a7c1a3401" y="226.625535"/>
     <use style="fill:#0000ff;stroke:#0000ff;" x="220.592675" xlink:href="#m1a7c1a3401" y="224.888721"/>
     <use style="fill:#0000ff;stroke:#0000ff;" x="226.375625" xlink:href="#m1a7c1a3401" y="215.31171"/>
     <use style="fill:#0000ff;stroke:#0000ff;" x="229.563258" xlink:href="#m1a7c1a3401" y="210.024076"/>
     <use style="fill:#0000ff;stroke:#0000ff;" x="234.231164" xlink:href="#m1a7c1a3401" y="201.191785"/>
     <use style="fill:#0000ff;stroke:#0000ff;" x="235.480265" xlink:href="#m1a7c1a3401" y="201.236658"/>
     <use style="fill:#0000ff;stroke:#0000ff;" x="238.033589" xlink:href="#m1a7c1a3401" y="200.833655"/>
     <use style="fill:#0000ff;stroke:#0000ff;" x="240.552138" xlink:href="#m1a7c1a3401" y="192.21703"/>
     <use style="fill:#0000ff;stroke:#0000ff;" x="241.572162" xlink:href="#m1a7c1a3401" y="187.391576"/>
     <use style="fill:#0000ff;stroke:#0000ff;" x="243.84747" xlink:href="#m1a7c1a3401" y="185.282198"/>
     <use style="fill:#0000ff;stroke:#0000ff;" x="246.026767" xlink:href="#m1a7c1a3401" y="184.026581"/>
     <use style="fill:#0000ff;stroke:#0000ff;" x="249.464533" xlink:href="#m1a7c1a3401" y="182.5007"/>
     <use style="fill:#0000ff;stroke:#0000ff;" x="253.266377" xlink:href="#m1a7c1a3401" y="181.03711"/>
     <use style="fill:#0000ff;stroke:#0000ff;" x="258.914627" xlink:href="#m1a7c1a3401" y="178.663904"/>
     <use style="fill:#0000ff;stroke:#0000ff;" x="261.979541" xlink:href="#m1a7c1a3401" y="177.298234"/>
     <use style="fill:#0000ff;stroke:#0000ff;" x="264.691846" xlink:href="#m1a7c1a3401" y="176.054229"/>
     <use style="fill:#0000ff;stroke:#0000ff;" x="267.763264" xlink:href="#m1a7c1a3401" y="174.762394"/>
     <use style="fill:#0000ff;stroke:#0000ff;" x="271.144986" xlink:href="#m1a7c1a3401" y="173.198927"/>
     <use style="fill:#0000ff;stroke:#0000ff;" x="271.291627" xlink:href="#m1a7c1a3401" y="173.231208"/>
     <use style="fill:#0000ff;stroke:#0000ff;" x="274.137913" xlink:href="#m1a7c1a3401" y="172.973305"/>
     <use style="fill:#0000ff;stroke:#0000ff;" x="276.564043" xlink:href="#m1a7c1a3401" y="172.204259"/>
     <use style="fill:#0000ff;stroke:#0000ff;" x="278.616575" xlink:href="#m1a7c1a3401" y="170.906354"/>
     <use style="fill:#0000ff;stroke:#0000ff;" x="280.378087" xlink:href="#m1a7c1a3401" y="170.280349"/>
     <use style="fill:#0000ff;stroke:#0000ff;" x="282.410195" xlink:href="#m1a7c1a3401" y="169.195812"/>
     <use style="fill:#0000ff;stroke:#0000ff;" x="284.484859" xlink:href="#m1a7c1a3401" y="168.582232"/>
     <use style="fill:#0000ff;stroke:#0000ff;" x="286.429273" xlink:href="#m1a7c1a3401" y="168.064149"/>
     <use style="fill:#0000ff;stroke:#0000ff;" x="290.793163" xlink:href="#m1a7c1a3401" y="167.097417"/>
     <use style="fill:#0000ff;stroke:#0000ff;" x="293.315198" xlink:href="#m1a7c1a3401" y="165.963521"/>
     <use style="fill:#0000ff;stroke:#0000ff;" x="295.319802" xlink:href="#m1a7c1a3401" y="165.284491"/>
     <use style="fill:#0000ff;stroke:#0000ff;" x="297.280703" xlink:href="#m1a7c1a3401" y="164.029369"/>
     <use style="fill:#0000ff;stroke:#0000ff;" x="299.865849" xlink:href="#m1a7c1a3401" y="162.906809"/>
     <use style="fill:#0000ff;stroke:#0000ff;" x="301.109694" xlink:href="#m1a7c1a3401" y="161.883594"/>
     <use style="fill:#0000ff;stroke:#0000ff;" x="304.939966" xlink:href="#m1a7c1a3401" y="160.900471"/>
     <use style="fill:#0000ff;stroke:#0000ff;" x="307.143065" xlink:href="#m1a7c1a3401" y="159.625419"/>
     <use style="fill:#0000ff;stroke:#0000ff;" x="308.508163" xlink:href="#m1a7c1a3401" y="158.640724"/>
     <use style="fill:#0000ff;stroke:#0000ff;" x="310.201895" xlink:href="#m1a7c1a3401" y="158.071542"/>
     <use style="fill:#0000ff;stroke:#0000ff;" x="310.923686" xlink:href="#m1a7c1a3401" y="157.61355"/>
     <use style="fill:#0000ff;stroke:#0000ff;" x="312.091134" xlink:href="#m1a7c1a3401" y="156.864549"/>
     <use style="fill:#0000ff;stroke:#0000ff;" x="313.190113" xlink:href="#m1a7c1a3401" y="156.360031"/>
     <use style="fill:#0000ff;stroke:#0000ff;" x="314.648527" xlink:href="#m1a7c1a3401" y="155.858489"/>
     <use style="fill:#0000ff;stroke:#0000ff;" x="317.893928" xlink:href="#m1a7c1a3401" y="153.701589"/>
     <use style="fill:#0000ff;stroke:#0000ff;" x="319.786781" xlink:href="#m1a7c1a3401" y="150.99939"/>
     <use style="fill:#0000ff;stroke:#0000ff;" x="321.248661" xlink:href="#m1a7c1a3401" y="149.520899"/>
     <use style="fill:#0000ff;stroke:#0000ff;" x="322.618018" xlink:href="#m1a7c1a3401" y="147.732143"/>
     <use style="fill:#0000ff;stroke:#0000ff;" x="323.110055" xlink:href="#m1a7c1a3401" y="144.539745"/>
     <use style="fill:#0000ff;stroke:#0000ff;" x="323.464741" xlink:href="#m1a7c1a3401" y="143.032659"/>
     <use style="fill:#0000ff;stroke:#0000ff;" x="324.700962" xlink:href="#m1a7c1a3401" y="139.660169"/>
     <use style="fill:#0000ff;stroke:#0000ff;" x="326.506947" xlink:href="#m1a7c1a3401" y="135.500035"/>
     <use style="fill:#0000ff;stroke:#0000ff;" x="328.521299" xlink:href="#m1a7c1a3401" y="131.652722"/>
     <use style="fill:#0000ff;stroke:#0000ff;" x="330.610163" xlink:href="#m1a7c1a3401" y="127.442819"/>
     <use style="fill:#0000ff;stroke:#0000ff;" x="331.920313" xlink:href="#m1a7c1a3401" y="124.973174"/>
     <use style="fill:#0000ff;stroke:#0000ff;" x="333.002446" xlink:href="#m1a7c1a3401" y="122.306788"/>
     <use style="fill:#0000ff;stroke:#0000ff;" x="335.380512" xlink:href="#m1a7c1a3401" y="117.748757"/>
     <use style="fill:#0000ff;stroke:#0000ff;" x="337.092904" xlink:href="#m1a7c1a3401" y="114.678119"/>
     <use style="fill:#0000ff;stroke:#0000ff;" x="338.299906" xlink:href="#m1a7c1a3401" y="112.122643"/>
     <use style="fill:#0000ff;stroke:#0000ff;" x="340.03689" xlink:href="#m1a7c1a3401" y="111.604999"/>
     <use style="fill:#0000ff;stroke:#0000ff;" x="341.405139" xlink:href="#m1a7c1a3401" y="111.074944"/>
     <use style="fill:#0000ff;stroke:#0000ff;" x="342.777068" xlink:href="#m1a7c1a3401" y="110.65636"/>
     <use style="fill:#0000ff;stroke:#0000ff;" x="345.888928" xlink:href="#m1a7c1a3401" y="105.671057"/>
     <use style="fill:#0000ff;stroke:#0000ff;" x="347.508397" xlink:href="#m1a7c1a3401" y="102.972522"/>
     <use style="fill:#0000ff;stroke:#0000ff;" x="348.850742" xlink:href="#m1a7c1a3401" y="99.092332"/>
     <use style="fill:#0000ff;stroke:#0000ff;" x="349.440615" xlink:href="#m1a7c1a3401" y="98.621206"/>
     <use style="fill:#0000ff;stroke:#0000ff;" x="350.793579" xlink:href="#m1a7c1a3401" y="97.540797"/>
     <use style="fill:#0000ff;stroke:#0000ff;" x="351.486337" xlink:href="#m1a7c1a3401" y="95.860992"/>
     <use style="fill:#0000ff;stroke:#0000ff;" x="351.74869" xlink:href="#m1a7c1a3401" y="95.847999"/>
     <use style="fill:#0000ff;stroke:#0000ff;" x="352.857154" xlink:href="#m1a7c1a3401" y="95.472043"/>
     <use style="fill:#0000ff;stroke:#0000ff;" x="354.466287" xlink:href="#m1a7c1a3401" y="95.007642"/>
     <use style="fill:#0000ff;stroke:#0000ff;" x="355.921352" xlink:href="#m1a7c1a3401" y="93.465072"/>
     <use style="fill:#0000ff;stroke:#0000ff;" x="359.842783" xlink:href="#m1a7c1a3401" y="89.914439"/>
     <use style="fill:#0000ff;stroke:#0000ff;" x="361.738125" xlink:href="#m1a7c1a3401" y="88.15168"/>
     <use style="fill:#0000ff;stroke:#0000ff;" x="363.495992" xlink:href="#m1a7c1a3401" y="86.296904"/>
     <use style="fill:#0000ff;stroke:#0000ff;" x="365.392058" xlink:href="#m1a7c1a3401" y="84.527212"/>
     <use style="fill:#0000ff;stroke:#0000ff;" x="366.233316" xlink:href="#m1a7c1a3401" y="81.917828"/>
     <use style="fill:#0000ff;stroke:#0000ff;" x="368.183291" xlink:href="#m1a7c1a3401" y="80.26856"/>
     <use style="fill:#0000ff;stroke:#0000ff;" x="370.699656" xlink:href="#m1a7c1a3401" y="78.005733"/>
     <use style="fill:#0000ff;stroke:#0000ff;" x="372.01101" xlink:href="#m1a7c1a3401" y="75.760536"/>
     <use style="fill:#0000ff;stroke:#0000ff;" x="372.826433" xlink:href="#m1a7c1a3401" y="74.518138"/>
     <use style="fill:#0000ff;stroke:#0000ff;" x="374.060159" xlink:href="#m1a7c1a3401" y="72.460674"/>
     <use style="fill:#0000ff;stroke:#0000ff;" x="374.835644" xlink:href="#m1a7c1a3401" y="71.216611"/>
     <use style="fill:#0000ff;stroke:#0000ff;" x="375.643742" xlink:href="#m1a7c1a3401" y="70.076801"/>
     <use style="fill:#0000ff;stroke:#0000ff;" x="376.383943" xlink:href="#m1a7c1a3401" y="68.866896"/>
     <use style="fill:#0000ff;stroke:#0000ff;" x="377.497256" xlink:href="#m1a7c1a3401" y="67.069831"/>
     <use style="fill:#0000ff;stroke:#0000ff;" x="377.98028" xlink:href="#m1a7c1a3401" y="66.222017"/>
     <use style="fill:#0000ff;stroke:#0000ff;" x="379.076321" xlink:href="#m1a7c1a3401" y="65.700952"/>
     <use style="fill:#0000ff;stroke:#0000ff;" x="380.065441" xlink:href="#m1a7c1a3401" y="64.192454"/>
     <use style="fill:#0000ff;stroke:#0000ff;" x="380.959655" xlink:href="#m1a7c1a3401" y="62.464257"/>
     <use style="fill:#0000ff;stroke:#0000ff;" x="382.30753" xlink:href="#m1a7c1a3401" y="61.028886"/>
     <use style="fill:#0000ff;stroke:#0000ff;" x="383.080833" xlink:href="#m1a7c1a3401" y="59.143559"/>
     <use style="fill:#0000ff;stroke:#0000ff;" x="383.659843" xlink:href="#m1a7c1a3401" y="58.062096"/>
     <use style="fill:#0000ff;stroke:#0000ff;" x="385.821538" xlink:href="#m1a7c1a3401" y="57.729534"/>
     <use style="fill:#0000ff;stroke:#0000ff;" x="387.164925" xlink:href="#m1a7c1a3401" y="57.390002"/>
     <use style="fill:#0000ff;stroke:#0000ff;" x="389.842327" xlink:href="#m1a7c1a3401" y="56.985992"/>
     <use style="fill:#0000ff;stroke:#0000ff;" x="391.234095" xlink:href="#m1a7c1a3401" y="56.542968"/>
     <use style="fill:#0000ff;stroke:#0000ff;" x="392.608572" xlink:href="#m1a7c1a3401" y="56.069686"/>
     <use style="fill:#0000ff;stroke:#0000ff;" x="393.633345" xlink:href="#m1a7c1a3401" y="55.712394"/>
     <use style="fill:#0000ff;stroke:#0000ff;" x="394.707318" xlink:href="#m1a7c1a3401" y="55.372737"/>
     <use style="fill:#0000ff;stroke:#0000ff;" x="394.798093" xlink:href="#m1a7c1a3401" y="55.380808"/>
     <use style="fill:#0000ff;stroke:#0000ff;" x="396.293012" xlink:href="#m1a7c1a3401" y="54.954081"/>
     <use style="fill:#0000ff;stroke:#0000ff;" x="396.972463" xlink:href="#m1a7c1a3401" y="54.617435"/>
     <use style="fill:#0000ff;stroke:#0000ff;" x="397.238784" xlink:href="#m1a7c1a3401" y="54.505515"/>
     <use style="fill:#0000ff;stroke:#0000ff;" x="397.760594" xlink:href="#m1a7c1a3401" y="54.059303"/>
     <use style="fill:#0000ff;stroke:#0000ff;" x="398.487273" xlink:href="#m1a7c1a3401" y="53.568"/>
    </g>
   </g>
   <g id="patch_3">
    <path d="M 57.6 307.584 
L 57.6 41.472 
" style="fill:none;stroke:#000000;stroke-linecap:square;stroke-linejoin:miter;stroke-width:0.8;"/>
   </g>
   <g id="patch_4">
    <path d="M 414.72 307.584 
L 414.72 41.472 
" style="fill:none;stroke:#000000;stroke-linecap:square;stroke-linejoin:miter;stroke-width:0.8;"/>
   </g>
   <g id="patch_5">
    <path d="M 57.6 307.584 
L 414.72 307.584 
" style="fill:none;stroke:#000000;stroke-linecap:square;stroke-linejoin:miter;stroke-width:0.8;"/>
   </g>
   <g id="patch_6">
    <path d="M 57.6 41.472 
L 414.72 41.472 
" style="fill:none;stroke:#000000;stroke-linecap:square;stroke-linejoin:miter;stroke-width:0.8;"/>
   </g>
  </g>
  <g id="axes_2">
   <g id="matplotlib.axis_3">
    <g id="ytick_15">
     <g id="line2d_41">
      <defs>
       <path d="M 0 0 
L 3.5 0 
" id="m54a232b4bd" style="stroke:#000000;stroke-width:0.8;"/>
      </defs>
      <g>
       <use style="stroke:#000000;stroke-width:0.8;" x="414.72" xlink:href="#m54a232b4bd" y="219.098069"/>
      </g>
     </g>
     <g id="text_7">
      <!-- $\mathdefault{10^{4}}$ -->
      <g transform="translate(421.72 222.897287)scale(0.1 -0.1)">
       <use transform="translate(0 0.684375)" xlink:href="#DejaVuSans-31"/>
       <use transform="translate(63.623047 0.684375)" xlink:href="#DejaVuSans-30"/>
       <use transform="translate(128.203125 38.965625)scale(0.7)" xlink:href="#DejaVuSans-34"/>
      </g>
     </g>
    </g>
    <g id="ytick_16">
     <g id="line2d_42">
      <g>
       <use style="stroke:#000000;stroke-width:0.8;" x="414.72" xlink:href="#m54a232b4bd" y="114.089274"/>
      </g>
     </g>
     <g id="text_8">
      <!-- $\mathdefault{10^{5}}$ -->
      <defs>
       <path d="M 10.796875 72.90625 
L 49.515625 72.90625 
L 49.515625 64.59375 
L 19.828125 64.59375 
L 19.828125 46.734375 
Q 21.96875 47.46875 24.109375 47.828125 
Q 26.265625 48.1875 28.421875 48.1875 
Q 40.625 48.1875 47.75 41.5 
Q 54.890625 34.8125 54.890625 23.390625 
Q 54.890625 11.625 47.5625 5.09375 
Q 40.234375 -1.421875 26.90625 -1.421875 
Q 22.3125 -1.421875 17.546875 -0.640625 
Q 12.796875 0.140625 7.71875 1.703125 
L 7.71875 11.625 
Q 12.109375 9.234375 16.796875 8.0625 
Q 21.484375 6.890625 26.703125 6.890625 
Q 35.15625 6.890625 40.078125 11.328125 
Q 45.015625 15.765625 45.015625 23.390625 
Q 45.015625 31 40.078125 35.4375 
Q 35.15625 39.890625 26.703125 39.890625 
Q 22.75 39.890625 18.8125 39.015625 
Q 14.890625 38.140625 10.796875 36.28125 
z
" id="DejaVuSans-35"/>
      </defs>
      <g transform="translate(421.72 117.888492)scale(0.1 -0.1)">
       <use transform="translate(0 0.684375)" xlink:href="#DejaVuSans-31"/>
       <use transform="translate(63.623047 0.684375)" xlink:href="#DejaVuSans-30"/>
       <use transform="translate(128.203125 38.965625)scale(0.7)" xlink:href="#DejaVuSans-35"/>
      </g>
     </g>
    </g>
    <g id="ytick_17">
     <g id="line2d_43">
      <defs>
       <path d="M 0 0 
L 2 0 
" id="mdd4441df57" style="stroke:#000000;stroke-width:0.6;"/>
      </defs>
      <g>
       <use style="stroke:#000000;stroke-width:0.6;" x="414.72" xlink:href="#mdd4441df57" y="292.496066"/>
      </g>
     </g>
    </g>
    <g id="ytick_18">
     <g id="line2d_44">
      <g>
       <use style="stroke:#000000;stroke-width:0.6;" x="414.72" xlink:href="#mdd4441df57" y="274.004936"/>
      </g>
     </g>
    </g>
    <g id="ytick_19">
     <g id="line2d_45">
      <g>
       <use style="stroke:#000000;stroke-width:0.6;" x="414.72" xlink:href="#mdd4441df57" y="260.885269"/>
      </g>
     </g>
    </g>
    <g id="ytick_20">
     <g id="line2d_46">
      <g>
       <use style="stroke:#000000;stroke-width:0.6;" x="414.72" xlink:href="#mdd4441df57" y="250.708866"/>
      </g>
     </g>
    </g>
    <g id="ytick_21">
     <g id="line2d_47">
      <g>
       <use style="stroke:#000000;stroke-width:0.6;" x="414.72" xlink:href="#mdd4441df57" y="242.394138"/>
      </g>
     </g>
    </g>
    <g id="ytick_22">
     <g id="line2d_48">
      <g>
       <use style="stroke:#000000;stroke-width:0.6;" x="414.72" xlink:href="#mdd4441df57" y="235.364137"/>
      </g>
     </g>
    </g>
    <g id="ytick_23">
     <g id="line2d_49">
      <g>
       <use style="stroke:#000000;stroke-width:0.6;" x="414.72" xlink:href="#mdd4441df57" y="229.274472"/>
      </g>
     </g>
    </g>
    <g id="ytick_24">
     <g id="line2d_50">
      <g>
       <use style="stroke:#000000;stroke-width:0.6;" x="414.72" xlink:href="#mdd4441df57" y="223.903008"/>
      </g>
     </g>
    </g>
    <g id="ytick_25">
     <g id="line2d_51">
      <g>
       <use style="stroke:#000000;stroke-width:0.6;" x="414.72" xlink:href="#mdd4441df57" y="187.487271"/>
      </g>
     </g>
    </g>
    <g id="ytick_26">
     <g id="line2d_52">
      <g>
       <use style="stroke:#000000;stroke-width:0.6;" x="414.72" xlink:href="#mdd4441df57" y="168.996141"/>
      </g>
     </g>
    </g>
    <g id="ytick_27">
     <g id="line2d_53">
      <g>
       <use style="stroke:#000000;stroke-width:0.6;" x="414.72" xlink:href="#mdd4441df57" y="155.876474"/>
      </g>
     </g>
    </g>
    <g id="ytick_28">
     <g id="line2d_54">
      <g>
       <use style="stroke:#000000;stroke-width:0.6;" x="414.72" xlink:href="#mdd4441df57" y="145.700071"/>
      </g>
     </g>
    </g>
    <g id="ytick_29">
     <g id="line2d_55">
      <g>
       <use style="stroke:#000000;stroke-width:0.6;" x="414.72" xlink:href="#mdd4441df57" y="137.385343"/>
      </g>
     </g>
    </g>
    <g id="ytick_30">
     <g id="line2d_56">
      <g>
       <use style="stroke:#000000;stroke-width:0.6;" x="414.72" xlink:href="#mdd4441df57" y="130.355342"/>
      </g>
     </g>
    </g>
    <g id="ytick_31">
     <g id="line2d_57">
      <g>
       <use style="stroke:#000000;stroke-width:0.6;" x="414.72" xlink:href="#mdd4441df57" y="124.265677"/>
      </g>
     </g>
    </g>
    <g id="ytick_32">
     <g id="line2d_58">
      <g>
       <use style="stroke:#000000;stroke-width:0.6;" x="414.72" xlink:href="#mdd4441df57" y="118.894213"/>
      </g>
     </g>
    </g>
    <g id="ytick_33">
     <g id="line2d_59">
      <g>
       <use style="stroke:#000000;stroke-width:0.6;" x="414.72" xlink:href="#mdd4441df57" y="82.478476"/>
      </g>
     </g>
    </g>
    <g id="ytick_34">
     <g id="line2d_60">
      <g>
       <use style="stroke:#000000;stroke-width:0.6;" x="414.72" xlink:href="#mdd4441df57" y="63.987346"/>
      </g>
     </g>
    </g>
    <g id="ytick_35">
     <g id="line2d_61">
      <g>
       <use style="stroke:#000000;stroke-width:0.6;" x="414.72" xlink:href="#mdd4441df57" y="50.867679"/>
      </g>
     </g>
    </g>
    <g id="text_9">
     <!-- Number of edge reactions -->
     <defs>
      <path d="M 34.28125 27.484375 
Q 23.390625 27.484375 19.1875 25 
Q 14.984375 22.515625 14.984375 16.5 
Q 14.984375 11.71875 18.140625 8.90625 
Q 21.296875 6.109375 26.703125 6.109375 
Q 34.1875 6.109375 38.703125 11.40625 
Q 43.21875 16.703125 43.21875 25.484375 
L 43.21875 27.484375 
z
M 52.203125 31.203125 
L 52.203125 0 
L 43.21875 0 
L 43.21875 8.296875 
Q 40.140625 3.328125 35.546875 0.953125 
Q 30.953125 -1.421875 24.3125 -1.421875 
Q 15.921875 -1.421875 10.953125 3.296875 
Q 6 8.015625 6 15.921875 
Q 6 25.140625 12.171875 29.828125 
Q 18.359375 34.515625 30.609375 34.515625 
L 43.21875 34.515625 
L 43.21875 35.40625 
Q 43.21875 41.609375 39.140625 45 
Q 35.0625 48.390625 27.6875 48.390625 
Q 23 48.390625 18.546875 47.265625 
Q 14.109375 46.140625 10.015625 43.890625 
L 10.015625 52.203125 
Q 14.9375 54.109375 19.578125 55.046875 
Q 24.21875 56 28.609375 56 
Q 40.484375 56 46.34375 49.84375 
Q 52.203125 43.703125 52.203125 31.203125 
z
" id="DejaVuSans-61"/>
     </defs>
     <g transform="translate(450.918438 239.828)rotate(-90)scale(0.1 -0.1)">
      <use xlink:href="#DejaVuSans-4e"/>
      <use x="74.804688" xlink:href="#DejaVuSans-75"/>
      <use x="138.183594" xlink:href="#DejaVuSans-6d"/>
      <use x="235.595703" xlink:href="#DejaVuSans-62"/>
      <use x="299.072266" xlink:href="#DejaVuSans-65"/>
      <use x="360.595703" xlink:href="#DejaVuSans-72"/>
      <use x="401.708984" xlink:href="#DejaVuSans-20"/>
      <use x="433.496094" xlink:href="#DejaVuSans-6f"/>
      <use x="494.677734" xlink:href="#DejaVuSans-66"/>
      <use x="529.882812" xlink:href="#DejaVuSans-20"/>
      <use x="561.669922" xlink:href="#DejaVuSans-65"/>
      <use x="623.193359" xlink:href="#DejaVuSans-64"/>
      <use x="686.669922" xlink:href="#DejaVuSans-67"/>
      <use x="750.146484" xlink:href="#DejaVuSans-65"/>
      <use x="811.669922" xlink:href="#DejaVuSans-20"/>
      <use x="843.457031" xlink:href="#DejaVuSans-72"/>
      <use x="884.539062" xlink:href="#DejaVuSans-65"/>
      <use x="946.0625" xlink:href="#DejaVuSans-61"/>
      <use x="1007.341797" xlink:href="#DejaVuSans-63"/>
      <use x="1062.322266" xlink:href="#DejaVuSans-74"/>
      <use x="1101.53125" xlink:href="#DejaVuSans-69"/>
      <use x="1129.314453" xlink:href="#DejaVuSans-6f"/>
      <use x="1190.496094" xlink:href="#DejaVuSans-6e"/>
      <use x="1253.875" xlink:href="#DejaVuSans-73"/>
     </g>
    </g>
   </g>
   <g id="line2d_62">
    <path clip-path="url(#p1ee5a1b698)" d="M 73.832727 295.488 
L 95.588114 290.032745 
L 103.402214 282.028722 
L 115.764469 274.941789 
L 127.080714 265.036185 
L 132.741155 257.735827 
L 140.035967 253.520975 
L 147.363024 248.928986 
L 151.275718 244.06619 
L 158.159399 238.303925 
L 163.146473 233.387941 
L 168.239092 229.853897 
L 172.443453 224.798501 
L 174.957612 222.221674 
L 179.053983 220.177903 
L 183.160913 215.218192 
L 187.045543 211.119008 
L 192.088678 206.267768 
L 195.917827 201.148274 
L 200.471257 197.407867 
L 204.023259 194.620761 
L 207.339513 191.336984 
L 211.558527 188.176525 
L 215.787927 185.902984 
L 220.592675 182.441266 
L 226.375625 178.557249 
L 229.563258 176.637269 
L 234.231164 173.514839 
L 235.480265 173.518196 
L 238.033589 171.817952 
L 240.552138 169.230848 
L 241.572162 167.929402 
L 243.84747 165.166554 
L 246.026767 163.215734 
L 249.464533 160.330596 
L 253.266377 157.546161 
L 258.914627 154.24486 
L 261.979541 151.82519 
L 264.691846 149.466991 
L 267.763264 147.166325 
L 271.144986 144.918752 
L 271.291627 144.919649 
L 274.137913 143.125412 
L 276.564043 140.876711 
L 278.616575 139.036899 
L 280.378087 137.285882 
L 282.410195 135.522937 
L 284.484859 133.801718 
L 286.429273 132.419022 
L 290.793163 129.85514 
L 293.315198 127.701691 
L 295.319802 126.406108 
L 297.280703 124.843948 
L 299.865849 122.809307 
L 301.109694 121.891016 
L 304.939966 119.753547 
L 307.143065 117.950401 
L 308.508163 116.529413 
L 310.201895 115.381609 
L 310.923686 115.079071 
L 312.091134 114.031848 
L 313.190113 113.014368 
L 314.648527 111.912882 
L 317.893928 110.100207 
L 319.786781 108.560794 
L 321.248661 107.604959 
L 322.618018 106.432944 
L 323.110055 105.882986 
L 323.464741 105.588328 
L 324.700962 104.264099 
L 326.506947 102.897245 
L 328.521299 101.381678 
L 330.610163 100.057796 
L 331.920313 98.924386 
L 333.002446 97.942161 
L 335.380512 96.380707 
L 337.092904 95.148575 
L 338.299906 94.208815 
L 340.03689 92.852262 
L 341.405139 91.777223 
L 342.777068 90.716561 
L 345.888928 89.139814 
L 347.508397 88.004833 
L 348.850742 86.843432 
L 349.440615 86.535831 
L 350.793579 85.069936 
L 351.486337 84.354882 
L 351.74869 84.200702 
L 352.857154 83.222628 
L 354.466287 82.020405 
L 355.921352 80.898594 
L 359.842783 79.077763 
L 361.738125 77.768905 
L 363.495992 76.477171 
L 365.392058 75.205269 
L 366.233316 74.267999 
L 368.183291 73.029678 
L 370.699656 71.695207 
L 372.01101 70.518509 
L 372.826433 70.140814 
L 374.060159 69.03684 
L 374.835644 68.676056 
L 375.643742 68.332482 
L 376.383943 67.971732 
L 377.497256 67.082471 
L 377.98028 66.828891 
L 379.076321 65.825434 
L 380.065441 65.033882 
L 380.959655 64.243908 
L 382.30753 63.467988 
L 383.080833 62.663535 
L 383.659843 62.240372 
L 385.821538 61.085431 
L 387.164925 60.102722 
L 389.842327 59.076544 
L 391.234095 58.220333 
L 392.608572 57.20205 
L 393.633345 56.366373 
L 394.707318 55.538282 
L 394.798093 55.606286 
L 396.293012 54.780952 
L 396.972463 54.338128 
L 397.238784 54.25295 
L 397.760594 53.961381 
L 398.487273 53.568 
" style="fill:none;stroke:#ff0000;stroke-linecap:square;stroke-width:1.5;"/>
    <defs>
     <path d="M 0 3 
C 0.795609 3 1.55874 2.683901 2.12132 2.12132 
C 2.683901 1.55874 3 0.795609 3 0 
C 3 -0.795609 2.683901 -1.55874 2.12132 -2.12132 
C 1.55874 -2.683901 0.795609 -3 0 -3 
C -0.795609 -3 -1.55874 -2.683901 -2.12132 -2.12132 
C -2.683901 -1.55874 -3 -0.795609 -3 0 
C -3 0.795609 -2.683901 1.55874 -2.12132 2.12132 
C -1.55874 2.683901 -0.795609 3 0 3 
z
" id="m3c06727844" style="stroke:#ff0000;"/>
    </defs>
    <g clip-path="url(#p1ee5a1b698)">
     <use style="fill:#ff0000;stroke:#ff0000;" x="73.832727" xlink:href="#m3c06727844" y="295.488"/>
     <use style="fill:#ff0000;stroke:#ff0000;" x="95.588114" xlink:href="#m3c06727844" y="290.032745"/>
     <use style="fill:#ff0000;stroke:#ff0000;" x="103.402214" xlink:href="#m3c06727844" y="282.028722"/>
     <use style="fill:#ff0000;stroke:#ff0000;" x="115.764469" xlink:href="#m3c06727844" y="274.941789"/>
     <use style="fill:#ff0000;stroke:#ff0000;" x="127.080714" xlink:href="#m3c06727844" y="265.036185"/>
     <use style="fill:#ff0000;stroke:#ff0000;" x="132.741155" xlink:href="#m3c06727844" y="257.735827"/>
     <use style="fill:#ff0000;stroke:#ff0000;" x="140.035967" xlink:href="#m3c06727844" y="253.520975"/>
     <use style="fill:#ff0000;stroke:#ff0000;" x="147.363024" xlink:href="#m3c06727844" y="248.928986"/>
     <use style="fill:#ff0000;stroke:#ff0000;" x="151.275718" xlink:href="#m3c06727844" y="244.06619"/>
     <use style="fill:#ff0000;stroke:#ff0000;" x="158.159399" xlink:href="#m3c06727844" y="238.303925"/>
     <use style="fill:#ff0000;stroke:#ff0000;" x="163.146473" xlink:href="#m3c06727844" y="233.387941"/>
     <use style="fill:#ff0000;stroke:#ff0000;" x="168.239092" xlink:href="#m3c06727844" y="229.853897"/>
     <use style="fill:#ff0000;stroke:#ff0000;" x="172.443453" xlink:href="#m3c06727844" y="224.798501"/>
     <use style="fill:#ff0000;stroke:#ff0000;" x="174.957612" xlink:href="#m3c06727844" y="222.221674"/>
     <use style="fill:#ff0000;stroke:#ff0000;" x="179.053983" xlink:href="#m3c06727844" y="220.177903"/>
     <use style="fill:#ff0000;stroke:#ff0000;" x="183.160913" xlink:href="#m3c06727844" y="215.218192"/>
     <use style="fill:#ff0000;stroke:#ff0000;" x="187.045543" xlink:href="#m3c06727844" y="211.119008"/>
     <use style="fill:#ff0000;stroke:#ff0000;" x="192.088678" xlink:href="#m3c06727844" y="206.267768"/>
     <use style="fill:#ff0000;stroke:#ff0000;" x="195.917827" xlink:href="#m3c06727844" y="201.148274"/>
     <use style="fill:#ff0000;stroke:#ff0000;" x="200.471257" xlink:href="#m3c06727844" y="197.407867"/>
     <use style="fill:#ff0000;stroke:#ff0000;" x="204.023259" xlink:href="#m3c06727844" y="194.620761"/>
     <use style="fill:#ff0000;stroke:#ff0000;" x="207.339513" xlink:href="#m3c06727844" y="191.336984"/>
     <use style="fill:#ff0000;stroke:#ff0000;" x="211.558527" xlink:href="#m3c06727844" y="188.176525"/>
     <use style="fill:#ff0000;stroke:#ff0000;" x="215.787927" xlink:href="#m3c06727844" y="185.902984"/>
     <use style="fill:#ff0000;stroke:#ff0000;" x="220.592675" xlink:href="#m3c06727844" y="182.441266"/>
     <use style="fill:#ff0000;stroke:#ff0000;" x="226.375625" xlink:href="#m3c06727844" y="178.557249"/>
     <use style="fill:#ff0000;stroke:#ff0000;" x="229.563258" xlink:href="#m3c06727844" y="176.637269"/>
     <use style="fill:#ff0000;stroke:#ff0000;" x="234.231164" xlink:href="#m3c06727844" y="173.514839"/>
     <use style="fill:#ff0000;stroke:#ff0000;" x="235.480265" xlink:href="#m3c06727844" y="173.518196"/>
     <use style="fill:#ff0000;stroke:#ff0000;" x="238.033589" xlink:href="#m3c06727844" y="171.817952"/>
     <use style="fill:#ff0000;stroke:#ff0000;" x="240.552138" xlink:href="#m3c06727844" y="169.230848"/>
     <use style="fill:#ff0000;stroke:#ff0000;" x="241.572162" xlink:href="#m3c06727844" y="167.929402"/>
     <use style="fill:#ff0000;stroke:#ff0000;" x="243.84747" xlink:href="#m3c06727844" y="165.166554"/>
     <use style="fill:#ff0000;stroke:#ff0000;" x="246.026767" xlink:href="#m3c06727844" y="163.215734"/>
     <use style="fill:#ff0000;stroke:#ff0000;" x="249.464533" xlink:href="#m3c06727844" y="160.330596"/>
     <use style="fill:#ff0000;stroke:#ff0000;" x="253.266377" xlink:href="#m3c06727844" y="157.546161"/>
     <use style="fill:#ff0000;stroke:#ff0000;" x="258.914627" xlink:href="#m3c06727844" y="154.24486"/>
     <use style="fill:#ff0000;stroke:#ff0000;" x="261.979541" xlink:href="#m3c06727844" y="151.82519"/>
     <use style="fill:#ff0000;stroke:#ff0000;" x="264.691846" xlink:href="#m3c06727844" y="149.466991"/>
     <use style="fill:#ff0000;stroke:#ff0000;" x="267.763264" xlink:href="#m3c06727844" y="147.166325"/>
     <use style="fill:#ff0000;stroke:#ff0000;" x="271.144986" xlink:href="#m3c06727844" y="144.918752"/>
     <use style="fill:#ff0000;stroke:#ff0000;" x="271.291627" xlink:href="#m3c06727844" y="144.919649"/>
     <use style="fill:#ff0000;stroke:#ff0000;" x="274.137913" xlink:href="#m3c06727844" y="143.125412"/>
     <use style="fill:#ff0000;stroke:#ff0000;" x="276.564043" xlink:href="#m3c06727844" y="140.876711"/>
     <use style="fill:#ff0000;stroke:#ff0000;" x="278.616575" xlink:href="#m3c06727844" y="139.036899"/>
     <use style="fill:#ff0000;stroke:#ff0000;" x="280.378087" xlink:href="#m3c06727844" y="137.285882"/>
     <use style="fill:#ff0000;stroke:#ff0000;" x="282.410195" xlink:href="#m3c06727844" y="135.522937"/>
     <use style="fill:#ff0000;stroke:#ff0000;" x="284.484859" xlink:href="#m3c06727844" y="133.801718"/>
     <use style="fill:#ff0000;stroke:#ff0000;" x="286.429273" xlink:href="#m3c06727844" y="132.419022"/>
     <use style="fill:#ff0000;stroke:#ff0000;" x="290.793163" xlink:href="#m3c06727844" y="129.85514"/>
     <use style="fill:#ff0000;stroke:#ff0000;" x="293.315198" xlink:href="#m3c06727844" y="127.701691"/>
     <use style="fill:#ff0000;stroke:#ff0000;" x="295.319802" xlink:href="#m3c06727844" y="126.406108"/>
     <use style="fill:#ff0000;stroke:#ff0000;" x="297.280703" xlink:href="#m3c06727844" y="124.843948"/>
     <use style="fill:#ff0000;stroke:#ff0000;" x="299.865849" xlink:href="#m3c06727844" y="122.809307"/>
     <use style="fill:#ff0000;stroke:#ff0000;" x="301.109694" xlink:href="#m3c06727844" y="121.891016"/>
     <use style="fill:#ff0000;stroke:#ff0000;" x="304.939966" xlink:href="#m3c06727844" y="119.753547"/>
     <use style="fill:#ff0000;stroke:#ff0000;" x="307.143065" xlink:href="#m3c06727844" y="117.950401"/>
     <use style="fill:#ff0000;stroke:#ff0000;" x="308.508163" xlink:href="#m3c06727844" y="116.529413"/>
     <use style="fill:#ff0000;stroke:#ff0000;" x="310.201895" xlink:href="#m3c06727844" y="115.381609"/>
     <use style="fill:#ff0000;stroke:#ff0000;" x="310.923686" xlink:href="#m3c06727844" y="115.079071"/>
     <use style="fill:#ff0000;stroke:#ff0000;" x="312.091134" xlink:href="#m3c06727844" y="114.031848"/>
     <use style="fill:#ff0000;stroke:#ff0000;" x="313.190113" xlink:href="#m3c06727844" y="113.014368"/>
     <use style="fill:#ff0000;stroke:#ff0000;" x="314.648527" xlink:href="#m3c06727844" y="111.912882"/>
     <use style="fill:#ff0000;stroke:#ff0000;" x="317.893928" xlink:href="#m3c06727844" y="110.100207"/>
     <use style="fill:#ff0000;stroke:#ff0000;" x="319.786781" xlink:href="#m3c06727844" y="108.560794"/>
     <use style="fill:#ff0000;stroke:#ff0000;" x="321.248661" xlink:href="#m3c06727844" y="107.604959"/>
     <use style="fill:#ff0000;stroke:#ff0000;" x="322.618018" xlink:href="#m3c06727844" y="106.432944"/>
     <use style="fill:#ff0000;stroke:#ff0000;" x="323.110055" xlink:href="#m3c06727844" y="105.882986"/>
     <use style="fill:#ff0000;stroke:#ff0000;" x="323.464741" xlink:href="#m3c06727844" y="105.588328"/>
     <use style="fill:#ff0000;stroke:#ff0000;" x="324.700962" xlink:href="#m3c06727844" y="104.264099"/>
     <use style="fill:#ff0000;stroke:#ff0000;" x="326.506947" xlink:href="#m3c06727844" y="102.897245"/>
     <use style="fill:#ff0000;stroke:#ff0000;" x="328.521299" xlink:href="#m3c06727844" y="101.381678"/>
     <use style="fill:#ff0000;stroke:#ff0000;" x="330.610163" xlink:href="#m3c06727844" y="100.057796"/>
     <use style="fill:#ff0000;stroke:#ff0000;" x="331.920313" xlink:href="#m3c06727844" y="98.924386"/>
     <use style="fill:#ff0000;stroke:#ff0000;" x="333.002446" xlink:href="#m3c06727844" y="97.942161"/>
     <use style="fill:#ff0000;stroke:#ff0000;" x="335.380512" xlink:href="#m3c06727844" y="96.380707"/>
     <use style="fill:#ff0000;stroke:#ff0000;" x="337.092904" xlink:href="#m3c06727844" y="95.148575"/>
     <use style="fill:#ff0000;stroke:#ff0000;" x="338.299906" xlink:href="#m3c06727844" y="94.208815"/>
     <use style="fill:#ff0000;stroke:#ff0000;" x="340.03689" xlink:href="#m3c06727844" y="92.852262"/>
     <use style="fill:#ff0000;stroke:#ff0000;" x="341.405139" xlink:href="#m3c06727844" y="91.777223"/>
     <use style="fill:#ff0000;stroke:#ff0000;" x="342.777068" xlink:href="#m3c06727844" y="90.716561"/>
     <use style="fill:#ff0000;stroke:#ff0000;" x="345.888928" xlink:href="#m3c06727844" y="89.139814"/>
     <use style="fill:#ff0000;stroke:#ff0000;" x="347.508397" xlink:href="#m3c06727844" y="88.004833"/>
     <use style="fill:#ff0000;stroke:#ff0000;" x="348.850742" xlink:href="#m3c06727844" y="86.843432"/>
     <use style="fill:#ff0000;stroke:#ff0000;" x="349.440615" xlink:href="#m3c06727844" y="86.535831"/>
     <use style="fill:#ff0000;stroke:#ff0000;" x="350.793579" xlink:href="#m3c06727844" y="85.069936"/>
     <use style="fill:#ff0000;stroke:#ff0000;" x="351.486337" xlink:href="#m3c06727844" y="84.354882"/>
     <use style="fill:#ff0000;stroke:#ff0000;" x="351.74869" xlink:href="#m3c06727844" y="84.200702"/>
     <use style="fill:#ff0000;stroke:#ff0000;" x="352.857154" xlink:href="#m3c06727844" y="83.222628"/>
     <use style="fill:#ff0000;stroke:#ff0000;" x="354.466287" xlink:href="#m3c06727844" y="82.020405"/>
     <use style="fill:#ff0000;stroke:#ff0000;" x="355.921352" xlink:href="#m3c06727844" y="80.898594"/>
     <use style="fill:#ff0000;stroke:#ff0000;" x="359.842783" xlink:href="#m3c06727844" y="79.077763"/>
     <use style="fill:#ff0000;stroke:#ff0000;" x="361.738125" xlink:href="#m3c06727844" y="77.768905"/>
     <use style="fill:#ff0000;stroke:#ff0000;" x="363.495992" xlink:href="#m3c06727844" y="76.477171"/>
     <use style="fill:#ff0000;stroke:#ff0000;" x="365.392058" xlink:href="#m3c06727844" y="75.205269"/>
     <use style="fill:#ff0000;stroke:#ff0000;" x="366.233316" xlink:href="#m3c06727844" y="74.267999"/>
     <use style="fill:#ff0000;stroke:#ff0000;" x="368.183291" xlink:href="#m3c06727844" y="73.029678"/>
     <use style="fill:#ff0000;stroke:#ff0000;" x="370.699656" xlink:href="#m3c06727844" y="71.695207"/>
     <use style="fill:#ff0000;stroke:#ff0000;" x="372.01101" xlink:href="#m3c06727844" y="70.518509"/>
     <use style="fill:#ff0000;stroke:#ff0000;" x="372.826433" xlink:href="#m3c06727844" y="70.140814"/>
     <use style="fill:#ff0000;stroke:#ff0000;" x="374.060159" xlink:href="#m3c06727844" y="69.03684"/>
     <use style="fill:#ff0000;stroke:#ff0000;" x="374.835644" xlink:href="#m3c06727844" y="68.676056"/>
     <use style="fill:#ff0000;stroke:#ff0000;" x="375.643742" xlink:href="#m3c06727844" y="68.332482"/>
     <use style="fill:#ff0000;stroke:#ff0000;" x="376.383943" xlink:href="#m3c06727844" y="67.971732"/>
     <use style="fill:#ff0000;stroke:#ff0000;" x="377.497256" xlink:href="#m3c06727844" y="67.082471"/>
     <use style="fill:#ff0000;stroke:#ff0000;" x="377.98028" xlink:href="#m3c06727844" y="66.828891"/>
     <use style="fill:#ff0000;stroke:#ff0000;" x="379.076321" xlink:href="#m3c06727844" y="65.825434"/>
     <use style="fill:#ff0000;stroke:#ff0000;" x="380.065441" xlink:href="#m3c06727844" y="65.033882"/>
     <use style="fill:#ff0000;stroke:#ff0000;" x="380.959655" xlink:href="#m3c06727844" y="64.243908"/>
     <use style="fill:#ff0000;stroke:#ff0000;" x="382.30753" xlink:href="#m3c06727844" y="63.467988"/>
     <use style="fill:#ff0000;stroke:#ff0000;" x="383.080833" xlink:href="#m3c06727844" y="62.663535"/>
     <use style="fill:#ff0000;stroke:#ff0000;" x="383.659843" xlink:href="#m3c06727844" y="62.240372"/>
     <use style="fill:#ff0000;stroke:#ff0000;" x="385.821538" xlink:href="#m3c06727844" y="61.085431"/>
     <use style="fill:#ff0000;stroke:#ff0000;" x="387.164925" xlink:href="#m3c06727844" y="60.102722"/>
     <use style="fill:#ff0000;stroke:#ff0000;" x="389.842327" xlink:href="#m3c06727844" y="59.076544"/>
     <use style="fill:#ff0000;stroke:#ff0000;" x="391.234095" xlink:href="#m3c06727844" y="58.220333"/>
     <use style="fill:#ff0000;stroke:#ff0000;" x="392.608572" xlink:href="#m3c06727844" y="57.20205"/>
     <use style="fill:#ff0000;stroke:#ff0000;" x="393.633345" xlink:href="#m3c06727844" y="56.366373"/>
     <use style="fill:#ff0000;stroke:#ff0000;" x="394.707318" xlink:href="#m3c06727844" y="55.538282"/>
     <use style="fill:#ff0000;stroke:#ff0000;" x="394.798093" xlink:href="#m3c06727844" y="55.606286"/>
     <use style="fill:#ff0000;stroke:#ff0000;" x="396.293012" xlink:href="#m3c06727844" y="54.780952"/>
     <use style="fill:#ff0000;stroke:#ff0000;" x="396.972463" xlink:href="#m3c06727844" y="54.338128"/>
     <use style="fill:#ff0000;stroke:#ff0000;" x="397.238784" xlink:href="#m3c06727844" y="54.25295"/>
     <use style="fill:#ff0000;stroke:#ff0000;" x="397.760594" xlink:href="#m3c06727844" y="53.961381"/>
     <use style="fill:#ff0000;stroke:#ff0000;" x="398.487273" xlink:href="#m3c06727844" y="53.568"/>
    </g>
   </g>
   <g id="patch_7">
    <path d="M 57.6 307.584 
L 57.6 41.472 
" style="fill:none;stroke:#000000;stroke-linecap:square;stroke-linejoin:miter;stroke-width:0.8;"/>
   </g>
   <g id="patch_8">
    <path d="M 414.72 307.584 
L 414.72 41.472 
" style="fill:none;stroke:#000000;stroke-linecap:square;stroke-linejoin:miter;stroke-width:0.8;"/>
   </g>
   <g id="patch_9">
    <path d="M 57.6 307.584 
L 414.72 307.584 
" style="fill:none;stroke:#000000;stroke-linecap:square;stroke-linejoin:miter;stroke-width:0.8;"/>
   </g>
   <g id="patch_10">
    <path d="M 57.6 41.472 
L 414.72 41.472 
" style="fill:none;stroke:#000000;stroke-linecap:square;stroke-linejoin:miter;stroke-width:0.8;"/>
   </g>
  </g>
 </g>
 <defs>
  <clipPath id="p1ee5a1b698">
   <rect height="266.112" width="357.12" x="57.6" y="41.472"/>
  </clipPath>
 </defs>
</svg>
