<?xml version="1.0" encoding="utf-8" standalone="no"?>
<!DOCTYPE svg PUBLIC "-//W3C//DTD SVG 1.1//EN"
  "http://www.w3.org/Graphics/SVG/1.1/DTD/svg11.dtd">
<!-- Created with matplotlib (http://matplotlib.org/) -->
<svg height="345.6pt" version="1.1" viewBox="0 0 460.8 345.6" width="460.8pt" xmlns="http://www.w3.org/2000/svg" xmlns:xlink="http://www.w3.org/1999/xlink">
 <defs>
  <style type="text/css">
*{stroke-linecap:butt;stroke-linejoin:round;}
  </style>
 </defs>
 <g id="figure_1">
  <g id="patch_1">
   <path d="M 0 345.6 
L 460.8 345.6 
L 460.8 0 
L 0 0 
z
" style="fill:#ffffff;"/>
  </g>
  <g id="axes_1">
   <g id="patch_2">
    <path d="M 57.6 307.584 
L 414.72 307.584 
L 414.72 41.472 
L 57.6 41.472 
z
" style="fill:#ffffff;"/>
   </g>
   <g id="matplotlib.axis_1">
    <g id="xtick_1">
     <g id="line2d_1">
      <defs>
       <path d="M 0 0 
L 0 3.5 
" id="m685aa0a5bd" style="stroke:#000000;stroke-width:0.8;"/>
      </defs>
      <g>
       <use style="stroke:#000000;stroke-width:0.8;" x="150.646247" xlink:href="#m685aa0a5bd" y="307.584"/>
      </g>
     </g>
     <g id="text_1">
      <!-- $\mathdefault{10^{3}}$ -->
      <defs>
       <path d="M 12.40625 8.296875 
L 28.515625 8.296875 
L 28.515625 63.921875 
L 10.984375 60.40625 
L 10.984375 69.390625 
L 28.421875 72.90625 
L 38.28125 72.90625 
L 38.28125 8.296875 
L 54.390625 8.296875 
L 54.390625 0 
L 12.40625 0 
z
" id="DejaVuSans-31"/>
       <path d="M 31.78125 66.40625 
Q 24.171875 66.40625 20.328125 58.90625 
Q 16.5 51.421875 16.5 36.375 
Q 16.5 21.390625 20.328125 13.890625 
Q 24.171875 6.390625 31.78125 6.390625 
Q 39.453125 6.390625 43.28125 13.890625 
Q 47.125 21.390625 47.125 36.375 
Q 47.125 51.421875 43.28125 58.90625 
Q 39.453125 66.40625 31.78125 66.40625 
z
M 31.78125 74.21875 
Q 44.046875 74.21875 50.515625 64.515625 
Q 56.984375 54.828125 56.984375 36.375 
Q 56.984375 17.96875 50.515625 8.265625 
Q 44.046875 -1.421875 31.78125 -1.421875 
Q 19.53125 -1.421875 13.0625 8.265625 
Q 6.59375 17.96875 6.59375 36.375 
Q 6.59375 54.828125 13.0625 64.515625 
Q 19.53125 74.21875 31.78125 74.21875 
z
" id="DejaVuSans-30"/>
       <path d="M 40.578125 39.3125 
Q 47.65625 37.796875 51.625 33 
Q 55.609375 28.21875 55.609375 21.1875 
Q 55.609375 10.40625 48.1875 4.484375 
Q 40.765625 -1.421875 27.09375 -1.421875 
Q 22.515625 -1.421875 17.65625 -0.515625 
Q 12.796875 0.390625 7.625 2.203125 
L 7.625 11.71875 
Q 11.71875 9.328125 16.59375 8.109375 
Q 21.484375 6.890625 26.8125 6.890625 
Q 36.078125 6.890625 40.9375 10.546875 
Q 45.796875 14.203125 45.796875 21.1875 
Q 45.796875 27.640625 41.28125 31.265625 
Q 36.765625 34.90625 28.71875 34.90625 
L 20.21875 34.90625 
L 20.21875 43.015625 
L 29.109375 43.015625 
Q 36.375 43.015625 40.234375 45.921875 
Q 44.09375 48.828125 44.09375 54.296875 
Q 44.09375 59.90625 40.109375 62.90625 
Q 36.140625 65.921875 28.71875 65.921875 
Q 24.65625 65.921875 20.015625 65.03125 
Q 15.375 64.15625 9.8125 62.3125 
L 9.8125 71.09375 
Q 15.4375 72.65625 20.34375 73.4375 
Q 25.25 74.21875 29.59375 74.21875 
Q 40.828125 74.21875 47.359375 69.109375 
Q 53.90625 64.015625 53.90625 55.328125 
Q 53.90625 49.265625 50.4375 45.09375 
Q 46.96875 40.921875 40.578125 39.3125 
z
" id="DejaVuSans-33"/>
      </defs>
      <g transform="translate(141.846247 322.182437)scale(0.1 -0.1)">
       <use transform="translate(0 0.765625)" xlink:href="#DejaVuSans-31"/>
       <use transform="translate(63.623047 0.765625)" xlink:href="#DejaVuSans-30"/>
       <use transform="translate(128.203125 39.046875)scale(0.7)" xlink:href="#DejaVuSans-33"/>
      </g>
     </g>
    </g>
    <g id="xtick_2">
     <g id="line2d_2">
      <g>
       <use style="stroke:#000000;stroke-width:0.8;" x="285.343505" xlink:href="#m685aa0a5bd" y="307.584"/>
      </g>
     </g>
     <g id="text_2">
      <!-- $\mathdefault{10^{4}}$ -->
      <defs>
       <path d="M 37.796875 64.3125 
L 12.890625 25.390625 
L 37.796875 25.390625 
z
M 35.203125 72.90625 
L 47.609375 72.90625 
L 47.609375 25.390625 
L 58.015625 25.390625 
L 58.015625 17.1875 
L 47.609375 17.1875 
L 47.609375 0 
L 37.796875 0 
L 37.796875 17.1875 
L 4.890625 17.1875 
L 4.890625 26.703125 
z
" id="DejaVuSans-34"/>
      </defs>
      <g transform="translate(276.543505 322.182437)scale(0.1 -0.1)">
       <use transform="translate(0 0.684375)" xlink:href="#DejaVuSans-31"/>
       <use transform="translate(63.623047 0.684375)" xlink:href="#DejaVuSans-30"/>
       <use transform="translate(128.203125 38.965625)scale(0.7)" xlink:href="#DejaVuSans-34"/>
      </g>
     </g>
    </g>
    <g id="xtick_3">
     <g id="line2d_3">
      <defs>
       <path d="M 0 0 
L 0 2 
" id="m2f416a19df" style="stroke:#000000;stroke-width:0.6;"/>
      </defs>
      <g>
       <use style="stroke:#000000;stroke-width:0.6;" x="80.215913" xlink:href="#m2f416a19df" y="307.584"/>
      </g>
     </g>
    </g>
    <g id="xtick_4">
     <g id="line2d_4">
      <g>
       <use style="stroke:#000000;stroke-width:0.6;" x="97.044819" xlink:href="#m2f416a19df" y="307.584"/>
      </g>
     </g>
    </g>
    <g id="xtick_5">
     <g id="line2d_5">
      <g>
       <use style="stroke:#000000;stroke-width:0.6;" x="110.098332" xlink:href="#m2f416a19df" y="307.584"/>
      </g>
     </g>
    </g>
    <g id="xtick_6">
     <g id="line2d_6">
      <g>
       <use style="stroke:#000000;stroke-width:0.6;" x="120.763828" xlink:href="#m2f416a19df" y="307.584"/>
      </g>
     </g>
    </g>
    <g id="xtick_7">
     <g id="line2d_7">
      <g>
       <use style="stroke:#000000;stroke-width:0.6;" x="129.781377" xlink:href="#m2f416a19df" y="307.584"/>
      </g>
     </g>
    </g>
    <g id="xtick_8">
     <g id="line2d_8">
      <g>
       <use style="stroke:#000000;stroke-width:0.6;" x="137.592734" xlink:href="#m2f416a19df" y="307.584"/>
      </g>
     </g>
    </g>
    <g id="xtick_9">
     <g id="line2d_9">
      <g>
       <use style="stroke:#000000;stroke-width:0.6;" x="144.482838" xlink:href="#m2f416a19df" y="307.584"/>
      </g>
     </g>
    </g>
    <g id="xtick_10">
     <g id="line2d_10">
      <g>
       <use style="stroke:#000000;stroke-width:0.6;" x="191.194162" xlink:href="#m2f416a19df" y="307.584"/>
      </g>
     </g>
    </g>
    <g id="xtick_11">
     <g id="line2d_11">
      <g>
       <use style="stroke:#000000;stroke-width:0.6;" x="214.913171" xlink:href="#m2f416a19df" y="307.584"/>
      </g>
     </g>
    </g>
    <g id="xtick_12">
     <g id="line2d_12">
      <g>
       <use style="stroke:#000000;stroke-width:0.6;" x="231.742077" xlink:href="#m2f416a19df" y="307.584"/>
      </g>
     </g>
    </g>
    <g id="xtick_13">
     <g id="line2d_13">
      <g>
       <use style="stroke:#000000;stroke-width:0.6;" x="244.79559" xlink:href="#m2f416a19df" y="307.584"/>
      </g>
     </g>
    </g>
    <g id="xtick_14">
     <g id="line2d_14">
      <g>
       <use style="stroke:#000000;stroke-width:0.6;" x="255.461086" xlink:href="#m2f416a19df" y="307.584"/>
      </g>
     </g>
    </g>
    <g id="xtick_15">
     <g id="line2d_15">
      <g>
       <use style="stroke:#000000;stroke-width:0.6;" x="264.478635" xlink:href="#m2f416a19df" y="307.584"/>
      </g>
     </g>
    </g>
    <g id="xtick_16">
     <g id="line2d_16">
      <g>
       <use style="stroke:#000000;stroke-width:0.6;" x="272.289992" xlink:href="#m2f416a19df" y="307.584"/>
      </g>
     </g>
    </g>
    <g id="xtick_17">
     <g id="line2d_17">
      <g>
       <use style="stroke:#000000;stroke-width:0.6;" x="279.180096" xlink:href="#m2f416a19df" y="307.584"/>
      </g>
     </g>
    </g>
    <g id="xtick_18">
     <g id="line2d_18">
      <g>
       <use style="stroke:#000000;stroke-width:0.6;" x="325.89142" xlink:href="#m2f416a19df" y="307.584"/>
      </g>
     </g>
    </g>
    <g id="xtick_19">
     <g id="line2d_19">
      <g>
       <use style="stroke:#000000;stroke-width:0.6;" x="349.610429" xlink:href="#m2f416a19df" y="307.584"/>
      </g>
     </g>
    </g>
    <g id="xtick_20">
     <g id="line2d_20">
      <g>
       <use style="stroke:#000000;stroke-width:0.6;" x="366.439335" xlink:href="#m2f416a19df" y="307.584"/>
      </g>
     </g>
    </g>
    <g id="xtick_21">
     <g id="line2d_21">
      <g>
       <use style="stroke:#000000;stroke-width:0.6;" x="379.492848" xlink:href="#m2f416a19df" y="307.584"/>
      </g>
     </g>
    </g>
    <g id="xtick_22">
     <g id="line2d_22">
      <g>
       <use style="stroke:#000000;stroke-width:0.6;" x="390.158344" xlink:href="#m2f416a19df" y="307.584"/>
      </g>
     </g>
    </g>
    <g id="xtick_23">
     <g id="line2d_23">
      <g>
       <use style="stroke:#000000;stroke-width:0.6;" x="399.175893" xlink:href="#m2f416a19df" y="307.584"/>
      </g>
     </g>
    </g>
    <g id="xtick_24">
     <g id="line2d_24">
      <g>
       <use style="stroke:#000000;stroke-width:0.6;" x="406.98725" xlink:href="#m2f416a19df" y="307.584"/>
      </g>
     </g>
    </g>
    <g id="xtick_25">
     <g id="line2d_25">
      <g>
       <use style="stroke:#000000;stroke-width:0.6;" x="413.877354" xlink:href="#m2f416a19df" y="307.584"/>
      </g>
     </g>
    </g>
    <g id="text_3">
     <!-- Execution time (s) -->
     <defs>
      <path d="M 9.8125 72.90625 
L 55.90625 72.90625 
L 55.90625 64.59375 
L 19.671875 64.59375 
L 19.671875 43.015625 
L 54.390625 43.015625 
L 54.390625 34.71875 
L 19.671875 34.71875 
L 19.671875 8.296875 
L 56.78125 8.296875 
L 56.78125 0 
L 9.8125 0 
z
" id="DejaVuSans-45"/>
      <path d="M 54.890625 54.6875 
L 35.109375 28.078125 
L 55.90625 0 
L 45.3125 0 
L 29.390625 21.484375 
L 13.484375 0 
L 2.875 0 
L 24.125 28.609375 
L 4.6875 54.6875 
L 15.28125 54.6875 
L 29.78125 35.203125 
L 44.28125 54.6875 
z
" id="DejaVuSans-78"/>
      <path d="M 56.203125 29.59375 
L 56.203125 25.203125 
L 14.890625 25.203125 
Q 15.484375 15.921875 20.484375 11.0625 
Q 25.484375 6.203125 34.421875 6.203125 
Q 39.59375 6.203125 44.453125 7.46875 
Q 49.3125 8.734375 54.109375 11.28125 
L 54.109375 2.78125 
Q 49.265625 0.734375 44.1875 -0.34375 
Q 39.109375 -1.421875 33.890625 -1.421875 
Q 20.796875 -1.421875 13.15625 6.1875 
Q 5.515625 13.8125 5.515625 26.8125 
Q 5.515625 40.234375 12.765625 48.109375 
Q 20.015625 56 32.328125 56 
Q 43.359375 56 49.78125 48.890625 
Q 56.203125 41.796875 56.203125 29.59375 
z
M 47.21875 32.234375 
Q 47.125 39.59375 43.09375 43.984375 
Q 39.0625 48.390625 32.421875 48.390625 
Q 24.90625 48.390625 20.390625 44.140625 
Q 15.875 39.890625 15.1875 32.171875 
z
" id="DejaVuSans-65"/>
      <path d="M 48.78125 52.59375 
L 48.78125 44.1875 
Q 44.96875 46.296875 41.140625 47.34375 
Q 37.3125 48.390625 33.40625 48.390625 
Q 24.65625 48.390625 19.8125 42.84375 
Q 14.984375 37.3125 14.984375 27.296875 
Q 14.984375 17.28125 19.8125 11.734375 
Q 24.65625 6.203125 33.40625 6.203125 
Q 37.3125 6.203125 41.140625 7.25 
Q 44.96875 8.296875 48.78125 10.40625 
L 48.78125 2.09375 
Q 45.015625 0.34375 40.984375 -0.53125 
Q 36.96875 -1.421875 32.421875 -1.421875 
Q 20.0625 -1.421875 12.78125 6.34375 
Q 5.515625 14.109375 5.515625 27.296875 
Q 5.515625 40.671875 12.859375 48.328125 
Q 20.21875 56 33.015625 56 
Q 37.15625 56 41.109375 55.140625 
Q 45.0625 54.296875 48.78125 52.59375 
z
" id="DejaVuSans-63"/>
      <path d="M 8.5 21.578125 
L 8.5 54.6875 
L 17.484375 54.6875 
L 17.484375 21.921875 
Q 17.484375 14.15625 20.5 10.265625 
Q 23.53125 6.390625 29.59375 6.390625 
Q 36.859375 6.390625 41.078125 11.03125 
Q 45.3125 15.671875 45.3125 23.6875 
L 45.3125 54.6875 
L 54.296875 54.6875 
L 54.296875 0 
L 45.3125 0 
L 45.3125 8.40625 
Q 42.046875 3.421875 37.71875 1 
Q 33.40625 -1.421875 27.6875 -1.421875 
Q 18.265625 -1.421875 13.375 4.4375 
Q 8.5 10.296875 8.5 21.578125 
z
M 31.109375 56 
z
" id="DejaVuSans-75"/>
      <path d="M 18.3125 70.21875 
L 18.3125 54.6875 
L 36.8125 54.6875 
L 36.8125 47.703125 
L 18.3125 47.703125 
L 18.3125 18.015625 
Q 18.3125 11.328125 20.140625 9.421875 
Q 21.96875 7.515625 27.59375 7.515625 
L 36.8125 7.515625 
L 36.8125 0 
L 27.59375 0 
Q 17.1875 0 13.234375 3.875 
Q 9.28125 7.765625 9.28125 18.015625 
L 9.28125 47.703125 
L 2.6875 47.703125 
L 2.6875 54.6875 
L 9.28125 54.6875 
L 9.28125 70.21875 
z
" id="DejaVuSans-74"/>
      <path d="M 9.421875 54.6875 
L 18.40625 54.6875 
L 18.40625 0 
L 9.421875 0 
z
M 9.421875 75.984375 
L 18.40625 75.984375 
L 18.40625 64.59375 
L 9.421875 64.59375 
z
" id="DejaVuSans-69"/>
      <path d="M 30.609375 48.390625 
Q 23.390625 48.390625 19.1875 42.75 
Q 14.984375 37.109375 14.984375 27.296875 
Q 14.984375 17.484375 19.15625 11.84375 
Q 23.34375 6.203125 30.609375 6.203125 
Q 37.796875 6.203125 41.984375 11.859375 
Q 46.1875 17.53125 46.1875 27.296875 
Q 46.1875 37.015625 41.984375 42.703125 
Q 37.796875 48.390625 30.609375 48.390625 
z
M 30.609375 56 
Q 42.328125 56 49.015625 48.375 
Q 55.71875 40.765625 55.71875 27.296875 
Q 55.71875 13.875 49.015625 6.21875 
Q 42.328125 -1.421875 30.609375 -1.421875 
Q 18.84375 -1.421875 12.171875 6.21875 
Q 5.515625 13.875 5.515625 27.296875 
Q 5.515625 40.765625 12.171875 48.375 
Q 18.84375 56 30.609375 56 
z
" id="DejaVuSans-6f"/>
      <path d="M 54.890625 33.015625 
L 54.890625 0 
L 45.90625 0 
L 45.90625 32.71875 
Q 45.90625 40.484375 42.875 44.328125 
Q 39.84375 48.1875 33.796875 48.1875 
Q 26.515625 48.1875 22.3125 43.546875 
Q 18.109375 38.921875 18.109375 30.90625 
L 18.109375 0 
L 9.078125 0 
L 9.078125 54.6875 
L 18.109375 54.6875 
L 18.109375 46.1875 
Q 21.34375 51.125 25.703125 53.5625 
Q 30.078125 56 35.796875 56 
Q 45.21875 56 50.046875 50.171875 
Q 54.890625 44.34375 54.890625 33.015625 
z
" id="DejaVuSans-6e"/>
      <path id="DejaVuSans-20"/>
      <path d="M 52 44.1875 
Q 55.375 50.25 60.0625 53.125 
Q 64.75 56 71.09375 56 
Q 79.640625 56 84.28125 50.015625 
Q 88.921875 44.046875 88.921875 33.015625 
L 88.921875 0 
L 79.890625 0 
L 79.890625 32.71875 
Q 79.890625 40.578125 77.09375 44.375 
Q 74.3125 48.1875 68.609375 48.1875 
Q 61.625 48.1875 57.5625 43.546875 
Q 53.515625 38.921875 53.515625 30.90625 
L 53.515625 0 
L 44.484375 0 
L 44.484375 32.71875 
Q 44.484375 40.625 41.703125 44.40625 
Q 38.921875 48.1875 33.109375 48.1875 
Q 26.21875 48.1875 22.15625 43.53125 
Q 18.109375 38.875 18.109375 30.90625 
L 18.109375 0 
L 9.078125 0 
L 9.078125 54.6875 
L 18.109375 54.6875 
L 18.109375 46.1875 
Q 21.1875 51.21875 25.484375 53.609375 
Q 29.78125 56 35.6875 56 
Q 41.65625 56 45.828125 52.96875 
Q 50 49.953125 52 44.1875 
z
" id="DejaVuSans-6d"/>
      <path d="M 31 75.875 
Q 24.46875 64.65625 21.28125 53.65625 
Q 18.109375 42.671875 18.109375 31.390625 
Q 18.109375 20.125 21.3125 9.0625 
Q 24.515625 -2 31 -13.1875 
L 23.1875 -13.1875 
Q 15.875 -1.703125 12.234375 9.375 
Q 8.59375 20.453125 8.59375 31.390625 
Q 8.59375 42.28125 12.203125 53.3125 
Q 15.828125 64.359375 23.1875 75.875 
z
" id="DejaVuSans-28"/>
      <path d="M 44.28125 53.078125 
L 44.28125 44.578125 
Q 40.484375 46.53125 36.375 47.5 
Q 32.28125 48.484375 27.875 48.484375 
Q 21.1875 48.484375 17.84375 46.4375 
Q 14.5 44.390625 14.5 40.28125 
Q 14.5 37.15625 16.890625 35.375 
Q 19.28125 33.59375 26.515625 31.984375 
L 29.59375 31.296875 
Q 39.15625 29.25 43.1875 25.515625 
Q 47.21875 21.78125 47.21875 15.09375 
Q 47.21875 7.46875 41.1875 3.015625 
Q 35.15625 -1.421875 24.609375 -1.421875 
Q 20.21875 -1.421875 15.453125 -0.5625 
Q 10.6875 0.296875 5.421875 2 
L 5.421875 11.28125 
Q 10.40625 8.6875 15.234375 7.390625 
Q 20.0625 6.109375 24.8125 6.109375 
Q 31.15625 6.109375 34.5625 8.28125 
Q 37.984375 10.453125 37.984375 14.40625 
Q 37.984375 18.0625 35.515625 20.015625 
Q 33.0625 21.96875 24.703125 23.78125 
L 21.578125 24.515625 
Q 13.234375 26.265625 9.515625 29.90625 
Q 5.8125 33.546875 5.8125 39.890625 
Q 5.8125 47.609375 11.28125 51.796875 
Q 16.75 56 26.8125 56 
Q 31.78125 56 36.171875 55.265625 
Q 40.578125 54.546875 44.28125 53.078125 
z
" id="DejaVuSans-73"/>
      <path d="M 8.015625 75.875 
L 15.828125 75.875 
Q 23.140625 64.359375 26.78125 53.3125 
Q 30.421875 42.28125 30.421875 31.390625 
Q 30.421875 20.453125 26.78125 9.375 
Q 23.140625 -1.703125 15.828125 -13.1875 
L 8.015625 -13.1875 
Q 14.5 -2 17.703125 9.0625 
Q 20.90625 20.125 20.90625 31.390625 
Q 20.90625 42.671875 17.703125 53.65625 
Q 14.5 64.65625 8.015625 75.875 
z
" id="DejaVuSans-29"/>
     </defs>
     <g transform="translate(190.49125 335.860562)scale(0.1 -0.1)">
      <use xlink:href="#DejaVuSans-45"/>
      <use x="63.183594" xlink:href="#DejaVuSans-78"/>
      <use x="122.316406" xlink:href="#DejaVuSans-65"/>
      <use x="183.839844" xlink:href="#DejaVuSans-63"/>
      <use x="238.820312" xlink:href="#DejaVuSans-75"/>
      <use x="302.199219" xlink:href="#DejaVuSans-74"/>
      <use x="341.408203" xlink:href="#DejaVuSans-69"/>
      <use x="369.191406" xlink:href="#DejaVuSans-6f"/>
      <use x="430.373047" xlink:href="#DejaVuSans-6e"/>
      <use x="493.751953" xlink:href="#DejaVuSans-20"/>
      <use x="525.539062" xlink:href="#DejaVuSans-74"/>
      <use x="564.748047" xlink:href="#DejaVuSans-69"/>
      <use x="592.53125" xlink:href="#DejaVuSans-6d"/>
      <use x="689.943359" xlink:href="#DejaVuSans-65"/>
      <use x="751.466797" xlink:href="#DejaVuSans-20"/>
      <use x="783.253906" xlink:href="#DejaVuSans-28"/>
      <use x="822.267578" xlink:href="#DejaVuSans-73"/>
      <use x="874.367188" xlink:href="#DejaVuSans-29"/>
     </g>
    </g>
   </g>
   <g id="matplotlib.axis_2">
    <g id="ytick_1">
     <g id="line2d_26">
      <defs>
       <path d="M 0 0 
L -3.5 0 
" id="mebc4f22e6a" style="stroke:#000000;stroke-width:0.8;"/>
      </defs>
      <g>
       <use style="stroke:#000000;stroke-width:0.8;" x="57.6" xlink:href="#mebc4f22e6a" y="295.488"/>
      </g>
     </g>
     <g id="text_4">
      <!-- 0 -->
      <g transform="translate(44.2375 299.287219)scale(0.1 -0.1)">
       <use xlink:href="#DejaVuSans-30"/>
      </g>
     </g>
    </g>
    <g id="ytick_2">
     <g id="line2d_27">
      <g>
       <use style="stroke:#000000;stroke-width:0.8;" x="57.6" xlink:href="#mebc4f22e6a" y="260.162862"/>
      </g>
     </g>
     <g id="text_5">
      <!-- 1000 -->
      <g transform="translate(25.15 263.962081)scale(0.1 -0.1)">
       <use xlink:href="#DejaVuSans-31"/>
       <use x="63.623047" xlink:href="#DejaVuSans-30"/>
       <use x="127.246094" xlink:href="#DejaVuSans-30"/>
       <use x="190.869141" xlink:href="#DejaVuSans-30"/>
      </g>
     </g>
    </g>
    <g id="ytick_3">
     <g id="line2d_28">
      <g>
       <use style="stroke:#000000;stroke-width:0.8;" x="57.6" xlink:href="#mebc4f22e6a" y="224.837724"/>
      </g>
     </g>
     <g id="text_6">
      <!-- 2000 -->
      <defs>
       <path d="M 19.1875 8.296875 
L 53.609375 8.296875 
L 53.609375 0 
L 7.328125 0 
L 7.328125 8.296875 
Q 12.9375 14.109375 22.625 23.890625 
Q 32.328125 33.6875 34.8125 36.53125 
Q 39.546875 41.84375 41.421875 45.53125 
Q 43.3125 49.21875 43.3125 52.78125 
Q 43.3125 58.59375 39.234375 62.25 
Q 35.15625 65.921875 28.609375 65.921875 
Q 23.96875 65.921875 18.8125 64.3125 
Q 13.671875 62.703125 7.8125 59.421875 
L 7.8125 69.390625 
Q 13.765625 71.78125 18.9375 73 
Q 24.125 74.21875 28.421875 74.21875 
Q 39.75 74.21875 46.484375 68.546875 
Q 53.21875 62.890625 53.21875 53.421875 
Q 53.21875 48.921875 51.53125 44.890625 
Q 49.859375 40.875 45.40625 35.40625 
Q 44.1875 33.984375 37.640625 27.21875 
Q 31.109375 20.453125 19.1875 8.296875 
z
" id="DejaVuSans-32"/>
      </defs>
      <g transform="translate(25.15 228.636943)scale(0.1 -0.1)">
       <use xlink:href="#DejaVuSans-32"/>
       <use x="63.623047" xlink:href="#DejaVuSans-30"/>
       <use x="127.246094" xlink:href="#DejaVuSans-30"/>
       <use x="190.869141" xlink:href="#DejaVuSans-30"/>
      </g>
     </g>
    </g>
    <g id="ytick_4">
     <g id="line2d_29">
      <g>
       <use style="stroke:#000000;stroke-width:0.8;" x="57.6" xlink:href="#mebc4f22e6a" y="189.512587"/>
      </g>
     </g>
     <g id="text_7">
      <!-- 3000 -->
      <g transform="translate(25.15 193.311805)scale(0.1 -0.1)">
       <use xlink:href="#DejaVuSans-33"/>
       <use x="63.623047" xlink:href="#DejaVuSans-30"/>
       <use x="127.246094" xlink:href="#DejaVuSans-30"/>
       <use x="190.869141" xlink:href="#DejaVuSans-30"/>
      </g>
     </g>
    </g>
    <g id="ytick_5">
     <g id="line2d_30">
      <g>
       <use style="stroke:#000000;stroke-width:0.8;" x="57.6" xlink:href="#mebc4f22e6a" y="154.187449"/>
      </g>
     </g>
     <g id="text_8">
      <!-- 4000 -->
      <g transform="translate(25.15 157.986668)scale(0.1 -0.1)">
       <use xlink:href="#DejaVuSans-34"/>
       <use x="63.623047" xlink:href="#DejaVuSans-30"/>
       <use x="127.246094" xlink:href="#DejaVuSans-30"/>
       <use x="190.869141" xlink:href="#DejaVuSans-30"/>
      </g>
     </g>
    </g>
    <g id="ytick_6">
     <g id="line2d_31">
      <g>
       <use style="stroke:#000000;stroke-width:0.8;" x="57.6" xlink:href="#mebc4f22e6a" y="118.862311"/>
      </g>
     </g>
     <g id="text_9">
      <!-- 5000 -->
      <defs>
       <path d="M 10.796875 72.90625 
L 49.515625 72.90625 
L 49.515625 64.59375 
L 19.828125 64.59375 
L 19.828125 46.734375 
Q 21.96875 47.46875 24.109375 47.828125 
Q 26.265625 48.1875 28.421875 48.1875 
Q 40.625 48.1875 47.75 41.5 
Q 54.890625 34.8125 54.890625 23.390625 
Q 54.890625 11.625 47.5625 5.09375 
Q 40.234375 -1.421875 26.90625 -1.421875 
Q 22.3125 -1.421875 17.546875 -0.640625 
Q 12.796875 0.140625 7.71875 1.703125 
L 7.71875 11.625 
Q 12.109375 9.234375 16.796875 8.0625 
Q 21.484375 6.890625 26.703125 6.890625 
Q 35.15625 6.890625 40.078125 11.328125 
Q 45.015625 15.765625 45.015625 23.390625 
Q 45.015625 31 40.078125 35.4375 
Q 35.15625 39.890625 26.703125 39.890625 
Q 22.75 39.890625 18.8125 39.015625 
Q 14.890625 38.140625 10.796875 36.28125 
z
" id="DejaVuSans-35"/>
      </defs>
      <g transform="translate(25.15 122.66153)scale(0.1 -0.1)">
       <use xlink:href="#DejaVuSans-35"/>
       <use x="63.623047" xlink:href="#DejaVuSans-30"/>
       <use x="127.246094" xlink:href="#DejaVuSans-30"/>
       <use x="190.869141" xlink:href="#DejaVuSans-30"/>
      </g>
     </g>
    </g>
    <g id="ytick_7">
     <g id="line2d_32">
      <g>
       <use style="stroke:#000000;stroke-width:0.8;" x="57.6" xlink:href="#mebc4f22e6a" y="83.537173"/>
      </g>
     </g>
     <g id="text_10">
      <!-- 6000 -->
      <defs>
       <path d="M 33.015625 40.375 
Q 26.375 40.375 22.484375 35.828125 
Q 18.609375 31.296875 18.609375 23.390625 
Q 18.609375 15.53125 22.484375 10.953125 
Q 26.375 6.390625 33.015625 6.390625 
Q 39.65625 6.390625 43.53125 10.953125 
Q 47.40625 15.53125 47.40625 23.390625 
Q 47.40625 31.296875 43.53125 35.828125 
Q 39.65625 40.375 33.015625 40.375 
z
M 52.59375 71.296875 
L 52.59375 62.3125 
Q 48.875 64.0625 45.09375 64.984375 
Q 41.3125 65.921875 37.59375 65.921875 
Q 27.828125 65.921875 22.671875 59.328125 
Q 17.53125 52.734375 16.796875 39.40625 
Q 19.671875 43.65625 24.015625 45.921875 
Q 28.375 48.1875 33.59375 48.1875 
Q 44.578125 48.1875 50.953125 41.515625 
Q 57.328125 34.859375 57.328125 23.390625 
Q 57.328125 12.15625 50.6875 5.359375 
Q 44.046875 -1.421875 33.015625 -1.421875 
Q 20.359375 -1.421875 13.671875 8.265625 
Q 6.984375 17.96875 6.984375 36.375 
Q 6.984375 53.65625 15.1875 63.9375 
Q 23.390625 74.21875 37.203125 74.21875 
Q 40.921875 74.21875 44.703125 73.484375 
Q 48.484375 72.75 52.59375 71.296875 
z
" id="DejaVuSans-36"/>
      </defs>
      <g transform="translate(25.15 87.336392)scale(0.1 -0.1)">
       <use xlink:href="#DejaVuSans-36"/>
       <use x="63.623047" xlink:href="#DejaVuSans-30"/>
       <use x="127.246094" xlink:href="#DejaVuSans-30"/>
       <use x="190.869141" xlink:href="#DejaVuSans-30"/>
      </g>
     </g>
    </g>
    <g id="ytick_8">
     <g id="line2d_33">
      <g>
       <use style="stroke:#000000;stroke-width:0.8;" x="57.6" xlink:href="#mebc4f22e6a" y="48.212035"/>
      </g>
     </g>
     <g id="text_11">
      <!-- 7000 -->
      <defs>
       <path d="M 8.203125 72.90625 
L 55.078125 72.90625 
L 55.078125 68.703125 
L 28.609375 0 
L 18.3125 0 
L 43.21875 64.59375 
L 8.203125 64.59375 
z
" id="DejaVuSans-37"/>
      </defs>
      <g transform="translate(25.15 52.011254)scale(0.1 -0.1)">
       <use xlink:href="#DejaVuSans-37"/>
       <use x="63.623047" xlink:href="#DejaVuSans-30"/>
       <use x="127.246094" xlink:href="#DejaVuSans-30"/>
       <use x="190.869141" xlink:href="#DejaVuSans-30"/>
      </g>
     </g>
    </g>
    <g id="text_12">
     <!-- Memory (MB) -->
     <defs>
      <path d="M 9.8125 72.90625 
L 24.515625 72.90625 
L 43.109375 23.296875 
L 61.8125 72.90625 
L 76.515625 72.90625 
L 76.515625 0 
L 66.890625 0 
L 66.890625 64.015625 
L 48.09375 14.015625 
L 38.1875 14.015625 
L 19.390625 64.015625 
L 19.390625 0 
L 9.8125 0 
z
" id="DejaVuSans-4d"/>
      <path d="M 41.109375 46.296875 
Q 39.59375 47.171875 37.8125 47.578125 
Q 36.03125 48 33.890625 48 
Q 26.265625 48 22.1875 43.046875 
Q 18.109375 38.09375 18.109375 28.8125 
L 18.109375 0 
L 9.078125 0 
L 9.078125 54.6875 
L 18.109375 54.6875 
L 18.109375 46.1875 
Q 20.953125 51.171875 25.484375 53.578125 
Q 30.03125 56 36.53125 56 
Q 37.453125 56 38.578125 55.875 
Q 39.703125 55.765625 41.0625 55.515625 
z
" id="DejaVuSans-72"/>
      <path d="M 32.171875 -5.078125 
Q 28.375 -14.84375 24.75 -17.8125 
Q 21.140625 -20.796875 15.09375 -20.796875 
L 7.90625 -20.796875 
L 7.90625 -13.28125 
L 13.1875 -13.28125 
Q 16.890625 -13.28125 18.9375 -11.515625 
Q 21 -9.765625 23.484375 -3.21875 
L 25.09375 0.875 
L 2.984375 54.6875 
L 12.5 54.6875 
L 29.59375 11.921875 
L 46.6875 54.6875 
L 56.203125 54.6875 
z
" id="DejaVuSans-79"/>
      <path d="M 19.671875 34.8125 
L 19.671875 8.109375 
L 35.5 8.109375 
Q 43.453125 8.109375 47.28125 11.40625 
Q 51.125 14.703125 51.125 21.484375 
Q 51.125 28.328125 47.28125 31.5625 
Q 43.453125 34.8125 35.5 34.8125 
z
M 19.671875 64.796875 
L 19.671875 42.828125 
L 34.28125 42.828125 
Q 41.5 42.828125 45.03125 45.53125 
Q 48.578125 48.25 48.578125 53.8125 
Q 48.578125 59.328125 45.03125 62.0625 
Q 41.5 64.796875 34.28125 64.796875 
z
M 9.8125 72.90625 
L 35.015625 72.90625 
Q 46.296875 72.90625 52.390625 68.21875 
Q 58.5 63.53125 58.5 54.890625 
Q 58.5 48.1875 55.375 44.234375 
Q 52.25 40.28125 46.1875 39.3125 
Q 53.46875 37.75 57.5 32.78125 
Q 61.53125 27.828125 61.53125 20.40625 
Q 61.53125 10.640625 54.890625 5.3125 
Q 48.25 0 35.984375 0 
L 9.8125 0 
z
" id="DejaVuSans-42"/>
     </defs>
     <g transform="translate(19.070312 208.098312)rotate(-90)scale(0.1 -0.1)">
      <use xlink:href="#DejaVuSans-4d"/>
      <use x="86.279297" xlink:href="#DejaVuSans-65"/>
      <use x="147.802734" xlink:href="#DejaVuSans-6d"/>
      <use x="245.214844" xlink:href="#DejaVuSans-6f"/>
      <use x="306.396484" xlink:href="#DejaVuSans-72"/>
      <use x="347.509766" xlink:href="#DejaVuSans-79"/>
      <use x="406.689453" xlink:href="#DejaVuSans-20"/>
      <use x="438.476562" xlink:href="#DejaVuSans-28"/>
      <use x="477.490234" xlink:href="#DejaVuSans-4d"/>
      <use x="563.769531" xlink:href="#DejaVuSans-42"/>
      <use x="632.373047" xlink:href="#DejaVuSans-29"/>
     </g>
    </g>
   </g>
   <g id="line2d_34">
    <path clip-path="url(#p6bfc48974e)" d="M 73.832727 267.809912 
L 95.588114 266.319443 
L 103.402214 265.049628 
L 115.764469 264.666339 
L 127.080714 264.346136 
L 132.741155 263.11669 
L 140.035967 263.064891 
L 147.363024 262.319728 
L 151.275718 261.525804 
L 158.159399 261.116471 
L 163.146473 260.045752 
L 168.239092 259.278307 
L 172.443453 258.198038 
L 174.957612 258.067526 
L 179.053983 257.620718 
L 183.160913 256.948914 
L 187.045543 254.939725 
L 192.088678 253.275046 
L 195.917827 252.998974 
L 200.471257 251.001359 
L 204.023259 250.608232 
L 207.339513 249.75238 
L 211.558527 248.406168 
L 215.787927 248.122717 
L 220.592675 246.115842 
L 226.375625 244.05847 
L 229.563258 242.693158 
L 234.231164 242.460205 
L 235.480265 242.214373 
L 238.033589 241.911533 
L 240.552138 241.236402 
L 241.572162 240.592089 
L 243.84747 239.991763 
L 246.026767 237.25188 
L 249.464533 235.528167 
L 253.266377 234.251551 
L 258.914627 229.707073 
L 261.979541 228.780466 
L 264.691846 228.608573 
L 267.763264 227.573592 
L 271.144986 225.963173 
L 271.291627 225.731811 
L 274.137913 224.441016 
L 276.564043 223.833889 
L 278.616575 222.742624 
L 280.378087 222.130144 
L 282.410195 221.306703 
L 284.484859 219.685721 
L 286.429273 218.281921 
L 290.793163 210.204504 
L 293.315198 209.958817 
L 295.319802 209.477717 
L 297.280703 209.179941 
L 299.865849 207.825048 
L 301.109694 205.435608 
L 304.939966 199.560833 
L 307.143065 197.964738 
L 308.508163 197.512866 
L 310.201895 197.162711 
L 310.923686 196.938584 
L 312.091134 196.526936 
L 313.190113 196.213244 
L 314.648527 195.217041 
L 317.893928 187.873934 
L 319.786781 187.079287 
L 321.248661 186.365233 
L 322.618018 185.987877 
L 323.110055 185.420541 
L 323.464741 184.644848 
L 324.700962 184.274582 
L 326.506947 182.09755 
L 328.521299 177.463796 
L 330.610163 175.912266 
L 331.920313 175.763089 
L 333.002446 175.450555 
L 335.380512 166.860639 
L 337.092904 163.114714 
L 338.299906 163.016034 
L 340.03689 162.579499 
L 341.405139 160.829018 
L 342.777068 160.216972 
L 345.888928 150.423076 
L 347.508397 148.544542 
L 348.850742 147.966788 
L 349.440615 147.441846 
L 350.793579 147.09994 
L 351.486337 146.139186 
L 351.74869 145.708584 
L 352.857154 145.303013 
L 354.466287 141.772244 
L 355.921352 138.181718 
L 359.842783 119.793855 
L 361.738125 117.886962 
L 363.495992 117.576309 
L 365.392058 117.2072 
L 366.233316 116.701647 
L 368.183291 116.145886 
L 370.699656 111.68909 
L 372.01101 108.419346 
L 372.826433 107.984547 
L 374.060159 107.604876 
L 374.835644 106.959695 
L 375.643742 106.72761 
L 376.383943 106.447342 
L 377.497256 105.713754 
L 377.98028 101.749634 
L 379.076321 98.409425 
L 380.065441 97.68423 
L 380.959655 97.184898 
L 382.30753 90.494062 
L 383.080833 90.080822 
L 383.659843 86.667688 
L 385.821538 74.060405 
L 387.164925 72.859029 
L 389.842327 65.867234 
L 391.234095 65.764358 
L 392.608572 65.31972 
L 393.633345 63.565333 
L 394.707318 62.581429 
L 394.798093 62.24039 
L 396.293012 58.768222 
L 396.972463 55.393721 
L 397.238784 54.598929 
L 397.760594 53.855068 
L 398.487273 53.568 
" style="fill:none;stroke:#000000;stroke-linecap:square;stroke-width:1.5;"/>
    <defs>
     <path d="M 0 3 
C 0.795609 3 1.55874 2.683901 2.12132 2.12132 
C 2.683901 1.55874 3 0.795609 3 0 
C 3 -0.795609 2.683901 -1.55874 2.12132 -2.12132 
C 1.55874 -2.683901 0.795609 -3 0 -3 
C -0.795609 -3 -1.55874 -2.683901 -2.12132 -2.12132 
C -2.683901 -1.55874 -3 -0.795609 -3 0 
C -3 0.795609 -2.683901 1.55874 -2.12132 2.12132 
C -1.55874 2.683901 -0.795609 3 0 3 
z
" id="m871d9ee4a2" style="stroke:#000000;"/>
    </defs>
    <g clip-path="url(#p6bfc48974e)">
     <use style="stroke:#000000;" x="73.832727" xlink:href="#m871d9ee4a2" y="267.809912"/>
     <use style="stroke:#000000;" x="95.588114" xlink:href="#m871d9ee4a2" y="266.319443"/>
     <use style="stroke:#000000;" x="103.402214" xlink:href="#m871d9ee4a2" y="265.049628"/>
     <use style="stroke:#000000;" x="115.764469" xlink:href="#m871d9ee4a2" y="264.666339"/>
     <use style="stroke:#000000;" x="127.080714" xlink:href="#m871d9ee4a2" y="264.346136"/>
     <use style="stroke:#000000;" x="132.741155" xlink:href="#m871d9ee4a2" y="263.11669"/>
     <use style="stroke:#000000;" x="140.035967" xlink:href="#m871d9ee4a2" y="263.064891"/>
     <use style="stroke:#000000;" x="147.363024" xlink:href="#m871d9ee4a2" y="262.319728"/>
     <use style="stroke:#000000;" x="151.275718" xlink:href="#m871d9ee4a2" y="261.525804"/>
     <use style="stroke:#000000;" x="158.159399" xlink:href="#m871d9ee4a2" y="261.116471"/>
     <use style="stroke:#000000;" x="163.146473" xlink:href="#m871d9ee4a2" y="260.045752"/>
     <use style="stroke:#000000;" x="168.239092" xlink:href="#m871d9ee4a2" y="259.278307"/>
     <use style="stroke:#000000;" x="172.443453" xlink:href="#m871d9ee4a2" y="258.198038"/>
     <use style="stroke:#000000;" x="174.957612" xlink:href="#m871d9ee4a2" y="258.067526"/>
     <use style="stroke:#000000;" x="179.053983" xlink:href="#m871d9ee4a2" y="257.620718"/>
     <use style="stroke:#000000;" x="183.160913" xlink:href="#m871d9ee4a2" y="256.948914"/>
     <use style="stroke:#000000;" x="187.045543" xlink:href="#m871d9ee4a2" y="254.939725"/>
     <use style="stroke:#000000;" x="192.088678" xlink:href="#m871d9ee4a2" y="253.275046"/>
     <use style="stroke:#000000;" x="195.917827" xlink:href="#m871d9ee4a2" y="252.998974"/>
     <use style="stroke:#000000;" x="200.471257" xlink:href="#m871d9ee4a2" y="251.001359"/>
     <use style="stroke:#000000;" x="204.023259" xlink:href="#m871d9ee4a2" y="250.608232"/>
     <use style="stroke:#000000;" x="207.339513" xlink:href="#m871d9ee4a2" y="249.75238"/>
     <use style="stroke:#000000;" x="211.558527" xlink:href="#m871d9ee4a2" y="248.406168"/>
     <use style="stroke:#000000;" x="215.787927" xlink:href="#m871d9ee4a2" y="248.122717"/>
     <use style="stroke:#000000;" x="220.592675" xlink:href="#m871d9ee4a2" y="246.115842"/>
     <use style="stroke:#000000;" x="226.375625" xlink:href="#m871d9ee4a2" y="244.05847"/>
     <use style="stroke:#000000;" x="229.563258" xlink:href="#m871d9ee4a2" y="242.693158"/>
     <use style="stroke:#000000;" x="234.231164" xlink:href="#m871d9ee4a2" y="242.460205"/>
     <use style="stroke:#000000;" x="235.480265" xlink:href="#m871d9ee4a2" y="242.214373"/>
     <use style="stroke:#000000;" x="238.033589" xlink:href="#m871d9ee4a2" y="241.911533"/>
     <use style="stroke:#000000;" x="240.552138" xlink:href="#m871d9ee4a2" y="241.236402"/>
     <use style="stroke:#000000;" x="241.572162" xlink:href="#m871d9ee4a2" y="240.592089"/>
     <use style="stroke:#000000;" x="243.84747" xlink:href="#m871d9ee4a2" y="239.991763"/>
     <use style="stroke:#000000;" x="246.026767" xlink:href="#m871d9ee4a2" y="237.25188"/>
     <use style="stroke:#000000;" x="249.464533" xlink:href="#m871d9ee4a2" y="235.528167"/>
     <use style="stroke:#000000;" x="253.266377" xlink:href="#m871d9ee4a2" y="234.251551"/>
     <use style="stroke:#000000;" x="258.914627" xlink:href="#m871d9ee4a2" y="229.707073"/>
     <use style="stroke:#000000;" x="261.979541" xlink:href="#m871d9ee4a2" y="228.780466"/>
     <use style="stroke:#000000;" x="264.691846" xlink:href="#m871d9ee4a2" y="228.608573"/>
     <use style="stroke:#000000;" x="267.763264" xlink:href="#m871d9ee4a2" y="227.573592"/>
     <use style="stroke:#000000;" x="271.144986" xlink:href="#m871d9ee4a2" y="225.963173"/>
     <use style="stroke:#000000;" x="271.291627" xlink:href="#m871d9ee4a2" y="225.731811"/>
     <use style="stroke:#000000;" x="274.137913" xlink:href="#m871d9ee4a2" y="224.441016"/>
     <use style="stroke:#000000;" x="276.564043" xlink:href="#m871d9ee4a2" y="223.833889"/>
     <use style="stroke:#000000;" x="278.616575" xlink:href="#m871d9ee4a2" y="222.742624"/>
     <use style="stroke:#000000;" x="280.378087" xlink:href="#m871d9ee4a2" y="222.130144"/>
     <use style="stroke:#000000;" x="282.410195" xlink:href="#m871d9ee4a2" y="221.306703"/>
     <use style="stroke:#000000;" x="284.484859" xlink:href="#m871d9ee4a2" y="219.685721"/>
     <use style="stroke:#000000;" x="286.429273" xlink:href="#m871d9ee4a2" y="218.281921"/>
     <use style="stroke:#000000;" x="290.793163" xlink:href="#m871d9ee4a2" y="210.204504"/>
     <use style="stroke:#000000;" x="293.315198" xlink:href="#m871d9ee4a2" y="209.958817"/>
     <use style="stroke:#000000;" x="295.319802" xlink:href="#m871d9ee4a2" y="209.477717"/>
     <use style="stroke:#000000;" x="297.280703" xlink:href="#m871d9ee4a2" y="209.179941"/>
     <use style="stroke:#000000;" x="299.865849" xlink:href="#m871d9ee4a2" y="207.825048"/>
     <use style="stroke:#000000;" x="301.109694" xlink:href="#m871d9ee4a2" y="205.435608"/>
     <use style="stroke:#000000;" x="304.939966" xlink:href="#m871d9ee4a2" y="199.560833"/>
     <use style="stroke:#000000;" x="307.143065" xlink:href="#m871d9ee4a2" y="197.964738"/>
     <use style="stroke:#000000;" x="308.508163" xlink:href="#m871d9ee4a2" y="197.512866"/>
     <use style="stroke:#000000;" x="310.201895" xlink:href="#m871d9ee4a2" y="197.162711"/>
     <use style="stroke:#000000;" x="310.923686" xlink:href="#m871d9ee4a2" y="196.938584"/>
     <use style="stroke:#000000;" x="312.091134" xlink:href="#m871d9ee4a2" y="196.526936"/>
     <use style="stroke:#000000;" x="313.190113" xlink:href="#m871d9ee4a2" y="196.213244"/>
     <use style="stroke:#000000;" x="314.648527" xlink:href="#m871d9ee4a2" y="195.217041"/>
     <use style="stroke:#000000;" x="317.893928" xlink:href="#m871d9ee4a2" y="187.873934"/>
     <use style="stroke:#000000;" x="319.786781" xlink:href="#m871d9ee4a2" y="187.079287"/>
     <use style="stroke:#000000;" x="321.248661" xlink:href="#m871d9ee4a2" y="186.365233"/>
     <use style="stroke:#000000;" x="322.618018" xlink:href="#m871d9ee4a2" y="185.987877"/>
     <use style="stroke:#000000;" x="323.110055" xlink:href="#m871d9ee4a2" y="185.420541"/>
     <use style="stroke:#000000;" x="323.464741" xlink:href="#m871d9ee4a2" y="184.644848"/>
     <use style="stroke:#000000;" x="324.700962" xlink:href="#m871d9ee4a2" y="184.274582"/>
     <use style="stroke:#000000;" x="326.506947" xlink:href="#m871d9ee4a2" y="182.09755"/>
     <use style="stroke:#000000;" x="328.521299" xlink:href="#m871d9ee4a2" y="177.463796"/>
     <use style="stroke:#000000;" x="330.610163" xlink:href="#m871d9ee4a2" y="175.912266"/>
     <use style="stroke:#000000;" x="331.920313" xlink:href="#m871d9ee4a2" y="175.763089"/>
     <use style="stroke:#000000;" x="333.002446" xlink:href="#m871d9ee4a2" y="175.450555"/>
     <use style="stroke:#000000;" x="335.380512" xlink:href="#m871d9ee4a2" y="166.860639"/>
     <use style="stroke:#000000;" x="337.092904" xlink:href="#m871d9ee4a2" y="163.114714"/>
     <use style="stroke:#000000;" x="338.299906" xlink:href="#m871d9ee4a2" y="163.016034"/>
     <use style="stroke:#000000;" x="340.03689" xlink:href="#m871d9ee4a2" y="162.579499"/>
     <use style="stroke:#000000;" x="341.405139" xlink:href="#m871d9ee4a2" y="160.829018"/>
     <use style="stroke:#000000;" x="342.777068" xlink:href="#m871d9ee4a2" y="160.216972"/>
     <use style="stroke:#000000;" x="345.888928" xlink:href="#m871d9ee4a2" y="150.423076"/>
     <use style="stroke:#000000;" x="347.508397" xlink:href="#m871d9ee4a2" y="148.544542"/>
     <use style="stroke:#000000;" x="348.850742" xlink:href="#m871d9ee4a2" y="147.966788"/>
     <use style="stroke:#000000;" x="349.440615" xlink:href="#m871d9ee4a2" y="147.441846"/>
     <use style="stroke:#000000;" x="350.793579" xlink:href="#m871d9ee4a2" y="147.09994"/>
     <use style="stroke:#000000;" x="351.486337" xlink:href="#m871d9ee4a2" y="146.139186"/>
     <use style="stroke:#000000;" x="351.74869" xlink:href="#m871d9ee4a2" y="145.708584"/>
     <use style="stroke:#000000;" x="352.857154" xlink:href="#m871d9ee4a2" y="145.303013"/>
     <use style="stroke:#000000;" x="354.466287" xlink:href="#m871d9ee4a2" y="141.772244"/>
     <use style="stroke:#000000;" x="355.921352" xlink:href="#m871d9ee4a2" y="138.181718"/>
     <use style="stroke:#000000;" x="359.842783" xlink:href="#m871d9ee4a2" y="119.793855"/>
     <use style="stroke:#000000;" x="361.738125" xlink:href="#m871d9ee4a2" y="117.886962"/>
     <use style="stroke:#000000;" x="363.495992" xlink:href="#m871d9ee4a2" y="117.576309"/>
     <use style="stroke:#000000;" x="365.392058" xlink:href="#m871d9ee4a2" y="117.2072"/>
     <use style="stroke:#000000;" x="366.233316" xlink:href="#m871d9ee4a2" y="116.701647"/>
     <use style="stroke:#000000;" x="368.183291" xlink:href="#m871d9ee4a2" y="116.145886"/>
     <use style="stroke:#000000;" x="370.699656" xlink:href="#m871d9ee4a2" y="111.68909"/>
     <use style="stroke:#000000;" x="372.01101" xlink:href="#m871d9ee4a2" y="108.419346"/>
     <use style="stroke:#000000;" x="372.826433" xlink:href="#m871d9ee4a2" y="107.984547"/>
     <use style="stroke:#000000;" x="374.060159" xlink:href="#m871d9ee4a2" y="107.604876"/>
     <use style="stroke:#000000;" x="374.835644" xlink:href="#m871d9ee4a2" y="106.959695"/>
     <use style="stroke:#000000;" x="375.643742" xlink:href="#m871d9ee4a2" y="106.72761"/>
     <use style="stroke:#000000;" x="376.383943" xlink:href="#m871d9ee4a2" y="106.447342"/>
     <use style="stroke:#000000;" x="377.497256" xlink:href="#m871d9ee4a2" y="105.713754"/>
     <use style="stroke:#000000;" x="377.98028" xlink:href="#m871d9ee4a2" y="101.749634"/>
     <use style="stroke:#000000;" x="379.076321" xlink:href="#m871d9ee4a2" y="98.409425"/>
     <use style="stroke:#000000;" x="380.065441" xlink:href="#m871d9ee4a2" y="97.68423"/>
     <use style="stroke:#000000;" x="380.959655" xlink:href="#m871d9ee4a2" y="97.184898"/>
     <use style="stroke:#000000;" x="382.30753" xlink:href="#m871d9ee4a2" y="90.494062"/>
     <use style="stroke:#000000;" x="383.080833" xlink:href="#m871d9ee4a2" y="90.080822"/>
     <use style="stroke:#000000;" x="383.659843" xlink:href="#m871d9ee4a2" y="86.667688"/>
     <use style="stroke:#000000;" x="385.821538" xlink:href="#m871d9ee4a2" y="74.060405"/>
     <use style="stroke:#000000;" x="387.164925" xlink:href="#m871d9ee4a2" y="72.859029"/>
     <use style="stroke:#000000;" x="389.842327" xlink:href="#m871d9ee4a2" y="65.867234"/>
     <use style="stroke:#000000;" x="391.234095" xlink:href="#m871d9ee4a2" y="65.764358"/>
     <use style="stroke:#000000;" x="392.608572" xlink:href="#m871d9ee4a2" y="65.31972"/>
     <use style="stroke:#000000;" x="393.633345" xlink:href="#m871d9ee4a2" y="63.565333"/>
     <use style="stroke:#000000;" x="394.707318" xlink:href="#m871d9ee4a2" y="62.581429"/>
     <use style="stroke:#000000;" x="394.798093" xlink:href="#m871d9ee4a2" y="62.24039"/>
     <use style="stroke:#000000;" x="396.293012" xlink:href="#m871d9ee4a2" y="58.768222"/>
     <use style="stroke:#000000;" x="396.972463" xlink:href="#m871d9ee4a2" y="55.393721"/>
     <use style="stroke:#000000;" x="397.238784" xlink:href="#m871d9ee4a2" y="54.598929"/>
     <use style="stroke:#000000;" x="397.760594" xlink:href="#m871d9ee4a2" y="53.855068"/>
     <use style="stroke:#000000;" x="398.487273" xlink:href="#m871d9ee4a2" y="53.568"/>
    </g>
   </g>
   <g id="line2d_35">
    <path clip-path="url(#p6bfc48974e)" d="M 73.832727 295.488 
L 95.588114 295.488 
L 103.402214 295.488 
L 115.764469 295.488 
L 127.080714 295.488 
L 132.741155 295.488 
L 140.035967 295.488 
L 147.363024 295.488 
L 151.275718 295.488 
L 158.159399 295.488 
L 163.146473 295.488 
L 168.239092 295.488 
L 172.443453 295.488 
L 174.957612 295.488 
L 179.053983 295.488 
L 183.160913 295.488 
L 187.045543 295.488 
L 192.088678 295.488 
L 195.917827 295.488 
L 200.471257 295.488 
L 204.023259 295.488 
L 207.339513 295.488 
L 211.558527 295.488 
L 215.787927 295.488 
L 220.592675 295.488 
L 226.375625 295.488 
L 229.563258 295.488 
L 234.231164 295.488 
L 235.480265 295.488 
L 238.033589 295.488 
L 240.552138 295.488 
L 241.572162 295.488 
L 243.84747 295.488 
L 246.026767 295.488 
L 249.464533 295.488 
L 253.266377 295.488 
L 258.914627 295.488 
L 261.979541 295.488 
L 264.691846 295.488 
L 267.763264 295.488 
L 271.144986 295.488 
L 271.291627 295.488 
L 274.137913 295.488 
L 276.564043 295.488 
L 278.616575 295.488 
L 280.378087 295.488 
L 282.410195 295.488 
L 284.484859 295.488 
L 286.429273 295.488 
L 290.793163 295.488 
L 293.315198 295.488 
L 295.319802 295.488 
L 297.280703 295.488 
L 299.865849 295.488 
L 301.109694 295.488 
L 304.939966 295.488 
L 307.143065 295.488 
L 308.508163 295.488 
L 310.201895 295.488 
L 310.923686 295.488 
L 312.091134 295.488 
L 313.190113 295.488 
L 314.648527 295.488 
L 317.893928 295.488 
L 319.786781 295.488 
L 321.248661 295.488 
L 322.618018 295.488 
L 323.110055 295.488 
L 323.464741 295.488 
L 324.700962 295.488 
L 326.506947 295.488 
L 328.521299 295.488 
L 330.610163 295.488 
L 331.920313 295.488 
L 333.002446 295.488 
L 335.380512 295.488 
L 337.092904 295.488 
L 338.299906 295.488 
L 340.03689 295.488 
L 341.405139 295.488 
L 342.777068 295.488 
L 345.888928 295.488 
L 347.508397 295.488 
L 348.850742 295.488 
L 349.440615 295.488 
L 350.793579 295.488 
L 351.486337 295.488 
L 351.74869 295.488 
L 352.857154 295.488 
L 354.466287 295.488 
L 355.921352 295.488 
L 359.842783 295.488 
L 361.738125 295.488 
L 363.495992 295.488 
L 365.392058 295.488 
L 366.233316 295.488 
L 368.183291 295.488 
L 370.699656 295.488 
L 372.01101 295.488 
L 372.826433 295.488 
L 374.060159 295.488 
L 374.835644 295.488 
L 375.643742 295.488 
L 376.383943 295.488 
L 377.497256 295.488 
L 377.98028 295.488 
L 379.076321 295.488 
L 380.065441 295.488 
L 380.959655 295.488 
L 382.30753 295.488 
L 383.080833 295.488 
L 383.659843 295.488 
L 385.821538 295.488 
L 387.164925 295.488 
L 389.842327 295.488 
L 391.234095 295.488 
L 392.608572 295.488 
L 393.633345 295.488 
L 394.707318 295.488 
L 394.798093 295.488 
L 396.293012 295.488 
L 396.972463 295.488 
L 397.238784 295.488 
L 397.760594 295.488 
L 398.487273 295.488 
" style="fill:none;stroke:#008000;stroke-linecap:square;stroke-width:1.5;"/>
    <defs>
     <path d="M 0 3 
C 0.795609 3 1.55874 2.683901 2.12132 2.12132 
C 2.683901 1.55874 3 0.795609 3 0 
C 3 -0.795609 2.683901 -1.55874 2.12132 -2.12132 
C 1.55874 -2.683901 0.795609 -3 0 -3 
C -0.795609 -3 -1.55874 -2.683901 -2.12132 -2.12132 
C -2.683901 -1.55874 -3 -0.795609 -3 0 
C -3 0.795609 -2.683901 1.55874 -2.12132 2.12132 
C -1.55874 2.683901 -0.795609 3 0 3 
z
" id="m488d480f9e" style="stroke:#008000;"/>
    </defs>
    <g clip-path="url(#p6bfc48974e)">
     <use style="fill:#008000;stroke:#008000;" x="73.832727" xlink:href="#m488d480f9e" y="295.488"/>
     <use style="fill:#008000;stroke:#008000;" x="95.588114" xlink:href="#m488d480f9e" y="295.488"/>
     <use style="fill:#008000;stroke:#008000;" x="103.402214" xlink:href="#m488d480f9e" y="295.488"/>
     <use style="fill:#008000;stroke:#008000;" x="115.764469" xlink:href="#m488d480f9e" y="295.488"/>
     <use style="fill:#008000;stroke:#008000;" x="127.080714" xlink:href="#m488d480f9e" y="295.488"/>
     <use style="fill:#008000;stroke:#008000;" x="132.741155" xlink:href="#m488d480f9e" y="295.488"/>
     <use style="fill:#008000;stroke:#008000;" x="140.035967" xlink:href="#m488d480f9e" y="295.488"/>
     <use style="fill:#008000;stroke:#008000;" x="147.363024" xlink:href="#m488d480f9e" y="295.488"/>
     <use style="fill:#008000;stroke:#008000;" x="151.275718" xlink:href="#m488d480f9e" y="295.488"/>
     <use style="fill:#008000;stroke:#008000;" x="158.159399" xlink:href="#m488d480f9e" y="295.488"/>
     <use style="fill:#008000;stroke:#008000;" x="163.146473" xlink:href="#m488d480f9e" y="295.488"/>
     <use style="fill:#008000;stroke:#008000;" x="168.239092" xlink:href="#m488d480f9e" y="295.488"/>
     <use style="fill:#008000;stroke:#008000;" x="172.443453" xlink:href="#m488d480f9e" y="295.488"/>
     <use style="fill:#008000;stroke:#008000;" x="174.957612" xlink:href="#m488d480f9e" y="295.488"/>
     <use style="fill:#008000;stroke:#008000;" x="179.053983" xlink:href="#m488d480f9e" y="295.488"/>
     <use style="fill:#008000;stroke:#008000;" x="183.160913" xlink:href="#m488d480f9e" y="295.488"/>
     <use style="fill:#008000;stroke:#008000;" x="187.045543" xlink:href="#m488d480f9e" y="295.488"/>
     <use style="fill:#008000;stroke:#008000;" x="192.088678" xlink:href="#m488d480f9e" y="295.488"/>
     <use style="fill:#008000;stroke:#008000;" x="195.917827" xlink:href="#m488d480f9e" y="295.488"/>
     <use style="fill:#008000;stroke:#008000;" x="200.471257" xlink:href="#m488d480f9e" y="295.488"/>
     <use style="fill:#008000;stroke:#008000;" x="204.023259" xlink:href="#m488d480f9e" y="295.488"/>
     <use style="fill:#008000;stroke:#008000;" x="207.339513" xlink:href="#m488d480f9e" y="295.488"/>
     <use style="fill:#008000;stroke:#008000;" x="211.558527" xlink:href="#m488d480f9e" y="295.488"/>
     <use style="fill:#008000;stroke:#008000;" x="215.787927" xlink:href="#m488d480f9e" y="295.488"/>
     <use style="fill:#008000;stroke:#008000;" x="220.592675" xlink:href="#m488d480f9e" y="295.488"/>
     <use style="fill:#008000;stroke:#008000;" x="226.375625" xlink:href="#m488d480f9e" y="295.488"/>
     <use style="fill:#008000;stroke:#008000;" x="229.563258" xlink:href="#m488d480f9e" y="295.488"/>
     <use style="fill:#008000;stroke:#008000;" x="234.231164" xlink:href="#m488d480f9e" y="295.488"/>
     <use style="fill:#008000;stroke:#008000;" x="235.480265" xlink:href="#m488d480f9e" y="295.488"/>
     <use style="fill:#008000;stroke:#008000;" x="238.033589" xlink:href="#m488d480f9e" y="295.488"/>
     <use style="fill:#008000;stroke:#008000;" x="240.552138" xlink:href="#m488d480f9e" y="295.488"/>
     <use style="fill:#008000;stroke:#008000;" x="241.572162" xlink:href="#m488d480f9e" y="295.488"/>
     <use style="fill:#008000;stroke:#008000;" x="243.84747" xlink:href="#m488d480f9e" y="295.488"/>
     <use style="fill:#008000;stroke:#008000;" x="246.026767" xlink:href="#m488d480f9e" y="295.488"/>
     <use style="fill:#008000;stroke:#008000;" x="249.464533" xlink:href="#m488d480f9e" y="295.488"/>
     <use style="fill:#008000;stroke:#008000;" x="253.266377" xlink:href="#m488d480f9e" y="295.488"/>
     <use style="fill:#008000;stroke:#008000;" x="258.914627" xlink:href="#m488d480f9e" y="295.488"/>
     <use style="fill:#008000;stroke:#008000;" x="261.979541" xlink:href="#m488d480f9e" y="295.488"/>
     <use style="fill:#008000;stroke:#008000;" x="264.691846" xlink:href="#m488d480f9e" y="295.488"/>
     <use style="fill:#008000;stroke:#008000;" x="267.763264" xlink:href="#m488d480f9e" y="295.488"/>
     <use style="fill:#008000;stroke:#008000;" x="271.144986" xlink:href="#m488d480f9e" y="295.488"/>
     <use style="fill:#008000;stroke:#008000;" x="271.291627" xlink:href="#m488d480f9e" y="295.488"/>
     <use style="fill:#008000;stroke:#008000;" x="274.137913" xlink:href="#m488d480f9e" y="295.488"/>
     <use style="fill:#008000;stroke:#008000;" x="276.564043" xlink:href="#m488d480f9e" y="295.488"/>
     <use style="fill:#008000;stroke:#008000;" x="278.616575" xlink:href="#m488d480f9e" y="295.488"/>
     <use style="fill:#008000;stroke:#008000;" x="280.378087" xlink:href="#m488d480f9e" y="295.488"/>
     <use style="fill:#008000;stroke:#008000;" x="282.410195" xlink:href="#m488d480f9e" y="295.488"/>
     <use style="fill:#008000;stroke:#008000;" x="284.484859" xlink:href="#m488d480f9e" y="295.488"/>
     <use style="fill:#008000;stroke:#008000;" x="286.429273" xlink:href="#m488d480f9e" y="295.488"/>
     <use style="fill:#008000;stroke:#008000;" x="290.793163" xlink:href="#m488d480f9e" y="295.488"/>
     <use style="fill:#008000;stroke:#008000;" x="293.315198" xlink:href="#m488d480f9e" y="295.488"/>
     <use style="fill:#008000;stroke:#008000;" x="295.319802" xlink:href="#m488d480f9e" y="295.488"/>
     <use style="fill:#008000;stroke:#008000;" x="297.280703" xlink:href="#m488d480f9e" y="295.488"/>
     <use style="fill:#008000;stroke:#008000;" x="299.865849" xlink:href="#m488d480f9e" y="295.488"/>
     <use style="fill:#008000;stroke:#008000;" x="301.109694" xlink:href="#m488d480f9e" y="295.488"/>
     <use style="fill:#008000;stroke:#008000;" x="304.939966" xlink:href="#m488d480f9e" y="295.488"/>
     <use style="fill:#008000;stroke:#008000;" x="307.143065" xlink:href="#m488d480f9e" y="295.488"/>
     <use style="fill:#008000;stroke:#008000;" x="308.508163" xlink:href="#m488d480f9e" y="295.488"/>
     <use style="fill:#008000;stroke:#008000;" x="310.201895" xlink:href="#m488d480f9e" y="295.488"/>
     <use style="fill:#008000;stroke:#008000;" x="310.923686" xlink:href="#m488d480f9e" y="295.488"/>
     <use style="fill:#008000;stroke:#008000;" x="312.091134" xlink:href="#m488d480f9e" y="295.488"/>
     <use style="fill:#008000;stroke:#008000;" x="313.190113" xlink:href="#m488d480f9e" y="295.488"/>
     <use style="fill:#008000;stroke:#008000;" x="314.648527" xlink:href="#m488d480f9e" y="295.488"/>
     <use style="fill:#008000;stroke:#008000;" x="317.893928" xlink:href="#m488d480f9e" y="295.488"/>
     <use style="fill:#008000;stroke:#008000;" x="319.786781" xlink:href="#m488d480f9e" y="295.488"/>
     <use style="fill:#008000;stroke:#008000;" x="321.248661" xlink:href="#m488d480f9e" y="295.488"/>
     <use style="fill:#008000;stroke:#008000;" x="322.618018" xlink:href="#m488d480f9e" y="295.488"/>
     <use style="fill:#008000;stroke:#008000;" x="323.110055" xlink:href="#m488d480f9e" y="295.488"/>
     <use style="fill:#008000;stroke:#008000;" x="323.464741" xlink:href="#m488d480f9e" y="295.488"/>
     <use style="fill:#008000;stroke:#008000;" x="324.700962" xlink:href="#m488d480f9e" y="295.488"/>
     <use style="fill:#008000;stroke:#008000;" x="326.506947" xlink:href="#m488d480f9e" y="295.488"/>
     <use style="fill:#008000;stroke:#008000;" x="328.521299" xlink:href="#m488d480f9e" y="295.488"/>
     <use style="fill:#008000;stroke:#008000;" x="330.610163" xlink:href="#m488d480f9e" y="295.488"/>
     <use style="fill:#008000;stroke:#008000;" x="331.920313" xlink:href="#m488d480f9e" y="295.488"/>
     <use style="fill:#008000;stroke:#008000;" x="333.002446" xlink:href="#m488d480f9e" y="295.488"/>
     <use style="fill:#008000;stroke:#008000;" x="335.380512" xlink:href="#m488d480f9e" y="295.488"/>
     <use style="fill:#008000;stroke:#008000;" x="337.092904" xlink:href="#m488d480f9e" y="295.488"/>
     <use style="fill:#008000;stroke:#008000;" x="338.299906" xlink:href="#m488d480f9e" y="295.488"/>
     <use style="fill:#008000;stroke:#008000;" x="340.03689" xlink:href="#m488d480f9e" y="295.488"/>
     <use style="fill:#008000;stroke:#008000;" x="341.405139" xlink:href="#m488d480f9e" y="295.488"/>
     <use style="fill:#008000;stroke:#008000;" x="342.777068" xlink:href="#m488d480f9e" y="295.488"/>
     <use style="fill:#008000;stroke:#008000;" x="345.888928" xlink:href="#m488d480f9e" y="295.488"/>
     <use style="fill:#008000;stroke:#008000;" x="347.508397" xlink:href="#m488d480f9e" y="295.488"/>
     <use style="fill:#008000;stroke:#008000;" x="348.850742" xlink:href="#m488d480f9e" y="295.488"/>
     <use style="fill:#008000;stroke:#008000;" x="349.440615" xlink:href="#m488d480f9e" y="295.488"/>
     <use style="fill:#008000;stroke:#008000;" x="350.793579" xlink:href="#m488d480f9e" y="295.488"/>
     <use style="fill:#008000;stroke:#008000;" x="351.486337" xlink:href="#m488d480f9e" y="295.488"/>
     <use style="fill:#008000;stroke:#008000;" x="351.74869" xlink:href="#m488d480f9e" y="295.488"/>
     <use style="fill:#008000;stroke:#008000;" x="352.857154" xlink:href="#m488d480f9e" y="295.488"/>
     <use style="fill:#008000;stroke:#008000;" x="354.466287" xlink:href="#m488d480f9e" y="295.488"/>
     <use style="fill:#008000;stroke:#008000;" x="355.921352" xlink:href="#m488d480f9e" y="295.488"/>
     <use style="fill:#008000;stroke:#008000;" x="359.842783" xlink:href="#m488d480f9e" y="295.488"/>
     <use style="fill:#008000;stroke:#008000;" x="361.738125" xlink:href="#m488d480f9e" y="295.488"/>
     <use style="fill:#008000;stroke:#008000;" x="363.495992" xlink:href="#m488d480f9e" y="295.488"/>
     <use style="fill:#008000;stroke:#008000;" x="365.392058" xlink:href="#m488d480f9e" y="295.488"/>
     <use style="fill:#008000;stroke:#008000;" x="366.233316" xlink:href="#m488d480f9e" y="295.488"/>
     <use style="fill:#008000;stroke:#008000;" x="368.183291" xlink:href="#m488d480f9e" y="295.488"/>
     <use style="fill:#008000;stroke:#008000;" x="370.699656" xlink:href="#m488d480f9e" y="295.488"/>
     <use style="fill:#008000;stroke:#008000;" x="372.01101" xlink:href="#m488d480f9e" y="295.488"/>
     <use style="fill:#008000;stroke:#008000;" x="372.826433" xlink:href="#m488d480f9e" y="295.488"/>
     <use style="fill:#008000;stroke:#008000;" x="374.060159" xlink:href="#m488d480f9e" y="295.488"/>
     <use style="fill:#008000;stroke:#008000;" x="374.835644" xlink:href="#m488d480f9e" y="295.488"/>
     <use style="fill:#008000;stroke:#008000;" x="375.643742" xlink:href="#m488d480f9e" y="295.488"/>
     <use style="fill:#008000;stroke:#008000;" x="376.383943" xlink:href="#m488d480f9e" y="295.488"/>
     <use style="fill:#008000;stroke:#008000;" x="377.497256" xlink:href="#m488d480f9e" y="295.488"/>
     <use style="fill:#008000;stroke:#008000;" x="377.98028" xlink:href="#m488d480f9e" y="295.488"/>
     <use style="fill:#008000;stroke:#008000;" x="379.076321" xlink:href="#m488d480f9e" y="295.488"/>
     <use style="fill:#008000;stroke:#008000;" x="380.065441" xlink:href="#m488d480f9e" y="295.488"/>
     <use style="fill:#008000;stroke:#008000;" x="380.959655" xlink:href="#m488d480f9e" y="295.488"/>
     <use style="fill:#008000;stroke:#008000;" x="382.30753" xlink:href="#m488d480f9e" y="295.488"/>
     <use style="fill:#008000;stroke:#008000;" x="383.080833" xlink:href="#m488d480f9e" y="295.488"/>
     <use style="fill:#008000;stroke:#008000;" x="383.659843" xlink:href="#m488d480f9e" y="295.488"/>
     <use style="fill:#008000;stroke:#008000;" x="385.821538" xlink:href="#m488d480f9e" y="295.488"/>
     <use style="fill:#008000;stroke:#008000;" x="387.164925" xlink:href="#m488d480f9e" y="295.488"/>
     <use style="fill:#008000;stroke:#008000;" x="389.842327" xlink:href="#m488d480f9e" y="295.488"/>
     <use style="fill:#008000;stroke:#008000;" x="391.234095" xlink:href="#m488d480f9e" y="295.488"/>
     <use style="fill:#008000;stroke:#008000;" x="392.608572" xlink:href="#m488d480f9e" y="295.488"/>
     <use style="fill:#008000;stroke:#008000;" x="393.633345" xlink:href="#m488d480f9e" y="295.488"/>
     <use style="fill:#008000;stroke:#008000;" x="394.707318" xlink:href="#m488d480f9e" y="295.488"/>
     <use style="fill:#008000;stroke:#008000;" x="394.798093" xlink:href="#m488d480f9e" y="295.488"/>
     <use style="fill:#008000;stroke:#008000;" x="396.293012" xlink:href="#m488d480f9e" y="295.488"/>
     <use style="fill:#008000;stroke:#008000;" x="396.972463" xlink:href="#m488d480f9e" y="295.488"/>
     <use style="fill:#008000;stroke:#008000;" x="397.238784" xlink:href="#m488d480f9e" y="295.488"/>
     <use style="fill:#008000;stroke:#008000;" x="397.760594" xlink:href="#m488d480f9e" y="295.488"/>
     <use style="fill:#008000;stroke:#008000;" x="398.487273" xlink:href="#m488d480f9e" y="295.488"/>
    </g>
   </g>
   <g id="patch_3">
    <path d="M 57.6 307.584 
L 57.6 41.472 
" style="fill:none;stroke:#000000;stroke-linecap:square;stroke-linejoin:miter;stroke-width:0.8;"/>
   </g>
   <g id="patch_4">
    <path d="M 414.72 307.584 
L 414.72 41.472 
" style="fill:none;stroke:#000000;stroke-linecap:square;stroke-linejoin:miter;stroke-width:0.8;"/>
   </g>
   <g id="patch_5">
    <path d="M 57.6 307.584 
L 414.72 307.584 
" style="fill:none;stroke:#000000;stroke-linecap:square;stroke-linejoin:miter;stroke-width:0.8;"/>
   </g>
   <g id="patch_6">
    <path d="M 57.6 41.472 
L 414.72 41.472 
" style="fill:none;stroke:#000000;stroke-linecap:square;stroke-linejoin:miter;stroke-width:0.8;"/>
   </g>
   <g id="legend_1">
    <g id="patch_7">
     <path d="M 64.6 78.82825 
L 151.392188 78.82825 
Q 153.392188 78.82825 153.392188 76.82825 
L 153.392188 48.472 
Q 153.392188 46.472 151.392188 46.472 
L 64.6 46.472 
Q 62.6 46.472 62.6 48.472 
L 62.6 76.82825 
Q 62.6 78.82825 64.6 78.82825 
z
" style="fill:#ffffff;opacity:0.8;stroke:#cccccc;stroke-linejoin:miter;"/>
    </g>
    <g id="line2d_36">
     <path d="M 66.6 54.570437 
L 86.6 54.570437 
" style="fill:none;stroke:#000000;stroke-linecap:square;stroke-width:1.5;"/>
    </g>
    <g id="line2d_37">
     <g>
      <use style="stroke:#000000;" x="76.6" xlink:href="#m871d9ee4a2" y="54.570437"/>
     </g>
    </g>
    <g id="text_13">
     <!-- RAM -->
     <defs>
      <path d="M 44.390625 34.1875 
Q 47.5625 33.109375 50.5625 29.59375 
Q 53.5625 26.078125 56.59375 19.921875 
L 66.609375 0 
L 56 0 
L 46.6875 18.703125 
Q 43.0625 26.03125 39.671875 28.421875 
Q 36.28125 30.8125 30.421875 30.8125 
L 19.671875 30.8125 
L 19.671875 0 
L 9.8125 0 
L 9.8125 72.90625 
L 32.078125 72.90625 
Q 44.578125 72.90625 50.734375 67.671875 
Q 56.890625 62.453125 56.890625 51.90625 
Q 56.890625 45.015625 53.6875 40.46875 
Q 50.484375 35.9375 44.390625 34.1875 
z
M 19.671875 64.796875 
L 19.671875 38.921875 
L 32.078125 38.921875 
Q 39.203125 38.921875 42.84375 42.21875 
Q 46.484375 45.515625 46.484375 51.90625 
Q 46.484375 58.296875 42.84375 61.546875 
Q 39.203125 64.796875 32.078125 64.796875 
z
" id="DejaVuSans-52"/>
      <path d="M 34.1875 63.1875 
L 20.796875 26.90625 
L 47.609375 26.90625 
z
M 28.609375 72.90625 
L 39.796875 72.90625 
L 67.578125 0 
L 57.328125 0 
L 50.6875 18.703125 
L 17.828125 18.703125 
L 11.1875 0 
L 0.78125 0 
z
" id="DejaVuSans-41"/>
     </defs>
     <g transform="translate(94.6 58.070437)scale(0.1 -0.1)">
      <use xlink:href="#DejaVuSans-52"/>
      <use x="69.419922" xlink:href="#DejaVuSans-41"/>
      <use x="137.828125" xlink:href="#DejaVuSans-4d"/>
     </g>
    </g>
    <g id="line2d_38">
     <path d="M 66.6 69.248562 
L 86.6 69.248562 
" style="fill:none;stroke:#008000;stroke-linecap:square;stroke-width:1.5;"/>
    </g>
    <g id="line2d_39">
     <g>
      <use style="fill:#008000;stroke:#008000;" x="76.6" xlink:href="#m488d480f9e" y="69.248562"/>
     </g>
    </g>
    <g id="text_14">
     <!-- Restart file -->
     <defs>
      <path d="M 34.28125 27.484375 
Q 23.390625 27.484375 19.1875 25 
Q 14.984375 22.515625 14.984375 16.5 
Q 14.984375 11.71875 18.140625 8.90625 
Q 21.296875 6.109375 26.703125 6.109375 
Q 34.1875 6.109375 38.703125 11.40625 
Q 43.21875 16.703125 43.21875 25.484375 
L 43.21875 27.484375 
z
M 52.203125 31.203125 
L 52.203125 0 
L 43.21875 0 
L 43.21875 8.296875 
Q 40.140625 3.328125 35.546875 0.953125 
Q 30.953125 -1.421875 24.3125 -1.421875 
Q 15.921875 -1.421875 10.953125 3.296875 
Q 6 8.015625 6 15.921875 
Q 6 25.140625 12.171875 29.828125 
Q 18.359375 34.515625 30.609375 34.515625 
L 43.21875 34.515625 
L 43.21875 35.40625 
Q 43.21875 41.609375 39.140625 45 
Q 35.0625 48.390625 27.6875 48.390625 
Q 23 48.390625 18.546875 47.265625 
Q 14.109375 46.140625 10.015625 43.890625 
L 10.015625 52.203125 
Q 14.9375 54.109375 19.578125 55.046875 
Q 24.21875 56 28.609375 56 
Q 40.484375 56 46.34375 49.84375 
Q 52.203125 43.703125 52.203125 31.203125 
z
" id="DejaVuSans-61"/>
      <path d="M 37.109375 75.984375 
L 37.109375 68.5 
L 28.515625 68.5 
Q 23.6875 68.5 21.796875 66.546875 
Q 19.921875 64.59375 19.921875 59.515625 
L 19.921875 54.6875 
L 34.71875 54.6875 
L 34.71875 47.703125 
L 19.921875 47.703125 
L 19.921875 0 
L 10.890625 0 
L 10.890625 47.703125 
L 2.296875 47.703125 
L 2.296875 54.6875 
L 10.890625 54.6875 
L 10.890625 58.5 
Q 10.890625 67.625 15.140625 71.796875 
Q 19.390625 75.984375 28.609375 75.984375 
z
" id="DejaVuSans-66"/>
      <path d="M 9.421875 75.984375 
L 18.40625 75.984375 
L 18.40625 0 
L 9.421875 0 
z
" id="DejaVuSans-6c"/>
     </defs>
     <g transform="translate(94.6 72.748562)scale(0.1 -0.1)">
      <use xlink:href="#DejaVuSans-52"/>
      <use x="69.419922" xlink:href="#DejaVuSans-65"/>
      <use x="130.943359" xlink:href="#DejaVuSans-73"/>
      <use x="183.042969" xlink:href="#DejaVuSans-74"/>
      <use x="222.251953" xlink:href="#DejaVuSans-61"/>
      <use x="283.53125" xlink:href="#DejaVuSans-72"/>
      <use x="324.644531" xlink:href="#DejaVuSans-74"/>
      <use x="363.853516" xlink:href="#DejaVuSans-20"/>
      <use x="395.640625" xlink:href="#DejaVuSans-66"/>
      <use x="430.845703" xlink:href="#DejaVuSans-69"/>
      <use x="458.628906" xlink:href="#DejaVuSans-6c"/>
      <use x="486.412109" xlink:href="#DejaVuSans-65"/>
     </g>
    </g>
   </g>
  </g>
 </g>
 <defs>
  <clipPath id="p6bfc48974e">
   <rect height="266.112" width="357.12" x="57.6" y="41.472"/>
  </clipPath>
 </defs>
</svg>
