<?xml version="1.0" encoding="utf-8" standalone="no"?>
<!DOCTYPE svg PUBLIC "-//W3C//DTD SVG 1.1//EN"
  "http://www.w3.org/Graphics/SVG/1.1/DTD/svg11.dtd">
<!-- Created with matplotlib (http://matplotlib.org/) -->
<svg height="345.6pt" version="1.1" viewBox="0 0 460.8 345.6" width="460.8pt" xmlns="http://www.w3.org/2000/svg" xmlns:xlink="http://www.w3.org/1999/xlink">
 <defs>
  <style type="text/css">
*{stroke-linecap:butt;stroke-linejoin:round;}
  </style>
 </defs>
 <g id="figure_1">
  <g id="patch_1">
   <path d="M 0 345.6 
L 460.8 345.6 
L 460.8 0 
L 0 0 
z
" style="fill:#ffffff;"/>
  </g>
  <g id="axes_1">
   <g id="patch_2">
    <path d="M 57.6 307.584 
L 414.72 307.584 
L 414.72 41.472 
L 57.6 41.472 
z
" style="fill:#ffffff;"/>
   </g>
   <g id="matplotlib.axis_1">
    <g id="xtick_1">
     <g id="line2d_1">
      <defs>
       <path d="M 0 0 
L 0 3.5 
" id="m375d7e2285" style="stroke:#000000;stroke-width:0.8;"/>
      </defs>
      <g>
       <use style="stroke:#000000;stroke-width:0.8;" x="72.693273" xlink:href="#m375d7e2285" y="307.584"/>
      </g>
     </g>
     <g id="text_1">
      <!-- $\mathdefault{10^{2}}$ -->
      <defs>
       <path d="M 12.40625 8.296875 
L 28.515625 8.296875 
L 28.515625 63.921875 
L 10.984375 60.40625 
L 10.984375 69.390625 
L 28.421875 72.90625 
L 38.28125 72.90625 
L 38.28125 8.296875 
L 54.390625 8.296875 
L 54.390625 0 
L 12.40625 0 
z
" id="DejaVuSans-31"/>
       <path d="M 31.78125 66.40625 
Q 24.171875 66.40625 20.328125 58.90625 
Q 16.5 51.421875 16.5 36.375 
Q 16.5 21.390625 20.328125 13.890625 
Q 24.171875 6.390625 31.78125 6.390625 
Q 39.453125 6.390625 43.28125 13.890625 
Q 47.125 21.390625 47.125 36.375 
Q 47.125 51.421875 43.28125 58.90625 
Q 39.453125 66.40625 31.78125 66.40625 
z
M 31.78125 74.21875 
Q 44.046875 74.21875 50.515625 64.515625 
Q 56.984375 54.828125 56.984375 36.375 
Q 56.984375 17.96875 50.515625 8.265625 
Q 44.046875 -1.421875 31.78125 -1.421875 
Q 19.53125 -1.421875 13.0625 8.265625 
Q 6.59375 17.96875 6.59375 36.375 
Q 6.59375 54.828125 13.0625 64.515625 
Q 19.53125 74.21875 31.78125 74.21875 
z
" id="DejaVuSans-30"/>
       <path d="M 19.1875 8.296875 
L 53.609375 8.296875 
L 53.609375 0 
L 7.328125 0 
L 7.328125 8.296875 
Q 12.9375 14.109375 22.625 23.890625 
Q 32.328125 33.6875 34.8125 36.53125 
Q 39.546875 41.84375 41.421875 45.53125 
Q 43.3125 49.21875 43.3125 52.78125 
Q 43.3125 58.59375 39.234375 62.25 
Q 35.15625 65.921875 28.609375 65.921875 
Q 23.96875 65.921875 18.8125 64.3125 
Q 13.671875 62.703125 7.8125 59.421875 
L 7.8125 69.390625 
Q 13.765625 71.78125 18.9375 73 
Q 24.125 74.21875 28.421875 74.21875 
Q 39.75 74.21875 46.484375 68.546875 
Q 53.21875 62.890625 53.21875 53.421875 
Q 53.21875 48.921875 51.53125 44.890625 
Q 49.859375 40.875 45.40625 35.40625 
Q 44.1875 33.984375 37.640625 27.21875 
Q 31.109375 20.453125 19.1875 8.296875 
z
" id="DejaVuSans-32"/>
      </defs>
      <g transform="translate(63.893273 322.182437)scale(0.1 -0.1)">
       <use transform="translate(0 0.765625)" xlink:href="#DejaVuSans-31"/>
       <use transform="translate(63.623047 0.765625)" xlink:href="#DejaVuSans-30"/>
       <use transform="translate(128.203125 39.046875)scale(0.7)" xlink:href="#DejaVuSans-32"/>
      </g>
     </g>
    </g>
    <g id="xtick_2">
     <g id="line2d_2">
      <g>
       <use style="stroke:#000000;stroke-width:0.8;" x="242.019803" xlink:href="#m375d7e2285" y="307.584"/>
      </g>
     </g>
     <g id="text_2">
      <!-- $\mathdefault{10^{3}}$ -->
      <defs>
       <path d="M 40.578125 39.3125 
Q 47.65625 37.796875 51.625 33 
Q 55.609375 28.21875 55.609375 21.1875 
Q 55.609375 10.40625 48.1875 4.484375 
Q 40.765625 -1.421875 27.09375 -1.421875 
Q 22.515625 -1.421875 17.65625 -0.515625 
Q 12.796875 0.390625 7.625 2.203125 
L 7.625 11.71875 
Q 11.71875 9.328125 16.59375 8.109375 
Q 21.484375 6.890625 26.8125 6.890625 
Q 36.078125 6.890625 40.9375 10.546875 
Q 45.796875 14.203125 45.796875 21.1875 
Q 45.796875 27.640625 41.28125 31.265625 
Q 36.765625 34.90625 28.71875 34.90625 
L 20.21875 34.90625 
L 20.21875 43.015625 
L 29.109375 43.015625 
Q 36.375 43.015625 40.234375 45.921875 
Q 44.09375 48.828125 44.09375 54.296875 
Q 44.09375 59.90625 40.109375 62.90625 
Q 36.140625 65.921875 28.71875 65.921875 
Q 24.65625 65.921875 20.015625 65.03125 
Q 15.375 64.15625 9.8125 62.3125 
L 9.8125 71.09375 
Q 15.4375 72.65625 20.34375 73.4375 
Q 25.25 74.21875 29.59375 74.21875 
Q 40.828125 74.21875 47.359375 69.109375 
Q 53.90625 64.015625 53.90625 55.328125 
Q 53.90625 49.265625 50.4375 45.09375 
Q 46.96875 40.921875 40.578125 39.3125 
z
" id="DejaVuSans-33"/>
      </defs>
      <g transform="translate(233.219803 322.182437)scale(0.1 -0.1)">
       <use transform="translate(0 0.765625)" xlink:href="#DejaVuSans-31"/>
       <use transform="translate(63.623047 0.765625)" xlink:href="#DejaVuSans-30"/>
       <use transform="translate(128.203125 39.046875)scale(0.7)" xlink:href="#DejaVuSans-33"/>
      </g>
     </g>
    </g>
    <g id="xtick_3">
     <g id="line2d_3">
      <g>
       <use style="stroke:#000000;stroke-width:0.8;" x="411.346333" xlink:href="#m375d7e2285" y="307.584"/>
      </g>
     </g>
     <g id="text_3">
      <!-- $\mathdefault{10^{4}}$ -->
      <defs>
       <path d="M 37.796875 64.3125 
L 12.890625 25.390625 
L 37.796875 25.390625 
z
M 35.203125 72.90625 
L 47.609375 72.90625 
L 47.609375 25.390625 
L 58.015625 25.390625 
L 58.015625 17.1875 
L 47.609375 17.1875 
L 47.609375 0 
L 37.796875 0 
L 37.796875 17.1875 
L 4.890625 17.1875 
L 4.890625 26.703125 
z
" id="DejaVuSans-34"/>
      </defs>
      <g transform="translate(402.546333 322.182437)scale(0.1 -0.1)">
       <use transform="translate(0 0.684375)" xlink:href="#DejaVuSans-31"/>
       <use transform="translate(63.623047 0.684375)" xlink:href="#DejaVuSans-30"/>
       <use transform="translate(128.203125 38.965625)scale(0.7)" xlink:href="#DejaVuSans-34"/>
      </g>
     </g>
    </g>
    <g id="xtick_4">
     <g id="line2d_4">
      <defs>
       <path d="M 0 0 
L 0 2 
" id="md77c68b061" style="stroke:#000000;stroke-width:0.6;"/>
      </defs>
      <g>
       <use style="stroke:#000000;stroke-width:0.6;" x="64.945316" xlink:href="#md77c68b061" y="307.584"/>
      </g>
     </g>
    </g>
    <g id="xtick_5">
     <g id="line2d_5">
      <g>
       <use style="stroke:#000000;stroke-width:0.6;" x="123.665637" xlink:href="#md77c68b061" y="307.584"/>
      </g>
     </g>
    </g>
    <g id="xtick_6">
     <g id="line2d_6">
      <g>
       <use style="stroke:#000000;stroke-width:0.6;" x="153.482559" xlink:href="#md77c68b061" y="307.584"/>
      </g>
     </g>
    </g>
    <g id="xtick_7">
     <g id="line2d_7">
      <g>
       <use style="stroke:#000000;stroke-width:0.6;" x="174.638002" xlink:href="#md77c68b061" y="307.584"/>
      </g>
     </g>
    </g>
    <g id="xtick_8">
     <g id="line2d_8">
      <g>
       <use style="stroke:#000000;stroke-width:0.6;" x="191.047438" xlink:href="#md77c68b061" y="307.584"/>
      </g>
     </g>
    </g>
    <g id="xtick_9">
     <g id="line2d_9">
      <g>
       <use style="stroke:#000000;stroke-width:0.6;" x="204.454924" xlink:href="#md77c68b061" y="307.584"/>
      </g>
     </g>
    </g>
    <g id="xtick_10">
     <g id="line2d_10">
      <g>
       <use style="stroke:#000000;stroke-width:0.6;" x="215.790791" xlink:href="#md77c68b061" y="307.584"/>
      </g>
     </g>
    </g>
    <g id="xtick_11">
     <g id="line2d_11">
      <g>
       <use style="stroke:#000000;stroke-width:0.6;" x="225.610366" xlink:href="#md77c68b061" y="307.584"/>
      </g>
     </g>
    </g>
    <g id="xtick_12">
     <g id="line2d_12">
      <g>
       <use style="stroke:#000000;stroke-width:0.6;" x="234.271846" xlink:href="#md77c68b061" y="307.584"/>
      </g>
     </g>
    </g>
    <g id="xtick_13">
     <g id="line2d_13">
      <g>
       <use style="stroke:#000000;stroke-width:0.6;" x="292.992167" xlink:href="#md77c68b061" y="307.584"/>
      </g>
     </g>
    </g>
    <g id="xtick_14">
     <g id="line2d_14">
      <g>
       <use style="stroke:#000000;stroke-width:0.6;" x="322.809089" xlink:href="#md77c68b061" y="307.584"/>
      </g>
     </g>
    </g>
    <g id="xtick_15">
     <g id="line2d_15">
      <g>
       <use style="stroke:#000000;stroke-width:0.6;" x="343.964532" xlink:href="#md77c68b061" y="307.584"/>
      </g>
     </g>
    </g>
    <g id="xtick_16">
     <g id="line2d_16">
      <g>
       <use style="stroke:#000000;stroke-width:0.6;" x="360.373968" xlink:href="#md77c68b061" y="307.584"/>
      </g>
     </g>
    </g>
    <g id="xtick_17">
     <g id="line2d_17">
      <g>
       <use style="stroke:#000000;stroke-width:0.6;" x="373.781454" xlink:href="#md77c68b061" y="307.584"/>
      </g>
     </g>
    </g>
    <g id="xtick_18">
     <g id="line2d_18">
      <g>
       <use style="stroke:#000000;stroke-width:0.6;" x="385.117321" xlink:href="#md77c68b061" y="307.584"/>
      </g>
     </g>
    </g>
    <g id="xtick_19">
     <g id="line2d_19">
      <g>
       <use style="stroke:#000000;stroke-width:0.6;" x="394.936897" xlink:href="#md77c68b061" y="307.584"/>
      </g>
     </g>
    </g>
    <g id="xtick_20">
     <g id="line2d_20">
      <g>
       <use style="stroke:#000000;stroke-width:0.6;" x="403.598376" xlink:href="#md77c68b061" y="307.584"/>
      </g>
     </g>
    </g>
    <g id="text_4">
     <!-- Execution time (s) -->
     <defs>
      <path d="M 9.8125 72.90625 
L 55.90625 72.90625 
L 55.90625 64.59375 
L 19.671875 64.59375 
L 19.671875 43.015625 
L 54.390625 43.015625 
L 54.390625 34.71875 
L 19.671875 34.71875 
L 19.671875 8.296875 
L 56.78125 8.296875 
L 56.78125 0 
L 9.8125 0 
z
" id="DejaVuSans-45"/>
      <path d="M 54.890625 54.6875 
L 35.109375 28.078125 
L 55.90625 0 
L 45.3125 0 
L 29.390625 21.484375 
L 13.484375 0 
L 2.875 0 
L 24.125 28.609375 
L 4.6875 54.6875 
L 15.28125 54.6875 
L 29.78125 35.203125 
L 44.28125 54.6875 
z
" id="DejaVuSans-78"/>
      <path d="M 56.203125 29.59375 
L 56.203125 25.203125 
L 14.890625 25.203125 
Q 15.484375 15.921875 20.484375 11.0625 
Q 25.484375 6.203125 34.421875 6.203125 
Q 39.59375 6.203125 44.453125 7.46875 
Q 49.3125 8.734375 54.109375 11.28125 
L 54.109375 2.78125 
Q 49.265625 0.734375 44.1875 -0.34375 
Q 39.109375 -1.421875 33.890625 -1.421875 
Q 20.796875 -1.421875 13.15625 6.1875 
Q 5.515625 13.8125 5.515625 26.8125 
Q 5.515625 40.234375 12.765625 48.109375 
Q 20.015625 56 32.328125 56 
Q 43.359375 56 49.78125 48.890625 
Q 56.203125 41.796875 56.203125 29.59375 
z
M 47.21875 32.234375 
Q 47.125 39.59375 43.09375 43.984375 
Q 39.0625 48.390625 32.421875 48.390625 
Q 24.90625 48.390625 20.390625 44.140625 
Q 15.875 39.890625 15.1875 32.171875 
z
" id="DejaVuSans-65"/>
      <path d="M 48.78125 52.59375 
L 48.78125 44.1875 
Q 44.96875 46.296875 41.140625 47.34375 
Q 37.3125 48.390625 33.40625 48.390625 
Q 24.65625 48.390625 19.8125 42.84375 
Q 14.984375 37.3125 14.984375 27.296875 
Q 14.984375 17.28125 19.8125 11.734375 
Q 24.65625 6.203125 33.40625 6.203125 
Q 37.3125 6.203125 41.140625 7.25 
Q 44.96875 8.296875 48.78125 10.40625 
L 48.78125 2.09375 
Q 45.015625 0.34375 40.984375 -0.53125 
Q 36.96875 -1.421875 32.421875 -1.421875 
Q 20.0625 -1.421875 12.78125 6.34375 
Q 5.515625 14.109375 5.515625 27.296875 
Q 5.515625 40.671875 12.859375 48.328125 
Q 20.21875 56 33.015625 56 
Q 37.15625 56 41.109375 55.140625 
Q 45.0625 54.296875 48.78125 52.59375 
z
" id="DejaVuSans-63"/>
      <path d="M 8.5 21.578125 
L 8.5 54.6875 
L 17.484375 54.6875 
L 17.484375 21.921875 
Q 17.484375 14.15625 20.5 10.265625 
Q 23.53125 6.390625 29.59375 6.390625 
Q 36.859375 6.390625 41.078125 11.03125 
Q 45.3125 15.671875 45.3125 23.6875 
L 45.3125 54.6875 
L 54.296875 54.6875 
L 54.296875 0 
L 45.3125 0 
L 45.3125 8.40625 
Q 42.046875 3.421875 37.71875 1 
Q 33.40625 -1.421875 27.6875 -1.421875 
Q 18.265625 -1.421875 13.375 4.4375 
Q 8.5 10.296875 8.5 21.578125 
z
M 31.109375 56 
z
" id="DejaVuSans-75"/>
      <path d="M 18.3125 70.21875 
L 18.3125 54.6875 
L 36.8125 54.6875 
L 36.8125 47.703125 
L 18.3125 47.703125 
L 18.3125 18.015625 
Q 18.3125 11.328125 20.140625 9.421875 
Q 21.96875 7.515625 27.59375 7.515625 
L 36.8125 7.515625 
L 36.8125 0 
L 27.59375 0 
Q 17.1875 0 13.234375 3.875 
Q 9.28125 7.765625 9.28125 18.015625 
L 9.28125 47.703125 
L 2.6875 47.703125 
L 2.6875 54.6875 
L 9.28125 54.6875 
L 9.28125 70.21875 
z
" id="DejaVuSans-74"/>
      <path d="M 9.421875 54.6875 
L 18.40625 54.6875 
L 18.40625 0 
L 9.421875 0 
z
M 9.421875 75.984375 
L 18.40625 75.984375 
L 18.40625 64.59375 
L 9.421875 64.59375 
z
" id="DejaVuSans-69"/>
      <path d="M 30.609375 48.390625 
Q 23.390625 48.390625 19.1875 42.75 
Q 14.984375 37.109375 14.984375 27.296875 
Q 14.984375 17.484375 19.15625 11.84375 
Q 23.34375 6.203125 30.609375 6.203125 
Q 37.796875 6.203125 41.984375 11.859375 
Q 46.1875 17.53125 46.1875 27.296875 
Q 46.1875 37.015625 41.984375 42.703125 
Q 37.796875 48.390625 30.609375 48.390625 
z
M 30.609375 56 
Q 42.328125 56 49.015625 48.375 
Q 55.71875 40.765625 55.71875 27.296875 
Q 55.71875 13.875 49.015625 6.21875 
Q 42.328125 -1.421875 30.609375 -1.421875 
Q 18.84375 -1.421875 12.171875 6.21875 
Q 5.515625 13.875 5.515625 27.296875 
Q 5.515625 40.765625 12.171875 48.375 
Q 18.84375 56 30.609375 56 
z
" id="DejaVuSans-6f"/>
      <path d="M 54.890625 33.015625 
L 54.890625 0 
L 45.90625 0 
L 45.90625 32.71875 
Q 45.90625 40.484375 42.875 44.328125 
Q 39.84375 48.1875 33.796875 48.1875 
Q 26.515625 48.1875 22.3125 43.546875 
Q 18.109375 38.921875 18.109375 30.90625 
L 18.109375 0 
L 9.078125 0 
L 9.078125 54.6875 
L 18.109375 54.6875 
L 18.109375 46.1875 
Q 21.34375 51.125 25.703125 53.5625 
Q 30.078125 56 35.796875 56 
Q 45.21875 56 50.046875 50.171875 
Q 54.890625 44.34375 54.890625 33.015625 
z
" id="DejaVuSans-6e"/>
      <path id="DejaVuSans-20"/>
      <path d="M 52 44.1875 
Q 55.375 50.25 60.0625 53.125 
Q 64.75 56 71.09375 56 
Q 79.640625 56 84.28125 50.015625 
Q 88.921875 44.046875 88.921875 33.015625 
L 88.921875 0 
L 79.890625 0 
L 79.890625 32.71875 
Q 79.890625 40.578125 77.09375 44.375 
Q 74.3125 48.1875 68.609375 48.1875 
Q 61.625 48.1875 57.5625 43.546875 
Q 53.515625 38.921875 53.515625 30.90625 
L 53.515625 0 
L 44.484375 0 
L 44.484375 32.71875 
Q 44.484375 40.625 41.703125 44.40625 
Q 38.921875 48.1875 33.109375 48.1875 
Q 26.21875 48.1875 22.15625 43.53125 
Q 18.109375 38.875 18.109375 30.90625 
L 18.109375 0 
L 9.078125 0 
L 9.078125 54.6875 
L 18.109375 54.6875 
L 18.109375 46.1875 
Q 21.1875 51.21875 25.484375 53.609375 
Q 29.78125 56 35.6875 56 
Q 41.65625 56 45.828125 52.96875 
Q 50 49.953125 52 44.1875 
z
" id="DejaVuSans-6d"/>
      <path d="M 31 75.875 
Q 24.46875 64.65625 21.28125 53.65625 
Q 18.109375 42.671875 18.109375 31.390625 
Q 18.109375 20.125 21.3125 9.0625 
Q 24.515625 -2 31 -13.1875 
L 23.1875 -13.1875 
Q 15.875 -1.703125 12.234375 9.375 
Q 8.59375 20.453125 8.59375 31.390625 
Q 8.59375 42.28125 12.203125 53.3125 
Q 15.828125 64.359375 23.1875 75.875 
z
" id="DejaVuSans-28"/>
      <path d="M 44.28125 53.078125 
L 44.28125 44.578125 
Q 40.484375 46.53125 36.375 47.5 
Q 32.28125 48.484375 27.875 48.484375 
Q 21.1875 48.484375 17.84375 46.4375 
Q 14.5 44.390625 14.5 40.28125 
Q 14.5 37.15625 16.890625 35.375 
Q 19.28125 33.59375 26.515625 31.984375 
L 29.59375 31.296875 
Q 39.15625 29.25 43.1875 25.515625 
Q 47.21875 21.78125 47.21875 15.09375 
Q 47.21875 7.46875 41.1875 3.015625 
Q 35.15625 -1.421875 24.609375 -1.421875 
Q 20.21875 -1.421875 15.453125 -0.5625 
Q 10.6875 0.296875 5.421875 2 
L 5.421875 11.28125 
Q 10.40625 8.6875 15.234375 7.390625 
Q 20.0625 6.109375 24.8125 6.109375 
Q 31.15625 6.109375 34.5625 8.28125 
Q 37.984375 10.453125 37.984375 14.40625 
Q 37.984375 18.0625 35.515625 20.015625 
Q 33.0625 21.96875 24.703125 23.78125 
L 21.578125 24.515625 
Q 13.234375 26.265625 9.515625 29.90625 
Q 5.8125 33.546875 5.8125 39.890625 
Q 5.8125 47.609375 11.28125 51.796875 
Q 16.75 56 26.8125 56 
Q 31.78125 56 36.171875 55.265625 
Q 40.578125 54.546875 44.28125 53.078125 
z
" id="DejaVuSans-73"/>
      <path d="M 8.015625 75.875 
L 15.828125 75.875 
Q 23.140625 64.359375 26.78125 53.3125 
Q 30.421875 42.28125 30.421875 31.390625 
Q 30.421875 20.453125 26.78125 9.375 
Q 23.140625 -1.703125 15.828125 -13.1875 
L 8.015625 -13.1875 
Q 14.5 -2 17.703125 9.0625 
Q 20.90625 20.125 20.90625 31.390625 
Q 20.90625 42.671875 17.703125 53.65625 
Q 14.5 64.65625 8.015625 75.875 
z
" id="DejaVuSans-29"/>
     </defs>
     <g transform="translate(190.49125 335.860562)scale(0.1 -0.1)">
      <use xlink:href="#DejaVuSans-45"/>
      <use x="63.183594" xlink:href="#DejaVuSans-78"/>
      <use x="122.316406" xlink:href="#DejaVuSans-65"/>
      <use x="183.839844" xlink:href="#DejaVuSans-63"/>
      <use x="238.820312" xlink:href="#DejaVuSans-75"/>
      <use x="302.199219" xlink:href="#DejaVuSans-74"/>
      <use x="341.408203" xlink:href="#DejaVuSans-69"/>
      <use x="369.191406" xlink:href="#DejaVuSans-6f"/>
      <use x="430.373047" xlink:href="#DejaVuSans-6e"/>
      <use x="493.751953" xlink:href="#DejaVuSans-20"/>
      <use x="525.539062" xlink:href="#DejaVuSans-74"/>
      <use x="564.748047" xlink:href="#DejaVuSans-69"/>
      <use x="592.53125" xlink:href="#DejaVuSans-6d"/>
      <use x="689.943359" xlink:href="#DejaVuSans-65"/>
      <use x="751.466797" xlink:href="#DejaVuSans-20"/>
      <use x="783.253906" xlink:href="#DejaVuSans-28"/>
      <use x="822.267578" xlink:href="#DejaVuSans-73"/>
      <use x="874.367188" xlink:href="#DejaVuSans-29"/>
     </g>
    </g>
   </g>
   <g id="matplotlib.axis_2">
    <g id="ytick_1">
     <g id="line2d_21">
      <defs>
       <path d="M 0 0 
L -3.5 0 
" id="mc5231e8c2e" style="stroke:#000000;stroke-width:0.8;"/>
      </defs>
      <g>
       <use style="stroke:#000000;stroke-width:0.8;" x="57.6" xlink:href="#mc5231e8c2e" y="295.488"/>
      </g>
     </g>
     <g id="text_5">
      <!-- 0 -->
      <g transform="translate(44.2375 299.287219)scale(0.1 -0.1)">
       <use xlink:href="#DejaVuSans-30"/>
      </g>
     </g>
    </g>
    <g id="ytick_2">
     <g id="line2d_22">
      <g>
       <use style="stroke:#000000;stroke-width:0.8;" x="57.6" xlink:href="#mc5231e8c2e" y="238.932709"/>
      </g>
     </g>
     <g id="text_6">
      <!-- 1000 -->
      <g transform="translate(25.15 242.731928)scale(0.1 -0.1)">
       <use xlink:href="#DejaVuSans-31"/>
       <use x="63.623047" xlink:href="#DejaVuSans-30"/>
       <use x="127.246094" xlink:href="#DejaVuSans-30"/>
       <use x="190.869141" xlink:href="#DejaVuSans-30"/>
      </g>
     </g>
    </g>
    <g id="ytick_3">
     <g id="line2d_23">
      <g>
       <use style="stroke:#000000;stroke-width:0.8;" x="57.6" xlink:href="#mc5231e8c2e" y="182.377418"/>
      </g>
     </g>
     <g id="text_7">
      <!-- 2000 -->
      <g transform="translate(25.15 186.176637)scale(0.1 -0.1)">
       <use xlink:href="#DejaVuSans-32"/>
       <use x="63.623047" xlink:href="#DejaVuSans-30"/>
       <use x="127.246094" xlink:href="#DejaVuSans-30"/>
       <use x="190.869141" xlink:href="#DejaVuSans-30"/>
      </g>
     </g>
    </g>
    <g id="ytick_4">
     <g id="line2d_24">
      <g>
       <use style="stroke:#000000;stroke-width:0.8;" x="57.6" xlink:href="#mc5231e8c2e" y="125.822127"/>
      </g>
     </g>
     <g id="text_8">
      <!-- 3000 -->
      <g transform="translate(25.15 129.621346)scale(0.1 -0.1)">
       <use xlink:href="#DejaVuSans-33"/>
       <use x="63.623047" xlink:href="#DejaVuSans-30"/>
       <use x="127.246094" xlink:href="#DejaVuSans-30"/>
       <use x="190.869141" xlink:href="#DejaVuSans-30"/>
      </g>
     </g>
    </g>
    <g id="ytick_5">
     <g id="line2d_25">
      <g>
       <use style="stroke:#000000;stroke-width:0.8;" x="57.6" xlink:href="#mc5231e8c2e" y="69.266837"/>
      </g>
     </g>
     <g id="text_9">
      <!-- 4000 -->
      <g transform="translate(25.15 73.066055)scale(0.1 -0.1)">
       <use xlink:href="#DejaVuSans-34"/>
       <use x="63.623047" xlink:href="#DejaVuSans-30"/>
       <use x="127.246094" xlink:href="#DejaVuSans-30"/>
       <use x="190.869141" xlink:href="#DejaVuSans-30"/>
      </g>
     </g>
    </g>
    <g id="text_10">
     <!-- Memory (MB) -->
     <defs>
      <path d="M 9.8125 72.90625 
L 24.515625 72.90625 
L 43.109375 23.296875 
L 61.8125 72.90625 
L 76.515625 72.90625 
L 76.515625 0 
L 66.890625 0 
L 66.890625 64.015625 
L 48.09375 14.015625 
L 38.1875 14.015625 
L 19.390625 64.015625 
L 19.390625 0 
L 9.8125 0 
z
" id="DejaVuSans-4d"/>
      <path d="M 41.109375 46.296875 
Q 39.59375 47.171875 37.8125 47.578125 
Q 36.03125 48 33.890625 48 
Q 26.265625 48 22.1875 43.046875 
Q 18.109375 38.09375 18.109375 28.8125 
L 18.109375 0 
L 9.078125 0 
L 9.078125 54.6875 
L 18.109375 54.6875 
L 18.109375 46.1875 
Q 20.953125 51.171875 25.484375 53.578125 
Q 30.03125 56 36.53125 56 
Q 37.453125 56 38.578125 55.875 
Q 39.703125 55.765625 41.0625 55.515625 
z
" id="DejaVuSans-72"/>
      <path d="M 32.171875 -5.078125 
Q 28.375 -14.84375 24.75 -17.8125 
Q 21.140625 -20.796875 15.09375 -20.796875 
L 7.90625 -20.796875 
L 7.90625 -13.28125 
L 13.1875 -13.28125 
Q 16.890625 -13.28125 18.9375 -11.515625 
Q 21 -9.765625 23.484375 -3.21875 
L 25.09375 0.875 
L 2.984375 54.6875 
L 12.5 54.6875 
L 29.59375 11.921875 
L 46.6875 54.6875 
L 56.203125 54.6875 
z
" id="DejaVuSans-79"/>
      <path d="M 19.671875 34.8125 
L 19.671875 8.109375 
L 35.5 8.109375 
Q 43.453125 8.109375 47.28125 11.40625 
Q 51.125 14.703125 51.125 21.484375 
Q 51.125 28.328125 47.28125 31.5625 
Q 43.453125 34.8125 35.5 34.8125 
z
M 19.671875 64.796875 
L 19.671875 42.828125 
L 34.28125 42.828125 
Q 41.5 42.828125 45.03125 45.53125 
Q 48.578125 48.25 48.578125 53.8125 
Q 48.578125 59.328125 45.03125 62.0625 
Q 41.5 64.796875 34.28125 64.796875 
z
M 9.8125 72.90625 
L 35.015625 72.90625 
Q 46.296875 72.90625 52.390625 68.21875 
Q 58.5 63.53125 58.5 54.890625 
Q 58.5 48.1875 55.375 44.234375 
Q 52.25 40.28125 46.1875 39.3125 
Q 53.46875 37.75 57.5 32.78125 
Q 61.53125 27.828125 61.53125 20.40625 
Q 61.53125 10.640625 54.890625 5.3125 
Q 48.25 0 35.984375 0 
L 9.8125 0 
z
" id="DejaVuSans-42"/>
     </defs>
     <g transform="translate(19.070312 208.098312)rotate(-90)scale(0.1 -0.1)">
      <use xlink:href="#DejaVuSans-4d"/>
      <use x="86.279297" xlink:href="#DejaVuSans-65"/>
      <use x="147.802734" xlink:href="#DejaVuSans-6d"/>
      <use x="245.214844" xlink:href="#DejaVuSans-6f"/>
      <use x="306.396484" xlink:href="#DejaVuSans-72"/>
      <use x="347.509766" xlink:href="#DejaVuSans-79"/>
      <use x="406.689453" xlink:href="#DejaVuSans-20"/>
      <use x="438.476562" xlink:href="#DejaVuSans-28"/>
      <use x="477.490234" xlink:href="#DejaVuSans-4d"/>
      <use x="563.769531" xlink:href="#DejaVuSans-42"/>
      <use x="632.373047" xlink:href="#DejaVuSans-29"/>
     </g>
    </g>
   </g>
   <g id="line2d_26">
    <path clip-path="url(#pffefcac3e8)" d="M 73.832727 254.806239 
L 81.479419 253.655168 
L 87.894521 253.617872 
L 92.847411 253.201133 
L 98.591906 252.053305 
L 124.415004 248.653139 
L 127.365457 247.485389 
L 136.412054 245.124871 
L 139.46457 244.736162 
L 142.068412 243.677287 
L 145.675267 242.516718 
L 154.382508 241.441397 
L 156.140934 241.063112 
L 158.78646 240.920647 
L 162.683538 238.587463 
L 173.330981 235.430994 
L 183.565326 234.198382 
L 188.247243 232.312747 
L 199.467007 229.879954 
L 206.784445 229.133576 
L 209.111901 228.41129 
L 214.077503 227.262998 
L 216.747411 226.358171 
L 220.492423 224.903406 
L 224.477807 224.025683 
L 228.279537 222.715468 
L 230.181565 221.873418 
L 232.086143 221.534514 
L 234.904948 221.44695 
L 237.246394 220.790452 
L 242.358096 218.079679 
L 248.983111 215.262114 
L 251.899735 212.168422 
L 255.457777 211.127616 
L 258.612781 209.446065 
L 261.079988 208.660075 
L 265.552042 204.193623 
L 266.729813 203.80723 
L 270.476016 201.67535 
L 272.484737 201.556745 
L 274.841682 200.633618 
L 277.795296 200.336874 
L 279.299411 199.72022 
L 282.3787 197.035623 
L 284.368002 196.098365 
L 285.491659 195.174775 
L 286.886317 194.369095 
L 288.324603 192.519597 
L 289.287391 192.199688 
L 290.200187 191.444276 
L 291.268186 190.144948 
L 293.008069 188.914421 
L 295.483421 186.265034 
L 297.217612 186.175154 
L 298.705316 185.480898 
L 300.876735 182.540095 
L 302.08144 181.389255 
L 303.534327 180.450376 
L 304.278872 179.828163 
L 305.230267 178.79199 
L 306.115044 177.661999 
L 308.16184 175.881765 
L 310.737053 168.44231 
L 312.947556 167.838166 
L 314.148457 167.218733 
L 315.393836 166.852262 
L 317.646445 162.509279 
L 319.181195 162.298708 
L 320.020806 161.614876 
L 320.981591 161.459902 
L 322.009741 161.459902 
L 323.064477 160.343578 
L 324.257185 159.484387 
L 324.929372 158.326598 
L 326.190916 157.037231 
L 326.95554 156.496327 
L 328.570438 156.421041 
L 330.793968 153.393833 
L 333.152042 151.684484 
L 335.964387 145.732225 
L 336.679143 144.973801 
L 337.795781 144.594358 
L 339.036542 143.763659 
L 340.006551 142.229438 
L 340.726262 141.757798 
L 342.126044 140.990571 
L 343.76494 139.463763 
L 344.508898 138.095404 
L 345.465156 137.784066 
L 346.307622 137.146332 
L 346.96859 135.876424 
L 347.825186 134.597945 
L 349.222928 133.639144 
L 350.31397 129.451135 
L 352.61027 124.031904 
L 354.161797 123.981636 
L 354.758075 123.295024 
L 355.82652 121.823811 
L 357.378279 120.949331 
L 357.93247 119.842273 
L 358.417008 118.248518 
L 359.648117 118.457698 
L 360.259565 118.333765 
L 361.831728 114.559948 
L 362.431774 114.79183 
L 362.986299 114.585429 
L 363.506566 113.597671 
L 364.362985 113.396831 
L 365.054024 112.984261 
L 365.595709 112.821411 
L 366.616278 109.453213 
L 367.637496 107.9454 
L 368.627471 105.995135 
L 369.152277 105.867727 
L 369.636188 105.630517 
L 370.205979 105.567508 
L 370.712832 105.096794 
L 372.180146 101.017893 
L 373.188459 100.927549 
L 373.609513 100.24557 
L 374.050171 100.126965 
L 375.003298 98.12898 
L 375.85096 94.038959 
L 376.372823 93.834412 
L 376.886813 93.83418 
L 377.35216 93.561759 
L 377.80885 93.017149 
L 378.241535 92.292778 
L 379.058399 89.036467 
L 379.450784 87.869412 
L 379.886406 87.857134 
L 380.326847 88.732078 
L 380.7301 88.68042 
L 382.097512 86.292104 
L 382.866458 83.273235 
L 383.368075 82.302619 
L 383.809777 83.644571 
L 384.195338 83.51114 
L 384.63046 82.756654 
L 385.052888 81.583576 
L 385.454585 81.026457 
L 386.319096 77.945274 
L 386.681594 76.084889 
L 387.508809 75.765675 
L 387.915502 75.176124 
L 388.668766 73.284698 
L 389.703036 70.227375 
L 390.103033 70.345749 
L 390.957268 70.120584 
L 391.315656 69.185411 
L 391.667989 69.06449 
L 392.348055 65.908947 
L 392.691292 64.537808 
L 393.117641 64.499354 
L 393.855005 63.853513 
L 394.578332 63.283421 
L 395.631338 58.951094 
L 396.412053 58.364091 
L 396.766506 57.541732 
L 397.124709 57.301742 
L 397.488096 56.815971 
L 398.170879 54.211293 
L 398.487273 53.568 
L 398.487273 53.568 
" style="fill:none;stroke:#000000;stroke-linecap:square;stroke-width:1.5;"/>
    <defs>
     <path d="M 0 3 
C 0.795609 3 1.55874 2.683901 2.12132 2.12132 
C 2.683901 1.55874 3 0.795609 3 0 
C 3 -0.795609 2.683901 -1.55874 2.12132 -2.12132 
C 1.55874 -2.683901 0.795609 -3 0 -3 
C -0.795609 -3 -1.55874 -2.683901 -2.12132 -2.12132 
C -2.683901 -1.55874 -3 -0.795609 -3 0 
C -3 0.795609 -2.683901 1.55874 -2.12132 2.12132 
C -1.55874 2.683901 -0.795609 3 0 3 
z
" id="m5708cdb057" style="stroke:#000000;"/>
    </defs>
    <g clip-path="url(#pffefcac3e8)">
     <use style="stroke:#000000;" x="73.832727" xlink:href="#m5708cdb057" y="254.806239"/>
     <use style="stroke:#000000;" x="81.479419" xlink:href="#m5708cdb057" y="253.655168"/>
     <use style="stroke:#000000;" x="87.894521" xlink:href="#m5708cdb057" y="253.617872"/>
     <use style="stroke:#000000;" x="92.847411" xlink:href="#m5708cdb057" y="253.201133"/>
     <use style="stroke:#000000;" x="98.591906" xlink:href="#m5708cdb057" y="252.053305"/>
     <use style="stroke:#000000;" x="124.415004" xlink:href="#m5708cdb057" y="248.653139"/>
     <use style="stroke:#000000;" x="127.365457" xlink:href="#m5708cdb057" y="247.485389"/>
     <use style="stroke:#000000;" x="136.412054" xlink:href="#m5708cdb057" y="245.124871"/>
     <use style="stroke:#000000;" x="139.46457" xlink:href="#m5708cdb057" y="244.736162"/>
     <use style="stroke:#000000;" x="142.068412" xlink:href="#m5708cdb057" y="243.677287"/>
     <use style="stroke:#000000;" x="145.675267" xlink:href="#m5708cdb057" y="242.516718"/>
     <use style="stroke:#000000;" x="154.382508" xlink:href="#m5708cdb057" y="241.441397"/>
     <use style="stroke:#000000;" x="156.140934" xlink:href="#m5708cdb057" y="241.063112"/>
     <use style="stroke:#000000;" x="158.78646" xlink:href="#m5708cdb057" y="240.920647"/>
     <use style="stroke:#000000;" x="160.823822" xlink:href="#m5708cdb057" y="239.666259"/>
     <use style="stroke:#000000;" x="162.683538" xlink:href="#m5708cdb057" y="238.587463"/>
     <use style="stroke:#000000;" x="173.330981" xlink:href="#m5708cdb057" y="235.430994"/>
     <use style="stroke:#000000;" x="183.565326" xlink:href="#m5708cdb057" y="234.198382"/>
     <use style="stroke:#000000;" x="188.247243" xlink:href="#m5708cdb057" y="232.312747"/>
     <use style="stroke:#000000;" x="199.467007" xlink:href="#m5708cdb057" y="229.879954"/>
     <use style="stroke:#000000;" x="202.08963" xlink:href="#m5708cdb057" y="229.583441"/>
     <use style="stroke:#000000;" x="206.784445" xlink:href="#m5708cdb057" y="229.133576"/>
     <use style="stroke:#000000;" x="209.111901" xlink:href="#m5708cdb057" y="228.41129"/>
     <use style="stroke:#000000;" x="214.077503" xlink:href="#m5708cdb057" y="227.262998"/>
     <use style="stroke:#000000;" x="216.747411" xlink:href="#m5708cdb057" y="226.358171"/>
     <use style="stroke:#000000;" x="220.492423" xlink:href="#m5708cdb057" y="224.903406"/>
     <use style="stroke:#000000;" x="224.477807" xlink:href="#m5708cdb057" y="224.025683"/>
     <use style="stroke:#000000;" x="228.279537" xlink:href="#m5708cdb057" y="222.715468"/>
     <use style="stroke:#000000;" x="230.181565" xlink:href="#m5708cdb057" y="221.873418"/>
     <use style="stroke:#000000;" x="232.086143" xlink:href="#m5708cdb057" y="221.534514"/>
     <use style="stroke:#000000;" x="234.904948" xlink:href="#m5708cdb057" y="221.44695"/>
     <use style="stroke:#000000;" x="237.246394" xlink:href="#m5708cdb057" y="220.790452"/>
     <use style="stroke:#000000;" x="242.358096" xlink:href="#m5708cdb057" y="218.079679"/>
     <use style="stroke:#000000;" x="248.983111" xlink:href="#m5708cdb057" y="215.262114"/>
     <use style="stroke:#000000;" x="251.899735" xlink:href="#m5708cdb057" y="212.168422"/>
     <use style="stroke:#000000;" x="255.457777" xlink:href="#m5708cdb057" y="211.127616"/>
     <use style="stroke:#000000;" x="258.612781" xlink:href="#m5708cdb057" y="209.446065"/>
     <use style="stroke:#000000;" x="261.079988" xlink:href="#m5708cdb057" y="208.660075"/>
     <use style="stroke:#000000;" x="262.874156" xlink:href="#m5708cdb057" y="206.806177"/>
     <use style="stroke:#000000;" x="265.552042" xlink:href="#m5708cdb057" y="204.193623"/>
     <use style="stroke:#000000;" x="266.729813" xlink:href="#m5708cdb057" y="203.80723"/>
     <use style="stroke:#000000;" x="270.476016" xlink:href="#m5708cdb057" y="201.67535"/>
     <use style="stroke:#000000;" x="272.484737" xlink:href="#m5708cdb057" y="201.556745"/>
     <use style="stroke:#000000;" x="274.841682" xlink:href="#m5708cdb057" y="200.633618"/>
     <use style="stroke:#000000;" x="276.111517" xlink:href="#m5708cdb057" y="200.506442"/>
     <use style="stroke:#000000;" x="277.795296" xlink:href="#m5708cdb057" y="200.336874"/>
     <use style="stroke:#000000;" x="279.299411" xlink:href="#m5708cdb057" y="199.72022"/>
     <use style="stroke:#000000;" x="280.683377" xlink:href="#m5708cdb057" y="198.557567"/>
     <use style="stroke:#000000;" x="282.3787" xlink:href="#m5708cdb057" y="197.035623"/>
     <use style="stroke:#000000;" x="284.368002" xlink:href="#m5708cdb057" y="196.098365"/>
     <use style="stroke:#000000;" x="285.491659" xlink:href="#m5708cdb057" y="195.174775"/>
     <use style="stroke:#000000;" x="286.886317" xlink:href="#m5708cdb057" y="194.369095"/>
     <use style="stroke:#000000;" x="288.324603" xlink:href="#m5708cdb057" y="192.519597"/>
     <use style="stroke:#000000;" x="289.287391" xlink:href="#m5708cdb057" y="192.199688"/>
     <use style="stroke:#000000;" x="290.200187" xlink:href="#m5708cdb057" y="191.444276"/>
     <use style="stroke:#000000;" x="291.268186" xlink:href="#m5708cdb057" y="190.144948"/>
     <use style="stroke:#000000;" x="293.008069" xlink:href="#m5708cdb057" y="188.914421"/>
     <use style="stroke:#000000;" x="295.483421" xlink:href="#m5708cdb057" y="186.265034"/>
     <use style="stroke:#000000;" x="297.217612" xlink:href="#m5708cdb057" y="186.175154"/>
     <use style="stroke:#000000;" x="298.705316" xlink:href="#m5708cdb057" y="185.480898"/>
     <use style="stroke:#000000;" x="300.876735" xlink:href="#m5708cdb057" y="182.540095"/>
     <use style="stroke:#000000;" x="302.08144" xlink:href="#m5708cdb057" y="181.389255"/>
     <use style="stroke:#000000;" x="303.534327" xlink:href="#m5708cdb057" y="180.450376"/>
     <use style="stroke:#000000;" x="304.278872" xlink:href="#m5708cdb057" y="179.828163"/>
     <use style="stroke:#000000;" x="305.230267" xlink:href="#m5708cdb057" y="178.79199"/>
     <use style="stroke:#000000;" x="306.115044" xlink:href="#m5708cdb057" y="177.661999"/>
     <use style="stroke:#000000;" x="308.16184" xlink:href="#m5708cdb057" y="175.881765"/>
     <use style="stroke:#000000;" x="310.737053" xlink:href="#m5708cdb057" y="168.44231"/>
     <use style="stroke:#000000;" x="312.947556" xlink:href="#m5708cdb057" y="167.838166"/>
     <use style="stroke:#000000;" x="314.148457" xlink:href="#m5708cdb057" y="167.218733"/>
     <use style="stroke:#000000;" x="315.393836" xlink:href="#m5708cdb057" y="166.852262"/>
     <use style="stroke:#000000;" x="317.646445" xlink:href="#m5708cdb057" y="162.509279"/>
     <use style="stroke:#000000;" x="319.181195" xlink:href="#m5708cdb057" y="162.298708"/>
     <use style="stroke:#000000;" x="320.020806" xlink:href="#m5708cdb057" y="161.614876"/>
     <use style="stroke:#000000;" x="320.981591" xlink:href="#m5708cdb057" y="161.459902"/>
     <use style="stroke:#000000;" x="322.009741" xlink:href="#m5708cdb057" y="161.459902"/>
     <use style="stroke:#000000;" x="323.064477" xlink:href="#m5708cdb057" y="160.343578"/>
     <use style="stroke:#000000;" x="324.257185" xlink:href="#m5708cdb057" y="159.484387"/>
     <use style="stroke:#000000;" x="324.929372" xlink:href="#m5708cdb057" y="158.326598"/>
     <use style="stroke:#000000;" x="325.538291" xlink:href="#m5708cdb057" y="157.656201"/>
     <use style="stroke:#000000;" x="326.190916" xlink:href="#m5708cdb057" y="157.037231"/>
     <use style="stroke:#000000;" x="326.95554" xlink:href="#m5708cdb057" y="156.496327"/>
     <use style="stroke:#000000;" x="327.620295" xlink:href="#m5708cdb057" y="156.421041"/>
     <use style="stroke:#000000;" x="328.570438" xlink:href="#m5708cdb057" y="156.421041"/>
     <use style="stroke:#000000;" x="329.357295" xlink:href="#m5708cdb057" y="155.377919"/>
     <use style="stroke:#000000;" x="330.03965" xlink:href="#m5708cdb057" y="154.366996"/>
     <use style="stroke:#000000;" x="330.793968" xlink:href="#m5708cdb057" y="153.393833"/>
     <use style="stroke:#000000;" x="332.251303" xlink:href="#m5708cdb057" y="152.334958"/>
     <use style="stroke:#000000;" x="333.152042" xlink:href="#m5708cdb057" y="151.684484"/>
     <use style="stroke:#000000;" x="335.964387" xlink:href="#m5708cdb057" y="145.732225"/>
     <use style="stroke:#000000;" x="336.679143" xlink:href="#m5708cdb057" y="144.973801"/>
     <use style="stroke:#000000;" x="337.795781" xlink:href="#m5708cdb057" y="144.594358"/>
     <use style="stroke:#000000;" x="339.036542" xlink:href="#m5708cdb057" y="143.763659"/>
     <use style="stroke:#000000;" x="340.006551" xlink:href="#m5708cdb057" y="142.229438"/>
     <use style="stroke:#000000;" x="340.726262" xlink:href="#m5708cdb057" y="141.757798"/>
     <use style="stroke:#000000;" x="342.126044" xlink:href="#m5708cdb057" y="140.990571"/>
     <use style="stroke:#000000;" x="343.76494" xlink:href="#m5708cdb057" y="139.463763"/>
     <use style="stroke:#000000;" x="344.508898" xlink:href="#m5708cdb057" y="138.095404"/>
     <use style="stroke:#000000;" x="345.465156" xlink:href="#m5708cdb057" y="137.784066"/>
     <use style="stroke:#000000;" x="346.307622" xlink:href="#m5708cdb057" y="137.146332"/>
     <use style="stroke:#000000;" x="346.96859" xlink:href="#m5708cdb057" y="135.876424"/>
     <use style="stroke:#000000;" x="347.825186" xlink:href="#m5708cdb057" y="134.597945"/>
     <use style="stroke:#000000;" x="349.222928" xlink:href="#m5708cdb057" y="133.639144"/>
     <use style="stroke:#000000;" x="350.31397" xlink:href="#m5708cdb057" y="129.451135"/>
     <use style="stroke:#000000;" x="351.178288" xlink:href="#m5708cdb057" y="127.407746"/>
     <use style="stroke:#000000;" x="352.61027" xlink:href="#m5708cdb057" y="124.031904"/>
     <use style="stroke:#000000;" x="353.540797" xlink:href="#m5708cdb057" y="124.040011"/>
     <use style="stroke:#000000;" x="354.161797" xlink:href="#m5708cdb057" y="123.981636"/>
     <use style="stroke:#000000;" x="354.758075" xlink:href="#m5708cdb057" y="123.295024"/>
     <use style="stroke:#000000;" x="355.82652" xlink:href="#m5708cdb057" y="121.823811"/>
     <use style="stroke:#000000;" x="356.751662" xlink:href="#m5708cdb057" y="121.305146"/>
     <use style="stroke:#000000;" x="357.378279" xlink:href="#m5708cdb057" y="120.949331"/>
     <use style="stroke:#000000;" x="357.93247" xlink:href="#m5708cdb057" y="119.842273"/>
     <use style="stroke:#000000;" x="358.417008" xlink:href="#m5708cdb057" y="118.248518"/>
     <use style="stroke:#000000;" x="359.648117" xlink:href="#m5708cdb057" y="118.457698"/>
     <use style="stroke:#000000;" x="360.259565" xlink:href="#m5708cdb057" y="118.333765"/>
     <use style="stroke:#000000;" x="360.775413" xlink:href="#m5708cdb057" y="117.037681"/>
     <use style="stroke:#000000;" x="361.288169" xlink:href="#m5708cdb057" y="115.591487"/>
     <use style="stroke:#000000;" x="361.831728" xlink:href="#m5708cdb057" y="114.559948"/>
     <use style="stroke:#000000;" x="362.431774" xlink:href="#m5708cdb057" y="114.79183"/>
     <use style="stroke:#000000;" x="362.986299" xlink:href="#m5708cdb057" y="114.585429"/>
     <use style="stroke:#000000;" x="363.506566" xlink:href="#m5708cdb057" y="113.597671"/>
     <use style="stroke:#000000;" x="364.362985" xlink:href="#m5708cdb057" y="113.396831"/>
     <use style="stroke:#000000;" x="365.054024" xlink:href="#m5708cdb057" y="112.984261"/>
     <use style="stroke:#000000;" x="365.595709" xlink:href="#m5708cdb057" y="112.821411"/>
     <use style="stroke:#000000;" x="366.106524" xlink:href="#m5708cdb057" y="111.153296"/>
     <use style="stroke:#000000;" x="366.616278" xlink:href="#m5708cdb057" y="109.453213"/>
     <use style="stroke:#000000;" x="367.637496" xlink:href="#m5708cdb057" y="107.9454"/>
     <use style="stroke:#000000;" x="368.138671" xlink:href="#m5708cdb057" y="106.901583"/>
     <use style="stroke:#000000;" x="368.627471" xlink:href="#m5708cdb057" y="105.995135"/>
     <use style="stroke:#000000;" x="369.152277" xlink:href="#m5708cdb057" y="105.867727"/>
     <use style="stroke:#000000;" x="369.636188" xlink:href="#m5708cdb057" y="105.630517"/>
     <use style="stroke:#000000;" x="370.205979" xlink:href="#m5708cdb057" y="105.567508"/>
     <use style="stroke:#000000;" x="370.712832" xlink:href="#m5708cdb057" y="105.096794"/>
     <use style="stroke:#000000;" x="371.178813" xlink:href="#m5708cdb057" y="103.871131"/>
     <use style="stroke:#000000;" x="371.698011" xlink:href="#m5708cdb057" y="102.594274"/>
     <use style="stroke:#000000;" x="372.180146" xlink:href="#m5708cdb057" y="101.017893"/>
     <use style="stroke:#000000;" x="372.671944" xlink:href="#m5708cdb057" y="100.927781"/>
     <use style="stroke:#000000;" x="373.188459" xlink:href="#m5708cdb057" y="100.927549"/>
     <use style="stroke:#000000;" x="373.609513" xlink:href="#m5708cdb057" y="100.24557"/>
     <use style="stroke:#000000;" x="374.050171" xlink:href="#m5708cdb057" y="100.126965"/>
     <use style="stroke:#000000;" x="374.559619" xlink:href="#m5708cdb057" y="99.14801"/>
     <use style="stroke:#000000;" x="375.003298" xlink:href="#m5708cdb057" y="98.12898"/>
     <use style="stroke:#000000;" x="375.426202" xlink:href="#m5708cdb057" y="96.234774"/>
     <use style="stroke:#000000;" x="375.85096" xlink:href="#m5708cdb057" y="94.038959"/>
     <use style="stroke:#000000;" x="376.372823" xlink:href="#m5708cdb057" y="93.834412"/>
     <use style="stroke:#000000;" x="376.886813" xlink:href="#m5708cdb057" y="93.83418"/>
     <use style="stroke:#000000;" x="377.35216" xlink:href="#m5708cdb057" y="93.561759"/>
     <use style="stroke:#000000;" x="377.80885" xlink:href="#m5708cdb057" y="93.017149"/>
     <use style="stroke:#000000;" x="378.241535" xlink:href="#m5708cdb057" y="92.292778"/>
     <use style="stroke:#000000;" x="378.638267" xlink:href="#m5708cdb057" y="90.596865"/>
     <use style="stroke:#000000;" x="379.058399" xlink:href="#m5708cdb057" y="89.036467"/>
     <use style="stroke:#000000;" x="379.450784" xlink:href="#m5708cdb057" y="87.869412"/>
     <use style="stroke:#000000;" x="379.886406" xlink:href="#m5708cdb057" y="87.857134"/>
     <use style="stroke:#000000;" x="380.326847" xlink:href="#m5708cdb057" y="88.732078"/>
     <use style="stroke:#000000;" x="380.7301" xlink:href="#m5708cdb057" y="88.68042"/>
     <use style="stroke:#000000;" x="381.182526" xlink:href="#m5708cdb057" y="87.851343"/>
     <use style="stroke:#000000;" x="381.640449" xlink:href="#m5708cdb057" y="87.213378"/>
     <use style="stroke:#000000;" x="382.097512" xlink:href="#m5708cdb057" y="86.292104"/>
     <use style="stroke:#000000;" x="382.489743" xlink:href="#m5708cdb057" y="84.876256"/>
     <use style="stroke:#000000;" x="382.866458" xlink:href="#m5708cdb057" y="83.273235"/>
     <use style="stroke:#000000;" x="383.368075" xlink:href="#m5708cdb057" y="82.302619"/>
     <use style="stroke:#000000;" x="383.809777" xlink:href="#m5708cdb057" y="83.644571"/>
     <use style="stroke:#000000;" x="384.195338" xlink:href="#m5708cdb057" y="83.51114"/>
     <use style="stroke:#000000;" x="384.63046" xlink:href="#m5708cdb057" y="82.756654"/>
     <use style="stroke:#000000;" x="385.052888" xlink:href="#m5708cdb057" y="81.583576"/>
     <use style="stroke:#000000;" x="385.454585" xlink:href="#m5708cdb057" y="81.026457"/>
     <use style="stroke:#000000;" x="385.898224" xlink:href="#m5708cdb057" y="79.496406"/>
     <use style="stroke:#000000;" x="386.319096" xlink:href="#m5708cdb057" y="77.945274"/>
     <use style="stroke:#000000;" x="386.681594" xlink:href="#m5708cdb057" y="76.084889"/>
     <use style="stroke:#000000;" x="387.149239" xlink:href="#m5708cdb057" y="75.9503"/>
     <use style="stroke:#000000;" x="387.508809" xlink:href="#m5708cdb057" y="75.765675"/>
     <use style="stroke:#000000;" x="387.915502" xlink:href="#m5708cdb057" y="75.176124"/>
     <use style="stroke:#000000;" x="388.307467" xlink:href="#m5708cdb057" y="74.322029"/>
     <use style="stroke:#000000;" x="388.668766" xlink:href="#m5708cdb057" y="73.284698"/>
     <use style="stroke:#000000;" x="389.055355" xlink:href="#m5708cdb057" y="72.193161"/>
     <use style="stroke:#000000;" x="389.391821" xlink:href="#m5708cdb057" y="70.918157"/>
     <use style="stroke:#000000;" x="389.703036" xlink:href="#m5708cdb057" y="70.227375"/>
     <use style="stroke:#000000;" x="390.103033" xlink:href="#m5708cdb057" y="70.345749"/>
     <use style="stroke:#000000;" x="390.537817" xlink:href="#m5708cdb057" y="70.234788"/>
     <use style="stroke:#000000;" x="390.957268" xlink:href="#m5708cdb057" y="70.120584"/>
     <use style="stroke:#000000;" x="391.315656" xlink:href="#m5708cdb057" y="69.185411"/>
     <use style="stroke:#000000;" x="391.667989" xlink:href="#m5708cdb057" y="69.06449"/>
     <use style="stroke:#000000;" x="392.009514" xlink:href="#m5708cdb057" y="67.326185"/>
     <use style="stroke:#000000;" x="392.348055" xlink:href="#m5708cdb057" y="65.908947"/>
     <use style="stroke:#000000;" x="392.691292" xlink:href="#m5708cdb057" y="64.537808"/>
     <use style="stroke:#000000;" x="393.117641" xlink:href="#m5708cdb057" y="64.499354"/>
     <use style="stroke:#000000;" x="393.497498" xlink:href="#m5708cdb057" y="64.108328"/>
     <use style="stroke:#000000;" x="393.855005" xlink:href="#m5708cdb057" y="63.853513"/>
     <use style="stroke:#000000;" x="394.21772" xlink:href="#m5708cdb057" y="63.587346"/>
     <use style="stroke:#000000;" x="394.578332" xlink:href="#m5708cdb057" y="63.283421"/>
     <use style="stroke:#000000;" x="394.927051" xlink:href="#m5708cdb057" y="61.96116"/>
     <use style="stroke:#000000;" x="395.271885" xlink:href="#m5708cdb057" y="60.500835"/>
     <use style="stroke:#000000;" x="395.631338" xlink:href="#m5708cdb057" y="58.951094"/>
     <use style="stroke:#000000;" x="396.042741" xlink:href="#m5708cdb057" y="58.625856"/>
     <use style="stroke:#000000;" x="396.412053" xlink:href="#m5708cdb057" y="58.364091"/>
     <use style="stroke:#000000;" x="396.766506" xlink:href="#m5708cdb057" y="57.541732"/>
     <use style="stroke:#000000;" x="397.124709" xlink:href="#m5708cdb057" y="57.301742"/>
     <use style="stroke:#000000;" x="397.488096" xlink:href="#m5708cdb057" y="56.815971"/>
     <use style="stroke:#000000;" x="397.832478" xlink:href="#m5708cdb057" y="55.409853"/>
     <use style="stroke:#000000;" x="398.170879" xlink:href="#m5708cdb057" y="54.211293"/>
     <use style="stroke:#000000;" x="398.487273" xlink:href="#m5708cdb057" y="53.568"/>
    </g>
   </g>
   <g id="line2d_27">
    <path clip-path="url(#pffefcac3e8)" d="M 73.832727 295.488 
L 398.487273 295.488 
L 398.487273 295.488 
" style="fill:none;stroke:#008000;stroke-linecap:square;stroke-width:1.5;"/>
    <defs>
     <path d="M 0 3 
C 0.795609 3 1.55874 2.683901 2.12132 2.12132 
C 2.683901 1.55874 3 0.795609 3 0 
C 3 -0.795609 2.683901 -1.55874 2.12132 -2.12132 
C 1.55874 -2.683901 0.795609 -3 0 -3 
C -0.795609 -3 -1.55874 -2.683901 -2.12132 -2.12132 
C -2.683901 -1.55874 -3 -0.795609 -3 0 
C -3 0.795609 -2.683901 1.55874 -2.12132 2.12132 
C -1.55874 2.683901 -0.795609 3 0 3 
z
" id="m4c2a051ab0" style="stroke:#008000;"/>
    </defs>
    <g clip-path="url(#pffefcac3e8)">
     <use style="fill:#008000;stroke:#008000;" x="73.832727" xlink:href="#m4c2a051ab0" y="295.488"/>
     <use style="fill:#008000;stroke:#008000;" x="81.479419" xlink:href="#m4c2a051ab0" y="295.488"/>
     <use style="fill:#008000;stroke:#008000;" x="87.894521" xlink:href="#m4c2a051ab0" y="295.488"/>
     <use style="fill:#008000;stroke:#008000;" x="92.847411" xlink:href="#m4c2a051ab0" y="295.488"/>
     <use style="fill:#008000;stroke:#008000;" x="98.591906" xlink:href="#m4c2a051ab0" y="295.488"/>
     <use style="fill:#008000;stroke:#008000;" x="124.415004" xlink:href="#m4c2a051ab0" y="295.488"/>
     <use style="fill:#008000;stroke:#008000;" x="127.365457" xlink:href="#m4c2a051ab0" y="295.488"/>
     <use style="fill:#008000;stroke:#008000;" x="136.412054" xlink:href="#m4c2a051ab0" y="295.488"/>
     <use style="fill:#008000;stroke:#008000;" x="139.46457" xlink:href="#m4c2a051ab0" y="295.488"/>
     <use style="fill:#008000;stroke:#008000;" x="142.068412" xlink:href="#m4c2a051ab0" y="295.488"/>
     <use style="fill:#008000;stroke:#008000;" x="145.675267" xlink:href="#m4c2a051ab0" y="295.488"/>
     <use style="fill:#008000;stroke:#008000;" x="154.382508" xlink:href="#m4c2a051ab0" y="295.488"/>
     <use style="fill:#008000;stroke:#008000;" x="156.140934" xlink:href="#m4c2a051ab0" y="295.488"/>
     <use style="fill:#008000;stroke:#008000;" x="158.78646" xlink:href="#m4c2a051ab0" y="295.488"/>
     <use style="fill:#008000;stroke:#008000;" x="160.823822" xlink:href="#m4c2a051ab0" y="295.488"/>
     <use style="fill:#008000;stroke:#008000;" x="162.683538" xlink:href="#m4c2a051ab0" y="295.488"/>
     <use style="fill:#008000;stroke:#008000;" x="173.330981" xlink:href="#m4c2a051ab0" y="295.488"/>
     <use style="fill:#008000;stroke:#008000;" x="183.565326" xlink:href="#m4c2a051ab0" y="295.488"/>
     <use style="fill:#008000;stroke:#008000;" x="188.247243" xlink:href="#m4c2a051ab0" y="295.488"/>
     <use style="fill:#008000;stroke:#008000;" x="199.467007" xlink:href="#m4c2a051ab0" y="295.488"/>
     <use style="fill:#008000;stroke:#008000;" x="202.08963" xlink:href="#m4c2a051ab0" y="295.488"/>
     <use style="fill:#008000;stroke:#008000;" x="206.784445" xlink:href="#m4c2a051ab0" y="295.488"/>
     <use style="fill:#008000;stroke:#008000;" x="209.111901" xlink:href="#m4c2a051ab0" y="295.488"/>
     <use style="fill:#008000;stroke:#008000;" x="214.077503" xlink:href="#m4c2a051ab0" y="295.488"/>
     <use style="fill:#008000;stroke:#008000;" x="216.747411" xlink:href="#m4c2a051ab0" y="295.488"/>
     <use style="fill:#008000;stroke:#008000;" x="220.492423" xlink:href="#m4c2a051ab0" y="295.488"/>
     <use style="fill:#008000;stroke:#008000;" x="224.477807" xlink:href="#m4c2a051ab0" y="295.488"/>
     <use style="fill:#008000;stroke:#008000;" x="228.279537" xlink:href="#m4c2a051ab0" y="295.488"/>
     <use style="fill:#008000;stroke:#008000;" x="230.181565" xlink:href="#m4c2a051ab0" y="295.488"/>
     <use style="fill:#008000;stroke:#008000;" x="232.086143" xlink:href="#m4c2a051ab0" y="295.488"/>
     <use style="fill:#008000;stroke:#008000;" x="234.904948" xlink:href="#m4c2a051ab0" y="295.488"/>
     <use style="fill:#008000;stroke:#008000;" x="237.246394" xlink:href="#m4c2a051ab0" y="295.488"/>
     <use style="fill:#008000;stroke:#008000;" x="242.358096" xlink:href="#m4c2a051ab0" y="295.488"/>
     <use style="fill:#008000;stroke:#008000;" x="248.983111" xlink:href="#m4c2a051ab0" y="295.488"/>
     <use style="fill:#008000;stroke:#008000;" x="251.899735" xlink:href="#m4c2a051ab0" y="295.488"/>
     <use style="fill:#008000;stroke:#008000;" x="255.457777" xlink:href="#m4c2a051ab0" y="295.488"/>
     <use style="fill:#008000;stroke:#008000;" x="258.612781" xlink:href="#m4c2a051ab0" y="295.488"/>
     <use style="fill:#008000;stroke:#008000;" x="261.079988" xlink:href="#m4c2a051ab0" y="295.488"/>
     <use style="fill:#008000;stroke:#008000;" x="262.874156" xlink:href="#m4c2a051ab0" y="295.488"/>
     <use style="fill:#008000;stroke:#008000;" x="265.552042" xlink:href="#m4c2a051ab0" y="295.488"/>
     <use style="fill:#008000;stroke:#008000;" x="266.729813" xlink:href="#m4c2a051ab0" y="295.488"/>
     <use style="fill:#008000;stroke:#008000;" x="270.476016" xlink:href="#m4c2a051ab0" y="295.488"/>
     <use style="fill:#008000;stroke:#008000;" x="272.484737" xlink:href="#m4c2a051ab0" y="295.488"/>
     <use style="fill:#008000;stroke:#008000;" x="274.841682" xlink:href="#m4c2a051ab0" y="295.488"/>
     <use style="fill:#008000;stroke:#008000;" x="276.111517" xlink:href="#m4c2a051ab0" y="295.488"/>
     <use style="fill:#008000;stroke:#008000;" x="277.795296" xlink:href="#m4c2a051ab0" y="295.488"/>
     <use style="fill:#008000;stroke:#008000;" x="279.299411" xlink:href="#m4c2a051ab0" y="295.488"/>
     <use style="fill:#008000;stroke:#008000;" x="280.683377" xlink:href="#m4c2a051ab0" y="295.488"/>
     <use style="fill:#008000;stroke:#008000;" x="282.3787" xlink:href="#m4c2a051ab0" y="295.488"/>
     <use style="fill:#008000;stroke:#008000;" x="284.368002" xlink:href="#m4c2a051ab0" y="295.488"/>
     <use style="fill:#008000;stroke:#008000;" x="285.491659" xlink:href="#m4c2a051ab0" y="295.488"/>
     <use style="fill:#008000;stroke:#008000;" x="286.886317" xlink:href="#m4c2a051ab0" y="295.488"/>
     <use style="fill:#008000;stroke:#008000;" x="288.324603" xlink:href="#m4c2a051ab0" y="295.488"/>
     <use style="fill:#008000;stroke:#008000;" x="289.287391" xlink:href="#m4c2a051ab0" y="295.488"/>
     <use style="fill:#008000;stroke:#008000;" x="290.200187" xlink:href="#m4c2a051ab0" y="295.488"/>
     <use style="fill:#008000;stroke:#008000;" x="291.268186" xlink:href="#m4c2a051ab0" y="295.488"/>
     <use style="fill:#008000;stroke:#008000;" x="293.008069" xlink:href="#m4c2a051ab0" y="295.488"/>
     <use style="fill:#008000;stroke:#008000;" x="295.483421" xlink:href="#m4c2a051ab0" y="295.488"/>
     <use style="fill:#008000;stroke:#008000;" x="297.217612" xlink:href="#m4c2a051ab0" y="295.488"/>
     <use style="fill:#008000;stroke:#008000;" x="298.705316" xlink:href="#m4c2a051ab0" y="295.488"/>
     <use style="fill:#008000;stroke:#008000;" x="300.876735" xlink:href="#m4c2a051ab0" y="295.488"/>
     <use style="fill:#008000;stroke:#008000;" x="302.08144" xlink:href="#m4c2a051ab0" y="295.488"/>
     <use style="fill:#008000;stroke:#008000;" x="303.534327" xlink:href="#m4c2a051ab0" y="295.488"/>
     <use style="fill:#008000;stroke:#008000;" x="304.278872" xlink:href="#m4c2a051ab0" y="295.488"/>
     <use style="fill:#008000;stroke:#008000;" x="305.230267" xlink:href="#m4c2a051ab0" y="295.488"/>
     <use style="fill:#008000;stroke:#008000;" x="306.115044" xlink:href="#m4c2a051ab0" y="295.488"/>
     <use style="fill:#008000;stroke:#008000;" x="308.16184" xlink:href="#m4c2a051ab0" y="295.488"/>
     <use style="fill:#008000;stroke:#008000;" x="310.737053" xlink:href="#m4c2a051ab0" y="295.488"/>
     <use style="fill:#008000;stroke:#008000;" x="312.947556" xlink:href="#m4c2a051ab0" y="295.488"/>
     <use style="fill:#008000;stroke:#008000;" x="314.148457" xlink:href="#m4c2a051ab0" y="295.488"/>
     <use style="fill:#008000;stroke:#008000;" x="315.393836" xlink:href="#m4c2a051ab0" y="295.488"/>
     <use style="fill:#008000;stroke:#008000;" x="317.646445" xlink:href="#m4c2a051ab0" y="295.488"/>
     <use style="fill:#008000;stroke:#008000;" x="319.181195" xlink:href="#m4c2a051ab0" y="295.488"/>
     <use style="fill:#008000;stroke:#008000;" x="320.020806" xlink:href="#m4c2a051ab0" y="295.488"/>
     <use style="fill:#008000;stroke:#008000;" x="320.981591" xlink:href="#m4c2a051ab0" y="295.488"/>
     <use style="fill:#008000;stroke:#008000;" x="322.009741" xlink:href="#m4c2a051ab0" y="295.488"/>
     <use style="fill:#008000;stroke:#008000;" x="323.064477" xlink:href="#m4c2a051ab0" y="295.488"/>
     <use style="fill:#008000;stroke:#008000;" x="324.257185" xlink:href="#m4c2a051ab0" y="295.488"/>
     <use style="fill:#008000;stroke:#008000;" x="324.929372" xlink:href="#m4c2a051ab0" y="295.488"/>
     <use style="fill:#008000;stroke:#008000;" x="325.538291" xlink:href="#m4c2a051ab0" y="295.488"/>
     <use style="fill:#008000;stroke:#008000;" x="326.190916" xlink:href="#m4c2a051ab0" y="295.488"/>
     <use style="fill:#008000;stroke:#008000;" x="326.95554" xlink:href="#m4c2a051ab0" y="295.488"/>
     <use style="fill:#008000;stroke:#008000;" x="327.620295" xlink:href="#m4c2a051ab0" y="295.488"/>
     <use style="fill:#008000;stroke:#008000;" x="328.570438" xlink:href="#m4c2a051ab0" y="295.488"/>
     <use style="fill:#008000;stroke:#008000;" x="329.357295" xlink:href="#m4c2a051ab0" y="295.488"/>
     <use style="fill:#008000;stroke:#008000;" x="330.03965" xlink:href="#m4c2a051ab0" y="295.488"/>
     <use style="fill:#008000;stroke:#008000;" x="330.793968" xlink:href="#m4c2a051ab0" y="295.488"/>
     <use style="fill:#008000;stroke:#008000;" x="332.251303" xlink:href="#m4c2a051ab0" y="295.488"/>
     <use style="fill:#008000;stroke:#008000;" x="333.152042" xlink:href="#m4c2a051ab0" y="295.488"/>
     <use style="fill:#008000;stroke:#008000;" x="335.964387" xlink:href="#m4c2a051ab0" y="295.488"/>
     <use style="fill:#008000;stroke:#008000;" x="336.679143" xlink:href="#m4c2a051ab0" y="295.488"/>
     <use style="fill:#008000;stroke:#008000;" x="337.795781" xlink:href="#m4c2a051ab0" y="295.488"/>
     <use style="fill:#008000;stroke:#008000;" x="339.036542" xlink:href="#m4c2a051ab0" y="295.488"/>
     <use style="fill:#008000;stroke:#008000;" x="340.006551" xlink:href="#m4c2a051ab0" y="295.488"/>
     <use style="fill:#008000;stroke:#008000;" x="340.726262" xlink:href="#m4c2a051ab0" y="295.488"/>
     <use style="fill:#008000;stroke:#008000;" x="342.126044" xlink:href="#m4c2a051ab0" y="295.488"/>
     <use style="fill:#008000;stroke:#008000;" x="343.76494" xlink:href="#m4c2a051ab0" y="295.488"/>
     <use style="fill:#008000;stroke:#008000;" x="344.508898" xlink:href="#m4c2a051ab0" y="295.488"/>
     <use style="fill:#008000;stroke:#008000;" x="345.465156" xlink:href="#m4c2a051ab0" y="295.488"/>
     <use style="fill:#008000;stroke:#008000;" x="346.307622" xlink:href="#m4c2a051ab0" y="295.488"/>
     <use style="fill:#008000;stroke:#008000;" x="346.96859" xlink:href="#m4c2a051ab0" y="295.488"/>
     <use style="fill:#008000;stroke:#008000;" x="347.825186" xlink:href="#m4c2a051ab0" y="295.488"/>
     <use style="fill:#008000;stroke:#008000;" x="349.222928" xlink:href="#m4c2a051ab0" y="295.488"/>
     <use style="fill:#008000;stroke:#008000;" x="350.31397" xlink:href="#m4c2a051ab0" y="295.488"/>
     <use style="fill:#008000;stroke:#008000;" x="351.178288" xlink:href="#m4c2a051ab0" y="295.488"/>
     <use style="fill:#008000;stroke:#008000;" x="352.61027" xlink:href="#m4c2a051ab0" y="295.488"/>
     <use style="fill:#008000;stroke:#008000;" x="353.540797" xlink:href="#m4c2a051ab0" y="295.488"/>
     <use style="fill:#008000;stroke:#008000;" x="354.161797" xlink:href="#m4c2a051ab0" y="295.488"/>
     <use style="fill:#008000;stroke:#008000;" x="354.758075" xlink:href="#m4c2a051ab0" y="295.488"/>
     <use style="fill:#008000;stroke:#008000;" x="355.82652" xlink:href="#m4c2a051ab0" y="295.488"/>
     <use style="fill:#008000;stroke:#008000;" x="356.751662" xlink:href="#m4c2a051ab0" y="295.488"/>
     <use style="fill:#008000;stroke:#008000;" x="357.378279" xlink:href="#m4c2a051ab0" y="295.488"/>
     <use style="fill:#008000;stroke:#008000;" x="357.93247" xlink:href="#m4c2a051ab0" y="295.488"/>
     <use style="fill:#008000;stroke:#008000;" x="358.417008" xlink:href="#m4c2a051ab0" y="295.488"/>
     <use style="fill:#008000;stroke:#008000;" x="359.648117" xlink:href="#m4c2a051ab0" y="295.488"/>
     <use style="fill:#008000;stroke:#008000;" x="360.259565" xlink:href="#m4c2a051ab0" y="295.488"/>
     <use style="fill:#008000;stroke:#008000;" x="360.775413" xlink:href="#m4c2a051ab0" y="295.488"/>
     <use style="fill:#008000;stroke:#008000;" x="361.288169" xlink:href="#m4c2a051ab0" y="295.488"/>
     <use style="fill:#008000;stroke:#008000;" x="361.831728" xlink:href="#m4c2a051ab0" y="295.488"/>
     <use style="fill:#008000;stroke:#008000;" x="362.431774" xlink:href="#m4c2a051ab0" y="295.488"/>
     <use style="fill:#008000;stroke:#008000;" x="362.986299" xlink:href="#m4c2a051ab0" y="295.488"/>
     <use style="fill:#008000;stroke:#008000;" x="363.506566" xlink:href="#m4c2a051ab0" y="295.488"/>
     <use style="fill:#008000;stroke:#008000;" x="364.362985" xlink:href="#m4c2a051ab0" y="295.488"/>
     <use style="fill:#008000;stroke:#008000;" x="365.054024" xlink:href="#m4c2a051ab0" y="295.488"/>
     <use style="fill:#008000;stroke:#008000;" x="365.595709" xlink:href="#m4c2a051ab0" y="295.488"/>
     <use style="fill:#008000;stroke:#008000;" x="366.106524" xlink:href="#m4c2a051ab0" y="295.488"/>
     <use style="fill:#008000;stroke:#008000;" x="366.616278" xlink:href="#m4c2a051ab0" y="295.488"/>
     <use style="fill:#008000;stroke:#008000;" x="367.637496" xlink:href="#m4c2a051ab0" y="295.488"/>
     <use style="fill:#008000;stroke:#008000;" x="368.138671" xlink:href="#m4c2a051ab0" y="295.488"/>
     <use style="fill:#008000;stroke:#008000;" x="368.627471" xlink:href="#m4c2a051ab0" y="295.488"/>
     <use style="fill:#008000;stroke:#008000;" x="369.152277" xlink:href="#m4c2a051ab0" y="295.488"/>
     <use style="fill:#008000;stroke:#008000;" x="369.636188" xlink:href="#m4c2a051ab0" y="295.488"/>
     <use style="fill:#008000;stroke:#008000;" x="370.205979" xlink:href="#m4c2a051ab0" y="295.488"/>
     <use style="fill:#008000;stroke:#008000;" x="370.712832" xlink:href="#m4c2a051ab0" y="295.488"/>
     <use style="fill:#008000;stroke:#008000;" x="371.178813" xlink:href="#m4c2a051ab0" y="295.488"/>
     <use style="fill:#008000;stroke:#008000;" x="371.698011" xlink:href="#m4c2a051ab0" y="295.488"/>
     <use style="fill:#008000;stroke:#008000;" x="372.180146" xlink:href="#m4c2a051ab0" y="295.488"/>
     <use style="fill:#008000;stroke:#008000;" x="372.671944" xlink:href="#m4c2a051ab0" y="295.488"/>
     <use style="fill:#008000;stroke:#008000;" x="373.188459" xlink:href="#m4c2a051ab0" y="295.488"/>
     <use style="fill:#008000;stroke:#008000;" x="373.609513" xlink:href="#m4c2a051ab0" y="295.488"/>
     <use style="fill:#008000;stroke:#008000;" x="374.050171" xlink:href="#m4c2a051ab0" y="295.488"/>
     <use style="fill:#008000;stroke:#008000;" x="374.559619" xlink:href="#m4c2a051ab0" y="295.488"/>
     <use style="fill:#008000;stroke:#008000;" x="375.003298" xlink:href="#m4c2a051ab0" y="295.488"/>
     <use style="fill:#008000;stroke:#008000;" x="375.426202" xlink:href="#m4c2a051ab0" y="295.488"/>
     <use style="fill:#008000;stroke:#008000;" x="375.85096" xlink:href="#m4c2a051ab0" y="295.488"/>
     <use style="fill:#008000;stroke:#008000;" x="376.372823" xlink:href="#m4c2a051ab0" y="295.488"/>
     <use style="fill:#008000;stroke:#008000;" x="376.886813" xlink:href="#m4c2a051ab0" y="295.488"/>
     <use style="fill:#008000;stroke:#008000;" x="377.35216" xlink:href="#m4c2a051ab0" y="295.488"/>
     <use style="fill:#008000;stroke:#008000;" x="377.80885" xlink:href="#m4c2a051ab0" y="295.488"/>
     <use style="fill:#008000;stroke:#008000;" x="378.241535" xlink:href="#m4c2a051ab0" y="295.488"/>
     <use style="fill:#008000;stroke:#008000;" x="378.638267" xlink:href="#m4c2a051ab0" y="295.488"/>
     <use style="fill:#008000;stroke:#008000;" x="379.058399" xlink:href="#m4c2a051ab0" y="295.488"/>
     <use style="fill:#008000;stroke:#008000;" x="379.450784" xlink:href="#m4c2a051ab0" y="295.488"/>
     <use style="fill:#008000;stroke:#008000;" x="379.886406" xlink:href="#m4c2a051ab0" y="295.488"/>
     <use style="fill:#008000;stroke:#008000;" x="380.326847" xlink:href="#m4c2a051ab0" y="295.488"/>
     <use style="fill:#008000;stroke:#008000;" x="380.7301" xlink:href="#m4c2a051ab0" y="295.488"/>
     <use style="fill:#008000;stroke:#008000;" x="381.182526" xlink:href="#m4c2a051ab0" y="295.488"/>
     <use style="fill:#008000;stroke:#008000;" x="381.640449" xlink:href="#m4c2a051ab0" y="295.488"/>
     <use style="fill:#008000;stroke:#008000;" x="382.097512" xlink:href="#m4c2a051ab0" y="295.488"/>
     <use style="fill:#008000;stroke:#008000;" x="382.489743" xlink:href="#m4c2a051ab0" y="295.488"/>
     <use style="fill:#008000;stroke:#008000;" x="382.866458" xlink:href="#m4c2a051ab0" y="295.488"/>
     <use style="fill:#008000;stroke:#008000;" x="383.368075" xlink:href="#m4c2a051ab0" y="295.488"/>
     <use style="fill:#008000;stroke:#008000;" x="383.809777" xlink:href="#m4c2a051ab0" y="295.488"/>
     <use style="fill:#008000;stroke:#008000;" x="384.195338" xlink:href="#m4c2a051ab0" y="295.488"/>
     <use style="fill:#008000;stroke:#008000;" x="384.63046" xlink:href="#m4c2a051ab0" y="295.488"/>
     <use style="fill:#008000;stroke:#008000;" x="385.052888" xlink:href="#m4c2a051ab0" y="295.488"/>
     <use style="fill:#008000;stroke:#008000;" x="385.454585" xlink:href="#m4c2a051ab0" y="295.488"/>
     <use style="fill:#008000;stroke:#008000;" x="385.898224" xlink:href="#m4c2a051ab0" y="295.488"/>
     <use style="fill:#008000;stroke:#008000;" x="386.319096" xlink:href="#m4c2a051ab0" y="295.488"/>
     <use style="fill:#008000;stroke:#008000;" x="386.681594" xlink:href="#m4c2a051ab0" y="295.488"/>
     <use style="fill:#008000;stroke:#008000;" x="387.149239" xlink:href="#m4c2a051ab0" y="295.488"/>
     <use style="fill:#008000;stroke:#008000;" x="387.508809" xlink:href="#m4c2a051ab0" y="295.488"/>
     <use style="fill:#008000;stroke:#008000;" x="387.915502" xlink:href="#m4c2a051ab0" y="295.488"/>
     <use style="fill:#008000;stroke:#008000;" x="388.307467" xlink:href="#m4c2a051ab0" y="295.488"/>
     <use style="fill:#008000;stroke:#008000;" x="388.668766" xlink:href="#m4c2a051ab0" y="295.488"/>
     <use style="fill:#008000;stroke:#008000;" x="389.055355" xlink:href="#m4c2a051ab0" y="295.488"/>
     <use style="fill:#008000;stroke:#008000;" x="389.391821" xlink:href="#m4c2a051ab0" y="295.488"/>
     <use style="fill:#008000;stroke:#008000;" x="389.703036" xlink:href="#m4c2a051ab0" y="295.488"/>
     <use style="fill:#008000;stroke:#008000;" x="390.103033" xlink:href="#m4c2a051ab0" y="295.488"/>
     <use style="fill:#008000;stroke:#008000;" x="390.537817" xlink:href="#m4c2a051ab0" y="295.488"/>
     <use style="fill:#008000;stroke:#008000;" x="390.957268" xlink:href="#m4c2a051ab0" y="295.488"/>
     <use style="fill:#008000;stroke:#008000;" x="391.315656" xlink:href="#m4c2a051ab0" y="295.488"/>
     <use style="fill:#008000;stroke:#008000;" x="391.667989" xlink:href="#m4c2a051ab0" y="295.488"/>
     <use style="fill:#008000;stroke:#008000;" x="392.009514" xlink:href="#m4c2a051ab0" y="295.488"/>
     <use style="fill:#008000;stroke:#008000;" x="392.348055" xlink:href="#m4c2a051ab0" y="295.488"/>
     <use style="fill:#008000;stroke:#008000;" x="392.691292" xlink:href="#m4c2a051ab0" y="295.488"/>
     <use style="fill:#008000;stroke:#008000;" x="393.117641" xlink:href="#m4c2a051ab0" y="295.488"/>
     <use style="fill:#008000;stroke:#008000;" x="393.497498" xlink:href="#m4c2a051ab0" y="295.488"/>
     <use style="fill:#008000;stroke:#008000;" x="393.855005" xlink:href="#m4c2a051ab0" y="295.488"/>
     <use style="fill:#008000;stroke:#008000;" x="394.21772" xlink:href="#m4c2a051ab0" y="295.488"/>
     <use style="fill:#008000;stroke:#008000;" x="394.578332" xlink:href="#m4c2a051ab0" y="295.488"/>
     <use style="fill:#008000;stroke:#008000;" x="394.927051" xlink:href="#m4c2a051ab0" y="295.488"/>
     <use style="fill:#008000;stroke:#008000;" x="395.271885" xlink:href="#m4c2a051ab0" y="295.488"/>
     <use style="fill:#008000;stroke:#008000;" x="395.631338" xlink:href="#m4c2a051ab0" y="295.488"/>
     <use style="fill:#008000;stroke:#008000;" x="396.042741" xlink:href="#m4c2a051ab0" y="295.488"/>
     <use style="fill:#008000;stroke:#008000;" x="396.412053" xlink:href="#m4c2a051ab0" y="295.488"/>
     <use style="fill:#008000;stroke:#008000;" x="396.766506" xlink:href="#m4c2a051ab0" y="295.488"/>
     <use style="fill:#008000;stroke:#008000;" x="397.124709" xlink:href="#m4c2a051ab0" y="295.488"/>
     <use style="fill:#008000;stroke:#008000;" x="397.488096" xlink:href="#m4c2a051ab0" y="295.488"/>
     <use style="fill:#008000;stroke:#008000;" x="397.832478" xlink:href="#m4c2a051ab0" y="295.488"/>
     <use style="fill:#008000;stroke:#008000;" x="398.170879" xlink:href="#m4c2a051ab0" y="295.488"/>
     <use style="fill:#008000;stroke:#008000;" x="398.487273" xlink:href="#m4c2a051ab0" y="295.488"/>
    </g>
   </g>
   <g id="patch_3">
    <path d="M 57.6 307.584 
L 57.6 41.472 
" style="fill:none;stroke:#000000;stroke-linecap:square;stroke-linejoin:miter;stroke-width:0.8;"/>
   </g>
   <g id="patch_4">
    <path d="M 414.72 307.584 
L 414.72 41.472 
" style="fill:none;stroke:#000000;stroke-linecap:square;stroke-linejoin:miter;stroke-width:0.8;"/>
   </g>
   <g id="patch_5">
    <path d="M 57.6 307.584 
L 414.72 307.584 
" style="fill:none;stroke:#000000;stroke-linecap:square;stroke-linejoin:miter;stroke-width:0.8;"/>
   </g>
   <g id="patch_6">
    <path d="M 57.6 41.472 
L 414.72 41.472 
" style="fill:none;stroke:#000000;stroke-linecap:square;stroke-linejoin:miter;stroke-width:0.8;"/>
   </g>
   <g id="legend_1">
    <g id="patch_7">
     <path d="M 64.6 78.82825 
L 151.392188 78.82825 
Q 153.392188 78.82825 153.392188 76.82825 
L 153.392188 48.472 
Q 153.392188 46.472 151.392188 46.472 
L 64.6 46.472 
Q 62.6 46.472 62.6 48.472 
L 62.6 76.82825 
Q 62.6 78.82825 64.6 78.82825 
z
" style="fill:#ffffff;opacity:0.8;stroke:#cccccc;stroke-linejoin:miter;"/>
    </g>
    <g id="line2d_28">
     <path d="M 66.6 54.570437 
L 86.6 54.570437 
" style="fill:none;stroke:#000000;stroke-linecap:square;stroke-width:1.5;"/>
    </g>
    <g id="line2d_29">
     <g>
      <use style="stroke:#000000;" x="76.6" xlink:href="#m5708cdb057" y="54.570437"/>
     </g>
    </g>
    <g id="text_11">
     <!-- RAM -->
     <defs>
      <path d="M 44.390625 34.1875 
Q 47.5625 33.109375 50.5625 29.59375 
Q 53.5625 26.078125 56.59375 19.921875 
L 66.609375 0 
L 56 0 
L 46.6875 18.703125 
Q 43.0625 26.03125 39.671875 28.421875 
Q 36.28125 30.8125 30.421875 30.8125 
L 19.671875 30.8125 
L 19.671875 0 
L 9.8125 0 
L 9.8125 72.90625 
L 32.078125 72.90625 
Q 44.578125 72.90625 50.734375 67.671875 
Q 56.890625 62.453125 56.890625 51.90625 
Q 56.890625 45.015625 53.6875 40.46875 
Q 50.484375 35.9375 44.390625 34.1875 
z
M 19.671875 64.796875 
L 19.671875 38.921875 
L 32.078125 38.921875 
Q 39.203125 38.921875 42.84375 42.21875 
Q 46.484375 45.515625 46.484375 51.90625 
Q 46.484375 58.296875 42.84375 61.546875 
Q 39.203125 64.796875 32.078125 64.796875 
z
" id="DejaVuSans-52"/>
      <path d="M 34.1875 63.1875 
L 20.796875 26.90625 
L 47.609375 26.90625 
z
M 28.609375 72.90625 
L 39.796875 72.90625 
L 67.578125 0 
L 57.328125 0 
L 50.6875 18.703125 
L 17.828125 18.703125 
L 11.1875 0 
L 0.78125 0 
z
" id="DejaVuSans-41"/>
     </defs>
     <g transform="translate(94.6 58.070437)scale(0.1 -0.1)">
      <use xlink:href="#DejaVuSans-52"/>
      <use x="69.419922" xlink:href="#DejaVuSans-41"/>
      <use x="137.828125" xlink:href="#DejaVuSans-4d"/>
     </g>
    </g>
    <g id="line2d_30">
     <path d="M 66.6 69.248562 
L 86.6 69.248562 
" style="fill:none;stroke:#008000;stroke-linecap:square;stroke-width:1.5;"/>
    </g>
    <g id="line2d_31">
     <g>
      <use style="fill:#008000;stroke:#008000;" x="76.6" xlink:href="#m4c2a051ab0" y="69.248562"/>
     </g>
    </g>
    <g id="text_12">
     <!-- Restart file -->
     <defs>
      <path d="M 34.28125 27.484375 
Q 23.390625 27.484375 19.1875 25 
Q 14.984375 22.515625 14.984375 16.5 
Q 14.984375 11.71875 18.140625 8.90625 
Q 21.296875 6.109375 26.703125 6.109375 
Q 34.1875 6.109375 38.703125 11.40625 
Q 43.21875 16.703125 43.21875 25.484375 
L 43.21875 27.484375 
z
M 52.203125 31.203125 
L 52.203125 0 
L 43.21875 0 
L 43.21875 8.296875 
Q 40.140625 3.328125 35.546875 0.953125 
Q 30.953125 -1.421875 24.3125 -1.421875 
Q 15.921875 -1.421875 10.953125 3.296875 
Q 6 8.015625 6 15.921875 
Q 6 25.140625 12.171875 29.828125 
Q 18.359375 34.515625 30.609375 34.515625 
L 43.21875 34.515625 
L 43.21875 35.40625 
Q 43.21875 41.609375 39.140625 45 
Q 35.0625 48.390625 27.6875 48.390625 
Q 23 48.390625 18.546875 47.265625 
Q 14.109375 46.140625 10.015625 43.890625 
L 10.015625 52.203125 
Q 14.9375 54.109375 19.578125 55.046875 
Q 24.21875 56 28.609375 56 
Q 40.484375 56 46.34375 49.84375 
Q 52.203125 43.703125 52.203125 31.203125 
z
" id="DejaVuSans-61"/>
      <path d="M 37.109375 75.984375 
L 37.109375 68.5 
L 28.515625 68.5 
Q 23.6875 68.5 21.796875 66.546875 
Q 19.921875 64.59375 19.921875 59.515625 
L 19.921875 54.6875 
L 34.71875 54.6875 
L 34.71875 47.703125 
L 19.921875 47.703125 
L 19.921875 0 
L 10.890625 0 
L 10.890625 47.703125 
L 2.296875 47.703125 
L 2.296875 54.6875 
L 10.890625 54.6875 
L 10.890625 58.5 
Q 10.890625 67.625 15.140625 71.796875 
Q 19.390625 75.984375 28.609375 75.984375 
z
" id="DejaVuSans-66"/>
      <path d="M 9.421875 75.984375 
L 18.40625 75.984375 
L 18.40625 0 
L 9.421875 0 
z
" id="DejaVuSans-6c"/>
     </defs>
     <g transform="translate(94.6 72.748562)scale(0.1 -0.1)">
      <use xlink:href="#DejaVuSans-52"/>
      <use x="69.419922" xlink:href="#DejaVuSans-65"/>
      <use x="130.943359" xlink:href="#DejaVuSans-73"/>
      <use x="183.042969" xlink:href="#DejaVuSans-74"/>
      <use x="222.251953" xlink:href="#DejaVuSans-61"/>
      <use x="283.53125" xlink:href="#DejaVuSans-72"/>
      <use x="324.644531" xlink:href="#DejaVuSans-74"/>
      <use x="363.853516" xlink:href="#DejaVuSans-20"/>
      <use x="395.640625" xlink:href="#DejaVuSans-66"/>
      <use x="430.845703" xlink:href="#DejaVuSans-69"/>
      <use x="458.628906" xlink:href="#DejaVuSans-6c"/>
      <use x="486.412109" xlink:href="#DejaVuSans-65"/>
     </g>
    </g>
   </g>
  </g>
 </g>
 <defs>
  <clipPath id="pffefcac3e8">
   <rect height="266.112" width="357.12" x="57.6" y="41.472"/>
  </clipPath>
 </defs>
</svg>
