<?xml version="1.0" encoding="utf-8" standalone="no"?>
<!DOCTYPE svg PUBLIC "-//W3C//DTD SVG 1.1//EN"
  "http://www.w3.org/Graphics/SVG/1.1/DTD/svg11.dtd">
<!-- Created with matplotlib (http://matplotlib.org/) -->
<svg height="345.6pt" version="1.1" viewBox="0 0 460.8 345.6" width="460.8pt" xmlns="http://www.w3.org/2000/svg" xmlns:xlink="http://www.w3.org/1999/xlink">
 <defs>
  <style type="text/css">
*{stroke-linecap:butt;stroke-linejoin:round;}
  </style>
 </defs>
 <g id="figure_1">
  <g id="patch_1">
   <path d="M 0 345.6 
L 460.8 345.6 
L 460.8 0 
L 0 0 
z
" style="fill:#ffffff;"/>
  </g>
  <g id="axes_1">
   <g id="patch_2">
    <path d="M 57.6 307.584 
L 414.72 307.584 
L 414.72 41.472 
L 57.6 41.472 
z
" style="fill:#ffffff;"/>
   </g>
   <g id="matplotlib.axis_1">
    <g id="xtick_1">
     <g id="line2d_1">
      <defs>
       <path d="M 0 0 
L 0 3.5 
" id="m868a4a01c4" style="stroke:#000000;stroke-width:0.8;"/>
      </defs>
      <g>
       <use style="stroke:#000000;stroke-width:0.8;" x="124.683634" xlink:href="#m868a4a01c4" y="307.584"/>
      </g>
     </g>
     <g id="text_1">
      <!-- $\mathdefault{10^{3}}$ -->
      <defs>
       <path d="M 12.40625 8.296875 
L 28.515625 8.296875 
L 28.515625 63.921875 
L 10.984375 60.40625 
L 10.984375 69.390625 
L 28.421875 72.90625 
L 38.28125 72.90625 
L 38.28125 8.296875 
L 54.390625 8.296875 
L 54.390625 0 
L 12.40625 0 
z
" id="DejaVuSans-31"/>
       <path d="M 31.78125 66.40625 
Q 24.171875 66.40625 20.328125 58.90625 
Q 16.5 51.421875 16.5 36.375 
Q 16.5 21.390625 20.328125 13.890625 
Q 24.171875 6.390625 31.78125 6.390625 
Q 39.453125 6.390625 43.28125 13.890625 
Q 47.125 21.390625 47.125 36.375 
Q 47.125 51.421875 43.28125 58.90625 
Q 39.453125 66.40625 31.78125 66.40625 
z
M 31.78125 74.21875 
Q 44.046875 74.21875 50.515625 64.515625 
Q 56.984375 54.828125 56.984375 36.375 
Q 56.984375 17.96875 50.515625 8.265625 
Q 44.046875 -1.421875 31.78125 -1.421875 
Q 19.53125 -1.421875 13.0625 8.265625 
Q 6.59375 17.96875 6.59375 36.375 
Q 6.59375 54.828125 13.0625 64.515625 
Q 19.53125 74.21875 31.78125 74.21875 
z
" id="DejaVuSans-30"/>
       <path d="M 40.578125 39.3125 
Q 47.65625 37.796875 51.625 33 
Q 55.609375 28.21875 55.609375 21.1875 
Q 55.609375 10.40625 48.1875 4.484375 
Q 40.765625 -1.421875 27.09375 -1.421875 
Q 22.515625 -1.421875 17.65625 -0.515625 
Q 12.796875 0.390625 7.625 2.203125 
L 7.625 11.71875 
Q 11.71875 9.328125 16.59375 8.109375 
Q 21.484375 6.890625 26.8125 6.890625 
Q 36.078125 6.890625 40.9375 10.546875 
Q 45.796875 14.203125 45.796875 21.1875 
Q 45.796875 27.640625 41.28125 31.265625 
Q 36.765625 34.90625 28.71875 34.90625 
L 20.21875 34.90625 
L 20.21875 43.015625 
L 29.109375 43.015625 
Q 36.375 43.015625 40.234375 45.921875 
Q 44.09375 48.828125 44.09375 54.296875 
Q 44.09375 59.90625 40.109375 62.90625 
Q 36.140625 65.921875 28.71875 65.921875 
Q 24.65625 65.921875 20.015625 65.03125 
Q 15.375 64.15625 9.8125 62.3125 
L 9.8125 71.09375 
Q 15.4375 72.65625 20.34375 73.4375 
Q 25.25 74.21875 29.59375 74.21875 
Q 40.828125 74.21875 47.359375 69.109375 
Q 53.90625 64.015625 53.90625 55.328125 
Q 53.90625 49.265625 50.4375 45.09375 
Q 46.96875 40.921875 40.578125 39.3125 
z
" id="DejaVuSans-33"/>
      </defs>
      <g transform="translate(115.883634 322.182437)scale(0.1 -0.1)">
       <use transform="translate(0 0.765625)" xlink:href="#DejaVuSans-31"/>
       <use transform="translate(63.623047 0.765625)" xlink:href="#DejaVuSans-30"/>
       <use transform="translate(128.203125 39.046875)scale(0.7)" xlink:href="#DejaVuSans-33"/>
      </g>
     </g>
    </g>
    <g id="xtick_2">
     <g id="line2d_2">
      <g>
       <use style="stroke:#000000;stroke-width:0.8;" x="266.238523" xlink:href="#m868a4a01c4" y="307.584"/>
      </g>
     </g>
     <g id="text_2">
      <!-- $\mathdefault{10^{4}}$ -->
      <defs>
       <path d="M 37.796875 64.3125 
L 12.890625 25.390625 
L 37.796875 25.390625 
z
M 35.203125 72.90625 
L 47.609375 72.90625 
L 47.609375 25.390625 
L 58.015625 25.390625 
L 58.015625 17.1875 
L 47.609375 17.1875 
L 47.609375 0 
L 37.796875 0 
L 37.796875 17.1875 
L 4.890625 17.1875 
L 4.890625 26.703125 
z
" id="DejaVuSans-34"/>
      </defs>
      <g transform="translate(257.438523 322.182437)scale(0.1 -0.1)">
       <use transform="translate(0 0.684375)" xlink:href="#DejaVuSans-31"/>
       <use transform="translate(63.623047 0.684375)" xlink:href="#DejaVuSans-30"/>
       <use transform="translate(128.203125 38.965625)scale(0.7)" xlink:href="#DejaVuSans-34"/>
      </g>
     </g>
    </g>
    <g id="xtick_3">
     <g id="line2d_3">
      <g>
       <use style="stroke:#000000;stroke-width:0.8;" x="407.793412" xlink:href="#m868a4a01c4" y="307.584"/>
      </g>
     </g>
     <g id="text_3">
      <!-- $\mathdefault{10^{5}}$ -->
      <defs>
       <path d="M 10.796875 72.90625 
L 49.515625 72.90625 
L 49.515625 64.59375 
L 19.828125 64.59375 
L 19.828125 46.734375 
Q 21.96875 47.46875 24.109375 47.828125 
Q 26.265625 48.1875 28.421875 48.1875 
Q 40.625 48.1875 47.75 41.5 
Q 54.890625 34.8125 54.890625 23.390625 
Q 54.890625 11.625 47.5625 5.09375 
Q 40.234375 -1.421875 26.90625 -1.421875 
Q 22.3125 -1.421875 17.546875 -0.640625 
Q 12.796875 0.140625 7.71875 1.703125 
L 7.71875 11.625 
Q 12.109375 9.234375 16.796875 8.0625 
Q 21.484375 6.890625 26.703125 6.890625 
Q 35.15625 6.890625 40.078125 11.328125 
Q 45.015625 15.765625 45.015625 23.390625 
Q 45.015625 31 40.078125 35.4375 
Q 35.15625 39.890625 26.703125 39.890625 
Q 22.75 39.890625 18.8125 39.015625 
Q 14.890625 38.140625 10.796875 36.28125 
z
" id="DejaVuSans-35"/>
      </defs>
      <g transform="translate(398.993412 322.182437)scale(0.1 -0.1)">
       <use transform="translate(0 0.684375)" xlink:href="#DejaVuSans-31"/>
       <use transform="translate(63.623047 0.684375)" xlink:href="#DejaVuSans-30"/>
       <use transform="translate(128.203125 38.965625)scale(0.7)" xlink:href="#DejaVuSans-35"/>
      </g>
     </g>
    </g>
    <g id="xtick_4">
     <g id="line2d_4">
      <defs>
       <path d="M 0 0 
L 0 2 
" id="m91fba7cb04" style="stroke:#000000;stroke-width:0.6;"/>
      </defs>
      <g>
       <use style="stroke:#000000;stroke-width:0.6;" x="68.353281" xlink:href="#m91fba7cb04" y="307.584"/>
      </g>
     </g>
    </g>
    <g id="xtick_5">
     <g id="line2d_5">
      <g>
       <use style="stroke:#000000;stroke-width:0.6;" x="82.071367" xlink:href="#m91fba7cb04" y="307.584"/>
      </g>
     </g>
    </g>
    <g id="xtick_6">
     <g id="line2d_6">
      <g>
       <use style="stroke:#000000;stroke-width:0.6;" x="93.279859" xlink:href="#m91fba7cb04" y="307.584"/>
      </g>
     </g>
    </g>
    <g id="xtick_7">
     <g id="line2d_7">
      <g>
       <use style="stroke:#000000;stroke-width:0.6;" x="102.756505" xlink:href="#m91fba7cb04" y="307.584"/>
      </g>
     </g>
    </g>
    <g id="xtick_8">
     <g id="line2d_8">
      <g>
       <use style="stroke:#000000;stroke-width:0.6;" x="110.965548" xlink:href="#m91fba7cb04" y="307.584"/>
      </g>
     </g>
    </g>
    <g id="xtick_9">
     <g id="line2d_9">
      <g>
       <use style="stroke:#000000;stroke-width:0.6;" x="118.206438" xlink:href="#m91fba7cb04" y="307.584"/>
      </g>
     </g>
    </g>
    <g id="xtick_10">
     <g id="line2d_10">
      <g>
       <use style="stroke:#000000;stroke-width:0.6;" x="167.295902" xlink:href="#m91fba7cb04" y="307.584"/>
      </g>
     </g>
    </g>
    <g id="xtick_11">
     <g id="line2d_11">
      <g>
       <use style="stroke:#000000;stroke-width:0.6;" x="192.222481" xlink:href="#m91fba7cb04" y="307.584"/>
      </g>
     </g>
    </g>
    <g id="xtick_12">
     <g id="line2d_12">
      <g>
       <use style="stroke:#000000;stroke-width:0.6;" x="209.90817" xlink:href="#m91fba7cb04" y="307.584"/>
      </g>
     </g>
    </g>
    <g id="xtick_13">
     <g id="line2d_13">
      <g>
       <use style="stroke:#000000;stroke-width:0.6;" x="223.626256" xlink:href="#m91fba7cb04" y="307.584"/>
      </g>
     </g>
    </g>
    <g id="xtick_14">
     <g id="line2d_14">
      <g>
       <use style="stroke:#000000;stroke-width:0.6;" x="234.834748" xlink:href="#m91fba7cb04" y="307.584"/>
      </g>
     </g>
    </g>
    <g id="xtick_15">
     <g id="line2d_15">
      <g>
       <use style="stroke:#000000;stroke-width:0.6;" x="244.311394" xlink:href="#m91fba7cb04" y="307.584"/>
      </g>
     </g>
    </g>
    <g id="xtick_16">
     <g id="line2d_16">
      <g>
       <use style="stroke:#000000;stroke-width:0.6;" x="252.520437" xlink:href="#m91fba7cb04" y="307.584"/>
      </g>
     </g>
    </g>
    <g id="xtick_17">
     <g id="line2d_17">
      <g>
       <use style="stroke:#000000;stroke-width:0.6;" x="259.761327" xlink:href="#m91fba7cb04" y="307.584"/>
      </g>
     </g>
    </g>
    <g id="xtick_18">
     <g id="line2d_18">
      <g>
       <use style="stroke:#000000;stroke-width:0.6;" x="308.850791" xlink:href="#m91fba7cb04" y="307.584"/>
      </g>
     </g>
    </g>
    <g id="xtick_19">
     <g id="line2d_19">
      <g>
       <use style="stroke:#000000;stroke-width:0.6;" x="333.77737" xlink:href="#m91fba7cb04" y="307.584"/>
      </g>
     </g>
    </g>
    <g id="xtick_20">
     <g id="line2d_20">
      <g>
       <use style="stroke:#000000;stroke-width:0.6;" x="351.463059" xlink:href="#m91fba7cb04" y="307.584"/>
      </g>
     </g>
    </g>
    <g id="xtick_21">
     <g id="line2d_21">
      <g>
       <use style="stroke:#000000;stroke-width:0.6;" x="365.181145" xlink:href="#m91fba7cb04" y="307.584"/>
      </g>
     </g>
    </g>
    <g id="xtick_22">
     <g id="line2d_22">
      <g>
       <use style="stroke:#000000;stroke-width:0.6;" x="376.389637" xlink:href="#m91fba7cb04" y="307.584"/>
      </g>
     </g>
    </g>
    <g id="xtick_23">
     <g id="line2d_23">
      <g>
       <use style="stroke:#000000;stroke-width:0.6;" x="385.866283" xlink:href="#m91fba7cb04" y="307.584"/>
      </g>
     </g>
    </g>
    <g id="xtick_24">
     <g id="line2d_24">
      <g>
       <use style="stroke:#000000;stroke-width:0.6;" x="394.075326" xlink:href="#m91fba7cb04" y="307.584"/>
      </g>
     </g>
    </g>
    <g id="xtick_25">
     <g id="line2d_25">
      <g>
       <use style="stroke:#000000;stroke-width:0.6;" x="401.316216" xlink:href="#m91fba7cb04" y="307.584"/>
      </g>
     </g>
    </g>
    <g id="text_4">
     <!-- Execution time (s) -->
     <defs>
      <path d="M 9.8125 72.90625 
L 55.90625 72.90625 
L 55.90625 64.59375 
L 19.671875 64.59375 
L 19.671875 43.015625 
L 54.390625 43.015625 
L 54.390625 34.71875 
L 19.671875 34.71875 
L 19.671875 8.296875 
L 56.78125 8.296875 
L 56.78125 0 
L 9.8125 0 
z
" id="DejaVuSans-45"/>
      <path d="M 54.890625 54.6875 
L 35.109375 28.078125 
L 55.90625 0 
L 45.3125 0 
L 29.390625 21.484375 
L 13.484375 0 
L 2.875 0 
L 24.125 28.609375 
L 4.6875 54.6875 
L 15.28125 54.6875 
L 29.78125 35.203125 
L 44.28125 54.6875 
z
" id="DejaVuSans-78"/>
      <path d="M 56.203125 29.59375 
L 56.203125 25.203125 
L 14.890625 25.203125 
Q 15.484375 15.921875 20.484375 11.0625 
Q 25.484375 6.203125 34.421875 6.203125 
Q 39.59375 6.203125 44.453125 7.46875 
Q 49.3125 8.734375 54.109375 11.28125 
L 54.109375 2.78125 
Q 49.265625 0.734375 44.1875 -0.34375 
Q 39.109375 -1.421875 33.890625 -1.421875 
Q 20.796875 -1.421875 13.15625 6.1875 
Q 5.515625 13.8125 5.515625 26.8125 
Q 5.515625 40.234375 12.765625 48.109375 
Q 20.015625 56 32.328125 56 
Q 43.359375 56 49.78125 48.890625 
Q 56.203125 41.796875 56.203125 29.59375 
z
M 47.21875 32.234375 
Q 47.125 39.59375 43.09375 43.984375 
Q 39.0625 48.390625 32.421875 48.390625 
Q 24.90625 48.390625 20.390625 44.140625 
Q 15.875 39.890625 15.1875 32.171875 
z
" id="DejaVuSans-65"/>
      <path d="M 48.78125 52.59375 
L 48.78125 44.1875 
Q 44.96875 46.296875 41.140625 47.34375 
Q 37.3125 48.390625 33.40625 48.390625 
Q 24.65625 48.390625 19.8125 42.84375 
Q 14.984375 37.3125 14.984375 27.296875 
Q 14.984375 17.28125 19.8125 11.734375 
Q 24.65625 6.203125 33.40625 6.203125 
Q 37.3125 6.203125 41.140625 7.25 
Q 44.96875 8.296875 48.78125 10.40625 
L 48.78125 2.09375 
Q 45.015625 0.34375 40.984375 -0.53125 
Q 36.96875 -1.421875 32.421875 -1.421875 
Q 20.0625 -1.421875 12.78125 6.34375 
Q 5.515625 14.109375 5.515625 27.296875 
Q 5.515625 40.671875 12.859375 48.328125 
Q 20.21875 56 33.015625 56 
Q 37.15625 56 41.109375 55.140625 
Q 45.0625 54.296875 48.78125 52.59375 
z
" id="DejaVuSans-63"/>
      <path d="M 8.5 21.578125 
L 8.5 54.6875 
L 17.484375 54.6875 
L 17.484375 21.921875 
Q 17.484375 14.15625 20.5 10.265625 
Q 23.53125 6.390625 29.59375 6.390625 
Q 36.859375 6.390625 41.078125 11.03125 
Q 45.3125 15.671875 45.3125 23.6875 
L 45.3125 54.6875 
L 54.296875 54.6875 
L 54.296875 0 
L 45.3125 0 
L 45.3125 8.40625 
Q 42.046875 3.421875 37.71875 1 
Q 33.40625 -1.421875 27.6875 -1.421875 
Q 18.265625 -1.421875 13.375 4.4375 
Q 8.5 10.296875 8.5 21.578125 
z
M 31.109375 56 
z
" id="DejaVuSans-75"/>
      <path d="M 18.3125 70.21875 
L 18.3125 54.6875 
L 36.8125 54.6875 
L 36.8125 47.703125 
L 18.3125 47.703125 
L 18.3125 18.015625 
Q 18.3125 11.328125 20.140625 9.421875 
Q 21.96875 7.515625 27.59375 7.515625 
L 36.8125 7.515625 
L 36.8125 0 
L 27.59375 0 
Q 17.1875 0 13.234375 3.875 
Q 9.28125 7.765625 9.28125 18.015625 
L 9.28125 47.703125 
L 2.6875 47.703125 
L 2.6875 54.6875 
L 9.28125 54.6875 
L 9.28125 70.21875 
z
" id="DejaVuSans-74"/>
      <path d="M 9.421875 54.6875 
L 18.40625 54.6875 
L 18.40625 0 
L 9.421875 0 
z
M 9.421875 75.984375 
L 18.40625 75.984375 
L 18.40625 64.59375 
L 9.421875 64.59375 
z
" id="DejaVuSans-69"/>
      <path d="M 30.609375 48.390625 
Q 23.390625 48.390625 19.1875 42.75 
Q 14.984375 37.109375 14.984375 27.296875 
Q 14.984375 17.484375 19.15625 11.84375 
Q 23.34375 6.203125 30.609375 6.203125 
Q 37.796875 6.203125 41.984375 11.859375 
Q 46.1875 17.53125 46.1875 27.296875 
Q 46.1875 37.015625 41.984375 42.703125 
Q 37.796875 48.390625 30.609375 48.390625 
z
M 30.609375 56 
Q 42.328125 56 49.015625 48.375 
Q 55.71875 40.765625 55.71875 27.296875 
Q 55.71875 13.875 49.015625 6.21875 
Q 42.328125 -1.421875 30.609375 -1.421875 
Q 18.84375 -1.421875 12.171875 6.21875 
Q 5.515625 13.875 5.515625 27.296875 
Q 5.515625 40.765625 12.171875 48.375 
Q 18.84375 56 30.609375 56 
z
" id="DejaVuSans-6f"/>
      <path d="M 54.890625 33.015625 
L 54.890625 0 
L 45.90625 0 
L 45.90625 32.71875 
Q 45.90625 40.484375 42.875 44.328125 
Q 39.84375 48.1875 33.796875 48.1875 
Q 26.515625 48.1875 22.3125 43.546875 
Q 18.109375 38.921875 18.109375 30.90625 
L 18.109375 0 
L 9.078125 0 
L 9.078125 54.6875 
L 18.109375 54.6875 
L 18.109375 46.1875 
Q 21.34375 51.125 25.703125 53.5625 
Q 30.078125 56 35.796875 56 
Q 45.21875 56 50.046875 50.171875 
Q 54.890625 44.34375 54.890625 33.015625 
z
" id="DejaVuSans-6e"/>
      <path id="DejaVuSans-20"/>
      <path d="M 52 44.1875 
Q 55.375 50.25 60.0625 53.125 
Q 64.75 56 71.09375 56 
Q 79.640625 56 84.28125 50.015625 
Q 88.921875 44.046875 88.921875 33.015625 
L 88.921875 0 
L 79.890625 0 
L 79.890625 32.71875 
Q 79.890625 40.578125 77.09375 44.375 
Q 74.3125 48.1875 68.609375 48.1875 
Q 61.625 48.1875 57.5625 43.546875 
Q 53.515625 38.921875 53.515625 30.90625 
L 53.515625 0 
L 44.484375 0 
L 44.484375 32.71875 
Q 44.484375 40.625 41.703125 44.40625 
Q 38.921875 48.1875 33.109375 48.1875 
Q 26.21875 48.1875 22.15625 43.53125 
Q 18.109375 38.875 18.109375 30.90625 
L 18.109375 0 
L 9.078125 0 
L 9.078125 54.6875 
L 18.109375 54.6875 
L 18.109375 46.1875 
Q 21.1875 51.21875 25.484375 53.609375 
Q 29.78125 56 35.6875 56 
Q 41.65625 56 45.828125 52.96875 
Q 50 49.953125 52 44.1875 
z
" id="DejaVuSans-6d"/>
      <path d="M 31 75.875 
Q 24.46875 64.65625 21.28125 53.65625 
Q 18.109375 42.671875 18.109375 31.390625 
Q 18.109375 20.125 21.3125 9.0625 
Q 24.515625 -2 31 -13.1875 
L 23.1875 -13.1875 
Q 15.875 -1.703125 12.234375 9.375 
Q 8.59375 20.453125 8.59375 31.390625 
Q 8.59375 42.28125 12.203125 53.3125 
Q 15.828125 64.359375 23.1875 75.875 
z
" id="DejaVuSans-28"/>
      <path d="M 44.28125 53.078125 
L 44.28125 44.578125 
Q 40.484375 46.53125 36.375 47.5 
Q 32.28125 48.484375 27.875 48.484375 
Q 21.1875 48.484375 17.84375 46.4375 
Q 14.5 44.390625 14.5 40.28125 
Q 14.5 37.15625 16.890625 35.375 
Q 19.28125 33.59375 26.515625 31.984375 
L 29.59375 31.296875 
Q 39.15625 29.25 43.1875 25.515625 
Q 47.21875 21.78125 47.21875 15.09375 
Q 47.21875 7.46875 41.1875 3.015625 
Q 35.15625 -1.421875 24.609375 -1.421875 
Q 20.21875 -1.421875 15.453125 -0.5625 
Q 10.6875 0.296875 5.421875 2 
L 5.421875 11.28125 
Q 10.40625 8.6875 15.234375 7.390625 
Q 20.0625 6.109375 24.8125 6.109375 
Q 31.15625 6.109375 34.5625 8.28125 
Q 37.984375 10.453125 37.984375 14.40625 
Q 37.984375 18.0625 35.515625 20.015625 
Q 33.0625 21.96875 24.703125 23.78125 
L 21.578125 24.515625 
Q 13.234375 26.265625 9.515625 29.90625 
Q 5.8125 33.546875 5.8125 39.890625 
Q 5.8125 47.609375 11.28125 51.796875 
Q 16.75 56 26.8125 56 
Q 31.78125 56 36.171875 55.265625 
Q 40.578125 54.546875 44.28125 53.078125 
z
" id="DejaVuSans-73"/>
      <path d="M 8.015625 75.875 
L 15.828125 75.875 
Q 23.140625 64.359375 26.78125 53.3125 
Q 30.421875 42.28125 30.421875 31.390625 
Q 30.421875 20.453125 26.78125 9.375 
Q 23.140625 -1.703125 15.828125 -13.1875 
L 8.015625 -13.1875 
Q 14.5 -2 17.703125 9.0625 
Q 20.90625 20.125 20.90625 31.390625 
Q 20.90625 42.671875 17.703125 53.65625 
Q 14.5 64.65625 8.015625 75.875 
z
" id="DejaVuSans-29"/>
     </defs>
     <g transform="translate(190.49125 335.860562)scale(0.1 -0.1)">
      <use xlink:href="#DejaVuSans-45"/>
      <use x="63.183594" xlink:href="#DejaVuSans-78"/>
      <use x="122.316406" xlink:href="#DejaVuSans-65"/>
      <use x="183.839844" xlink:href="#DejaVuSans-63"/>
      <use x="238.820312" xlink:href="#DejaVuSans-75"/>
      <use x="302.199219" xlink:href="#DejaVuSans-74"/>
      <use x="341.408203" xlink:href="#DejaVuSans-69"/>
      <use x="369.191406" xlink:href="#DejaVuSans-6f"/>
      <use x="430.373047" xlink:href="#DejaVuSans-6e"/>
      <use x="493.751953" xlink:href="#DejaVuSans-20"/>
      <use x="525.539062" xlink:href="#DejaVuSans-74"/>
      <use x="564.748047" xlink:href="#DejaVuSans-69"/>
      <use x="592.53125" xlink:href="#DejaVuSans-6d"/>
      <use x="689.943359" xlink:href="#DejaVuSans-65"/>
      <use x="751.466797" xlink:href="#DejaVuSans-20"/>
      <use x="783.253906" xlink:href="#DejaVuSans-28"/>
      <use x="822.267578" xlink:href="#DejaVuSans-73"/>
      <use x="874.367188" xlink:href="#DejaVuSans-29"/>
     </g>
    </g>
   </g>
   <g id="matplotlib.axis_2">
    <g id="ytick_1">
     <g id="line2d_26">
      <defs>
       <path d="M 0 0 
L -3.5 0 
" id="mb83987f19f" style="stroke:#000000;stroke-width:0.8;"/>
      </defs>
      <g>
       <use style="stroke:#000000;stroke-width:0.8;" x="57.6" xlink:href="#mb83987f19f" y="292.37315"/>
      </g>
     </g>
     <g id="text_5">
      <!-- 400 -->
      <g transform="translate(31.5125 296.172369)scale(0.1 -0.1)">
       <use xlink:href="#DejaVuSans-34"/>
       <use x="63.623047" xlink:href="#DejaVuSans-30"/>
       <use x="127.246094" xlink:href="#DejaVuSans-30"/>
      </g>
     </g>
    </g>
    <g id="ytick_2">
     <g id="line2d_27">
      <g>
       <use style="stroke:#000000;stroke-width:0.8;" x="57.6" xlink:href="#mb83987f19f" y="240.458987"/>
      </g>
     </g>
     <g id="text_6">
      <!-- 450 -->
      <g transform="translate(31.5125 244.258206)scale(0.1 -0.1)">
       <use xlink:href="#DejaVuSans-34"/>
       <use x="63.623047" xlink:href="#DejaVuSans-35"/>
       <use x="127.246094" xlink:href="#DejaVuSans-30"/>
      </g>
     </g>
    </g>
    <g id="ytick_3">
     <g id="line2d_28">
      <g>
       <use style="stroke:#000000;stroke-width:0.8;" x="57.6" xlink:href="#mb83987f19f" y="188.544824"/>
      </g>
     </g>
     <g id="text_7">
      <!-- 500 -->
      <g transform="translate(31.5125 192.344043)scale(0.1 -0.1)">
       <use xlink:href="#DejaVuSans-35"/>
       <use x="63.623047" xlink:href="#DejaVuSans-30"/>
       <use x="127.246094" xlink:href="#DejaVuSans-30"/>
      </g>
     </g>
    </g>
    <g id="ytick_4">
     <g id="line2d_29">
      <g>
       <use style="stroke:#000000;stroke-width:0.8;" x="57.6" xlink:href="#mb83987f19f" y="136.630661"/>
      </g>
     </g>
     <g id="text_8">
      <!-- 550 -->
      <g transform="translate(31.5125 140.42988)scale(0.1 -0.1)">
       <use xlink:href="#DejaVuSans-35"/>
       <use x="63.623047" xlink:href="#DejaVuSans-35"/>
       <use x="127.246094" xlink:href="#DejaVuSans-30"/>
      </g>
     </g>
    </g>
    <g id="ytick_5">
     <g id="line2d_30">
      <g>
       <use style="stroke:#000000;stroke-width:0.8;" x="57.6" xlink:href="#mb83987f19f" y="84.716498"/>
      </g>
     </g>
     <g id="text_9">
      <!-- 600 -->
      <defs>
       <path d="M 33.015625 40.375 
Q 26.375 40.375 22.484375 35.828125 
Q 18.609375 31.296875 18.609375 23.390625 
Q 18.609375 15.53125 22.484375 10.953125 
Q 26.375 6.390625 33.015625 6.390625 
Q 39.65625 6.390625 43.53125 10.953125 
Q 47.40625 15.53125 47.40625 23.390625 
Q 47.40625 31.296875 43.53125 35.828125 
Q 39.65625 40.375 33.015625 40.375 
z
M 52.59375 71.296875 
L 52.59375 62.3125 
Q 48.875 64.0625 45.09375 64.984375 
Q 41.3125 65.921875 37.59375 65.921875 
Q 27.828125 65.921875 22.671875 59.328125 
Q 17.53125 52.734375 16.796875 39.40625 
Q 19.671875 43.65625 24.015625 45.921875 
Q 28.375 48.1875 33.59375 48.1875 
Q 44.578125 48.1875 50.953125 41.515625 
Q 57.328125 34.859375 57.328125 23.390625 
Q 57.328125 12.15625 50.6875 5.359375 
Q 44.046875 -1.421875 33.015625 -1.421875 
Q 20.359375 -1.421875 13.671875 8.265625 
Q 6.984375 17.96875 6.984375 36.375 
Q 6.984375 53.65625 15.1875 63.9375 
Q 23.390625 74.21875 37.203125 74.21875 
Q 40.921875 74.21875 44.703125 73.484375 
Q 48.484375 72.75 52.59375 71.296875 
z
" id="DejaVuSans-36"/>
      </defs>
      <g transform="translate(31.5125 88.515717)scale(0.1 -0.1)">
       <use xlink:href="#DejaVuSans-36"/>
       <use x="63.623047" xlink:href="#DejaVuSans-30"/>
       <use x="127.246094" xlink:href="#DejaVuSans-30"/>
      </g>
     </g>
    </g>
    <g id="text_10">
     <!-- Number of core species -->
     <defs>
      <path d="M 9.8125 72.90625 
L 23.09375 72.90625 
L 55.421875 11.921875 
L 55.421875 72.90625 
L 64.984375 72.90625 
L 64.984375 0 
L 51.703125 0 
L 19.390625 60.984375 
L 19.390625 0 
L 9.8125 0 
z
" id="DejaVuSans-4e"/>
      <path d="M 48.6875 27.296875 
Q 48.6875 37.203125 44.609375 42.84375 
Q 40.53125 48.484375 33.40625 48.484375 
Q 26.265625 48.484375 22.1875 42.84375 
Q 18.109375 37.203125 18.109375 27.296875 
Q 18.109375 17.390625 22.1875 11.75 
Q 26.265625 6.109375 33.40625 6.109375 
Q 40.53125 6.109375 44.609375 11.75 
Q 48.6875 17.390625 48.6875 27.296875 
z
M 18.109375 46.390625 
Q 20.953125 51.265625 25.265625 53.625 
Q 29.59375 56 35.59375 56 
Q 45.5625 56 51.78125 48.09375 
Q 58.015625 40.1875 58.015625 27.296875 
Q 58.015625 14.40625 51.78125 6.484375 
Q 45.5625 -1.421875 35.59375 -1.421875 
Q 29.59375 -1.421875 25.265625 0.953125 
Q 20.953125 3.328125 18.109375 8.203125 
L 18.109375 0 
L 9.078125 0 
L 9.078125 75.984375 
L 18.109375 75.984375 
z
" id="DejaVuSans-62"/>
      <path d="M 41.109375 46.296875 
Q 39.59375 47.171875 37.8125 47.578125 
Q 36.03125 48 33.890625 48 
Q 26.265625 48 22.1875 43.046875 
Q 18.109375 38.09375 18.109375 28.8125 
L 18.109375 0 
L 9.078125 0 
L 9.078125 54.6875 
L 18.109375 54.6875 
L 18.109375 46.1875 
Q 20.953125 51.171875 25.484375 53.578125 
Q 30.03125 56 36.53125 56 
Q 37.453125 56 38.578125 55.875 
Q 39.703125 55.765625 41.0625 55.515625 
z
" id="DejaVuSans-72"/>
      <path d="M 37.109375 75.984375 
L 37.109375 68.5 
L 28.515625 68.5 
Q 23.6875 68.5 21.796875 66.546875 
Q 19.921875 64.59375 19.921875 59.515625 
L 19.921875 54.6875 
L 34.71875 54.6875 
L 34.71875 47.703125 
L 19.921875 47.703125 
L 19.921875 0 
L 10.890625 0 
L 10.890625 47.703125 
L 2.296875 47.703125 
L 2.296875 54.6875 
L 10.890625 54.6875 
L 10.890625 58.5 
Q 10.890625 67.625 15.140625 71.796875 
Q 19.390625 75.984375 28.609375 75.984375 
z
" id="DejaVuSans-66"/>
      <path d="M 18.109375 8.203125 
L 18.109375 -20.796875 
L 9.078125 -20.796875 
L 9.078125 54.6875 
L 18.109375 54.6875 
L 18.109375 46.390625 
Q 20.953125 51.265625 25.265625 53.625 
Q 29.59375 56 35.59375 56 
Q 45.5625 56 51.78125 48.09375 
Q 58.015625 40.1875 58.015625 27.296875 
Q 58.015625 14.40625 51.78125 6.484375 
Q 45.5625 -1.421875 35.59375 -1.421875 
Q 29.59375 -1.421875 25.265625 0.953125 
Q 20.953125 3.328125 18.109375 8.203125 
z
M 48.6875 27.296875 
Q 48.6875 37.203125 44.609375 42.84375 
Q 40.53125 48.484375 33.40625 48.484375 
Q 26.265625 48.484375 22.1875 42.84375 
Q 18.109375 37.203125 18.109375 27.296875 
Q 18.109375 17.390625 22.1875 11.75 
Q 26.265625 6.109375 33.40625 6.109375 
Q 40.53125 6.109375 44.609375 11.75 
Q 48.6875 17.390625 48.6875 27.296875 
z
" id="DejaVuSans-70"/>
     </defs>
     <g transform="translate(25.432812 233.814719)rotate(-90)scale(0.1 -0.1)">
      <use xlink:href="#DejaVuSans-4e"/>
      <use x="74.804688" xlink:href="#DejaVuSans-75"/>
      <use x="138.183594" xlink:href="#DejaVuSans-6d"/>
      <use x="235.595703" xlink:href="#DejaVuSans-62"/>
      <use x="299.072266" xlink:href="#DejaVuSans-65"/>
      <use x="360.595703" xlink:href="#DejaVuSans-72"/>
      <use x="401.708984" xlink:href="#DejaVuSans-20"/>
      <use x="433.496094" xlink:href="#DejaVuSans-6f"/>
      <use x="494.677734" xlink:href="#DejaVuSans-66"/>
      <use x="529.882812" xlink:href="#DejaVuSans-20"/>
      <use x="561.669922" xlink:href="#DejaVuSans-63"/>
      <use x="616.650391" xlink:href="#DejaVuSans-6f"/>
      <use x="677.832031" xlink:href="#DejaVuSans-72"/>
      <use x="718.914062" xlink:href="#DejaVuSans-65"/>
      <use x="780.4375" xlink:href="#DejaVuSans-20"/>
      <use x="812.224609" xlink:href="#DejaVuSans-73"/>
      <use x="864.324219" xlink:href="#DejaVuSans-70"/>
      <use x="927.800781" xlink:href="#DejaVuSans-65"/>
      <use x="989.324219" xlink:href="#DejaVuSans-63"/>
      <use x="1044.304688" xlink:href="#DejaVuSans-69"/>
      <use x="1072.087891" xlink:href="#DejaVuSans-65"/>
      <use x="1133.611328" xlink:href="#DejaVuSans-73"/>
     </g>
    </g>
   </g>
   <g id="line2d_31">
    <path clip-path="url(#pa5e68d970d)" d="M 73.832727 295.488 
L 236.935081 294.449717 
L 242.997385 293.411433 
L 252.380704 293.411433 
L 253.74702 293.411433 
L 258.932481 292.37315 
L 260.649495 292.37315 
L 271.176028 288.220017 
L 275.811849 284.066884 
L 281.520638 279.913751 
L 284.257849 275.760618 
L 287.646225 271.607485 
L 292.278102 267.454352 
L 297.190865 263.301219 
L 301.828117 259.148086 
L 304.858456 254.994953 
L 310.601336 250.84182 
L 312.864699 246.688687 
L 315.208424 242.535554 
L 318.023445 238.382421 
L 320.106492 234.229288 
L 322.204709 230.076155 
L 323.526243 225.923021 
L 325.879342 221.769888 
L 327.784516 217.616755 
L 330.15641 213.463622 
L 333.259941 209.310489 
L 335.072055 207.233923 
L 336.799576 203.08079 
L 339.21366 198.927657 
L 341.16045 194.774524 
L 342.86847 191.659674 
L 345.252251 187.506541 
L 346.54062 183.353408 
L 348.424031 179.200275 
L 350.945175 175.047142 
L 352.296715 170.894009 
L 356.571616 166.740876 
L 359.295908 162.587742 
L 361.394923 158.434609 
L 362.668137 154.281476 
L 364.669853 150.128343 
L 367.891681 145.97521 
L 369.47196 141.822077 
L 370.769825 137.668944 
L 372.468576 133.515811 
L 373.61211 129.362678 
L 375.208891 125.209545 
L 376.693838 121.056412 
L 377.953097 118.979845 
L 379.072806 114.826712 
L 380.295127 110.673579 
L 381.850084 106.520446 
L 383.579877 102.367313 
L 384.590432 98.21418 
L 385.672453 94.061047 
L 387.185428 89.907914 
L 388.173912 85.754781 
L 389.119738 81.601648 
L 390.657061 77.448515 
L 391.706467 73.295382 
L 393.602173 69.142249 
L 394.588345 64.989116 
L 395.458261 60.835983 
L 397.073099 57.721133 
L 398.487273 53.568 
" style="fill:none;stroke:#0000ff;stroke-linecap:square;stroke-width:1.5;"/>
    <defs>
     <path d="M 0 3 
C 0.795609 3 1.55874 2.683901 2.12132 2.12132 
C 2.683901 1.55874 3 0.795609 3 0 
C 3 -0.795609 2.683901 -1.55874 2.12132 -2.12132 
C 1.55874 -2.683901 0.795609 -3 0 -3 
C -0.795609 -3 -1.55874 -2.683901 -2.12132 -2.12132 
C -2.683901 -1.55874 -3 -0.795609 -3 0 
C -3 0.795609 -2.683901 1.55874 -2.12132 2.12132 
C -1.55874 2.683901 -0.795609 3 0 3 
z
" id="m3638b02220" style="stroke:#0000ff;"/>
    </defs>
    <g clip-path="url(#pa5e68d970d)">
     <use style="fill:#0000ff;stroke:#0000ff;" x="73.832727" xlink:href="#m3638b02220" y="295.488"/>
     <use style="fill:#0000ff;stroke:#0000ff;" x="236.935081" xlink:href="#m3638b02220" y="294.449717"/>
     <use style="fill:#0000ff;stroke:#0000ff;" x="242.997385" xlink:href="#m3638b02220" y="293.411433"/>
     <use style="fill:#0000ff;stroke:#0000ff;" x="252.380704" xlink:href="#m3638b02220" y="293.411433"/>
     <use style="fill:#0000ff;stroke:#0000ff;" x="253.74702" xlink:href="#m3638b02220" y="293.411433"/>
     <use style="fill:#0000ff;stroke:#0000ff;" x="258.932481" xlink:href="#m3638b02220" y="292.37315"/>
     <use style="fill:#0000ff;stroke:#0000ff;" x="260.649495" xlink:href="#m3638b02220" y="292.37315"/>
     <use style="fill:#0000ff;stroke:#0000ff;" x="271.176028" xlink:href="#m3638b02220" y="288.220017"/>
     <use style="fill:#0000ff;stroke:#0000ff;" x="275.811849" xlink:href="#m3638b02220" y="284.066884"/>
     <use style="fill:#0000ff;stroke:#0000ff;" x="281.520638" xlink:href="#m3638b02220" y="279.913751"/>
     <use style="fill:#0000ff;stroke:#0000ff;" x="284.257849" xlink:href="#m3638b02220" y="275.760618"/>
     <use style="fill:#0000ff;stroke:#0000ff;" x="287.646225" xlink:href="#m3638b02220" y="271.607485"/>
     <use style="fill:#0000ff;stroke:#0000ff;" x="292.278102" xlink:href="#m3638b02220" y="267.454352"/>
     <use style="fill:#0000ff;stroke:#0000ff;" x="297.190865" xlink:href="#m3638b02220" y="263.301219"/>
     <use style="fill:#0000ff;stroke:#0000ff;" x="301.828117" xlink:href="#m3638b02220" y="259.148086"/>
     <use style="fill:#0000ff;stroke:#0000ff;" x="304.858456" xlink:href="#m3638b02220" y="254.994953"/>
     <use style="fill:#0000ff;stroke:#0000ff;" x="310.601336" xlink:href="#m3638b02220" y="250.84182"/>
     <use style="fill:#0000ff;stroke:#0000ff;" x="312.864699" xlink:href="#m3638b02220" y="246.688687"/>
     <use style="fill:#0000ff;stroke:#0000ff;" x="315.208424" xlink:href="#m3638b02220" y="242.535554"/>
     <use style="fill:#0000ff;stroke:#0000ff;" x="318.023445" xlink:href="#m3638b02220" y="238.382421"/>
     <use style="fill:#0000ff;stroke:#0000ff;" x="320.106492" xlink:href="#m3638b02220" y="234.229288"/>
     <use style="fill:#0000ff;stroke:#0000ff;" x="322.204709" xlink:href="#m3638b02220" y="230.076155"/>
     <use style="fill:#0000ff;stroke:#0000ff;" x="323.526243" xlink:href="#m3638b02220" y="225.923021"/>
     <use style="fill:#0000ff;stroke:#0000ff;" x="325.879342" xlink:href="#m3638b02220" y="221.769888"/>
     <use style="fill:#0000ff;stroke:#0000ff;" x="327.784516" xlink:href="#m3638b02220" y="217.616755"/>
     <use style="fill:#0000ff;stroke:#0000ff;" x="330.15641" xlink:href="#m3638b02220" y="213.463622"/>
     <use style="fill:#0000ff;stroke:#0000ff;" x="333.259941" xlink:href="#m3638b02220" y="209.310489"/>
     <use style="fill:#0000ff;stroke:#0000ff;" x="335.072055" xlink:href="#m3638b02220" y="207.233923"/>
     <use style="fill:#0000ff;stroke:#0000ff;" x="336.799576" xlink:href="#m3638b02220" y="203.08079"/>
     <use style="fill:#0000ff;stroke:#0000ff;" x="339.21366" xlink:href="#m3638b02220" y="198.927657"/>
     <use style="fill:#0000ff;stroke:#0000ff;" x="341.16045" xlink:href="#m3638b02220" y="194.774524"/>
     <use style="fill:#0000ff;stroke:#0000ff;" x="342.86847" xlink:href="#m3638b02220" y="191.659674"/>
     <use style="fill:#0000ff;stroke:#0000ff;" x="345.252251" xlink:href="#m3638b02220" y="187.506541"/>
     <use style="fill:#0000ff;stroke:#0000ff;" x="346.54062" xlink:href="#m3638b02220" y="183.353408"/>
     <use style="fill:#0000ff;stroke:#0000ff;" x="348.424031" xlink:href="#m3638b02220" y="179.200275"/>
     <use style="fill:#0000ff;stroke:#0000ff;" x="350.945175" xlink:href="#m3638b02220" y="175.047142"/>
     <use style="fill:#0000ff;stroke:#0000ff;" x="352.296715" xlink:href="#m3638b02220" y="170.894009"/>
     <use style="fill:#0000ff;stroke:#0000ff;" x="356.571616" xlink:href="#m3638b02220" y="166.740876"/>
     <use style="fill:#0000ff;stroke:#0000ff;" x="359.295908" xlink:href="#m3638b02220" y="162.587742"/>
     <use style="fill:#0000ff;stroke:#0000ff;" x="361.394923" xlink:href="#m3638b02220" y="158.434609"/>
     <use style="fill:#0000ff;stroke:#0000ff;" x="362.668137" xlink:href="#m3638b02220" y="154.281476"/>
     <use style="fill:#0000ff;stroke:#0000ff;" x="364.669853" xlink:href="#m3638b02220" y="150.128343"/>
     <use style="fill:#0000ff;stroke:#0000ff;" x="367.891681" xlink:href="#m3638b02220" y="145.97521"/>
     <use style="fill:#0000ff;stroke:#0000ff;" x="369.47196" xlink:href="#m3638b02220" y="141.822077"/>
     <use style="fill:#0000ff;stroke:#0000ff;" x="370.769825" xlink:href="#m3638b02220" y="137.668944"/>
     <use style="fill:#0000ff;stroke:#0000ff;" x="372.468576" xlink:href="#m3638b02220" y="133.515811"/>
     <use style="fill:#0000ff;stroke:#0000ff;" x="373.61211" xlink:href="#m3638b02220" y="129.362678"/>
     <use style="fill:#0000ff;stroke:#0000ff;" x="375.208891" xlink:href="#m3638b02220" y="125.209545"/>
     <use style="fill:#0000ff;stroke:#0000ff;" x="376.693838" xlink:href="#m3638b02220" y="121.056412"/>
     <use style="fill:#0000ff;stroke:#0000ff;" x="377.953097" xlink:href="#m3638b02220" y="118.979845"/>
     <use style="fill:#0000ff;stroke:#0000ff;" x="379.072806" xlink:href="#m3638b02220" y="114.826712"/>
     <use style="fill:#0000ff;stroke:#0000ff;" x="380.295127" xlink:href="#m3638b02220" y="110.673579"/>
     <use style="fill:#0000ff;stroke:#0000ff;" x="381.850084" xlink:href="#m3638b02220" y="106.520446"/>
     <use style="fill:#0000ff;stroke:#0000ff;" x="383.579877" xlink:href="#m3638b02220" y="102.367313"/>
     <use style="fill:#0000ff;stroke:#0000ff;" x="384.590432" xlink:href="#m3638b02220" y="98.21418"/>
     <use style="fill:#0000ff;stroke:#0000ff;" x="385.672453" xlink:href="#m3638b02220" y="94.061047"/>
     <use style="fill:#0000ff;stroke:#0000ff;" x="387.185428" xlink:href="#m3638b02220" y="89.907914"/>
     <use style="fill:#0000ff;stroke:#0000ff;" x="388.173912" xlink:href="#m3638b02220" y="85.754781"/>
     <use style="fill:#0000ff;stroke:#0000ff;" x="389.119738" xlink:href="#m3638b02220" y="81.601648"/>
     <use style="fill:#0000ff;stroke:#0000ff;" x="390.657061" xlink:href="#m3638b02220" y="77.448515"/>
     <use style="fill:#0000ff;stroke:#0000ff;" x="391.706467" xlink:href="#m3638b02220" y="73.295382"/>
     <use style="fill:#0000ff;stroke:#0000ff;" x="393.602173" xlink:href="#m3638b02220" y="69.142249"/>
     <use style="fill:#0000ff;stroke:#0000ff;" x="394.588345" xlink:href="#m3638b02220" y="64.989116"/>
     <use style="fill:#0000ff;stroke:#0000ff;" x="395.458261" xlink:href="#m3638b02220" y="60.835983"/>
     <use style="fill:#0000ff;stroke:#0000ff;" x="397.073099" xlink:href="#m3638b02220" y="57.721133"/>
     <use style="fill:#0000ff;stroke:#0000ff;" x="398.487273" xlink:href="#m3638b02220" y="53.568"/>
    </g>
   </g>
   <g id="patch_3">
    <path d="M 57.6 307.584 
L 57.6 41.472 
" style="fill:none;stroke:#000000;stroke-linecap:square;stroke-linejoin:miter;stroke-width:0.8;"/>
   </g>
   <g id="patch_4">
    <path d="M 414.72 307.584 
L 414.72 41.472 
" style="fill:none;stroke:#000000;stroke-linecap:square;stroke-linejoin:miter;stroke-width:0.8;"/>
   </g>
   <g id="patch_5">
    <path d="M 57.6 307.584 
L 414.72 307.584 
" style="fill:none;stroke:#000000;stroke-linecap:square;stroke-linejoin:miter;stroke-width:0.8;"/>
   </g>
   <g id="patch_6">
    <path d="M 57.6 41.472 
L 414.72 41.472 
" style="fill:none;stroke:#000000;stroke-linecap:square;stroke-linejoin:miter;stroke-width:0.8;"/>
   </g>
  </g>
  <g id="axes_2">
   <g id="matplotlib.axis_3">
    <g id="ytick_6">
     <g id="line2d_32">
      <defs>
       <path d="M 0 0 
L 3.5 0 
" id="me066776b74" style="stroke:#000000;stroke-width:0.8;"/>
      </defs>
      <g>
       <use style="stroke:#000000;stroke-width:0.8;" x="414.72" xlink:href="#me066776b74" y="274.277733"/>
      </g>
     </g>
     <g id="text_11">
      <!-- 6000 -->
      <g transform="translate(421.72 278.076952)scale(0.1 -0.1)">
       <use xlink:href="#DejaVuSans-36"/>
       <use x="63.623047" xlink:href="#DejaVuSans-30"/>
       <use x="127.246094" xlink:href="#DejaVuSans-30"/>
       <use x="190.869141" xlink:href="#DejaVuSans-30"/>
      </g>
     </g>
    </g>
    <g id="ytick_7">
     <g id="line2d_33">
      <g>
       <use style="stroke:#000000;stroke-width:0.8;" x="414.72" xlink:href="#me066776b74" y="223.045205"/>
      </g>
     </g>
     <g id="text_12">
      <!-- 7000 -->
      <defs>
       <path d="M 8.203125 72.90625 
L 55.078125 72.90625 
L 55.078125 68.703125 
L 28.609375 0 
L 18.3125 0 
L 43.21875 64.59375 
L 8.203125 64.59375 
z
" id="DejaVuSans-37"/>
      </defs>
      <g transform="translate(421.72 226.844423)scale(0.1 -0.1)">
       <use xlink:href="#DejaVuSans-37"/>
       <use x="63.623047" xlink:href="#DejaVuSans-30"/>
       <use x="127.246094" xlink:href="#DejaVuSans-30"/>
       <use x="190.869141" xlink:href="#DejaVuSans-30"/>
      </g>
     </g>
    </g>
    <g id="ytick_8">
     <g id="line2d_34">
      <g>
       <use style="stroke:#000000;stroke-width:0.8;" x="414.72" xlink:href="#me066776b74" y="171.812676"/>
      </g>
     </g>
     <g id="text_13">
      <!-- 8000 -->
      <defs>
       <path d="M 31.78125 34.625 
Q 24.75 34.625 20.71875 30.859375 
Q 16.703125 27.09375 16.703125 20.515625 
Q 16.703125 13.921875 20.71875 10.15625 
Q 24.75 6.390625 31.78125 6.390625 
Q 38.8125 6.390625 42.859375 10.171875 
Q 46.921875 13.96875 46.921875 20.515625 
Q 46.921875 27.09375 42.890625 30.859375 
Q 38.875 34.625 31.78125 34.625 
z
M 21.921875 38.8125 
Q 15.578125 40.375 12.03125 44.71875 
Q 8.5 49.078125 8.5 55.328125 
Q 8.5 64.0625 14.71875 69.140625 
Q 20.953125 74.21875 31.78125 74.21875 
Q 42.671875 74.21875 48.875 69.140625 
Q 55.078125 64.0625 55.078125 55.328125 
Q 55.078125 49.078125 51.53125 44.71875 
Q 48 40.375 41.703125 38.8125 
Q 48.828125 37.15625 52.796875 32.3125 
Q 56.78125 27.484375 56.78125 20.515625 
Q 56.78125 9.90625 50.3125 4.234375 
Q 43.84375 -1.421875 31.78125 -1.421875 
Q 19.734375 -1.421875 13.25 4.234375 
Q 6.78125 9.90625 6.78125 20.515625 
Q 6.78125 27.484375 10.78125 32.3125 
Q 14.796875 37.15625 21.921875 38.8125 
z
M 18.3125 54.390625 
Q 18.3125 48.734375 21.84375 45.5625 
Q 25.390625 42.390625 31.78125 42.390625 
Q 38.140625 42.390625 41.71875 45.5625 
Q 45.3125 48.734375 45.3125 54.390625 
Q 45.3125 60.0625 41.71875 63.234375 
Q 38.140625 66.40625 31.78125 66.40625 
Q 25.390625 66.40625 21.84375 63.234375 
Q 18.3125 60.0625 18.3125 54.390625 
z
" id="DejaVuSans-38"/>
      </defs>
      <g transform="translate(421.72 175.611895)scale(0.1 -0.1)">
       <use xlink:href="#DejaVuSans-38"/>
       <use x="63.623047" xlink:href="#DejaVuSans-30"/>
       <use x="127.246094" xlink:href="#DejaVuSans-30"/>
       <use x="190.869141" xlink:href="#DejaVuSans-30"/>
      </g>
     </g>
    </g>
    <g id="ytick_9">
     <g id="line2d_35">
      <g>
       <use style="stroke:#000000;stroke-width:0.8;" x="414.72" xlink:href="#me066776b74" y="120.580147"/>
      </g>
     </g>
     <g id="text_14">
      <!-- 9000 -->
      <defs>
       <path d="M 10.984375 1.515625 
L 10.984375 10.5 
Q 14.703125 8.734375 18.5 7.8125 
Q 22.3125 6.890625 25.984375 6.890625 
Q 35.75 6.890625 40.890625 13.453125 
Q 46.046875 20.015625 46.78125 33.40625 
Q 43.953125 29.203125 39.59375 26.953125 
Q 35.25 24.703125 29.984375 24.703125 
Q 19.046875 24.703125 12.671875 31.3125 
Q 6.296875 37.9375 6.296875 49.421875 
Q 6.296875 60.640625 12.9375 67.421875 
Q 19.578125 74.21875 30.609375 74.21875 
Q 43.265625 74.21875 49.921875 64.515625 
Q 56.59375 54.828125 56.59375 36.375 
Q 56.59375 19.140625 48.40625 8.859375 
Q 40.234375 -1.421875 26.421875 -1.421875 
Q 22.703125 -1.421875 18.890625 -0.6875 
Q 15.09375 0.046875 10.984375 1.515625 
z
M 30.609375 32.421875 
Q 37.25 32.421875 41.125 36.953125 
Q 45.015625 41.5 45.015625 49.421875 
Q 45.015625 57.28125 41.125 61.84375 
Q 37.25 66.40625 30.609375 66.40625 
Q 23.96875 66.40625 20.09375 61.84375 
Q 16.21875 57.28125 16.21875 49.421875 
Q 16.21875 41.5 20.09375 36.953125 
Q 23.96875 32.421875 30.609375 32.421875 
z
" id="DejaVuSans-39"/>
      </defs>
      <g transform="translate(421.72 124.379366)scale(0.1 -0.1)">
       <use xlink:href="#DejaVuSans-39"/>
       <use x="63.623047" xlink:href="#DejaVuSans-30"/>
       <use x="127.246094" xlink:href="#DejaVuSans-30"/>
       <use x="190.869141" xlink:href="#DejaVuSans-30"/>
      </g>
     </g>
    </g>
    <g id="ytick_10">
     <g id="line2d_36">
      <g>
       <use style="stroke:#000000;stroke-width:0.8;" x="414.72" xlink:href="#me066776b74" y="69.347619"/>
      </g>
     </g>
     <g id="text_15">
      <!-- 10000 -->
      <g transform="translate(421.72 73.146838)scale(0.1 -0.1)">
       <use xlink:href="#DejaVuSans-31"/>
       <use x="63.623047" xlink:href="#DejaVuSans-30"/>
       <use x="127.246094" xlink:href="#DejaVuSans-30"/>
       <use x="190.869141" xlink:href="#DejaVuSans-30"/>
       <use x="254.492188" xlink:href="#DejaVuSans-30"/>
      </g>
     </g>
    </g>
    <g id="text_16">
     <!-- Number of core reactions -->
     <defs>
      <path d="M 34.28125 27.484375 
Q 23.390625 27.484375 19.1875 25 
Q 14.984375 22.515625 14.984375 16.5 
Q 14.984375 11.71875 18.140625 8.90625 
Q 21.296875 6.109375 26.703125 6.109375 
Q 34.1875 6.109375 38.703125 11.40625 
Q 43.21875 16.703125 43.21875 25.484375 
L 43.21875 27.484375 
z
M 52.203125 31.203125 
L 52.203125 0 
L 43.21875 0 
L 43.21875 8.296875 
Q 40.140625 3.328125 35.546875 0.953125 
Q 30.953125 -1.421875 24.3125 -1.421875 
Q 15.921875 -1.421875 10.953125 3.296875 
Q 6 8.015625 6 15.921875 
Q 6 25.140625 12.171875 29.828125 
Q 18.359375 34.515625 30.609375 34.515625 
L 43.21875 34.515625 
L 43.21875 35.40625 
Q 43.21875 41.609375 39.140625 45 
Q 35.0625 48.390625 27.6875 48.390625 
Q 23 48.390625 18.546875 47.265625 
Q 14.109375 46.140625 10.015625 43.890625 
L 10.015625 52.203125 
Q 14.9375 54.109375 19.578125 55.046875 
Q 24.21875 56 28.609375 56 
Q 40.484375 56 46.34375 49.84375 
Q 52.203125 43.703125 52.203125 31.203125 
z
" id="DejaVuSans-61"/>
     </defs>
     <g transform="translate(465.130938 238.2655)rotate(-90)scale(0.1 -0.1)">
      <use xlink:href="#DejaVuSans-4e"/>
      <use x="74.804688" xlink:href="#DejaVuSans-75"/>
      <use x="138.183594" xlink:href="#DejaVuSans-6d"/>
      <use x="235.595703" xlink:href="#DejaVuSans-62"/>
      <use x="299.072266" xlink:href="#DejaVuSans-65"/>
      <use x="360.595703" xlink:href="#DejaVuSans-72"/>
      <use x="401.708984" xlink:href="#DejaVuSans-20"/>
      <use x="433.496094" xlink:href="#DejaVuSans-6f"/>
      <use x="494.677734" xlink:href="#DejaVuSans-66"/>
      <use x="529.882812" xlink:href="#DejaVuSans-20"/>
      <use x="561.669922" xlink:href="#DejaVuSans-63"/>
      <use x="616.650391" xlink:href="#DejaVuSans-6f"/>
      <use x="677.832031" xlink:href="#DejaVuSans-72"/>
      <use x="718.914062" xlink:href="#DejaVuSans-65"/>
      <use x="780.4375" xlink:href="#DejaVuSans-20"/>
      <use x="812.224609" xlink:href="#DejaVuSans-72"/>
      <use x="853.306641" xlink:href="#DejaVuSans-65"/>
      <use x="914.830078" xlink:href="#DejaVuSans-61"/>
      <use x="976.109375" xlink:href="#DejaVuSans-63"/>
      <use x="1031.089844" xlink:href="#DejaVuSans-74"/>
      <use x="1070.298828" xlink:href="#DejaVuSans-69"/>
      <use x="1098.082031" xlink:href="#DejaVuSans-6f"/>
      <use x="1159.263672" xlink:href="#DejaVuSans-6e"/>
      <use x="1222.642578" xlink:href="#DejaVuSans-73"/>
     </g>
    </g>
   </g>
   <g id="line2d_37">
    <path clip-path="url(#pa5e68d970d)" d="M 73.832727 295.488 
L 236.935081 294.053489 
L 242.997385 294.002257 
L 252.380704 294.002257 
L 253.74702 294.002257 
L 258.932481 291.184468 
L 260.649495 291.082003 
L 271.176028 281.50152 
L 275.811849 275.046221 
L 281.520638 271.101316 
L 284.257849 267.258877 
L 287.646225 264.389855 
L 292.278102 261.059741 
L 297.190865 260.701113 
L 301.828117 244.153006 
L 304.858456 243.896844 
L 310.601336 240.771659 
L 312.864699 234.931151 
L 315.208424 228.578318 
L 318.023445 210.851863 
L 320.106492 202.552193 
L 322.204709 202.29603 
L 323.526243 197.070313 
L 325.879342 195.840732 
L 327.784516 192.203222 
L 330.15641 191.024874 
L 333.259941 187.643527 
L 335.072055 187.233667 
L 336.799576 186.772574 
L 339.21366 186.516412 
L 341.16045 186.209017 
L 342.86847 185.799156 
L 345.252251 185.542994 
L 346.54062 185.184366 
L 348.424031 184.876971 
L 350.945175 178.472905 
L 352.296715 175.603883 
L 356.571616 174.271837 
L 359.295908 173.452117 
L 361.394923 167.970236 
L 362.668137 167.714074 
L 364.669853 166.945586 
L 367.891681 161.258775 
L 369.47196 160.900147 
L 370.769825 154.034989 
L 372.468576 152.549245 
L 373.61211 148.860503 
L 375.208891 146.555039 
L 376.693838 142.353972 
L 377.953097 137.128254 
L 379.072806 136.513464 
L 380.295127 128.008864 
L 381.850084 122.475751 
L 383.579877 122.270821 
L 384.590432 119.555497 
L 385.672453 118.838241 
L 387.185428 111.973083 
L 388.173912 105.927644 
L 389.119738 93.888 
L 390.657061 91.736234 
L 391.706467 86.305586 
L 393.602173 84.922307 
L 394.588345 64.173133 
L 395.458261 63.455878 
L 397.073099 57.666602 
L 398.487273 53.568 
" style="fill:none;stroke:#ff0000;stroke-linecap:square;stroke-width:1.5;"/>
    <defs>
     <path d="M 0 3 
C 0.795609 3 1.55874 2.683901 2.12132 2.12132 
C 2.683901 1.55874 3 0.795609 3 0 
C 3 -0.795609 2.683901 -1.55874 2.12132 -2.12132 
C 1.55874 -2.683901 0.795609 -3 0 -3 
C -0.795609 -3 -1.55874 -2.683901 -2.12132 -2.12132 
C -2.683901 -1.55874 -3 -0.795609 -3 0 
C -3 0.795609 -2.683901 1.55874 -2.12132 2.12132 
C -1.55874 2.683901 -0.795609 3 0 3 
z
" id="m72ac86a2a1" style="stroke:#ff0000;"/>
    </defs>
    <g clip-path="url(#pa5e68d970d)">
     <use style="fill:#ff0000;stroke:#ff0000;" x="73.832727" xlink:href="#m72ac86a2a1" y="295.488"/>
     <use style="fill:#ff0000;stroke:#ff0000;" x="236.935081" xlink:href="#m72ac86a2a1" y="294.053489"/>
     <use style="fill:#ff0000;stroke:#ff0000;" x="242.997385" xlink:href="#m72ac86a2a1" y="294.002257"/>
     <use style="fill:#ff0000;stroke:#ff0000;" x="252.380704" xlink:href="#m72ac86a2a1" y="294.002257"/>
     <use style="fill:#ff0000;stroke:#ff0000;" x="253.74702" xlink:href="#m72ac86a2a1" y="294.002257"/>
     <use style="fill:#ff0000;stroke:#ff0000;" x="258.932481" xlink:href="#m72ac86a2a1" y="291.184468"/>
     <use style="fill:#ff0000;stroke:#ff0000;" x="260.649495" xlink:href="#m72ac86a2a1" y="291.082003"/>
     <use style="fill:#ff0000;stroke:#ff0000;" x="271.176028" xlink:href="#m72ac86a2a1" y="281.50152"/>
     <use style="fill:#ff0000;stroke:#ff0000;" x="275.811849" xlink:href="#m72ac86a2a1" y="275.046221"/>
     <use style="fill:#ff0000;stroke:#ff0000;" x="281.520638" xlink:href="#m72ac86a2a1" y="271.101316"/>
     <use style="fill:#ff0000;stroke:#ff0000;" x="284.257849" xlink:href="#m72ac86a2a1" y="267.258877"/>
     <use style="fill:#ff0000;stroke:#ff0000;" x="287.646225" xlink:href="#m72ac86a2a1" y="264.389855"/>
     <use style="fill:#ff0000;stroke:#ff0000;" x="292.278102" xlink:href="#m72ac86a2a1" y="261.059741"/>
     <use style="fill:#ff0000;stroke:#ff0000;" x="297.190865" xlink:href="#m72ac86a2a1" y="260.701113"/>
     <use style="fill:#ff0000;stroke:#ff0000;" x="301.828117" xlink:href="#m72ac86a2a1" y="244.153006"/>
     <use style="fill:#ff0000;stroke:#ff0000;" x="304.858456" xlink:href="#m72ac86a2a1" y="243.896844"/>
     <use style="fill:#ff0000;stroke:#ff0000;" x="310.601336" xlink:href="#m72ac86a2a1" y="240.771659"/>
     <use style="fill:#ff0000;stroke:#ff0000;" x="312.864699" xlink:href="#m72ac86a2a1" y="234.931151"/>
     <use style="fill:#ff0000;stroke:#ff0000;" x="315.208424" xlink:href="#m72ac86a2a1" y="228.578318"/>
     <use style="fill:#ff0000;stroke:#ff0000;" x="318.023445" xlink:href="#m72ac86a2a1" y="210.851863"/>
     <use style="fill:#ff0000;stroke:#ff0000;" x="320.106492" xlink:href="#m72ac86a2a1" y="202.552193"/>
     <use style="fill:#ff0000;stroke:#ff0000;" x="322.204709" xlink:href="#m72ac86a2a1" y="202.29603"/>
     <use style="fill:#ff0000;stroke:#ff0000;" x="323.526243" xlink:href="#m72ac86a2a1" y="197.070313"/>
     <use style="fill:#ff0000;stroke:#ff0000;" x="325.879342" xlink:href="#m72ac86a2a1" y="195.840732"/>
     <use style="fill:#ff0000;stroke:#ff0000;" x="327.784516" xlink:href="#m72ac86a2a1" y="192.203222"/>
     <use style="fill:#ff0000;stroke:#ff0000;" x="330.15641" xlink:href="#m72ac86a2a1" y="191.024874"/>
     <use style="fill:#ff0000;stroke:#ff0000;" x="333.259941" xlink:href="#m72ac86a2a1" y="187.643527"/>
     <use style="fill:#ff0000;stroke:#ff0000;" x="335.072055" xlink:href="#m72ac86a2a1" y="187.233667"/>
     <use style="fill:#ff0000;stroke:#ff0000;" x="336.799576" xlink:href="#m72ac86a2a1" y="186.772574"/>
     <use style="fill:#ff0000;stroke:#ff0000;" x="339.21366" xlink:href="#m72ac86a2a1" y="186.516412"/>
     <use style="fill:#ff0000;stroke:#ff0000;" x="341.16045" xlink:href="#m72ac86a2a1" y="186.209017"/>
     <use style="fill:#ff0000;stroke:#ff0000;" x="342.86847" xlink:href="#m72ac86a2a1" y="185.799156"/>
     <use style="fill:#ff0000;stroke:#ff0000;" x="345.252251" xlink:href="#m72ac86a2a1" y="185.542994"/>
     <use style="fill:#ff0000;stroke:#ff0000;" x="346.54062" xlink:href="#m72ac86a2a1" y="185.184366"/>
     <use style="fill:#ff0000;stroke:#ff0000;" x="348.424031" xlink:href="#m72ac86a2a1" y="184.876971"/>
     <use style="fill:#ff0000;stroke:#ff0000;" x="350.945175" xlink:href="#m72ac86a2a1" y="178.472905"/>
     <use style="fill:#ff0000;stroke:#ff0000;" x="352.296715" xlink:href="#m72ac86a2a1" y="175.603883"/>
     <use style="fill:#ff0000;stroke:#ff0000;" x="356.571616" xlink:href="#m72ac86a2a1" y="174.271837"/>
     <use style="fill:#ff0000;stroke:#ff0000;" x="359.295908" xlink:href="#m72ac86a2a1" y="173.452117"/>
     <use style="fill:#ff0000;stroke:#ff0000;" x="361.394923" xlink:href="#m72ac86a2a1" y="167.970236"/>
     <use style="fill:#ff0000;stroke:#ff0000;" x="362.668137" xlink:href="#m72ac86a2a1" y="167.714074"/>
     <use style="fill:#ff0000;stroke:#ff0000;" x="364.669853" xlink:href="#m72ac86a2a1" y="166.945586"/>
     <use style="fill:#ff0000;stroke:#ff0000;" x="367.891681" xlink:href="#m72ac86a2a1" y="161.258775"/>
     <use style="fill:#ff0000;stroke:#ff0000;" x="369.47196" xlink:href="#m72ac86a2a1" y="160.900147"/>
     <use style="fill:#ff0000;stroke:#ff0000;" x="370.769825" xlink:href="#m72ac86a2a1" y="154.034989"/>
     <use style="fill:#ff0000;stroke:#ff0000;" x="372.468576" xlink:href="#m72ac86a2a1" y="152.549245"/>
     <use style="fill:#ff0000;stroke:#ff0000;" x="373.61211" xlink:href="#m72ac86a2a1" y="148.860503"/>
     <use style="fill:#ff0000;stroke:#ff0000;" x="375.208891" xlink:href="#m72ac86a2a1" y="146.555039"/>
     <use style="fill:#ff0000;stroke:#ff0000;" x="376.693838" xlink:href="#m72ac86a2a1" y="142.353972"/>
     <use style="fill:#ff0000;stroke:#ff0000;" x="377.953097" xlink:href="#m72ac86a2a1" y="137.128254"/>
     <use style="fill:#ff0000;stroke:#ff0000;" x="379.072806" xlink:href="#m72ac86a2a1" y="136.513464"/>
     <use style="fill:#ff0000;stroke:#ff0000;" x="380.295127" xlink:href="#m72ac86a2a1" y="128.008864"/>
     <use style="fill:#ff0000;stroke:#ff0000;" x="381.850084" xlink:href="#m72ac86a2a1" y="122.475751"/>
     <use style="fill:#ff0000;stroke:#ff0000;" x="383.579877" xlink:href="#m72ac86a2a1" y="122.270821"/>
     <use style="fill:#ff0000;stroke:#ff0000;" x="384.590432" xlink:href="#m72ac86a2a1" y="119.555497"/>
     <use style="fill:#ff0000;stroke:#ff0000;" x="385.672453" xlink:href="#m72ac86a2a1" y="118.838241"/>
     <use style="fill:#ff0000;stroke:#ff0000;" x="387.185428" xlink:href="#m72ac86a2a1" y="111.973083"/>
     <use style="fill:#ff0000;stroke:#ff0000;" x="388.173912" xlink:href="#m72ac86a2a1" y="105.927644"/>
     <use style="fill:#ff0000;stroke:#ff0000;" x="389.119738" xlink:href="#m72ac86a2a1" y="93.888"/>
     <use style="fill:#ff0000;stroke:#ff0000;" x="390.657061" xlink:href="#m72ac86a2a1" y="91.736234"/>
     <use style="fill:#ff0000;stroke:#ff0000;" x="391.706467" xlink:href="#m72ac86a2a1" y="86.305586"/>
     <use style="fill:#ff0000;stroke:#ff0000;" x="393.602173" xlink:href="#m72ac86a2a1" y="84.922307"/>
     <use style="fill:#ff0000;stroke:#ff0000;" x="394.588345" xlink:href="#m72ac86a2a1" y="64.173133"/>
     <use style="fill:#ff0000;stroke:#ff0000;" x="395.458261" xlink:href="#m72ac86a2a1" y="63.455878"/>
     <use style="fill:#ff0000;stroke:#ff0000;" x="397.073099" xlink:href="#m72ac86a2a1" y="57.666602"/>
     <use style="fill:#ff0000;stroke:#ff0000;" x="398.487273" xlink:href="#m72ac86a2a1" y="53.568"/>
    </g>
   </g>
   <g id="patch_7">
    <path d="M 57.6 307.584 
L 57.6 41.472 
" style="fill:none;stroke:#000000;stroke-linecap:square;stroke-linejoin:miter;stroke-width:0.8;"/>
   </g>
   <g id="patch_8">
    <path d="M 414.72 307.584 
L 414.72 41.472 
" style="fill:none;stroke:#000000;stroke-linecap:square;stroke-linejoin:miter;stroke-width:0.8;"/>
   </g>
   <g id="patch_9">
    <path d="M 57.6 307.584 
L 414.72 307.584 
" style="fill:none;stroke:#000000;stroke-linecap:square;stroke-linejoin:miter;stroke-width:0.8;"/>
   </g>
   <g id="patch_10">
    <path d="M 57.6 41.472 
L 414.72 41.472 
" style="fill:none;stroke:#000000;stroke-linecap:square;stroke-linejoin:miter;stroke-width:0.8;"/>
   </g>
  </g>
 </g>
 <defs>
  <clipPath id="pa5e68d970d">
   <rect height="266.112" width="357.12" x="57.6" y="41.472"/>
  </clipPath>
 </defs>
</svg>
