<?xml version="1.0" encoding="utf-8" standalone="no"?>
<!DOCTYPE svg PUBLIC "-//W3C//DTD SVG 1.1//EN"
  "http://www.w3.org/Graphics/SVG/1.1/DTD/svg11.dtd">
<!-- Created with matplotlib (http://matplotlib.org/) -->
<svg height="345.6pt" version="1.1" viewBox="0 0 460.8 345.6" width="460.8pt" xmlns="http://www.w3.org/2000/svg" xmlns:xlink="http://www.w3.org/1999/xlink">
 <defs>
  <style type="text/css">
*{stroke-linecap:butt;stroke-linejoin:round;}
  </style>
 </defs>
 <g id="figure_1">
  <g id="patch_1">
   <path d="M 0 345.6 
L 460.8 345.6 
L 460.8 0 
L 0 0 
z
" style="fill:#ffffff;"/>
  </g>
  <g id="axes_1">
   <g id="patch_2">
    <path d="M 57.6 307.584 
L 414.72 307.584 
L 414.72 41.472 
L 57.6 41.472 
z
" style="fill:#ffffff;"/>
   </g>
   <g id="matplotlib.axis_1">
    <g id="xtick_1">
     <g id="line2d_1">
      <defs>
       <path d="M 0 0 
L 0 3.5 
" id="m5d83f819d4" style="stroke:#000000;stroke-width:0.8;"/>
      </defs>
      <g>
       <use style="stroke:#000000;stroke-width:0.8;" x="124.683634" xlink:href="#m5d83f819d4" y="307.584"/>
      </g>
     </g>
     <g id="text_1">
      <!-- $\mathdefault{10^{3}}$ -->
      <defs>
       <path d="M 12.40625 8.296875 
L 28.515625 8.296875 
L 28.515625 63.921875 
L 10.984375 60.40625 
L 10.984375 69.390625 
L 28.421875 72.90625 
L 38.28125 72.90625 
L 38.28125 8.296875 
L 54.390625 8.296875 
L 54.390625 0 
L 12.40625 0 
z
" id="DejaVuSans-31"/>
       <path d="M 31.78125 66.40625 
Q 24.171875 66.40625 20.328125 58.90625 
Q 16.5 51.421875 16.5 36.375 
Q 16.5 21.390625 20.328125 13.890625 
Q 24.171875 6.390625 31.78125 6.390625 
Q 39.453125 6.390625 43.28125 13.890625 
Q 47.125 21.390625 47.125 36.375 
Q 47.125 51.421875 43.28125 58.90625 
Q 39.453125 66.40625 31.78125 66.40625 
z
M 31.78125 74.21875 
Q 44.046875 74.21875 50.515625 64.515625 
Q 56.984375 54.828125 56.984375 36.375 
Q 56.984375 17.96875 50.515625 8.265625 
Q 44.046875 -1.421875 31.78125 -1.421875 
Q 19.53125 -1.421875 13.0625 8.265625 
Q 6.59375 17.96875 6.59375 36.375 
Q 6.59375 54.828125 13.0625 64.515625 
Q 19.53125 74.21875 31.78125 74.21875 
z
" id="DejaVuSans-30"/>
       <path d="M 40.578125 39.3125 
Q 47.65625 37.796875 51.625 33 
Q 55.609375 28.21875 55.609375 21.1875 
Q 55.609375 10.40625 48.1875 4.484375 
Q 40.765625 -1.421875 27.09375 -1.421875 
Q 22.515625 -1.421875 17.65625 -0.515625 
Q 12.796875 0.390625 7.625 2.203125 
L 7.625 11.71875 
Q 11.71875 9.328125 16.59375 8.109375 
Q 21.484375 6.890625 26.8125 6.890625 
Q 36.078125 6.890625 40.9375 10.546875 
Q 45.796875 14.203125 45.796875 21.1875 
Q 45.796875 27.640625 41.28125 31.265625 
Q 36.765625 34.90625 28.71875 34.90625 
L 20.21875 34.90625 
L 20.21875 43.015625 
L 29.109375 43.015625 
Q 36.375 43.015625 40.234375 45.921875 
Q 44.09375 48.828125 44.09375 54.296875 
Q 44.09375 59.90625 40.109375 62.90625 
Q 36.140625 65.921875 28.71875 65.921875 
Q 24.65625 65.921875 20.015625 65.03125 
Q 15.375 64.15625 9.8125 62.3125 
L 9.8125 71.09375 
Q 15.4375 72.65625 20.34375 73.4375 
Q 25.25 74.21875 29.59375 74.21875 
Q 40.828125 74.21875 47.359375 69.109375 
Q 53.90625 64.015625 53.90625 55.328125 
Q 53.90625 49.265625 50.4375 45.09375 
Q 46.96875 40.921875 40.578125 39.3125 
z
" id="DejaVuSans-33"/>
      </defs>
      <g transform="translate(115.883634 322.182437)scale(0.1 -0.1)">
       <use transform="translate(0 0.765625)" xlink:href="#DejaVuSans-31"/>
       <use transform="translate(63.623047 0.765625)" xlink:href="#DejaVuSans-30"/>
       <use transform="translate(128.203125 39.046875)scale(0.7)" xlink:href="#DejaVuSans-33"/>
      </g>
     </g>
    </g>
    <g id="xtick_2">
     <g id="line2d_2">
      <g>
       <use style="stroke:#000000;stroke-width:0.8;" x="266.238523" xlink:href="#m5d83f819d4" y="307.584"/>
      </g>
     </g>
     <g id="text_2">
      <!-- $\mathdefault{10^{4}}$ -->
      <defs>
       <path d="M 37.796875 64.3125 
L 12.890625 25.390625 
L 37.796875 25.390625 
z
M 35.203125 72.90625 
L 47.609375 72.90625 
L 47.609375 25.390625 
L 58.015625 25.390625 
L 58.015625 17.1875 
L 47.609375 17.1875 
L 47.609375 0 
L 37.796875 0 
L 37.796875 17.1875 
L 4.890625 17.1875 
L 4.890625 26.703125 
z
" id="DejaVuSans-34"/>
      </defs>
      <g transform="translate(257.438523 322.182437)scale(0.1 -0.1)">
       <use transform="translate(0 0.684375)" xlink:href="#DejaVuSans-31"/>
       <use transform="translate(63.623047 0.684375)" xlink:href="#DejaVuSans-30"/>
       <use transform="translate(128.203125 38.965625)scale(0.7)" xlink:href="#DejaVuSans-34"/>
      </g>
     </g>
    </g>
    <g id="xtick_3">
     <g id="line2d_3">
      <g>
       <use style="stroke:#000000;stroke-width:0.8;" x="407.793412" xlink:href="#m5d83f819d4" y="307.584"/>
      </g>
     </g>
     <g id="text_3">
      <!-- $\mathdefault{10^{5}}$ -->
      <defs>
       <path d="M 10.796875 72.90625 
L 49.515625 72.90625 
L 49.515625 64.59375 
L 19.828125 64.59375 
L 19.828125 46.734375 
Q 21.96875 47.46875 24.109375 47.828125 
Q 26.265625 48.1875 28.421875 48.1875 
Q 40.625 48.1875 47.75 41.5 
Q 54.890625 34.8125 54.890625 23.390625 
Q 54.890625 11.625 47.5625 5.09375 
Q 40.234375 -1.421875 26.90625 -1.421875 
Q 22.3125 -1.421875 17.546875 -0.640625 
Q 12.796875 0.140625 7.71875 1.703125 
L 7.71875 11.625 
Q 12.109375 9.234375 16.796875 8.0625 
Q 21.484375 6.890625 26.703125 6.890625 
Q 35.15625 6.890625 40.078125 11.328125 
Q 45.015625 15.765625 45.015625 23.390625 
Q 45.015625 31 40.078125 35.4375 
Q 35.15625 39.890625 26.703125 39.890625 
Q 22.75 39.890625 18.8125 39.015625 
Q 14.890625 38.140625 10.796875 36.28125 
z
" id="DejaVuSans-35"/>
      </defs>
      <g transform="translate(398.993412 322.182437)scale(0.1 -0.1)">
       <use transform="translate(0 0.684375)" xlink:href="#DejaVuSans-31"/>
       <use transform="translate(63.623047 0.684375)" xlink:href="#DejaVuSans-30"/>
       <use transform="translate(128.203125 38.965625)scale(0.7)" xlink:href="#DejaVuSans-35"/>
      </g>
     </g>
    </g>
    <g id="xtick_4">
     <g id="line2d_4">
      <defs>
       <path d="M 0 0 
L 0 2 
" id="mf81cfff197" style="stroke:#000000;stroke-width:0.6;"/>
      </defs>
      <g>
       <use style="stroke:#000000;stroke-width:0.6;" x="68.353281" xlink:href="#mf81cfff197" y="307.584"/>
      </g>
     </g>
    </g>
    <g id="xtick_5">
     <g id="line2d_5">
      <g>
       <use style="stroke:#000000;stroke-width:0.6;" x="82.071367" xlink:href="#mf81cfff197" y="307.584"/>
      </g>
     </g>
    </g>
    <g id="xtick_6">
     <g id="line2d_6">
      <g>
       <use style="stroke:#000000;stroke-width:0.6;" x="93.279859" xlink:href="#mf81cfff197" y="307.584"/>
      </g>
     </g>
    </g>
    <g id="xtick_7">
     <g id="line2d_7">
      <g>
       <use style="stroke:#000000;stroke-width:0.6;" x="102.756505" xlink:href="#mf81cfff197" y="307.584"/>
      </g>
     </g>
    </g>
    <g id="xtick_8">
     <g id="line2d_8">
      <g>
       <use style="stroke:#000000;stroke-width:0.6;" x="110.965548" xlink:href="#mf81cfff197" y="307.584"/>
      </g>
     </g>
    </g>
    <g id="xtick_9">
     <g id="line2d_9">
      <g>
       <use style="stroke:#000000;stroke-width:0.6;" x="118.206438" xlink:href="#mf81cfff197" y="307.584"/>
      </g>
     </g>
    </g>
    <g id="xtick_10">
     <g id="line2d_10">
      <g>
       <use style="stroke:#000000;stroke-width:0.6;" x="167.295902" xlink:href="#mf81cfff197" y="307.584"/>
      </g>
     </g>
    </g>
    <g id="xtick_11">
     <g id="line2d_11">
      <g>
       <use style="stroke:#000000;stroke-width:0.6;" x="192.222481" xlink:href="#mf81cfff197" y="307.584"/>
      </g>
     </g>
    </g>
    <g id="xtick_12">
     <g id="line2d_12">
      <g>
       <use style="stroke:#000000;stroke-width:0.6;" x="209.90817" xlink:href="#mf81cfff197" y="307.584"/>
      </g>
     </g>
    </g>
    <g id="xtick_13">
     <g id="line2d_13">
      <g>
       <use style="stroke:#000000;stroke-width:0.6;" x="223.626256" xlink:href="#mf81cfff197" y="307.584"/>
      </g>
     </g>
    </g>
    <g id="xtick_14">
     <g id="line2d_14">
      <g>
       <use style="stroke:#000000;stroke-width:0.6;" x="234.834748" xlink:href="#mf81cfff197" y="307.584"/>
      </g>
     </g>
    </g>
    <g id="xtick_15">
     <g id="line2d_15">
      <g>
       <use style="stroke:#000000;stroke-width:0.6;" x="244.311394" xlink:href="#mf81cfff197" y="307.584"/>
      </g>
     </g>
    </g>
    <g id="xtick_16">
     <g id="line2d_16">
      <g>
       <use style="stroke:#000000;stroke-width:0.6;" x="252.520437" xlink:href="#mf81cfff197" y="307.584"/>
      </g>
     </g>
    </g>
    <g id="xtick_17">
     <g id="line2d_17">
      <g>
       <use style="stroke:#000000;stroke-width:0.6;" x="259.761327" xlink:href="#mf81cfff197" y="307.584"/>
      </g>
     </g>
    </g>
    <g id="xtick_18">
     <g id="line2d_18">
      <g>
       <use style="stroke:#000000;stroke-width:0.6;" x="308.850791" xlink:href="#mf81cfff197" y="307.584"/>
      </g>
     </g>
    </g>
    <g id="xtick_19">
     <g id="line2d_19">
      <g>
       <use style="stroke:#000000;stroke-width:0.6;" x="333.77737" xlink:href="#mf81cfff197" y="307.584"/>
      </g>
     </g>
    </g>
    <g id="xtick_20">
     <g id="line2d_20">
      <g>
       <use style="stroke:#000000;stroke-width:0.6;" x="351.463059" xlink:href="#mf81cfff197" y="307.584"/>
      </g>
     </g>
    </g>
    <g id="xtick_21">
     <g id="line2d_21">
      <g>
       <use style="stroke:#000000;stroke-width:0.6;" x="365.181145" xlink:href="#mf81cfff197" y="307.584"/>
      </g>
     </g>
    </g>
    <g id="xtick_22">
     <g id="line2d_22">
      <g>
       <use style="stroke:#000000;stroke-width:0.6;" x="376.389637" xlink:href="#mf81cfff197" y="307.584"/>
      </g>
     </g>
    </g>
    <g id="xtick_23">
     <g id="line2d_23">
      <g>
       <use style="stroke:#000000;stroke-width:0.6;" x="385.866283" xlink:href="#mf81cfff197" y="307.584"/>
      </g>
     </g>
    </g>
    <g id="xtick_24">
     <g id="line2d_24">
      <g>
       <use style="stroke:#000000;stroke-width:0.6;" x="394.075326" xlink:href="#mf81cfff197" y="307.584"/>
      </g>
     </g>
    </g>
    <g id="xtick_25">
     <g id="line2d_25">
      <g>
       <use style="stroke:#000000;stroke-width:0.6;" x="401.316216" xlink:href="#mf81cfff197" y="307.584"/>
      </g>
     </g>
    </g>
    <g id="text_4">
     <!-- Execution time (s) -->
     <defs>
      <path d="M 9.8125 72.90625 
L 55.90625 72.90625 
L 55.90625 64.59375 
L 19.671875 64.59375 
L 19.671875 43.015625 
L 54.390625 43.015625 
L 54.390625 34.71875 
L 19.671875 34.71875 
L 19.671875 8.296875 
L 56.78125 8.296875 
L 56.78125 0 
L 9.8125 0 
z
" id="DejaVuSans-45"/>
      <path d="M 54.890625 54.6875 
L 35.109375 28.078125 
L 55.90625 0 
L 45.3125 0 
L 29.390625 21.484375 
L 13.484375 0 
L 2.875 0 
L 24.125 28.609375 
L 4.6875 54.6875 
L 15.28125 54.6875 
L 29.78125 35.203125 
L 44.28125 54.6875 
z
" id="DejaVuSans-78"/>
      <path d="M 56.203125 29.59375 
L 56.203125 25.203125 
L 14.890625 25.203125 
Q 15.484375 15.921875 20.484375 11.0625 
Q 25.484375 6.203125 34.421875 6.203125 
Q 39.59375 6.203125 44.453125 7.46875 
Q 49.3125 8.734375 54.109375 11.28125 
L 54.109375 2.78125 
Q 49.265625 0.734375 44.1875 -0.34375 
Q 39.109375 -1.421875 33.890625 -1.421875 
Q 20.796875 -1.421875 13.15625 6.1875 
Q 5.515625 13.8125 5.515625 26.8125 
Q 5.515625 40.234375 12.765625 48.109375 
Q 20.015625 56 32.328125 56 
Q 43.359375 56 49.78125 48.890625 
Q 56.203125 41.796875 56.203125 29.59375 
z
M 47.21875 32.234375 
Q 47.125 39.59375 43.09375 43.984375 
Q 39.0625 48.390625 32.421875 48.390625 
Q 24.90625 48.390625 20.390625 44.140625 
Q 15.875 39.890625 15.1875 32.171875 
z
" id="DejaVuSans-65"/>
      <path d="M 48.78125 52.59375 
L 48.78125 44.1875 
Q 44.96875 46.296875 41.140625 47.34375 
Q 37.3125 48.390625 33.40625 48.390625 
Q 24.65625 48.390625 19.8125 42.84375 
Q 14.984375 37.3125 14.984375 27.296875 
Q 14.984375 17.28125 19.8125 11.734375 
Q 24.65625 6.203125 33.40625 6.203125 
Q 37.3125 6.203125 41.140625 7.25 
Q 44.96875 8.296875 48.78125 10.40625 
L 48.78125 2.09375 
Q 45.015625 0.34375 40.984375 -0.53125 
Q 36.96875 -1.421875 32.421875 -1.421875 
Q 20.0625 -1.421875 12.78125 6.34375 
Q 5.515625 14.109375 5.515625 27.296875 
Q 5.515625 40.671875 12.859375 48.328125 
Q 20.21875 56 33.015625 56 
Q 37.15625 56 41.109375 55.140625 
Q 45.0625 54.296875 48.78125 52.59375 
z
" id="DejaVuSans-63"/>
      <path d="M 8.5 21.578125 
L 8.5 54.6875 
L 17.484375 54.6875 
L 17.484375 21.921875 
Q 17.484375 14.15625 20.5 10.265625 
Q 23.53125 6.390625 29.59375 6.390625 
Q 36.859375 6.390625 41.078125 11.03125 
Q 45.3125 15.671875 45.3125 23.6875 
L 45.3125 54.6875 
L 54.296875 54.6875 
L 54.296875 0 
L 45.3125 0 
L 45.3125 8.40625 
Q 42.046875 3.421875 37.71875 1 
Q 33.40625 -1.421875 27.6875 -1.421875 
Q 18.265625 -1.421875 13.375 4.4375 
Q 8.5 10.296875 8.5 21.578125 
z
M 31.109375 56 
z
" id="DejaVuSans-75"/>
      <path d="M 18.3125 70.21875 
L 18.3125 54.6875 
L 36.8125 54.6875 
L 36.8125 47.703125 
L 18.3125 47.703125 
L 18.3125 18.015625 
Q 18.3125 11.328125 20.140625 9.421875 
Q 21.96875 7.515625 27.59375 7.515625 
L 36.8125 7.515625 
L 36.8125 0 
L 27.59375 0 
Q 17.1875 0 13.234375 3.875 
Q 9.28125 7.765625 9.28125 18.015625 
L 9.28125 47.703125 
L 2.6875 47.703125 
L 2.6875 54.6875 
L 9.28125 54.6875 
L 9.28125 70.21875 
z
" id="DejaVuSans-74"/>
      <path d="M 9.421875 54.6875 
L 18.40625 54.6875 
L 18.40625 0 
L 9.421875 0 
z
M 9.421875 75.984375 
L 18.40625 75.984375 
L 18.40625 64.59375 
L 9.421875 64.59375 
z
" id="DejaVuSans-69"/>
      <path d="M 30.609375 48.390625 
Q 23.390625 48.390625 19.1875 42.75 
Q 14.984375 37.109375 14.984375 27.296875 
Q 14.984375 17.484375 19.15625 11.84375 
Q 23.34375 6.203125 30.609375 6.203125 
Q 37.796875 6.203125 41.984375 11.859375 
Q 46.1875 17.53125 46.1875 27.296875 
Q 46.1875 37.015625 41.984375 42.703125 
Q 37.796875 48.390625 30.609375 48.390625 
z
M 30.609375 56 
Q 42.328125 56 49.015625 48.375 
Q 55.71875 40.765625 55.71875 27.296875 
Q 55.71875 13.875 49.015625 6.21875 
Q 42.328125 -1.421875 30.609375 -1.421875 
Q 18.84375 -1.421875 12.171875 6.21875 
Q 5.515625 13.875 5.515625 27.296875 
Q 5.515625 40.765625 12.171875 48.375 
Q 18.84375 56 30.609375 56 
z
" id="DejaVuSans-6f"/>
      <path d="M 54.890625 33.015625 
L 54.890625 0 
L 45.90625 0 
L 45.90625 32.71875 
Q 45.90625 40.484375 42.875 44.328125 
Q 39.84375 48.1875 33.796875 48.1875 
Q 26.515625 48.1875 22.3125 43.546875 
Q 18.109375 38.921875 18.109375 30.90625 
L 18.109375 0 
L 9.078125 0 
L 9.078125 54.6875 
L 18.109375 54.6875 
L 18.109375 46.1875 
Q 21.34375 51.125 25.703125 53.5625 
Q 30.078125 56 35.796875 56 
Q 45.21875 56 50.046875 50.171875 
Q 54.890625 44.34375 54.890625 33.015625 
z
" id="DejaVuSans-6e"/>
      <path id="DejaVuSans-20"/>
      <path d="M 52 44.1875 
Q 55.375 50.25 60.0625 53.125 
Q 64.75 56 71.09375 56 
Q 79.640625 56 84.28125 50.015625 
Q 88.921875 44.046875 88.921875 33.015625 
L 88.921875 0 
L 79.890625 0 
L 79.890625 32.71875 
Q 79.890625 40.578125 77.09375 44.375 
Q 74.3125 48.1875 68.609375 48.1875 
Q 61.625 48.1875 57.5625 43.546875 
Q 53.515625 38.921875 53.515625 30.90625 
L 53.515625 0 
L 44.484375 0 
L 44.484375 32.71875 
Q 44.484375 40.625 41.703125 44.40625 
Q 38.921875 48.1875 33.109375 48.1875 
Q 26.21875 48.1875 22.15625 43.53125 
Q 18.109375 38.875 18.109375 30.90625 
L 18.109375 0 
L 9.078125 0 
L 9.078125 54.6875 
L 18.109375 54.6875 
L 18.109375 46.1875 
Q 21.1875 51.21875 25.484375 53.609375 
Q 29.78125 56 35.6875 56 
Q 41.65625 56 45.828125 52.96875 
Q 50 49.953125 52 44.1875 
z
" id="DejaVuSans-6d"/>
      <path d="M 31 75.875 
Q 24.46875 64.65625 21.28125 53.65625 
Q 18.109375 42.671875 18.109375 31.390625 
Q 18.109375 20.125 21.3125 9.0625 
Q 24.515625 -2 31 -13.1875 
L 23.1875 -13.1875 
Q 15.875 -1.703125 12.234375 9.375 
Q 8.59375 20.453125 8.59375 31.390625 
Q 8.59375 42.28125 12.203125 53.3125 
Q 15.828125 64.359375 23.1875 75.875 
z
" id="DejaVuSans-28"/>
      <path d="M 44.28125 53.078125 
L 44.28125 44.578125 
Q 40.484375 46.53125 36.375 47.5 
Q 32.28125 48.484375 27.875 48.484375 
Q 21.1875 48.484375 17.84375 46.4375 
Q 14.5 44.390625 14.5 40.28125 
Q 14.5 37.15625 16.890625 35.375 
Q 19.28125 33.59375 26.515625 31.984375 
L 29.59375 31.296875 
Q 39.15625 29.25 43.1875 25.515625 
Q 47.21875 21.78125 47.21875 15.09375 
Q 47.21875 7.46875 41.1875 3.015625 
Q 35.15625 -1.421875 24.609375 -1.421875 
Q 20.21875 -1.421875 15.453125 -0.5625 
Q 10.6875 0.296875 5.421875 2 
L 5.421875 11.28125 
Q 10.40625 8.6875 15.234375 7.390625 
Q 20.0625 6.109375 24.8125 6.109375 
Q 31.15625 6.109375 34.5625 8.28125 
Q 37.984375 10.453125 37.984375 14.40625 
Q 37.984375 18.0625 35.515625 20.015625 
Q 33.0625 21.96875 24.703125 23.78125 
L 21.578125 24.515625 
Q 13.234375 26.265625 9.515625 29.90625 
Q 5.8125 33.546875 5.8125 39.890625 
Q 5.8125 47.609375 11.28125 51.796875 
Q 16.75 56 26.8125 56 
Q 31.78125 56 36.171875 55.265625 
Q 40.578125 54.546875 44.28125 53.078125 
z
" id="DejaVuSans-73"/>
      <path d="M 8.015625 75.875 
L 15.828125 75.875 
Q 23.140625 64.359375 26.78125 53.3125 
Q 30.421875 42.28125 30.421875 31.390625 
Q 30.421875 20.453125 26.78125 9.375 
Q 23.140625 -1.703125 15.828125 -13.1875 
L 8.015625 -13.1875 
Q 14.5 -2 17.703125 9.0625 
Q 20.90625 20.125 20.90625 31.390625 
Q 20.90625 42.671875 17.703125 53.65625 
Q 14.5 64.65625 8.015625 75.875 
z
" id="DejaVuSans-29"/>
     </defs>
     <g transform="translate(190.49125 335.860562)scale(0.1 -0.1)">
      <use xlink:href="#DejaVuSans-45"/>
      <use x="63.183594" xlink:href="#DejaVuSans-78"/>
      <use x="122.316406" xlink:href="#DejaVuSans-65"/>
      <use x="183.839844" xlink:href="#DejaVuSans-63"/>
      <use x="238.820312" xlink:href="#DejaVuSans-75"/>
      <use x="302.199219" xlink:href="#DejaVuSans-74"/>
      <use x="341.408203" xlink:href="#DejaVuSans-69"/>
      <use x="369.191406" xlink:href="#DejaVuSans-6f"/>
      <use x="430.373047" xlink:href="#DejaVuSans-6e"/>
      <use x="493.751953" xlink:href="#DejaVuSans-20"/>
      <use x="525.539062" xlink:href="#DejaVuSans-74"/>
      <use x="564.748047" xlink:href="#DejaVuSans-69"/>
      <use x="592.53125" xlink:href="#DejaVuSans-6d"/>
      <use x="689.943359" xlink:href="#DejaVuSans-65"/>
      <use x="751.466797" xlink:href="#DejaVuSans-20"/>
      <use x="783.253906" xlink:href="#DejaVuSans-28"/>
      <use x="822.267578" xlink:href="#DejaVuSans-73"/>
      <use x="874.367188" xlink:href="#DejaVuSans-29"/>
     </g>
    </g>
   </g>
   <g id="matplotlib.axis_2">
    <g id="ytick_1">
     <g id="line2d_26">
      <defs>
       <path d="M 0 0 
L -3.5 0 
" id="m3341f897f7" style="stroke:#000000;stroke-width:0.8;"/>
      </defs>
      <g>
       <use style="stroke:#000000;stroke-width:0.8;" x="57.6" xlink:href="#m3341f897f7" y="287.283773"/>
      </g>
     </g>
     <g id="text_5">
      <!-- $\mathdefault{10^{3}}$ -->
      <g transform="translate(33 291.082991)scale(0.1 -0.1)">
       <use transform="translate(0 0.765625)" xlink:href="#DejaVuSans-31"/>
       <use transform="translate(63.623047 0.765625)" xlink:href="#DejaVuSans-30"/>
       <use transform="translate(128.203125 39.046875)scale(0.7)" xlink:href="#DejaVuSans-33"/>
      </g>
     </g>
    </g>
    <g id="ytick_2">
     <g id="line2d_27">
      <g>
       <use style="stroke:#000000;stroke-width:0.8;" x="57.6" xlink:href="#m3341f897f7" y="155.978545"/>
      </g>
     </g>
     <g id="text_6">
      <!-- $\mathdefault{10^{4}}$ -->
      <g transform="translate(33 159.777764)scale(0.1 -0.1)">
       <use transform="translate(0 0.684375)" xlink:href="#DejaVuSans-31"/>
       <use transform="translate(63.623047 0.684375)" xlink:href="#DejaVuSans-30"/>
       <use transform="translate(128.203125 38.965625)scale(0.7)" xlink:href="#DejaVuSans-34"/>
      </g>
     </g>
    </g>
    <g id="ytick_3">
     <g id="line2d_28">
      <defs>
       <path d="M 0 0 
L -2 0 
" id="m56fbf48315" style="stroke:#000000;stroke-width:0.6;"/>
      </defs>
      <g>
       <use style="stroke:#000000;stroke-width:0.6;" x="57.6" xlink:href="#m56fbf48315" y="307.62321"/>
      </g>
     </g>
    </g>
    <g id="ytick_4">
     <g id="line2d_29">
      <g>
       <use style="stroke:#000000;stroke-width:0.6;" x="57.6" xlink:href="#m56fbf48315" y="300.008564"/>
      </g>
     </g>
    </g>
    <g id="ytick_5">
     <g id="line2d_30">
      <g>
       <use style="stroke:#000000;stroke-width:0.6;" x="57.6" xlink:href="#m56fbf48315" y="293.29197"/>
      </g>
     </g>
    </g>
    <g id="ytick_6">
     <g id="line2d_31">
      <g>
       <use style="stroke:#000000;stroke-width:0.6;" x="57.6" xlink:href="#m56fbf48315" y="247.756961"/>
      </g>
     </g>
    </g>
    <g id="ytick_7">
     <g id="line2d_32">
      <g>
       <use style="stroke:#000000;stroke-width:0.6;" x="57.6" xlink:href="#m56fbf48315" y="224.635258"/>
      </g>
     </g>
    </g>
    <g id="ytick_8">
     <g id="line2d_33">
      <g>
       <use style="stroke:#000000;stroke-width:0.6;" x="57.6" xlink:href="#m56fbf48315" y="208.230148"/>
      </g>
     </g>
    </g>
    <g id="ytick_9">
     <g id="line2d_34">
      <g>
       <use style="stroke:#000000;stroke-width:0.6;" x="57.6" xlink:href="#m56fbf48315" y="195.505357"/>
      </g>
     </g>
    </g>
    <g id="ytick_10">
     <g id="line2d_35">
      <g>
       <use style="stroke:#000000;stroke-width:0.6;" x="57.6" xlink:href="#m56fbf48315" y="185.108446"/>
      </g>
     </g>
    </g>
    <g id="ytick_11">
     <g id="line2d_36">
      <g>
       <use style="stroke:#000000;stroke-width:0.6;" x="57.6" xlink:href="#m56fbf48315" y="176.317982"/>
      </g>
     </g>
    </g>
    <g id="ytick_12">
     <g id="line2d_37">
      <g>
       <use style="stroke:#000000;stroke-width:0.6;" x="57.6" xlink:href="#m56fbf48315" y="168.703336"/>
      </g>
     </g>
    </g>
    <g id="ytick_13">
     <g id="line2d_38">
      <g>
       <use style="stroke:#000000;stroke-width:0.6;" x="57.6" xlink:href="#m56fbf48315" y="161.986743"/>
      </g>
     </g>
    </g>
    <g id="ytick_14">
     <g id="line2d_39">
      <g>
       <use style="stroke:#000000;stroke-width:0.6;" x="57.6" xlink:href="#m56fbf48315" y="116.451733"/>
      </g>
     </g>
    </g>
    <g id="ytick_15">
     <g id="line2d_40">
      <g>
       <use style="stroke:#000000;stroke-width:0.6;" x="57.6" xlink:href="#m56fbf48315" y="93.33003"/>
      </g>
     </g>
    </g>
    <g id="ytick_16">
     <g id="line2d_41">
      <g>
       <use style="stroke:#000000;stroke-width:0.6;" x="57.6" xlink:href="#m56fbf48315" y="76.924921"/>
      </g>
     </g>
    </g>
    <g id="ytick_17">
     <g id="line2d_42">
      <g>
       <use style="stroke:#000000;stroke-width:0.6;" x="57.6" xlink:href="#m56fbf48315" y="64.20013"/>
      </g>
     </g>
    </g>
    <g id="ytick_18">
     <g id="line2d_43">
      <g>
       <use style="stroke:#000000;stroke-width:0.6;" x="57.6" xlink:href="#m56fbf48315" y="53.803218"/>
      </g>
     </g>
    </g>
    <g id="ytick_19">
     <g id="line2d_44">
      <g>
       <use style="stroke:#000000;stroke-width:0.6;" x="57.6" xlink:href="#m56fbf48315" y="45.012755"/>
      </g>
     </g>
    </g>
    <g id="text_7">
     <!-- Number of edge species -->
     <defs>
      <path d="M 9.8125 72.90625 
L 23.09375 72.90625 
L 55.421875 11.921875 
L 55.421875 72.90625 
L 64.984375 72.90625 
L 64.984375 0 
L 51.703125 0 
L 19.390625 60.984375 
L 19.390625 0 
L 9.8125 0 
z
" id="DejaVuSans-4e"/>
      <path d="M 48.6875 27.296875 
Q 48.6875 37.203125 44.609375 42.84375 
Q 40.53125 48.484375 33.40625 48.484375 
Q 26.265625 48.484375 22.1875 42.84375 
Q 18.109375 37.203125 18.109375 27.296875 
Q 18.109375 17.390625 22.1875 11.75 
Q 26.265625 6.109375 33.40625 6.109375 
Q 40.53125 6.109375 44.609375 11.75 
Q 48.6875 17.390625 48.6875 27.296875 
z
M 18.109375 46.390625 
Q 20.953125 51.265625 25.265625 53.625 
Q 29.59375 56 35.59375 56 
Q 45.5625 56 51.78125 48.09375 
Q 58.015625 40.1875 58.015625 27.296875 
Q 58.015625 14.40625 51.78125 6.484375 
Q 45.5625 -1.421875 35.59375 -1.421875 
Q 29.59375 -1.421875 25.265625 0.953125 
Q 20.953125 3.328125 18.109375 8.203125 
L 18.109375 0 
L 9.078125 0 
L 9.078125 75.984375 
L 18.109375 75.984375 
z
" id="DejaVuSans-62"/>
      <path d="M 41.109375 46.296875 
Q 39.59375 47.171875 37.8125 47.578125 
Q 36.03125 48 33.890625 48 
Q 26.265625 48 22.1875 43.046875 
Q 18.109375 38.09375 18.109375 28.8125 
L 18.109375 0 
L 9.078125 0 
L 9.078125 54.6875 
L 18.109375 54.6875 
L 18.109375 46.1875 
Q 20.953125 51.171875 25.484375 53.578125 
Q 30.03125 56 36.53125 56 
Q 37.453125 56 38.578125 55.875 
Q 39.703125 55.765625 41.0625 55.515625 
z
" id="DejaVuSans-72"/>
      <path d="M 37.109375 75.984375 
L 37.109375 68.5 
L 28.515625 68.5 
Q 23.6875 68.5 21.796875 66.546875 
Q 19.921875 64.59375 19.921875 59.515625 
L 19.921875 54.6875 
L 34.71875 54.6875 
L 34.71875 47.703125 
L 19.921875 47.703125 
L 19.921875 0 
L 10.890625 0 
L 10.890625 47.703125 
L 2.296875 47.703125 
L 2.296875 54.6875 
L 10.890625 54.6875 
L 10.890625 58.5 
Q 10.890625 67.625 15.140625 71.796875 
Q 19.390625 75.984375 28.609375 75.984375 
z
" id="DejaVuSans-66"/>
      <path d="M 45.40625 46.390625 
L 45.40625 75.984375 
L 54.390625 75.984375 
L 54.390625 0 
L 45.40625 0 
L 45.40625 8.203125 
Q 42.578125 3.328125 38.25 0.953125 
Q 33.9375 -1.421875 27.875 -1.421875 
Q 17.96875 -1.421875 11.734375 6.484375 
Q 5.515625 14.40625 5.515625 27.296875 
Q 5.515625 40.1875 11.734375 48.09375 
Q 17.96875 56 27.875 56 
Q 33.9375 56 38.25 53.625 
Q 42.578125 51.265625 45.40625 46.390625 
z
M 14.796875 27.296875 
Q 14.796875 17.390625 18.875 11.75 
Q 22.953125 6.109375 30.078125 6.109375 
Q 37.203125 6.109375 41.296875 11.75 
Q 45.40625 17.390625 45.40625 27.296875 
Q 45.40625 37.203125 41.296875 42.84375 
Q 37.203125 48.484375 30.078125 48.484375 
Q 22.953125 48.484375 18.875 42.84375 
Q 14.796875 37.203125 14.796875 27.296875 
z
" id="DejaVuSans-64"/>
      <path d="M 45.40625 27.984375 
Q 45.40625 37.75 41.375 43.109375 
Q 37.359375 48.484375 30.078125 48.484375 
Q 22.859375 48.484375 18.828125 43.109375 
Q 14.796875 37.75 14.796875 27.984375 
Q 14.796875 18.265625 18.828125 12.890625 
Q 22.859375 7.515625 30.078125 7.515625 
Q 37.359375 7.515625 41.375 12.890625 
Q 45.40625 18.265625 45.40625 27.984375 
z
M 54.390625 6.78125 
Q 54.390625 -7.171875 48.1875 -13.984375 
Q 42 -20.796875 29.203125 -20.796875 
Q 24.46875 -20.796875 20.265625 -20.09375 
Q 16.0625 -19.390625 12.109375 -17.921875 
L 12.109375 -9.1875 
Q 16.0625 -11.328125 19.921875 -12.34375 
Q 23.78125 -13.375 27.78125 -13.375 
Q 36.625 -13.375 41.015625 -8.765625 
Q 45.40625 -4.15625 45.40625 5.171875 
L 45.40625 9.625 
Q 42.625 4.78125 38.28125 2.390625 
Q 33.9375 0 27.875 0 
Q 17.828125 0 11.671875 7.65625 
Q 5.515625 15.328125 5.515625 27.984375 
Q 5.515625 40.671875 11.671875 48.328125 
Q 17.828125 56 27.875 56 
Q 33.9375 56 38.28125 53.609375 
Q 42.625 51.21875 45.40625 46.390625 
L 45.40625 54.6875 
L 54.390625 54.6875 
z
" id="DejaVuSans-67"/>
      <path d="M 18.109375 8.203125 
L 18.109375 -20.796875 
L 9.078125 -20.796875 
L 9.078125 54.6875 
L 18.109375 54.6875 
L 18.109375 46.390625 
Q 20.953125 51.265625 25.265625 53.625 
Q 29.59375 56 35.59375 56 
Q 45.5625 56 51.78125 48.09375 
Q 58.015625 40.1875 58.015625 27.296875 
Q 58.015625 14.40625 51.78125 6.484375 
Q 45.5625 -1.421875 35.59375 -1.421875 
Q 29.59375 -1.421875 25.265625 0.953125 
Q 20.953125 3.328125 18.109375 8.203125 
z
M 48.6875 27.296875 
Q 48.6875 37.203125 44.609375 42.84375 
Q 40.53125 48.484375 33.40625 48.484375 
Q 26.265625 48.484375 22.1875 42.84375 
Q 18.109375 37.203125 18.109375 27.296875 
Q 18.109375 17.390625 22.1875 11.75 
Q 26.265625 6.109375 33.40625 6.109375 
Q 40.53125 6.109375 44.609375 11.75 
Q 48.6875 17.390625 48.6875 27.296875 
z
" id="DejaVuSans-70"/>
     </defs>
     <g transform="translate(26.920312 235.377219)rotate(-90)scale(0.1 -0.1)">
      <use xlink:href="#DejaVuSans-4e"/>
      <use x="74.804688" xlink:href="#DejaVuSans-75"/>
      <use x="138.183594" xlink:href="#DejaVuSans-6d"/>
      <use x="235.595703" xlink:href="#DejaVuSans-62"/>
      <use x="299.072266" xlink:href="#DejaVuSans-65"/>
      <use x="360.595703" xlink:href="#DejaVuSans-72"/>
      <use x="401.708984" xlink:href="#DejaVuSans-20"/>
      <use x="433.496094" xlink:href="#DejaVuSans-6f"/>
      <use x="494.677734" xlink:href="#DejaVuSans-66"/>
      <use x="529.882812" xlink:href="#DejaVuSans-20"/>
      <use x="561.669922" xlink:href="#DejaVuSans-65"/>
      <use x="623.193359" xlink:href="#DejaVuSans-64"/>
      <use x="686.669922" xlink:href="#DejaVuSans-67"/>
      <use x="750.146484" xlink:href="#DejaVuSans-65"/>
      <use x="811.669922" xlink:href="#DejaVuSans-20"/>
      <use x="843.457031" xlink:href="#DejaVuSans-73"/>
      <use x="895.556641" xlink:href="#DejaVuSans-70"/>
      <use x="959.033203" xlink:href="#DejaVuSans-65"/>
      <use x="1020.556641" xlink:href="#DejaVuSans-63"/>
      <use x="1075.537109" xlink:href="#DejaVuSans-69"/>
      <use x="1103.320312" xlink:href="#DejaVuSans-65"/>
      <use x="1164.84375" xlink:href="#DejaVuSans-73"/>
     </g>
    </g>
   </g>
   <g id="line2d_45">
    <path clip-path="url(#p0acd010c52)" d="M 73.832727 295.488 
L 236.935081 110.139548 
L 242.997385 107.899643 
L 252.380704 103.665388 
L 253.74702 103.647162 
L 258.932481 100.688909 
L 260.649495 100.531252 
L 271.176028 97.358119 
L 275.811849 95.955692 
L 281.520638 94.565557 
L 284.257849 94.251742 
L 287.646225 93.55668 
L 292.278102 92.308972 
L 297.190865 90.940141 
L 301.828117 90.107748 
L 304.858456 89.198862 
L 310.601336 87.040822 
L 312.864699 86.520582 
L 315.208424 85.331994 
L 318.023445 84.308676 
L 320.106492 83.463056 
L 322.204709 83.063157 
L 323.526243 82.771776 
L 325.879342 81.957823 
L 327.784516 81.253676 
L 330.15641 80.675233 
L 333.259941 79.611821 
L 335.072055 78.785452 
L 336.799576 77.950562 
L 339.21366 76.479022 
L 341.16045 75.445932 
L 342.86847 74.79263 
L 345.252251 73.482555 
L 346.54062 73.091998 
L 348.424031 71.628689 
L 350.945175 70.524743 
L 352.296715 70.143735 
L 356.571616 69.344322 
L 359.295908 68.613849 
L 361.394923 68.124275 
L 362.668137 67.433303 
L 364.669853 66.119607 
L 367.891681 64.997183 
L 369.47196 64.580039 
L 370.769825 63.977028 
L 372.468576 63.436566 
L 373.61211 63.250066 
L 375.208891 63.116744 
L 376.693838 61.975627 
L 377.953097 61.841966 
L 379.072806 61.37986 
L 380.295127 61.013068 
L 381.850084 60.579006 
L 383.579877 60.280098 
L 384.590432 59.924522 
L 385.672453 59.534356 
L 387.185428 58.896882 
L 388.173912 58.716344 
L 389.119738 58.605606 
L 390.657061 56.182602 
L 391.706467 55.979826 
L 393.602173 54.816765 
L 394.588345 54.689203 
L 395.458261 54.467615 
L 397.073099 54.140663 
L 398.487273 53.568 
" style="fill:none;stroke:#0000ff;stroke-linecap:square;stroke-width:1.5;"/>
    <defs>
     <path d="M 0 3 
C 0.795609 3 1.55874 2.683901 2.12132 2.12132 
C 2.683901 1.55874 3 0.795609 3 0 
C 3 -0.795609 2.683901 -1.55874 2.12132 -2.12132 
C 1.55874 -2.683901 0.795609 -3 0 -3 
C -0.795609 -3 -1.55874 -2.683901 -2.12132 -2.12132 
C -2.683901 -1.55874 -3 -0.795609 -3 0 
C -3 0.795609 -2.683901 1.55874 -2.12132 2.12132 
C -1.55874 2.683901 -0.795609 3 0 3 
z
" id="m3ef6c5e4d4" style="stroke:#0000ff;"/>
    </defs>
    <g clip-path="url(#p0acd010c52)">
     <use style="fill:#0000ff;stroke:#0000ff;" x="73.832727" xlink:href="#m3ef6c5e4d4" y="295.488"/>
     <use style="fill:#0000ff;stroke:#0000ff;" x="236.935081" xlink:href="#m3ef6c5e4d4" y="110.139548"/>
     <use style="fill:#0000ff;stroke:#0000ff;" x="242.997385" xlink:href="#m3ef6c5e4d4" y="107.899643"/>
     <use style="fill:#0000ff;stroke:#0000ff;" x="252.380704" xlink:href="#m3ef6c5e4d4" y="103.665388"/>
     <use style="fill:#0000ff;stroke:#0000ff;" x="253.74702" xlink:href="#m3ef6c5e4d4" y="103.647162"/>
     <use style="fill:#0000ff;stroke:#0000ff;" x="258.932481" xlink:href="#m3ef6c5e4d4" y="100.688909"/>
     <use style="fill:#0000ff;stroke:#0000ff;" x="260.649495" xlink:href="#m3ef6c5e4d4" y="100.531252"/>
     <use style="fill:#0000ff;stroke:#0000ff;" x="271.176028" xlink:href="#m3ef6c5e4d4" y="97.358119"/>
     <use style="fill:#0000ff;stroke:#0000ff;" x="275.811849" xlink:href="#m3ef6c5e4d4" y="95.955692"/>
     <use style="fill:#0000ff;stroke:#0000ff;" x="281.520638" xlink:href="#m3ef6c5e4d4" y="94.565557"/>
     <use style="fill:#0000ff;stroke:#0000ff;" x="284.257849" xlink:href="#m3ef6c5e4d4" y="94.251742"/>
     <use style="fill:#0000ff;stroke:#0000ff;" x="287.646225" xlink:href="#m3ef6c5e4d4" y="93.55668"/>
     <use style="fill:#0000ff;stroke:#0000ff;" x="292.278102" xlink:href="#m3ef6c5e4d4" y="92.308972"/>
     <use style="fill:#0000ff;stroke:#0000ff;" x="297.190865" xlink:href="#m3ef6c5e4d4" y="90.940141"/>
     <use style="fill:#0000ff;stroke:#0000ff;" x="301.828117" xlink:href="#m3ef6c5e4d4" y="90.107748"/>
     <use style="fill:#0000ff;stroke:#0000ff;" x="304.858456" xlink:href="#m3ef6c5e4d4" y="89.198862"/>
     <use style="fill:#0000ff;stroke:#0000ff;" x="310.601336" xlink:href="#m3ef6c5e4d4" y="87.040822"/>
     <use style="fill:#0000ff;stroke:#0000ff;" x="312.864699" xlink:href="#m3ef6c5e4d4" y="86.520582"/>
     <use style="fill:#0000ff;stroke:#0000ff;" x="315.208424" xlink:href="#m3ef6c5e4d4" y="85.331994"/>
     <use style="fill:#0000ff;stroke:#0000ff;" x="318.023445" xlink:href="#m3ef6c5e4d4" y="84.308676"/>
     <use style="fill:#0000ff;stroke:#0000ff;" x="320.106492" xlink:href="#m3ef6c5e4d4" y="83.463056"/>
     <use style="fill:#0000ff;stroke:#0000ff;" x="322.204709" xlink:href="#m3ef6c5e4d4" y="83.063157"/>
     <use style="fill:#0000ff;stroke:#0000ff;" x="323.526243" xlink:href="#m3ef6c5e4d4" y="82.771776"/>
     <use style="fill:#0000ff;stroke:#0000ff;" x="325.879342" xlink:href="#m3ef6c5e4d4" y="81.957823"/>
     <use style="fill:#0000ff;stroke:#0000ff;" x="327.784516" xlink:href="#m3ef6c5e4d4" y="81.253676"/>
     <use style="fill:#0000ff;stroke:#0000ff;" x="330.15641" xlink:href="#m3ef6c5e4d4" y="80.675233"/>
     <use style="fill:#0000ff;stroke:#0000ff;" x="333.259941" xlink:href="#m3ef6c5e4d4" y="79.611821"/>
     <use style="fill:#0000ff;stroke:#0000ff;" x="335.072055" xlink:href="#m3ef6c5e4d4" y="78.785452"/>
     <use style="fill:#0000ff;stroke:#0000ff;" x="336.799576" xlink:href="#m3ef6c5e4d4" y="77.950562"/>
     <use style="fill:#0000ff;stroke:#0000ff;" x="339.21366" xlink:href="#m3ef6c5e4d4" y="76.479022"/>
     <use style="fill:#0000ff;stroke:#0000ff;" x="341.16045" xlink:href="#m3ef6c5e4d4" y="75.445932"/>
     <use style="fill:#0000ff;stroke:#0000ff;" x="342.86847" xlink:href="#m3ef6c5e4d4" y="74.79263"/>
     <use style="fill:#0000ff;stroke:#0000ff;" x="345.252251" xlink:href="#m3ef6c5e4d4" y="73.482555"/>
     <use style="fill:#0000ff;stroke:#0000ff;" x="346.54062" xlink:href="#m3ef6c5e4d4" y="73.091998"/>
     <use style="fill:#0000ff;stroke:#0000ff;" x="348.424031" xlink:href="#m3ef6c5e4d4" y="71.628689"/>
     <use style="fill:#0000ff;stroke:#0000ff;" x="350.945175" xlink:href="#m3ef6c5e4d4" y="70.524743"/>
     <use style="fill:#0000ff;stroke:#0000ff;" x="352.296715" xlink:href="#m3ef6c5e4d4" y="70.143735"/>
     <use style="fill:#0000ff;stroke:#0000ff;" x="356.571616" xlink:href="#m3ef6c5e4d4" y="69.344322"/>
     <use style="fill:#0000ff;stroke:#0000ff;" x="359.295908" xlink:href="#m3ef6c5e4d4" y="68.613849"/>
     <use style="fill:#0000ff;stroke:#0000ff;" x="361.394923" xlink:href="#m3ef6c5e4d4" y="68.124275"/>
     <use style="fill:#0000ff;stroke:#0000ff;" x="362.668137" xlink:href="#m3ef6c5e4d4" y="67.433303"/>
     <use style="fill:#0000ff;stroke:#0000ff;" x="364.669853" xlink:href="#m3ef6c5e4d4" y="66.119607"/>
     <use style="fill:#0000ff;stroke:#0000ff;" x="367.891681" xlink:href="#m3ef6c5e4d4" y="64.997183"/>
     <use style="fill:#0000ff;stroke:#0000ff;" x="369.47196" xlink:href="#m3ef6c5e4d4" y="64.580039"/>
     <use style="fill:#0000ff;stroke:#0000ff;" x="370.769825" xlink:href="#m3ef6c5e4d4" y="63.977028"/>
     <use style="fill:#0000ff;stroke:#0000ff;" x="372.468576" xlink:href="#m3ef6c5e4d4" y="63.436566"/>
     <use style="fill:#0000ff;stroke:#0000ff;" x="373.61211" xlink:href="#m3ef6c5e4d4" y="63.250066"/>
     <use style="fill:#0000ff;stroke:#0000ff;" x="375.208891" xlink:href="#m3ef6c5e4d4" y="63.116744"/>
     <use style="fill:#0000ff;stroke:#0000ff;" x="376.693838" xlink:href="#m3ef6c5e4d4" y="61.975627"/>
     <use style="fill:#0000ff;stroke:#0000ff;" x="377.953097" xlink:href="#m3ef6c5e4d4" y="61.841966"/>
     <use style="fill:#0000ff;stroke:#0000ff;" x="379.072806" xlink:href="#m3ef6c5e4d4" y="61.37986"/>
     <use style="fill:#0000ff;stroke:#0000ff;" x="380.295127" xlink:href="#m3ef6c5e4d4" y="61.013068"/>
     <use style="fill:#0000ff;stroke:#0000ff;" x="381.850084" xlink:href="#m3ef6c5e4d4" y="60.579006"/>
     <use style="fill:#0000ff;stroke:#0000ff;" x="383.579877" xlink:href="#m3ef6c5e4d4" y="60.280098"/>
     <use style="fill:#0000ff;stroke:#0000ff;" x="384.590432" xlink:href="#m3ef6c5e4d4" y="59.924522"/>
     <use style="fill:#0000ff;stroke:#0000ff;" x="385.672453" xlink:href="#m3ef6c5e4d4" y="59.534356"/>
     <use style="fill:#0000ff;stroke:#0000ff;" x="387.185428" xlink:href="#m3ef6c5e4d4" y="58.896882"/>
     <use style="fill:#0000ff;stroke:#0000ff;" x="388.173912" xlink:href="#m3ef6c5e4d4" y="58.716344"/>
     <use style="fill:#0000ff;stroke:#0000ff;" x="389.119738" xlink:href="#m3ef6c5e4d4" y="58.605606"/>
     <use style="fill:#0000ff;stroke:#0000ff;" x="390.657061" xlink:href="#m3ef6c5e4d4" y="56.182602"/>
     <use style="fill:#0000ff;stroke:#0000ff;" x="391.706467" xlink:href="#m3ef6c5e4d4" y="55.979826"/>
     <use style="fill:#0000ff;stroke:#0000ff;" x="393.602173" xlink:href="#m3ef6c5e4d4" y="54.816765"/>
     <use style="fill:#0000ff;stroke:#0000ff;" x="394.588345" xlink:href="#m3ef6c5e4d4" y="54.689203"/>
     <use style="fill:#0000ff;stroke:#0000ff;" x="395.458261" xlink:href="#m3ef6c5e4d4" y="54.467615"/>
     <use style="fill:#0000ff;stroke:#0000ff;" x="397.073099" xlink:href="#m3ef6c5e4d4" y="54.140663"/>
     <use style="fill:#0000ff;stroke:#0000ff;" x="398.487273" xlink:href="#m3ef6c5e4d4" y="53.568"/>
    </g>
   </g>
   <g id="patch_3">
    <path d="M 57.6 307.584 
L 57.6 41.472 
" style="fill:none;stroke:#000000;stroke-linecap:square;stroke-linejoin:miter;stroke-width:0.8;"/>
   </g>
   <g id="patch_4">
    <path d="M 414.72 307.584 
L 414.72 41.472 
" style="fill:none;stroke:#000000;stroke-linecap:square;stroke-linejoin:miter;stroke-width:0.8;"/>
   </g>
   <g id="patch_5">
    <path d="M 57.6 307.584 
L 414.72 307.584 
" style="fill:none;stroke:#000000;stroke-linecap:square;stroke-linejoin:miter;stroke-width:0.8;"/>
   </g>
   <g id="patch_6">
    <path d="M 57.6 41.472 
L 414.72 41.472 
" style="fill:none;stroke:#000000;stroke-linecap:square;stroke-linejoin:miter;stroke-width:0.8;"/>
   </g>
  </g>
  <g id="axes_2">
   <g id="matplotlib.axis_3">
    <g id="ytick_20">
     <g id="line2d_46">
      <defs>
       <path d="M 0 0 
L 3.5 0 
" id="m373b743422" style="stroke:#000000;stroke-width:0.8;"/>
      </defs>
      <g>
       <use style="stroke:#000000;stroke-width:0.8;" x="414.72" xlink:href="#m373b743422" y="257.635648"/>
      </g>
     </g>
     <g id="text_8">
      <!-- $\mathdefault{10^{4}}$ -->
      <g transform="translate(421.72 261.434867)scale(0.1 -0.1)">
       <use transform="translate(0 0.684375)" xlink:href="#DejaVuSans-31"/>
       <use transform="translate(63.623047 0.684375)" xlink:href="#DejaVuSans-30"/>
       <use transform="translate(128.203125 38.965625)scale(0.7)" xlink:href="#DejaVuSans-34"/>
      </g>
     </g>
    </g>
    <g id="ytick_21">
     <g id="line2d_47">
      <g>
       <use style="stroke:#000000;stroke-width:0.8;" x="414.72" xlink:href="#m373b743422" y="157.467905"/>
      </g>
     </g>
     <g id="text_9">
      <!-- $\mathdefault{10^{5}}$ -->
      <g transform="translate(421.72 161.267124)scale(0.1 -0.1)">
       <use transform="translate(0 0.684375)" xlink:href="#DejaVuSans-31"/>
       <use transform="translate(63.623047 0.684375)" xlink:href="#DejaVuSans-30"/>
       <use transform="translate(128.203125 38.965625)scale(0.7)" xlink:href="#DejaVuSans-35"/>
      </g>
     </g>
    </g>
    <g id="ytick_22">
     <g id="line2d_48">
      <g>
       <use style="stroke:#000000;stroke-width:0.8;" x="414.72" xlink:href="#m373b743422" y="57.300162"/>
      </g>
     </g>
     <g id="text_10">
      <!-- $\mathdefault{10^{6}}$ -->
      <defs>
       <path d="M 33.015625 40.375 
Q 26.375 40.375 22.484375 35.828125 
Q 18.609375 31.296875 18.609375 23.390625 
Q 18.609375 15.53125 22.484375 10.953125 
Q 26.375 6.390625 33.015625 6.390625 
Q 39.65625 6.390625 43.53125 10.953125 
Q 47.40625 15.53125 47.40625 23.390625 
Q 47.40625 31.296875 43.53125 35.828125 
Q 39.65625 40.375 33.015625 40.375 
z
M 52.59375 71.296875 
L 52.59375 62.3125 
Q 48.875 64.0625 45.09375 64.984375 
Q 41.3125 65.921875 37.59375 65.921875 
Q 27.828125 65.921875 22.671875 59.328125 
Q 17.53125 52.734375 16.796875 39.40625 
Q 19.671875 43.65625 24.015625 45.921875 
Q 28.375 48.1875 33.59375 48.1875 
Q 44.578125 48.1875 50.953125 41.515625 
Q 57.328125 34.859375 57.328125 23.390625 
Q 57.328125 12.15625 50.6875 5.359375 
Q 44.046875 -1.421875 33.015625 -1.421875 
Q 20.359375 -1.421875 13.671875 8.265625 
Q 6.984375 17.96875 6.984375 36.375 
Q 6.984375 53.65625 15.1875 63.9375 
Q 23.390625 74.21875 37.203125 74.21875 
Q 40.921875 74.21875 44.703125 73.484375 
Q 48.484375 72.75 52.59375 71.296875 
z
" id="DejaVuSans-36"/>
      </defs>
      <g transform="translate(421.72 61.099381)scale(0.1 -0.1)">
       <use transform="translate(0 0.765625)" xlink:href="#DejaVuSans-31"/>
       <use transform="translate(63.623047 0.765625)" xlink:href="#DejaVuSans-30"/>
       <use transform="translate(128.203125 39.046875)scale(0.7)" xlink:href="#DejaVuSans-36"/>
      </g>
     </g>
    </g>
    <g id="ytick_23">
     <g id="line2d_49">
      <defs>
       <path d="M 0 0 
L 2 0 
" id="m03527edd0d" style="stroke:#000000;stroke-width:0.6;"/>
      </defs>
      <g>
       <use style="stroke:#000000;stroke-width:0.6;" x="414.72" xlink:href="#m03527edd0d" y="297.4964"/>
      </g>
     </g>
    </g>
    <g id="ytick_24">
     <g id="line2d_50">
      <g>
       <use style="stroke:#000000;stroke-width:0.6;" x="414.72" xlink:href="#m03527edd0d" y="287.789143"/>
      </g>
     </g>
    </g>
    <g id="ytick_25">
     <g id="line2d_51">
      <g>
       <use style="stroke:#000000;stroke-width:0.6;" x="414.72" xlink:href="#m03527edd0d" y="279.857736"/>
      </g>
     </g>
    </g>
    <g id="ytick_26">
     <g id="line2d_52">
      <g>
       <use style="stroke:#000000;stroke-width:0.6;" x="414.72" xlink:href="#m03527edd0d" y="273.151827"/>
      </g>
     </g>
    </g>
    <g id="ytick_27">
     <g id="line2d_53">
      <g>
       <use style="stroke:#000000;stroke-width:0.6;" x="414.72" xlink:href="#m03527edd0d" y="267.342905"/>
      </g>
     </g>
    </g>
    <g id="ytick_28">
     <g id="line2d_54">
      <g>
       <use style="stroke:#000000;stroke-width:0.6;" x="414.72" xlink:href="#m03527edd0d" y="262.219072"/>
      </g>
     </g>
    </g>
    <g id="ytick_29">
     <g id="line2d_55">
      <g>
       <use style="stroke:#000000;stroke-width:0.6;" x="414.72" xlink:href="#m03527edd0d" y="227.482153"/>
      </g>
     </g>
    </g>
    <g id="ytick_30">
     <g id="line2d_56">
      <g>
       <use style="stroke:#000000;stroke-width:0.6;" x="414.72" xlink:href="#m03527edd0d" y="209.843489"/>
      </g>
     </g>
    </g>
    <g id="ytick_31">
     <g id="line2d_57">
      <g>
       <use style="stroke:#000000;stroke-width:0.6;" x="414.72" xlink:href="#m03527edd0d" y="197.328657"/>
      </g>
     </g>
    </g>
    <g id="ytick_32">
     <g id="line2d_58">
      <g>
       <use style="stroke:#000000;stroke-width:0.6;" x="414.72" xlink:href="#m03527edd0d" y="187.6214"/>
      </g>
     </g>
    </g>
    <g id="ytick_33">
     <g id="line2d_59">
      <g>
       <use style="stroke:#000000;stroke-width:0.6;" x="414.72" xlink:href="#m03527edd0d" y="179.689993"/>
      </g>
     </g>
    </g>
    <g id="ytick_34">
     <g id="line2d_60">
      <g>
       <use style="stroke:#000000;stroke-width:0.6;" x="414.72" xlink:href="#m03527edd0d" y="172.984085"/>
      </g>
     </g>
    </g>
    <g id="ytick_35">
     <g id="line2d_61">
      <g>
       <use style="stroke:#000000;stroke-width:0.6;" x="414.72" xlink:href="#m03527edd0d" y="167.175162"/>
      </g>
     </g>
    </g>
    <g id="ytick_36">
     <g id="line2d_62">
      <g>
       <use style="stroke:#000000;stroke-width:0.6;" x="414.72" xlink:href="#m03527edd0d" y="162.05133"/>
      </g>
     </g>
    </g>
    <g id="ytick_37">
     <g id="line2d_63">
      <g>
       <use style="stroke:#000000;stroke-width:0.6;" x="414.72" xlink:href="#m03527edd0d" y="127.31441"/>
      </g>
     </g>
    </g>
    <g id="ytick_38">
     <g id="line2d_64">
      <g>
       <use style="stroke:#000000;stroke-width:0.6;" x="414.72" xlink:href="#m03527edd0d" y="109.675746"/>
      </g>
     </g>
    </g>
    <g id="ytick_39">
     <g id="line2d_65">
      <g>
       <use style="stroke:#000000;stroke-width:0.6;" x="414.72" xlink:href="#m03527edd0d" y="97.160915"/>
      </g>
     </g>
    </g>
    <g id="ytick_40">
     <g id="line2d_66">
      <g>
       <use style="stroke:#000000;stroke-width:0.6;" x="414.72" xlink:href="#m03527edd0d" y="87.453657"/>
      </g>
     </g>
    </g>
    <g id="ytick_41">
     <g id="line2d_67">
      <g>
       <use style="stroke:#000000;stroke-width:0.6;" x="414.72" xlink:href="#m03527edd0d" y="79.522251"/>
      </g>
     </g>
    </g>
    <g id="ytick_42">
     <g id="line2d_68">
      <g>
       <use style="stroke:#000000;stroke-width:0.6;" x="414.72" xlink:href="#m03527edd0d" y="72.816342"/>
      </g>
     </g>
    </g>
    <g id="ytick_43">
     <g id="line2d_69">
      <g>
       <use style="stroke:#000000;stroke-width:0.6;" x="414.72" xlink:href="#m03527edd0d" y="67.007419"/>
      </g>
     </g>
    </g>
    <g id="ytick_44">
     <g id="line2d_70">
      <g>
       <use style="stroke:#000000;stroke-width:0.6;" x="414.72" xlink:href="#m03527edd0d" y="61.883587"/>
      </g>
     </g>
    </g>
    <g id="text_11">
     <!-- Number of edge reactions -->
     <defs>
      <path d="M 34.28125 27.484375 
Q 23.390625 27.484375 19.1875 25 
Q 14.984375 22.515625 14.984375 16.5 
Q 14.984375 11.71875 18.140625 8.90625 
Q 21.296875 6.109375 26.703125 6.109375 
Q 34.1875 6.109375 38.703125 11.40625 
Q 43.21875 16.703125 43.21875 25.484375 
L 43.21875 27.484375 
z
M 52.203125 31.203125 
L 52.203125 0 
L 43.21875 0 
L 43.21875 8.296875 
Q 40.140625 3.328125 35.546875 0.953125 
Q 30.953125 -1.421875 24.3125 -1.421875 
Q 15.921875 -1.421875 10.953125 3.296875 
Q 6 8.015625 6 15.921875 
Q 6 25.140625 12.171875 29.828125 
Q 18.359375 34.515625 30.609375 34.515625 
L 43.21875 34.515625 
L 43.21875 35.40625 
Q 43.21875 41.609375 39.140625 45 
Q 35.0625 48.390625 27.6875 48.390625 
Q 23 48.390625 18.546875 47.265625 
Q 14.109375 46.140625 10.015625 43.890625 
L 10.015625 52.203125 
Q 14.9375 54.109375 19.578125 55.046875 
Q 24.21875 56 28.609375 56 
Q 40.484375 56 46.34375 49.84375 
Q 52.203125 43.703125 52.203125 31.203125 
z
" id="DejaVuSans-61"/>
     </defs>
     <g transform="translate(450.918438 239.828)rotate(-90)scale(0.1 -0.1)">
      <use xlink:href="#DejaVuSans-4e"/>
      <use x="74.804688" xlink:href="#DejaVuSans-75"/>
      <use x="138.183594" xlink:href="#DejaVuSans-6d"/>
      <use x="235.595703" xlink:href="#DejaVuSans-62"/>
      <use x="299.072266" xlink:href="#DejaVuSans-65"/>
      <use x="360.595703" xlink:href="#DejaVuSans-72"/>
      <use x="401.708984" xlink:href="#DejaVuSans-20"/>
      <use x="433.496094" xlink:href="#DejaVuSans-6f"/>
      <use x="494.677734" xlink:href="#DejaVuSans-66"/>
      <use x="529.882812" xlink:href="#DejaVuSans-20"/>
      <use x="561.669922" xlink:href="#DejaVuSans-65"/>
      <use x="623.193359" xlink:href="#DejaVuSans-64"/>
      <use x="686.669922" xlink:href="#DejaVuSans-67"/>
      <use x="750.146484" xlink:href="#DejaVuSans-65"/>
      <use x="811.669922" xlink:href="#DejaVuSans-20"/>
      <use x="843.457031" xlink:href="#DejaVuSans-72"/>
      <use x="884.539062" xlink:href="#DejaVuSans-65"/>
      <use x="946.0625" xlink:href="#DejaVuSans-61"/>
      <use x="1007.341797" xlink:href="#DejaVuSans-63"/>
      <use x="1062.322266" xlink:href="#DejaVuSans-74"/>
      <use x="1101.53125" xlink:href="#DejaVuSans-69"/>
      <use x="1129.314453" xlink:href="#DejaVuSans-6f"/>
      <use x="1190.496094" xlink:href="#DejaVuSans-6e"/>
      <use x="1253.875" xlink:href="#DejaVuSans-73"/>
     </g>
    </g>
   </g>
   <g id="line2d_71">
    <path clip-path="url(#p0acd010c52)" d="M 73.832727 295.488 
L 236.935081 131.433398 
L 242.997385 128.227468 
L 252.380704 122.074918 
L 253.74702 121.988231 
L 258.932481 118.861038 
L 260.649495 118.73085 
L 271.176028 113.818971 
L 275.811849 111.312852 
L 281.520638 108.51549 
L 284.257849 107.363921 
L 287.646225 105.095497 
L 292.278102 102.911583 
L 297.190865 100.287512 
L 301.828117 97.925071 
L 304.858456 96.566189 
L 310.601336 93.743807 
L 312.864699 92.9267 
L 315.208424 91.763589 
L 318.023445 90.184271 
L 320.106492 89.073813 
L 322.204709 88.307493 
L 323.526243 88.240199 
L 325.879342 86.955634 
L 327.784516 86.353845 
L 330.15641 84.945757 
L 333.259941 82.81761 
L 335.072055 81.905156 
L 336.799576 81.131812 
L 339.21366 79.780841 
L 341.16045 78.530338 
L 342.86847 77.851489 
L 345.252251 76.046969 
L 346.54062 75.898889 
L 348.424031 74.599314 
L 350.945175 73.107349 
L 352.296715 72.643175 
L 356.571616 71.853313 
L 359.295908 70.664215 
L 361.394923 70.103703 
L 362.668137 69.644856 
L 364.669853 68.5401 
L 367.891681 66.60224 
L 369.47196 66.034787 
L 370.769825 65.498218 
L 372.468576 64.356242 
L 373.61211 63.977652 
L 375.208891 63.237245 
L 376.693838 62.489227 
L 377.953097 62.091444 
L 379.072806 61.622488 
L 380.295127 61.085579 
L 381.850084 60.334632 
L 383.579877 59.572587 
L 384.590432 59.330155 
L 385.672453 58.991673 
L 387.185428 58.040661 
L 388.173912 57.843976 
L 389.119738 57.775401 
L 390.657061 56.955859 
L 391.706467 56.568764 
L 393.602173 55.324217 
L 394.588345 55.289353 
L 395.458261 55.154483 
L 397.073099 54.405752 
L 398.487273 53.568 
" style="fill:none;stroke:#ff0000;stroke-linecap:square;stroke-width:1.5;"/>
    <defs>
     <path d="M 0 3 
C 0.795609 3 1.55874 2.683901 2.12132 2.12132 
C 2.683901 1.55874 3 0.795609 3 0 
C 3 -0.795609 2.683901 -1.55874 2.12132 -2.12132 
C 1.55874 -2.683901 0.795609 -3 0 -3 
C -0.795609 -3 -1.55874 -2.683901 -2.12132 -2.12132 
C -2.683901 -1.55874 -3 -0.795609 -3 0 
C -3 0.795609 -2.683901 1.55874 -2.12132 2.12132 
C -1.55874 2.683901 -0.795609 3 0 3 
z
" id="me851ddf707" style="stroke:#ff0000;"/>
    </defs>
    <g clip-path="url(#p0acd010c52)">
     <use style="fill:#ff0000;stroke:#ff0000;" x="73.832727" xlink:href="#me851ddf707" y="295.488"/>
     <use style="fill:#ff0000;stroke:#ff0000;" x="236.935081" xlink:href="#me851ddf707" y="131.433398"/>
     <use style="fill:#ff0000;stroke:#ff0000;" x="242.997385" xlink:href="#me851ddf707" y="128.227468"/>
     <use style="fill:#ff0000;stroke:#ff0000;" x="252.380704" xlink:href="#me851ddf707" y="122.074918"/>
     <use style="fill:#ff0000;stroke:#ff0000;" x="253.74702" xlink:href="#me851ddf707" y="121.988231"/>
     <use style="fill:#ff0000;stroke:#ff0000;" x="258.932481" xlink:href="#me851ddf707" y="118.861038"/>
     <use style="fill:#ff0000;stroke:#ff0000;" x="260.649495" xlink:href="#me851ddf707" y="118.73085"/>
     <use style="fill:#ff0000;stroke:#ff0000;" x="271.176028" xlink:href="#me851ddf707" y="113.818971"/>
     <use style="fill:#ff0000;stroke:#ff0000;" x="275.811849" xlink:href="#me851ddf707" y="111.312852"/>
     <use style="fill:#ff0000;stroke:#ff0000;" x="281.520638" xlink:href="#me851ddf707" y="108.51549"/>
     <use style="fill:#ff0000;stroke:#ff0000;" x="284.257849" xlink:href="#me851ddf707" y="107.363921"/>
     <use style="fill:#ff0000;stroke:#ff0000;" x="287.646225" xlink:href="#me851ddf707" y="105.095497"/>
     <use style="fill:#ff0000;stroke:#ff0000;" x="292.278102" xlink:href="#me851ddf707" y="102.911583"/>
     <use style="fill:#ff0000;stroke:#ff0000;" x="297.190865" xlink:href="#me851ddf707" y="100.287512"/>
     <use style="fill:#ff0000;stroke:#ff0000;" x="301.828117" xlink:href="#me851ddf707" y="97.925071"/>
     <use style="fill:#ff0000;stroke:#ff0000;" x="304.858456" xlink:href="#me851ddf707" y="96.566189"/>
     <use style="fill:#ff0000;stroke:#ff0000;" x="310.601336" xlink:href="#me851ddf707" y="93.743807"/>
     <use style="fill:#ff0000;stroke:#ff0000;" x="312.864699" xlink:href="#me851ddf707" y="92.9267"/>
     <use style="fill:#ff0000;stroke:#ff0000;" x="315.208424" xlink:href="#me851ddf707" y="91.763589"/>
     <use style="fill:#ff0000;stroke:#ff0000;" x="318.023445" xlink:href="#me851ddf707" y="90.184271"/>
     <use style="fill:#ff0000;stroke:#ff0000;" x="320.106492" xlink:href="#me851ddf707" y="89.073813"/>
     <use style="fill:#ff0000;stroke:#ff0000;" x="322.204709" xlink:href="#me851ddf707" y="88.307493"/>
     <use style="fill:#ff0000;stroke:#ff0000;" x="323.526243" xlink:href="#me851ddf707" y="88.240199"/>
     <use style="fill:#ff0000;stroke:#ff0000;" x="325.879342" xlink:href="#me851ddf707" y="86.955634"/>
     <use style="fill:#ff0000;stroke:#ff0000;" x="327.784516" xlink:href="#me851ddf707" y="86.353845"/>
     <use style="fill:#ff0000;stroke:#ff0000;" x="330.15641" xlink:href="#me851ddf707" y="84.945757"/>
     <use style="fill:#ff0000;stroke:#ff0000;" x="333.259941" xlink:href="#me851ddf707" y="82.81761"/>
     <use style="fill:#ff0000;stroke:#ff0000;" x="335.072055" xlink:href="#me851ddf707" y="81.905156"/>
     <use style="fill:#ff0000;stroke:#ff0000;" x="336.799576" xlink:href="#me851ddf707" y="81.131812"/>
     <use style="fill:#ff0000;stroke:#ff0000;" x="339.21366" xlink:href="#me851ddf707" y="79.780841"/>
     <use style="fill:#ff0000;stroke:#ff0000;" x="341.16045" xlink:href="#me851ddf707" y="78.530338"/>
     <use style="fill:#ff0000;stroke:#ff0000;" x="342.86847" xlink:href="#me851ddf707" y="77.851489"/>
     <use style="fill:#ff0000;stroke:#ff0000;" x="345.252251" xlink:href="#me851ddf707" y="76.046969"/>
     <use style="fill:#ff0000;stroke:#ff0000;" x="346.54062" xlink:href="#me851ddf707" y="75.898889"/>
     <use style="fill:#ff0000;stroke:#ff0000;" x="348.424031" xlink:href="#me851ddf707" y="74.599314"/>
     <use style="fill:#ff0000;stroke:#ff0000;" x="350.945175" xlink:href="#me851ddf707" y="73.107349"/>
     <use style="fill:#ff0000;stroke:#ff0000;" x="352.296715" xlink:href="#me851ddf707" y="72.643175"/>
     <use style="fill:#ff0000;stroke:#ff0000;" x="356.571616" xlink:href="#me851ddf707" y="71.853313"/>
     <use style="fill:#ff0000;stroke:#ff0000;" x="359.295908" xlink:href="#me851ddf707" y="70.664215"/>
     <use style="fill:#ff0000;stroke:#ff0000;" x="361.394923" xlink:href="#me851ddf707" y="70.103703"/>
     <use style="fill:#ff0000;stroke:#ff0000;" x="362.668137" xlink:href="#me851ddf707" y="69.644856"/>
     <use style="fill:#ff0000;stroke:#ff0000;" x="364.669853" xlink:href="#me851ddf707" y="68.5401"/>
     <use style="fill:#ff0000;stroke:#ff0000;" x="367.891681" xlink:href="#me851ddf707" y="66.60224"/>
     <use style="fill:#ff0000;stroke:#ff0000;" x="369.47196" xlink:href="#me851ddf707" y="66.034787"/>
     <use style="fill:#ff0000;stroke:#ff0000;" x="370.769825" xlink:href="#me851ddf707" y="65.498218"/>
     <use style="fill:#ff0000;stroke:#ff0000;" x="372.468576" xlink:href="#me851ddf707" y="64.356242"/>
     <use style="fill:#ff0000;stroke:#ff0000;" x="373.61211" xlink:href="#me851ddf707" y="63.977652"/>
     <use style="fill:#ff0000;stroke:#ff0000;" x="375.208891" xlink:href="#me851ddf707" y="63.237245"/>
     <use style="fill:#ff0000;stroke:#ff0000;" x="376.693838" xlink:href="#me851ddf707" y="62.489227"/>
     <use style="fill:#ff0000;stroke:#ff0000;" x="377.953097" xlink:href="#me851ddf707" y="62.091444"/>
     <use style="fill:#ff0000;stroke:#ff0000;" x="379.072806" xlink:href="#me851ddf707" y="61.622488"/>
     <use style="fill:#ff0000;stroke:#ff0000;" x="380.295127" xlink:href="#me851ddf707" y="61.085579"/>
     <use style="fill:#ff0000;stroke:#ff0000;" x="381.850084" xlink:href="#me851ddf707" y="60.334632"/>
     <use style="fill:#ff0000;stroke:#ff0000;" x="383.579877" xlink:href="#me851ddf707" y="59.572587"/>
     <use style="fill:#ff0000;stroke:#ff0000;" x="384.590432" xlink:href="#me851ddf707" y="59.330155"/>
     <use style="fill:#ff0000;stroke:#ff0000;" x="385.672453" xlink:href="#me851ddf707" y="58.991673"/>
     <use style="fill:#ff0000;stroke:#ff0000;" x="387.185428" xlink:href="#me851ddf707" y="58.040661"/>
     <use style="fill:#ff0000;stroke:#ff0000;" x="388.173912" xlink:href="#me851ddf707" y="57.843976"/>
     <use style="fill:#ff0000;stroke:#ff0000;" x="389.119738" xlink:href="#me851ddf707" y="57.775401"/>
     <use style="fill:#ff0000;stroke:#ff0000;" x="390.657061" xlink:href="#me851ddf707" y="56.955859"/>
     <use style="fill:#ff0000;stroke:#ff0000;" x="391.706467" xlink:href="#me851ddf707" y="56.568764"/>
     <use style="fill:#ff0000;stroke:#ff0000;" x="393.602173" xlink:href="#me851ddf707" y="55.324217"/>
     <use style="fill:#ff0000;stroke:#ff0000;" x="394.588345" xlink:href="#me851ddf707" y="55.289353"/>
     <use style="fill:#ff0000;stroke:#ff0000;" x="395.458261" xlink:href="#me851ddf707" y="55.154483"/>
     <use style="fill:#ff0000;stroke:#ff0000;" x="397.073099" xlink:href="#me851ddf707" y="54.405752"/>
     <use style="fill:#ff0000;stroke:#ff0000;" x="398.487273" xlink:href="#me851ddf707" y="53.568"/>
    </g>
   </g>
   <g id="patch_7">
    <path d="M 57.6 307.584 
L 57.6 41.472 
" style="fill:none;stroke:#000000;stroke-linecap:square;stroke-linejoin:miter;stroke-width:0.8;"/>
   </g>
   <g id="patch_8">
    <path d="M 414.72 307.584 
L 414.72 41.472 
" style="fill:none;stroke:#000000;stroke-linecap:square;stroke-linejoin:miter;stroke-width:0.8;"/>
   </g>
   <g id="patch_9">
    <path d="M 57.6 307.584 
L 414.72 307.584 
" style="fill:none;stroke:#000000;stroke-linecap:square;stroke-linejoin:miter;stroke-width:0.8;"/>
   </g>
   <g id="patch_10">
    <path d="M 57.6 41.472 
L 414.72 41.472 
" style="fill:none;stroke:#000000;stroke-linecap:square;stroke-linejoin:miter;stroke-width:0.8;"/>
   </g>
  </g>
 </g>
 <defs>
  <clipPath id="p0acd010c52">
   <rect height="266.112" width="357.12" x="57.6" y="41.472"/>
  </clipPath>
 </defs>
</svg>
