<?xml version="1.0" encoding="utf-8" standalone="no"?>
<!DOCTYPE svg PUBLIC "-//W3C//DTD SVG 1.1//EN"
  "http://www.w3.org/Graphics/SVG/1.1/DTD/svg11.dtd">
<!-- Created with matplotlib (http://matplotlib.org/) -->
<svg height="345.6pt" version="1.1" viewBox="0 0 460.8 345.6" width="460.8pt" xmlns="http://www.w3.org/2000/svg" xmlns:xlink="http://www.w3.org/1999/xlink">
 <defs>
  <style type="text/css">
*{stroke-linecap:butt;stroke-linejoin:round;}
  </style>
 </defs>
 <g id="figure_1">
  <g id="patch_1">
   <path d="M 0 345.6 
L 460.8 345.6 
L 460.8 0 
L 0 0 
z
" style="fill:#ffffff;"/>
  </g>
  <g id="axes_1">
   <g id="patch_2">
    <path d="M 57.6 307.584 
L 414.72 307.584 
L 414.72 41.472 
L 57.6 41.472 
z
" style="fill:#ffffff;"/>
   </g>
   <g id="matplotlib.axis_1">
    <g id="xtick_1">
     <g id="line2d_1">
      <defs>
       <path d="M 0 0 
L 0 3.5 
" id="mc8593a5ec6" style="stroke:#000000;stroke-width:0.8;"/>
      </defs>
      <g>
       <use style="stroke:#000000;stroke-width:0.8;" x="70.410446" xlink:href="#mc8593a5ec6" y="307.584"/>
      </g>
     </g>
     <g id="text_1">
      <!-- $\mathdefault{10^{2}}$ -->
      <defs>
       <path d="M 12.40625 8.296875 
L 28.515625 8.296875 
L 28.515625 63.921875 
L 10.984375 60.40625 
L 10.984375 69.390625 
L 28.421875 72.90625 
L 38.28125 72.90625 
L 38.28125 8.296875 
L 54.390625 8.296875 
L 54.390625 0 
L 12.40625 0 
z
" id="DejaVuSans-31"/>
       <path d="M 31.78125 66.40625 
Q 24.171875 66.40625 20.328125 58.90625 
Q 16.5 51.421875 16.5 36.375 
Q 16.5 21.390625 20.328125 13.890625 
Q 24.171875 6.390625 31.78125 6.390625 
Q 39.453125 6.390625 43.28125 13.890625 
Q 47.125 21.390625 47.125 36.375 
Q 47.125 51.421875 43.28125 58.90625 
Q 39.453125 66.40625 31.78125 66.40625 
z
M 31.78125 74.21875 
Q 44.046875 74.21875 50.515625 64.515625 
Q 56.984375 54.828125 56.984375 36.375 
Q 56.984375 17.96875 50.515625 8.265625 
Q 44.046875 -1.421875 31.78125 -1.421875 
Q 19.53125 -1.421875 13.0625 8.265625 
Q 6.59375 17.96875 6.59375 36.375 
Q 6.59375 54.828125 13.0625 64.515625 
Q 19.53125 74.21875 31.78125 74.21875 
z
" id="DejaVuSans-30"/>
       <path d="M 19.1875 8.296875 
L 53.609375 8.296875 
L 53.609375 0 
L 7.328125 0 
L 7.328125 8.296875 
Q 12.9375 14.109375 22.625 23.890625 
Q 32.328125 33.6875 34.8125 36.53125 
Q 39.546875 41.84375 41.421875 45.53125 
Q 43.3125 49.21875 43.3125 52.78125 
Q 43.3125 58.59375 39.234375 62.25 
Q 35.15625 65.921875 28.609375 65.921875 
Q 23.96875 65.921875 18.8125 64.3125 
Q 13.671875 62.703125 7.8125 59.421875 
L 7.8125 69.390625 
Q 13.765625 71.78125 18.9375 73 
Q 24.125 74.21875 28.421875 74.21875 
Q 39.75 74.21875 46.484375 68.546875 
Q 53.21875 62.890625 53.21875 53.421875 
Q 53.21875 48.921875 51.53125 44.890625 
Q 49.859375 40.875 45.40625 35.40625 
Q 44.1875 33.984375 37.640625 27.21875 
Q 31.109375 20.453125 19.1875 8.296875 
z
" id="DejaVuSans-32"/>
      </defs>
      <g transform="translate(61.610446 322.182437)scale(0.1 -0.1)">
       <use transform="translate(0 0.765625)" xlink:href="#DejaVuSans-31"/>
       <use transform="translate(63.623047 0.765625)" xlink:href="#DejaVuSans-30"/>
       <use transform="translate(128.203125 39.046875)scale(0.7)" xlink:href="#DejaVuSans-32"/>
      </g>
     </g>
    </g>
    <g id="xtick_2">
     <g id="line2d_2">
      <g>
       <use style="stroke:#000000;stroke-width:0.8;" x="230.82209" xlink:href="#mc8593a5ec6" y="307.584"/>
      </g>
     </g>
     <g id="text_2">
      <!-- $\mathdefault{10^{3}}$ -->
      <defs>
       <path d="M 40.578125 39.3125 
Q 47.65625 37.796875 51.625 33 
Q 55.609375 28.21875 55.609375 21.1875 
Q 55.609375 10.40625 48.1875 4.484375 
Q 40.765625 -1.421875 27.09375 -1.421875 
Q 22.515625 -1.421875 17.65625 -0.515625 
Q 12.796875 0.390625 7.625 2.203125 
L 7.625 11.71875 
Q 11.71875 9.328125 16.59375 8.109375 
Q 21.484375 6.890625 26.8125 6.890625 
Q 36.078125 6.890625 40.9375 10.546875 
Q 45.796875 14.203125 45.796875 21.1875 
Q 45.796875 27.640625 41.28125 31.265625 
Q 36.765625 34.90625 28.71875 34.90625 
L 20.21875 34.90625 
L 20.21875 43.015625 
L 29.109375 43.015625 
Q 36.375 43.015625 40.234375 45.921875 
Q 44.09375 48.828125 44.09375 54.296875 
Q 44.09375 59.90625 40.109375 62.90625 
Q 36.140625 65.921875 28.71875 65.921875 
Q 24.65625 65.921875 20.015625 65.03125 
Q 15.375 64.15625 9.8125 62.3125 
L 9.8125 71.09375 
Q 15.4375 72.65625 20.34375 73.4375 
Q 25.25 74.21875 29.59375 74.21875 
Q 40.828125 74.21875 47.359375 69.109375 
Q 53.90625 64.015625 53.90625 55.328125 
Q 53.90625 49.265625 50.4375 45.09375 
Q 46.96875 40.921875 40.578125 39.3125 
z
" id="DejaVuSans-33"/>
      </defs>
      <g transform="translate(222.02209 322.182437)scale(0.1 -0.1)">
       <use transform="translate(0 0.765625)" xlink:href="#DejaVuSans-31"/>
       <use transform="translate(63.623047 0.765625)" xlink:href="#DejaVuSans-30"/>
       <use transform="translate(128.203125 39.046875)scale(0.7)" xlink:href="#DejaVuSans-33"/>
      </g>
     </g>
    </g>
    <g id="xtick_3">
     <g id="line2d_3">
      <g>
       <use style="stroke:#000000;stroke-width:0.8;" x="391.233734" xlink:href="#mc8593a5ec6" y="307.584"/>
      </g>
     </g>
     <g id="text_3">
      <!-- $\mathdefault{10^{4}}$ -->
      <defs>
       <path d="M 37.796875 64.3125 
L 12.890625 25.390625 
L 37.796875 25.390625 
z
M 35.203125 72.90625 
L 47.609375 72.90625 
L 47.609375 25.390625 
L 58.015625 25.390625 
L 58.015625 17.1875 
L 47.609375 17.1875 
L 47.609375 0 
L 37.796875 0 
L 37.796875 17.1875 
L 4.890625 17.1875 
L 4.890625 26.703125 
z
" id="DejaVuSans-34"/>
      </defs>
      <g transform="translate(382.433734 322.182437)scale(0.1 -0.1)">
       <use transform="translate(0 0.684375)" xlink:href="#DejaVuSans-31"/>
       <use transform="translate(63.623047 0.684375)" xlink:href="#DejaVuSans-30"/>
       <use transform="translate(128.203125 38.965625)scale(0.7)" xlink:href="#DejaVuSans-34"/>
      </g>
     </g>
    </g>
    <g id="xtick_4">
     <g id="line2d_4">
      <defs>
       <path d="M 0 0 
L 0 2 
" id="mda74f0cd0c" style="stroke:#000000;stroke-width:0.6;"/>
      </defs>
      <g>
       <use style="stroke:#000000;stroke-width:0.6;" x="63.070411" xlink:href="#mda74f0cd0c" y="307.584"/>
      </g>
     </g>
    </g>
    <g id="xtick_5">
     <g id="line2d_5">
      <g>
       <use style="stroke:#000000;stroke-width:0.6;" x="118.699162" xlink:href="#mda74f0cd0c" y="307.584"/>
      </g>
     </g>
    </g>
    <g id="xtick_6">
     <g id="line2d_6">
      <g>
       <use style="stroke:#000000;stroke-width:0.6;" x="146.946251" xlink:href="#mda74f0cd0c" y="307.584"/>
      </g>
     </g>
    </g>
    <g id="xtick_7">
     <g id="line2d_7">
      <g>
       <use style="stroke:#000000;stroke-width:0.6;" x="166.987879" xlink:href="#mda74f0cd0c" y="307.584"/>
      </g>
     </g>
    </g>
    <g id="xtick_8">
     <g id="line2d_8">
      <g>
       <use style="stroke:#000000;stroke-width:0.6;" x="182.533373" xlink:href="#mda74f0cd0c" y="307.584"/>
      </g>
     </g>
    </g>
    <g id="xtick_9">
     <g id="line2d_9">
      <g>
       <use style="stroke:#000000;stroke-width:0.6;" x="195.234967" xlink:href="#mda74f0cd0c" y="307.584"/>
      </g>
     </g>
    </g>
    <g id="xtick_10">
     <g id="line2d_10">
      <g>
       <use style="stroke:#000000;stroke-width:0.6;" x="205.974012" xlink:href="#mda74f0cd0c" y="307.584"/>
      </g>
     </g>
    </g>
    <g id="xtick_11">
     <g id="line2d_11">
      <g>
       <use style="stroke:#000000;stroke-width:0.6;" x="215.276595" xlink:href="#mda74f0cd0c" y="307.584"/>
      </g>
     </g>
    </g>
    <g id="xtick_12">
     <g id="line2d_12">
      <g>
       <use style="stroke:#000000;stroke-width:0.6;" x="223.482056" xlink:href="#mda74f0cd0c" y="307.584"/>
      </g>
     </g>
    </g>
    <g id="xtick_13">
     <g id="line2d_13">
      <g>
       <use style="stroke:#000000;stroke-width:0.6;" x="279.110806" xlink:href="#mda74f0cd0c" y="307.584"/>
      </g>
     </g>
    </g>
    <g id="xtick_14">
     <g id="line2d_14">
      <g>
       <use style="stroke:#000000;stroke-width:0.6;" x="307.357895" xlink:href="#mda74f0cd0c" y="307.584"/>
      </g>
     </g>
    </g>
    <g id="xtick_15">
     <g id="line2d_15">
      <g>
       <use style="stroke:#000000;stroke-width:0.6;" x="327.399523" xlink:href="#mda74f0cd0c" y="307.584"/>
      </g>
     </g>
    </g>
    <g id="xtick_16">
     <g id="line2d_16">
      <g>
       <use style="stroke:#000000;stroke-width:0.6;" x="342.945017" xlink:href="#mda74f0cd0c" y="307.584"/>
      </g>
     </g>
    </g>
    <g id="xtick_17">
     <g id="line2d_17">
      <g>
       <use style="stroke:#000000;stroke-width:0.6;" x="355.646611" xlink:href="#mda74f0cd0c" y="307.584"/>
      </g>
     </g>
    </g>
    <g id="xtick_18">
     <g id="line2d_18">
      <g>
       <use style="stroke:#000000;stroke-width:0.6;" x="366.385656" xlink:href="#mda74f0cd0c" y="307.584"/>
      </g>
     </g>
    </g>
    <g id="xtick_19">
     <g id="line2d_19">
      <g>
       <use style="stroke:#000000;stroke-width:0.6;" x="375.688239" xlink:href="#mda74f0cd0c" y="307.584"/>
      </g>
     </g>
    </g>
    <g id="xtick_20">
     <g id="line2d_20">
      <g>
       <use style="stroke:#000000;stroke-width:0.6;" x="383.8937" xlink:href="#mda74f0cd0c" y="307.584"/>
      </g>
     </g>
    </g>
    <g id="text_4">
     <!-- Execution time (s) -->
     <defs>
      <path d="M 9.8125 72.90625 
L 55.90625 72.90625 
L 55.90625 64.59375 
L 19.671875 64.59375 
L 19.671875 43.015625 
L 54.390625 43.015625 
L 54.390625 34.71875 
L 19.671875 34.71875 
L 19.671875 8.296875 
L 56.78125 8.296875 
L 56.78125 0 
L 9.8125 0 
z
" id="DejaVuSans-45"/>
      <path d="M 54.890625 54.6875 
L 35.109375 28.078125 
L 55.90625 0 
L 45.3125 0 
L 29.390625 21.484375 
L 13.484375 0 
L 2.875 0 
L 24.125 28.609375 
L 4.6875 54.6875 
L 15.28125 54.6875 
L 29.78125 35.203125 
L 44.28125 54.6875 
z
" id="DejaVuSans-78"/>
      <path d="M 56.203125 29.59375 
L 56.203125 25.203125 
L 14.890625 25.203125 
Q 15.484375 15.921875 20.484375 11.0625 
Q 25.484375 6.203125 34.421875 6.203125 
Q 39.59375 6.203125 44.453125 7.46875 
Q 49.3125 8.734375 54.109375 11.28125 
L 54.109375 2.78125 
Q 49.265625 0.734375 44.1875 -0.34375 
Q 39.109375 -1.421875 33.890625 -1.421875 
Q 20.796875 -1.421875 13.15625 6.1875 
Q 5.515625 13.8125 5.515625 26.8125 
Q 5.515625 40.234375 12.765625 48.109375 
Q 20.015625 56 32.328125 56 
Q 43.359375 56 49.78125 48.890625 
Q 56.203125 41.796875 56.203125 29.59375 
z
M 47.21875 32.234375 
Q 47.125 39.59375 43.09375 43.984375 
Q 39.0625 48.390625 32.421875 48.390625 
Q 24.90625 48.390625 20.390625 44.140625 
Q 15.875 39.890625 15.1875 32.171875 
z
" id="DejaVuSans-65"/>
      <path d="M 48.78125 52.59375 
L 48.78125 44.1875 
Q 44.96875 46.296875 41.140625 47.34375 
Q 37.3125 48.390625 33.40625 48.390625 
Q 24.65625 48.390625 19.8125 42.84375 
Q 14.984375 37.3125 14.984375 27.296875 
Q 14.984375 17.28125 19.8125 11.734375 
Q 24.65625 6.203125 33.40625 6.203125 
Q 37.3125 6.203125 41.140625 7.25 
Q 44.96875 8.296875 48.78125 10.40625 
L 48.78125 2.09375 
Q 45.015625 0.34375 40.984375 -0.53125 
Q 36.96875 -1.421875 32.421875 -1.421875 
Q 20.0625 -1.421875 12.78125 6.34375 
Q 5.515625 14.109375 5.515625 27.296875 
Q 5.515625 40.671875 12.859375 48.328125 
Q 20.21875 56 33.015625 56 
Q 37.15625 56 41.109375 55.140625 
Q 45.0625 54.296875 48.78125 52.59375 
z
" id="DejaVuSans-63"/>
      <path d="M 8.5 21.578125 
L 8.5 54.6875 
L 17.484375 54.6875 
L 17.484375 21.921875 
Q 17.484375 14.15625 20.5 10.265625 
Q 23.53125 6.390625 29.59375 6.390625 
Q 36.859375 6.390625 41.078125 11.03125 
Q 45.3125 15.671875 45.3125 23.6875 
L 45.3125 54.6875 
L 54.296875 54.6875 
L 54.296875 0 
L 45.3125 0 
L 45.3125 8.40625 
Q 42.046875 3.421875 37.71875 1 
Q 33.40625 -1.421875 27.6875 -1.421875 
Q 18.265625 -1.421875 13.375 4.4375 
Q 8.5 10.296875 8.5 21.578125 
z
M 31.109375 56 
z
" id="DejaVuSans-75"/>
      <path d="M 18.3125 70.21875 
L 18.3125 54.6875 
L 36.8125 54.6875 
L 36.8125 47.703125 
L 18.3125 47.703125 
L 18.3125 18.015625 
Q 18.3125 11.328125 20.140625 9.421875 
Q 21.96875 7.515625 27.59375 7.515625 
L 36.8125 7.515625 
L 36.8125 0 
L 27.59375 0 
Q 17.1875 0 13.234375 3.875 
Q 9.28125 7.765625 9.28125 18.015625 
L 9.28125 47.703125 
L 2.6875 47.703125 
L 2.6875 54.6875 
L 9.28125 54.6875 
L 9.28125 70.21875 
z
" id="DejaVuSans-74"/>
      <path d="M 9.421875 54.6875 
L 18.40625 54.6875 
L 18.40625 0 
L 9.421875 0 
z
M 9.421875 75.984375 
L 18.40625 75.984375 
L 18.40625 64.59375 
L 9.421875 64.59375 
z
" id="DejaVuSans-69"/>
      <path d="M 30.609375 48.390625 
Q 23.390625 48.390625 19.1875 42.75 
Q 14.984375 37.109375 14.984375 27.296875 
Q 14.984375 17.484375 19.15625 11.84375 
Q 23.34375 6.203125 30.609375 6.203125 
Q 37.796875 6.203125 41.984375 11.859375 
Q 46.1875 17.53125 46.1875 27.296875 
Q 46.1875 37.015625 41.984375 42.703125 
Q 37.796875 48.390625 30.609375 48.390625 
z
M 30.609375 56 
Q 42.328125 56 49.015625 48.375 
Q 55.71875 40.765625 55.71875 27.296875 
Q 55.71875 13.875 49.015625 6.21875 
Q 42.328125 -1.421875 30.609375 -1.421875 
Q 18.84375 -1.421875 12.171875 6.21875 
Q 5.515625 13.875 5.515625 27.296875 
Q 5.515625 40.765625 12.171875 48.375 
Q 18.84375 56 30.609375 56 
z
" id="DejaVuSans-6f"/>
      <path d="M 54.890625 33.015625 
L 54.890625 0 
L 45.90625 0 
L 45.90625 32.71875 
Q 45.90625 40.484375 42.875 44.328125 
Q 39.84375 48.1875 33.796875 48.1875 
Q 26.515625 48.1875 22.3125 43.546875 
Q 18.109375 38.921875 18.109375 30.90625 
L 18.109375 0 
L 9.078125 0 
L 9.078125 54.6875 
L 18.109375 54.6875 
L 18.109375 46.1875 
Q 21.34375 51.125 25.703125 53.5625 
Q 30.078125 56 35.796875 56 
Q 45.21875 56 50.046875 50.171875 
Q 54.890625 44.34375 54.890625 33.015625 
z
" id="DejaVuSans-6e"/>
      <path id="DejaVuSans-20"/>
      <path d="M 52 44.1875 
Q 55.375 50.25 60.0625 53.125 
Q 64.75 56 71.09375 56 
Q 79.640625 56 84.28125 50.015625 
Q 88.921875 44.046875 88.921875 33.015625 
L 88.921875 0 
L 79.890625 0 
L 79.890625 32.71875 
Q 79.890625 40.578125 77.09375 44.375 
Q 74.3125 48.1875 68.609375 48.1875 
Q 61.625 48.1875 57.5625 43.546875 
Q 53.515625 38.921875 53.515625 30.90625 
L 53.515625 0 
L 44.484375 0 
L 44.484375 32.71875 
Q 44.484375 40.625 41.703125 44.40625 
Q 38.921875 48.1875 33.109375 48.1875 
Q 26.21875 48.1875 22.15625 43.53125 
Q 18.109375 38.875 18.109375 30.90625 
L 18.109375 0 
L 9.078125 0 
L 9.078125 54.6875 
L 18.109375 54.6875 
L 18.109375 46.1875 
Q 21.1875 51.21875 25.484375 53.609375 
Q 29.78125 56 35.6875 56 
Q 41.65625 56 45.828125 52.96875 
Q 50 49.953125 52 44.1875 
z
" id="DejaVuSans-6d"/>
      <path d="M 31 75.875 
Q 24.46875 64.65625 21.28125 53.65625 
Q 18.109375 42.671875 18.109375 31.390625 
Q 18.109375 20.125 21.3125 9.0625 
Q 24.515625 -2 31 -13.1875 
L 23.1875 -13.1875 
Q 15.875 -1.703125 12.234375 9.375 
Q 8.59375 20.453125 8.59375 31.390625 
Q 8.59375 42.28125 12.203125 53.3125 
Q 15.828125 64.359375 23.1875 75.875 
z
" id="DejaVuSans-28"/>
      <path d="M 44.28125 53.078125 
L 44.28125 44.578125 
Q 40.484375 46.53125 36.375 47.5 
Q 32.28125 48.484375 27.875 48.484375 
Q 21.1875 48.484375 17.84375 46.4375 
Q 14.5 44.390625 14.5 40.28125 
Q 14.5 37.15625 16.890625 35.375 
Q 19.28125 33.59375 26.515625 31.984375 
L 29.59375 31.296875 
Q 39.15625 29.25 43.1875 25.515625 
Q 47.21875 21.78125 47.21875 15.09375 
Q 47.21875 7.46875 41.1875 3.015625 
Q 35.15625 -1.421875 24.609375 -1.421875 
Q 20.21875 -1.421875 15.453125 -0.5625 
Q 10.6875 0.296875 5.421875 2 
L 5.421875 11.28125 
Q 10.40625 8.6875 15.234375 7.390625 
Q 20.0625 6.109375 24.8125 6.109375 
Q 31.15625 6.109375 34.5625 8.28125 
Q 37.984375 10.453125 37.984375 14.40625 
Q 37.984375 18.0625 35.515625 20.015625 
Q 33.0625 21.96875 24.703125 23.78125 
L 21.578125 24.515625 
Q 13.234375 26.265625 9.515625 29.90625 
Q 5.8125 33.546875 5.8125 39.890625 
Q 5.8125 47.609375 11.28125 51.796875 
Q 16.75 56 26.8125 56 
Q 31.78125 56 36.171875 55.265625 
Q 40.578125 54.546875 44.28125 53.078125 
z
" id="DejaVuSans-73"/>
      <path d="M 8.015625 75.875 
L 15.828125 75.875 
Q 23.140625 64.359375 26.78125 53.3125 
Q 30.421875 42.28125 30.421875 31.390625 
Q 30.421875 20.453125 26.78125 9.375 
Q 23.140625 -1.703125 15.828125 -13.1875 
L 8.015625 -13.1875 
Q 14.5 -2 17.703125 9.0625 
Q 20.90625 20.125 20.90625 31.390625 
Q 20.90625 42.671875 17.703125 53.65625 
Q 14.5 64.65625 8.015625 75.875 
z
" id="DejaVuSans-29"/>
     </defs>
     <g transform="translate(190.49125 335.860562)scale(0.1 -0.1)">
      <use xlink:href="#DejaVuSans-45"/>
      <use x="63.183594" xlink:href="#DejaVuSans-78"/>
      <use x="122.316406" xlink:href="#DejaVuSans-65"/>
      <use x="183.839844" xlink:href="#DejaVuSans-63"/>
      <use x="238.820312" xlink:href="#DejaVuSans-75"/>
      <use x="302.199219" xlink:href="#DejaVuSans-74"/>
      <use x="341.408203" xlink:href="#DejaVuSans-69"/>
      <use x="369.191406" xlink:href="#DejaVuSans-6f"/>
      <use x="430.373047" xlink:href="#DejaVuSans-6e"/>
      <use x="493.751953" xlink:href="#DejaVuSans-20"/>
      <use x="525.539062" xlink:href="#DejaVuSans-74"/>
      <use x="564.748047" xlink:href="#DejaVuSans-69"/>
      <use x="592.53125" xlink:href="#DejaVuSans-6d"/>
      <use x="689.943359" xlink:href="#DejaVuSans-65"/>
      <use x="751.466797" xlink:href="#DejaVuSans-20"/>
      <use x="783.253906" xlink:href="#DejaVuSans-28"/>
      <use x="822.267578" xlink:href="#DejaVuSans-73"/>
      <use x="874.367188" xlink:href="#DejaVuSans-29"/>
     </g>
    </g>
   </g>
   <g id="matplotlib.axis_2">
    <g id="ytick_1">
     <g id="line2d_21">
      <defs>
       <path d="M 0 0 
L -3.5 0 
" id="m50a5d42cef" style="stroke:#000000;stroke-width:0.8;"/>
      </defs>
      <g>
       <use style="stroke:#000000;stroke-width:0.8;" x="57.6" xlink:href="#m50a5d42cef" y="285.938526"/>
      </g>
     </g>
     <g id="text_5">
      <!-- 10 -->
      <g transform="translate(37.875 289.737745)scale(0.1 -0.1)">
       <use xlink:href="#DejaVuSans-31"/>
       <use x="63.623047" xlink:href="#DejaVuSans-30"/>
      </g>
     </g>
    </g>
    <g id="ytick_2">
     <g id="line2d_22">
      <g>
       <use style="stroke:#000000;stroke-width:0.8;" x="57.6" xlink:href="#m50a5d42cef" y="254.106947"/>
      </g>
     </g>
     <g id="text_6">
      <!-- 20 -->
      <g transform="translate(37.875 257.906166)scale(0.1 -0.1)">
       <use xlink:href="#DejaVuSans-32"/>
       <use x="63.623047" xlink:href="#DejaVuSans-30"/>
      </g>
     </g>
    </g>
    <g id="ytick_3">
     <g id="line2d_23">
      <g>
       <use style="stroke:#000000;stroke-width:0.8;" x="57.6" xlink:href="#m50a5d42cef" y="222.275368"/>
      </g>
     </g>
     <g id="text_7">
      <!-- 30 -->
      <g transform="translate(37.875 226.074587)scale(0.1 -0.1)">
       <use xlink:href="#DejaVuSans-33"/>
       <use x="63.623047" xlink:href="#DejaVuSans-30"/>
      </g>
     </g>
    </g>
    <g id="ytick_4">
     <g id="line2d_24">
      <g>
       <use style="stroke:#000000;stroke-width:0.8;" x="57.6" xlink:href="#m50a5d42cef" y="190.443789"/>
      </g>
     </g>
     <g id="text_8">
      <!-- 40 -->
      <g transform="translate(37.875 194.243008)scale(0.1 -0.1)">
       <use xlink:href="#DejaVuSans-34"/>
       <use x="63.623047" xlink:href="#DejaVuSans-30"/>
      </g>
     </g>
    </g>
    <g id="ytick_5">
     <g id="line2d_25">
      <g>
       <use style="stroke:#000000;stroke-width:0.8;" x="57.6" xlink:href="#m50a5d42cef" y="158.612211"/>
      </g>
     </g>
     <g id="text_9">
      <!-- 50 -->
      <defs>
       <path d="M 10.796875 72.90625 
L 49.515625 72.90625 
L 49.515625 64.59375 
L 19.828125 64.59375 
L 19.828125 46.734375 
Q 21.96875 47.46875 24.109375 47.828125 
Q 26.265625 48.1875 28.421875 48.1875 
Q 40.625 48.1875 47.75 41.5 
Q 54.890625 34.8125 54.890625 23.390625 
Q 54.890625 11.625 47.5625 5.09375 
Q 40.234375 -1.421875 26.90625 -1.421875 
Q 22.3125 -1.421875 17.546875 -0.640625 
Q 12.796875 0.140625 7.71875 1.703125 
L 7.71875 11.625 
Q 12.109375 9.234375 16.796875 8.0625 
Q 21.484375 6.890625 26.703125 6.890625 
Q 35.15625 6.890625 40.078125 11.328125 
Q 45.015625 15.765625 45.015625 23.390625 
Q 45.015625 31 40.078125 35.4375 
Q 35.15625 39.890625 26.703125 39.890625 
Q 22.75 39.890625 18.8125 39.015625 
Q 14.890625 38.140625 10.796875 36.28125 
z
" id="DejaVuSans-35"/>
      </defs>
      <g transform="translate(37.875 162.411429)scale(0.1 -0.1)">
       <use xlink:href="#DejaVuSans-35"/>
       <use x="63.623047" xlink:href="#DejaVuSans-30"/>
      </g>
     </g>
    </g>
    <g id="ytick_6">
     <g id="line2d_26">
      <g>
       <use style="stroke:#000000;stroke-width:0.8;" x="57.6" xlink:href="#m50a5d42cef" y="126.780632"/>
      </g>
     </g>
     <g id="text_10">
      <!-- 60 -->
      <defs>
       <path d="M 33.015625 40.375 
Q 26.375 40.375 22.484375 35.828125 
Q 18.609375 31.296875 18.609375 23.390625 
Q 18.609375 15.53125 22.484375 10.953125 
Q 26.375 6.390625 33.015625 6.390625 
Q 39.65625 6.390625 43.53125 10.953125 
Q 47.40625 15.53125 47.40625 23.390625 
Q 47.40625 31.296875 43.53125 35.828125 
Q 39.65625 40.375 33.015625 40.375 
z
M 52.59375 71.296875 
L 52.59375 62.3125 
Q 48.875 64.0625 45.09375 64.984375 
Q 41.3125 65.921875 37.59375 65.921875 
Q 27.828125 65.921875 22.671875 59.328125 
Q 17.53125 52.734375 16.796875 39.40625 
Q 19.671875 43.65625 24.015625 45.921875 
Q 28.375 48.1875 33.59375 48.1875 
Q 44.578125 48.1875 50.953125 41.515625 
Q 57.328125 34.859375 57.328125 23.390625 
Q 57.328125 12.15625 50.6875 5.359375 
Q 44.046875 -1.421875 33.015625 -1.421875 
Q 20.359375 -1.421875 13.671875 8.265625 
Q 6.984375 17.96875 6.984375 36.375 
Q 6.984375 53.65625 15.1875 63.9375 
Q 23.390625 74.21875 37.203125 74.21875 
Q 40.921875 74.21875 44.703125 73.484375 
Q 48.484375 72.75 52.59375 71.296875 
z
" id="DejaVuSans-36"/>
      </defs>
      <g transform="translate(37.875 130.57985)scale(0.1 -0.1)">
       <use xlink:href="#DejaVuSans-36"/>
       <use x="63.623047" xlink:href="#DejaVuSans-30"/>
      </g>
     </g>
    </g>
    <g id="ytick_7">
     <g id="line2d_27">
      <g>
       <use style="stroke:#000000;stroke-width:0.8;" x="57.6" xlink:href="#m50a5d42cef" y="94.949053"/>
      </g>
     </g>
     <g id="text_11">
      <!-- 70 -->
      <defs>
       <path d="M 8.203125 72.90625 
L 55.078125 72.90625 
L 55.078125 68.703125 
L 28.609375 0 
L 18.3125 0 
L 43.21875 64.59375 
L 8.203125 64.59375 
z
" id="DejaVuSans-37"/>
      </defs>
      <g transform="translate(37.875 98.748271)scale(0.1 -0.1)">
       <use xlink:href="#DejaVuSans-37"/>
       <use x="63.623047" xlink:href="#DejaVuSans-30"/>
      </g>
     </g>
    </g>
    <g id="ytick_8">
     <g id="line2d_28">
      <g>
       <use style="stroke:#000000;stroke-width:0.8;" x="57.6" xlink:href="#m50a5d42cef" y="63.117474"/>
      </g>
     </g>
     <g id="text_12">
      <!-- 80 -->
      <defs>
       <path d="M 31.78125 34.625 
Q 24.75 34.625 20.71875 30.859375 
Q 16.703125 27.09375 16.703125 20.515625 
Q 16.703125 13.921875 20.71875 10.15625 
Q 24.75 6.390625 31.78125 6.390625 
Q 38.8125 6.390625 42.859375 10.171875 
Q 46.921875 13.96875 46.921875 20.515625 
Q 46.921875 27.09375 42.890625 30.859375 
Q 38.875 34.625 31.78125 34.625 
z
M 21.921875 38.8125 
Q 15.578125 40.375 12.03125 44.71875 
Q 8.5 49.078125 8.5 55.328125 
Q 8.5 64.0625 14.71875 69.140625 
Q 20.953125 74.21875 31.78125 74.21875 
Q 42.671875 74.21875 48.875 69.140625 
Q 55.078125 64.0625 55.078125 55.328125 
Q 55.078125 49.078125 51.53125 44.71875 
Q 48 40.375 41.703125 38.8125 
Q 48.828125 37.15625 52.796875 32.3125 
Q 56.78125 27.484375 56.78125 20.515625 
Q 56.78125 9.90625 50.3125 4.234375 
Q 43.84375 -1.421875 31.78125 -1.421875 
Q 19.734375 -1.421875 13.25 4.234375 
Q 6.78125 9.90625 6.78125 20.515625 
Q 6.78125 27.484375 10.78125 32.3125 
Q 14.796875 37.15625 21.921875 38.8125 
z
M 18.3125 54.390625 
Q 18.3125 48.734375 21.84375 45.5625 
Q 25.390625 42.390625 31.78125 42.390625 
Q 38.140625 42.390625 41.71875 45.5625 
Q 45.3125 48.734375 45.3125 54.390625 
Q 45.3125 60.0625 41.71875 63.234375 
Q 38.140625 66.40625 31.78125 66.40625 
Q 25.390625 66.40625 21.84375 63.234375 
Q 18.3125 60.0625 18.3125 54.390625 
z
" id="DejaVuSans-38"/>
      </defs>
      <g transform="translate(37.875 66.916692)scale(0.1 -0.1)">
       <use xlink:href="#DejaVuSans-38"/>
       <use x="63.623047" xlink:href="#DejaVuSans-30"/>
      </g>
     </g>
    </g>
    <g id="text_13">
     <!-- Number of core species -->
     <defs>
      <path d="M 9.8125 72.90625 
L 23.09375 72.90625 
L 55.421875 11.921875 
L 55.421875 72.90625 
L 64.984375 72.90625 
L 64.984375 0 
L 51.703125 0 
L 19.390625 60.984375 
L 19.390625 0 
L 9.8125 0 
z
" id="DejaVuSans-4e"/>
      <path d="M 48.6875 27.296875 
Q 48.6875 37.203125 44.609375 42.84375 
Q 40.53125 48.484375 33.40625 48.484375 
Q 26.265625 48.484375 22.1875 42.84375 
Q 18.109375 37.203125 18.109375 27.296875 
Q 18.109375 17.390625 22.1875 11.75 
Q 26.265625 6.109375 33.40625 6.109375 
Q 40.53125 6.109375 44.609375 11.75 
Q 48.6875 17.390625 48.6875 27.296875 
z
M 18.109375 46.390625 
Q 20.953125 51.265625 25.265625 53.625 
Q 29.59375 56 35.59375 56 
Q 45.5625 56 51.78125 48.09375 
Q 58.015625 40.1875 58.015625 27.296875 
Q 58.015625 14.40625 51.78125 6.484375 
Q 45.5625 -1.421875 35.59375 -1.421875 
Q 29.59375 -1.421875 25.265625 0.953125 
Q 20.953125 3.328125 18.109375 8.203125 
L 18.109375 0 
L 9.078125 0 
L 9.078125 75.984375 
L 18.109375 75.984375 
z
" id="DejaVuSans-62"/>
      <path d="M 41.109375 46.296875 
Q 39.59375 47.171875 37.8125 47.578125 
Q 36.03125 48 33.890625 48 
Q 26.265625 48 22.1875 43.046875 
Q 18.109375 38.09375 18.109375 28.8125 
L 18.109375 0 
L 9.078125 0 
L 9.078125 54.6875 
L 18.109375 54.6875 
L 18.109375 46.1875 
Q 20.953125 51.171875 25.484375 53.578125 
Q 30.03125 56 36.53125 56 
Q 37.453125 56 38.578125 55.875 
Q 39.703125 55.765625 41.0625 55.515625 
z
" id="DejaVuSans-72"/>
      <path d="M 37.109375 75.984375 
L 37.109375 68.5 
L 28.515625 68.5 
Q 23.6875 68.5 21.796875 66.546875 
Q 19.921875 64.59375 19.921875 59.515625 
L 19.921875 54.6875 
L 34.71875 54.6875 
L 34.71875 47.703125 
L 19.921875 47.703125 
L 19.921875 0 
L 10.890625 0 
L 10.890625 47.703125 
L 2.296875 47.703125 
L 2.296875 54.6875 
L 10.890625 54.6875 
L 10.890625 58.5 
Q 10.890625 67.625 15.140625 71.796875 
Q 19.390625 75.984375 28.609375 75.984375 
z
" id="DejaVuSans-66"/>
      <path d="M 18.109375 8.203125 
L 18.109375 -20.796875 
L 9.078125 -20.796875 
L 9.078125 54.6875 
L 18.109375 54.6875 
L 18.109375 46.390625 
Q 20.953125 51.265625 25.265625 53.625 
Q 29.59375 56 35.59375 56 
Q 45.5625 56 51.78125 48.09375 
Q 58.015625 40.1875 58.015625 27.296875 
Q 58.015625 14.40625 51.78125 6.484375 
Q 45.5625 -1.421875 35.59375 -1.421875 
Q 29.59375 -1.421875 25.265625 0.953125 
Q 20.953125 3.328125 18.109375 8.203125 
z
M 48.6875 27.296875 
Q 48.6875 37.203125 44.609375 42.84375 
Q 40.53125 48.484375 33.40625 48.484375 
Q 26.265625 48.484375 22.1875 42.84375 
Q 18.109375 37.203125 18.109375 27.296875 
Q 18.109375 17.390625 22.1875 11.75 
Q 26.265625 6.109375 33.40625 6.109375 
Q 40.53125 6.109375 44.609375 11.75 
Q 48.6875 17.390625 48.6875 27.296875 
z
" id="DejaVuSans-70"/>
     </defs>
     <g transform="translate(31.795312 233.814719)rotate(-90)scale(0.1 -0.1)">
      <use xlink:href="#DejaVuSans-4e"/>
      <use x="74.804688" xlink:href="#DejaVuSans-75"/>
      <use x="138.183594" xlink:href="#DejaVuSans-6d"/>
      <use x="235.595703" xlink:href="#DejaVuSans-62"/>
      <use x="299.072266" xlink:href="#DejaVuSans-65"/>
      <use x="360.595703" xlink:href="#DejaVuSans-72"/>
      <use x="401.708984" xlink:href="#DejaVuSans-20"/>
      <use x="433.496094" xlink:href="#DejaVuSans-6f"/>
      <use x="494.677734" xlink:href="#DejaVuSans-66"/>
      <use x="529.882812" xlink:href="#DejaVuSans-20"/>
      <use x="561.669922" xlink:href="#DejaVuSans-63"/>
      <use x="616.650391" xlink:href="#DejaVuSans-6f"/>
      <use x="677.832031" xlink:href="#DejaVuSans-72"/>
      <use x="718.914062" xlink:href="#DejaVuSans-65"/>
      <use x="780.4375" xlink:href="#DejaVuSans-20"/>
      <use x="812.224609" xlink:href="#DejaVuSans-73"/>
      <use x="864.324219" xlink:href="#DejaVuSans-70"/>
      <use x="927.800781" xlink:href="#DejaVuSans-65"/>
      <use x="989.324219" xlink:href="#DejaVuSans-63"/>
      <use x="1044.304688" xlink:href="#DejaVuSans-69"/>
      <use x="1072.087891" xlink:href="#DejaVuSans-65"/>
      <use x="1133.611328" xlink:href="#DejaVuSans-73"/>
     </g>
    </g>
   </g>
   <g id="line2d_29">
    <path clip-path="url(#pfc0881f1c1)" d="M 73.832727 295.488 
L 78.664781 292.304842 
L 100.044037 285.938526 
L 112.414745 279.572211 
L 117.022719 276.389053 
L 120.563218 273.205895 
L 127.059528 270.022737 
L 136.164122 266.839579 
L 143.832711 263.656421 
L 146.492929 260.473263 
L 153.712765 257.290105 
L 155.683174 254.106947 
L 164.187476 250.923789 
L 174.348844 244.557474 
L 182.03878 241.374316 
L 185.201095 238.191158 
L 190.615227 235.008 
L 192.528964 231.824842 
L 195.727229 231.824842 
L 198.020791 225.458526 
L 208.632483 225.458526 
L 215.178417 222.275368 
L 218.710135 219.092211 
L 221.757506 215.909053 
L 223.826054 212.725895 
L 225.685275 209.542737 
L 227.832428 209.542737 
L 229.635771 206.359579 
L 242.527649 206.359579 
L 245.840737 203.176421 
L 247.865596 199.993263 
L 252.649184 199.993263 
L 254.153205 196.810105 
L 257.784415 196.810105 
L 259.142085 190.443789 
L 260.780217 187.260632 
L 262.062506 187.260632 
L 267.759822 184.077474 
L 269.28715 180.894316 
L 275.35025 180.894316 
L 279.421314 177.711158 
L 280.912185 174.528 
L 287.647684 174.528 
L 292.527725 171.344842 
L 293.830405 168.161684 
L 300.092194 168.161684 
L 303.603233 158.612211 
L 313.000889 158.612211 
L 314.242751 155.429053 
L 317.414182 155.429053 
L 318.460136 152.245895 
L 322.328566 152.245895 
L 323.418806 149.062737 
L 325.650312 149.062737 
L 326.686342 145.879579 
L 327.736851 145.879579 
L 328.680512 142.696421 
L 334.71448 142.696421 
L 335.673288 139.513263 
L 336.630397 139.513263 
L 338.529043 136.330105 
L 340.386434 129.963789 
L 342.692143 129.963789 
L 343.506081 126.780632 
L 346.058783 126.780632 
L 346.879671 123.597474 
L 347.765689 123.597474 
L 348.630524 120.414316 
L 355.896726 120.414316 
L 356.718349 117.231158 
L 358.404143 117.231158 
L 359.16531 114.048 
L 359.979151 114.048 
L 360.75171 110.864842 
L 365.376337 110.864842 
L 367.09036 104.498526 
L 368.016171 101.315368 
L 368.739282 98.132211 
L 369.59903 98.132211 
L 371.417123 94.949053 
L 372.122335 91.765895 
L 373.772453 91.765895 
L 374.475093 88.582737 
L 376.199189 88.582737 
L 377.22962 85.399579 
L 377.878104 82.216421 
L 379.266569 82.216421 
L 379.955032 79.033263 
L 384.409667 79.033263 
L 385.057274 75.850105 
L 385.735757 75.850105 
L 386.822536 69.483789 
L 388.259495 66.300632 
L 389.613411 59.934316 
L 391.601527 59.934316 
L 392.24009 56.751158 
L 395.423099 56.751158 
L 396.067164 53.568 
L 398.487273 53.568 
L 398.487273 53.568 
" style="fill:none;stroke:#0000ff;stroke-linecap:square;stroke-width:1.5;"/>
    <defs>
     <path d="M 0 3 
C 0.795609 3 1.55874 2.683901 2.12132 2.12132 
C 2.683901 1.55874 3 0.795609 3 0 
C 3 -0.795609 2.683901 -1.55874 2.12132 -2.12132 
C 1.55874 -2.683901 0.795609 -3 0 -3 
C -0.795609 -3 -1.55874 -2.683901 -2.12132 -2.12132 
C -2.683901 -1.55874 -3 -0.795609 -3 0 
C -3 0.795609 -2.683901 1.55874 -2.12132 2.12132 
C -1.55874 2.683901 -0.795609 3 0 3 
z
" id="md67231c3b8" style="stroke:#0000ff;"/>
    </defs>
    <g clip-path="url(#pfc0881f1c1)">
     <use style="fill:#0000ff;stroke:#0000ff;" x="73.832727" xlink:href="#md67231c3b8" y="295.488"/>
     <use style="fill:#0000ff;stroke:#0000ff;" x="78.664781" xlink:href="#md67231c3b8" y="292.304842"/>
     <use style="fill:#0000ff;stroke:#0000ff;" x="100.044037" xlink:href="#md67231c3b8" y="285.938526"/>
     <use style="fill:#0000ff;stroke:#0000ff;" x="112.414745" xlink:href="#md67231c3b8" y="279.572211"/>
     <use style="fill:#0000ff;stroke:#0000ff;" x="117.022719" xlink:href="#md67231c3b8" y="276.389053"/>
     <use style="fill:#0000ff;stroke:#0000ff;" x="120.563218" xlink:href="#md67231c3b8" y="273.205895"/>
     <use style="fill:#0000ff;stroke:#0000ff;" x="127.059528" xlink:href="#md67231c3b8" y="270.022737"/>
     <use style="fill:#0000ff;stroke:#0000ff;" x="136.164122" xlink:href="#md67231c3b8" y="266.839579"/>
     <use style="fill:#0000ff;stroke:#0000ff;" x="143.832711" xlink:href="#md67231c3b8" y="263.656421"/>
     <use style="fill:#0000ff;stroke:#0000ff;" x="146.492929" xlink:href="#md67231c3b8" y="260.473263"/>
     <use style="fill:#0000ff;stroke:#0000ff;" x="153.712765" xlink:href="#md67231c3b8" y="257.290105"/>
     <use style="fill:#0000ff;stroke:#0000ff;" x="155.683174" xlink:href="#md67231c3b8" y="254.106947"/>
     <use style="fill:#0000ff;stroke:#0000ff;" x="164.187476" xlink:href="#md67231c3b8" y="250.923789"/>
     <use style="fill:#0000ff;stroke:#0000ff;" x="174.348844" xlink:href="#md67231c3b8" y="244.557474"/>
     <use style="fill:#0000ff;stroke:#0000ff;" x="182.03878" xlink:href="#md67231c3b8" y="241.374316"/>
     <use style="fill:#0000ff;stroke:#0000ff;" x="185.201095" xlink:href="#md67231c3b8" y="238.191158"/>
     <use style="fill:#0000ff;stroke:#0000ff;" x="190.615227" xlink:href="#md67231c3b8" y="235.008"/>
     <use style="fill:#0000ff;stroke:#0000ff;" x="192.528964" xlink:href="#md67231c3b8" y="231.824842"/>
     <use style="fill:#0000ff;stroke:#0000ff;" x="195.727229" xlink:href="#md67231c3b8" y="231.824842"/>
     <use style="fill:#0000ff;stroke:#0000ff;" x="198.020791" xlink:href="#md67231c3b8" y="225.458526"/>
     <use style="fill:#0000ff;stroke:#0000ff;" x="208.632483" xlink:href="#md67231c3b8" y="225.458526"/>
     <use style="fill:#0000ff;stroke:#0000ff;" x="215.178417" xlink:href="#md67231c3b8" y="222.275368"/>
     <use style="fill:#0000ff;stroke:#0000ff;" x="218.710135" xlink:href="#md67231c3b8" y="219.092211"/>
     <use style="fill:#0000ff;stroke:#0000ff;" x="221.757506" xlink:href="#md67231c3b8" y="215.909053"/>
     <use style="fill:#0000ff;stroke:#0000ff;" x="223.826054" xlink:href="#md67231c3b8" y="212.725895"/>
     <use style="fill:#0000ff;stroke:#0000ff;" x="225.685275" xlink:href="#md67231c3b8" y="209.542737"/>
     <use style="fill:#0000ff;stroke:#0000ff;" x="227.832428" xlink:href="#md67231c3b8" y="209.542737"/>
     <use style="fill:#0000ff;stroke:#0000ff;" x="229.635771" xlink:href="#md67231c3b8" y="206.359579"/>
     <use style="fill:#0000ff;stroke:#0000ff;" x="231.66622" xlink:href="#md67231c3b8" y="206.359579"/>
     <use style="fill:#0000ff;stroke:#0000ff;" x="233.457186" xlink:href="#md67231c3b8" y="206.359579"/>
     <use style="fill:#0000ff;stroke:#0000ff;" x="235.114957" xlink:href="#md67231c3b8" y="206.359579"/>
     <use style="fill:#0000ff;stroke:#0000ff;" x="236.675666" xlink:href="#md67231c3b8" y="206.359579"/>
     <use style="fill:#0000ff;stroke:#0000ff;" x="238.299034" xlink:href="#md67231c3b8" y="206.359579"/>
     <use style="fill:#0000ff;stroke:#0000ff;" x="239.943549" xlink:href="#md67231c3b8" y="206.359579"/>
     <use style="fill:#0000ff;stroke:#0000ff;" x="242.527649" xlink:href="#md67231c3b8" y="206.359579"/>
     <use style="fill:#0000ff;stroke:#0000ff;" x="245.840737" xlink:href="#md67231c3b8" y="203.176421"/>
     <use style="fill:#0000ff;stroke:#0000ff;" x="247.865596" xlink:href="#md67231c3b8" y="199.993263"/>
     <use style="fill:#0000ff;stroke:#0000ff;" x="249.423951" xlink:href="#md67231c3b8" y="199.993263"/>
     <use style="fill:#0000ff;stroke:#0000ff;" x="250.90635" xlink:href="#md67231c3b8" y="199.993263"/>
     <use style="fill:#0000ff;stroke:#0000ff;" x="252.649184" xlink:href="#md67231c3b8" y="199.993263"/>
     <use style="fill:#0000ff;stroke:#0000ff;" x="254.153205" xlink:href="#md67231c3b8" y="196.810105"/>
     <use style="fill:#0000ff;stroke:#0000ff;" x="255.47958" xlink:href="#md67231c3b8" y="196.810105"/>
     <use style="fill:#0000ff;stroke:#0000ff;" x="257.784415" xlink:href="#md67231c3b8" y="196.810105"/>
     <use style="fill:#0000ff;stroke:#0000ff;" x="259.142085" xlink:href="#md67231c3b8" y="190.443789"/>
     <use style="fill:#0000ff;stroke:#0000ff;" x="260.780217" xlink:href="#md67231c3b8" y="187.260632"/>
     <use style="fill:#0000ff;stroke:#0000ff;" x="262.062506" xlink:href="#md67231c3b8" y="187.260632"/>
     <use style="fill:#0000ff;stroke:#0000ff;" x="267.759822" xlink:href="#md67231c3b8" y="184.077474"/>
     <use style="fill:#0000ff;stroke:#0000ff;" x="269.28715" xlink:href="#md67231c3b8" y="180.894316"/>
     <use style="fill:#0000ff;stroke:#0000ff;" x="270.848675" xlink:href="#md67231c3b8" y="180.894316"/>
     <use style="fill:#0000ff;stroke:#0000ff;" x="272.323061" xlink:href="#md67231c3b8" y="180.894316"/>
     <use style="fill:#0000ff;stroke:#0000ff;" x="273.744406" xlink:href="#md67231c3b8" y="180.894316"/>
     <use style="fill:#0000ff;stroke:#0000ff;" x="275.35025" xlink:href="#md67231c3b8" y="180.894316"/>
     <use style="fill:#0000ff;stroke:#0000ff;" x="279.421314" xlink:href="#md67231c3b8" y="177.711158"/>
     <use style="fill:#0000ff;stroke:#0000ff;" x="280.912185" xlink:href="#md67231c3b8" y="174.528"/>
     <use style="fill:#0000ff;stroke:#0000ff;" x="282.19724" xlink:href="#md67231c3b8" y="174.528"/>
     <use style="fill:#0000ff;stroke:#0000ff;" x="283.62527" xlink:href="#md67231c3b8" y="174.528"/>
     <use style="fill:#0000ff;stroke:#0000ff;" x="285.082605" xlink:href="#md67231c3b8" y="174.528"/>
     <use style="fill:#0000ff;stroke:#0000ff;" x="286.248995" xlink:href="#md67231c3b8" y="174.528"/>
     <use style="fill:#0000ff;stroke:#0000ff;" x="287.647684" xlink:href="#md67231c3b8" y="174.528"/>
     <use style="fill:#0000ff;stroke:#0000ff;" x="292.527725" xlink:href="#md67231c3b8" y="171.344842"/>
     <use style="fill:#0000ff;stroke:#0000ff;" x="293.830405" xlink:href="#md67231c3b8" y="168.161684"/>
     <use style="fill:#0000ff;stroke:#0000ff;" x="295.084492" xlink:href="#md67231c3b8" y="168.161684"/>
     <use style="fill:#0000ff;stroke:#0000ff;" x="296.328911" xlink:href="#md67231c3b8" y="168.161684"/>
     <use style="fill:#0000ff;stroke:#0000ff;" x="297.623993" xlink:href="#md67231c3b8" y="168.161684"/>
     <use style="fill:#0000ff;stroke:#0000ff;" x="300.092194" xlink:href="#md67231c3b8" y="168.161684"/>
     <use style="fill:#0000ff;stroke:#0000ff;" x="302.375321" xlink:href="#md67231c3b8" y="161.795368"/>
     <use style="fill:#0000ff;stroke:#0000ff;" x="303.603233" xlink:href="#md67231c3b8" y="158.612211"/>
     <use style="fill:#0000ff;stroke:#0000ff;" x="304.735536" xlink:href="#md67231c3b8" y="158.612211"/>
     <use style="fill:#0000ff;stroke:#0000ff;" x="305.940178" xlink:href="#md67231c3b8" y="158.612211"/>
     <use style="fill:#0000ff;stroke:#0000ff;" x="307.017706" xlink:href="#md67231c3b8" y="158.612211"/>
     <use style="fill:#0000ff;stroke:#0000ff;" x="308.429947" xlink:href="#md67231c3b8" y="158.612211"/>
     <use style="fill:#0000ff;stroke:#0000ff;" x="309.494545" xlink:href="#md67231c3b8" y="158.612211"/>
     <use style="fill:#0000ff;stroke:#0000ff;" x="310.683751" xlink:href="#md67231c3b8" y="158.612211"/>
     <use style="fill:#0000ff;stroke:#0000ff;" x="313.000889" xlink:href="#md67231c3b8" y="158.612211"/>
     <use style="fill:#0000ff;stroke:#0000ff;" x="314.242751" xlink:href="#md67231c3b8" y="155.429053"/>
     <use style="fill:#0000ff;stroke:#0000ff;" x="315.357277" xlink:href="#md67231c3b8" y="155.429053"/>
     <use style="fill:#0000ff;stroke:#0000ff;" x="317.414182" xlink:href="#md67231c3b8" y="155.429053"/>
     <use style="fill:#0000ff;stroke:#0000ff;" x="318.460136" xlink:href="#md67231c3b8" y="152.245895"/>
     <use style="fill:#0000ff;stroke:#0000ff;" x="319.40776" xlink:href="#md67231c3b8" y="152.245895"/>
     <use style="fill:#0000ff;stroke:#0000ff;" x="320.437129" xlink:href="#md67231c3b8" y="152.245895"/>
     <use style="fill:#0000ff;stroke:#0000ff;" x="322.328566" xlink:href="#md67231c3b8" y="152.245895"/>
     <use style="fill:#0000ff;stroke:#0000ff;" x="323.418806" xlink:href="#md67231c3b8" y="149.062737"/>
     <use style="fill:#0000ff;stroke:#0000ff;" x="324.482972" xlink:href="#md67231c3b8" y="149.062737"/>
     <use style="fill:#0000ff;stroke:#0000ff;" x="325.650312" xlink:href="#md67231c3b8" y="149.062737"/>
     <use style="fill:#0000ff;stroke:#0000ff;" x="326.686342" xlink:href="#md67231c3b8" y="145.879579"/>
     <use style="fill:#0000ff;stroke:#0000ff;" x="327.736851" xlink:href="#md67231c3b8" y="145.879579"/>
     <use style="fill:#0000ff;stroke:#0000ff;" x="328.680512" xlink:href="#md67231c3b8" y="142.696421"/>
     <use style="fill:#0000ff;stroke:#0000ff;" x="329.626467" xlink:href="#md67231c3b8" y="142.696421"/>
     <use style="fill:#0000ff;stroke:#0000ff;" x="330.540699" xlink:href="#md67231c3b8" y="142.696421"/>
     <use style="fill:#0000ff;stroke:#0000ff;" x="331.483485" xlink:href="#md67231c3b8" y="142.696421"/>
     <use style="fill:#0000ff;stroke:#0000ff;" x="332.404225" xlink:href="#md67231c3b8" y="142.696421"/>
     <use style="fill:#0000ff;stroke:#0000ff;" x="333.285588" xlink:href="#md67231c3b8" y="142.696421"/>
     <use style="fill:#0000ff;stroke:#0000ff;" x="334.71448" xlink:href="#md67231c3b8" y="142.696421"/>
     <use style="fill:#0000ff;stroke:#0000ff;" x="335.673288" xlink:href="#md67231c3b8" y="139.513263"/>
     <use style="fill:#0000ff;stroke:#0000ff;" x="336.630397" xlink:href="#md67231c3b8" y="139.513263"/>
     <use style="fill:#0000ff;stroke:#0000ff;" x="338.529043" xlink:href="#md67231c3b8" y="136.330105"/>
     <use style="fill:#0000ff;stroke:#0000ff;" x="339.448709" xlink:href="#md67231c3b8" y="133.146947"/>
     <use style="fill:#0000ff;stroke:#0000ff;" x="340.386434" xlink:href="#md67231c3b8" y="129.963789"/>
     <use style="fill:#0000ff;stroke:#0000ff;" x="341.296471" xlink:href="#md67231c3b8" y="129.963789"/>
     <use style="fill:#0000ff;stroke:#0000ff;" x="342.692143" xlink:href="#md67231c3b8" y="129.963789"/>
     <use style="fill:#0000ff;stroke:#0000ff;" x="343.506081" xlink:href="#md67231c3b8" y="126.780632"/>
     <use style="fill:#0000ff;stroke:#0000ff;" x="344.398542" xlink:href="#md67231c3b8" y="126.780632"/>
     <use style="fill:#0000ff;stroke:#0000ff;" x="345.238677" xlink:href="#md67231c3b8" y="126.780632"/>
     <use style="fill:#0000ff;stroke:#0000ff;" x="346.058783" xlink:href="#md67231c3b8" y="126.780632"/>
     <use style="fill:#0000ff;stroke:#0000ff;" x="346.879671" xlink:href="#md67231c3b8" y="123.597474"/>
     <use style="fill:#0000ff;stroke:#0000ff;" x="347.765689" xlink:href="#md67231c3b8" y="123.597474"/>
     <use style="fill:#0000ff;stroke:#0000ff;" x="348.630524" xlink:href="#md67231c3b8" y="120.414316"/>
     <use style="fill:#0000ff;stroke:#0000ff;" x="349.486593" xlink:href="#md67231c3b8" y="120.414316"/>
     <use style="fill:#0000ff;stroke:#0000ff;" x="350.307711" xlink:href="#md67231c3b8" y="120.414316"/>
     <use style="fill:#0000ff;stroke:#0000ff;" x="351.093212" xlink:href="#md67231c3b8" y="120.414316"/>
     <use style="fill:#0000ff;stroke:#0000ff;" x="355.896726" xlink:href="#md67231c3b8" y="120.414316"/>
     <use style="fill:#0000ff;stroke:#0000ff;" x="356.718349" xlink:href="#md67231c3b8" y="117.231158"/>
     <use style="fill:#0000ff;stroke:#0000ff;" x="357.60609" xlink:href="#md67231c3b8" y="117.231158"/>
     <use style="fill:#0000ff;stroke:#0000ff;" x="358.404143" xlink:href="#md67231c3b8" y="117.231158"/>
     <use style="fill:#0000ff;stroke:#0000ff;" x="359.16531" xlink:href="#md67231c3b8" y="114.048"/>
     <use style="fill:#0000ff;stroke:#0000ff;" x="359.979151" xlink:href="#md67231c3b8" y="114.048"/>
     <use style="fill:#0000ff;stroke:#0000ff;" x="360.75171" xlink:href="#md67231c3b8" y="110.864842"/>
     <use style="fill:#0000ff;stroke:#0000ff;" x="361.543737" xlink:href="#md67231c3b8" y="110.864842"/>
     <use style="fill:#0000ff;stroke:#0000ff;" x="362.299369" xlink:href="#md67231c3b8" y="110.864842"/>
     <use style="fill:#0000ff;stroke:#0000ff;" x="363.083121" xlink:href="#md67231c3b8" y="110.864842"/>
     <use style="fill:#0000ff;stroke:#0000ff;" x="363.816571" xlink:href="#md67231c3b8" y="110.864842"/>
     <use style="fill:#0000ff;stroke:#0000ff;" x="364.590732" xlink:href="#md67231c3b8" y="110.864842"/>
     <use style="fill:#0000ff;stroke:#0000ff;" x="365.376337" xlink:href="#md67231c3b8" y="110.864842"/>
     <use style="fill:#0000ff;stroke:#0000ff;" x="366.182278" xlink:href="#md67231c3b8" y="107.681684"/>
     <use style="fill:#0000ff;stroke:#0000ff;" x="367.09036" xlink:href="#md67231c3b8" y="104.498526"/>
     <use style="fill:#0000ff;stroke:#0000ff;" x="368.016171" xlink:href="#md67231c3b8" y="101.315368"/>
     <use style="fill:#0000ff;stroke:#0000ff;" x="368.739282" xlink:href="#md67231c3b8" y="98.132211"/>
     <use style="fill:#0000ff;stroke:#0000ff;" x="369.59903" xlink:href="#md67231c3b8" y="98.132211"/>
     <use style="fill:#0000ff;stroke:#0000ff;" x="371.417123" xlink:href="#md67231c3b8" y="94.949053"/>
     <use style="fill:#0000ff;stroke:#0000ff;" x="372.122335" xlink:href="#md67231c3b8" y="91.765895"/>
     <use style="fill:#0000ff;stroke:#0000ff;" x="372.874631" xlink:href="#md67231c3b8" y="91.765895"/>
     <use style="fill:#0000ff;stroke:#0000ff;" x="373.772453" xlink:href="#md67231c3b8" y="91.765895"/>
     <use style="fill:#0000ff;stroke:#0000ff;" x="374.475093" xlink:href="#md67231c3b8" y="88.582737"/>
     <use style="fill:#0000ff;stroke:#0000ff;" x="375.135281" xlink:href="#md67231c3b8" y="88.582737"/>
     <use style="fill:#0000ff;stroke:#0000ff;" x="376.199189" xlink:href="#md67231c3b8" y="88.582737"/>
     <use style="fill:#0000ff;stroke:#0000ff;" x="377.22962" xlink:href="#md67231c3b8" y="85.399579"/>
     <use style="fill:#0000ff;stroke:#0000ff;" x="377.878104" xlink:href="#md67231c3b8" y="82.216421"/>
     <use style="fill:#0000ff;stroke:#0000ff;" x="379.266569" xlink:href="#md67231c3b8" y="82.216421"/>
     <use style="fill:#0000ff;stroke:#0000ff;" x="379.955032" xlink:href="#md67231c3b8" y="79.033263"/>
     <use style="fill:#0000ff;stroke:#0000ff;" x="380.609342" xlink:href="#md67231c3b8" y="79.033263"/>
     <use style="fill:#0000ff;stroke:#0000ff;" x="381.252205" xlink:href="#md67231c3b8" y="79.033263"/>
     <use style="fill:#0000ff;stroke:#0000ff;" x="381.886782" xlink:href="#md67231c3b8" y="79.033263"/>
     <use style="fill:#0000ff;stroke:#0000ff;" x="382.512875" xlink:href="#md67231c3b8" y="79.033263"/>
     <use style="fill:#0000ff;stroke:#0000ff;" x="383.136454" xlink:href="#md67231c3b8" y="79.033263"/>
     <use style="fill:#0000ff;stroke:#0000ff;" x="384.409667" xlink:href="#md67231c3b8" y="79.033263"/>
     <use style="fill:#0000ff;stroke:#0000ff;" x="385.057274" xlink:href="#md67231c3b8" y="75.850105"/>
     <use style="fill:#0000ff;stroke:#0000ff;" x="385.735757" xlink:href="#md67231c3b8" y="75.850105"/>
     <use style="fill:#0000ff;stroke:#0000ff;" x="386.822536" xlink:href="#md67231c3b8" y="69.483789"/>
     <use style="fill:#0000ff;stroke:#0000ff;" x="388.259495" xlink:href="#md67231c3b8" y="66.300632"/>
     <use style="fill:#0000ff;stroke:#0000ff;" x="388.953617" xlink:href="#md67231c3b8" y="63.117474"/>
     <use style="fill:#0000ff;stroke:#0000ff;" x="389.613411" xlink:href="#md67231c3b8" y="59.934316"/>
     <use style="fill:#0000ff;stroke:#0000ff;" x="390.298204" xlink:href="#md67231c3b8" y="59.934316"/>
     <use style="fill:#0000ff;stroke:#0000ff;" x="390.951274" xlink:href="#md67231c3b8" y="59.934316"/>
     <use style="fill:#0000ff;stroke:#0000ff;" x="391.601527" xlink:href="#md67231c3b8" y="59.934316"/>
     <use style="fill:#0000ff;stroke:#0000ff;" x="392.24009" xlink:href="#md67231c3b8" y="56.751158"/>
     <use style="fill:#0000ff;stroke:#0000ff;" x="392.886315" xlink:href="#md67231c3b8" y="56.751158"/>
     <use style="fill:#0000ff;stroke:#0000ff;" x="393.51993" xlink:href="#md67231c3b8" y="56.751158"/>
     <use style="fill:#0000ff;stroke:#0000ff;" x="394.155515" xlink:href="#md67231c3b8" y="56.751158"/>
     <use style="fill:#0000ff;stroke:#0000ff;" x="394.775985" xlink:href="#md67231c3b8" y="56.751158"/>
     <use style="fill:#0000ff;stroke:#0000ff;" x="395.423099" xlink:href="#md67231c3b8" y="56.751158"/>
     <use style="fill:#0000ff;stroke:#0000ff;" x="396.067164" xlink:href="#md67231c3b8" y="53.568"/>
     <use style="fill:#0000ff;stroke:#0000ff;" x="396.677044" xlink:href="#md67231c3b8" y="53.568"/>
     <use style="fill:#0000ff;stroke:#0000ff;" x="397.273266" xlink:href="#md67231c3b8" y="53.568"/>
     <use style="fill:#0000ff;stroke:#0000ff;" x="398.487273" xlink:href="#md67231c3b8" y="53.568"/>
    </g>
   </g>
   <g id="patch_3">
    <path d="M 57.6 307.584 
L 57.6 41.472 
" style="fill:none;stroke:#000000;stroke-linecap:square;stroke-linejoin:miter;stroke-width:0.8;"/>
   </g>
   <g id="patch_4">
    <path d="M 414.72 307.584 
L 414.72 41.472 
" style="fill:none;stroke:#000000;stroke-linecap:square;stroke-linejoin:miter;stroke-width:0.8;"/>
   </g>
   <g id="patch_5">
    <path d="M 57.6 307.584 
L 414.72 307.584 
" style="fill:none;stroke:#000000;stroke-linecap:square;stroke-linejoin:miter;stroke-width:0.8;"/>
   </g>
   <g id="patch_6">
    <path d="M 57.6 41.472 
L 414.72 41.472 
" style="fill:none;stroke:#000000;stroke-linecap:square;stroke-linejoin:miter;stroke-width:0.8;"/>
   </g>
  </g>
  <g id="axes_2">
   <g id="matplotlib.axis_3">
    <g id="ytick_9">
     <g id="line2d_30">
      <defs>
       <path d="M 0 0 
L 3.5 0 
" id="m7d2812f0e5" style="stroke:#000000;stroke-width:0.8;"/>
      </defs>
      <g>
       <use style="stroke:#000000;stroke-width:0.8;" x="414.72" xlink:href="#m7d2812f0e5" y="295.488"/>
      </g>
     </g>
     <g id="text_14">
      <!-- 0 -->
      <g transform="translate(421.72 299.287219)scale(0.1 -0.1)">
       <use xlink:href="#DejaVuSans-30"/>
      </g>
     </g>
    </g>
    <g id="ytick_10">
     <g id="line2d_31">
      <g>
       <use style="stroke:#000000;stroke-width:0.8;" x="414.72" xlink:href="#m7d2812f0e5" y="255.698526"/>
      </g>
     </g>
     <g id="text_15">
      <!-- 50 -->
      <g transform="translate(421.72 259.497745)scale(0.1 -0.1)">
       <use xlink:href="#DejaVuSans-35"/>
       <use x="63.623047" xlink:href="#DejaVuSans-30"/>
      </g>
     </g>
    </g>
    <g id="ytick_11">
     <g id="line2d_32">
      <g>
       <use style="stroke:#000000;stroke-width:0.8;" x="414.72" xlink:href="#m7d2812f0e5" y="215.909053"/>
      </g>
     </g>
     <g id="text_16">
      <!-- 100 -->
      <g transform="translate(421.72 219.708271)scale(0.1 -0.1)">
       <use xlink:href="#DejaVuSans-31"/>
       <use x="63.623047" xlink:href="#DejaVuSans-30"/>
       <use x="127.246094" xlink:href="#DejaVuSans-30"/>
      </g>
     </g>
    </g>
    <g id="ytick_12">
     <g id="line2d_33">
      <g>
       <use style="stroke:#000000;stroke-width:0.8;" x="414.72" xlink:href="#m7d2812f0e5" y="176.119579"/>
      </g>
     </g>
     <g id="text_17">
      <!-- 150 -->
      <g transform="translate(421.72 179.918798)scale(0.1 -0.1)">
       <use xlink:href="#DejaVuSans-31"/>
       <use x="63.623047" xlink:href="#DejaVuSans-35"/>
       <use x="127.246094" xlink:href="#DejaVuSans-30"/>
      </g>
     </g>
    </g>
    <g id="ytick_13">
     <g id="line2d_34">
      <g>
       <use style="stroke:#000000;stroke-width:0.8;" x="414.72" xlink:href="#m7d2812f0e5" y="136.330105"/>
      </g>
     </g>
     <g id="text_18">
      <!-- 200 -->
      <g transform="translate(421.72 140.129324)scale(0.1 -0.1)">
       <use xlink:href="#DejaVuSans-32"/>
       <use x="63.623047" xlink:href="#DejaVuSans-30"/>
       <use x="127.246094" xlink:href="#DejaVuSans-30"/>
      </g>
     </g>
    </g>
    <g id="ytick_14">
     <g id="line2d_35">
      <g>
       <use style="stroke:#000000;stroke-width:0.8;" x="414.72" xlink:href="#m7d2812f0e5" y="96.540632"/>
      </g>
     </g>
     <g id="text_19">
      <!-- 250 -->
      <g transform="translate(421.72 100.33985)scale(0.1 -0.1)">
       <use xlink:href="#DejaVuSans-32"/>
       <use x="63.623047" xlink:href="#DejaVuSans-35"/>
       <use x="127.246094" xlink:href="#DejaVuSans-30"/>
      </g>
     </g>
    </g>
    <g id="ytick_15">
     <g id="line2d_36">
      <g>
       <use style="stroke:#000000;stroke-width:0.8;" x="414.72" xlink:href="#m7d2812f0e5" y="56.751158"/>
      </g>
     </g>
     <g id="text_20">
      <!-- 300 -->
      <g transform="translate(421.72 60.550377)scale(0.1 -0.1)">
       <use xlink:href="#DejaVuSans-33"/>
       <use x="63.623047" xlink:href="#DejaVuSans-30"/>
       <use x="127.246094" xlink:href="#DejaVuSans-30"/>
      </g>
     </g>
    </g>
    <g id="text_21">
     <!-- Number of core reactions -->
     <defs>
      <path d="M 34.28125 27.484375 
Q 23.390625 27.484375 19.1875 25 
Q 14.984375 22.515625 14.984375 16.5 
Q 14.984375 11.71875 18.140625 8.90625 
Q 21.296875 6.109375 26.703125 6.109375 
Q 34.1875 6.109375 38.703125 11.40625 
Q 43.21875 16.703125 43.21875 25.484375 
L 43.21875 27.484375 
z
M 52.203125 31.203125 
L 52.203125 0 
L 43.21875 0 
L 43.21875 8.296875 
Q 40.140625 3.328125 35.546875 0.953125 
Q 30.953125 -1.421875 24.3125 -1.421875 
Q 15.921875 -1.421875 10.953125 3.296875 
Q 6 8.015625 6 15.921875 
Q 6 25.140625 12.171875 29.828125 
Q 18.359375 34.515625 30.609375 34.515625 
L 43.21875 34.515625 
L 43.21875 35.40625 
Q 43.21875 41.609375 39.140625 45 
Q 35.0625 48.390625 27.6875 48.390625 
Q 23 48.390625 18.546875 47.265625 
Q 14.109375 46.140625 10.015625 43.890625 
L 10.015625 52.203125 
Q 14.9375 54.109375 19.578125 55.046875 
Q 24.21875 56 28.609375 56 
Q 40.484375 56 46.34375 49.84375 
Q 52.203125 43.703125 52.203125 31.203125 
z
" id="DejaVuSans-61"/>
     </defs>
     <g transform="translate(452.405937 238.2655)rotate(-90)scale(0.1 -0.1)">
      <use xlink:href="#DejaVuSans-4e"/>
      <use x="74.804688" xlink:href="#DejaVuSans-75"/>
      <use x="138.183594" xlink:href="#DejaVuSans-6d"/>
      <use x="235.595703" xlink:href="#DejaVuSans-62"/>
      <use x="299.072266" xlink:href="#DejaVuSans-65"/>
      <use x="360.595703" xlink:href="#DejaVuSans-72"/>
      <use x="401.708984" xlink:href="#DejaVuSans-20"/>
      <use x="433.496094" xlink:href="#DejaVuSans-6f"/>
      <use x="494.677734" xlink:href="#DejaVuSans-66"/>
      <use x="529.882812" xlink:href="#DejaVuSans-20"/>
      <use x="561.669922" xlink:href="#DejaVuSans-63"/>
      <use x="616.650391" xlink:href="#DejaVuSans-6f"/>
      <use x="677.832031" xlink:href="#DejaVuSans-72"/>
      <use x="718.914062" xlink:href="#DejaVuSans-65"/>
      <use x="780.4375" xlink:href="#DejaVuSans-20"/>
      <use x="812.224609" xlink:href="#DejaVuSans-72"/>
      <use x="853.306641" xlink:href="#DejaVuSans-65"/>
      <use x="914.830078" xlink:href="#DejaVuSans-61"/>
      <use x="976.109375" xlink:href="#DejaVuSans-63"/>
      <use x="1031.089844" xlink:href="#DejaVuSans-74"/>
      <use x="1070.298828" xlink:href="#DejaVuSans-69"/>
      <use x="1098.082031" xlink:href="#DejaVuSans-6f"/>
      <use x="1159.263672" xlink:href="#DejaVuSans-6e"/>
      <use x="1222.642578" xlink:href="#DejaVuSans-73"/>
     </g>
    </g>
   </g>
   <g id="line2d_37">
    <path clip-path="url(#pfc0881f1c1)" d="M 73.832727 295.488 
L 78.664781 294.692211 
L 100.044037 293.896421 
L 112.414745 292.304842 
L 117.022719 291.509053 
L 120.563218 290.713263 
L 127.059528 289.917474 
L 136.164122 286.734316 
L 143.832711 285.938526 
L 146.492929 285.142737 
L 153.712765 282.755368 
L 155.683174 281.959579 
L 164.187476 276.389053 
L 174.348844 275.593263 
L 182.03878 274.797474 
L 185.201095 274.001684 
L 190.615227 272.410105 
L 192.528964 271.614316 
L 195.727229 271.614316 
L 198.020791 269.226947 
L 208.632483 269.226947 
L 215.178417 264.452211 
L 218.710135 256.494316 
L 221.757506 250.923789 
L 223.826054 245.353263 
L 225.685275 244.557474 
L 227.832428 244.557474 
L 229.635771 243.761684 
L 242.527649 243.761684 
L 245.840737 236.599579 
L 247.865596 235.803789 
L 252.649184 235.803789 
L 254.153205 235.008 
L 257.784415 235.008 
L 259.142085 233.416421 
L 260.780217 232.620632 
L 262.062506 232.620632 
L 267.759822 231.824842 
L 269.28715 231.029053 
L 275.35025 231.029053 
L 279.421314 230.233263 
L 280.912185 223.866947 
L 286.248995 223.866947 
L 287.647684 223.071158 
L 292.527725 222.275368 
L 293.830405 213.521684 
L 297.623993 213.521684 
L 300.092194 212.725895 
L 302.375321 202.380632 
L 303.603233 194.422737 
L 313.000889 194.422737 
L 314.242751 174.528 
L 317.414182 174.528 
L 318.460136 172.936421 
L 320.437129 172.936421 
L 322.328566 168.161684 
L 323.418806 162.591158 
L 325.650312 162.591158 
L 326.686342 160.999579 
L 327.736851 160.999579 
L 328.680512 159.408 
L 334.71448 159.408 
L 335.673288 157.020632 
L 336.630397 157.020632 
L 338.529043 155.429053 
L 339.448709 153.041684 
L 340.386434 152.245895 
L 342.692143 152.245895 
L 343.506081 151.450105 
L 346.058783 151.450105 
L 346.879671 150.654316 
L 347.765689 150.654316 
L 348.630524 149.858526 
L 351.093212 149.858526 
L 355.896726 149.062737 
L 356.718349 148.266947 
L 358.404143 148.266947 
L 359.16531 146.675368 
L 359.979151 146.675368 
L 360.75171 145.083789 
L 365.376337 145.083789 
L 367.09036 143.492211 
L 368.016171 142.696421 
L 369.59903 141.104842 
L 371.417123 140.309053 
L 372.122335 139.513263 
L 372.874631 139.513263 
L 373.772453 138.717474 
L 374.475093 125.984842 
L 375.135281 125.984842 
L 376.199189 125.189053 
L 377.22962 111.660632 
L 377.878104 94.153263 
L 379.266569 94.153263 
L 379.955032 93.357474 
L 383.136454 93.357474 
L 384.409667 92.561684 
L 385.057274 76.645895 
L 385.735757 75.850105 
L 386.822536 75.054316 
L 388.259495 73.462737 
L 388.953617 56.751158 
L 389.613411 55.955368 
L 391.601527 55.955368 
L 392.24009 54.363789 
L 395.423099 54.363789 
L 396.067164 53.568 
L 398.487273 53.568 
L 398.487273 53.568 
" style="fill:none;stroke:#ff0000;stroke-linecap:square;stroke-width:1.5;"/>
    <defs>
     <path d="M 0 3 
C 0.795609 3 1.55874 2.683901 2.12132 2.12132 
C 2.683901 1.55874 3 0.795609 3 0 
C 3 -0.795609 2.683901 -1.55874 2.12132 -2.12132 
C 1.55874 -2.683901 0.795609 -3 0 -3 
C -0.795609 -3 -1.55874 -2.683901 -2.12132 -2.12132 
C -2.683901 -1.55874 -3 -0.795609 -3 0 
C -3 0.795609 -2.683901 1.55874 -2.12132 2.12132 
C -1.55874 2.683901 -0.795609 3 0 3 
z
" id="m3cc428b87d" style="stroke:#ff0000;"/>
    </defs>
    <g clip-path="url(#pfc0881f1c1)">
     <use style="fill:#ff0000;stroke:#ff0000;" x="73.832727" xlink:href="#m3cc428b87d" y="295.488"/>
     <use style="fill:#ff0000;stroke:#ff0000;" x="78.664781" xlink:href="#m3cc428b87d" y="294.692211"/>
     <use style="fill:#ff0000;stroke:#ff0000;" x="100.044037" xlink:href="#m3cc428b87d" y="293.896421"/>
     <use style="fill:#ff0000;stroke:#ff0000;" x="112.414745" xlink:href="#m3cc428b87d" y="292.304842"/>
     <use style="fill:#ff0000;stroke:#ff0000;" x="117.022719" xlink:href="#m3cc428b87d" y="291.509053"/>
     <use style="fill:#ff0000;stroke:#ff0000;" x="120.563218" xlink:href="#m3cc428b87d" y="290.713263"/>
     <use style="fill:#ff0000;stroke:#ff0000;" x="127.059528" xlink:href="#m3cc428b87d" y="289.917474"/>
     <use style="fill:#ff0000;stroke:#ff0000;" x="136.164122" xlink:href="#m3cc428b87d" y="286.734316"/>
     <use style="fill:#ff0000;stroke:#ff0000;" x="143.832711" xlink:href="#m3cc428b87d" y="285.938526"/>
     <use style="fill:#ff0000;stroke:#ff0000;" x="146.492929" xlink:href="#m3cc428b87d" y="285.142737"/>
     <use style="fill:#ff0000;stroke:#ff0000;" x="153.712765" xlink:href="#m3cc428b87d" y="282.755368"/>
     <use style="fill:#ff0000;stroke:#ff0000;" x="155.683174" xlink:href="#m3cc428b87d" y="281.959579"/>
     <use style="fill:#ff0000;stroke:#ff0000;" x="164.187476" xlink:href="#m3cc428b87d" y="276.389053"/>
     <use style="fill:#ff0000;stroke:#ff0000;" x="174.348844" xlink:href="#m3cc428b87d" y="275.593263"/>
     <use style="fill:#ff0000;stroke:#ff0000;" x="182.03878" xlink:href="#m3cc428b87d" y="274.797474"/>
     <use style="fill:#ff0000;stroke:#ff0000;" x="185.201095" xlink:href="#m3cc428b87d" y="274.001684"/>
     <use style="fill:#ff0000;stroke:#ff0000;" x="190.615227" xlink:href="#m3cc428b87d" y="272.410105"/>
     <use style="fill:#ff0000;stroke:#ff0000;" x="192.528964" xlink:href="#m3cc428b87d" y="271.614316"/>
     <use style="fill:#ff0000;stroke:#ff0000;" x="195.727229" xlink:href="#m3cc428b87d" y="271.614316"/>
     <use style="fill:#ff0000;stroke:#ff0000;" x="198.020791" xlink:href="#m3cc428b87d" y="269.226947"/>
     <use style="fill:#ff0000;stroke:#ff0000;" x="208.632483" xlink:href="#m3cc428b87d" y="269.226947"/>
     <use style="fill:#ff0000;stroke:#ff0000;" x="215.178417" xlink:href="#m3cc428b87d" y="264.452211"/>
     <use style="fill:#ff0000;stroke:#ff0000;" x="218.710135" xlink:href="#m3cc428b87d" y="256.494316"/>
     <use style="fill:#ff0000;stroke:#ff0000;" x="221.757506" xlink:href="#m3cc428b87d" y="250.923789"/>
     <use style="fill:#ff0000;stroke:#ff0000;" x="223.826054" xlink:href="#m3cc428b87d" y="245.353263"/>
     <use style="fill:#ff0000;stroke:#ff0000;" x="225.685275" xlink:href="#m3cc428b87d" y="244.557474"/>
     <use style="fill:#ff0000;stroke:#ff0000;" x="227.832428" xlink:href="#m3cc428b87d" y="244.557474"/>
     <use style="fill:#ff0000;stroke:#ff0000;" x="229.635771" xlink:href="#m3cc428b87d" y="243.761684"/>
     <use style="fill:#ff0000;stroke:#ff0000;" x="231.66622" xlink:href="#m3cc428b87d" y="243.761684"/>
     <use style="fill:#ff0000;stroke:#ff0000;" x="233.457186" xlink:href="#m3cc428b87d" y="243.761684"/>
     <use style="fill:#ff0000;stroke:#ff0000;" x="235.114957" xlink:href="#m3cc428b87d" y="243.761684"/>
     <use style="fill:#ff0000;stroke:#ff0000;" x="236.675666" xlink:href="#m3cc428b87d" y="243.761684"/>
     <use style="fill:#ff0000;stroke:#ff0000;" x="238.299034" xlink:href="#m3cc428b87d" y="243.761684"/>
     <use style="fill:#ff0000;stroke:#ff0000;" x="239.943549" xlink:href="#m3cc428b87d" y="243.761684"/>
     <use style="fill:#ff0000;stroke:#ff0000;" x="242.527649" xlink:href="#m3cc428b87d" y="243.761684"/>
     <use style="fill:#ff0000;stroke:#ff0000;" x="245.840737" xlink:href="#m3cc428b87d" y="236.599579"/>
     <use style="fill:#ff0000;stroke:#ff0000;" x="247.865596" xlink:href="#m3cc428b87d" y="235.803789"/>
     <use style="fill:#ff0000;stroke:#ff0000;" x="249.423951" xlink:href="#m3cc428b87d" y="235.803789"/>
     <use style="fill:#ff0000;stroke:#ff0000;" x="250.90635" xlink:href="#m3cc428b87d" y="235.803789"/>
     <use style="fill:#ff0000;stroke:#ff0000;" x="252.649184" xlink:href="#m3cc428b87d" y="235.803789"/>
     <use style="fill:#ff0000;stroke:#ff0000;" x="254.153205" xlink:href="#m3cc428b87d" y="235.008"/>
     <use style="fill:#ff0000;stroke:#ff0000;" x="255.47958" xlink:href="#m3cc428b87d" y="235.008"/>
     <use style="fill:#ff0000;stroke:#ff0000;" x="257.784415" xlink:href="#m3cc428b87d" y="235.008"/>
     <use style="fill:#ff0000;stroke:#ff0000;" x="259.142085" xlink:href="#m3cc428b87d" y="233.416421"/>
     <use style="fill:#ff0000;stroke:#ff0000;" x="260.780217" xlink:href="#m3cc428b87d" y="232.620632"/>
     <use style="fill:#ff0000;stroke:#ff0000;" x="262.062506" xlink:href="#m3cc428b87d" y="232.620632"/>
     <use style="fill:#ff0000;stroke:#ff0000;" x="267.759822" xlink:href="#m3cc428b87d" y="231.824842"/>
     <use style="fill:#ff0000;stroke:#ff0000;" x="269.28715" xlink:href="#m3cc428b87d" y="231.029053"/>
     <use style="fill:#ff0000;stroke:#ff0000;" x="270.848675" xlink:href="#m3cc428b87d" y="231.029053"/>
     <use style="fill:#ff0000;stroke:#ff0000;" x="272.323061" xlink:href="#m3cc428b87d" y="231.029053"/>
     <use style="fill:#ff0000;stroke:#ff0000;" x="273.744406" xlink:href="#m3cc428b87d" y="231.029053"/>
     <use style="fill:#ff0000;stroke:#ff0000;" x="275.35025" xlink:href="#m3cc428b87d" y="231.029053"/>
     <use style="fill:#ff0000;stroke:#ff0000;" x="279.421314" xlink:href="#m3cc428b87d" y="230.233263"/>
     <use style="fill:#ff0000;stroke:#ff0000;" x="280.912185" xlink:href="#m3cc428b87d" y="223.866947"/>
     <use style="fill:#ff0000;stroke:#ff0000;" x="282.19724" xlink:href="#m3cc428b87d" y="223.866947"/>
     <use style="fill:#ff0000;stroke:#ff0000;" x="283.62527" xlink:href="#m3cc428b87d" y="223.866947"/>
     <use style="fill:#ff0000;stroke:#ff0000;" x="285.082605" xlink:href="#m3cc428b87d" y="223.866947"/>
     <use style="fill:#ff0000;stroke:#ff0000;" x="286.248995" xlink:href="#m3cc428b87d" y="223.866947"/>
     <use style="fill:#ff0000;stroke:#ff0000;" x="287.647684" xlink:href="#m3cc428b87d" y="223.071158"/>
     <use style="fill:#ff0000;stroke:#ff0000;" x="292.527725" xlink:href="#m3cc428b87d" y="222.275368"/>
     <use style="fill:#ff0000;stroke:#ff0000;" x="293.830405" xlink:href="#m3cc428b87d" y="213.521684"/>
     <use style="fill:#ff0000;stroke:#ff0000;" x="295.084492" xlink:href="#m3cc428b87d" y="213.521684"/>
     <use style="fill:#ff0000;stroke:#ff0000;" x="296.328911" xlink:href="#m3cc428b87d" y="213.521684"/>
     <use style="fill:#ff0000;stroke:#ff0000;" x="297.623993" xlink:href="#m3cc428b87d" y="213.521684"/>
     <use style="fill:#ff0000;stroke:#ff0000;" x="300.092194" xlink:href="#m3cc428b87d" y="212.725895"/>
     <use style="fill:#ff0000;stroke:#ff0000;" x="302.375321" xlink:href="#m3cc428b87d" y="202.380632"/>
     <use style="fill:#ff0000;stroke:#ff0000;" x="303.603233" xlink:href="#m3cc428b87d" y="194.422737"/>
     <use style="fill:#ff0000;stroke:#ff0000;" x="304.735536" xlink:href="#m3cc428b87d" y="194.422737"/>
     <use style="fill:#ff0000;stroke:#ff0000;" x="305.940178" xlink:href="#m3cc428b87d" y="194.422737"/>
     <use style="fill:#ff0000;stroke:#ff0000;" x="307.017706" xlink:href="#m3cc428b87d" y="194.422737"/>
     <use style="fill:#ff0000;stroke:#ff0000;" x="308.429947" xlink:href="#m3cc428b87d" y="194.422737"/>
     <use style="fill:#ff0000;stroke:#ff0000;" x="309.494545" xlink:href="#m3cc428b87d" y="194.422737"/>
     <use style="fill:#ff0000;stroke:#ff0000;" x="310.683751" xlink:href="#m3cc428b87d" y="194.422737"/>
     <use style="fill:#ff0000;stroke:#ff0000;" x="313.000889" xlink:href="#m3cc428b87d" y="194.422737"/>
     <use style="fill:#ff0000;stroke:#ff0000;" x="314.242751" xlink:href="#m3cc428b87d" y="174.528"/>
     <use style="fill:#ff0000;stroke:#ff0000;" x="315.357277" xlink:href="#m3cc428b87d" y="174.528"/>
     <use style="fill:#ff0000;stroke:#ff0000;" x="317.414182" xlink:href="#m3cc428b87d" y="174.528"/>
     <use style="fill:#ff0000;stroke:#ff0000;" x="318.460136" xlink:href="#m3cc428b87d" y="172.936421"/>
     <use style="fill:#ff0000;stroke:#ff0000;" x="319.40776" xlink:href="#m3cc428b87d" y="172.936421"/>
     <use style="fill:#ff0000;stroke:#ff0000;" x="320.437129" xlink:href="#m3cc428b87d" y="172.936421"/>
     <use style="fill:#ff0000;stroke:#ff0000;" x="322.328566" xlink:href="#m3cc428b87d" y="168.161684"/>
     <use style="fill:#ff0000;stroke:#ff0000;" x="323.418806" xlink:href="#m3cc428b87d" y="162.591158"/>
     <use style="fill:#ff0000;stroke:#ff0000;" x="324.482972" xlink:href="#m3cc428b87d" y="162.591158"/>
     <use style="fill:#ff0000;stroke:#ff0000;" x="325.650312" xlink:href="#m3cc428b87d" y="162.591158"/>
     <use style="fill:#ff0000;stroke:#ff0000;" x="326.686342" xlink:href="#m3cc428b87d" y="160.999579"/>
     <use style="fill:#ff0000;stroke:#ff0000;" x="327.736851" xlink:href="#m3cc428b87d" y="160.999579"/>
     <use style="fill:#ff0000;stroke:#ff0000;" x="328.680512" xlink:href="#m3cc428b87d" y="159.408"/>
     <use style="fill:#ff0000;stroke:#ff0000;" x="329.626467" xlink:href="#m3cc428b87d" y="159.408"/>
     <use style="fill:#ff0000;stroke:#ff0000;" x="330.540699" xlink:href="#m3cc428b87d" y="159.408"/>
     <use style="fill:#ff0000;stroke:#ff0000;" x="331.483485" xlink:href="#m3cc428b87d" y="159.408"/>
     <use style="fill:#ff0000;stroke:#ff0000;" x="332.404225" xlink:href="#m3cc428b87d" y="159.408"/>
     <use style="fill:#ff0000;stroke:#ff0000;" x="333.285588" xlink:href="#m3cc428b87d" y="159.408"/>
     <use style="fill:#ff0000;stroke:#ff0000;" x="334.71448" xlink:href="#m3cc428b87d" y="159.408"/>
     <use style="fill:#ff0000;stroke:#ff0000;" x="335.673288" xlink:href="#m3cc428b87d" y="157.020632"/>
     <use style="fill:#ff0000;stroke:#ff0000;" x="336.630397" xlink:href="#m3cc428b87d" y="157.020632"/>
     <use style="fill:#ff0000;stroke:#ff0000;" x="338.529043" xlink:href="#m3cc428b87d" y="155.429053"/>
     <use style="fill:#ff0000;stroke:#ff0000;" x="339.448709" xlink:href="#m3cc428b87d" y="153.041684"/>
     <use style="fill:#ff0000;stroke:#ff0000;" x="340.386434" xlink:href="#m3cc428b87d" y="152.245895"/>
     <use style="fill:#ff0000;stroke:#ff0000;" x="341.296471" xlink:href="#m3cc428b87d" y="152.245895"/>
     <use style="fill:#ff0000;stroke:#ff0000;" x="342.692143" xlink:href="#m3cc428b87d" y="152.245895"/>
     <use style="fill:#ff0000;stroke:#ff0000;" x="343.506081" xlink:href="#m3cc428b87d" y="151.450105"/>
     <use style="fill:#ff0000;stroke:#ff0000;" x="344.398542" xlink:href="#m3cc428b87d" y="151.450105"/>
     <use style="fill:#ff0000;stroke:#ff0000;" x="345.238677" xlink:href="#m3cc428b87d" y="151.450105"/>
     <use style="fill:#ff0000;stroke:#ff0000;" x="346.058783" xlink:href="#m3cc428b87d" y="151.450105"/>
     <use style="fill:#ff0000;stroke:#ff0000;" x="346.879671" xlink:href="#m3cc428b87d" y="150.654316"/>
     <use style="fill:#ff0000;stroke:#ff0000;" x="347.765689" xlink:href="#m3cc428b87d" y="150.654316"/>
     <use style="fill:#ff0000;stroke:#ff0000;" x="348.630524" xlink:href="#m3cc428b87d" y="149.858526"/>
     <use style="fill:#ff0000;stroke:#ff0000;" x="349.486593" xlink:href="#m3cc428b87d" y="149.858526"/>
     <use style="fill:#ff0000;stroke:#ff0000;" x="350.307711" xlink:href="#m3cc428b87d" y="149.858526"/>
     <use style="fill:#ff0000;stroke:#ff0000;" x="351.093212" xlink:href="#m3cc428b87d" y="149.858526"/>
     <use style="fill:#ff0000;stroke:#ff0000;" x="355.896726" xlink:href="#m3cc428b87d" y="149.062737"/>
     <use style="fill:#ff0000;stroke:#ff0000;" x="356.718349" xlink:href="#m3cc428b87d" y="148.266947"/>
     <use style="fill:#ff0000;stroke:#ff0000;" x="357.60609" xlink:href="#m3cc428b87d" y="148.266947"/>
     <use style="fill:#ff0000;stroke:#ff0000;" x="358.404143" xlink:href="#m3cc428b87d" y="148.266947"/>
     <use style="fill:#ff0000;stroke:#ff0000;" x="359.16531" xlink:href="#m3cc428b87d" y="146.675368"/>
     <use style="fill:#ff0000;stroke:#ff0000;" x="359.979151" xlink:href="#m3cc428b87d" y="146.675368"/>
     <use style="fill:#ff0000;stroke:#ff0000;" x="360.75171" xlink:href="#m3cc428b87d" y="145.083789"/>
     <use style="fill:#ff0000;stroke:#ff0000;" x="361.543737" xlink:href="#m3cc428b87d" y="145.083789"/>
     <use style="fill:#ff0000;stroke:#ff0000;" x="362.299369" xlink:href="#m3cc428b87d" y="145.083789"/>
     <use style="fill:#ff0000;stroke:#ff0000;" x="363.083121" xlink:href="#m3cc428b87d" y="145.083789"/>
     <use style="fill:#ff0000;stroke:#ff0000;" x="363.816571" xlink:href="#m3cc428b87d" y="145.083789"/>
     <use style="fill:#ff0000;stroke:#ff0000;" x="364.590732" xlink:href="#m3cc428b87d" y="145.083789"/>
     <use style="fill:#ff0000;stroke:#ff0000;" x="365.376337" xlink:href="#m3cc428b87d" y="145.083789"/>
     <use style="fill:#ff0000;stroke:#ff0000;" x="366.182278" xlink:href="#m3cc428b87d" y="144.288"/>
     <use style="fill:#ff0000;stroke:#ff0000;" x="367.09036" xlink:href="#m3cc428b87d" y="143.492211"/>
     <use style="fill:#ff0000;stroke:#ff0000;" x="368.016171" xlink:href="#m3cc428b87d" y="142.696421"/>
     <use style="fill:#ff0000;stroke:#ff0000;" x="368.739282" xlink:href="#m3cc428b87d" y="141.900632"/>
     <use style="fill:#ff0000;stroke:#ff0000;" x="369.59903" xlink:href="#m3cc428b87d" y="141.104842"/>
     <use style="fill:#ff0000;stroke:#ff0000;" x="371.417123" xlink:href="#m3cc428b87d" y="140.309053"/>
     <use style="fill:#ff0000;stroke:#ff0000;" x="372.122335" xlink:href="#m3cc428b87d" y="139.513263"/>
     <use style="fill:#ff0000;stroke:#ff0000;" x="372.874631" xlink:href="#m3cc428b87d" y="139.513263"/>
     <use style="fill:#ff0000;stroke:#ff0000;" x="373.772453" xlink:href="#m3cc428b87d" y="138.717474"/>
     <use style="fill:#ff0000;stroke:#ff0000;" x="374.475093" xlink:href="#m3cc428b87d" y="125.984842"/>
     <use style="fill:#ff0000;stroke:#ff0000;" x="375.135281" xlink:href="#m3cc428b87d" y="125.984842"/>
     <use style="fill:#ff0000;stroke:#ff0000;" x="376.199189" xlink:href="#m3cc428b87d" y="125.189053"/>
     <use style="fill:#ff0000;stroke:#ff0000;" x="377.22962" xlink:href="#m3cc428b87d" y="111.660632"/>
     <use style="fill:#ff0000;stroke:#ff0000;" x="377.878104" xlink:href="#m3cc428b87d" y="94.153263"/>
     <use style="fill:#ff0000;stroke:#ff0000;" x="379.266569" xlink:href="#m3cc428b87d" y="94.153263"/>
     <use style="fill:#ff0000;stroke:#ff0000;" x="379.955032" xlink:href="#m3cc428b87d" y="93.357474"/>
     <use style="fill:#ff0000;stroke:#ff0000;" x="380.609342" xlink:href="#m3cc428b87d" y="93.357474"/>
     <use style="fill:#ff0000;stroke:#ff0000;" x="381.252205" xlink:href="#m3cc428b87d" y="93.357474"/>
     <use style="fill:#ff0000;stroke:#ff0000;" x="381.886782" xlink:href="#m3cc428b87d" y="93.357474"/>
     <use style="fill:#ff0000;stroke:#ff0000;" x="382.512875" xlink:href="#m3cc428b87d" y="93.357474"/>
     <use style="fill:#ff0000;stroke:#ff0000;" x="383.136454" xlink:href="#m3cc428b87d" y="93.357474"/>
     <use style="fill:#ff0000;stroke:#ff0000;" x="384.409667" xlink:href="#m3cc428b87d" y="92.561684"/>
     <use style="fill:#ff0000;stroke:#ff0000;" x="385.057274" xlink:href="#m3cc428b87d" y="76.645895"/>
     <use style="fill:#ff0000;stroke:#ff0000;" x="385.735757" xlink:href="#m3cc428b87d" y="75.850105"/>
     <use style="fill:#ff0000;stroke:#ff0000;" x="386.822536" xlink:href="#m3cc428b87d" y="75.054316"/>
     <use style="fill:#ff0000;stroke:#ff0000;" x="388.259495" xlink:href="#m3cc428b87d" y="73.462737"/>
     <use style="fill:#ff0000;stroke:#ff0000;" x="388.953617" xlink:href="#m3cc428b87d" y="56.751158"/>
     <use style="fill:#ff0000;stroke:#ff0000;" x="389.613411" xlink:href="#m3cc428b87d" y="55.955368"/>
     <use style="fill:#ff0000;stroke:#ff0000;" x="390.298204" xlink:href="#m3cc428b87d" y="55.955368"/>
     <use style="fill:#ff0000;stroke:#ff0000;" x="390.951274" xlink:href="#m3cc428b87d" y="55.955368"/>
     <use style="fill:#ff0000;stroke:#ff0000;" x="391.601527" xlink:href="#m3cc428b87d" y="55.955368"/>
     <use style="fill:#ff0000;stroke:#ff0000;" x="392.24009" xlink:href="#m3cc428b87d" y="54.363789"/>
     <use style="fill:#ff0000;stroke:#ff0000;" x="392.886315" xlink:href="#m3cc428b87d" y="54.363789"/>
     <use style="fill:#ff0000;stroke:#ff0000;" x="393.51993" xlink:href="#m3cc428b87d" y="54.363789"/>
     <use style="fill:#ff0000;stroke:#ff0000;" x="394.155515" xlink:href="#m3cc428b87d" y="54.363789"/>
     <use style="fill:#ff0000;stroke:#ff0000;" x="394.775985" xlink:href="#m3cc428b87d" y="54.363789"/>
     <use style="fill:#ff0000;stroke:#ff0000;" x="395.423099" xlink:href="#m3cc428b87d" y="54.363789"/>
     <use style="fill:#ff0000;stroke:#ff0000;" x="396.067164" xlink:href="#m3cc428b87d" y="53.568"/>
     <use style="fill:#ff0000;stroke:#ff0000;" x="396.677044" xlink:href="#m3cc428b87d" y="53.568"/>
     <use style="fill:#ff0000;stroke:#ff0000;" x="397.273266" xlink:href="#m3cc428b87d" y="53.568"/>
     <use style="fill:#ff0000;stroke:#ff0000;" x="398.487273" xlink:href="#m3cc428b87d" y="53.568"/>
    </g>
   </g>
   <g id="patch_7">
    <path d="M 57.6 307.584 
L 57.6 41.472 
" style="fill:none;stroke:#000000;stroke-linecap:square;stroke-linejoin:miter;stroke-width:0.8;"/>
   </g>
   <g id="patch_8">
    <path d="M 414.72 307.584 
L 414.72 41.472 
" style="fill:none;stroke:#000000;stroke-linecap:square;stroke-linejoin:miter;stroke-width:0.8;"/>
   </g>
   <g id="patch_9">
    <path d="M 57.6 307.584 
L 414.72 307.584 
" style="fill:none;stroke:#000000;stroke-linecap:square;stroke-linejoin:miter;stroke-width:0.8;"/>
   </g>
   <g id="patch_10">
    <path d="M 57.6 41.472 
L 414.72 41.472 
" style="fill:none;stroke:#000000;stroke-linecap:square;stroke-linejoin:miter;stroke-width:0.8;"/>
   </g>
  </g>
 </g>
 <defs>
  <clipPath id="pfc0881f1c1">
   <rect height="266.112" width="357.12" x="57.6" y="41.472"/>
  </clipPath>
 </defs>
</svg>
