<?xml version="1.0" encoding="utf-8" standalone="no"?>
<!DOCTYPE svg PUBLIC "-//W3C//DTD SVG 1.1//EN"
  "http://www.w3.org/Graphics/SVG/1.1/DTD/svg11.dtd">
<!-- Created with matplotlib (http://matplotlib.org/) -->
<svg height="345.6pt" version="1.1" viewBox="0 0 460.8 345.6" width="460.8pt" xmlns="http://www.w3.org/2000/svg" xmlns:xlink="http://www.w3.org/1999/xlink">
 <defs>
  <style type="text/css">
*{stroke-linecap:butt;stroke-linejoin:round;}
  </style>
 </defs>
 <g id="figure_1">
  <g id="patch_1">
   <path d="M 0 345.6 
L 460.8 345.6 
L 460.8 0 
L 0 0 
z
" style="fill:#ffffff;"/>
  </g>
  <g id="axes_1">
   <g id="patch_2">
    <path d="M 57.6 307.584 
L 414.72 307.584 
L 414.72 41.472 
L 57.6 41.472 
z
" style="fill:#ffffff;"/>
   </g>
   <g id="matplotlib.axis_1">
    <g id="xtick_1">
     <g id="line2d_1">
      <defs>
       <path d="M 0 0 
L 0 3.5 
" id="mea52cdf761" style="stroke:#000000;stroke-width:0.8;"/>
      </defs>
      <g>
       <use style="stroke:#000000;stroke-width:0.8;" x="70.43699" xlink:href="#mea52cdf761" y="307.584"/>
      </g>
     </g>
     <g id="text_1">
      <!-- $\mathdefault{10^{2}}$ -->
      <defs>
       <path d="M 12.40625 8.296875 
L 28.515625 8.296875 
L 28.515625 63.921875 
L 10.984375 60.40625 
L 10.984375 69.390625 
L 28.421875 72.90625 
L 38.28125 72.90625 
L 38.28125 8.296875 
L 54.390625 8.296875 
L 54.390625 0 
L 12.40625 0 
z
" id="DejaVuSans-31"/>
       <path d="M 31.78125 66.40625 
Q 24.171875 66.40625 20.328125 58.90625 
Q 16.5 51.421875 16.5 36.375 
Q 16.5 21.390625 20.328125 13.890625 
Q 24.171875 6.390625 31.78125 6.390625 
Q 39.453125 6.390625 43.28125 13.890625 
Q 47.125 21.390625 47.125 36.375 
Q 47.125 51.421875 43.28125 58.90625 
Q 39.453125 66.40625 31.78125 66.40625 
z
M 31.78125 74.21875 
Q 44.046875 74.21875 50.515625 64.515625 
Q 56.984375 54.828125 56.984375 36.375 
Q 56.984375 17.96875 50.515625 8.265625 
Q 44.046875 -1.421875 31.78125 -1.421875 
Q 19.53125 -1.421875 13.0625 8.265625 
Q 6.59375 17.96875 6.59375 36.375 
Q 6.59375 54.828125 13.0625 64.515625 
Q 19.53125 74.21875 31.78125 74.21875 
z
" id="DejaVuSans-30"/>
       <path d="M 19.1875 8.296875 
L 53.609375 8.296875 
L 53.609375 0 
L 7.328125 0 
L 7.328125 8.296875 
Q 12.9375 14.109375 22.625 23.890625 
Q 32.328125 33.6875 34.8125 36.53125 
Q 39.546875 41.84375 41.421875 45.53125 
Q 43.3125 49.21875 43.3125 52.78125 
Q 43.3125 58.59375 39.234375 62.25 
Q 35.15625 65.921875 28.609375 65.921875 
Q 23.96875 65.921875 18.8125 64.3125 
Q 13.671875 62.703125 7.8125 59.421875 
L 7.8125 69.390625 
Q 13.765625 71.78125 18.9375 73 
Q 24.125 74.21875 28.421875 74.21875 
Q 39.75 74.21875 46.484375 68.546875 
Q 53.21875 62.890625 53.21875 53.421875 
Q 53.21875 48.921875 51.53125 44.890625 
Q 49.859375 40.875 45.40625 35.40625 
Q 44.1875 33.984375 37.640625 27.21875 
Q 31.109375 20.453125 19.1875 8.296875 
z
" id="DejaVuSans-32"/>
      </defs>
      <g transform="translate(61.63699 322.182437)scale(0.1 -0.1)">
       <use transform="translate(0 0.765625)" xlink:href="#DejaVuSans-31"/>
       <use transform="translate(63.623047 0.765625)" xlink:href="#DejaVuSans-30"/>
       <use transform="translate(128.203125 39.046875)scale(0.7)" xlink:href="#DejaVuSans-32"/>
      </g>
     </g>
    </g>
    <g id="xtick_2">
     <g id="line2d_2">
      <g>
       <use style="stroke:#000000;stroke-width:0.8;" x="229.604412" xlink:href="#mea52cdf761" y="307.584"/>
      </g>
     </g>
     <g id="text_2">
      <!-- $\mathdefault{10^{3}}$ -->
      <defs>
       <path d="M 40.578125 39.3125 
Q 47.65625 37.796875 51.625 33 
Q 55.609375 28.21875 55.609375 21.1875 
Q 55.609375 10.40625 48.1875 4.484375 
Q 40.765625 -1.421875 27.09375 -1.421875 
Q 22.515625 -1.421875 17.65625 -0.515625 
Q 12.796875 0.390625 7.625 2.203125 
L 7.625 11.71875 
Q 11.71875 9.328125 16.59375 8.109375 
Q 21.484375 6.890625 26.8125 6.890625 
Q 36.078125 6.890625 40.9375 10.546875 
Q 45.796875 14.203125 45.796875 21.1875 
Q 45.796875 27.640625 41.28125 31.265625 
Q 36.765625 34.90625 28.71875 34.90625 
L 20.21875 34.90625 
L 20.21875 43.015625 
L 29.109375 43.015625 
Q 36.375 43.015625 40.234375 45.921875 
Q 44.09375 48.828125 44.09375 54.296875 
Q 44.09375 59.90625 40.109375 62.90625 
Q 36.140625 65.921875 28.71875 65.921875 
Q 24.65625 65.921875 20.015625 65.03125 
Q 15.375 64.15625 9.8125 62.3125 
L 9.8125 71.09375 
Q 15.4375 72.65625 20.34375 73.4375 
Q 25.25 74.21875 29.59375 74.21875 
Q 40.828125 74.21875 47.359375 69.109375 
Q 53.90625 64.015625 53.90625 55.328125 
Q 53.90625 49.265625 50.4375 45.09375 
Q 46.96875 40.921875 40.578125 39.3125 
z
" id="DejaVuSans-33"/>
      </defs>
      <g transform="translate(220.804412 322.182437)scale(0.1 -0.1)">
       <use transform="translate(0 0.765625)" xlink:href="#DejaVuSans-31"/>
       <use transform="translate(63.623047 0.765625)" xlink:href="#DejaVuSans-30"/>
       <use transform="translate(128.203125 39.046875)scale(0.7)" xlink:href="#DejaVuSans-33"/>
      </g>
     </g>
    </g>
    <g id="xtick_3">
     <g id="line2d_3">
      <g>
       <use style="stroke:#000000;stroke-width:0.8;" x="388.771834" xlink:href="#mea52cdf761" y="307.584"/>
      </g>
     </g>
     <g id="text_3">
      <!-- $\mathdefault{10^{4}}$ -->
      <defs>
       <path d="M 37.796875 64.3125 
L 12.890625 25.390625 
L 37.796875 25.390625 
z
M 35.203125 72.90625 
L 47.609375 72.90625 
L 47.609375 25.390625 
L 58.015625 25.390625 
L 58.015625 17.1875 
L 47.609375 17.1875 
L 47.609375 0 
L 37.796875 0 
L 37.796875 17.1875 
L 4.890625 17.1875 
L 4.890625 26.703125 
z
" id="DejaVuSans-34"/>
      </defs>
      <g transform="translate(379.971834 322.182437)scale(0.1 -0.1)">
       <use transform="translate(0 0.684375)" xlink:href="#DejaVuSans-31"/>
       <use transform="translate(63.623047 0.684375)" xlink:href="#DejaVuSans-30"/>
       <use transform="translate(128.203125 38.965625)scale(0.7)" xlink:href="#DejaVuSans-34"/>
      </g>
     </g>
    </g>
    <g id="xtick_4">
     <g id="line2d_4">
      <defs>
       <path d="M 0 0 
L 0 2 
" id="mc98154109a" style="stroke:#000000;stroke-width:0.6;"/>
      </defs>
      <g>
       <use style="stroke:#000000;stroke-width:0.6;" x="63.153889" xlink:href="#mc98154109a" y="307.584"/>
      </g>
     </g>
    </g>
    <g id="xtick_5">
     <g id="line2d_5">
      <g>
       <use style="stroke:#000000;stroke-width:0.6;" x="118.351159" xlink:href="#mc98154109a" y="307.584"/>
      </g>
     </g>
    </g>
    <g id="xtick_6">
     <g id="line2d_6">
      <g>
       <use style="stroke:#000000;stroke-width:0.6;" x="146.37915" xlink:href="#mc98154109a" y="307.584"/>
      </g>
     </g>
    </g>
    <g id="xtick_7">
     <g id="line2d_7">
      <g>
       <use style="stroke:#000000;stroke-width:0.6;" x="166.265327" xlink:href="#mc98154109a" y="307.584"/>
      </g>
     </g>
    </g>
    <g id="xtick_8">
     <g id="line2d_8">
      <g>
       <use style="stroke:#000000;stroke-width:0.6;" x="181.690244" xlink:href="#mc98154109a" y="307.584"/>
      </g>
     </g>
    </g>
    <g id="xtick_9">
     <g id="line2d_9">
      <g>
       <use style="stroke:#000000;stroke-width:0.6;" x="194.293319" xlink:href="#mc98154109a" y="307.584"/>
      </g>
     </g>
    </g>
    <g id="xtick_10">
     <g id="line2d_10">
      <g>
       <use style="stroke:#000000;stroke-width:0.6;" x="204.949067" xlink:href="#mc98154109a" y="307.584"/>
      </g>
     </g>
    </g>
    <g id="xtick_11">
     <g id="line2d_11">
      <g>
       <use style="stroke:#000000;stroke-width:0.6;" x="214.179495" xlink:href="#mc98154109a" y="307.584"/>
      </g>
     </g>
    </g>
    <g id="xtick_12">
     <g id="line2d_12">
      <g>
       <use style="stroke:#000000;stroke-width:0.6;" x="222.32131" xlink:href="#mc98154109a" y="307.584"/>
      </g>
     </g>
    </g>
    <g id="xtick_13">
     <g id="line2d_13">
      <g>
       <use style="stroke:#000000;stroke-width:0.6;" x="277.51858" xlink:href="#mc98154109a" y="307.584"/>
      </g>
     </g>
    </g>
    <g id="xtick_14">
     <g id="line2d_14">
      <g>
       <use style="stroke:#000000;stroke-width:0.6;" x="305.546572" xlink:href="#mc98154109a" y="307.584"/>
      </g>
     </g>
    </g>
    <g id="xtick_15">
     <g id="line2d_15">
      <g>
       <use style="stroke:#000000;stroke-width:0.6;" x="325.432749" xlink:href="#mc98154109a" y="307.584"/>
      </g>
     </g>
    </g>
    <g id="xtick_16">
     <g id="line2d_16">
      <g>
       <use style="stroke:#000000;stroke-width:0.6;" x="340.857666" xlink:href="#mc98154109a" y="307.584"/>
      </g>
     </g>
    </g>
    <g id="xtick_17">
     <g id="line2d_17">
      <g>
       <use style="stroke:#000000;stroke-width:0.6;" x="353.46074" xlink:href="#mc98154109a" y="307.584"/>
      </g>
     </g>
    </g>
    <g id="xtick_18">
     <g id="line2d_18">
      <g>
       <use style="stroke:#000000;stroke-width:0.6;" x="364.116488" xlink:href="#mc98154109a" y="307.584"/>
      </g>
     </g>
    </g>
    <g id="xtick_19">
     <g id="line2d_19">
      <g>
       <use style="stroke:#000000;stroke-width:0.6;" x="373.346917" xlink:href="#mc98154109a" y="307.584"/>
      </g>
     </g>
    </g>
    <g id="xtick_20">
     <g id="line2d_20">
      <g>
       <use style="stroke:#000000;stroke-width:0.6;" x="381.488732" xlink:href="#mc98154109a" y="307.584"/>
      </g>
     </g>
    </g>
    <g id="text_4">
     <!-- Execution time (s) -->
     <defs>
      <path d="M 9.8125 72.90625 
L 55.90625 72.90625 
L 55.90625 64.59375 
L 19.671875 64.59375 
L 19.671875 43.015625 
L 54.390625 43.015625 
L 54.390625 34.71875 
L 19.671875 34.71875 
L 19.671875 8.296875 
L 56.78125 8.296875 
L 56.78125 0 
L 9.8125 0 
z
" id="DejaVuSans-45"/>
      <path d="M 54.890625 54.6875 
L 35.109375 28.078125 
L 55.90625 0 
L 45.3125 0 
L 29.390625 21.484375 
L 13.484375 0 
L 2.875 0 
L 24.125 28.609375 
L 4.6875 54.6875 
L 15.28125 54.6875 
L 29.78125 35.203125 
L 44.28125 54.6875 
z
" id="DejaVuSans-78"/>
      <path d="M 56.203125 29.59375 
L 56.203125 25.203125 
L 14.890625 25.203125 
Q 15.484375 15.921875 20.484375 11.0625 
Q 25.484375 6.203125 34.421875 6.203125 
Q 39.59375 6.203125 44.453125 7.46875 
Q 49.3125 8.734375 54.109375 11.28125 
L 54.109375 2.78125 
Q 49.265625 0.734375 44.1875 -0.34375 
Q 39.109375 -1.421875 33.890625 -1.421875 
Q 20.796875 -1.421875 13.15625 6.1875 
Q 5.515625 13.8125 5.515625 26.8125 
Q 5.515625 40.234375 12.765625 48.109375 
Q 20.015625 56 32.328125 56 
Q 43.359375 56 49.78125 48.890625 
Q 56.203125 41.796875 56.203125 29.59375 
z
M 47.21875 32.234375 
Q 47.125 39.59375 43.09375 43.984375 
Q 39.0625 48.390625 32.421875 48.390625 
Q 24.90625 48.390625 20.390625 44.140625 
Q 15.875 39.890625 15.1875 32.171875 
z
" id="DejaVuSans-65"/>
      <path d="M 48.78125 52.59375 
L 48.78125 44.1875 
Q 44.96875 46.296875 41.140625 47.34375 
Q 37.3125 48.390625 33.40625 48.390625 
Q 24.65625 48.390625 19.8125 42.84375 
Q 14.984375 37.3125 14.984375 27.296875 
Q 14.984375 17.28125 19.8125 11.734375 
Q 24.65625 6.203125 33.40625 6.203125 
Q 37.3125 6.203125 41.140625 7.25 
Q 44.96875 8.296875 48.78125 10.40625 
L 48.78125 2.09375 
Q 45.015625 0.34375 40.984375 -0.53125 
Q 36.96875 -1.421875 32.421875 -1.421875 
Q 20.0625 -1.421875 12.78125 6.34375 
Q 5.515625 14.109375 5.515625 27.296875 
Q 5.515625 40.671875 12.859375 48.328125 
Q 20.21875 56 33.015625 56 
Q 37.15625 56 41.109375 55.140625 
Q 45.0625 54.296875 48.78125 52.59375 
z
" id="DejaVuSans-63"/>
      <path d="M 8.5 21.578125 
L 8.5 54.6875 
L 17.484375 54.6875 
L 17.484375 21.921875 
Q 17.484375 14.15625 20.5 10.265625 
Q 23.53125 6.390625 29.59375 6.390625 
Q 36.859375 6.390625 41.078125 11.03125 
Q 45.3125 15.671875 45.3125 23.6875 
L 45.3125 54.6875 
L 54.296875 54.6875 
L 54.296875 0 
L 45.3125 0 
L 45.3125 8.40625 
Q 42.046875 3.421875 37.71875 1 
Q 33.40625 -1.421875 27.6875 -1.421875 
Q 18.265625 -1.421875 13.375 4.4375 
Q 8.5 10.296875 8.5 21.578125 
z
M 31.109375 56 
z
" id="DejaVuSans-75"/>
      <path d="M 18.3125 70.21875 
L 18.3125 54.6875 
L 36.8125 54.6875 
L 36.8125 47.703125 
L 18.3125 47.703125 
L 18.3125 18.015625 
Q 18.3125 11.328125 20.140625 9.421875 
Q 21.96875 7.515625 27.59375 7.515625 
L 36.8125 7.515625 
L 36.8125 0 
L 27.59375 0 
Q 17.1875 0 13.234375 3.875 
Q 9.28125 7.765625 9.28125 18.015625 
L 9.28125 47.703125 
L 2.6875 47.703125 
L 2.6875 54.6875 
L 9.28125 54.6875 
L 9.28125 70.21875 
z
" id="DejaVuSans-74"/>
      <path d="M 9.421875 54.6875 
L 18.40625 54.6875 
L 18.40625 0 
L 9.421875 0 
z
M 9.421875 75.984375 
L 18.40625 75.984375 
L 18.40625 64.59375 
L 9.421875 64.59375 
z
" id="DejaVuSans-69"/>
      <path d="M 30.609375 48.390625 
Q 23.390625 48.390625 19.1875 42.75 
Q 14.984375 37.109375 14.984375 27.296875 
Q 14.984375 17.484375 19.15625 11.84375 
Q 23.34375 6.203125 30.609375 6.203125 
Q 37.796875 6.203125 41.984375 11.859375 
Q 46.1875 17.53125 46.1875 27.296875 
Q 46.1875 37.015625 41.984375 42.703125 
Q 37.796875 48.390625 30.609375 48.390625 
z
M 30.609375 56 
Q 42.328125 56 49.015625 48.375 
Q 55.71875 40.765625 55.71875 27.296875 
Q 55.71875 13.875 49.015625 6.21875 
Q 42.328125 -1.421875 30.609375 -1.421875 
Q 18.84375 -1.421875 12.171875 6.21875 
Q 5.515625 13.875 5.515625 27.296875 
Q 5.515625 40.765625 12.171875 48.375 
Q 18.84375 56 30.609375 56 
z
" id="DejaVuSans-6f"/>
      <path d="M 54.890625 33.015625 
L 54.890625 0 
L 45.90625 0 
L 45.90625 32.71875 
Q 45.90625 40.484375 42.875 44.328125 
Q 39.84375 48.1875 33.796875 48.1875 
Q 26.515625 48.1875 22.3125 43.546875 
Q 18.109375 38.921875 18.109375 30.90625 
L 18.109375 0 
L 9.078125 0 
L 9.078125 54.6875 
L 18.109375 54.6875 
L 18.109375 46.1875 
Q 21.34375 51.125 25.703125 53.5625 
Q 30.078125 56 35.796875 56 
Q 45.21875 56 50.046875 50.171875 
Q 54.890625 44.34375 54.890625 33.015625 
z
" id="DejaVuSans-6e"/>
      <path id="DejaVuSans-20"/>
      <path d="M 52 44.1875 
Q 55.375 50.25 60.0625 53.125 
Q 64.75 56 71.09375 56 
Q 79.640625 56 84.28125 50.015625 
Q 88.921875 44.046875 88.921875 33.015625 
L 88.921875 0 
L 79.890625 0 
L 79.890625 32.71875 
Q 79.890625 40.578125 77.09375 44.375 
Q 74.3125 48.1875 68.609375 48.1875 
Q 61.625 48.1875 57.5625 43.546875 
Q 53.515625 38.921875 53.515625 30.90625 
L 53.515625 0 
L 44.484375 0 
L 44.484375 32.71875 
Q 44.484375 40.625 41.703125 44.40625 
Q 38.921875 48.1875 33.109375 48.1875 
Q 26.21875 48.1875 22.15625 43.53125 
Q 18.109375 38.875 18.109375 30.90625 
L 18.109375 0 
L 9.078125 0 
L 9.078125 54.6875 
L 18.109375 54.6875 
L 18.109375 46.1875 
Q 21.1875 51.21875 25.484375 53.609375 
Q 29.78125 56 35.6875 56 
Q 41.65625 56 45.828125 52.96875 
Q 50 49.953125 52 44.1875 
z
" id="DejaVuSans-6d"/>
      <path d="M 31 75.875 
Q 24.46875 64.65625 21.28125 53.65625 
Q 18.109375 42.671875 18.109375 31.390625 
Q 18.109375 20.125 21.3125 9.0625 
Q 24.515625 -2 31 -13.1875 
L 23.1875 -13.1875 
Q 15.875 -1.703125 12.234375 9.375 
Q 8.59375 20.453125 8.59375 31.390625 
Q 8.59375 42.28125 12.203125 53.3125 
Q 15.828125 64.359375 23.1875 75.875 
z
" id="DejaVuSans-28"/>
      <path d="M 44.28125 53.078125 
L 44.28125 44.578125 
Q 40.484375 46.53125 36.375 47.5 
Q 32.28125 48.484375 27.875 48.484375 
Q 21.1875 48.484375 17.84375 46.4375 
Q 14.5 44.390625 14.5 40.28125 
Q 14.5 37.15625 16.890625 35.375 
Q 19.28125 33.59375 26.515625 31.984375 
L 29.59375 31.296875 
Q 39.15625 29.25 43.1875 25.515625 
Q 47.21875 21.78125 47.21875 15.09375 
Q 47.21875 7.46875 41.1875 3.015625 
Q 35.15625 -1.421875 24.609375 -1.421875 
Q 20.21875 -1.421875 15.453125 -0.5625 
Q 10.6875 0.296875 5.421875 2 
L 5.421875 11.28125 
Q 10.40625 8.6875 15.234375 7.390625 
Q 20.0625 6.109375 24.8125 6.109375 
Q 31.15625 6.109375 34.5625 8.28125 
Q 37.984375 10.453125 37.984375 14.40625 
Q 37.984375 18.0625 35.515625 20.015625 
Q 33.0625 21.96875 24.703125 23.78125 
L 21.578125 24.515625 
Q 13.234375 26.265625 9.515625 29.90625 
Q 5.8125 33.546875 5.8125 39.890625 
Q 5.8125 47.609375 11.28125 51.796875 
Q 16.75 56 26.8125 56 
Q 31.78125 56 36.171875 55.265625 
Q 40.578125 54.546875 44.28125 53.078125 
z
" id="DejaVuSans-73"/>
      <path d="M 8.015625 75.875 
L 15.828125 75.875 
Q 23.140625 64.359375 26.78125 53.3125 
Q 30.421875 42.28125 30.421875 31.390625 
Q 30.421875 20.453125 26.78125 9.375 
Q 23.140625 -1.703125 15.828125 -13.1875 
L 8.015625 -13.1875 
Q 14.5 -2 17.703125 9.0625 
Q 20.90625 20.125 20.90625 31.390625 
Q 20.90625 42.671875 17.703125 53.65625 
Q 14.5 64.65625 8.015625 75.875 
z
" id="DejaVuSans-29"/>
     </defs>
     <g transform="translate(190.49125 335.860562)scale(0.1 -0.1)">
      <use xlink:href="#DejaVuSans-45"/>
      <use x="63.183594" xlink:href="#DejaVuSans-78"/>
      <use x="122.316406" xlink:href="#DejaVuSans-65"/>
      <use x="183.839844" xlink:href="#DejaVuSans-63"/>
      <use x="238.820312" xlink:href="#DejaVuSans-75"/>
      <use x="302.199219" xlink:href="#DejaVuSans-74"/>
      <use x="341.408203" xlink:href="#DejaVuSans-69"/>
      <use x="369.191406" xlink:href="#DejaVuSans-6f"/>
      <use x="430.373047" xlink:href="#DejaVuSans-6e"/>
      <use x="493.751953" xlink:href="#DejaVuSans-20"/>
      <use x="525.539062" xlink:href="#DejaVuSans-74"/>
      <use x="564.748047" xlink:href="#DejaVuSans-69"/>
      <use x="592.53125" xlink:href="#DejaVuSans-6d"/>
      <use x="689.943359" xlink:href="#DejaVuSans-65"/>
      <use x="751.466797" xlink:href="#DejaVuSans-20"/>
      <use x="783.253906" xlink:href="#DejaVuSans-28"/>
      <use x="822.267578" xlink:href="#DejaVuSans-73"/>
      <use x="874.367188" xlink:href="#DejaVuSans-29"/>
     </g>
    </g>
   </g>
   <g id="matplotlib.axis_2">
    <g id="ytick_1">
     <g id="line2d_21">
      <defs>
       <path d="M 0 0 
L -3.5 0 
" id="m9f33ab28e6" style="stroke:#000000;stroke-width:0.8;"/>
      </defs>
      <g>
       <use style="stroke:#000000;stroke-width:0.8;" x="57.6" xlink:href="#m9f33ab28e6" y="286.183385"/>
      </g>
     </g>
     <g id="text_5">
      <!-- 10 -->
      <g transform="translate(37.875 289.982603)scale(0.1 -0.1)">
       <use xlink:href="#DejaVuSans-31"/>
       <use x="63.623047" xlink:href="#DejaVuSans-30"/>
      </g>
     </g>
    </g>
    <g id="ytick_2">
     <g id="line2d_22">
      <g>
       <use style="stroke:#000000;stroke-width:0.8;" x="57.6" xlink:href="#m9f33ab28e6" y="255.168"/>
      </g>
     </g>
     <g id="text_6">
      <!-- 20 -->
      <g transform="translate(37.875 258.967219)scale(0.1 -0.1)">
       <use xlink:href="#DejaVuSans-32"/>
       <use x="63.623047" xlink:href="#DejaVuSans-30"/>
      </g>
     </g>
    </g>
    <g id="ytick_3">
     <g id="line2d_23">
      <g>
       <use style="stroke:#000000;stroke-width:0.8;" x="57.6" xlink:href="#m9f33ab28e6" y="224.152615"/>
      </g>
     </g>
     <g id="text_7">
      <!-- 30 -->
      <g transform="translate(37.875 227.951834)scale(0.1 -0.1)">
       <use xlink:href="#DejaVuSans-33"/>
       <use x="63.623047" xlink:href="#DejaVuSans-30"/>
      </g>
     </g>
    </g>
    <g id="ytick_4">
     <g id="line2d_24">
      <g>
       <use style="stroke:#000000;stroke-width:0.8;" x="57.6" xlink:href="#m9f33ab28e6" y="193.137231"/>
      </g>
     </g>
     <g id="text_8">
      <!-- 40 -->
      <g transform="translate(37.875 196.93645)scale(0.1 -0.1)">
       <use xlink:href="#DejaVuSans-34"/>
       <use x="63.623047" xlink:href="#DejaVuSans-30"/>
      </g>
     </g>
    </g>
    <g id="ytick_5">
     <g id="line2d_25">
      <g>
       <use style="stroke:#000000;stroke-width:0.8;" x="57.6" xlink:href="#m9f33ab28e6" y="162.121846"/>
      </g>
     </g>
     <g id="text_9">
      <!-- 50 -->
      <defs>
       <path d="M 10.796875 72.90625 
L 49.515625 72.90625 
L 49.515625 64.59375 
L 19.828125 64.59375 
L 19.828125 46.734375 
Q 21.96875 47.46875 24.109375 47.828125 
Q 26.265625 48.1875 28.421875 48.1875 
Q 40.625 48.1875 47.75 41.5 
Q 54.890625 34.8125 54.890625 23.390625 
Q 54.890625 11.625 47.5625 5.09375 
Q 40.234375 -1.421875 26.90625 -1.421875 
Q 22.3125 -1.421875 17.546875 -0.640625 
Q 12.796875 0.140625 7.71875 1.703125 
L 7.71875 11.625 
Q 12.109375 9.234375 16.796875 8.0625 
Q 21.484375 6.890625 26.703125 6.890625 
Q 35.15625 6.890625 40.078125 11.328125 
Q 45.015625 15.765625 45.015625 23.390625 
Q 45.015625 31 40.078125 35.4375 
Q 35.15625 39.890625 26.703125 39.890625 
Q 22.75 39.890625 18.8125 39.015625 
Q 14.890625 38.140625 10.796875 36.28125 
z
" id="DejaVuSans-35"/>
      </defs>
      <g transform="translate(37.875 165.921065)scale(0.1 -0.1)">
       <use xlink:href="#DejaVuSans-35"/>
       <use x="63.623047" xlink:href="#DejaVuSans-30"/>
      </g>
     </g>
    </g>
    <g id="ytick_6">
     <g id="line2d_26">
      <g>
       <use style="stroke:#000000;stroke-width:0.8;" x="57.6" xlink:href="#m9f33ab28e6" y="131.106462"/>
      </g>
     </g>
     <g id="text_10">
      <!-- 60 -->
      <defs>
       <path d="M 33.015625 40.375 
Q 26.375 40.375 22.484375 35.828125 
Q 18.609375 31.296875 18.609375 23.390625 
Q 18.609375 15.53125 22.484375 10.953125 
Q 26.375 6.390625 33.015625 6.390625 
Q 39.65625 6.390625 43.53125 10.953125 
Q 47.40625 15.53125 47.40625 23.390625 
Q 47.40625 31.296875 43.53125 35.828125 
Q 39.65625 40.375 33.015625 40.375 
z
M 52.59375 71.296875 
L 52.59375 62.3125 
Q 48.875 64.0625 45.09375 64.984375 
Q 41.3125 65.921875 37.59375 65.921875 
Q 27.828125 65.921875 22.671875 59.328125 
Q 17.53125 52.734375 16.796875 39.40625 
Q 19.671875 43.65625 24.015625 45.921875 
Q 28.375 48.1875 33.59375 48.1875 
Q 44.578125 48.1875 50.953125 41.515625 
Q 57.328125 34.859375 57.328125 23.390625 
Q 57.328125 12.15625 50.6875 5.359375 
Q 44.046875 -1.421875 33.015625 -1.421875 
Q 20.359375 -1.421875 13.671875 8.265625 
Q 6.984375 17.96875 6.984375 36.375 
Q 6.984375 53.65625 15.1875 63.9375 
Q 23.390625 74.21875 37.203125 74.21875 
Q 40.921875 74.21875 44.703125 73.484375 
Q 48.484375 72.75 52.59375 71.296875 
z
" id="DejaVuSans-36"/>
      </defs>
      <g transform="translate(37.875 134.90568)scale(0.1 -0.1)">
       <use xlink:href="#DejaVuSans-36"/>
       <use x="63.623047" xlink:href="#DejaVuSans-30"/>
      </g>
     </g>
    </g>
    <g id="ytick_7">
     <g id="line2d_27">
      <g>
       <use style="stroke:#000000;stroke-width:0.8;" x="57.6" xlink:href="#m9f33ab28e6" y="100.091077"/>
      </g>
     </g>
     <g id="text_11">
      <!-- 70 -->
      <defs>
       <path d="M 8.203125 72.90625 
L 55.078125 72.90625 
L 55.078125 68.703125 
L 28.609375 0 
L 18.3125 0 
L 43.21875 64.59375 
L 8.203125 64.59375 
z
" id="DejaVuSans-37"/>
      </defs>
      <g transform="translate(37.875 103.890296)scale(0.1 -0.1)">
       <use xlink:href="#DejaVuSans-37"/>
       <use x="63.623047" xlink:href="#DejaVuSans-30"/>
      </g>
     </g>
    </g>
    <g id="ytick_8">
     <g id="line2d_28">
      <g>
       <use style="stroke:#000000;stroke-width:0.8;" x="57.6" xlink:href="#m9f33ab28e6" y="69.075692"/>
      </g>
     </g>
     <g id="text_12">
      <!-- 80 -->
      <defs>
       <path d="M 31.78125 34.625 
Q 24.75 34.625 20.71875 30.859375 
Q 16.703125 27.09375 16.703125 20.515625 
Q 16.703125 13.921875 20.71875 10.15625 
Q 24.75 6.390625 31.78125 6.390625 
Q 38.8125 6.390625 42.859375 10.171875 
Q 46.921875 13.96875 46.921875 20.515625 
Q 46.921875 27.09375 42.890625 30.859375 
Q 38.875 34.625 31.78125 34.625 
z
M 21.921875 38.8125 
Q 15.578125 40.375 12.03125 44.71875 
Q 8.5 49.078125 8.5 55.328125 
Q 8.5 64.0625 14.71875 69.140625 
Q 20.953125 74.21875 31.78125 74.21875 
Q 42.671875 74.21875 48.875 69.140625 
Q 55.078125 64.0625 55.078125 55.328125 
Q 55.078125 49.078125 51.53125 44.71875 
Q 48 40.375 41.703125 38.8125 
Q 48.828125 37.15625 52.796875 32.3125 
Q 56.78125 27.484375 56.78125 20.515625 
Q 56.78125 9.90625 50.3125 4.234375 
Q 43.84375 -1.421875 31.78125 -1.421875 
Q 19.734375 -1.421875 13.25 4.234375 
Q 6.78125 9.90625 6.78125 20.515625 
Q 6.78125 27.484375 10.78125 32.3125 
Q 14.796875 37.15625 21.921875 38.8125 
z
M 18.3125 54.390625 
Q 18.3125 48.734375 21.84375 45.5625 
Q 25.390625 42.390625 31.78125 42.390625 
Q 38.140625 42.390625 41.71875 45.5625 
Q 45.3125 48.734375 45.3125 54.390625 
Q 45.3125 60.0625 41.71875 63.234375 
Q 38.140625 66.40625 31.78125 66.40625 
Q 25.390625 66.40625 21.84375 63.234375 
Q 18.3125 60.0625 18.3125 54.390625 
z
" id="DejaVuSans-38"/>
      </defs>
      <g transform="translate(37.875 72.874911)scale(0.1 -0.1)">
       <use xlink:href="#DejaVuSans-38"/>
       <use x="63.623047" xlink:href="#DejaVuSans-30"/>
      </g>
     </g>
    </g>
    <g id="text_13">
     <!-- Number of core species -->
     <defs>
      <path d="M 9.8125 72.90625 
L 23.09375 72.90625 
L 55.421875 11.921875 
L 55.421875 72.90625 
L 64.984375 72.90625 
L 64.984375 0 
L 51.703125 0 
L 19.390625 60.984375 
L 19.390625 0 
L 9.8125 0 
z
" id="DejaVuSans-4e"/>
      <path d="M 48.6875 27.296875 
Q 48.6875 37.203125 44.609375 42.84375 
Q 40.53125 48.484375 33.40625 48.484375 
Q 26.265625 48.484375 22.1875 42.84375 
Q 18.109375 37.203125 18.109375 27.296875 
Q 18.109375 17.390625 22.1875 11.75 
Q 26.265625 6.109375 33.40625 6.109375 
Q 40.53125 6.109375 44.609375 11.75 
Q 48.6875 17.390625 48.6875 27.296875 
z
M 18.109375 46.390625 
Q 20.953125 51.265625 25.265625 53.625 
Q 29.59375 56 35.59375 56 
Q 45.5625 56 51.78125 48.09375 
Q 58.015625 40.1875 58.015625 27.296875 
Q 58.015625 14.40625 51.78125 6.484375 
Q 45.5625 -1.421875 35.59375 -1.421875 
Q 29.59375 -1.421875 25.265625 0.953125 
Q 20.953125 3.328125 18.109375 8.203125 
L 18.109375 0 
L 9.078125 0 
L 9.078125 75.984375 
L 18.109375 75.984375 
z
" id="DejaVuSans-62"/>
      <path d="M 41.109375 46.296875 
Q 39.59375 47.171875 37.8125 47.578125 
Q 36.03125 48 33.890625 48 
Q 26.265625 48 22.1875 43.046875 
Q 18.109375 38.09375 18.109375 28.8125 
L 18.109375 0 
L 9.078125 0 
L 9.078125 54.6875 
L 18.109375 54.6875 
L 18.109375 46.1875 
Q 20.953125 51.171875 25.484375 53.578125 
Q 30.03125 56 36.53125 56 
Q 37.453125 56 38.578125 55.875 
Q 39.703125 55.765625 41.0625 55.515625 
z
" id="DejaVuSans-72"/>
      <path d="M 37.109375 75.984375 
L 37.109375 68.5 
L 28.515625 68.5 
Q 23.6875 68.5 21.796875 66.546875 
Q 19.921875 64.59375 19.921875 59.515625 
L 19.921875 54.6875 
L 34.71875 54.6875 
L 34.71875 47.703125 
L 19.921875 47.703125 
L 19.921875 0 
L 10.890625 0 
L 10.890625 47.703125 
L 2.296875 47.703125 
L 2.296875 54.6875 
L 10.890625 54.6875 
L 10.890625 58.5 
Q 10.890625 67.625 15.140625 71.796875 
Q 19.390625 75.984375 28.609375 75.984375 
z
" id="DejaVuSans-66"/>
      <path d="M 18.109375 8.203125 
L 18.109375 -20.796875 
L 9.078125 -20.796875 
L 9.078125 54.6875 
L 18.109375 54.6875 
L 18.109375 46.390625 
Q 20.953125 51.265625 25.265625 53.625 
Q 29.59375 56 35.59375 56 
Q 45.5625 56 51.78125 48.09375 
Q 58.015625 40.1875 58.015625 27.296875 
Q 58.015625 14.40625 51.78125 6.484375 
Q 45.5625 -1.421875 35.59375 -1.421875 
Q 29.59375 -1.421875 25.265625 0.953125 
Q 20.953125 3.328125 18.109375 8.203125 
z
M 48.6875 27.296875 
Q 48.6875 37.203125 44.609375 42.84375 
Q 40.53125 48.484375 33.40625 48.484375 
Q 26.265625 48.484375 22.1875 42.84375 
Q 18.109375 37.203125 18.109375 27.296875 
Q 18.109375 17.390625 22.1875 11.75 
Q 26.265625 6.109375 33.40625 6.109375 
Q 40.53125 6.109375 44.609375 11.75 
Q 48.6875 17.390625 48.6875 27.296875 
z
" id="DejaVuSans-70"/>
     </defs>
     <g transform="translate(31.795312 233.814719)rotate(-90)scale(0.1 -0.1)">
      <use xlink:href="#DejaVuSans-4e"/>
      <use x="74.804688" xlink:href="#DejaVuSans-75"/>
      <use x="138.183594" xlink:href="#DejaVuSans-6d"/>
      <use x="235.595703" xlink:href="#DejaVuSans-62"/>
      <use x="299.072266" xlink:href="#DejaVuSans-65"/>
      <use x="360.595703" xlink:href="#DejaVuSans-72"/>
      <use x="401.708984" xlink:href="#DejaVuSans-20"/>
      <use x="433.496094" xlink:href="#DejaVuSans-6f"/>
      <use x="494.677734" xlink:href="#DejaVuSans-66"/>
      <use x="529.882812" xlink:href="#DejaVuSans-20"/>
      <use x="561.669922" xlink:href="#DejaVuSans-63"/>
      <use x="616.650391" xlink:href="#DejaVuSans-6f"/>
      <use x="677.832031" xlink:href="#DejaVuSans-72"/>
      <use x="718.914062" xlink:href="#DejaVuSans-65"/>
      <use x="780.4375" xlink:href="#DejaVuSans-20"/>
      <use x="812.224609" xlink:href="#DejaVuSans-73"/>
      <use x="864.324219" xlink:href="#DejaVuSans-70"/>
      <use x="927.800781" xlink:href="#DejaVuSans-65"/>
      <use x="989.324219" xlink:href="#DejaVuSans-63"/>
      <use x="1044.304688" xlink:href="#DejaVuSans-69"/>
      <use x="1072.087891" xlink:href="#DejaVuSans-65"/>
      <use x="1133.611328" xlink:href="#DejaVuSans-73"/>
     </g>
    </g>
   </g>
   <g id="line2d_29">
    <path clip-path="url(#p75519fd440)" d="M 73.832727 295.488 
L 78.627301 292.386462 
L 99.840731 286.183385 
L 112.115486 279.980308 
L 116.687718 276.878769 
L 120.200756 273.777231 
L 126.646678 270.675692 
L 135.680653 267.574154 
L 143.289761 264.472615 
L 145.929345 261.371077 
L 153.093181 258.269538 
L 155.048306 255.168 
L 163.486646 252.066462 
L 173.569197 245.863385 
L 181.199487 242.761846 
L 184.337273 239.660308 
L 189.709411 236.558769 
L 191.608304 233.457231 
L 194.781763 233.457231 
L 197.057534 227.254154 
L 207.586918 227.254154 
L 214.082078 224.152615 
L 217.586403 221.051077 
L 220.610137 217.949538 
L 222.66264 214.848 
L 224.507441 211.746462 
L 226.637939 211.746462 
L 228.427295 208.644923 
L 241.219178 208.644923 
L 244.506568 205.543385 
L 246.515722 202.441846 
L 251.262206 202.441846 
L 252.754561 199.340308 
L 256.357605 199.340308 
L 257.704745 193.137231 
L 259.330171 190.035692 
L 260.602514 190.035692 
L 266.255639 186.934154 
L 267.77112 183.832615 
L 273.787193 183.832615 
L 277.826679 180.731077 
L 279.305986 177.629538 
L 285.989243 177.629538 
L 290.831432 174.528 
L 292.124007 171.426462 
L 298.337227 171.426462 
L 301.821033 162.121846 
L 311.145797 162.121846 
L 312.378026 159.020308 
L 315.524858 159.020308 
L 316.562699 155.918769 
L 320.401124 155.918769 
L 321.482908 152.817231 
L 323.697106 152.817231 
L 324.725099 149.715692 
L 325.76746 149.715692 
L 326.703802 146.614154 
L 332.690968 146.614154 
L 333.642339 143.512615 
L 334.592024 143.512615 
L 336.475943 140.411077 
L 338.318927 134.208 
L 340.606753 134.208 
L 341.414378 131.106462 
L 343.94728 131.106462 
L 344.7618 128.004923 
L 345.640946 128.004923 
L 346.499072 124.903385 
L 353.708915 124.903385 
L 354.524166 121.801846 
L 356.196883 121.801846 
L 356.952146 118.700308 
L 357.759675 118.700308 
L 358.526241 115.598769 
L 363.114998 115.598769 
L 364.815726 109.395692 
L 365.734357 106.294154 
L 366.451859 103.192615 
L 367.304938 103.192615 
L 369.108929 100.091077 
L 369.808671 96.989538 
L 371.44599 96.989538 
L 372.14318 93.888 
L 373.853903 93.888 
L 374.876342 90.786462 
L 375.519796 87.684923 
L 376.897492 87.684923 
L 377.580614 84.583385 
L 382.000697 84.583385 
L 382.643281 81.481846 
L 383.316502 81.481846 
L 384.394851 75.278769 
L 385.820664 72.177231 
L 387.164079 65.974154 
L 389.136774 65.974154 
L 389.770384 62.872615 
L 392.928704 62.872615 
L 393.567774 59.771077 
L 395.969111 59.771077 
L 396.578999 56.669538 
L 397.240935 56.669538 
L 397.841987 53.568 
L 398.487273 53.568 
L 398.487273 53.568 
" style="fill:none;stroke:#0000ff;stroke-linecap:square;stroke-width:1.5;"/>
    <defs>
     <path d="M 0 3 
C 0.795609 3 1.55874 2.683901 2.12132 2.12132 
C 2.683901 1.55874 3 0.795609 3 0 
C 3 -0.795609 2.683901 -1.55874 2.12132 -2.12132 
C 1.55874 -2.683901 0.795609 -3 0 -3 
C -0.795609 -3 -1.55874 -2.683901 -2.12132 -2.12132 
C -2.683901 -1.55874 -3 -0.795609 -3 0 
C -3 0.795609 -2.683901 1.55874 -2.12132 2.12132 
C -1.55874 2.683901 -0.795609 3 0 3 
z
" id="m0d90af7482" style="stroke:#0000ff;"/>
    </defs>
    <g clip-path="url(#p75519fd440)">
     <use style="fill:#0000ff;stroke:#0000ff;" x="73.832727" xlink:href="#m0d90af7482" y="295.488"/>
     <use style="fill:#0000ff;stroke:#0000ff;" x="78.627301" xlink:href="#m0d90af7482" y="292.386462"/>
     <use style="fill:#0000ff;stroke:#0000ff;" x="99.840731" xlink:href="#m0d90af7482" y="286.183385"/>
     <use style="fill:#0000ff;stroke:#0000ff;" x="112.115486" xlink:href="#m0d90af7482" y="279.980308"/>
     <use style="fill:#0000ff;stroke:#0000ff;" x="116.687718" xlink:href="#m0d90af7482" y="276.878769"/>
     <use style="fill:#0000ff;stroke:#0000ff;" x="120.200756" xlink:href="#m0d90af7482" y="273.777231"/>
     <use style="fill:#0000ff;stroke:#0000ff;" x="126.646678" xlink:href="#m0d90af7482" y="270.675692"/>
     <use style="fill:#0000ff;stroke:#0000ff;" x="135.680653" xlink:href="#m0d90af7482" y="267.574154"/>
     <use style="fill:#0000ff;stroke:#0000ff;" x="143.289761" xlink:href="#m0d90af7482" y="264.472615"/>
     <use style="fill:#0000ff;stroke:#0000ff;" x="145.929345" xlink:href="#m0d90af7482" y="261.371077"/>
     <use style="fill:#0000ff;stroke:#0000ff;" x="153.093181" xlink:href="#m0d90af7482" y="258.269538"/>
     <use style="fill:#0000ff;stroke:#0000ff;" x="155.048306" xlink:href="#m0d90af7482" y="255.168"/>
     <use style="fill:#0000ff;stroke:#0000ff;" x="163.486646" xlink:href="#m0d90af7482" y="252.066462"/>
     <use style="fill:#0000ff;stroke:#0000ff;" x="173.569197" xlink:href="#m0d90af7482" y="245.863385"/>
     <use style="fill:#0000ff;stroke:#0000ff;" x="181.199487" xlink:href="#m0d90af7482" y="242.761846"/>
     <use style="fill:#0000ff;stroke:#0000ff;" x="184.337273" xlink:href="#m0d90af7482" y="239.660308"/>
     <use style="fill:#0000ff;stroke:#0000ff;" x="189.709411" xlink:href="#m0d90af7482" y="236.558769"/>
     <use style="fill:#0000ff;stroke:#0000ff;" x="191.608304" xlink:href="#m0d90af7482" y="233.457231"/>
     <use style="fill:#0000ff;stroke:#0000ff;" x="194.781763" xlink:href="#m0d90af7482" y="233.457231"/>
     <use style="fill:#0000ff;stroke:#0000ff;" x="197.057534" xlink:href="#m0d90af7482" y="227.254154"/>
     <use style="fill:#0000ff;stroke:#0000ff;" x="207.586918" xlink:href="#m0d90af7482" y="227.254154"/>
     <use style="fill:#0000ff;stroke:#0000ff;" x="214.082078" xlink:href="#m0d90af7482" y="224.152615"/>
     <use style="fill:#0000ff;stroke:#0000ff;" x="217.586403" xlink:href="#m0d90af7482" y="221.051077"/>
     <use style="fill:#0000ff;stroke:#0000ff;" x="220.610137" xlink:href="#m0d90af7482" y="217.949538"/>
     <use style="fill:#0000ff;stroke:#0000ff;" x="222.66264" xlink:href="#m0d90af7482" y="214.848"/>
     <use style="fill:#0000ff;stroke:#0000ff;" x="224.507441" xlink:href="#m0d90af7482" y="211.746462"/>
     <use style="fill:#0000ff;stroke:#0000ff;" x="226.637939" xlink:href="#m0d90af7482" y="211.746462"/>
     <use style="fill:#0000ff;stroke:#0000ff;" x="228.427295" xlink:href="#m0d90af7482" y="208.644923"/>
     <use style="fill:#0000ff;stroke:#0000ff;" x="230.441995" xlink:href="#m0d90af7482" y="208.644923"/>
     <use style="fill:#0000ff;stroke:#0000ff;" x="232.21907" xlink:href="#m0d90af7482" y="208.644923"/>
     <use style="fill:#0000ff;stroke:#0000ff;" x="233.863982" xlink:href="#m0d90af7482" y="208.644923"/>
     <use style="fill:#0000ff;stroke:#0000ff;" x="235.412585" xlink:href="#m0d90af7482" y="208.644923"/>
     <use style="fill:#0000ff;stroke:#0000ff;" x="237.023362" xlink:href="#m0d90af7482" y="208.644923"/>
     <use style="fill:#0000ff;stroke:#0000ff;" x="238.655121" xlink:href="#m0d90af7482" y="208.644923"/>
     <use style="fill:#0000ff;stroke:#0000ff;" x="241.219178" xlink:href="#m0d90af7482" y="208.644923"/>
     <use style="fill:#0000ff;stroke:#0000ff;" x="244.506568" xlink:href="#m0d90af7482" y="205.543385"/>
     <use style="fill:#0000ff;stroke:#0000ff;" x="246.515722" xlink:href="#m0d90af7482" y="202.441846"/>
     <use style="fill:#0000ff;stroke:#0000ff;" x="248.061989" xlink:href="#m0d90af7482" y="202.441846"/>
     <use style="fill:#0000ff;stroke:#0000ff;" x="249.53289" xlink:href="#m0d90af7482" y="202.441846"/>
     <use style="fill:#0000ff;stroke:#0000ff;" x="251.262206" xlink:href="#m0d90af7482" y="202.441846"/>
     <use style="fill:#0000ff;stroke:#0000ff;" x="252.754561" xlink:href="#m0d90af7482" y="199.340308"/>
     <use style="fill:#0000ff;stroke:#0000ff;" x="254.070648" xlink:href="#m0d90af7482" y="199.340308"/>
     <use style="fill:#0000ff;stroke:#0000ff;" x="256.357605" xlink:href="#m0d90af7482" y="199.340308"/>
     <use style="fill:#0000ff;stroke:#0000ff;" x="257.704745" xlink:href="#m0d90af7482" y="193.137231"/>
     <use style="fill:#0000ff;stroke:#0000ff;" x="259.330171" xlink:href="#m0d90af7482" y="190.035692"/>
     <use style="fill:#0000ff;stroke:#0000ff;" x="260.602514" xlink:href="#m0d90af7482" y="190.035692"/>
     <use style="fill:#0000ff;stroke:#0000ff;" x="266.255639" xlink:href="#m0d90af7482" y="186.934154"/>
     <use style="fill:#0000ff;stroke:#0000ff;" x="267.77112" xlink:href="#m0d90af7482" y="183.832615"/>
     <use style="fill:#0000ff;stroke:#0000ff;" x="269.320534" xlink:href="#m0d90af7482" y="183.832615"/>
     <use style="fill:#0000ff;stroke:#0000ff;" x="270.783484" xlink:href="#m0d90af7482" y="183.832615"/>
     <use style="fill:#0000ff;stroke:#0000ff;" x="272.193804" xlink:href="#m0d90af7482" y="183.832615"/>
     <use style="fill:#0000ff;stroke:#0000ff;" x="273.787193" xlink:href="#m0d90af7482" y="183.832615"/>
     <use style="fill:#0000ff;stroke:#0000ff;" x="277.826679" xlink:href="#m0d90af7482" y="180.731077"/>
     <use style="fill:#0000ff;stroke:#0000ff;" x="279.305986" xlink:href="#m0d90af7482" y="177.629538"/>
     <use style="fill:#0000ff;stroke:#0000ff;" x="280.581074" xlink:href="#m0d90af7482" y="177.629538"/>
     <use style="fill:#0000ff;stroke:#0000ff;" x="281.998028" xlink:href="#m0d90af7482" y="177.629538"/>
     <use style="fill:#0000ff;stroke:#0000ff;" x="283.44406" xlink:href="#m0d90af7482" y="177.629538"/>
     <use style="fill:#0000ff;stroke:#0000ff;" x="284.601402" xlink:href="#m0d90af7482" y="177.629538"/>
     <use style="fill:#0000ff;stroke:#0000ff;" x="285.989243" xlink:href="#m0d90af7482" y="177.629538"/>
     <use style="fill:#0000ff;stroke:#0000ff;" x="290.831432" xlink:href="#m0d90af7482" y="174.528"/>
     <use style="fill:#0000ff;stroke:#0000ff;" x="292.124007" xlink:href="#m0d90af7482" y="171.426462"/>
     <use style="fill:#0000ff;stroke:#0000ff;" x="293.368367" xlink:href="#m0d90af7482" y="171.426462"/>
     <use style="fill:#0000ff;stroke:#0000ff;" x="294.603134" xlink:href="#m0d90af7482" y="171.426462"/>
     <use style="fill:#0000ff;stroke:#0000ff;" x="295.888171" xlink:href="#m0d90af7482" y="171.426462"/>
     <use style="fill:#0000ff;stroke:#0000ff;" x="298.337227" xlink:href="#m0d90af7482" y="171.426462"/>
     <use style="fill:#0000ff;stroke:#0000ff;" x="300.602646" xlink:href="#m0d90af7482" y="165.223385"/>
     <use style="fill:#0000ff;stroke:#0000ff;" x="301.821033" xlink:href="#m0d90af7482" y="162.121846"/>
     <use style="fill:#0000ff;stroke:#0000ff;" x="302.944553" xlink:href="#m0d90af7482" y="162.121846"/>
     <use style="fill:#0000ff;stroke:#0000ff;" x="304.139852" xlink:href="#m0d90af7482" y="162.121846"/>
     <use style="fill:#0000ff;stroke:#0000ff;" x="305.209022" xlink:href="#m0d90af7482" y="162.121846"/>
     <use style="fill:#0000ff;stroke:#0000ff;" x="306.610309" xlink:href="#m0d90af7482" y="162.121846"/>
     <use style="fill:#0000ff;stroke:#0000ff;" x="307.66665" xlink:href="#m0d90af7482" y="162.121846"/>
     <use style="fill:#0000ff;stroke:#0000ff;" x="308.846632" xlink:href="#m0d90af7482" y="162.121846"/>
     <use style="fill:#0000ff;stroke:#0000ff;" x="311.145797" xlink:href="#m0d90af7482" y="162.121846"/>
     <use style="fill:#0000ff;stroke:#0000ff;" x="312.378026" xlink:href="#m0d90af7482" y="159.020308"/>
     <use style="fill:#0000ff;stroke:#0000ff;" x="313.483908" xlink:href="#m0d90af7482" y="159.020308"/>
     <use style="fill:#0000ff;stroke:#0000ff;" x="315.524858" xlink:href="#m0d90af7482" y="159.020308"/>
     <use style="fill:#0000ff;stroke:#0000ff;" x="316.562699" xlink:href="#m0d90af7482" y="155.918769"/>
     <use style="fill:#0000ff;stroke:#0000ff;" x="317.502974" xlink:href="#m0d90af7482" y="155.918769"/>
     <use style="fill:#0000ff;stroke:#0000ff;" x="318.524358" xlink:href="#m0d90af7482" y="155.918769"/>
     <use style="fill:#0000ff;stroke:#0000ff;" x="320.401124" xlink:href="#m0d90af7482" y="155.918769"/>
     <use style="fill:#0000ff;stroke:#0000ff;" x="321.482908" xlink:href="#m0d90af7482" y="152.817231"/>
     <use style="fill:#0000ff;stroke:#0000ff;" x="322.53882" xlink:href="#m0d90af7482" y="152.817231"/>
     <use style="fill:#0000ff;stroke:#0000ff;" x="323.697106" xlink:href="#m0d90af7482" y="152.817231"/>
     <use style="fill:#0000ff;stroke:#0000ff;" x="324.725099" xlink:href="#m0d90af7482" y="149.715692"/>
     <use style="fill:#0000ff;stroke:#0000ff;" x="325.76746" xlink:href="#m0d90af7482" y="149.715692"/>
     <use style="fill:#0000ff;stroke:#0000ff;" x="326.703802" xlink:href="#m0d90af7482" y="146.614154"/>
     <use style="fill:#0000ff;stroke:#0000ff;" x="327.642419" xlink:href="#m0d90af7482" y="146.614154"/>
     <use style="fill:#0000ff;stroke:#0000ff;" x="328.549561" xlink:href="#m0d90af7482" y="146.614154"/>
     <use style="fill:#0000ff;stroke:#0000ff;" x="329.485034" xlink:href="#m0d90af7482" y="146.614154"/>
     <use style="fill:#0000ff;stroke:#0000ff;" x="330.398632" xlink:href="#m0d90af7482" y="146.614154"/>
     <use style="fill:#0000ff;stroke:#0000ff;" x="331.273159" xlink:href="#m0d90af7482" y="146.614154"/>
     <use style="fill:#0000ff;stroke:#0000ff;" x="332.690968" xlink:href="#m0d90af7482" y="146.614154"/>
     <use style="fill:#0000ff;stroke:#0000ff;" x="333.642339" xlink:href="#m0d90af7482" y="143.512615"/>
     <use style="fill:#0000ff;stroke:#0000ff;" x="334.592024" xlink:href="#m0d90af7482" y="143.512615"/>
     <use style="fill:#0000ff;stroke:#0000ff;" x="336.475943" xlink:href="#m0d90af7482" y="140.411077"/>
     <use style="fill:#0000ff;stroke:#0000ff;" x="337.388476" xlink:href="#m0d90af7482" y="137.309538"/>
     <use style="fill:#0000ff;stroke:#0000ff;" x="338.318927" xlink:href="#m0d90af7482" y="134.208"/>
     <use style="fill:#0000ff;stroke:#0000ff;" x="339.221906" xlink:href="#m0d90af7482" y="134.208"/>
     <use style="fill:#0000ff;stroke:#0000ff;" x="340.606753" xlink:href="#m0d90af7482" y="134.208"/>
     <use style="fill:#0000ff;stroke:#0000ff;" x="341.414378" xlink:href="#m0d90af7482" y="131.106462"/>
     <use style="fill:#0000ff;stroke:#0000ff;" x="342.299916" xlink:href="#m0d90af7482" y="131.106462"/>
     <use style="fill:#0000ff;stroke:#0000ff;" x="343.133535" xlink:href="#m0d90af7482" y="131.106462"/>
     <use style="fill:#0000ff;stroke:#0000ff;" x="343.94728" xlink:href="#m0d90af7482" y="131.106462"/>
     <use style="fill:#0000ff;stroke:#0000ff;" x="344.7618" xlink:href="#m0d90af7482" y="128.004923"/>
     <use style="fill:#0000ff;stroke:#0000ff;" x="345.640946" xlink:href="#m0d90af7482" y="128.004923"/>
     <use style="fill:#0000ff;stroke:#0000ff;" x="346.499072" xlink:href="#m0d90af7482" y="124.903385"/>
     <use style="fill:#0000ff;stroke:#0000ff;" x="347.348502" xlink:href="#m0d90af7482" y="124.903385"/>
     <use style="fill:#0000ff;stroke:#0000ff;" x="348.163251" xlink:href="#m0d90af7482" y="124.903385"/>
     <use style="fill:#0000ff;stroke:#0000ff;" x="348.942659" xlink:href="#m0d90af7482" y="124.903385"/>
     <use style="fill:#0000ff;stroke:#0000ff;" x="353.708915" xlink:href="#m0d90af7482" y="124.903385"/>
     <use style="fill:#0000ff;stroke:#0000ff;" x="354.524166" xlink:href="#m0d90af7482" y="121.801846"/>
     <use style="fill:#0000ff;stroke:#0000ff;" x="355.405021" xlink:href="#m0d90af7482" y="121.801846"/>
     <use style="fill:#0000ff;stroke:#0000ff;" x="356.196883" xlink:href="#m0d90af7482" y="121.801846"/>
     <use style="fill:#0000ff;stroke:#0000ff;" x="356.952146" xlink:href="#m0d90af7482" y="118.700308"/>
     <use style="fill:#0000ff;stroke:#0000ff;" x="357.759675" xlink:href="#m0d90af7482" y="118.700308"/>
     <use style="fill:#0000ff;stroke:#0000ff;" x="358.526241" xlink:href="#m0d90af7482" y="115.598769"/>
     <use style="fill:#0000ff;stroke:#0000ff;" x="359.312125" xlink:href="#m0d90af7482" y="115.598769"/>
     <use style="fill:#0000ff;stroke:#0000ff;" x="360.061897" xlink:href="#m0d90af7482" y="115.598769"/>
     <use style="fill:#0000ff;stroke:#0000ff;" x="360.839569" xlink:href="#m0d90af7482" y="115.598769"/>
     <use style="fill:#0000ff;stroke:#0000ff;" x="361.56733" xlink:href="#m0d90af7482" y="115.598769"/>
     <use style="fill:#0000ff;stroke:#0000ff;" x="362.335487" xlink:href="#m0d90af7482" y="115.598769"/>
     <use style="fill:#0000ff;stroke:#0000ff;" x="363.114998" xlink:href="#m0d90af7482" y="115.598769"/>
     <use style="fill:#0000ff;stroke:#0000ff;" x="363.914688" xlink:href="#m0d90af7482" y="112.497231"/>
     <use style="fill:#0000ff;stroke:#0000ff;" x="364.815726" xlink:href="#m0d90af7482" y="109.395692"/>
     <use style="fill:#0000ff;stroke:#0000ff;" x="365.734357" xlink:href="#m0d90af7482" y="106.294154"/>
     <use style="fill:#0000ff;stroke:#0000ff;" x="366.451859" xlink:href="#m0d90af7482" y="103.192615"/>
     <use style="fill:#0000ff;stroke:#0000ff;" x="367.304938" xlink:href="#m0d90af7482" y="103.192615"/>
     <use style="fill:#0000ff;stroke:#0000ff;" x="369.108929" xlink:href="#m0d90af7482" y="100.091077"/>
     <use style="fill:#0000ff;stroke:#0000ff;" x="369.808671" xlink:href="#m0d90af7482" y="96.989538"/>
     <use style="fill:#0000ff;stroke:#0000ff;" x="370.555132" xlink:href="#m0d90af7482" y="96.989538"/>
     <use style="fill:#0000ff;stroke:#0000ff;" x="371.44599" xlink:href="#m0d90af7482" y="96.989538"/>
     <use style="fill:#0000ff;stroke:#0000ff;" x="372.14318" xlink:href="#m0d90af7482" y="93.888"/>
     <use style="fill:#0000ff;stroke:#0000ff;" x="372.798247" xlink:href="#m0d90af7482" y="93.888"/>
     <use style="fill:#0000ff;stroke:#0000ff;" x="373.853903" xlink:href="#m0d90af7482" y="93.888"/>
     <use style="fill:#0000ff;stroke:#0000ff;" x="374.876342" xlink:href="#m0d90af7482" y="90.786462"/>
     <use style="fill:#0000ff;stroke:#0000ff;" x="375.519796" xlink:href="#m0d90af7482" y="87.684923"/>
     <use style="fill:#0000ff;stroke:#0000ff;" x="376.897492" xlink:href="#m0d90af7482" y="87.684923"/>
     <use style="fill:#0000ff;stroke:#0000ff;" x="377.580614" xlink:href="#m0d90af7482" y="84.583385"/>
     <use style="fill:#0000ff;stroke:#0000ff;" x="378.229849" xlink:href="#m0d90af7482" y="84.583385"/>
     <use style="fill:#0000ff;stroke:#0000ff;" x="378.867726" xlink:href="#m0d90af7482" y="84.583385"/>
     <use style="fill:#0000ff;stroke:#0000ff;" x="379.497381" xlink:href="#m0d90af7482" y="84.583385"/>
     <use style="fill:#0000ff;stroke:#0000ff;" x="380.118618" xlink:href="#m0d90af7482" y="84.583385"/>
     <use style="fill:#0000ff;stroke:#0000ff;" x="380.73736" xlink:href="#m0d90af7482" y="84.583385"/>
     <use style="fill:#0000ff;stroke:#0000ff;" x="382.000697" xlink:href="#m0d90af7482" y="84.583385"/>
     <use style="fill:#0000ff;stroke:#0000ff;" x="382.643281" xlink:href="#m0d90af7482" y="81.481846"/>
     <use style="fill:#0000ff;stroke:#0000ff;" x="383.316502" xlink:href="#m0d90af7482" y="81.481846"/>
     <use style="fill:#0000ff;stroke:#0000ff;" x="384.394851" xlink:href="#m0d90af7482" y="75.278769"/>
     <use style="fill:#0000ff;stroke:#0000ff;" x="385.820664" xlink:href="#m0d90af7482" y="72.177231"/>
     <use style="fill:#0000ff;stroke:#0000ff;" x="386.509402" xlink:href="#m0d90af7482" y="69.075692"/>
     <use style="fill:#0000ff;stroke:#0000ff;" x="387.164079" xlink:href="#m0d90af7482" y="65.974154"/>
     <use style="fill:#0000ff;stroke:#0000ff;" x="387.84356" xlink:href="#m0d90af7482" y="65.974154"/>
     <use style="fill:#0000ff;stroke:#0000ff;" x="388.491565" xlink:href="#m0d90af7482" y="65.974154"/>
     <use style="fill:#0000ff;stroke:#0000ff;" x="389.136774" xlink:href="#m0d90af7482" y="65.974154"/>
     <use style="fill:#0000ff;stroke:#0000ff;" x="389.770384" xlink:href="#m0d90af7482" y="62.872615"/>
     <use style="fill:#0000ff;stroke:#0000ff;" x="390.411597" xlink:href="#m0d90af7482" y="62.872615"/>
     <use style="fill:#0000ff;stroke:#0000ff;" x="391.040297" xlink:href="#m0d90af7482" y="62.872615"/>
     <use style="fill:#0000ff;stroke:#0000ff;" x="391.670952" xlink:href="#m0d90af7482" y="62.872615"/>
     <use style="fill:#0000ff;stroke:#0000ff;" x="392.28661" xlink:href="#m0d90af7482" y="62.872615"/>
     <use style="fill:#0000ff;stroke:#0000ff;" x="392.928704" xlink:href="#m0d90af7482" y="62.872615"/>
     <use style="fill:#0000ff;stroke:#0000ff;" x="393.567774" xlink:href="#m0d90af7482" y="59.771077"/>
     <use style="fill:#0000ff;stroke:#0000ff;" x="394.172923" xlink:href="#m0d90af7482" y="59.771077"/>
     <use style="fill:#0000ff;stroke:#0000ff;" x="394.76452" xlink:href="#m0d90af7482" y="59.771077"/>
     <use style="fill:#0000ff;stroke:#0000ff;" x="395.969111" xlink:href="#m0d90af7482" y="59.771077"/>
     <use style="fill:#0000ff;stroke:#0000ff;" x="396.578999" xlink:href="#m0d90af7482" y="56.669538"/>
     <use style="fill:#0000ff;stroke:#0000ff;" x="397.240935" xlink:href="#m0d90af7482" y="56.669538"/>
     <use style="fill:#0000ff;stroke:#0000ff;" x="397.841987" xlink:href="#m0d90af7482" y="53.568"/>
     <use style="fill:#0000ff;stroke:#0000ff;" x="398.487273" xlink:href="#m0d90af7482" y="53.568"/>
    </g>
   </g>
   <g id="patch_3">
    <path d="M 57.6 307.584 
L 57.6 41.472 
" style="fill:none;stroke:#000000;stroke-linecap:square;stroke-linejoin:miter;stroke-width:0.8;"/>
   </g>
   <g id="patch_4">
    <path d="M 414.72 307.584 
L 414.72 41.472 
" style="fill:none;stroke:#000000;stroke-linecap:square;stroke-linejoin:miter;stroke-width:0.8;"/>
   </g>
   <g id="patch_5">
    <path d="M 57.6 307.584 
L 414.72 307.584 
" style="fill:none;stroke:#000000;stroke-linecap:square;stroke-linejoin:miter;stroke-width:0.8;"/>
   </g>
   <g id="patch_6">
    <path d="M 57.6 41.472 
L 414.72 41.472 
" style="fill:none;stroke:#000000;stroke-linecap:square;stroke-linejoin:miter;stroke-width:0.8;"/>
   </g>
  </g>
  <g id="axes_2">
   <g id="matplotlib.axis_3">
    <g id="ytick_9">
     <g id="line2d_30">
      <defs>
       <path d="M 0 0 
L 3.5 0 
" id="mc9b5748128" style="stroke:#000000;stroke-width:0.8;"/>
      </defs>
      <g>
       <use style="stroke:#000000;stroke-width:0.8;" x="414.72" xlink:href="#mc9b5748128" y="295.488"/>
      </g>
     </g>
     <g id="text_14">
      <!-- 0 -->
      <g transform="translate(421.72 299.287219)scale(0.1 -0.1)">
       <use xlink:href="#DejaVuSans-30"/>
      </g>
     </g>
    </g>
    <g id="ytick_10">
     <g id="line2d_31">
      <g>
       <use style="stroke:#000000;stroke-width:0.8;" x="414.72" xlink:href="#mc9b5748128" y="255.958588"/>
      </g>
     </g>
     <g id="text_15">
      <!-- 50 -->
      <g transform="translate(421.72 259.757807)scale(0.1 -0.1)">
       <use xlink:href="#DejaVuSans-35"/>
       <use x="63.623047" xlink:href="#DejaVuSans-30"/>
      </g>
     </g>
    </g>
    <g id="ytick_11">
     <g id="line2d_32">
      <g>
       <use style="stroke:#000000;stroke-width:0.8;" x="414.72" xlink:href="#mc9b5748128" y="216.429176"/>
      </g>
     </g>
     <g id="text_16">
      <!-- 100 -->
      <g transform="translate(421.72 220.228395)scale(0.1 -0.1)">
       <use xlink:href="#DejaVuSans-31"/>
       <use x="63.623047" xlink:href="#DejaVuSans-30"/>
       <use x="127.246094" xlink:href="#DejaVuSans-30"/>
      </g>
     </g>
    </g>
    <g id="ytick_12">
     <g id="line2d_33">
      <g>
       <use style="stroke:#000000;stroke-width:0.8;" x="414.72" xlink:href="#mc9b5748128" y="176.899765"/>
      </g>
     </g>
     <g id="text_17">
      <!-- 150 -->
      <g transform="translate(421.72 180.698983)scale(0.1 -0.1)">
       <use xlink:href="#DejaVuSans-31"/>
       <use x="63.623047" xlink:href="#DejaVuSans-35"/>
       <use x="127.246094" xlink:href="#DejaVuSans-30"/>
      </g>
     </g>
    </g>
    <g id="ytick_13">
     <g id="line2d_34">
      <g>
       <use style="stroke:#000000;stroke-width:0.8;" x="414.72" xlink:href="#mc9b5748128" y="137.370353"/>
      </g>
     </g>
     <g id="text_18">
      <!-- 200 -->
      <g transform="translate(421.72 141.169572)scale(0.1 -0.1)">
       <use xlink:href="#DejaVuSans-32"/>
       <use x="63.623047" xlink:href="#DejaVuSans-30"/>
       <use x="127.246094" xlink:href="#DejaVuSans-30"/>
      </g>
     </g>
    </g>
    <g id="ytick_14">
     <g id="line2d_35">
      <g>
       <use style="stroke:#000000;stroke-width:0.8;" x="414.72" xlink:href="#mc9b5748128" y="97.840941"/>
      </g>
     </g>
     <g id="text_19">
      <!-- 250 -->
      <g transform="translate(421.72 101.64016)scale(0.1 -0.1)">
       <use xlink:href="#DejaVuSans-32"/>
       <use x="63.623047" xlink:href="#DejaVuSans-35"/>
       <use x="127.246094" xlink:href="#DejaVuSans-30"/>
      </g>
     </g>
    </g>
    <g id="ytick_15">
     <g id="line2d_36">
      <g>
       <use style="stroke:#000000;stroke-width:0.8;" x="414.72" xlink:href="#mc9b5748128" y="58.311529"/>
      </g>
     </g>
     <g id="text_20">
      <!-- 300 -->
      <g transform="translate(421.72 62.110748)scale(0.1 -0.1)">
       <use xlink:href="#DejaVuSans-33"/>
       <use x="63.623047" xlink:href="#DejaVuSans-30"/>
       <use x="127.246094" xlink:href="#DejaVuSans-30"/>
      </g>
     </g>
    </g>
    <g id="text_21">
     <!-- Number of core reactions -->
     <defs>
      <path d="M 34.28125 27.484375 
Q 23.390625 27.484375 19.1875 25 
Q 14.984375 22.515625 14.984375 16.5 
Q 14.984375 11.71875 18.140625 8.90625 
Q 21.296875 6.109375 26.703125 6.109375 
Q 34.1875 6.109375 38.703125 11.40625 
Q 43.21875 16.703125 43.21875 25.484375 
L 43.21875 27.484375 
z
M 52.203125 31.203125 
L 52.203125 0 
L 43.21875 0 
L 43.21875 8.296875 
Q 40.140625 3.328125 35.546875 0.953125 
Q 30.953125 -1.421875 24.3125 -1.421875 
Q 15.921875 -1.421875 10.953125 3.296875 
Q 6 8.015625 6 15.921875 
Q 6 25.140625 12.171875 29.828125 
Q 18.359375 34.515625 30.609375 34.515625 
L 43.21875 34.515625 
L 43.21875 35.40625 
Q 43.21875 41.609375 39.140625 45 
Q 35.0625 48.390625 27.6875 48.390625 
Q 23 48.390625 18.546875 47.265625 
Q 14.109375 46.140625 10.015625 43.890625 
L 10.015625 52.203125 
Q 14.9375 54.109375 19.578125 55.046875 
Q 24.21875 56 28.609375 56 
Q 40.484375 56 46.34375 49.84375 
Q 52.203125 43.703125 52.203125 31.203125 
z
" id="DejaVuSans-61"/>
     </defs>
     <g transform="translate(452.405937 238.2655)rotate(-90)scale(0.1 -0.1)">
      <use xlink:href="#DejaVuSans-4e"/>
      <use x="74.804688" xlink:href="#DejaVuSans-75"/>
      <use x="138.183594" xlink:href="#DejaVuSans-6d"/>
      <use x="235.595703" xlink:href="#DejaVuSans-62"/>
      <use x="299.072266" xlink:href="#DejaVuSans-65"/>
      <use x="360.595703" xlink:href="#DejaVuSans-72"/>
      <use x="401.708984" xlink:href="#DejaVuSans-20"/>
      <use x="433.496094" xlink:href="#DejaVuSans-6f"/>
      <use x="494.677734" xlink:href="#DejaVuSans-66"/>
      <use x="529.882812" xlink:href="#DejaVuSans-20"/>
      <use x="561.669922" xlink:href="#DejaVuSans-63"/>
      <use x="616.650391" xlink:href="#DejaVuSans-6f"/>
      <use x="677.832031" xlink:href="#DejaVuSans-72"/>
      <use x="718.914062" xlink:href="#DejaVuSans-65"/>
      <use x="780.4375" xlink:href="#DejaVuSans-20"/>
      <use x="812.224609" xlink:href="#DejaVuSans-72"/>
      <use x="853.306641" xlink:href="#DejaVuSans-65"/>
      <use x="914.830078" xlink:href="#DejaVuSans-61"/>
      <use x="976.109375" xlink:href="#DejaVuSans-63"/>
      <use x="1031.089844" xlink:href="#DejaVuSans-74"/>
      <use x="1070.298828" xlink:href="#DejaVuSans-69"/>
      <use x="1098.082031" xlink:href="#DejaVuSans-6f"/>
      <use x="1159.263672" xlink:href="#DejaVuSans-6e"/>
      <use x="1222.642578" xlink:href="#DejaVuSans-73"/>
     </g>
    </g>
   </g>
   <g id="line2d_37">
    <path clip-path="url(#p75519fd440)" d="M 73.832727 295.488 
L 78.627301 294.697412 
L 99.840731 293.906824 
L 112.115486 292.325647 
L 116.687718 291.535059 
L 120.200756 290.744471 
L 126.646678 289.953882 
L 135.680653 286.791529 
L 143.289761 286.000941 
L 145.929345 285.210353 
L 153.093181 282.838588 
L 155.048306 282.048 
L 163.486646 276.513882 
L 173.569197 275.723294 
L 181.199487 274.932706 
L 184.337273 274.142118 
L 189.709411 272.560941 
L 191.608304 271.770353 
L 194.781763 271.770353 
L 197.057534 269.398588 
L 207.586918 269.398588 
L 214.082078 264.655059 
L 217.586403 256.749176 
L 220.610137 251.215059 
L 222.66264 245.680941 
L 224.507441 244.890353 
L 226.637939 244.890353 
L 228.427295 244.099765 
L 241.219178 244.099765 
L 244.506568 236.984471 
L 246.515722 236.193882 
L 251.262206 236.193882 
L 252.754561 235.403294 
L 256.357605 235.403294 
L 257.704745 233.822118 
L 259.330171 233.031529 
L 260.602514 233.031529 
L 266.255639 232.240941 
L 267.77112 231.450353 
L 273.787193 231.450353 
L 277.826679 230.659765 
L 279.305986 224.335059 
L 284.601402 224.335059 
L 285.989243 223.544471 
L 290.831432 222.753882 
L 292.124007 214.057412 
L 295.888171 214.057412 
L 298.337227 213.266824 
L 300.602646 202.989176 
L 301.821033 195.083294 
L 311.145797 195.083294 
L 312.378026 175.318588 
L 315.524858 175.318588 
L 316.562699 173.737412 
L 318.524358 173.737412 
L 320.401124 168.993882 
L 321.482908 163.459765 
L 323.697106 163.459765 
L 324.725099 161.878588 
L 325.76746 161.878588 
L 326.703802 160.297412 
L 332.690968 160.297412 
L 333.642339 157.925647 
L 334.592024 157.925647 
L 336.475943 156.344471 
L 337.388476 153.972706 
L 338.318927 153.182118 
L 340.606753 153.182118 
L 341.414378 152.391529 
L 343.94728 152.391529 
L 344.7618 151.600941 
L 345.640946 151.600941 
L 346.499072 150.810353 
L 348.942659 150.810353 
L 353.708915 150.019765 
L 354.524166 149.229176 
L 356.196883 149.229176 
L 356.952146 147.648 
L 357.759675 147.648 
L 358.526241 146.066824 
L 363.114998 146.066824 
L 364.815726 144.485647 
L 365.734357 143.695059 
L 367.304938 142.113882 
L 369.108929 141.323294 
L 369.808671 140.532706 
L 370.555132 140.532706 
L 371.44599 139.742118 
L 372.14318 127.092706 
L 372.798247 127.092706 
L 373.853903 126.302118 
L 374.876342 112.862118 
L 375.519796 95.469176 
L 376.897492 95.469176 
L 377.580614 94.678588 
L 380.73736 94.678588 
L 382.000697 93.888 
L 382.643281 78.076235 
L 383.316502 77.285647 
L 384.394851 76.495059 
L 385.820664 74.913882 
L 386.509402 58.311529 
L 387.164079 57.520941 
L 389.136774 57.520941 
L 389.770384 55.939765 
L 392.928704 55.939765 
L 393.567774 55.149176 
L 395.969111 55.149176 
L 396.578999 54.358588 
L 397.240935 54.358588 
L 397.841987 53.568 
L 398.487273 53.568 
L 398.487273 53.568 
" style="fill:none;stroke:#ff0000;stroke-linecap:square;stroke-width:1.5;"/>
    <defs>
     <path d="M 0 3 
C 0.795609 3 1.55874 2.683901 2.12132 2.12132 
C 2.683901 1.55874 3 0.795609 3 0 
C 3 -0.795609 2.683901 -1.55874 2.12132 -2.12132 
C 1.55874 -2.683901 0.795609 -3 0 -3 
C -0.795609 -3 -1.55874 -2.683901 -2.12132 -2.12132 
C -2.683901 -1.55874 -3 -0.795609 -3 0 
C -3 0.795609 -2.683901 1.55874 -2.12132 2.12132 
C -1.55874 2.683901 -0.795609 3 0 3 
z
" id="mb705c9e855" style="stroke:#ff0000;"/>
    </defs>
    <g clip-path="url(#p75519fd440)">
     <use style="fill:#ff0000;stroke:#ff0000;" x="73.832727" xlink:href="#mb705c9e855" y="295.488"/>
     <use style="fill:#ff0000;stroke:#ff0000;" x="78.627301" xlink:href="#mb705c9e855" y="294.697412"/>
     <use style="fill:#ff0000;stroke:#ff0000;" x="99.840731" xlink:href="#mb705c9e855" y="293.906824"/>
     <use style="fill:#ff0000;stroke:#ff0000;" x="112.115486" xlink:href="#mb705c9e855" y="292.325647"/>
     <use style="fill:#ff0000;stroke:#ff0000;" x="116.687718" xlink:href="#mb705c9e855" y="291.535059"/>
     <use style="fill:#ff0000;stroke:#ff0000;" x="120.200756" xlink:href="#mb705c9e855" y="290.744471"/>
     <use style="fill:#ff0000;stroke:#ff0000;" x="126.646678" xlink:href="#mb705c9e855" y="289.953882"/>
     <use style="fill:#ff0000;stroke:#ff0000;" x="135.680653" xlink:href="#mb705c9e855" y="286.791529"/>
     <use style="fill:#ff0000;stroke:#ff0000;" x="143.289761" xlink:href="#mb705c9e855" y="286.000941"/>
     <use style="fill:#ff0000;stroke:#ff0000;" x="145.929345" xlink:href="#mb705c9e855" y="285.210353"/>
     <use style="fill:#ff0000;stroke:#ff0000;" x="153.093181" xlink:href="#mb705c9e855" y="282.838588"/>
     <use style="fill:#ff0000;stroke:#ff0000;" x="155.048306" xlink:href="#mb705c9e855" y="282.048"/>
     <use style="fill:#ff0000;stroke:#ff0000;" x="163.486646" xlink:href="#mb705c9e855" y="276.513882"/>
     <use style="fill:#ff0000;stroke:#ff0000;" x="173.569197" xlink:href="#mb705c9e855" y="275.723294"/>
     <use style="fill:#ff0000;stroke:#ff0000;" x="181.199487" xlink:href="#mb705c9e855" y="274.932706"/>
     <use style="fill:#ff0000;stroke:#ff0000;" x="184.337273" xlink:href="#mb705c9e855" y="274.142118"/>
     <use style="fill:#ff0000;stroke:#ff0000;" x="189.709411" xlink:href="#mb705c9e855" y="272.560941"/>
     <use style="fill:#ff0000;stroke:#ff0000;" x="191.608304" xlink:href="#mb705c9e855" y="271.770353"/>
     <use style="fill:#ff0000;stroke:#ff0000;" x="194.781763" xlink:href="#mb705c9e855" y="271.770353"/>
     <use style="fill:#ff0000;stroke:#ff0000;" x="197.057534" xlink:href="#mb705c9e855" y="269.398588"/>
     <use style="fill:#ff0000;stroke:#ff0000;" x="207.586918" xlink:href="#mb705c9e855" y="269.398588"/>
     <use style="fill:#ff0000;stroke:#ff0000;" x="214.082078" xlink:href="#mb705c9e855" y="264.655059"/>
     <use style="fill:#ff0000;stroke:#ff0000;" x="217.586403" xlink:href="#mb705c9e855" y="256.749176"/>
     <use style="fill:#ff0000;stroke:#ff0000;" x="220.610137" xlink:href="#mb705c9e855" y="251.215059"/>
     <use style="fill:#ff0000;stroke:#ff0000;" x="222.66264" xlink:href="#mb705c9e855" y="245.680941"/>
     <use style="fill:#ff0000;stroke:#ff0000;" x="224.507441" xlink:href="#mb705c9e855" y="244.890353"/>
     <use style="fill:#ff0000;stroke:#ff0000;" x="226.637939" xlink:href="#mb705c9e855" y="244.890353"/>
     <use style="fill:#ff0000;stroke:#ff0000;" x="228.427295" xlink:href="#mb705c9e855" y="244.099765"/>
     <use style="fill:#ff0000;stroke:#ff0000;" x="230.441995" xlink:href="#mb705c9e855" y="244.099765"/>
     <use style="fill:#ff0000;stroke:#ff0000;" x="232.21907" xlink:href="#mb705c9e855" y="244.099765"/>
     <use style="fill:#ff0000;stroke:#ff0000;" x="233.863982" xlink:href="#mb705c9e855" y="244.099765"/>
     <use style="fill:#ff0000;stroke:#ff0000;" x="235.412585" xlink:href="#mb705c9e855" y="244.099765"/>
     <use style="fill:#ff0000;stroke:#ff0000;" x="237.023362" xlink:href="#mb705c9e855" y="244.099765"/>
     <use style="fill:#ff0000;stroke:#ff0000;" x="238.655121" xlink:href="#mb705c9e855" y="244.099765"/>
     <use style="fill:#ff0000;stroke:#ff0000;" x="241.219178" xlink:href="#mb705c9e855" y="244.099765"/>
     <use style="fill:#ff0000;stroke:#ff0000;" x="244.506568" xlink:href="#mb705c9e855" y="236.984471"/>
     <use style="fill:#ff0000;stroke:#ff0000;" x="246.515722" xlink:href="#mb705c9e855" y="236.193882"/>
     <use style="fill:#ff0000;stroke:#ff0000;" x="248.061989" xlink:href="#mb705c9e855" y="236.193882"/>
     <use style="fill:#ff0000;stroke:#ff0000;" x="249.53289" xlink:href="#mb705c9e855" y="236.193882"/>
     <use style="fill:#ff0000;stroke:#ff0000;" x="251.262206" xlink:href="#mb705c9e855" y="236.193882"/>
     <use style="fill:#ff0000;stroke:#ff0000;" x="252.754561" xlink:href="#mb705c9e855" y="235.403294"/>
     <use style="fill:#ff0000;stroke:#ff0000;" x="254.070648" xlink:href="#mb705c9e855" y="235.403294"/>
     <use style="fill:#ff0000;stroke:#ff0000;" x="256.357605" xlink:href="#mb705c9e855" y="235.403294"/>
     <use style="fill:#ff0000;stroke:#ff0000;" x="257.704745" xlink:href="#mb705c9e855" y="233.822118"/>
     <use style="fill:#ff0000;stroke:#ff0000;" x="259.330171" xlink:href="#mb705c9e855" y="233.031529"/>
     <use style="fill:#ff0000;stroke:#ff0000;" x="260.602514" xlink:href="#mb705c9e855" y="233.031529"/>
     <use style="fill:#ff0000;stroke:#ff0000;" x="266.255639" xlink:href="#mb705c9e855" y="232.240941"/>
     <use style="fill:#ff0000;stroke:#ff0000;" x="267.77112" xlink:href="#mb705c9e855" y="231.450353"/>
     <use style="fill:#ff0000;stroke:#ff0000;" x="269.320534" xlink:href="#mb705c9e855" y="231.450353"/>
     <use style="fill:#ff0000;stroke:#ff0000;" x="270.783484" xlink:href="#mb705c9e855" y="231.450353"/>
     <use style="fill:#ff0000;stroke:#ff0000;" x="272.193804" xlink:href="#mb705c9e855" y="231.450353"/>
     <use style="fill:#ff0000;stroke:#ff0000;" x="273.787193" xlink:href="#mb705c9e855" y="231.450353"/>
     <use style="fill:#ff0000;stroke:#ff0000;" x="277.826679" xlink:href="#mb705c9e855" y="230.659765"/>
     <use style="fill:#ff0000;stroke:#ff0000;" x="279.305986" xlink:href="#mb705c9e855" y="224.335059"/>
     <use style="fill:#ff0000;stroke:#ff0000;" x="280.581074" xlink:href="#mb705c9e855" y="224.335059"/>
     <use style="fill:#ff0000;stroke:#ff0000;" x="281.998028" xlink:href="#mb705c9e855" y="224.335059"/>
     <use style="fill:#ff0000;stroke:#ff0000;" x="283.44406" xlink:href="#mb705c9e855" y="224.335059"/>
     <use style="fill:#ff0000;stroke:#ff0000;" x="284.601402" xlink:href="#mb705c9e855" y="224.335059"/>
     <use style="fill:#ff0000;stroke:#ff0000;" x="285.989243" xlink:href="#mb705c9e855" y="223.544471"/>
     <use style="fill:#ff0000;stroke:#ff0000;" x="290.831432" xlink:href="#mb705c9e855" y="222.753882"/>
     <use style="fill:#ff0000;stroke:#ff0000;" x="292.124007" xlink:href="#mb705c9e855" y="214.057412"/>
     <use style="fill:#ff0000;stroke:#ff0000;" x="293.368367" xlink:href="#mb705c9e855" y="214.057412"/>
     <use style="fill:#ff0000;stroke:#ff0000;" x="294.603134" xlink:href="#mb705c9e855" y="214.057412"/>
     <use style="fill:#ff0000;stroke:#ff0000;" x="295.888171" xlink:href="#mb705c9e855" y="214.057412"/>
     <use style="fill:#ff0000;stroke:#ff0000;" x="298.337227" xlink:href="#mb705c9e855" y="213.266824"/>
     <use style="fill:#ff0000;stroke:#ff0000;" x="300.602646" xlink:href="#mb705c9e855" y="202.989176"/>
     <use style="fill:#ff0000;stroke:#ff0000;" x="301.821033" xlink:href="#mb705c9e855" y="195.083294"/>
     <use style="fill:#ff0000;stroke:#ff0000;" x="302.944553" xlink:href="#mb705c9e855" y="195.083294"/>
     <use style="fill:#ff0000;stroke:#ff0000;" x="304.139852" xlink:href="#mb705c9e855" y="195.083294"/>
     <use style="fill:#ff0000;stroke:#ff0000;" x="305.209022" xlink:href="#mb705c9e855" y="195.083294"/>
     <use style="fill:#ff0000;stroke:#ff0000;" x="306.610309" xlink:href="#mb705c9e855" y="195.083294"/>
     <use style="fill:#ff0000;stroke:#ff0000;" x="307.66665" xlink:href="#mb705c9e855" y="195.083294"/>
     <use style="fill:#ff0000;stroke:#ff0000;" x="308.846632" xlink:href="#mb705c9e855" y="195.083294"/>
     <use style="fill:#ff0000;stroke:#ff0000;" x="311.145797" xlink:href="#mb705c9e855" y="195.083294"/>
     <use style="fill:#ff0000;stroke:#ff0000;" x="312.378026" xlink:href="#mb705c9e855" y="175.318588"/>
     <use style="fill:#ff0000;stroke:#ff0000;" x="313.483908" xlink:href="#mb705c9e855" y="175.318588"/>
     <use style="fill:#ff0000;stroke:#ff0000;" x="315.524858" xlink:href="#mb705c9e855" y="175.318588"/>
     <use style="fill:#ff0000;stroke:#ff0000;" x="316.562699" xlink:href="#mb705c9e855" y="173.737412"/>
     <use style="fill:#ff0000;stroke:#ff0000;" x="317.502974" xlink:href="#mb705c9e855" y="173.737412"/>
     <use style="fill:#ff0000;stroke:#ff0000;" x="318.524358" xlink:href="#mb705c9e855" y="173.737412"/>
     <use style="fill:#ff0000;stroke:#ff0000;" x="320.401124" xlink:href="#mb705c9e855" y="168.993882"/>
     <use style="fill:#ff0000;stroke:#ff0000;" x="321.482908" xlink:href="#mb705c9e855" y="163.459765"/>
     <use style="fill:#ff0000;stroke:#ff0000;" x="322.53882" xlink:href="#mb705c9e855" y="163.459765"/>
     <use style="fill:#ff0000;stroke:#ff0000;" x="323.697106" xlink:href="#mb705c9e855" y="163.459765"/>
     <use style="fill:#ff0000;stroke:#ff0000;" x="324.725099" xlink:href="#mb705c9e855" y="161.878588"/>
     <use style="fill:#ff0000;stroke:#ff0000;" x="325.76746" xlink:href="#mb705c9e855" y="161.878588"/>
     <use style="fill:#ff0000;stroke:#ff0000;" x="326.703802" xlink:href="#mb705c9e855" y="160.297412"/>
     <use style="fill:#ff0000;stroke:#ff0000;" x="327.642419" xlink:href="#mb705c9e855" y="160.297412"/>
     <use style="fill:#ff0000;stroke:#ff0000;" x="328.549561" xlink:href="#mb705c9e855" y="160.297412"/>
     <use style="fill:#ff0000;stroke:#ff0000;" x="329.485034" xlink:href="#mb705c9e855" y="160.297412"/>
     <use style="fill:#ff0000;stroke:#ff0000;" x="330.398632" xlink:href="#mb705c9e855" y="160.297412"/>
     <use style="fill:#ff0000;stroke:#ff0000;" x="331.273159" xlink:href="#mb705c9e855" y="160.297412"/>
     <use style="fill:#ff0000;stroke:#ff0000;" x="332.690968" xlink:href="#mb705c9e855" y="160.297412"/>
     <use style="fill:#ff0000;stroke:#ff0000;" x="333.642339" xlink:href="#mb705c9e855" y="157.925647"/>
     <use style="fill:#ff0000;stroke:#ff0000;" x="334.592024" xlink:href="#mb705c9e855" y="157.925647"/>
     <use style="fill:#ff0000;stroke:#ff0000;" x="336.475943" xlink:href="#mb705c9e855" y="156.344471"/>
     <use style="fill:#ff0000;stroke:#ff0000;" x="337.388476" xlink:href="#mb705c9e855" y="153.972706"/>
     <use style="fill:#ff0000;stroke:#ff0000;" x="338.318927" xlink:href="#mb705c9e855" y="153.182118"/>
     <use style="fill:#ff0000;stroke:#ff0000;" x="339.221906" xlink:href="#mb705c9e855" y="153.182118"/>
     <use style="fill:#ff0000;stroke:#ff0000;" x="340.606753" xlink:href="#mb705c9e855" y="153.182118"/>
     <use style="fill:#ff0000;stroke:#ff0000;" x="341.414378" xlink:href="#mb705c9e855" y="152.391529"/>
     <use style="fill:#ff0000;stroke:#ff0000;" x="342.299916" xlink:href="#mb705c9e855" y="152.391529"/>
     <use style="fill:#ff0000;stroke:#ff0000;" x="343.133535" xlink:href="#mb705c9e855" y="152.391529"/>
     <use style="fill:#ff0000;stroke:#ff0000;" x="343.94728" xlink:href="#mb705c9e855" y="152.391529"/>
     <use style="fill:#ff0000;stroke:#ff0000;" x="344.7618" xlink:href="#mb705c9e855" y="151.600941"/>
     <use style="fill:#ff0000;stroke:#ff0000;" x="345.640946" xlink:href="#mb705c9e855" y="151.600941"/>
     <use style="fill:#ff0000;stroke:#ff0000;" x="346.499072" xlink:href="#mb705c9e855" y="150.810353"/>
     <use style="fill:#ff0000;stroke:#ff0000;" x="347.348502" xlink:href="#mb705c9e855" y="150.810353"/>
     <use style="fill:#ff0000;stroke:#ff0000;" x="348.163251" xlink:href="#mb705c9e855" y="150.810353"/>
     <use style="fill:#ff0000;stroke:#ff0000;" x="348.942659" xlink:href="#mb705c9e855" y="150.810353"/>
     <use style="fill:#ff0000;stroke:#ff0000;" x="353.708915" xlink:href="#mb705c9e855" y="150.019765"/>
     <use style="fill:#ff0000;stroke:#ff0000;" x="354.524166" xlink:href="#mb705c9e855" y="149.229176"/>
     <use style="fill:#ff0000;stroke:#ff0000;" x="355.405021" xlink:href="#mb705c9e855" y="149.229176"/>
     <use style="fill:#ff0000;stroke:#ff0000;" x="356.196883" xlink:href="#mb705c9e855" y="149.229176"/>
     <use style="fill:#ff0000;stroke:#ff0000;" x="356.952146" xlink:href="#mb705c9e855" y="147.648"/>
     <use style="fill:#ff0000;stroke:#ff0000;" x="357.759675" xlink:href="#mb705c9e855" y="147.648"/>
     <use style="fill:#ff0000;stroke:#ff0000;" x="358.526241" xlink:href="#mb705c9e855" y="146.066824"/>
     <use style="fill:#ff0000;stroke:#ff0000;" x="359.312125" xlink:href="#mb705c9e855" y="146.066824"/>
     <use style="fill:#ff0000;stroke:#ff0000;" x="360.061897" xlink:href="#mb705c9e855" y="146.066824"/>
     <use style="fill:#ff0000;stroke:#ff0000;" x="360.839569" xlink:href="#mb705c9e855" y="146.066824"/>
     <use style="fill:#ff0000;stroke:#ff0000;" x="361.56733" xlink:href="#mb705c9e855" y="146.066824"/>
     <use style="fill:#ff0000;stroke:#ff0000;" x="362.335487" xlink:href="#mb705c9e855" y="146.066824"/>
     <use style="fill:#ff0000;stroke:#ff0000;" x="363.114998" xlink:href="#mb705c9e855" y="146.066824"/>
     <use style="fill:#ff0000;stroke:#ff0000;" x="363.914688" xlink:href="#mb705c9e855" y="145.276235"/>
     <use style="fill:#ff0000;stroke:#ff0000;" x="364.815726" xlink:href="#mb705c9e855" y="144.485647"/>
     <use style="fill:#ff0000;stroke:#ff0000;" x="365.734357" xlink:href="#mb705c9e855" y="143.695059"/>
     <use style="fill:#ff0000;stroke:#ff0000;" x="366.451859" xlink:href="#mb705c9e855" y="142.904471"/>
     <use style="fill:#ff0000;stroke:#ff0000;" x="367.304938" xlink:href="#mb705c9e855" y="142.113882"/>
     <use style="fill:#ff0000;stroke:#ff0000;" x="369.108929" xlink:href="#mb705c9e855" y="141.323294"/>
     <use style="fill:#ff0000;stroke:#ff0000;" x="369.808671" xlink:href="#mb705c9e855" y="140.532706"/>
     <use style="fill:#ff0000;stroke:#ff0000;" x="370.555132" xlink:href="#mb705c9e855" y="140.532706"/>
     <use style="fill:#ff0000;stroke:#ff0000;" x="371.44599" xlink:href="#mb705c9e855" y="139.742118"/>
     <use style="fill:#ff0000;stroke:#ff0000;" x="372.14318" xlink:href="#mb705c9e855" y="127.092706"/>
     <use style="fill:#ff0000;stroke:#ff0000;" x="372.798247" xlink:href="#mb705c9e855" y="127.092706"/>
     <use style="fill:#ff0000;stroke:#ff0000;" x="373.853903" xlink:href="#mb705c9e855" y="126.302118"/>
     <use style="fill:#ff0000;stroke:#ff0000;" x="374.876342" xlink:href="#mb705c9e855" y="112.862118"/>
     <use style="fill:#ff0000;stroke:#ff0000;" x="375.519796" xlink:href="#mb705c9e855" y="95.469176"/>
     <use style="fill:#ff0000;stroke:#ff0000;" x="376.897492" xlink:href="#mb705c9e855" y="95.469176"/>
     <use style="fill:#ff0000;stroke:#ff0000;" x="377.580614" xlink:href="#mb705c9e855" y="94.678588"/>
     <use style="fill:#ff0000;stroke:#ff0000;" x="378.229849" xlink:href="#mb705c9e855" y="94.678588"/>
     <use style="fill:#ff0000;stroke:#ff0000;" x="378.867726" xlink:href="#mb705c9e855" y="94.678588"/>
     <use style="fill:#ff0000;stroke:#ff0000;" x="379.497381" xlink:href="#mb705c9e855" y="94.678588"/>
     <use style="fill:#ff0000;stroke:#ff0000;" x="380.118618" xlink:href="#mb705c9e855" y="94.678588"/>
     <use style="fill:#ff0000;stroke:#ff0000;" x="380.73736" xlink:href="#mb705c9e855" y="94.678588"/>
     <use style="fill:#ff0000;stroke:#ff0000;" x="382.000697" xlink:href="#mb705c9e855" y="93.888"/>
     <use style="fill:#ff0000;stroke:#ff0000;" x="382.643281" xlink:href="#mb705c9e855" y="78.076235"/>
     <use style="fill:#ff0000;stroke:#ff0000;" x="383.316502" xlink:href="#mb705c9e855" y="77.285647"/>
     <use style="fill:#ff0000;stroke:#ff0000;" x="384.394851" xlink:href="#mb705c9e855" y="76.495059"/>
     <use style="fill:#ff0000;stroke:#ff0000;" x="385.820664" xlink:href="#mb705c9e855" y="74.913882"/>
     <use style="fill:#ff0000;stroke:#ff0000;" x="386.509402" xlink:href="#mb705c9e855" y="58.311529"/>
     <use style="fill:#ff0000;stroke:#ff0000;" x="387.164079" xlink:href="#mb705c9e855" y="57.520941"/>
     <use style="fill:#ff0000;stroke:#ff0000;" x="387.84356" xlink:href="#mb705c9e855" y="57.520941"/>
     <use style="fill:#ff0000;stroke:#ff0000;" x="388.491565" xlink:href="#mb705c9e855" y="57.520941"/>
     <use style="fill:#ff0000;stroke:#ff0000;" x="389.136774" xlink:href="#mb705c9e855" y="57.520941"/>
     <use style="fill:#ff0000;stroke:#ff0000;" x="389.770384" xlink:href="#mb705c9e855" y="55.939765"/>
     <use style="fill:#ff0000;stroke:#ff0000;" x="390.411597" xlink:href="#mb705c9e855" y="55.939765"/>
     <use style="fill:#ff0000;stroke:#ff0000;" x="391.040297" xlink:href="#mb705c9e855" y="55.939765"/>
     <use style="fill:#ff0000;stroke:#ff0000;" x="391.670952" xlink:href="#mb705c9e855" y="55.939765"/>
     <use style="fill:#ff0000;stroke:#ff0000;" x="392.28661" xlink:href="#mb705c9e855" y="55.939765"/>
     <use style="fill:#ff0000;stroke:#ff0000;" x="392.928704" xlink:href="#mb705c9e855" y="55.939765"/>
     <use style="fill:#ff0000;stroke:#ff0000;" x="393.567774" xlink:href="#mb705c9e855" y="55.149176"/>
     <use style="fill:#ff0000;stroke:#ff0000;" x="394.172923" xlink:href="#mb705c9e855" y="55.149176"/>
     <use style="fill:#ff0000;stroke:#ff0000;" x="394.76452" xlink:href="#mb705c9e855" y="55.149176"/>
     <use style="fill:#ff0000;stroke:#ff0000;" x="395.969111" xlink:href="#mb705c9e855" y="55.149176"/>
     <use style="fill:#ff0000;stroke:#ff0000;" x="396.578999" xlink:href="#mb705c9e855" y="54.358588"/>
     <use style="fill:#ff0000;stroke:#ff0000;" x="397.240935" xlink:href="#mb705c9e855" y="54.358588"/>
     <use style="fill:#ff0000;stroke:#ff0000;" x="397.841987" xlink:href="#mb705c9e855" y="53.568"/>
     <use style="fill:#ff0000;stroke:#ff0000;" x="398.487273" xlink:href="#mb705c9e855" y="53.568"/>
    </g>
   </g>
   <g id="patch_7">
    <path d="M 57.6 307.584 
L 57.6 41.472 
" style="fill:none;stroke:#000000;stroke-linecap:square;stroke-linejoin:miter;stroke-width:0.8;"/>
   </g>
   <g id="patch_8">
    <path d="M 414.72 307.584 
L 414.72 41.472 
" style="fill:none;stroke:#000000;stroke-linecap:square;stroke-linejoin:miter;stroke-width:0.8;"/>
   </g>
   <g id="patch_9">
    <path d="M 57.6 307.584 
L 414.72 307.584 
" style="fill:none;stroke:#000000;stroke-linecap:square;stroke-linejoin:miter;stroke-width:0.8;"/>
   </g>
   <g id="patch_10">
    <path d="M 57.6 41.472 
L 414.72 41.472 
" style="fill:none;stroke:#000000;stroke-linecap:square;stroke-linejoin:miter;stroke-width:0.8;"/>
   </g>
  </g>
 </g>
 <defs>
  <clipPath id="p75519fd440">
   <rect height="266.112" width="357.12" x="57.6" y="41.472"/>
  </clipPath>
 </defs>
</svg>
