<?xml version="1.0" encoding="utf-8" standalone="no"?>
<!DOCTYPE svg PUBLIC "-//W3C//DTD SVG 1.1//EN"
  "http://www.w3.org/Graphics/SVG/1.1/DTD/svg11.dtd">
<!-- Created with matplotlib (http://matplotlib.org/) -->
<svg height="345.6pt" version="1.1" viewBox="0 0 460.8 345.6" width="460.8pt" xmlns="http://www.w3.org/2000/svg" xmlns:xlink="http://www.w3.org/1999/xlink">
 <defs>
  <style type="text/css">
*{stroke-linecap:butt;stroke-linejoin:round;}
  </style>
 </defs>
 <g id="figure_1">
  <g id="patch_1">
   <path d="M 0 345.6 
L 460.8 345.6 
L 460.8 0 
L 0 0 
z
" style="fill:#ffffff;"/>
  </g>
  <g id="axes_1">
   <g id="patch_2">
    <path d="M 57.6 307.584 
L 414.72 307.584 
L 414.72 41.472 
L 57.6 41.472 
z
" style="fill:#ffffff;"/>
   </g>
   <g id="matplotlib.axis_1">
    <g id="xtick_1">
     <g id="line2d_1">
      <defs>
       <path d="M 0 0 
L 0 3.5 
" id="m2f10d7e3e7" style="stroke:#000000;stroke-width:0.8;"/>
      </defs>
      <g>
       <use style="stroke:#000000;stroke-width:0.8;" x="70.463158" xlink:href="#m2f10d7e3e7" y="307.584"/>
      </g>
     </g>
     <g id="text_1">
      <!-- $\mathdefault{10^{2}}$ -->
      <defs>
       <path d="M 12.40625 8.296875 
L 28.515625 8.296875 
L 28.515625 63.921875 
L 10.984375 60.40625 
L 10.984375 69.390625 
L 28.421875 72.90625 
L 38.28125 72.90625 
L 38.28125 8.296875 
L 54.390625 8.296875 
L 54.390625 0 
L 12.40625 0 
z
" id="DejaVuSans-31"/>
       <path d="M 31.78125 66.40625 
Q 24.171875 66.40625 20.328125 58.90625 
Q 16.5 51.421875 16.5 36.375 
Q 16.5 21.390625 20.328125 13.890625 
Q 24.171875 6.390625 31.78125 6.390625 
Q 39.453125 6.390625 43.28125 13.890625 
Q 47.125 21.390625 47.125 36.375 
Q 47.125 51.421875 43.28125 58.90625 
Q 39.453125 66.40625 31.78125 66.40625 
z
M 31.78125 74.21875 
Q 44.046875 74.21875 50.515625 64.515625 
Q 56.984375 54.828125 56.984375 36.375 
Q 56.984375 17.96875 50.515625 8.265625 
Q 44.046875 -1.421875 31.78125 -1.421875 
Q 19.53125 -1.421875 13.0625 8.265625 
Q 6.59375 17.96875 6.59375 36.375 
Q 6.59375 54.828125 13.0625 64.515625 
Q 19.53125 74.21875 31.78125 74.21875 
z
" id="DejaVuSans-30"/>
       <path d="M 19.1875 8.296875 
L 53.609375 8.296875 
L 53.609375 0 
L 7.328125 0 
L 7.328125 8.296875 
Q 12.9375 14.109375 22.625 23.890625 
Q 32.328125 33.6875 34.8125 36.53125 
Q 39.546875 41.84375 41.421875 45.53125 
Q 43.3125 49.21875 43.3125 52.78125 
Q 43.3125 58.59375 39.234375 62.25 
Q 35.15625 65.921875 28.609375 65.921875 
Q 23.96875 65.921875 18.8125 64.3125 
Q 13.671875 62.703125 7.8125 59.421875 
L 7.8125 69.390625 
Q 13.765625 71.78125 18.9375 73 
Q 24.125 74.21875 28.421875 74.21875 
Q 39.75 74.21875 46.484375 68.546875 
Q 53.21875 62.890625 53.21875 53.421875 
Q 53.21875 48.921875 51.53125 44.890625 
Q 49.859375 40.875 45.40625 35.40625 
Q 44.1875 33.984375 37.640625 27.21875 
Q 31.109375 20.453125 19.1875 8.296875 
z
" id="DejaVuSans-32"/>
      </defs>
      <g transform="translate(61.663158 322.182437)scale(0.1 -0.1)">
       <use transform="translate(0 0.765625)" xlink:href="#DejaVuSans-31"/>
       <use transform="translate(63.623047 0.765625)" xlink:href="#DejaVuSans-30"/>
       <use transform="translate(128.203125 39.046875)scale(0.7)" xlink:href="#DejaVuSans-32"/>
      </g>
     </g>
    </g>
    <g id="xtick_2">
     <g id="line2d_2">
      <g>
       <use style="stroke:#000000;stroke-width:0.8;" x="228.404032" xlink:href="#m2f10d7e3e7" y="307.584"/>
      </g>
     </g>
     <g id="text_2">
      <!-- $\mathdefault{10^{3}}$ -->
      <defs>
       <path d="M 40.578125 39.3125 
Q 47.65625 37.796875 51.625 33 
Q 55.609375 28.21875 55.609375 21.1875 
Q 55.609375 10.40625 48.1875 4.484375 
Q 40.765625 -1.421875 27.09375 -1.421875 
Q 22.515625 -1.421875 17.65625 -0.515625 
Q 12.796875 0.390625 7.625 2.203125 
L 7.625 11.71875 
Q 11.71875 9.328125 16.59375 8.109375 
Q 21.484375 6.890625 26.8125 6.890625 
Q 36.078125 6.890625 40.9375 10.546875 
Q 45.796875 14.203125 45.796875 21.1875 
Q 45.796875 27.640625 41.28125 31.265625 
Q 36.765625 34.90625 28.71875 34.90625 
L 20.21875 34.90625 
L 20.21875 43.015625 
L 29.109375 43.015625 
Q 36.375 43.015625 40.234375 45.921875 
Q 44.09375 48.828125 44.09375 54.296875 
Q 44.09375 59.90625 40.109375 62.90625 
Q 36.140625 65.921875 28.71875 65.921875 
Q 24.65625 65.921875 20.015625 65.03125 
Q 15.375 64.15625 9.8125 62.3125 
L 9.8125 71.09375 
Q 15.4375 72.65625 20.34375 73.4375 
Q 25.25 74.21875 29.59375 74.21875 
Q 40.828125 74.21875 47.359375 69.109375 
Q 53.90625 64.015625 53.90625 55.328125 
Q 53.90625 49.265625 50.4375 45.09375 
Q 46.96875 40.921875 40.578125 39.3125 
z
" id="DejaVuSans-33"/>
      </defs>
      <g transform="translate(219.604032 322.182437)scale(0.1 -0.1)">
       <use transform="translate(0 0.765625)" xlink:href="#DejaVuSans-31"/>
       <use transform="translate(63.623047 0.765625)" xlink:href="#DejaVuSans-30"/>
       <use transform="translate(128.203125 39.046875)scale(0.7)" xlink:href="#DejaVuSans-33"/>
      </g>
     </g>
    </g>
    <g id="xtick_3">
     <g id="line2d_3">
      <g>
       <use style="stroke:#000000;stroke-width:0.8;" x="386.344906" xlink:href="#m2f10d7e3e7" y="307.584"/>
      </g>
     </g>
     <g id="text_3">
      <!-- $\mathdefault{10^{4}}$ -->
      <defs>
       <path d="M 37.796875 64.3125 
L 12.890625 25.390625 
L 37.796875 25.390625 
z
M 35.203125 72.90625 
L 47.609375 72.90625 
L 47.609375 25.390625 
L 58.015625 25.390625 
L 58.015625 17.1875 
L 47.609375 17.1875 
L 47.609375 0 
L 37.796875 0 
L 37.796875 17.1875 
L 4.890625 17.1875 
L 4.890625 26.703125 
z
" id="DejaVuSans-34"/>
      </defs>
      <g transform="translate(377.544906 322.182437)scale(0.1 -0.1)">
       <use transform="translate(0 0.684375)" xlink:href="#DejaVuSans-31"/>
       <use transform="translate(63.623047 0.684375)" xlink:href="#DejaVuSans-30"/>
       <use transform="translate(128.203125 38.965625)scale(0.7)" xlink:href="#DejaVuSans-34"/>
      </g>
     </g>
    </g>
    <g id="xtick_4">
     <g id="line2d_4">
      <defs>
       <path d="M 0 0 
L 0 2 
" id="m74d81871bd" style="stroke:#000000;stroke-width:0.6;"/>
      </defs>
      <g>
       <use style="stroke:#000000;stroke-width:0.6;" x="63.23618" xlink:href="#m74d81871bd" y="307.584"/>
      </g>
     </g>
    </g>
    <g id="xtick_5">
     <g id="line2d_5">
      <g>
       <use style="stroke:#000000;stroke-width:0.6;" x="118.008099" xlink:href="#m74d81871bd" y="307.584"/>
      </g>
     </g>
    </g>
    <g id="xtick_6">
     <g id="line2d_6">
      <g>
       <use style="stroke:#000000;stroke-width:0.6;" x="145.820106" xlink:href="#m74d81871bd" y="307.584"/>
      </g>
     </g>
    </g>
    <g id="xtick_7">
     <g id="line2d_7">
      <g>
       <use style="stroke:#000000;stroke-width:0.6;" x="165.553039" xlink:href="#m74d81871bd" y="307.584"/>
      </g>
     </g>
    </g>
    <g id="xtick_8">
     <g id="line2d_8">
      <g>
       <use style="stroke:#000000;stroke-width:0.6;" x="180.859091" xlink:href="#m74d81871bd" y="307.584"/>
      </g>
     </g>
    </g>
    <g id="xtick_9">
     <g id="line2d_9">
      <g>
       <use style="stroke:#000000;stroke-width:0.6;" x="193.365047" xlink:href="#m74d81871bd" y="307.584"/>
      </g>
     </g>
    </g>
    <g id="xtick_10">
     <g id="line2d_10">
      <g>
       <use style="stroke:#000000;stroke-width:0.6;" x="203.938681" xlink:href="#m74d81871bd" y="307.584"/>
      </g>
     </g>
    </g>
    <g id="xtick_11">
     <g id="line2d_11">
      <g>
       <use style="stroke:#000000;stroke-width:0.6;" x="213.09798" xlink:href="#m74d81871bd" y="307.584"/>
      </g>
     </g>
    </g>
    <g id="xtick_12">
     <g id="line2d_12">
      <g>
       <use style="stroke:#000000;stroke-width:0.6;" x="221.177054" xlink:href="#m74d81871bd" y="307.584"/>
      </g>
     </g>
    </g>
    <g id="xtick_13">
     <g id="line2d_13">
      <g>
       <use style="stroke:#000000;stroke-width:0.6;" x="275.948973" xlink:href="#m74d81871bd" y="307.584"/>
      </g>
     </g>
    </g>
    <g id="xtick_14">
     <g id="line2d_14">
      <g>
       <use style="stroke:#000000;stroke-width:0.6;" x="303.76098" xlink:href="#m74d81871bd" y="307.584"/>
      </g>
     </g>
    </g>
    <g id="xtick_15">
     <g id="line2d_15">
      <g>
       <use style="stroke:#000000;stroke-width:0.6;" x="323.493913" xlink:href="#m74d81871bd" y="307.584"/>
      </g>
     </g>
    </g>
    <g id="xtick_16">
     <g id="line2d_16">
      <g>
       <use style="stroke:#000000;stroke-width:0.6;" x="338.799965" xlink:href="#m74d81871bd" y="307.584"/>
      </g>
     </g>
    </g>
    <g id="xtick_17">
     <g id="line2d_17">
      <g>
       <use style="stroke:#000000;stroke-width:0.6;" x="351.305921" xlink:href="#m74d81871bd" y="307.584"/>
      </g>
     </g>
    </g>
    <g id="xtick_18">
     <g id="line2d_18">
      <g>
       <use style="stroke:#000000;stroke-width:0.6;" x="361.879555" xlink:href="#m74d81871bd" y="307.584"/>
      </g>
     </g>
    </g>
    <g id="xtick_19">
     <g id="line2d_19">
      <g>
       <use style="stroke:#000000;stroke-width:0.6;" x="371.038854" xlink:href="#m74d81871bd" y="307.584"/>
      </g>
     </g>
    </g>
    <g id="xtick_20">
     <g id="line2d_20">
      <g>
       <use style="stroke:#000000;stroke-width:0.6;" x="379.117928" xlink:href="#m74d81871bd" y="307.584"/>
      </g>
     </g>
    </g>
    <g id="text_4">
     <!-- Execution time (s) -->
     <defs>
      <path d="M 9.8125 72.90625 
L 55.90625 72.90625 
L 55.90625 64.59375 
L 19.671875 64.59375 
L 19.671875 43.015625 
L 54.390625 43.015625 
L 54.390625 34.71875 
L 19.671875 34.71875 
L 19.671875 8.296875 
L 56.78125 8.296875 
L 56.78125 0 
L 9.8125 0 
z
" id="DejaVuSans-45"/>
      <path d="M 54.890625 54.6875 
L 35.109375 28.078125 
L 55.90625 0 
L 45.3125 0 
L 29.390625 21.484375 
L 13.484375 0 
L 2.875 0 
L 24.125 28.609375 
L 4.6875 54.6875 
L 15.28125 54.6875 
L 29.78125 35.203125 
L 44.28125 54.6875 
z
" id="DejaVuSans-78"/>
      <path d="M 56.203125 29.59375 
L 56.203125 25.203125 
L 14.890625 25.203125 
Q 15.484375 15.921875 20.484375 11.0625 
Q 25.484375 6.203125 34.421875 6.203125 
Q 39.59375 6.203125 44.453125 7.46875 
Q 49.3125 8.734375 54.109375 11.28125 
L 54.109375 2.78125 
Q 49.265625 0.734375 44.1875 -0.34375 
Q 39.109375 -1.421875 33.890625 -1.421875 
Q 20.796875 -1.421875 13.15625 6.1875 
Q 5.515625 13.8125 5.515625 26.8125 
Q 5.515625 40.234375 12.765625 48.109375 
Q 20.015625 56 32.328125 56 
Q 43.359375 56 49.78125 48.890625 
Q 56.203125 41.796875 56.203125 29.59375 
z
M 47.21875 32.234375 
Q 47.125 39.59375 43.09375 43.984375 
Q 39.0625 48.390625 32.421875 48.390625 
Q 24.90625 48.390625 20.390625 44.140625 
Q 15.875 39.890625 15.1875 32.171875 
z
" id="DejaVuSans-65"/>
      <path d="M 48.78125 52.59375 
L 48.78125 44.1875 
Q 44.96875 46.296875 41.140625 47.34375 
Q 37.3125 48.390625 33.40625 48.390625 
Q 24.65625 48.390625 19.8125 42.84375 
Q 14.984375 37.3125 14.984375 27.296875 
Q 14.984375 17.28125 19.8125 11.734375 
Q 24.65625 6.203125 33.40625 6.203125 
Q 37.3125 6.203125 41.140625 7.25 
Q 44.96875 8.296875 48.78125 10.40625 
L 48.78125 2.09375 
Q 45.015625 0.34375 40.984375 -0.53125 
Q 36.96875 -1.421875 32.421875 -1.421875 
Q 20.0625 -1.421875 12.78125 6.34375 
Q 5.515625 14.109375 5.515625 27.296875 
Q 5.515625 40.671875 12.859375 48.328125 
Q 20.21875 56 33.015625 56 
Q 37.15625 56 41.109375 55.140625 
Q 45.0625 54.296875 48.78125 52.59375 
z
" id="DejaVuSans-63"/>
      <path d="M 8.5 21.578125 
L 8.5 54.6875 
L 17.484375 54.6875 
L 17.484375 21.921875 
Q 17.484375 14.15625 20.5 10.265625 
Q 23.53125 6.390625 29.59375 6.390625 
Q 36.859375 6.390625 41.078125 11.03125 
Q 45.3125 15.671875 45.3125 23.6875 
L 45.3125 54.6875 
L 54.296875 54.6875 
L 54.296875 0 
L 45.3125 0 
L 45.3125 8.40625 
Q 42.046875 3.421875 37.71875 1 
Q 33.40625 -1.421875 27.6875 -1.421875 
Q 18.265625 -1.421875 13.375 4.4375 
Q 8.5 10.296875 8.5 21.578125 
z
M 31.109375 56 
z
" id="DejaVuSans-75"/>
      <path d="M 18.3125 70.21875 
L 18.3125 54.6875 
L 36.8125 54.6875 
L 36.8125 47.703125 
L 18.3125 47.703125 
L 18.3125 18.015625 
Q 18.3125 11.328125 20.140625 9.421875 
Q 21.96875 7.515625 27.59375 7.515625 
L 36.8125 7.515625 
L 36.8125 0 
L 27.59375 0 
Q 17.1875 0 13.234375 3.875 
Q 9.28125 7.765625 9.28125 18.015625 
L 9.28125 47.703125 
L 2.6875 47.703125 
L 2.6875 54.6875 
L 9.28125 54.6875 
L 9.28125 70.21875 
z
" id="DejaVuSans-74"/>
      <path d="M 9.421875 54.6875 
L 18.40625 54.6875 
L 18.40625 0 
L 9.421875 0 
z
M 9.421875 75.984375 
L 18.40625 75.984375 
L 18.40625 64.59375 
L 9.421875 64.59375 
z
" id="DejaVuSans-69"/>
      <path d="M 30.609375 48.390625 
Q 23.390625 48.390625 19.1875 42.75 
Q 14.984375 37.109375 14.984375 27.296875 
Q 14.984375 17.484375 19.15625 11.84375 
Q 23.34375 6.203125 30.609375 6.203125 
Q 37.796875 6.203125 41.984375 11.859375 
Q 46.1875 17.53125 46.1875 27.296875 
Q 46.1875 37.015625 41.984375 42.703125 
Q 37.796875 48.390625 30.609375 48.390625 
z
M 30.609375 56 
Q 42.328125 56 49.015625 48.375 
Q 55.71875 40.765625 55.71875 27.296875 
Q 55.71875 13.875 49.015625 6.21875 
Q 42.328125 -1.421875 30.609375 -1.421875 
Q 18.84375 -1.421875 12.171875 6.21875 
Q 5.515625 13.875 5.515625 27.296875 
Q 5.515625 40.765625 12.171875 48.375 
Q 18.84375 56 30.609375 56 
z
" id="DejaVuSans-6f"/>
      <path d="M 54.890625 33.015625 
L 54.890625 0 
L 45.90625 0 
L 45.90625 32.71875 
Q 45.90625 40.484375 42.875 44.328125 
Q 39.84375 48.1875 33.796875 48.1875 
Q 26.515625 48.1875 22.3125 43.546875 
Q 18.109375 38.921875 18.109375 30.90625 
L 18.109375 0 
L 9.078125 0 
L 9.078125 54.6875 
L 18.109375 54.6875 
L 18.109375 46.1875 
Q 21.34375 51.125 25.703125 53.5625 
Q 30.078125 56 35.796875 56 
Q 45.21875 56 50.046875 50.171875 
Q 54.890625 44.34375 54.890625 33.015625 
z
" id="DejaVuSans-6e"/>
      <path id="DejaVuSans-20"/>
      <path d="M 52 44.1875 
Q 55.375 50.25 60.0625 53.125 
Q 64.75 56 71.09375 56 
Q 79.640625 56 84.28125 50.015625 
Q 88.921875 44.046875 88.921875 33.015625 
L 88.921875 0 
L 79.890625 0 
L 79.890625 32.71875 
Q 79.890625 40.578125 77.09375 44.375 
Q 74.3125 48.1875 68.609375 48.1875 
Q 61.625 48.1875 57.5625 43.546875 
Q 53.515625 38.921875 53.515625 30.90625 
L 53.515625 0 
L 44.484375 0 
L 44.484375 32.71875 
Q 44.484375 40.625 41.703125 44.40625 
Q 38.921875 48.1875 33.109375 48.1875 
Q 26.21875 48.1875 22.15625 43.53125 
Q 18.109375 38.875 18.109375 30.90625 
L 18.109375 0 
L 9.078125 0 
L 9.078125 54.6875 
L 18.109375 54.6875 
L 18.109375 46.1875 
Q 21.1875 51.21875 25.484375 53.609375 
Q 29.78125 56 35.6875 56 
Q 41.65625 56 45.828125 52.96875 
Q 50 49.953125 52 44.1875 
z
" id="DejaVuSans-6d"/>
      <path d="M 31 75.875 
Q 24.46875 64.65625 21.28125 53.65625 
Q 18.109375 42.671875 18.109375 31.390625 
Q 18.109375 20.125 21.3125 9.0625 
Q 24.515625 -2 31 -13.1875 
L 23.1875 -13.1875 
Q 15.875 -1.703125 12.234375 9.375 
Q 8.59375 20.453125 8.59375 31.390625 
Q 8.59375 42.28125 12.203125 53.3125 
Q 15.828125 64.359375 23.1875 75.875 
z
" id="DejaVuSans-28"/>
      <path d="M 44.28125 53.078125 
L 44.28125 44.578125 
Q 40.484375 46.53125 36.375 47.5 
Q 32.28125 48.484375 27.875 48.484375 
Q 21.1875 48.484375 17.84375 46.4375 
Q 14.5 44.390625 14.5 40.28125 
Q 14.5 37.15625 16.890625 35.375 
Q 19.28125 33.59375 26.515625 31.984375 
L 29.59375 31.296875 
Q 39.15625 29.25 43.1875 25.515625 
Q 47.21875 21.78125 47.21875 15.09375 
Q 47.21875 7.46875 41.1875 3.015625 
Q 35.15625 -1.421875 24.609375 -1.421875 
Q 20.21875 -1.421875 15.453125 -0.5625 
Q 10.6875 0.296875 5.421875 2 
L 5.421875 11.28125 
Q 10.40625 8.6875 15.234375 7.390625 
Q 20.0625 6.109375 24.8125 6.109375 
Q 31.15625 6.109375 34.5625 8.28125 
Q 37.984375 10.453125 37.984375 14.40625 
Q 37.984375 18.0625 35.515625 20.015625 
Q 33.0625 21.96875 24.703125 23.78125 
L 21.578125 24.515625 
Q 13.234375 26.265625 9.515625 29.90625 
Q 5.8125 33.546875 5.8125 39.890625 
Q 5.8125 47.609375 11.28125 51.796875 
Q 16.75 56 26.8125 56 
Q 31.78125 56 36.171875 55.265625 
Q 40.578125 54.546875 44.28125 53.078125 
z
" id="DejaVuSans-73"/>
      <path d="M 8.015625 75.875 
L 15.828125 75.875 
Q 23.140625 64.359375 26.78125 53.3125 
Q 30.421875 42.28125 30.421875 31.390625 
Q 30.421875 20.453125 26.78125 9.375 
Q 23.140625 -1.703125 15.828125 -13.1875 
L 8.015625 -13.1875 
Q 14.5 -2 17.703125 9.0625 
Q 20.90625 20.125 20.90625 31.390625 
Q 20.90625 42.671875 17.703125 53.65625 
Q 14.5 64.65625 8.015625 75.875 
z
" id="DejaVuSans-29"/>
     </defs>
     <g transform="translate(190.49125 335.860562)scale(0.1 -0.1)">
      <use xlink:href="#DejaVuSans-45"/>
      <use x="63.183594" xlink:href="#DejaVuSans-78"/>
      <use x="122.316406" xlink:href="#DejaVuSans-65"/>
      <use x="183.839844" xlink:href="#DejaVuSans-63"/>
      <use x="238.820312" xlink:href="#DejaVuSans-75"/>
      <use x="302.199219" xlink:href="#DejaVuSans-74"/>
      <use x="341.408203" xlink:href="#DejaVuSans-69"/>
      <use x="369.191406" xlink:href="#DejaVuSans-6f"/>
      <use x="430.373047" xlink:href="#DejaVuSans-6e"/>
      <use x="493.751953" xlink:href="#DejaVuSans-20"/>
      <use x="525.539062" xlink:href="#DejaVuSans-74"/>
      <use x="564.748047" xlink:href="#DejaVuSans-69"/>
      <use x="592.53125" xlink:href="#DejaVuSans-6d"/>
      <use x="689.943359" xlink:href="#DejaVuSans-65"/>
      <use x="751.466797" xlink:href="#DejaVuSans-20"/>
      <use x="783.253906" xlink:href="#DejaVuSans-28"/>
      <use x="822.267578" xlink:href="#DejaVuSans-73"/>
      <use x="874.367188" xlink:href="#DejaVuSans-29"/>
     </g>
    </g>
   </g>
   <g id="matplotlib.axis_2">
    <g id="ytick_1">
     <g id="line2d_21">
      <defs>
       <path d="M 0 0 
L -3.5 0 
" id="m2e100532de" style="stroke:#000000;stroke-width:0.8;"/>
      </defs>
      <g>
       <use style="stroke:#000000;stroke-width:0.8;" x="57.6" xlink:href="#m2e100532de" y="257.134829"/>
      </g>
     </g>
     <g id="text_5">
      <!-- 20 -->
      <g transform="translate(37.875 260.934048)scale(0.1 -0.1)">
       <use xlink:href="#DejaVuSans-32"/>
       <use x="63.623047" xlink:href="#DejaVuSans-30"/>
      </g>
     </g>
    </g>
    <g id="ytick_2">
     <g id="line2d_22">
      <g>
       <use style="stroke:#000000;stroke-width:0.8;" x="57.6" xlink:href="#m2e100532de" y="198.129951"/>
      </g>
     </g>
     <g id="text_6">
      <!-- 40 -->
      <g transform="translate(37.875 201.92917)scale(0.1 -0.1)">
       <use xlink:href="#DejaVuSans-34"/>
       <use x="63.623047" xlink:href="#DejaVuSans-30"/>
      </g>
     </g>
    </g>
    <g id="ytick_3">
     <g id="line2d_23">
      <g>
       <use style="stroke:#000000;stroke-width:0.8;" x="57.6" xlink:href="#m2e100532de" y="139.125073"/>
      </g>
     </g>
     <g id="text_7">
      <!-- 60 -->
      <defs>
       <path d="M 33.015625 40.375 
Q 26.375 40.375 22.484375 35.828125 
Q 18.609375 31.296875 18.609375 23.390625 
Q 18.609375 15.53125 22.484375 10.953125 
Q 26.375 6.390625 33.015625 6.390625 
Q 39.65625 6.390625 43.53125 10.953125 
Q 47.40625 15.53125 47.40625 23.390625 
Q 47.40625 31.296875 43.53125 35.828125 
Q 39.65625 40.375 33.015625 40.375 
z
M 52.59375 71.296875 
L 52.59375 62.3125 
Q 48.875 64.0625 45.09375 64.984375 
Q 41.3125 65.921875 37.59375 65.921875 
Q 27.828125 65.921875 22.671875 59.328125 
Q 17.53125 52.734375 16.796875 39.40625 
Q 19.671875 43.65625 24.015625 45.921875 
Q 28.375 48.1875 33.59375 48.1875 
Q 44.578125 48.1875 50.953125 41.515625 
Q 57.328125 34.859375 57.328125 23.390625 
Q 57.328125 12.15625 50.6875 5.359375 
Q 44.046875 -1.421875 33.015625 -1.421875 
Q 20.359375 -1.421875 13.671875 8.265625 
Q 6.984375 17.96875 6.984375 36.375 
Q 6.984375 53.65625 15.1875 63.9375 
Q 23.390625 74.21875 37.203125 74.21875 
Q 40.921875 74.21875 44.703125 73.484375 
Q 48.484375 72.75 52.59375 71.296875 
z
" id="DejaVuSans-36"/>
      </defs>
      <g transform="translate(37.875 142.924292)scale(0.1 -0.1)">
       <use xlink:href="#DejaVuSans-36"/>
       <use x="63.623047" xlink:href="#DejaVuSans-30"/>
      </g>
     </g>
    </g>
    <g id="ytick_4">
     <g id="line2d_24">
      <g>
       <use style="stroke:#000000;stroke-width:0.8;" x="57.6" xlink:href="#m2e100532de" y="80.120195"/>
      </g>
     </g>
     <g id="text_8">
      <!-- 80 -->
      <defs>
       <path d="M 31.78125 34.625 
Q 24.75 34.625 20.71875 30.859375 
Q 16.703125 27.09375 16.703125 20.515625 
Q 16.703125 13.921875 20.71875 10.15625 
Q 24.75 6.390625 31.78125 6.390625 
Q 38.8125 6.390625 42.859375 10.171875 
Q 46.921875 13.96875 46.921875 20.515625 
Q 46.921875 27.09375 42.890625 30.859375 
Q 38.875 34.625 31.78125 34.625 
z
M 21.921875 38.8125 
Q 15.578125 40.375 12.03125 44.71875 
Q 8.5 49.078125 8.5 55.328125 
Q 8.5 64.0625 14.71875 69.140625 
Q 20.953125 74.21875 31.78125 74.21875 
Q 42.671875 74.21875 48.875 69.140625 
Q 55.078125 64.0625 55.078125 55.328125 
Q 55.078125 49.078125 51.53125 44.71875 
Q 48 40.375 41.703125 38.8125 
Q 48.828125 37.15625 52.796875 32.3125 
Q 56.78125 27.484375 56.78125 20.515625 
Q 56.78125 9.90625 50.3125 4.234375 
Q 43.84375 -1.421875 31.78125 -1.421875 
Q 19.734375 -1.421875 13.25 4.234375 
Q 6.78125 9.90625 6.78125 20.515625 
Q 6.78125 27.484375 10.78125 32.3125 
Q 14.796875 37.15625 21.921875 38.8125 
z
M 18.3125 54.390625 
Q 18.3125 48.734375 21.84375 45.5625 
Q 25.390625 42.390625 31.78125 42.390625 
Q 38.140625 42.390625 41.71875 45.5625 
Q 45.3125 48.734375 45.3125 54.390625 
Q 45.3125 60.0625 41.71875 63.234375 
Q 38.140625 66.40625 31.78125 66.40625 
Q 25.390625 66.40625 21.84375 63.234375 
Q 18.3125 60.0625 18.3125 54.390625 
z
" id="DejaVuSans-38"/>
      </defs>
      <g transform="translate(37.875 83.919414)scale(0.1 -0.1)">
       <use xlink:href="#DejaVuSans-38"/>
       <use x="63.623047" xlink:href="#DejaVuSans-30"/>
      </g>
     </g>
    </g>
    <g id="text_9">
     <!-- Number of core species -->
     <defs>
      <path d="M 9.8125 72.90625 
L 23.09375 72.90625 
L 55.421875 11.921875 
L 55.421875 72.90625 
L 64.984375 72.90625 
L 64.984375 0 
L 51.703125 0 
L 19.390625 60.984375 
L 19.390625 0 
L 9.8125 0 
z
" id="DejaVuSans-4e"/>
      <path d="M 48.6875 27.296875 
Q 48.6875 37.203125 44.609375 42.84375 
Q 40.53125 48.484375 33.40625 48.484375 
Q 26.265625 48.484375 22.1875 42.84375 
Q 18.109375 37.203125 18.109375 27.296875 
Q 18.109375 17.390625 22.1875 11.75 
Q 26.265625 6.109375 33.40625 6.109375 
Q 40.53125 6.109375 44.609375 11.75 
Q 48.6875 17.390625 48.6875 27.296875 
z
M 18.109375 46.390625 
Q 20.953125 51.265625 25.265625 53.625 
Q 29.59375 56 35.59375 56 
Q 45.5625 56 51.78125 48.09375 
Q 58.015625 40.1875 58.015625 27.296875 
Q 58.015625 14.40625 51.78125 6.484375 
Q 45.5625 -1.421875 35.59375 -1.421875 
Q 29.59375 -1.421875 25.265625 0.953125 
Q 20.953125 3.328125 18.109375 8.203125 
L 18.109375 0 
L 9.078125 0 
L 9.078125 75.984375 
L 18.109375 75.984375 
z
" id="DejaVuSans-62"/>
      <path d="M 41.109375 46.296875 
Q 39.59375 47.171875 37.8125 47.578125 
Q 36.03125 48 33.890625 48 
Q 26.265625 48 22.1875 43.046875 
Q 18.109375 38.09375 18.109375 28.8125 
L 18.109375 0 
L 9.078125 0 
L 9.078125 54.6875 
L 18.109375 54.6875 
L 18.109375 46.1875 
Q 20.953125 51.171875 25.484375 53.578125 
Q 30.03125 56 36.53125 56 
Q 37.453125 56 38.578125 55.875 
Q 39.703125 55.765625 41.0625 55.515625 
z
" id="DejaVuSans-72"/>
      <path d="M 37.109375 75.984375 
L 37.109375 68.5 
L 28.515625 68.5 
Q 23.6875 68.5 21.796875 66.546875 
Q 19.921875 64.59375 19.921875 59.515625 
L 19.921875 54.6875 
L 34.71875 54.6875 
L 34.71875 47.703125 
L 19.921875 47.703125 
L 19.921875 0 
L 10.890625 0 
L 10.890625 47.703125 
L 2.296875 47.703125 
L 2.296875 54.6875 
L 10.890625 54.6875 
L 10.890625 58.5 
Q 10.890625 67.625 15.140625 71.796875 
Q 19.390625 75.984375 28.609375 75.984375 
z
" id="DejaVuSans-66"/>
      <path d="M 18.109375 8.203125 
L 18.109375 -20.796875 
L 9.078125 -20.796875 
L 9.078125 54.6875 
L 18.109375 54.6875 
L 18.109375 46.390625 
Q 20.953125 51.265625 25.265625 53.625 
Q 29.59375 56 35.59375 56 
Q 45.5625 56 51.78125 48.09375 
Q 58.015625 40.1875 58.015625 27.296875 
Q 58.015625 14.40625 51.78125 6.484375 
Q 45.5625 -1.421875 35.59375 -1.421875 
Q 29.59375 -1.421875 25.265625 0.953125 
Q 20.953125 3.328125 18.109375 8.203125 
z
M 48.6875 27.296875 
Q 48.6875 37.203125 44.609375 42.84375 
Q 40.53125 48.484375 33.40625 48.484375 
Q 26.265625 48.484375 22.1875 42.84375 
Q 18.109375 37.203125 18.109375 27.296875 
Q 18.109375 17.390625 22.1875 11.75 
Q 26.265625 6.109375 33.40625 6.109375 
Q 40.53125 6.109375 44.609375 11.75 
Q 48.6875 17.390625 48.6875 27.296875 
z
" id="DejaVuSans-70"/>
     </defs>
     <g transform="translate(31.795312 233.814719)rotate(-90)scale(0.1 -0.1)">
      <use xlink:href="#DejaVuSans-4e"/>
      <use x="74.804688" xlink:href="#DejaVuSans-75"/>
      <use x="138.183594" xlink:href="#DejaVuSans-6d"/>
      <use x="235.595703" xlink:href="#DejaVuSans-62"/>
      <use x="299.072266" xlink:href="#DejaVuSans-65"/>
      <use x="360.595703" xlink:href="#DejaVuSans-72"/>
      <use x="401.708984" xlink:href="#DejaVuSans-20"/>
      <use x="433.496094" xlink:href="#DejaVuSans-6f"/>
      <use x="494.677734" xlink:href="#DejaVuSans-66"/>
      <use x="529.882812" xlink:href="#DejaVuSans-20"/>
      <use x="561.669922" xlink:href="#DejaVuSans-63"/>
      <use x="616.650391" xlink:href="#DejaVuSans-6f"/>
      <use x="677.832031" xlink:href="#DejaVuSans-72"/>
      <use x="718.914062" xlink:href="#DejaVuSans-65"/>
      <use x="780.4375" xlink:href="#DejaVuSans-20"/>
      <use x="812.224609" xlink:href="#DejaVuSans-73"/>
      <use x="864.324219" xlink:href="#DejaVuSans-70"/>
      <use x="927.800781" xlink:href="#DejaVuSans-65"/>
      <use x="989.324219" xlink:href="#DejaVuSans-63"/>
      <use x="1044.304688" xlink:href="#DejaVuSans-69"/>
      <use x="1072.087891" xlink:href="#DejaVuSans-65"/>
      <use x="1133.611328" xlink:href="#DejaVuSans-73"/>
     </g>
    </g>
   </g>
   <g id="line2d_25">
    <path clip-path="url(#p66b5b29bef)" d="M 73.832727 295.488 
L 78.590354 292.537756 
L 99.640313 286.637268 
L 111.820478 280.73678 
L 116.357477 277.786537 
L 119.843443 274.836293 
L 126.239693 271.886049 
L 135.204051 268.935805 
L 142.754523 265.985561 
L 145.373767 263.035317 
L 152.482398 260.085073 
L 154.422457 257.134829 
L 162.795771 254.184585 
L 172.800626 248.284098 
L 180.372116 245.333854 
L 183.485723 242.38361 
L 188.816463 239.433366 
L 190.700723 236.483122 
L 193.849727 236.483122 
L 196.107961 230.582634 
L 206.556205 230.582634 
L 213.001314 227.63239 
L 216.478634 224.682146 
L 219.479067 221.731902 
L 221.515754 218.781659 
L 223.346338 215.831415 
L 225.460419 215.831415 
L 227.235985 212.881171 
L 239.929294 212.881171 
L 243.191352 209.930927 
L 245.185023 206.980683 
L 249.89493 206.980683 
L 251.375786 204.030439 
L 254.951065 204.030439 
L 256.287824 198.129951 
L 257.900723 195.179707 
L 259.163262 195.179707 
L 264.772824 192.229463 
L 266.276627 189.27922 
L 272.246339 189.27922 
L 276.254697 186.328976 
L 277.722605 183.378732 
L 284.35436 183.378732 
L 289.159235 180.428488 
L 290.44185 177.478244 
L 296.60719 177.478244 
L 300.06415 168.627512 
L 309.317057 168.627512 
L 310.539791 165.677268 
L 313.662373 165.677268 
L 314.692217 162.727024 
L 318.501063 162.727024 
L 319.574511 159.77678 
L 321.771645 159.77678 
L 322.791717 156.826537 
L 323.826046 156.826537 
L 324.755172 153.876293 
L 330.696201 153.876293 
L 331.640241 150.926049 
L 332.582608 150.926049 
L 334.452009 147.975805 
L 336.280791 142.075317 
L 338.550986 142.075317 
L 339.352387 139.125073 
L 341.865771 139.125073 
L 342.674015 136.174829 
L 343.546386 136.174829 
L 344.3979 133.224585 
L 351.552183 133.224585 
L 352.361151 130.274341 
L 354.020979 130.274341 
L 354.770422 127.324098 
L 355.571728 127.324098 
L 356.332387 124.373854 
L 360.885783 124.373854 
L 362.573405 118.473366 
L 363.484956 115.523122 
L 364.196929 112.572878 
L 365.043435 112.572878 
L 366.833524 109.622634 
L 367.527874 106.67239 
L 369.152575 106.67239 
L 369.844393 103.722146 
L 371.541933 103.722146 
L 372.556493 100.771902 
L 373.194989 97.821659 
L 374.562068 97.821659 
L 375.239926 94.871415 
L 379.625948 94.871415 
L 380.26358 91.921171 
L 380.931613 91.921171 
L 382.001653 86.020683 
L 383.416478 83.070439 
L 384.74954 77.169951 
L 386.707034 77.169951 
L 387.335762 74.219707 
L 390.469744 74.219707 
L 391.103888 71.269463 
L 393.486721 71.269463 
L 394.091909 68.31922 
L 394.748744 68.31922 
L 395.345165 65.368976 
L 395.985478 65.368976 
L 396.733415 62.418732 
L 397.326726 56.518244 
L 397.907609 53.568 
L 398.487273 53.568 
L 398.487273 53.568 
" style="fill:none;stroke:#0000ff;stroke-linecap:square;stroke-width:1.5;"/>
    <defs>
     <path d="M 0 3 
C 0.795609 3 1.55874 2.683901 2.12132 2.12132 
C 2.683901 1.55874 3 0.795609 3 0 
C 3 -0.795609 2.683901 -1.55874 2.12132 -2.12132 
C 1.55874 -2.683901 0.795609 -3 0 -3 
C -0.795609 -3 -1.55874 -2.683901 -2.12132 -2.12132 
C -2.683901 -1.55874 -3 -0.795609 -3 0 
C -3 0.795609 -2.683901 1.55874 -2.12132 2.12132 
C -1.55874 2.683901 -0.795609 3 0 3 
z
" id="m5fd671990c" style="stroke:#0000ff;"/>
    </defs>
    <g clip-path="url(#p66b5b29bef)">
     <use style="fill:#0000ff;stroke:#0000ff;" x="73.832727" xlink:href="#m5fd671990c" y="295.488"/>
     <use style="fill:#0000ff;stroke:#0000ff;" x="78.590354" xlink:href="#m5fd671990c" y="292.537756"/>
     <use style="fill:#0000ff;stroke:#0000ff;" x="99.640313" xlink:href="#m5fd671990c" y="286.637268"/>
     <use style="fill:#0000ff;stroke:#0000ff;" x="111.820478" xlink:href="#m5fd671990c" y="280.73678"/>
     <use style="fill:#0000ff;stroke:#0000ff;" x="116.357477" xlink:href="#m5fd671990c" y="277.786537"/>
     <use style="fill:#0000ff;stroke:#0000ff;" x="119.843443" xlink:href="#m5fd671990c" y="274.836293"/>
     <use style="fill:#0000ff;stroke:#0000ff;" x="126.239693" xlink:href="#m5fd671990c" y="271.886049"/>
     <use style="fill:#0000ff;stroke:#0000ff;" x="135.204051" xlink:href="#m5fd671990c" y="268.935805"/>
     <use style="fill:#0000ff;stroke:#0000ff;" x="142.754523" xlink:href="#m5fd671990c" y="265.985561"/>
     <use style="fill:#0000ff;stroke:#0000ff;" x="145.373767" xlink:href="#m5fd671990c" y="263.035317"/>
     <use style="fill:#0000ff;stroke:#0000ff;" x="152.482398" xlink:href="#m5fd671990c" y="260.085073"/>
     <use style="fill:#0000ff;stroke:#0000ff;" x="154.422457" xlink:href="#m5fd671990c" y="257.134829"/>
     <use style="fill:#0000ff;stroke:#0000ff;" x="162.795771" xlink:href="#m5fd671990c" y="254.184585"/>
     <use style="fill:#0000ff;stroke:#0000ff;" x="172.800626" xlink:href="#m5fd671990c" y="248.284098"/>
     <use style="fill:#0000ff;stroke:#0000ff;" x="180.372116" xlink:href="#m5fd671990c" y="245.333854"/>
     <use style="fill:#0000ff;stroke:#0000ff;" x="183.485723" xlink:href="#m5fd671990c" y="242.38361"/>
     <use style="fill:#0000ff;stroke:#0000ff;" x="188.816463" xlink:href="#m5fd671990c" y="239.433366"/>
     <use style="fill:#0000ff;stroke:#0000ff;" x="190.700723" xlink:href="#m5fd671990c" y="236.483122"/>
     <use style="fill:#0000ff;stroke:#0000ff;" x="193.849727" xlink:href="#m5fd671990c" y="236.483122"/>
     <use style="fill:#0000ff;stroke:#0000ff;" x="196.107961" xlink:href="#m5fd671990c" y="230.582634"/>
     <use style="fill:#0000ff;stroke:#0000ff;" x="206.556205" xlink:href="#m5fd671990c" y="230.582634"/>
     <use style="fill:#0000ff;stroke:#0000ff;" x="213.001314" xlink:href="#m5fd671990c" y="227.63239"/>
     <use style="fill:#0000ff;stroke:#0000ff;" x="216.478634" xlink:href="#m5fd671990c" y="224.682146"/>
     <use style="fill:#0000ff;stroke:#0000ff;" x="219.479067" xlink:href="#m5fd671990c" y="221.731902"/>
     <use style="fill:#0000ff;stroke:#0000ff;" x="221.515754" xlink:href="#m5fd671990c" y="218.781659"/>
     <use style="fill:#0000ff;stroke:#0000ff;" x="223.346338" xlink:href="#m5fd671990c" y="215.831415"/>
     <use style="fill:#0000ff;stroke:#0000ff;" x="225.460419" xlink:href="#m5fd671990c" y="215.831415"/>
     <use style="fill:#0000ff;stroke:#0000ff;" x="227.235985" xlink:href="#m5fd671990c" y="212.881171"/>
     <use style="fill:#0000ff;stroke:#0000ff;" x="229.23516" xlink:href="#m5fd671990c" y="212.881171"/>
     <use style="fill:#0000ff;stroke:#0000ff;" x="230.998541" xlink:href="#m5fd671990c" y="212.881171"/>
     <use style="fill:#0000ff;stroke:#0000ff;" x="232.630778" xlink:href="#m5fd671990c" y="212.881171"/>
     <use style="fill:#0000ff;stroke:#0000ff;" x="234.167447" xlink:href="#m5fd671990c" y="212.881171"/>
     <use style="fill:#0000ff;stroke:#0000ff;" x="235.765812" xlink:href="#m5fd671990c" y="212.881171"/>
     <use style="fill:#0000ff;stroke:#0000ff;" x="237.384996" xlink:href="#m5fd671990c" y="212.881171"/>
     <use style="fill:#0000ff;stroke:#0000ff;" x="239.929294" xlink:href="#m5fd671990c" y="212.881171"/>
     <use style="fill:#0000ff;stroke:#0000ff;" x="243.191352" xlink:href="#m5fd671990c" y="209.930927"/>
     <use style="fill:#0000ff;stroke:#0000ff;" x="245.185023" xlink:href="#m5fd671990c" y="206.980683"/>
     <use style="fill:#0000ff;stroke:#0000ff;" x="246.719374" xlink:href="#m5fd671990c" y="206.980683"/>
     <use style="fill:#0000ff;stroke:#0000ff;" x="248.178941" xlink:href="#m5fd671990c" y="206.980683"/>
     <use style="fill:#0000ff;stroke:#0000ff;" x="249.89493" xlink:href="#m5fd671990c" y="206.980683"/>
     <use style="fill:#0000ff;stroke:#0000ff;" x="251.375786" xlink:href="#m5fd671990c" y="204.030439"/>
     <use style="fill:#0000ff;stroke:#0000ff;" x="252.681731" xlink:href="#m5fd671990c" y="204.030439"/>
     <use style="fill:#0000ff;stroke:#0000ff;" x="254.951065" xlink:href="#m5fd671990c" y="204.030439"/>
     <use style="fill:#0000ff;stroke:#0000ff;" x="256.287824" xlink:href="#m5fd671990c" y="198.129951"/>
     <use style="fill:#0000ff;stroke:#0000ff;" x="257.900723" xlink:href="#m5fd671990c" y="195.179707"/>
     <use style="fill:#0000ff;stroke:#0000ff;" x="259.163262" xlink:href="#m5fd671990c" y="195.179707"/>
     <use style="fill:#0000ff;stroke:#0000ff;" x="264.772824" xlink:href="#m5fd671990c" y="192.229463"/>
     <use style="fill:#0000ff;stroke:#0000ff;" x="266.276627" xlink:href="#m5fd671990c" y="189.27922"/>
     <use style="fill:#0000ff;stroke:#0000ff;" x="267.814101" xlink:href="#m5fd671990c" y="189.27922"/>
     <use style="fill:#0000ff;stroke:#0000ff;" x="269.265777" xlink:href="#m5fd671990c" y="189.27922"/>
     <use style="fill:#0000ff;stroke:#0000ff;" x="270.665229" xlink:href="#m5fd671990c" y="189.27922"/>
     <use style="fill:#0000ff;stroke:#0000ff;" x="272.246339" xlink:href="#m5fd671990c" y="189.27922"/>
     <use style="fill:#0000ff;stroke:#0000ff;" x="276.254697" xlink:href="#m5fd671990c" y="186.328976"/>
     <use style="fill:#0000ff;stroke:#0000ff;" x="277.722605" xlink:href="#m5fd671990c" y="183.378732"/>
     <use style="fill:#0000ff;stroke:#0000ff;" x="278.987867" xlink:href="#m5fd671990c" y="183.378732"/>
     <use style="fill:#0000ff;stroke:#0000ff;" x="280.393902" xlink:href="#m5fd671990c" y="183.378732"/>
     <use style="fill:#0000ff;stroke:#0000ff;" x="281.82879" xlink:href="#m5fd671990c" y="183.378732"/>
     <use style="fill:#0000ff;stroke:#0000ff;" x="282.977214" xlink:href="#m5fd671990c" y="183.378732"/>
     <use style="fill:#0000ff;stroke:#0000ff;" x="284.35436" xlink:href="#m5fd671990c" y="183.378732"/>
     <use style="fill:#0000ff;stroke:#0000ff;" x="289.159235" xlink:href="#m5fd671990c" y="180.428488"/>
     <use style="fill:#0000ff;stroke:#0000ff;" x="290.44185" xlink:href="#m5fd671990c" y="177.478244"/>
     <use style="fill:#0000ff;stroke:#0000ff;" x="291.676621" xlink:href="#m5fd671990c" y="177.478244"/>
     <use style="fill:#0000ff;stroke:#0000ff;" x="292.901872" xlink:href="#m5fd671990c" y="177.478244"/>
     <use style="fill:#0000ff;stroke:#0000ff;" x="294.177006" xlink:href="#m5fd671990c" y="177.478244"/>
     <use style="fill:#0000ff;stroke:#0000ff;" x="296.60719" xlink:href="#m5fd671990c" y="177.478244"/>
     <use style="fill:#0000ff;stroke:#0000ff;" x="298.855152" xlink:href="#m5fd671990c" y="171.577756"/>
     <use style="fill:#0000ff;stroke:#0000ff;" x="300.06415" xlink:href="#m5fd671990c" y="168.627512"/>
     <use style="fill:#0000ff;stroke:#0000ff;" x="301.179012" xlink:href="#m5fd671990c" y="168.627512"/>
     <use style="fill:#0000ff;stroke:#0000ff;" x="302.3651" xlink:href="#m5fd671990c" y="168.627512"/>
     <use style="fill:#0000ff;stroke:#0000ff;" x="303.426031" xlink:href="#m5fd671990c" y="168.627512"/>
     <use style="fill:#0000ff;stroke:#0000ff;" x="304.81652" xlink:href="#m5fd671990c" y="168.627512"/>
     <use style="fill:#0000ff;stroke:#0000ff;" x="305.86472" xlink:href="#m5fd671990c" y="168.627512"/>
     <use style="fill:#0000ff;stroke:#0000ff;" x="307.035609" xlink:href="#m5fd671990c" y="168.627512"/>
     <use style="fill:#0000ff;stroke:#0000ff;" x="309.317057" xlink:href="#m5fd671990c" y="168.627512"/>
     <use style="fill:#0000ff;stroke:#0000ff;" x="310.539791" xlink:href="#m5fd671990c" y="165.677268"/>
     <use style="fill:#0000ff;stroke:#0000ff;" x="311.637151" xlink:href="#m5fd671990c" y="165.677268"/>
     <use style="fill:#0000ff;stroke:#0000ff;" x="313.662373" xlink:href="#m5fd671990c" y="165.677268"/>
     <use style="fill:#0000ff;stroke:#0000ff;" x="314.692217" xlink:href="#m5fd671990c" y="162.727024"/>
     <use style="fill:#0000ff;stroke:#0000ff;" x="315.625245" xlink:href="#m5fd671990c" y="162.727024"/>
     <use style="fill:#0000ff;stroke:#0000ff;" x="316.638759" xlink:href="#m5fd671990c" y="162.727024"/>
     <use style="fill:#0000ff;stroke:#0000ff;" x="318.501063" xlink:href="#m5fd671990c" y="162.727024"/>
     <use style="fill:#0000ff;stroke:#0000ff;" x="319.574511" xlink:href="#m5fd671990c" y="159.77678"/>
     <use style="fill:#0000ff;stroke:#0000ff;" x="320.622285" xlink:href="#m5fd671990c" y="159.77678"/>
     <use style="fill:#0000ff;stroke:#0000ff;" x="321.771645" xlink:href="#m5fd671990c" y="159.77678"/>
     <use style="fill:#0000ff;stroke:#0000ff;" x="322.791717" xlink:href="#m5fd671990c" y="156.826537"/>
     <use style="fill:#0000ff;stroke:#0000ff;" x="323.826046" xlink:href="#m5fd671990c" y="156.826537"/>
     <use style="fill:#0000ff;stroke:#0000ff;" x="324.755172" xlink:href="#m5fd671990c" y="153.876293"/>
     <use style="fill:#0000ff;stroke:#0000ff;" x="325.686556" xlink:href="#m5fd671990c" y="153.876293"/>
     <use style="fill:#0000ff;stroke:#0000ff;" x="326.586707" xlink:href="#m5fd671990c" y="153.876293"/>
     <use style="fill:#0000ff;stroke:#0000ff;" x="327.514971" xlink:href="#m5fd671990c" y="153.876293"/>
     <use style="fill:#0000ff;stroke:#0000ff;" x="328.42153" xlink:href="#m5fd671990c" y="153.876293"/>
     <use style="fill:#0000ff;stroke:#0000ff;" x="329.289317" xlink:href="#m5fd671990c" y="153.876293"/>
     <use style="fill:#0000ff;stroke:#0000ff;" x="330.696201" xlink:href="#m5fd671990c" y="153.876293"/>
     <use style="fill:#0000ff;stroke:#0000ff;" x="331.640241" xlink:href="#m5fd671990c" y="150.926049"/>
     <use style="fill:#0000ff;stroke:#0000ff;" x="332.582608" xlink:href="#m5fd671990c" y="150.926049"/>
     <use style="fill:#0000ff;stroke:#0000ff;" x="334.452009" xlink:href="#m5fd671990c" y="147.975805"/>
     <use style="fill:#0000ff;stroke:#0000ff;" x="335.357509" xlink:href="#m5fd671990c" y="145.025561"/>
     <use style="fill:#0000ff;stroke:#0000ff;" x="336.280791" xlink:href="#m5fd671990c" y="142.075317"/>
     <use style="fill:#0000ff;stroke:#0000ff;" x="337.176811" xlink:href="#m5fd671990c" y="142.075317"/>
     <use style="fill:#0000ff;stroke:#0000ff;" x="338.550986" xlink:href="#m5fd671990c" y="142.075317"/>
     <use style="fill:#0000ff;stroke:#0000ff;" x="339.352387" xlink:href="#m5fd671990c" y="139.125073"/>
     <use style="fill:#0000ff;stroke:#0000ff;" x="340.231102" xlink:href="#m5fd671990c" y="139.125073"/>
     <use style="fill:#0000ff;stroke:#0000ff;" x="341.058297" xlink:href="#m5fd671990c" y="139.125073"/>
     <use style="fill:#0000ff;stroke:#0000ff;" x="341.865771" xlink:href="#m5fd671990c" y="139.125073"/>
     <use style="fill:#0000ff;stroke:#0000ff;" x="342.674015" xlink:href="#m5fd671990c" y="136.174829"/>
     <use style="fill:#0000ff;stroke:#0000ff;" x="343.546386" xlink:href="#m5fd671990c" y="136.174829"/>
     <use style="fill:#0000ff;stroke:#0000ff;" x="344.3979" xlink:href="#m5fd671990c" y="133.224585"/>
     <use style="fill:#0000ff;stroke:#0000ff;" x="345.240783" xlink:href="#m5fd671990c" y="133.224585"/>
     <use style="fill:#0000ff;stroke:#0000ff;" x="346.049254" xlink:href="#m5fd671990c" y="133.224585"/>
     <use style="fill:#0000ff;stroke:#0000ff;" x="346.822656" xlink:href="#m5fd671990c" y="133.224585"/>
     <use style="fill:#0000ff;stroke:#0000ff;" x="351.552183" xlink:href="#m5fd671990c" y="133.224585"/>
     <use style="fill:#0000ff;stroke:#0000ff;" x="352.361151" xlink:href="#m5fd671990c" y="130.274341"/>
     <use style="fill:#0000ff;stroke:#0000ff;" x="353.235218" xlink:href="#m5fd671990c" y="130.274341"/>
     <use style="fill:#0000ff;stroke:#0000ff;" x="354.020979" xlink:href="#m5fd671990c" y="130.274341"/>
     <use style="fill:#0000ff;stroke:#0000ff;" x="354.770422" xlink:href="#m5fd671990c" y="127.324098"/>
     <use style="fill:#0000ff;stroke:#0000ff;" x="355.571728" xlink:href="#m5fd671990c" y="127.324098"/>
     <use style="fill:#0000ff;stroke:#0000ff;" x="356.332387" xlink:href="#m5fd671990c" y="124.373854"/>
     <use style="fill:#0000ff;stroke:#0000ff;" x="357.112214" xlink:href="#m5fd671990c" y="124.373854"/>
     <use style="fill:#0000ff;stroke:#0000ff;" x="357.856208" xlink:href="#m5fd671990c" y="124.373854"/>
     <use style="fill:#0000ff;stroke:#0000ff;" x="358.627888" xlink:href="#m5fd671990c" y="124.373854"/>
     <use style="fill:#0000ff;stroke:#0000ff;" x="359.350041" xlink:href="#m5fd671990c" y="124.373854"/>
     <use style="fill:#0000ff;stroke:#0000ff;" x="360.112278" xlink:href="#m5fd671990c" y="124.373854"/>
     <use style="fill:#0000ff;stroke:#0000ff;" x="360.885783" xlink:href="#m5fd671990c" y="124.373854"/>
     <use style="fill:#0000ff;stroke:#0000ff;" x="361.67931" xlink:href="#m5fd671990c" y="121.42361"/>
     <use style="fill:#0000ff;stroke:#0000ff;" x="362.573405" xlink:href="#m5fd671990c" y="118.473366"/>
     <use style="fill:#0000ff;stroke:#0000ff;" x="363.484956" xlink:href="#m5fd671990c" y="115.523122"/>
     <use style="fill:#0000ff;stroke:#0000ff;" x="364.196929" xlink:href="#m5fd671990c" y="112.572878"/>
     <use style="fill:#0000ff;stroke:#0000ff;" x="365.043435" xlink:href="#m5fd671990c" y="112.572878"/>
     <use style="fill:#0000ff;stroke:#0000ff;" x="366.833524" xlink:href="#m5fd671990c" y="109.622634"/>
     <use style="fill:#0000ff;stroke:#0000ff;" x="367.527874" xlink:href="#m5fd671990c" y="106.67239"/>
     <use style="fill:#0000ff;stroke:#0000ff;" x="368.268583" xlink:href="#m5fd671990c" y="106.67239"/>
     <use style="fill:#0000ff;stroke:#0000ff;" x="369.152575" xlink:href="#m5fd671990c" y="106.67239"/>
     <use style="fill:#0000ff;stroke:#0000ff;" x="369.844393" xlink:href="#m5fd671990c" y="103.722146"/>
     <use style="fill:#0000ff;stroke:#0000ff;" x="370.494412" xlink:href="#m5fd671990c" y="103.722146"/>
     <use style="fill:#0000ff;stroke:#0000ff;" x="371.541933" xlink:href="#m5fd671990c" y="103.722146"/>
     <use style="fill:#0000ff;stroke:#0000ff;" x="372.556493" xlink:href="#m5fd671990c" y="100.771902"/>
     <use style="fill:#0000ff;stroke:#0000ff;" x="373.194989" xlink:href="#m5fd671990c" y="97.821659"/>
     <use style="fill:#0000ff;stroke:#0000ff;" x="374.562068" xlink:href="#m5fd671990c" y="97.821659"/>
     <use style="fill:#0000ff;stroke:#0000ff;" x="375.239926" xlink:href="#m5fd671990c" y="94.871415"/>
     <use style="fill:#0000ff;stroke:#0000ff;" x="375.884159" xlink:href="#m5fd671990c" y="94.871415"/>
     <use style="fill:#0000ff;stroke:#0000ff;" x="376.51712" xlink:href="#m5fd671990c" y="94.871415"/>
     <use style="fill:#0000ff;stroke:#0000ff;" x="377.141922" xlink:href="#m5fd671990c" y="94.871415"/>
     <use style="fill:#0000ff;stroke:#0000ff;" x="377.758372" xlink:href="#m5fd671990c" y="94.871415"/>
     <use style="fill:#0000ff;stroke:#0000ff;" x="378.372346" xlink:href="#m5fd671990c" y="94.871415"/>
     <use style="fill:#0000ff;stroke:#0000ff;" x="379.625948" xlink:href="#m5fd671990c" y="94.871415"/>
     <use style="fill:#0000ff;stroke:#0000ff;" x="380.26358" xlink:href="#m5fd671990c" y="91.921171"/>
     <use style="fill:#0000ff;stroke:#0000ff;" x="380.931613" xlink:href="#m5fd671990c" y="91.921171"/>
     <use style="fill:#0000ff;stroke:#0000ff;" x="382.001653" xlink:href="#m5fd671990c" y="86.020683"/>
     <use style="fill:#0000ff;stroke:#0000ff;" x="383.416478" xlink:href="#m5fd671990c" y="83.070439"/>
     <use style="fill:#0000ff;stroke:#0000ff;" x="384.099909" xlink:href="#m5fd671990c" y="80.120195"/>
     <use style="fill:#0000ff;stroke:#0000ff;" x="384.74954" xlink:href="#m5fd671990c" y="77.169951"/>
     <use style="fill:#0000ff;stroke:#0000ff;" x="385.423785" xlink:href="#m5fd671990c" y="77.169951"/>
     <use style="fill:#0000ff;stroke:#0000ff;" x="386.066797" xlink:href="#m5fd671990c" y="77.169951"/>
     <use style="fill:#0000ff;stroke:#0000ff;" x="386.707034" xlink:href="#m5fd671990c" y="77.169951"/>
     <use style="fill:#0000ff;stroke:#0000ff;" x="387.335762" xlink:href="#m5fd671990c" y="74.219707"/>
     <use style="fill:#0000ff;stroke:#0000ff;" x="387.972033" xlink:href="#m5fd671990c" y="74.219707"/>
     <use style="fill:#0000ff;stroke:#0000ff;" x="388.595888" xlink:href="#m5fd671990c" y="74.219707"/>
     <use style="fill:#0000ff;stroke:#0000ff;" x="389.221683" xlink:href="#m5fd671990c" y="74.219707"/>
     <use style="fill:#0000ff;stroke:#0000ff;" x="389.832597" xlink:href="#m5fd671990c" y="74.219707"/>
     <use style="fill:#0000ff;stroke:#0000ff;" x="390.469744" xlink:href="#m5fd671990c" y="74.219707"/>
     <use style="fill:#0000ff;stroke:#0000ff;" x="391.103888" xlink:href="#m5fd671990c" y="71.269463"/>
     <use style="fill:#0000ff;stroke:#0000ff;" x="391.704374" xlink:href="#m5fd671990c" y="71.269463"/>
     <use style="fill:#0000ff;stroke:#0000ff;" x="392.291413" xlink:href="#m5fd671990c" y="71.269463"/>
     <use style="fill:#0000ff;stroke:#0000ff;" x="393.486721" xlink:href="#m5fd671990c" y="71.269463"/>
     <use style="fill:#0000ff;stroke:#0000ff;" x="394.091909" xlink:href="#m5fd671990c" y="68.31922"/>
     <use style="fill:#0000ff;stroke:#0000ff;" x="394.748744" xlink:href="#m5fd671990c" y="68.31922"/>
     <use style="fill:#0000ff;stroke:#0000ff;" x="395.345165" xlink:href="#m5fd671990c" y="65.368976"/>
     <use style="fill:#0000ff;stroke:#0000ff;" x="395.985478" xlink:href="#m5fd671990c" y="65.368976"/>
     <use style="fill:#0000ff;stroke:#0000ff;" x="396.733415" xlink:href="#m5fd671990c" y="62.418732"/>
     <use style="fill:#0000ff;stroke:#0000ff;" x="397.326726" xlink:href="#m5fd671990c" y="56.518244"/>
     <use style="fill:#0000ff;stroke:#0000ff;" x="397.907609" xlink:href="#m5fd671990c" y="53.568"/>
     <use style="fill:#0000ff;stroke:#0000ff;" x="398.487273" xlink:href="#m5fd671990c" y="53.568"/>
    </g>
   </g>
   <g id="patch_3">
    <path d="M 57.6 307.584 
L 57.6 41.472 
" style="fill:none;stroke:#000000;stroke-linecap:square;stroke-linejoin:miter;stroke-width:0.8;"/>
   </g>
   <g id="patch_4">
    <path d="M 414.72 307.584 
L 414.72 41.472 
" style="fill:none;stroke:#000000;stroke-linecap:square;stroke-linejoin:miter;stroke-width:0.8;"/>
   </g>
   <g id="patch_5">
    <path d="M 57.6 307.584 
L 414.72 307.584 
" style="fill:none;stroke:#000000;stroke-linecap:square;stroke-linejoin:miter;stroke-width:0.8;"/>
   </g>
   <g id="patch_6">
    <path d="M 57.6 41.472 
L 414.72 41.472 
" style="fill:none;stroke:#000000;stroke-linecap:square;stroke-linejoin:miter;stroke-width:0.8;"/>
   </g>
  </g>
  <g id="axes_2">
   <g id="matplotlib.axis_3">
    <g id="ytick_5">
     <g id="line2d_26">
      <defs>
       <path d="M 0 0 
L 3.5 0 
" id="mad72d11fc9" style="stroke:#000000;stroke-width:0.8;"/>
      </defs>
      <g>
       <use style="stroke:#000000;stroke-width:0.8;" x="414.72" xlink:href="#mad72d11fc9" y="295.488"/>
      </g>
     </g>
     <g id="text_10">
      <!-- 0 -->
      <g transform="translate(421.72 299.287219)scale(0.1 -0.1)">
       <use xlink:href="#DejaVuSans-30"/>
      </g>
     </g>
    </g>
    <g id="ytick_6">
     <g id="line2d_27">
      <g>
       <use style="stroke:#000000;stroke-width:0.8;" x="414.72" xlink:href="#mad72d11fc9" y="257.209519"/>
      </g>
     </g>
     <g id="text_11">
      <!-- 50 -->
      <defs>
       <path d="M 10.796875 72.90625 
L 49.515625 72.90625 
L 49.515625 64.59375 
L 19.828125 64.59375 
L 19.828125 46.734375 
Q 21.96875 47.46875 24.109375 47.828125 
Q 26.265625 48.1875 28.421875 48.1875 
Q 40.625 48.1875 47.75 41.5 
Q 54.890625 34.8125 54.890625 23.390625 
Q 54.890625 11.625 47.5625 5.09375 
Q 40.234375 -1.421875 26.90625 -1.421875 
Q 22.3125 -1.421875 17.546875 -0.640625 
Q 12.796875 0.140625 7.71875 1.703125 
L 7.71875 11.625 
Q 12.109375 9.234375 16.796875 8.0625 
Q 21.484375 6.890625 26.703125 6.890625 
Q 35.15625 6.890625 40.078125 11.328125 
Q 45.015625 15.765625 45.015625 23.390625 
Q 45.015625 31 40.078125 35.4375 
Q 35.15625 39.890625 26.703125 39.890625 
Q 22.75 39.890625 18.8125 39.015625 
Q 14.890625 38.140625 10.796875 36.28125 
z
" id="DejaVuSans-35"/>
      </defs>
      <g transform="translate(421.72 261.008738)scale(0.1 -0.1)">
       <use xlink:href="#DejaVuSans-35"/>
       <use x="63.623047" xlink:href="#DejaVuSans-30"/>
      </g>
     </g>
    </g>
    <g id="ytick_7">
     <g id="line2d_28">
      <g>
       <use style="stroke:#000000;stroke-width:0.8;" x="414.72" xlink:href="#mad72d11fc9" y="218.931038"/>
      </g>
     </g>
     <g id="text_12">
      <!-- 100 -->
      <g transform="translate(421.72 222.730257)scale(0.1 -0.1)">
       <use xlink:href="#DejaVuSans-31"/>
       <use x="63.623047" xlink:href="#DejaVuSans-30"/>
       <use x="127.246094" xlink:href="#DejaVuSans-30"/>
      </g>
     </g>
    </g>
    <g id="ytick_8">
     <g id="line2d_29">
      <g>
       <use style="stroke:#000000;stroke-width:0.8;" x="414.72" xlink:href="#mad72d11fc9" y="180.652557"/>
      </g>
     </g>
     <g id="text_13">
      <!-- 150 -->
      <g transform="translate(421.72 184.451776)scale(0.1 -0.1)">
       <use xlink:href="#DejaVuSans-31"/>
       <use x="63.623047" xlink:href="#DejaVuSans-35"/>
       <use x="127.246094" xlink:href="#DejaVuSans-30"/>
      </g>
     </g>
    </g>
    <g id="ytick_9">
     <g id="line2d_30">
      <g>
       <use style="stroke:#000000;stroke-width:0.8;" x="414.72" xlink:href="#mad72d11fc9" y="142.374076"/>
      </g>
     </g>
     <g id="text_14">
      <!-- 200 -->
      <g transform="translate(421.72 146.173295)scale(0.1 -0.1)">
       <use xlink:href="#DejaVuSans-32"/>
       <use x="63.623047" xlink:href="#DejaVuSans-30"/>
       <use x="127.246094" xlink:href="#DejaVuSans-30"/>
      </g>
     </g>
    </g>
    <g id="ytick_10">
     <g id="line2d_31">
      <g>
       <use style="stroke:#000000;stroke-width:0.8;" x="414.72" xlink:href="#mad72d11fc9" y="104.095595"/>
      </g>
     </g>
     <g id="text_15">
      <!-- 250 -->
      <g transform="translate(421.72 107.894814)scale(0.1 -0.1)">
       <use xlink:href="#DejaVuSans-32"/>
       <use x="63.623047" xlink:href="#DejaVuSans-35"/>
       <use x="127.246094" xlink:href="#DejaVuSans-30"/>
      </g>
     </g>
    </g>
    <g id="ytick_11">
     <g id="line2d_32">
      <g>
       <use style="stroke:#000000;stroke-width:0.8;" x="414.72" xlink:href="#mad72d11fc9" y="65.817114"/>
      </g>
     </g>
     <g id="text_16">
      <!-- 300 -->
      <g transform="translate(421.72 69.616333)scale(0.1 -0.1)">
       <use xlink:href="#DejaVuSans-33"/>
       <use x="63.623047" xlink:href="#DejaVuSans-30"/>
       <use x="127.246094" xlink:href="#DejaVuSans-30"/>
      </g>
     </g>
    </g>
    <g id="text_17">
     <!-- Number of core reactions -->
     <defs>
      <path d="M 34.28125 27.484375 
Q 23.390625 27.484375 19.1875 25 
Q 14.984375 22.515625 14.984375 16.5 
Q 14.984375 11.71875 18.140625 8.90625 
Q 21.296875 6.109375 26.703125 6.109375 
Q 34.1875 6.109375 38.703125 11.40625 
Q 43.21875 16.703125 43.21875 25.484375 
L 43.21875 27.484375 
z
M 52.203125 31.203125 
L 52.203125 0 
L 43.21875 0 
L 43.21875 8.296875 
Q 40.140625 3.328125 35.546875 0.953125 
Q 30.953125 -1.421875 24.3125 -1.421875 
Q 15.921875 -1.421875 10.953125 3.296875 
Q 6 8.015625 6 15.921875 
Q 6 25.140625 12.171875 29.828125 
Q 18.359375 34.515625 30.609375 34.515625 
L 43.21875 34.515625 
L 43.21875 35.40625 
Q 43.21875 41.609375 39.140625 45 
Q 35.0625 48.390625 27.6875 48.390625 
Q 23 48.390625 18.546875 47.265625 
Q 14.109375 46.140625 10.015625 43.890625 
L 10.015625 52.203125 
Q 14.9375 54.109375 19.578125 55.046875 
Q 24.21875 56 28.609375 56 
Q 40.484375 56 46.34375 49.84375 
Q 52.203125 43.703125 52.203125 31.203125 
z
" id="DejaVuSans-61"/>
     </defs>
     <g transform="translate(452.405937 238.2655)rotate(-90)scale(0.1 -0.1)">
      <use xlink:href="#DejaVuSans-4e"/>
      <use x="74.804688" xlink:href="#DejaVuSans-75"/>
      <use x="138.183594" xlink:href="#DejaVuSans-6d"/>
      <use x="235.595703" xlink:href="#DejaVuSans-62"/>
      <use x="299.072266" xlink:href="#DejaVuSans-65"/>
      <use x="360.595703" xlink:href="#DejaVuSans-72"/>
      <use x="401.708984" xlink:href="#DejaVuSans-20"/>
      <use x="433.496094" xlink:href="#DejaVuSans-6f"/>
      <use x="494.677734" xlink:href="#DejaVuSans-66"/>
      <use x="529.882812" xlink:href="#DejaVuSans-20"/>
      <use x="561.669922" xlink:href="#DejaVuSans-63"/>
      <use x="616.650391" xlink:href="#DejaVuSans-6f"/>
      <use x="677.832031" xlink:href="#DejaVuSans-72"/>
      <use x="718.914062" xlink:href="#DejaVuSans-65"/>
      <use x="780.4375" xlink:href="#DejaVuSans-20"/>
      <use x="812.224609" xlink:href="#DejaVuSans-72"/>
      <use x="853.306641" xlink:href="#DejaVuSans-65"/>
      <use x="914.830078" xlink:href="#DejaVuSans-61"/>
      <use x="976.109375" xlink:href="#DejaVuSans-63"/>
      <use x="1031.089844" xlink:href="#DejaVuSans-74"/>
      <use x="1070.298828" xlink:href="#DejaVuSans-69"/>
      <use x="1098.082031" xlink:href="#DejaVuSans-6f"/>
      <use x="1159.263672" xlink:href="#DejaVuSans-6e"/>
      <use x="1222.642578" xlink:href="#DejaVuSans-73"/>
     </g>
    </g>
   </g>
   <g id="line2d_33">
    <path clip-path="url(#p66b5b29bef)" d="M 73.832727 295.488 
L 78.590354 294.72243 
L 99.640313 293.956861 
L 111.820478 292.425722 
L 116.357477 291.660152 
L 119.843443 290.894582 
L 126.239693 290.129013 
L 135.204051 287.066734 
L 142.754523 286.301165 
L 145.373767 285.535595 
L 152.482398 283.238886 
L 154.422457 282.473316 
L 162.795771 277.114329 
L 172.800626 276.348759 
L 180.372116 275.58319 
L 183.485723 274.81762 
L 188.816463 273.286481 
L 190.700723 272.520911 
L 193.849727 272.520911 
L 196.107961 270.224203 
L 206.556205 270.224203 
L 213.001314 265.630785 
L 216.478634 257.975089 
L 219.479067 252.616101 
L 221.515754 247.257114 
L 223.346338 246.491544 
L 225.460419 246.491544 
L 227.235985 245.725975 
L 239.929294 245.725975 
L 243.191352 238.835848 
L 245.185023 238.070278 
L 249.89493 238.070278 
L 251.375786 237.304709 
L 254.951065 237.304709 
L 256.287824 235.77357 
L 257.900723 235.008 
L 259.163262 235.008 
L 264.772824 234.24243 
L 266.276627 233.476861 
L 272.246339 233.476861 
L 276.254697 232.711291 
L 277.722605 226.586734 
L 282.977214 226.586734 
L 284.35436 225.821165 
L 289.159235 225.055595 
L 290.44185 216.634329 
L 294.177006 216.634329 
L 296.60719 215.868759 
L 298.855152 205.916354 
L 300.06415 198.260658 
L 309.317057 198.260658 
L 310.539791 179.121418 
L 313.662373 179.121418 
L 314.692217 177.590278 
L 316.638759 177.590278 
L 318.501063 172.996861 
L 319.574511 167.637873 
L 321.771645 167.637873 
L 322.791717 166.106734 
L 323.826046 166.106734 
L 324.755172 164.575595 
L 330.696201 164.575595 
L 331.640241 162.278886 
L 332.582608 162.278886 
L 334.452009 160.747747 
L 335.357509 158.451038 
L 336.280791 157.685468 
L 338.550986 157.685468 
L 339.352387 156.919899 
L 341.865771 156.919899 
L 342.674015 156.154329 
L 343.546386 156.154329 
L 344.3979 155.388759 
L 346.822656 155.388759 
L 351.552183 154.62319 
L 352.361151 153.85762 
L 354.020979 153.85762 
L 354.770422 152.326481 
L 355.571728 152.326481 
L 356.332387 150.795342 
L 360.885783 150.795342 
L 362.573405 149.264203 
L 363.484956 148.498633 
L 365.043435 146.967494 
L 366.833524 146.201924 
L 367.527874 145.436354 
L 368.268583 145.436354 
L 369.152575 144.670785 
L 369.844393 132.421671 
L 370.494412 132.421671 
L 371.541933 131.656101 
L 372.556493 118.641418 
L 373.194989 101.798886 
L 374.562068 101.798886 
L 375.239926 101.033316 
L 378.372346 101.033316 
L 379.625948 100.267747 
L 380.26358 84.956354 
L 380.931613 84.190785 
L 382.001653 83.425215 
L 383.416478 81.894076 
L 384.099909 65.817114 
L 384.74954 65.051544 
L 386.707034 65.051544 
L 387.335762 63.520405 
L 390.469744 63.520405 
L 391.103888 62.754835 
L 393.486721 62.754835 
L 394.091909 61.989266 
L 394.748744 61.989266 
L 395.345165 61.223696 
L 395.985478 61.223696 
L 396.733415 55.864709 
L 397.326726 54.33357 
L 397.907609 53.568 
L 398.487273 53.568 
L 398.487273 53.568 
" style="fill:none;stroke:#ff0000;stroke-linecap:square;stroke-width:1.5;"/>
    <defs>
     <path d="M 0 3 
C 0.795609 3 1.55874 2.683901 2.12132 2.12132 
C 2.683901 1.55874 3 0.795609 3 0 
C 3 -0.795609 2.683901 -1.55874 2.12132 -2.12132 
C 1.55874 -2.683901 0.795609 -3 0 -3 
C -0.795609 -3 -1.55874 -2.683901 -2.12132 -2.12132 
C -2.683901 -1.55874 -3 -0.795609 -3 0 
C -3 0.795609 -2.683901 1.55874 -2.12132 2.12132 
C -1.55874 2.683901 -0.795609 3 0 3 
z
" id="m3c745fdbc1" style="stroke:#ff0000;"/>
    </defs>
    <g clip-path="url(#p66b5b29bef)">
     <use style="fill:#ff0000;stroke:#ff0000;" x="73.832727" xlink:href="#m3c745fdbc1" y="295.488"/>
     <use style="fill:#ff0000;stroke:#ff0000;" x="78.590354" xlink:href="#m3c745fdbc1" y="294.72243"/>
     <use style="fill:#ff0000;stroke:#ff0000;" x="99.640313" xlink:href="#m3c745fdbc1" y="293.956861"/>
     <use style="fill:#ff0000;stroke:#ff0000;" x="111.820478" xlink:href="#m3c745fdbc1" y="292.425722"/>
     <use style="fill:#ff0000;stroke:#ff0000;" x="116.357477" xlink:href="#m3c745fdbc1" y="291.660152"/>
     <use style="fill:#ff0000;stroke:#ff0000;" x="119.843443" xlink:href="#m3c745fdbc1" y="290.894582"/>
     <use style="fill:#ff0000;stroke:#ff0000;" x="126.239693" xlink:href="#m3c745fdbc1" y="290.129013"/>
     <use style="fill:#ff0000;stroke:#ff0000;" x="135.204051" xlink:href="#m3c745fdbc1" y="287.066734"/>
     <use style="fill:#ff0000;stroke:#ff0000;" x="142.754523" xlink:href="#m3c745fdbc1" y="286.301165"/>
     <use style="fill:#ff0000;stroke:#ff0000;" x="145.373767" xlink:href="#m3c745fdbc1" y="285.535595"/>
     <use style="fill:#ff0000;stroke:#ff0000;" x="152.482398" xlink:href="#m3c745fdbc1" y="283.238886"/>
     <use style="fill:#ff0000;stroke:#ff0000;" x="154.422457" xlink:href="#m3c745fdbc1" y="282.473316"/>
     <use style="fill:#ff0000;stroke:#ff0000;" x="162.795771" xlink:href="#m3c745fdbc1" y="277.114329"/>
     <use style="fill:#ff0000;stroke:#ff0000;" x="172.800626" xlink:href="#m3c745fdbc1" y="276.348759"/>
     <use style="fill:#ff0000;stroke:#ff0000;" x="180.372116" xlink:href="#m3c745fdbc1" y="275.58319"/>
     <use style="fill:#ff0000;stroke:#ff0000;" x="183.485723" xlink:href="#m3c745fdbc1" y="274.81762"/>
     <use style="fill:#ff0000;stroke:#ff0000;" x="188.816463" xlink:href="#m3c745fdbc1" y="273.286481"/>
     <use style="fill:#ff0000;stroke:#ff0000;" x="190.700723" xlink:href="#m3c745fdbc1" y="272.520911"/>
     <use style="fill:#ff0000;stroke:#ff0000;" x="193.849727" xlink:href="#m3c745fdbc1" y="272.520911"/>
     <use style="fill:#ff0000;stroke:#ff0000;" x="196.107961" xlink:href="#m3c745fdbc1" y="270.224203"/>
     <use style="fill:#ff0000;stroke:#ff0000;" x="206.556205" xlink:href="#m3c745fdbc1" y="270.224203"/>
     <use style="fill:#ff0000;stroke:#ff0000;" x="213.001314" xlink:href="#m3c745fdbc1" y="265.630785"/>
     <use style="fill:#ff0000;stroke:#ff0000;" x="216.478634" xlink:href="#m3c745fdbc1" y="257.975089"/>
     <use style="fill:#ff0000;stroke:#ff0000;" x="219.479067" xlink:href="#m3c745fdbc1" y="252.616101"/>
     <use style="fill:#ff0000;stroke:#ff0000;" x="221.515754" xlink:href="#m3c745fdbc1" y="247.257114"/>
     <use style="fill:#ff0000;stroke:#ff0000;" x="223.346338" xlink:href="#m3c745fdbc1" y="246.491544"/>
     <use style="fill:#ff0000;stroke:#ff0000;" x="225.460419" xlink:href="#m3c745fdbc1" y="246.491544"/>
     <use style="fill:#ff0000;stroke:#ff0000;" x="227.235985" xlink:href="#m3c745fdbc1" y="245.725975"/>
     <use style="fill:#ff0000;stroke:#ff0000;" x="229.23516" xlink:href="#m3c745fdbc1" y="245.725975"/>
     <use style="fill:#ff0000;stroke:#ff0000;" x="230.998541" xlink:href="#m3c745fdbc1" y="245.725975"/>
     <use style="fill:#ff0000;stroke:#ff0000;" x="232.630778" xlink:href="#m3c745fdbc1" y="245.725975"/>
     <use style="fill:#ff0000;stroke:#ff0000;" x="234.167447" xlink:href="#m3c745fdbc1" y="245.725975"/>
     <use style="fill:#ff0000;stroke:#ff0000;" x="235.765812" xlink:href="#m3c745fdbc1" y="245.725975"/>
     <use style="fill:#ff0000;stroke:#ff0000;" x="237.384996" xlink:href="#m3c745fdbc1" y="245.725975"/>
     <use style="fill:#ff0000;stroke:#ff0000;" x="239.929294" xlink:href="#m3c745fdbc1" y="245.725975"/>
     <use style="fill:#ff0000;stroke:#ff0000;" x="243.191352" xlink:href="#m3c745fdbc1" y="238.835848"/>
     <use style="fill:#ff0000;stroke:#ff0000;" x="245.185023" xlink:href="#m3c745fdbc1" y="238.070278"/>
     <use style="fill:#ff0000;stroke:#ff0000;" x="246.719374" xlink:href="#m3c745fdbc1" y="238.070278"/>
     <use style="fill:#ff0000;stroke:#ff0000;" x="248.178941" xlink:href="#m3c745fdbc1" y="238.070278"/>
     <use style="fill:#ff0000;stroke:#ff0000;" x="249.89493" xlink:href="#m3c745fdbc1" y="238.070278"/>
     <use style="fill:#ff0000;stroke:#ff0000;" x="251.375786" xlink:href="#m3c745fdbc1" y="237.304709"/>
     <use style="fill:#ff0000;stroke:#ff0000;" x="252.681731" xlink:href="#m3c745fdbc1" y="237.304709"/>
     <use style="fill:#ff0000;stroke:#ff0000;" x="254.951065" xlink:href="#m3c745fdbc1" y="237.304709"/>
     <use style="fill:#ff0000;stroke:#ff0000;" x="256.287824" xlink:href="#m3c745fdbc1" y="235.77357"/>
     <use style="fill:#ff0000;stroke:#ff0000;" x="257.900723" xlink:href="#m3c745fdbc1" y="235.008"/>
     <use style="fill:#ff0000;stroke:#ff0000;" x="259.163262" xlink:href="#m3c745fdbc1" y="235.008"/>
     <use style="fill:#ff0000;stroke:#ff0000;" x="264.772824" xlink:href="#m3c745fdbc1" y="234.24243"/>
     <use style="fill:#ff0000;stroke:#ff0000;" x="266.276627" xlink:href="#m3c745fdbc1" y="233.476861"/>
     <use style="fill:#ff0000;stroke:#ff0000;" x="267.814101" xlink:href="#m3c745fdbc1" y="233.476861"/>
     <use style="fill:#ff0000;stroke:#ff0000;" x="269.265777" xlink:href="#m3c745fdbc1" y="233.476861"/>
     <use style="fill:#ff0000;stroke:#ff0000;" x="270.665229" xlink:href="#m3c745fdbc1" y="233.476861"/>
     <use style="fill:#ff0000;stroke:#ff0000;" x="272.246339" xlink:href="#m3c745fdbc1" y="233.476861"/>
     <use style="fill:#ff0000;stroke:#ff0000;" x="276.254697" xlink:href="#m3c745fdbc1" y="232.711291"/>
     <use style="fill:#ff0000;stroke:#ff0000;" x="277.722605" xlink:href="#m3c745fdbc1" y="226.586734"/>
     <use style="fill:#ff0000;stroke:#ff0000;" x="278.987867" xlink:href="#m3c745fdbc1" y="226.586734"/>
     <use style="fill:#ff0000;stroke:#ff0000;" x="280.393902" xlink:href="#m3c745fdbc1" y="226.586734"/>
     <use style="fill:#ff0000;stroke:#ff0000;" x="281.82879" xlink:href="#m3c745fdbc1" y="226.586734"/>
     <use style="fill:#ff0000;stroke:#ff0000;" x="282.977214" xlink:href="#m3c745fdbc1" y="226.586734"/>
     <use style="fill:#ff0000;stroke:#ff0000;" x="284.35436" xlink:href="#m3c745fdbc1" y="225.821165"/>
     <use style="fill:#ff0000;stroke:#ff0000;" x="289.159235" xlink:href="#m3c745fdbc1" y="225.055595"/>
     <use style="fill:#ff0000;stroke:#ff0000;" x="290.44185" xlink:href="#m3c745fdbc1" y="216.634329"/>
     <use style="fill:#ff0000;stroke:#ff0000;" x="291.676621" xlink:href="#m3c745fdbc1" y="216.634329"/>
     <use style="fill:#ff0000;stroke:#ff0000;" x="292.901872" xlink:href="#m3c745fdbc1" y="216.634329"/>
     <use style="fill:#ff0000;stroke:#ff0000;" x="294.177006" xlink:href="#m3c745fdbc1" y="216.634329"/>
     <use style="fill:#ff0000;stroke:#ff0000;" x="296.60719" xlink:href="#m3c745fdbc1" y="215.868759"/>
     <use style="fill:#ff0000;stroke:#ff0000;" x="298.855152" xlink:href="#m3c745fdbc1" y="205.916354"/>
     <use style="fill:#ff0000;stroke:#ff0000;" x="300.06415" xlink:href="#m3c745fdbc1" y="198.260658"/>
     <use style="fill:#ff0000;stroke:#ff0000;" x="301.179012" xlink:href="#m3c745fdbc1" y="198.260658"/>
     <use style="fill:#ff0000;stroke:#ff0000;" x="302.3651" xlink:href="#m3c745fdbc1" y="198.260658"/>
     <use style="fill:#ff0000;stroke:#ff0000;" x="303.426031" xlink:href="#m3c745fdbc1" y="198.260658"/>
     <use style="fill:#ff0000;stroke:#ff0000;" x="304.81652" xlink:href="#m3c745fdbc1" y="198.260658"/>
     <use style="fill:#ff0000;stroke:#ff0000;" x="305.86472" xlink:href="#m3c745fdbc1" y="198.260658"/>
     <use style="fill:#ff0000;stroke:#ff0000;" x="307.035609" xlink:href="#m3c745fdbc1" y="198.260658"/>
     <use style="fill:#ff0000;stroke:#ff0000;" x="309.317057" xlink:href="#m3c745fdbc1" y="198.260658"/>
     <use style="fill:#ff0000;stroke:#ff0000;" x="310.539791" xlink:href="#m3c745fdbc1" y="179.121418"/>
     <use style="fill:#ff0000;stroke:#ff0000;" x="311.637151" xlink:href="#m3c745fdbc1" y="179.121418"/>
     <use style="fill:#ff0000;stroke:#ff0000;" x="313.662373" xlink:href="#m3c745fdbc1" y="179.121418"/>
     <use style="fill:#ff0000;stroke:#ff0000;" x="314.692217" xlink:href="#m3c745fdbc1" y="177.590278"/>
     <use style="fill:#ff0000;stroke:#ff0000;" x="315.625245" xlink:href="#m3c745fdbc1" y="177.590278"/>
     <use style="fill:#ff0000;stroke:#ff0000;" x="316.638759" xlink:href="#m3c745fdbc1" y="177.590278"/>
     <use style="fill:#ff0000;stroke:#ff0000;" x="318.501063" xlink:href="#m3c745fdbc1" y="172.996861"/>
     <use style="fill:#ff0000;stroke:#ff0000;" x="319.574511" xlink:href="#m3c745fdbc1" y="167.637873"/>
     <use style="fill:#ff0000;stroke:#ff0000;" x="320.622285" xlink:href="#m3c745fdbc1" y="167.637873"/>
     <use style="fill:#ff0000;stroke:#ff0000;" x="321.771645" xlink:href="#m3c745fdbc1" y="167.637873"/>
     <use style="fill:#ff0000;stroke:#ff0000;" x="322.791717" xlink:href="#m3c745fdbc1" y="166.106734"/>
     <use style="fill:#ff0000;stroke:#ff0000;" x="323.826046" xlink:href="#m3c745fdbc1" y="166.106734"/>
     <use style="fill:#ff0000;stroke:#ff0000;" x="324.755172" xlink:href="#m3c745fdbc1" y="164.575595"/>
     <use style="fill:#ff0000;stroke:#ff0000;" x="325.686556" xlink:href="#m3c745fdbc1" y="164.575595"/>
     <use style="fill:#ff0000;stroke:#ff0000;" x="326.586707" xlink:href="#m3c745fdbc1" y="164.575595"/>
     <use style="fill:#ff0000;stroke:#ff0000;" x="327.514971" xlink:href="#m3c745fdbc1" y="164.575595"/>
     <use style="fill:#ff0000;stroke:#ff0000;" x="328.42153" xlink:href="#m3c745fdbc1" y="164.575595"/>
     <use style="fill:#ff0000;stroke:#ff0000;" x="329.289317" xlink:href="#m3c745fdbc1" y="164.575595"/>
     <use style="fill:#ff0000;stroke:#ff0000;" x="330.696201" xlink:href="#m3c745fdbc1" y="164.575595"/>
     <use style="fill:#ff0000;stroke:#ff0000;" x="331.640241" xlink:href="#m3c745fdbc1" y="162.278886"/>
     <use style="fill:#ff0000;stroke:#ff0000;" x="332.582608" xlink:href="#m3c745fdbc1" y="162.278886"/>
     <use style="fill:#ff0000;stroke:#ff0000;" x="334.452009" xlink:href="#m3c745fdbc1" y="160.747747"/>
     <use style="fill:#ff0000;stroke:#ff0000;" x="335.357509" xlink:href="#m3c745fdbc1" y="158.451038"/>
     <use style="fill:#ff0000;stroke:#ff0000;" x="336.280791" xlink:href="#m3c745fdbc1" y="157.685468"/>
     <use style="fill:#ff0000;stroke:#ff0000;" x="337.176811" xlink:href="#m3c745fdbc1" y="157.685468"/>
     <use style="fill:#ff0000;stroke:#ff0000;" x="338.550986" xlink:href="#m3c745fdbc1" y="157.685468"/>
     <use style="fill:#ff0000;stroke:#ff0000;" x="339.352387" xlink:href="#m3c745fdbc1" y="156.919899"/>
     <use style="fill:#ff0000;stroke:#ff0000;" x="340.231102" xlink:href="#m3c745fdbc1" y="156.919899"/>
     <use style="fill:#ff0000;stroke:#ff0000;" x="341.058297" xlink:href="#m3c745fdbc1" y="156.919899"/>
     <use style="fill:#ff0000;stroke:#ff0000;" x="341.865771" xlink:href="#m3c745fdbc1" y="156.919899"/>
     <use style="fill:#ff0000;stroke:#ff0000;" x="342.674015" xlink:href="#m3c745fdbc1" y="156.154329"/>
     <use style="fill:#ff0000;stroke:#ff0000;" x="343.546386" xlink:href="#m3c745fdbc1" y="156.154329"/>
     <use style="fill:#ff0000;stroke:#ff0000;" x="344.3979" xlink:href="#m3c745fdbc1" y="155.388759"/>
     <use style="fill:#ff0000;stroke:#ff0000;" x="345.240783" xlink:href="#m3c745fdbc1" y="155.388759"/>
     <use style="fill:#ff0000;stroke:#ff0000;" x="346.049254" xlink:href="#m3c745fdbc1" y="155.388759"/>
     <use style="fill:#ff0000;stroke:#ff0000;" x="346.822656" xlink:href="#m3c745fdbc1" y="155.388759"/>
     <use style="fill:#ff0000;stroke:#ff0000;" x="351.552183" xlink:href="#m3c745fdbc1" y="154.62319"/>
     <use style="fill:#ff0000;stroke:#ff0000;" x="352.361151" xlink:href="#m3c745fdbc1" y="153.85762"/>
     <use style="fill:#ff0000;stroke:#ff0000;" x="353.235218" xlink:href="#m3c745fdbc1" y="153.85762"/>
     <use style="fill:#ff0000;stroke:#ff0000;" x="354.020979" xlink:href="#m3c745fdbc1" y="153.85762"/>
     <use style="fill:#ff0000;stroke:#ff0000;" x="354.770422" xlink:href="#m3c745fdbc1" y="152.326481"/>
     <use style="fill:#ff0000;stroke:#ff0000;" x="355.571728" xlink:href="#m3c745fdbc1" y="152.326481"/>
     <use style="fill:#ff0000;stroke:#ff0000;" x="356.332387" xlink:href="#m3c745fdbc1" y="150.795342"/>
     <use style="fill:#ff0000;stroke:#ff0000;" x="357.112214" xlink:href="#m3c745fdbc1" y="150.795342"/>
     <use style="fill:#ff0000;stroke:#ff0000;" x="357.856208" xlink:href="#m3c745fdbc1" y="150.795342"/>
     <use style="fill:#ff0000;stroke:#ff0000;" x="358.627888" xlink:href="#m3c745fdbc1" y="150.795342"/>
     <use style="fill:#ff0000;stroke:#ff0000;" x="359.350041" xlink:href="#m3c745fdbc1" y="150.795342"/>
     <use style="fill:#ff0000;stroke:#ff0000;" x="360.112278" xlink:href="#m3c745fdbc1" y="150.795342"/>
     <use style="fill:#ff0000;stroke:#ff0000;" x="360.885783" xlink:href="#m3c745fdbc1" y="150.795342"/>
     <use style="fill:#ff0000;stroke:#ff0000;" x="361.67931" xlink:href="#m3c745fdbc1" y="150.029772"/>
     <use style="fill:#ff0000;stroke:#ff0000;" x="362.573405" xlink:href="#m3c745fdbc1" y="149.264203"/>
     <use style="fill:#ff0000;stroke:#ff0000;" x="363.484956" xlink:href="#m3c745fdbc1" y="148.498633"/>
     <use style="fill:#ff0000;stroke:#ff0000;" x="364.196929" xlink:href="#m3c745fdbc1" y="147.733063"/>
     <use style="fill:#ff0000;stroke:#ff0000;" x="365.043435" xlink:href="#m3c745fdbc1" y="146.967494"/>
     <use style="fill:#ff0000;stroke:#ff0000;" x="366.833524" xlink:href="#m3c745fdbc1" y="146.201924"/>
     <use style="fill:#ff0000;stroke:#ff0000;" x="367.527874" xlink:href="#m3c745fdbc1" y="145.436354"/>
     <use style="fill:#ff0000;stroke:#ff0000;" x="368.268583" xlink:href="#m3c745fdbc1" y="145.436354"/>
     <use style="fill:#ff0000;stroke:#ff0000;" x="369.152575" xlink:href="#m3c745fdbc1" y="144.670785"/>
     <use style="fill:#ff0000;stroke:#ff0000;" x="369.844393" xlink:href="#m3c745fdbc1" y="132.421671"/>
     <use style="fill:#ff0000;stroke:#ff0000;" x="370.494412" xlink:href="#m3c745fdbc1" y="132.421671"/>
     <use style="fill:#ff0000;stroke:#ff0000;" x="371.541933" xlink:href="#m3c745fdbc1" y="131.656101"/>
     <use style="fill:#ff0000;stroke:#ff0000;" x="372.556493" xlink:href="#m3c745fdbc1" y="118.641418"/>
     <use style="fill:#ff0000;stroke:#ff0000;" x="373.194989" xlink:href="#m3c745fdbc1" y="101.798886"/>
     <use style="fill:#ff0000;stroke:#ff0000;" x="374.562068" xlink:href="#m3c745fdbc1" y="101.798886"/>
     <use style="fill:#ff0000;stroke:#ff0000;" x="375.239926" xlink:href="#m3c745fdbc1" y="101.033316"/>
     <use style="fill:#ff0000;stroke:#ff0000;" x="375.884159" xlink:href="#m3c745fdbc1" y="101.033316"/>
     <use style="fill:#ff0000;stroke:#ff0000;" x="376.51712" xlink:href="#m3c745fdbc1" y="101.033316"/>
     <use style="fill:#ff0000;stroke:#ff0000;" x="377.141922" xlink:href="#m3c745fdbc1" y="101.033316"/>
     <use style="fill:#ff0000;stroke:#ff0000;" x="377.758372" xlink:href="#m3c745fdbc1" y="101.033316"/>
     <use style="fill:#ff0000;stroke:#ff0000;" x="378.372346" xlink:href="#m3c745fdbc1" y="101.033316"/>
     <use style="fill:#ff0000;stroke:#ff0000;" x="379.625948" xlink:href="#m3c745fdbc1" y="100.267747"/>
     <use style="fill:#ff0000;stroke:#ff0000;" x="380.26358" xlink:href="#m3c745fdbc1" y="84.956354"/>
     <use style="fill:#ff0000;stroke:#ff0000;" x="380.931613" xlink:href="#m3c745fdbc1" y="84.190785"/>
     <use style="fill:#ff0000;stroke:#ff0000;" x="382.001653" xlink:href="#m3c745fdbc1" y="83.425215"/>
     <use style="fill:#ff0000;stroke:#ff0000;" x="383.416478" xlink:href="#m3c745fdbc1" y="81.894076"/>
     <use style="fill:#ff0000;stroke:#ff0000;" x="384.099909" xlink:href="#m3c745fdbc1" y="65.817114"/>
     <use style="fill:#ff0000;stroke:#ff0000;" x="384.74954" xlink:href="#m3c745fdbc1" y="65.051544"/>
     <use style="fill:#ff0000;stroke:#ff0000;" x="385.423785" xlink:href="#m3c745fdbc1" y="65.051544"/>
     <use style="fill:#ff0000;stroke:#ff0000;" x="386.066797" xlink:href="#m3c745fdbc1" y="65.051544"/>
     <use style="fill:#ff0000;stroke:#ff0000;" x="386.707034" xlink:href="#m3c745fdbc1" y="65.051544"/>
     <use style="fill:#ff0000;stroke:#ff0000;" x="387.335762" xlink:href="#m3c745fdbc1" y="63.520405"/>
     <use style="fill:#ff0000;stroke:#ff0000;" x="387.972033" xlink:href="#m3c745fdbc1" y="63.520405"/>
     <use style="fill:#ff0000;stroke:#ff0000;" x="388.595888" xlink:href="#m3c745fdbc1" y="63.520405"/>
     <use style="fill:#ff0000;stroke:#ff0000;" x="389.221683" xlink:href="#m3c745fdbc1" y="63.520405"/>
     <use style="fill:#ff0000;stroke:#ff0000;" x="389.832597" xlink:href="#m3c745fdbc1" y="63.520405"/>
     <use style="fill:#ff0000;stroke:#ff0000;" x="390.469744" xlink:href="#m3c745fdbc1" y="63.520405"/>
     <use style="fill:#ff0000;stroke:#ff0000;" x="391.103888" xlink:href="#m3c745fdbc1" y="62.754835"/>
     <use style="fill:#ff0000;stroke:#ff0000;" x="391.704374" xlink:href="#m3c745fdbc1" y="62.754835"/>
     <use style="fill:#ff0000;stroke:#ff0000;" x="392.291413" xlink:href="#m3c745fdbc1" y="62.754835"/>
     <use style="fill:#ff0000;stroke:#ff0000;" x="393.486721" xlink:href="#m3c745fdbc1" y="62.754835"/>
     <use style="fill:#ff0000;stroke:#ff0000;" x="394.091909" xlink:href="#m3c745fdbc1" y="61.989266"/>
     <use style="fill:#ff0000;stroke:#ff0000;" x="394.748744" xlink:href="#m3c745fdbc1" y="61.989266"/>
     <use style="fill:#ff0000;stroke:#ff0000;" x="395.345165" xlink:href="#m3c745fdbc1" y="61.223696"/>
     <use style="fill:#ff0000;stroke:#ff0000;" x="395.985478" xlink:href="#m3c745fdbc1" y="61.223696"/>
     <use style="fill:#ff0000;stroke:#ff0000;" x="396.733415" xlink:href="#m3c745fdbc1" y="55.864709"/>
     <use style="fill:#ff0000;stroke:#ff0000;" x="397.326726" xlink:href="#m3c745fdbc1" y="54.33357"/>
     <use style="fill:#ff0000;stroke:#ff0000;" x="397.907609" xlink:href="#m3c745fdbc1" y="53.568"/>
     <use style="fill:#ff0000;stroke:#ff0000;" x="398.487273" xlink:href="#m3c745fdbc1" y="53.568"/>
    </g>
   </g>
   <g id="patch_7">
    <path d="M 57.6 307.584 
L 57.6 41.472 
" style="fill:none;stroke:#000000;stroke-linecap:square;stroke-linejoin:miter;stroke-width:0.8;"/>
   </g>
   <g id="patch_8">
    <path d="M 414.72 307.584 
L 414.72 41.472 
" style="fill:none;stroke:#000000;stroke-linecap:square;stroke-linejoin:miter;stroke-width:0.8;"/>
   </g>
   <g id="patch_9">
    <path d="M 57.6 307.584 
L 414.72 307.584 
" style="fill:none;stroke:#000000;stroke-linecap:square;stroke-linejoin:miter;stroke-width:0.8;"/>
   </g>
   <g id="patch_10">
    <path d="M 57.6 41.472 
L 414.72 41.472 
" style="fill:none;stroke:#000000;stroke-linecap:square;stroke-linejoin:miter;stroke-width:0.8;"/>
   </g>
  </g>
 </g>
 <defs>
  <clipPath id="p66b5b29bef">
   <rect height="266.112" width="357.12" x="57.6" y="41.472"/>
  </clipPath>
 </defs>
</svg>
