<?xml version="1.0" encoding="utf-8" standalone="no"?>
<!DOCTYPE svg PUBLIC "-//W3C//DTD SVG 1.1//EN"
  "http://www.w3.org/Graphics/SVG/1.1/DTD/svg11.dtd">
<!-- Created with matplotlib (http://matplotlib.org/) -->
<svg height="345.6pt" version="1.1" viewBox="0 0 460.8 345.6" width="460.8pt" xmlns="http://www.w3.org/2000/svg" xmlns:xlink="http://www.w3.org/1999/xlink">
 <defs>
  <style type="text/css">
*{stroke-linecap:butt;stroke-linejoin:round;}
  </style>
 </defs>
 <g id="figure_1">
  <g id="patch_1">
   <path d="M 0 345.6 
L 460.8 345.6 
L 460.8 0 
L 0 0 
z
" style="fill:#ffffff;"/>
  </g>
  <g id="axes_1">
   <g id="patch_2">
    <path d="M 57.6 307.584 
L 414.72 307.584 
L 414.72 41.472 
L 57.6 41.472 
z
" style="fill:#ffffff;"/>
   </g>
   <g id="matplotlib.axis_1">
    <g id="xtick_1">
     <g id="line2d_1">
      <defs>
       <path d="M 0 0 
L 0 3.5 
" id="mcc279bb6a2" style="stroke:#000000;stroke-width:0.8;"/>
      </defs>
      <g>
       <use style="stroke:#000000;stroke-width:0.8;" x="70.410446" xlink:href="#mcc279bb6a2" y="307.584"/>
      </g>
     </g>
     <g id="text_1">
      <!-- $\mathdefault{10^{2}}$ -->
      <defs>
       <path d="M 12.40625 8.296875 
L 28.515625 8.296875 
L 28.515625 63.921875 
L 10.984375 60.40625 
L 10.984375 69.390625 
L 28.421875 72.90625 
L 38.28125 72.90625 
L 38.28125 8.296875 
L 54.390625 8.296875 
L 54.390625 0 
L 12.40625 0 
z
" id="DejaVuSans-31"/>
       <path d="M 31.78125 66.40625 
Q 24.171875 66.40625 20.328125 58.90625 
Q 16.5 51.421875 16.5 36.375 
Q 16.5 21.390625 20.328125 13.890625 
Q 24.171875 6.390625 31.78125 6.390625 
Q 39.453125 6.390625 43.28125 13.890625 
Q 47.125 21.390625 47.125 36.375 
Q 47.125 51.421875 43.28125 58.90625 
Q 39.453125 66.40625 31.78125 66.40625 
z
M 31.78125 74.21875 
Q 44.046875 74.21875 50.515625 64.515625 
Q 56.984375 54.828125 56.984375 36.375 
Q 56.984375 17.96875 50.515625 8.265625 
Q 44.046875 -1.421875 31.78125 -1.421875 
Q 19.53125 -1.421875 13.0625 8.265625 
Q 6.59375 17.96875 6.59375 36.375 
Q 6.59375 54.828125 13.0625 64.515625 
Q 19.53125 74.21875 31.78125 74.21875 
z
" id="DejaVuSans-30"/>
       <path d="M 19.1875 8.296875 
L 53.609375 8.296875 
L 53.609375 0 
L 7.328125 0 
L 7.328125 8.296875 
Q 12.9375 14.109375 22.625 23.890625 
Q 32.328125 33.6875 34.8125 36.53125 
Q 39.546875 41.84375 41.421875 45.53125 
Q 43.3125 49.21875 43.3125 52.78125 
Q 43.3125 58.59375 39.234375 62.25 
Q 35.15625 65.921875 28.609375 65.921875 
Q 23.96875 65.921875 18.8125 64.3125 
Q 13.671875 62.703125 7.8125 59.421875 
L 7.8125 69.390625 
Q 13.765625 71.78125 18.9375 73 
Q 24.125 74.21875 28.421875 74.21875 
Q 39.75 74.21875 46.484375 68.546875 
Q 53.21875 62.890625 53.21875 53.421875 
Q 53.21875 48.921875 51.53125 44.890625 
Q 49.859375 40.875 45.40625 35.40625 
Q 44.1875 33.984375 37.640625 27.21875 
Q 31.109375 20.453125 19.1875 8.296875 
z
" id="DejaVuSans-32"/>
      </defs>
      <g transform="translate(61.610446 322.182437)scale(0.1 -0.1)">
       <use transform="translate(0 0.765625)" xlink:href="#DejaVuSans-31"/>
       <use transform="translate(63.623047 0.765625)" xlink:href="#DejaVuSans-30"/>
       <use transform="translate(128.203125 39.046875)scale(0.7)" xlink:href="#DejaVuSans-32"/>
      </g>
     </g>
    </g>
    <g id="xtick_2">
     <g id="line2d_2">
      <g>
       <use style="stroke:#000000;stroke-width:0.8;" x="230.82209" xlink:href="#mcc279bb6a2" y="307.584"/>
      </g>
     </g>
     <g id="text_2">
      <!-- $\mathdefault{10^{3}}$ -->
      <defs>
       <path d="M 40.578125 39.3125 
Q 47.65625 37.796875 51.625 33 
Q 55.609375 28.21875 55.609375 21.1875 
Q 55.609375 10.40625 48.1875 4.484375 
Q 40.765625 -1.421875 27.09375 -1.421875 
Q 22.515625 -1.421875 17.65625 -0.515625 
Q 12.796875 0.390625 7.625 2.203125 
L 7.625 11.71875 
Q 11.71875 9.328125 16.59375 8.109375 
Q 21.484375 6.890625 26.8125 6.890625 
Q 36.078125 6.890625 40.9375 10.546875 
Q 45.796875 14.203125 45.796875 21.1875 
Q 45.796875 27.640625 41.28125 31.265625 
Q 36.765625 34.90625 28.71875 34.90625 
L 20.21875 34.90625 
L 20.21875 43.015625 
L 29.109375 43.015625 
Q 36.375 43.015625 40.234375 45.921875 
Q 44.09375 48.828125 44.09375 54.296875 
Q 44.09375 59.90625 40.109375 62.90625 
Q 36.140625 65.921875 28.71875 65.921875 
Q 24.65625 65.921875 20.015625 65.03125 
Q 15.375 64.15625 9.8125 62.3125 
L 9.8125 71.09375 
Q 15.4375 72.65625 20.34375 73.4375 
Q 25.25 74.21875 29.59375 74.21875 
Q 40.828125 74.21875 47.359375 69.109375 
Q 53.90625 64.015625 53.90625 55.328125 
Q 53.90625 49.265625 50.4375 45.09375 
Q 46.96875 40.921875 40.578125 39.3125 
z
" id="DejaVuSans-33"/>
      </defs>
      <g transform="translate(222.02209 322.182437)scale(0.1 -0.1)">
       <use transform="translate(0 0.765625)" xlink:href="#DejaVuSans-31"/>
       <use transform="translate(63.623047 0.765625)" xlink:href="#DejaVuSans-30"/>
       <use transform="translate(128.203125 39.046875)scale(0.7)" xlink:href="#DejaVuSans-33"/>
      </g>
     </g>
    </g>
    <g id="xtick_3">
     <g id="line2d_3">
      <g>
       <use style="stroke:#000000;stroke-width:0.8;" x="391.233734" xlink:href="#mcc279bb6a2" y="307.584"/>
      </g>
     </g>
     <g id="text_3">
      <!-- $\mathdefault{10^{4}}$ -->
      <defs>
       <path d="M 37.796875 64.3125 
L 12.890625 25.390625 
L 37.796875 25.390625 
z
M 35.203125 72.90625 
L 47.609375 72.90625 
L 47.609375 25.390625 
L 58.015625 25.390625 
L 58.015625 17.1875 
L 47.609375 17.1875 
L 47.609375 0 
L 37.796875 0 
L 37.796875 17.1875 
L 4.890625 17.1875 
L 4.890625 26.703125 
z
" id="DejaVuSans-34"/>
      </defs>
      <g transform="translate(382.433734 322.182437)scale(0.1 -0.1)">
       <use transform="translate(0 0.684375)" xlink:href="#DejaVuSans-31"/>
       <use transform="translate(63.623047 0.684375)" xlink:href="#DejaVuSans-30"/>
       <use transform="translate(128.203125 38.965625)scale(0.7)" xlink:href="#DejaVuSans-34"/>
      </g>
     </g>
    </g>
    <g id="xtick_4">
     <g id="line2d_4">
      <defs>
       <path d="M 0 0 
L 0 2 
" id="md944807627" style="stroke:#000000;stroke-width:0.6;"/>
      </defs>
      <g>
       <use style="stroke:#000000;stroke-width:0.6;" x="63.070411" xlink:href="#md944807627" y="307.584"/>
      </g>
     </g>
    </g>
    <g id="xtick_5">
     <g id="line2d_5">
      <g>
       <use style="stroke:#000000;stroke-width:0.6;" x="118.699162" xlink:href="#md944807627" y="307.584"/>
      </g>
     </g>
    </g>
    <g id="xtick_6">
     <g id="line2d_6">
      <g>
       <use style="stroke:#000000;stroke-width:0.6;" x="146.946251" xlink:href="#md944807627" y="307.584"/>
      </g>
     </g>
    </g>
    <g id="xtick_7">
     <g id="line2d_7">
      <g>
       <use style="stroke:#000000;stroke-width:0.6;" x="166.987879" xlink:href="#md944807627" y="307.584"/>
      </g>
     </g>
    </g>
    <g id="xtick_8">
     <g id="line2d_8">
      <g>
       <use style="stroke:#000000;stroke-width:0.6;" x="182.533373" xlink:href="#md944807627" y="307.584"/>
      </g>
     </g>
    </g>
    <g id="xtick_9">
     <g id="line2d_9">
      <g>
       <use style="stroke:#000000;stroke-width:0.6;" x="195.234967" xlink:href="#md944807627" y="307.584"/>
      </g>
     </g>
    </g>
    <g id="xtick_10">
     <g id="line2d_10">
      <g>
       <use style="stroke:#000000;stroke-width:0.6;" x="205.974012" xlink:href="#md944807627" y="307.584"/>
      </g>
     </g>
    </g>
    <g id="xtick_11">
     <g id="line2d_11">
      <g>
       <use style="stroke:#000000;stroke-width:0.6;" x="215.276595" xlink:href="#md944807627" y="307.584"/>
      </g>
     </g>
    </g>
    <g id="xtick_12">
     <g id="line2d_12">
      <g>
       <use style="stroke:#000000;stroke-width:0.6;" x="223.482056" xlink:href="#md944807627" y="307.584"/>
      </g>
     </g>
    </g>
    <g id="xtick_13">
     <g id="line2d_13">
      <g>
       <use style="stroke:#000000;stroke-width:0.6;" x="279.110806" xlink:href="#md944807627" y="307.584"/>
      </g>
     </g>
    </g>
    <g id="xtick_14">
     <g id="line2d_14">
      <g>
       <use style="stroke:#000000;stroke-width:0.6;" x="307.357895" xlink:href="#md944807627" y="307.584"/>
      </g>
     </g>
    </g>
    <g id="xtick_15">
     <g id="line2d_15">
      <g>
       <use style="stroke:#000000;stroke-width:0.6;" x="327.399523" xlink:href="#md944807627" y="307.584"/>
      </g>
     </g>
    </g>
    <g id="xtick_16">
     <g id="line2d_16">
      <g>
       <use style="stroke:#000000;stroke-width:0.6;" x="342.945017" xlink:href="#md944807627" y="307.584"/>
      </g>
     </g>
    </g>
    <g id="xtick_17">
     <g id="line2d_17">
      <g>
       <use style="stroke:#000000;stroke-width:0.6;" x="355.646611" xlink:href="#md944807627" y="307.584"/>
      </g>
     </g>
    </g>
    <g id="xtick_18">
     <g id="line2d_18">
      <g>
       <use style="stroke:#000000;stroke-width:0.6;" x="366.385656" xlink:href="#md944807627" y="307.584"/>
      </g>
     </g>
    </g>
    <g id="xtick_19">
     <g id="line2d_19">
      <g>
       <use style="stroke:#000000;stroke-width:0.6;" x="375.688239" xlink:href="#md944807627" y="307.584"/>
      </g>
     </g>
    </g>
    <g id="xtick_20">
     <g id="line2d_20">
      <g>
       <use style="stroke:#000000;stroke-width:0.6;" x="383.8937" xlink:href="#md944807627" y="307.584"/>
      </g>
     </g>
    </g>
    <g id="text_4">
     <!-- Execution time (s) -->
     <defs>
      <path d="M 9.8125 72.90625 
L 55.90625 72.90625 
L 55.90625 64.59375 
L 19.671875 64.59375 
L 19.671875 43.015625 
L 54.390625 43.015625 
L 54.390625 34.71875 
L 19.671875 34.71875 
L 19.671875 8.296875 
L 56.78125 8.296875 
L 56.78125 0 
L 9.8125 0 
z
" id="DejaVuSans-45"/>
      <path d="M 54.890625 54.6875 
L 35.109375 28.078125 
L 55.90625 0 
L 45.3125 0 
L 29.390625 21.484375 
L 13.484375 0 
L 2.875 0 
L 24.125 28.609375 
L 4.6875 54.6875 
L 15.28125 54.6875 
L 29.78125 35.203125 
L 44.28125 54.6875 
z
" id="DejaVuSans-78"/>
      <path d="M 56.203125 29.59375 
L 56.203125 25.203125 
L 14.890625 25.203125 
Q 15.484375 15.921875 20.484375 11.0625 
Q 25.484375 6.203125 34.421875 6.203125 
Q 39.59375 6.203125 44.453125 7.46875 
Q 49.3125 8.734375 54.109375 11.28125 
L 54.109375 2.78125 
Q 49.265625 0.734375 44.1875 -0.34375 
Q 39.109375 -1.421875 33.890625 -1.421875 
Q 20.796875 -1.421875 13.15625 6.1875 
Q 5.515625 13.8125 5.515625 26.8125 
Q 5.515625 40.234375 12.765625 48.109375 
Q 20.015625 56 32.328125 56 
Q 43.359375 56 49.78125 48.890625 
Q 56.203125 41.796875 56.203125 29.59375 
z
M 47.21875 32.234375 
Q 47.125 39.59375 43.09375 43.984375 
Q 39.0625 48.390625 32.421875 48.390625 
Q 24.90625 48.390625 20.390625 44.140625 
Q 15.875 39.890625 15.1875 32.171875 
z
" id="DejaVuSans-65"/>
      <path d="M 48.78125 52.59375 
L 48.78125 44.1875 
Q 44.96875 46.296875 41.140625 47.34375 
Q 37.3125 48.390625 33.40625 48.390625 
Q 24.65625 48.390625 19.8125 42.84375 
Q 14.984375 37.3125 14.984375 27.296875 
Q 14.984375 17.28125 19.8125 11.734375 
Q 24.65625 6.203125 33.40625 6.203125 
Q 37.3125 6.203125 41.140625 7.25 
Q 44.96875 8.296875 48.78125 10.40625 
L 48.78125 2.09375 
Q 45.015625 0.34375 40.984375 -0.53125 
Q 36.96875 -1.421875 32.421875 -1.421875 
Q 20.0625 -1.421875 12.78125 6.34375 
Q 5.515625 14.109375 5.515625 27.296875 
Q 5.515625 40.671875 12.859375 48.328125 
Q 20.21875 56 33.015625 56 
Q 37.15625 56 41.109375 55.140625 
Q 45.0625 54.296875 48.78125 52.59375 
z
" id="DejaVuSans-63"/>
      <path d="M 8.5 21.578125 
L 8.5 54.6875 
L 17.484375 54.6875 
L 17.484375 21.921875 
Q 17.484375 14.15625 20.5 10.265625 
Q 23.53125 6.390625 29.59375 6.390625 
Q 36.859375 6.390625 41.078125 11.03125 
Q 45.3125 15.671875 45.3125 23.6875 
L 45.3125 54.6875 
L 54.296875 54.6875 
L 54.296875 0 
L 45.3125 0 
L 45.3125 8.40625 
Q 42.046875 3.421875 37.71875 1 
Q 33.40625 -1.421875 27.6875 -1.421875 
Q 18.265625 -1.421875 13.375 4.4375 
Q 8.5 10.296875 8.5 21.578125 
z
M 31.109375 56 
z
" id="DejaVuSans-75"/>
      <path d="M 18.3125 70.21875 
L 18.3125 54.6875 
L 36.8125 54.6875 
L 36.8125 47.703125 
L 18.3125 47.703125 
L 18.3125 18.015625 
Q 18.3125 11.328125 20.140625 9.421875 
Q 21.96875 7.515625 27.59375 7.515625 
L 36.8125 7.515625 
L 36.8125 0 
L 27.59375 0 
Q 17.1875 0 13.234375 3.875 
Q 9.28125 7.765625 9.28125 18.015625 
L 9.28125 47.703125 
L 2.6875 47.703125 
L 2.6875 54.6875 
L 9.28125 54.6875 
L 9.28125 70.21875 
z
" id="DejaVuSans-74"/>
      <path d="M 9.421875 54.6875 
L 18.40625 54.6875 
L 18.40625 0 
L 9.421875 0 
z
M 9.421875 75.984375 
L 18.40625 75.984375 
L 18.40625 64.59375 
L 9.421875 64.59375 
z
" id="DejaVuSans-69"/>
      <path d="M 30.609375 48.390625 
Q 23.390625 48.390625 19.1875 42.75 
Q 14.984375 37.109375 14.984375 27.296875 
Q 14.984375 17.484375 19.15625 11.84375 
Q 23.34375 6.203125 30.609375 6.203125 
Q 37.796875 6.203125 41.984375 11.859375 
Q 46.1875 17.53125 46.1875 27.296875 
Q 46.1875 37.015625 41.984375 42.703125 
Q 37.796875 48.390625 30.609375 48.390625 
z
M 30.609375 56 
Q 42.328125 56 49.015625 48.375 
Q 55.71875 40.765625 55.71875 27.296875 
Q 55.71875 13.875 49.015625 6.21875 
Q 42.328125 -1.421875 30.609375 -1.421875 
Q 18.84375 -1.421875 12.171875 6.21875 
Q 5.515625 13.875 5.515625 27.296875 
Q 5.515625 40.765625 12.171875 48.375 
Q 18.84375 56 30.609375 56 
z
" id="DejaVuSans-6f"/>
      <path d="M 54.890625 33.015625 
L 54.890625 0 
L 45.90625 0 
L 45.90625 32.71875 
Q 45.90625 40.484375 42.875 44.328125 
Q 39.84375 48.1875 33.796875 48.1875 
Q 26.515625 48.1875 22.3125 43.546875 
Q 18.109375 38.921875 18.109375 30.90625 
L 18.109375 0 
L 9.078125 0 
L 9.078125 54.6875 
L 18.109375 54.6875 
L 18.109375 46.1875 
Q 21.34375 51.125 25.703125 53.5625 
Q 30.078125 56 35.796875 56 
Q 45.21875 56 50.046875 50.171875 
Q 54.890625 44.34375 54.890625 33.015625 
z
" id="DejaVuSans-6e"/>
      <path id="DejaVuSans-20"/>
      <path d="M 52 44.1875 
Q 55.375 50.25 60.0625 53.125 
Q 64.75 56 71.09375 56 
Q 79.640625 56 84.28125 50.015625 
Q 88.921875 44.046875 88.921875 33.015625 
L 88.921875 0 
L 79.890625 0 
L 79.890625 32.71875 
Q 79.890625 40.578125 77.09375 44.375 
Q 74.3125 48.1875 68.609375 48.1875 
Q 61.625 48.1875 57.5625 43.546875 
Q 53.515625 38.921875 53.515625 30.90625 
L 53.515625 0 
L 44.484375 0 
L 44.484375 32.71875 
Q 44.484375 40.625 41.703125 44.40625 
Q 38.921875 48.1875 33.109375 48.1875 
Q 26.21875 48.1875 22.15625 43.53125 
Q 18.109375 38.875 18.109375 30.90625 
L 18.109375 0 
L 9.078125 0 
L 9.078125 54.6875 
L 18.109375 54.6875 
L 18.109375 46.1875 
Q 21.1875 51.21875 25.484375 53.609375 
Q 29.78125 56 35.6875 56 
Q 41.65625 56 45.828125 52.96875 
Q 50 49.953125 52 44.1875 
z
" id="DejaVuSans-6d"/>
      <path d="M 31 75.875 
Q 24.46875 64.65625 21.28125 53.65625 
Q 18.109375 42.671875 18.109375 31.390625 
Q 18.109375 20.125 21.3125 9.0625 
Q 24.515625 -2 31 -13.1875 
L 23.1875 -13.1875 
Q 15.875 -1.703125 12.234375 9.375 
Q 8.59375 20.453125 8.59375 31.390625 
Q 8.59375 42.28125 12.203125 53.3125 
Q 15.828125 64.359375 23.1875 75.875 
z
" id="DejaVuSans-28"/>
      <path d="M 44.28125 53.078125 
L 44.28125 44.578125 
Q 40.484375 46.53125 36.375 47.5 
Q 32.28125 48.484375 27.875 48.484375 
Q 21.1875 48.484375 17.84375 46.4375 
Q 14.5 44.390625 14.5 40.28125 
Q 14.5 37.15625 16.890625 35.375 
Q 19.28125 33.59375 26.515625 31.984375 
L 29.59375 31.296875 
Q 39.15625 29.25 43.1875 25.515625 
Q 47.21875 21.78125 47.21875 15.09375 
Q 47.21875 7.46875 41.1875 3.015625 
Q 35.15625 -1.421875 24.609375 -1.421875 
Q 20.21875 -1.421875 15.453125 -0.5625 
Q 10.6875 0.296875 5.421875 2 
L 5.421875 11.28125 
Q 10.40625 8.6875 15.234375 7.390625 
Q 20.0625 6.109375 24.8125 6.109375 
Q 31.15625 6.109375 34.5625 8.28125 
Q 37.984375 10.453125 37.984375 14.40625 
Q 37.984375 18.0625 35.515625 20.015625 
Q 33.0625 21.96875 24.703125 23.78125 
L 21.578125 24.515625 
Q 13.234375 26.265625 9.515625 29.90625 
Q 5.8125 33.546875 5.8125 39.890625 
Q 5.8125 47.609375 11.28125 51.796875 
Q 16.75 56 26.8125 56 
Q 31.78125 56 36.171875 55.265625 
Q 40.578125 54.546875 44.28125 53.078125 
z
" id="DejaVuSans-73"/>
      <path d="M 8.015625 75.875 
L 15.828125 75.875 
Q 23.140625 64.359375 26.78125 53.3125 
Q 30.421875 42.28125 30.421875 31.390625 
Q 30.421875 20.453125 26.78125 9.375 
Q 23.140625 -1.703125 15.828125 -13.1875 
L 8.015625 -13.1875 
Q 14.5 -2 17.703125 9.0625 
Q 20.90625 20.125 20.90625 31.390625 
Q 20.90625 42.671875 17.703125 53.65625 
Q 14.5 64.65625 8.015625 75.875 
z
" id="DejaVuSans-29"/>
     </defs>
     <g transform="translate(190.49125 335.860562)scale(0.1 -0.1)">
      <use xlink:href="#DejaVuSans-45"/>
      <use x="63.183594" xlink:href="#DejaVuSans-78"/>
      <use x="122.316406" xlink:href="#DejaVuSans-65"/>
      <use x="183.839844" xlink:href="#DejaVuSans-63"/>
      <use x="238.820312" xlink:href="#DejaVuSans-75"/>
      <use x="302.199219" xlink:href="#DejaVuSans-74"/>
      <use x="341.408203" xlink:href="#DejaVuSans-69"/>
      <use x="369.191406" xlink:href="#DejaVuSans-6f"/>
      <use x="430.373047" xlink:href="#DejaVuSans-6e"/>
      <use x="493.751953" xlink:href="#DejaVuSans-20"/>
      <use x="525.539062" xlink:href="#DejaVuSans-74"/>
      <use x="564.748047" xlink:href="#DejaVuSans-69"/>
      <use x="592.53125" xlink:href="#DejaVuSans-6d"/>
      <use x="689.943359" xlink:href="#DejaVuSans-65"/>
      <use x="751.466797" xlink:href="#DejaVuSans-20"/>
      <use x="783.253906" xlink:href="#DejaVuSans-28"/>
      <use x="822.267578" xlink:href="#DejaVuSans-73"/>
      <use x="874.367188" xlink:href="#DejaVuSans-29"/>
     </g>
    </g>
   </g>
   <g id="matplotlib.axis_2">
    <g id="ytick_1">
     <g id="line2d_21">
      <defs>
       <path d="M 0 0 
L -3.5 0 
" id="m5bcb0f4034" style="stroke:#000000;stroke-width:0.8;"/>
      </defs>
      <g>
       <use style="stroke:#000000;stroke-width:0.8;" x="57.6" xlink:href="#m5bcb0f4034" y="295.488"/>
      </g>
     </g>
     <g id="text_5">
      <!-- 0 -->
      <g transform="translate(44.2375 299.287219)scale(0.1 -0.1)">
       <use xlink:href="#DejaVuSans-30"/>
      </g>
     </g>
    </g>
    <g id="ytick_2">
     <g id="line2d_22">
      <g>
       <use style="stroke:#000000;stroke-width:0.8;" x="57.6" xlink:href="#m5bcb0f4034" y="265.091389"/>
      </g>
     </g>
     <g id="text_6">
      <!-- 500 -->
      <defs>
       <path d="M 10.796875 72.90625 
L 49.515625 72.90625 
L 49.515625 64.59375 
L 19.828125 64.59375 
L 19.828125 46.734375 
Q 21.96875 47.46875 24.109375 47.828125 
Q 26.265625 48.1875 28.421875 48.1875 
Q 40.625 48.1875 47.75 41.5 
Q 54.890625 34.8125 54.890625 23.390625 
Q 54.890625 11.625 47.5625 5.09375 
Q 40.234375 -1.421875 26.90625 -1.421875 
Q 22.3125 -1.421875 17.546875 -0.640625 
Q 12.796875 0.140625 7.71875 1.703125 
L 7.71875 11.625 
Q 12.109375 9.234375 16.796875 8.0625 
Q 21.484375 6.890625 26.703125 6.890625 
Q 35.15625 6.890625 40.078125 11.328125 
Q 45.015625 15.765625 45.015625 23.390625 
Q 45.015625 31 40.078125 35.4375 
Q 35.15625 39.890625 26.703125 39.890625 
Q 22.75 39.890625 18.8125 39.015625 
Q 14.890625 38.140625 10.796875 36.28125 
z
" id="DejaVuSans-35"/>
      </defs>
      <g transform="translate(31.5125 268.890608)scale(0.1 -0.1)">
       <use xlink:href="#DejaVuSans-35"/>
       <use x="63.623047" xlink:href="#DejaVuSans-30"/>
       <use x="127.246094" xlink:href="#DejaVuSans-30"/>
      </g>
     </g>
    </g>
    <g id="ytick_3">
     <g id="line2d_23">
      <g>
       <use style="stroke:#000000;stroke-width:0.8;" x="57.6" xlink:href="#m5bcb0f4034" y="234.694778"/>
      </g>
     </g>
     <g id="text_7">
      <!-- 1000 -->
      <g transform="translate(25.15 238.493997)scale(0.1 -0.1)">
       <use xlink:href="#DejaVuSans-31"/>
       <use x="63.623047" xlink:href="#DejaVuSans-30"/>
       <use x="127.246094" xlink:href="#DejaVuSans-30"/>
       <use x="190.869141" xlink:href="#DejaVuSans-30"/>
      </g>
     </g>
    </g>
    <g id="ytick_4">
     <g id="line2d_24">
      <g>
       <use style="stroke:#000000;stroke-width:0.8;" x="57.6" xlink:href="#m5bcb0f4034" y="204.298167"/>
      </g>
     </g>
     <g id="text_8">
      <!-- 1500 -->
      <g transform="translate(25.15 208.097385)scale(0.1 -0.1)">
       <use xlink:href="#DejaVuSans-31"/>
       <use x="63.623047" xlink:href="#DejaVuSans-35"/>
       <use x="127.246094" xlink:href="#DejaVuSans-30"/>
       <use x="190.869141" xlink:href="#DejaVuSans-30"/>
      </g>
     </g>
    </g>
    <g id="ytick_5">
     <g id="line2d_25">
      <g>
       <use style="stroke:#000000;stroke-width:0.8;" x="57.6" xlink:href="#m5bcb0f4034" y="173.901556"/>
      </g>
     </g>
     <g id="text_9">
      <!-- 2000 -->
      <g transform="translate(25.15 177.700774)scale(0.1 -0.1)">
       <use xlink:href="#DejaVuSans-32"/>
       <use x="63.623047" xlink:href="#DejaVuSans-30"/>
       <use x="127.246094" xlink:href="#DejaVuSans-30"/>
       <use x="190.869141" xlink:href="#DejaVuSans-30"/>
      </g>
     </g>
    </g>
    <g id="ytick_6">
     <g id="line2d_26">
      <g>
       <use style="stroke:#000000;stroke-width:0.8;" x="57.6" xlink:href="#m5bcb0f4034" y="143.504944"/>
      </g>
     </g>
     <g id="text_10">
      <!-- 2500 -->
      <g transform="translate(25.15 147.304163)scale(0.1 -0.1)">
       <use xlink:href="#DejaVuSans-32"/>
       <use x="63.623047" xlink:href="#DejaVuSans-35"/>
       <use x="127.246094" xlink:href="#DejaVuSans-30"/>
       <use x="190.869141" xlink:href="#DejaVuSans-30"/>
      </g>
     </g>
    </g>
    <g id="ytick_7">
     <g id="line2d_27">
      <g>
       <use style="stroke:#000000;stroke-width:0.8;" x="57.6" xlink:href="#m5bcb0f4034" y="113.108333"/>
      </g>
     </g>
     <g id="text_11">
      <!-- 3000 -->
      <g transform="translate(25.15 116.907552)scale(0.1 -0.1)">
       <use xlink:href="#DejaVuSans-33"/>
       <use x="63.623047" xlink:href="#DejaVuSans-30"/>
       <use x="127.246094" xlink:href="#DejaVuSans-30"/>
       <use x="190.869141" xlink:href="#DejaVuSans-30"/>
      </g>
     </g>
    </g>
    <g id="ytick_8">
     <g id="line2d_28">
      <g>
       <use style="stroke:#000000;stroke-width:0.8;" x="57.6" xlink:href="#m5bcb0f4034" y="82.711722"/>
      </g>
     </g>
     <g id="text_12">
      <!-- 3500 -->
      <g transform="translate(25.15 86.510941)scale(0.1 -0.1)">
       <use xlink:href="#DejaVuSans-33"/>
       <use x="63.623047" xlink:href="#DejaVuSans-35"/>
       <use x="127.246094" xlink:href="#DejaVuSans-30"/>
       <use x="190.869141" xlink:href="#DejaVuSans-30"/>
      </g>
     </g>
    </g>
    <g id="ytick_9">
     <g id="line2d_29">
      <g>
       <use style="stroke:#000000;stroke-width:0.8;" x="57.6" xlink:href="#m5bcb0f4034" y="52.315111"/>
      </g>
     </g>
     <g id="text_13">
      <!-- 4000 -->
      <g transform="translate(25.15 56.11433)scale(0.1 -0.1)">
       <use xlink:href="#DejaVuSans-34"/>
       <use x="63.623047" xlink:href="#DejaVuSans-30"/>
       <use x="127.246094" xlink:href="#DejaVuSans-30"/>
       <use x="190.869141" xlink:href="#DejaVuSans-30"/>
      </g>
     </g>
    </g>
    <g id="text_14">
     <!-- Memory (MB) -->
     <defs>
      <path d="M 9.8125 72.90625 
L 24.515625 72.90625 
L 43.109375 23.296875 
L 61.8125 72.90625 
L 76.515625 72.90625 
L 76.515625 0 
L 66.890625 0 
L 66.890625 64.015625 
L 48.09375 14.015625 
L 38.1875 14.015625 
L 19.390625 64.015625 
L 19.390625 0 
L 9.8125 0 
z
" id="DejaVuSans-4d"/>
      <path d="M 41.109375 46.296875 
Q 39.59375 47.171875 37.8125 47.578125 
Q 36.03125 48 33.890625 48 
Q 26.265625 48 22.1875 43.046875 
Q 18.109375 38.09375 18.109375 28.8125 
L 18.109375 0 
L 9.078125 0 
L 9.078125 54.6875 
L 18.109375 54.6875 
L 18.109375 46.1875 
Q 20.953125 51.171875 25.484375 53.578125 
Q 30.03125 56 36.53125 56 
Q 37.453125 56 38.578125 55.875 
Q 39.703125 55.765625 41.0625 55.515625 
z
" id="DejaVuSans-72"/>
      <path d="M 32.171875 -5.078125 
Q 28.375 -14.84375 24.75 -17.8125 
Q 21.140625 -20.796875 15.09375 -20.796875 
L 7.90625 -20.796875 
L 7.90625 -13.28125 
L 13.1875 -13.28125 
Q 16.890625 -13.28125 18.9375 -11.515625 
Q 21 -9.765625 23.484375 -3.21875 
L 25.09375 0.875 
L 2.984375 54.6875 
L 12.5 54.6875 
L 29.59375 11.921875 
L 46.6875 54.6875 
L 56.203125 54.6875 
z
" id="DejaVuSans-79"/>
      <path d="M 19.671875 34.8125 
L 19.671875 8.109375 
L 35.5 8.109375 
Q 43.453125 8.109375 47.28125 11.40625 
Q 51.125 14.703125 51.125 21.484375 
Q 51.125 28.328125 47.28125 31.5625 
Q 43.453125 34.8125 35.5 34.8125 
z
M 19.671875 64.796875 
L 19.671875 42.828125 
L 34.28125 42.828125 
Q 41.5 42.828125 45.03125 45.53125 
Q 48.578125 48.25 48.578125 53.8125 
Q 48.578125 59.328125 45.03125 62.0625 
Q 41.5 64.796875 34.28125 64.796875 
z
M 9.8125 72.90625 
L 35.015625 72.90625 
Q 46.296875 72.90625 52.390625 68.21875 
Q 58.5 63.53125 58.5 54.890625 
Q 58.5 48.1875 55.375 44.234375 
Q 52.25 40.28125 46.1875 39.3125 
Q 53.46875 37.75 57.5 32.78125 
Q 61.53125 27.828125 61.53125 20.40625 
Q 61.53125 10.640625 54.890625 5.3125 
Q 48.25 0 35.984375 0 
L 9.8125 0 
z
" id="DejaVuSans-42"/>
     </defs>
     <g transform="translate(19.070312 208.098312)rotate(-90)scale(0.1 -0.1)">
      <use xlink:href="#DejaVuSans-4d"/>
      <use x="86.279297" xlink:href="#DejaVuSans-65"/>
      <use x="147.802734" xlink:href="#DejaVuSans-6d"/>
      <use x="245.214844" xlink:href="#DejaVuSans-6f"/>
      <use x="306.396484" xlink:href="#DejaVuSans-72"/>
      <use x="347.509766" xlink:href="#DejaVuSans-79"/>
      <use x="406.689453" xlink:href="#DejaVuSans-20"/>
      <use x="438.476562" xlink:href="#DejaVuSans-28"/>
      <use x="477.490234" xlink:href="#DejaVuSans-4d"/>
      <use x="563.769531" xlink:href="#DejaVuSans-42"/>
      <use x="632.373047" xlink:href="#DejaVuSans-29"/>
     </g>
    </g>
   </g>
   <g id="line2d_30">
    <path clip-path="url(#p9909ac4f7d)" d="M 73.832727 253.065326 
L 78.664781 251.737859 
L 100.044037 243.68167 
L 112.414745 241.562603 
L 117.022719 239.415149 
L 120.563218 236.250493 
L 127.059528 234.825912 
L 136.164122 232.660281 
L 143.832711 231.735959 
L 146.492929 230.811139 
L 155.683174 230.264316 
L 164.187476 228.899248 
L 174.348844 227.751316 
L 182.03878 226.396707 
L 185.201095 227.250061 
L 190.615227 224.356825 
L 192.528964 225.57423 
L 195.727229 224.225846 
L 198.020791 221.449894 
L 208.632483 212.906145 
L 215.178417 214.64871 
L 223.826054 214.634018 
L 225.685275 213.882509 
L 227.832428 213.381752 
L 229.635771 212.599863 
L 231.66622 211.505718 
L 233.457186 201.646454 
L 235.114957 201.263976 
L 236.675666 197.509418 
L 238.299034 199.185248 
L 242.527649 199.170806 
L 245.840737 198.120984 
L 247.865596 195.571131 
L 249.423951 198.139411 
L 254.153205 198.109529 
L 255.47958 197.718585 
L 257.784415 196.830619 
L 259.142085 189.270456 
L 260.780217 188.384232 
L 262.062506 185.701907 
L 269.28715 177.39646 
L 270.848675 180.351699 
L 275.35025 180.351699 
L 279.421314 176.734594 
L 280.912185 179.647252 
L 286.248995 179.554372 
L 287.647684 178.448025 
L 292.527725 173.355043 
L 293.830405 173.078643 
L 295.084492 173.247471 
L 305.940178 173.234772 
L 307.017706 170.098503 
L 315.357277 170.083064 
L 317.414182 167.499595 
L 320.437129 167.491378 
L 322.328566 162.897659 
L 325.650312 162.897659 
L 326.686342 162.41757 
L 327.736851 161.639666 
L 328.680512 160.227535 
L 331.483485 157.917977 
L 332.404225 157.754876 
L 333.285588 156.254845 
L 334.71448 155.589742 
L 335.673288 133.264837 
L 341.296471 133.30418 
L 344.398542 132.638828 
L 345.238677 132.088518 
L 346.879671 132.026266 
L 351.093212 132.026266 
L 355.896726 114.300059 
L 359.979151 114.300059 
L 360.75171 114.012952 
L 362.299369 112.282588 
L 363.083121 111.499455 
L 363.816571 109.969045 
L 364.590732 109.070372 
L 365.376337 108.976993 
L 366.182278 107.428904 
L 367.09036 107.41222 
L 368.016171 82.112902 
L 386.822536 82.059365 
L 388.259495 81.543418 
L 392.886315 81.543418 
L 393.51993 80.454751 
L 394.155515 80.43732 
L 394.775985 79.898465 
L 396.067164 75.959391 
L 397.273266 74.407317 
L 398.487273 53.568 
L 398.487273 53.568 
" style="fill:none;stroke:#000000;stroke-linecap:square;stroke-width:1.5;"/>
    <defs>
     <path d="M 0 3 
C 0.795609 3 1.55874 2.683901 2.12132 2.12132 
C 2.683901 1.55874 3 0.795609 3 0 
C 3 -0.795609 2.683901 -1.55874 2.12132 -2.12132 
C 1.55874 -2.683901 0.795609 -3 0 -3 
C -0.795609 -3 -1.55874 -2.683901 -2.12132 -2.12132 
C -2.683901 -1.55874 -3 -0.795609 -3 0 
C -3 0.795609 -2.683901 1.55874 -2.12132 2.12132 
C -1.55874 2.683901 -0.795609 3 0 3 
z
" id="m429854f30c" style="stroke:#000000;"/>
    </defs>
    <g clip-path="url(#p9909ac4f7d)">
     <use style="stroke:#000000;" x="73.832727" xlink:href="#m429854f30c" y="253.065326"/>
     <use style="stroke:#000000;" x="78.664781" xlink:href="#m429854f30c" y="251.737859"/>
     <use style="stroke:#000000;" x="100.044037" xlink:href="#m429854f30c" y="243.68167"/>
     <use style="stroke:#000000;" x="112.414745" xlink:href="#m429854f30c" y="241.562603"/>
     <use style="stroke:#000000;" x="117.022719" xlink:href="#m429854f30c" y="239.415149"/>
     <use style="stroke:#000000;" x="120.563218" xlink:href="#m429854f30c" y="236.250493"/>
     <use style="stroke:#000000;" x="127.059528" xlink:href="#m429854f30c" y="234.825912"/>
     <use style="stroke:#000000;" x="136.164122" xlink:href="#m429854f30c" y="232.660281"/>
     <use style="stroke:#000000;" x="143.832711" xlink:href="#m429854f30c" y="231.735959"/>
     <use style="stroke:#000000;" x="146.492929" xlink:href="#m429854f30c" y="230.811139"/>
     <use style="stroke:#000000;" x="153.712765" xlink:href="#m429854f30c" y="230.346489"/>
     <use style="stroke:#000000;" x="155.683174" xlink:href="#m429854f30c" y="230.264316"/>
     <use style="stroke:#000000;" x="164.187476" xlink:href="#m429854f30c" y="228.899248"/>
     <use style="stroke:#000000;" x="174.348844" xlink:href="#m429854f30c" y="227.751316"/>
     <use style="stroke:#000000;" x="182.03878" xlink:href="#m429854f30c" y="226.396707"/>
     <use style="stroke:#000000;" x="185.201095" xlink:href="#m429854f30c" y="227.250061"/>
     <use style="stroke:#000000;" x="190.615227" xlink:href="#m429854f30c" y="224.356825"/>
     <use style="stroke:#000000;" x="192.528964" xlink:href="#m429854f30c" y="225.57423"/>
     <use style="stroke:#000000;" x="195.727229" xlink:href="#m429854f30c" y="224.225846"/>
     <use style="stroke:#000000;" x="198.020791" xlink:href="#m429854f30c" y="221.449894"/>
     <use style="stroke:#000000;" x="208.632483" xlink:href="#m429854f30c" y="212.906145"/>
     <use style="stroke:#000000;" x="215.178417" xlink:href="#m429854f30c" y="214.64871"/>
     <use style="stroke:#000000;" x="218.710135" xlink:href="#m429854f30c" y="214.64871"/>
     <use style="stroke:#000000;" x="221.757506" xlink:href="#m429854f30c" y="214.643481"/>
     <use style="stroke:#000000;" x="223.826054" xlink:href="#m429854f30c" y="214.634018"/>
     <use style="stroke:#000000;" x="225.685275" xlink:href="#m429854f30c" y="213.882509"/>
     <use style="stroke:#000000;" x="227.832428" xlink:href="#m429854f30c" y="213.381752"/>
     <use style="stroke:#000000;" x="229.635771" xlink:href="#m429854f30c" y="212.599863"/>
     <use style="stroke:#000000;" x="231.66622" xlink:href="#m429854f30c" y="211.505718"/>
     <use style="stroke:#000000;" x="233.457186" xlink:href="#m429854f30c" y="201.646454"/>
     <use style="stroke:#000000;" x="235.114957" xlink:href="#m429854f30c" y="201.263976"/>
     <use style="stroke:#000000;" x="236.675666" xlink:href="#m429854f30c" y="197.509418"/>
     <use style="stroke:#000000;" x="238.299034" xlink:href="#m429854f30c" y="199.185248"/>
     <use style="stroke:#000000;" x="239.943549" xlink:href="#m429854f30c" y="199.180268"/>
     <use style="stroke:#000000;" x="242.527649" xlink:href="#m429854f30c" y="199.170806"/>
     <use style="stroke:#000000;" x="245.840737" xlink:href="#m429854f30c" y="198.120984"/>
     <use style="stroke:#000000;" x="247.865596" xlink:href="#m429854f30c" y="195.571131"/>
     <use style="stroke:#000000;" x="249.423951" xlink:href="#m429854f30c" y="198.139411"/>
     <use style="stroke:#000000;" x="250.90635" xlink:href="#m429854f30c" y="198.139411"/>
     <use style="stroke:#000000;" x="252.649184" xlink:href="#m429854f30c" y="198.139411"/>
     <use style="stroke:#000000;" x="254.153205" xlink:href="#m429854f30c" y="198.109529"/>
     <use style="stroke:#000000;" x="255.47958" xlink:href="#m429854f30c" y="197.718585"/>
     <use style="stroke:#000000;" x="257.784415" xlink:href="#m429854f30c" y="196.830619"/>
     <use style="stroke:#000000;" x="259.142085" xlink:href="#m429854f30c" y="189.270456"/>
     <use style="stroke:#000000;" x="260.780217" xlink:href="#m429854f30c" y="188.384232"/>
     <use style="stroke:#000000;" x="262.062506" xlink:href="#m429854f30c" y="185.701907"/>
     <use style="stroke:#000000;" x="267.759822" xlink:href="#m429854f30c" y="179.151973"/>
     <use style="stroke:#000000;" x="269.28715" xlink:href="#m429854f30c" y="177.39646"/>
     <use style="stroke:#000000;" x="270.848675" xlink:href="#m429854f30c" y="180.351699"/>
     <use style="stroke:#000000;" x="272.323061" xlink:href="#m429854f30c" y="180.351699"/>
     <use style="stroke:#000000;" x="273.744406" xlink:href="#m429854f30c" y="180.351699"/>
     <use style="stroke:#000000;" x="275.35025" xlink:href="#m429854f30c" y="180.351699"/>
     <use style="stroke:#000000;" x="279.421314" xlink:href="#m429854f30c" y="176.734594"/>
     <use style="stroke:#000000;" x="280.912185" xlink:href="#m429854f30c" y="179.647252"/>
     <use style="stroke:#000000;" x="282.19724" xlink:href="#m429854f30c" y="179.647252"/>
     <use style="stroke:#000000;" x="283.62527" xlink:href="#m429854f30c" y="179.647252"/>
     <use style="stroke:#000000;" x="285.082605" xlink:href="#m429854f30c" y="179.647252"/>
     <use style="stroke:#000000;" x="286.248995" xlink:href="#m429854f30c" y="179.554372"/>
     <use style="stroke:#000000;" x="287.647684" xlink:href="#m429854f30c" y="178.448025"/>
     <use style="stroke:#000000;" x="292.527725" xlink:href="#m429854f30c" y="173.355043"/>
     <use style="stroke:#000000;" x="293.830405" xlink:href="#m429854f30c" y="173.078643"/>
     <use style="stroke:#000000;" x="295.084492" xlink:href="#m429854f30c" y="173.247471"/>
     <use style="stroke:#000000;" x="296.328911" xlink:href="#m429854f30c" y="173.247471"/>
     <use style="stroke:#000000;" x="297.623993" xlink:href="#m429854f30c" y="173.247471"/>
     <use style="stroke:#000000;" x="300.092194" xlink:href="#m429854f30c" y="173.247471"/>
     <use style="stroke:#000000;" x="302.375321" xlink:href="#m429854f30c" y="173.234772"/>
     <use style="stroke:#000000;" x="303.603233" xlink:href="#m429854f30c" y="173.234772"/>
     <use style="stroke:#000000;" x="304.735536" xlink:href="#m429854f30c" y="173.234772"/>
     <use style="stroke:#000000;" x="305.940178" xlink:href="#m429854f30c" y="173.234772"/>
     <use style="stroke:#000000;" x="307.017706" xlink:href="#m429854f30c" y="170.098503"/>
     <use style="stroke:#000000;" x="308.429947" xlink:href="#m429854f30c" y="170.098503"/>
     <use style="stroke:#000000;" x="309.494545" xlink:href="#m429854f30c" y="170.098503"/>
     <use style="stroke:#000000;" x="310.683751" xlink:href="#m429854f30c" y="170.098503"/>
     <use style="stroke:#000000;" x="313.000889" xlink:href="#m429854f30c" y="170.098254"/>
     <use style="stroke:#000000;" x="314.242751" xlink:href="#m429854f30c" y="170.098254"/>
     <use style="stroke:#000000;" x="315.357277" xlink:href="#m429854f30c" y="170.083064"/>
     <use style="stroke:#000000;" x="317.414182" xlink:href="#m429854f30c" y="167.499595"/>
     <use style="stroke:#000000;" x="318.460136" xlink:href="#m429854f30c" y="167.499595"/>
     <use style="stroke:#000000;" x="319.40776" xlink:href="#m429854f30c" y="167.499595"/>
     <use style="stroke:#000000;" x="320.437129" xlink:href="#m429854f30c" y="167.491378"/>
     <use style="stroke:#000000;" x="322.328566" xlink:href="#m429854f30c" y="162.897659"/>
     <use style="stroke:#000000;" x="323.418806" xlink:href="#m429854f30c" y="162.897659"/>
     <use style="stroke:#000000;" x="324.482972" xlink:href="#m429854f30c" y="162.897659"/>
     <use style="stroke:#000000;" x="325.650312" xlink:href="#m429854f30c" y="162.897659"/>
     <use style="stroke:#000000;" x="326.686342" xlink:href="#m429854f30c" y="162.41757"/>
     <use style="stroke:#000000;" x="327.736851" xlink:href="#m429854f30c" y="161.639666"/>
     <use style="stroke:#000000;" x="328.680512" xlink:href="#m429854f30c" y="160.227535"/>
     <use style="stroke:#000000;" x="329.626467" xlink:href="#m429854f30c" y="159.452619"/>
     <use style="stroke:#000000;" x="330.540699" xlink:href="#m429854f30c" y="158.684924"/>
     <use style="stroke:#000000;" x="331.483485" xlink:href="#m429854f30c" y="157.917977"/>
     <use style="stroke:#000000;" x="332.404225" xlink:href="#m429854f30c" y="157.754876"/>
     <use style="stroke:#000000;" x="333.285588" xlink:href="#m429854f30c" y="156.254845"/>
     <use style="stroke:#000000;" x="334.71448" xlink:href="#m429854f30c" y="155.589742"/>
     <use style="stroke:#000000;" x="335.673288" xlink:href="#m429854f30c" y="133.264837"/>
     <use style="stroke:#000000;" x="336.630397" xlink:href="#m429854f30c" y="133.264837"/>
     <use style="stroke:#000000;" x="338.529043" xlink:href="#m429854f30c" y="133.30418"/>
     <use style="stroke:#000000;" x="339.448709" xlink:href="#m429854f30c" y="133.30418"/>
     <use style="stroke:#000000;" x="340.386434" xlink:href="#m429854f30c" y="133.30418"/>
     <use style="stroke:#000000;" x="341.296471" xlink:href="#m429854f30c" y="133.30418"/>
     <use style="stroke:#000000;" x="342.692143" xlink:href="#m429854f30c" y="133.010848"/>
     <use style="stroke:#000000;" x="343.506081" xlink:href="#m429854f30c" y="132.873146"/>
     <use style="stroke:#000000;" x="344.398542" xlink:href="#m429854f30c" y="132.638828"/>
     <use style="stroke:#000000;" x="345.238677" xlink:href="#m429854f30c" y="132.088518"/>
     <use style="stroke:#000000;" x="346.058783" xlink:href="#m429854f30c" y="132.026266"/>
     <use style="stroke:#000000;" x="346.879671" xlink:href="#m429854f30c" y="132.026266"/>
     <use style="stroke:#000000;" x="347.765689" xlink:href="#m429854f30c" y="132.026266"/>
     <use style="stroke:#000000;" x="348.630524" xlink:href="#m429854f30c" y="132.026266"/>
     <use style="stroke:#000000;" x="349.486593" xlink:href="#m429854f30c" y="132.026266"/>
     <use style="stroke:#000000;" x="350.307711" xlink:href="#m429854f30c" y="132.026266"/>
     <use style="stroke:#000000;" x="351.093212" xlink:href="#m429854f30c" y="132.026266"/>
     <use style="stroke:#000000;" x="355.896726" xlink:href="#m429854f30c" y="114.300059"/>
     <use style="stroke:#000000;" x="356.718349" xlink:href="#m429854f30c" y="114.300059"/>
     <use style="stroke:#000000;" x="357.60609" xlink:href="#m429854f30c" y="114.300059"/>
     <use style="stroke:#000000;" x="358.404143" xlink:href="#m429854f30c" y="114.300059"/>
     <use style="stroke:#000000;" x="359.16531" xlink:href="#m429854f30c" y="114.300059"/>
     <use style="stroke:#000000;" x="359.979151" xlink:href="#m429854f30c" y="114.300059"/>
     <use style="stroke:#000000;" x="360.75171" xlink:href="#m429854f30c" y="114.012952"/>
     <use style="stroke:#000000;" x="361.543737" xlink:href="#m429854f30c" y="113.061239"/>
     <use style="stroke:#000000;" x="362.299369" xlink:href="#m429854f30c" y="112.282588"/>
     <use style="stroke:#000000;" x="363.083121" xlink:href="#m429854f30c" y="111.499455"/>
     <use style="stroke:#000000;" x="363.816571" xlink:href="#m429854f30c" y="109.969045"/>
     <use style="stroke:#000000;" x="364.590732" xlink:href="#m429854f30c" y="109.070372"/>
     <use style="stroke:#000000;" x="365.376337" xlink:href="#m429854f30c" y="108.976993"/>
     <use style="stroke:#000000;" x="366.182278" xlink:href="#m429854f30c" y="107.428904"/>
     <use style="stroke:#000000;" x="367.09036" xlink:href="#m429854f30c" y="107.41222"/>
     <use style="stroke:#000000;" x="368.016171" xlink:href="#m429854f30c" y="82.112902"/>
     <use style="stroke:#000000;" x="368.739282" xlink:href="#m429854f30c" y="82.112902"/>
     <use style="stroke:#000000;" x="369.59903" xlink:href="#m429854f30c" y="82.112902"/>
     <use style="stroke:#000000;" x="371.417123" xlink:href="#m429854f30c" y="82.112902"/>
     <use style="stroke:#000000;" x="372.122335" xlink:href="#m429854f30c" y="82.112902"/>
     <use style="stroke:#000000;" x="372.874631" xlink:href="#m429854f30c" y="82.112902"/>
     <use style="stroke:#000000;" x="373.772453" xlink:href="#m429854f30c" y="82.112902"/>
     <use style="stroke:#000000;" x="374.475093" xlink:href="#m429854f30c" y="82.112902"/>
     <use style="stroke:#000000;" x="375.135281" xlink:href="#m429854f30c" y="82.112902"/>
     <use style="stroke:#000000;" x="376.199189" xlink:href="#m429854f30c" y="82.112902"/>
     <use style="stroke:#000000;" x="377.22962" xlink:href="#m429854f30c" y="82.112902"/>
     <use style="stroke:#000000;" x="377.878104" xlink:href="#m429854f30c" y="82.112902"/>
     <use style="stroke:#000000;" x="379.266569" xlink:href="#m429854f30c" y="82.112902"/>
     <use style="stroke:#000000;" x="379.955032" xlink:href="#m429854f30c" y="82.112902"/>
     <use style="stroke:#000000;" x="380.609342" xlink:href="#m429854f30c" y="82.112902"/>
     <use style="stroke:#000000;" x="381.252205" xlink:href="#m429854f30c" y="82.112902"/>
     <use style="stroke:#000000;" x="381.886782" xlink:href="#m429854f30c" y="82.112902"/>
     <use style="stroke:#000000;" x="382.512875" xlink:href="#m429854f30c" y="82.112902"/>
     <use style="stroke:#000000;" x="383.136454" xlink:href="#m429854f30c" y="82.093728"/>
     <use style="stroke:#000000;" x="384.409667" xlink:href="#m429854f30c" y="82.069077"/>
     <use style="stroke:#000000;" x="385.057274" xlink:href="#m429854f30c" y="82.059365"/>
     <use style="stroke:#000000;" x="385.735757" xlink:href="#m429854f30c" y="82.059365"/>
     <use style="stroke:#000000;" x="386.822536" xlink:href="#m429854f30c" y="82.059365"/>
     <use style="stroke:#000000;" x="388.259495" xlink:href="#m429854f30c" y="81.543418"/>
     <use style="stroke:#000000;" x="388.953617" xlink:href="#m429854f30c" y="81.543418"/>
     <use style="stroke:#000000;" x="389.613411" xlink:href="#m429854f30c" y="81.543418"/>
     <use style="stroke:#000000;" x="390.298204" xlink:href="#m429854f30c" y="81.543418"/>
     <use style="stroke:#000000;" x="390.951274" xlink:href="#m429854f30c" y="81.543418"/>
     <use style="stroke:#000000;" x="391.601527" xlink:href="#m429854f30c" y="81.543418"/>
     <use style="stroke:#000000;" x="392.24009" xlink:href="#m429854f30c" y="81.543418"/>
     <use style="stroke:#000000;" x="392.886315" xlink:href="#m429854f30c" y="81.543418"/>
     <use style="stroke:#000000;" x="393.51993" xlink:href="#m429854f30c" y="80.454751"/>
     <use style="stroke:#000000;" x="394.155515" xlink:href="#m429854f30c" y="80.43732"/>
     <use style="stroke:#000000;" x="394.775985" xlink:href="#m429854f30c" y="79.898465"/>
     <use style="stroke:#000000;" x="395.423099" xlink:href="#m429854f30c" y="77.792595"/>
     <use style="stroke:#000000;" x="396.067164" xlink:href="#m429854f30c" y="75.959391"/>
     <use style="stroke:#000000;" x="396.677044" xlink:href="#m429854f30c" y="75.191447"/>
     <use style="stroke:#000000;" x="397.273266" xlink:href="#m429854f30c" y="74.407317"/>
     <use style="stroke:#000000;" x="398.487273" xlink:href="#m429854f30c" y="53.568"/>
    </g>
   </g>
   <g id="line2d_31">
    <path clip-path="url(#p9909ac4f7d)" d="M 73.832727 295.488 
L 398.487273 295.488 
L 398.487273 295.488 
" style="fill:none;stroke:#008000;stroke-linecap:square;stroke-width:1.5;"/>
    <defs>
     <path d="M 0 3 
C 0.795609 3 1.55874 2.683901 2.12132 2.12132 
C 2.683901 1.55874 3 0.795609 3 0 
C 3 -0.795609 2.683901 -1.55874 2.12132 -2.12132 
C 1.55874 -2.683901 0.795609 -3 0 -3 
C -0.795609 -3 -1.55874 -2.683901 -2.12132 -2.12132 
C -2.683901 -1.55874 -3 -0.795609 -3 0 
C -3 0.795609 -2.683901 1.55874 -2.12132 2.12132 
C -1.55874 2.683901 -0.795609 3 0 3 
z
" id="m0c5136615b" style="stroke:#008000;"/>
    </defs>
    <g clip-path="url(#p9909ac4f7d)">
     <use style="fill:#008000;stroke:#008000;" x="73.832727" xlink:href="#m0c5136615b" y="295.488"/>
     <use style="fill:#008000;stroke:#008000;" x="78.664781" xlink:href="#m0c5136615b" y="295.488"/>
     <use style="fill:#008000;stroke:#008000;" x="100.044037" xlink:href="#m0c5136615b" y="295.488"/>
     <use style="fill:#008000;stroke:#008000;" x="112.414745" xlink:href="#m0c5136615b" y="295.488"/>
     <use style="fill:#008000;stroke:#008000;" x="117.022719" xlink:href="#m0c5136615b" y="295.488"/>
     <use style="fill:#008000;stroke:#008000;" x="120.563218" xlink:href="#m0c5136615b" y="295.488"/>
     <use style="fill:#008000;stroke:#008000;" x="127.059528" xlink:href="#m0c5136615b" y="295.488"/>
     <use style="fill:#008000;stroke:#008000;" x="136.164122" xlink:href="#m0c5136615b" y="295.488"/>
     <use style="fill:#008000;stroke:#008000;" x="143.832711" xlink:href="#m0c5136615b" y="295.488"/>
     <use style="fill:#008000;stroke:#008000;" x="146.492929" xlink:href="#m0c5136615b" y="295.488"/>
     <use style="fill:#008000;stroke:#008000;" x="153.712765" xlink:href="#m0c5136615b" y="295.488"/>
     <use style="fill:#008000;stroke:#008000;" x="155.683174" xlink:href="#m0c5136615b" y="295.488"/>
     <use style="fill:#008000;stroke:#008000;" x="164.187476" xlink:href="#m0c5136615b" y="295.488"/>
     <use style="fill:#008000;stroke:#008000;" x="174.348844" xlink:href="#m0c5136615b" y="295.488"/>
     <use style="fill:#008000;stroke:#008000;" x="182.03878" xlink:href="#m0c5136615b" y="295.488"/>
     <use style="fill:#008000;stroke:#008000;" x="185.201095" xlink:href="#m0c5136615b" y="295.488"/>
     <use style="fill:#008000;stroke:#008000;" x="190.615227" xlink:href="#m0c5136615b" y="295.488"/>
     <use style="fill:#008000;stroke:#008000;" x="192.528964" xlink:href="#m0c5136615b" y="295.488"/>
     <use style="fill:#008000;stroke:#008000;" x="195.727229" xlink:href="#m0c5136615b" y="295.488"/>
     <use style="fill:#008000;stroke:#008000;" x="198.020791" xlink:href="#m0c5136615b" y="295.488"/>
     <use style="fill:#008000;stroke:#008000;" x="208.632483" xlink:href="#m0c5136615b" y="295.488"/>
     <use style="fill:#008000;stroke:#008000;" x="215.178417" xlink:href="#m0c5136615b" y="295.488"/>
     <use style="fill:#008000;stroke:#008000;" x="218.710135" xlink:href="#m0c5136615b" y="295.488"/>
     <use style="fill:#008000;stroke:#008000;" x="221.757506" xlink:href="#m0c5136615b" y="295.488"/>
     <use style="fill:#008000;stroke:#008000;" x="223.826054" xlink:href="#m0c5136615b" y="295.488"/>
     <use style="fill:#008000;stroke:#008000;" x="225.685275" xlink:href="#m0c5136615b" y="295.488"/>
     <use style="fill:#008000;stroke:#008000;" x="227.832428" xlink:href="#m0c5136615b" y="295.488"/>
     <use style="fill:#008000;stroke:#008000;" x="229.635771" xlink:href="#m0c5136615b" y="295.488"/>
     <use style="fill:#008000;stroke:#008000;" x="231.66622" xlink:href="#m0c5136615b" y="295.488"/>
     <use style="fill:#008000;stroke:#008000;" x="233.457186" xlink:href="#m0c5136615b" y="295.488"/>
     <use style="fill:#008000;stroke:#008000;" x="235.114957" xlink:href="#m0c5136615b" y="295.488"/>
     <use style="fill:#008000;stroke:#008000;" x="236.675666" xlink:href="#m0c5136615b" y="295.488"/>
     <use style="fill:#008000;stroke:#008000;" x="238.299034" xlink:href="#m0c5136615b" y="295.488"/>
     <use style="fill:#008000;stroke:#008000;" x="239.943549" xlink:href="#m0c5136615b" y="295.488"/>
     <use style="fill:#008000;stroke:#008000;" x="242.527649" xlink:href="#m0c5136615b" y="295.488"/>
     <use style="fill:#008000;stroke:#008000;" x="245.840737" xlink:href="#m0c5136615b" y="295.488"/>
     <use style="fill:#008000;stroke:#008000;" x="247.865596" xlink:href="#m0c5136615b" y="295.488"/>
     <use style="fill:#008000;stroke:#008000;" x="249.423951" xlink:href="#m0c5136615b" y="295.488"/>
     <use style="fill:#008000;stroke:#008000;" x="250.90635" xlink:href="#m0c5136615b" y="295.488"/>
     <use style="fill:#008000;stroke:#008000;" x="252.649184" xlink:href="#m0c5136615b" y="295.488"/>
     <use style="fill:#008000;stroke:#008000;" x="254.153205" xlink:href="#m0c5136615b" y="295.488"/>
     <use style="fill:#008000;stroke:#008000;" x="255.47958" xlink:href="#m0c5136615b" y="295.488"/>
     <use style="fill:#008000;stroke:#008000;" x="257.784415" xlink:href="#m0c5136615b" y="295.488"/>
     <use style="fill:#008000;stroke:#008000;" x="259.142085" xlink:href="#m0c5136615b" y="295.488"/>
     <use style="fill:#008000;stroke:#008000;" x="260.780217" xlink:href="#m0c5136615b" y="295.488"/>
     <use style="fill:#008000;stroke:#008000;" x="262.062506" xlink:href="#m0c5136615b" y="295.488"/>
     <use style="fill:#008000;stroke:#008000;" x="267.759822" xlink:href="#m0c5136615b" y="295.488"/>
     <use style="fill:#008000;stroke:#008000;" x="269.28715" xlink:href="#m0c5136615b" y="295.488"/>
     <use style="fill:#008000;stroke:#008000;" x="270.848675" xlink:href="#m0c5136615b" y="295.488"/>
     <use style="fill:#008000;stroke:#008000;" x="272.323061" xlink:href="#m0c5136615b" y="295.488"/>
     <use style="fill:#008000;stroke:#008000;" x="273.744406" xlink:href="#m0c5136615b" y="295.488"/>
     <use style="fill:#008000;stroke:#008000;" x="275.35025" xlink:href="#m0c5136615b" y="295.488"/>
     <use style="fill:#008000;stroke:#008000;" x="279.421314" xlink:href="#m0c5136615b" y="295.488"/>
     <use style="fill:#008000;stroke:#008000;" x="280.912185" xlink:href="#m0c5136615b" y="295.488"/>
     <use style="fill:#008000;stroke:#008000;" x="282.19724" xlink:href="#m0c5136615b" y="295.488"/>
     <use style="fill:#008000;stroke:#008000;" x="283.62527" xlink:href="#m0c5136615b" y="295.488"/>
     <use style="fill:#008000;stroke:#008000;" x="285.082605" xlink:href="#m0c5136615b" y="295.488"/>
     <use style="fill:#008000;stroke:#008000;" x="286.248995" xlink:href="#m0c5136615b" y="295.488"/>
     <use style="fill:#008000;stroke:#008000;" x="287.647684" xlink:href="#m0c5136615b" y="295.488"/>
     <use style="fill:#008000;stroke:#008000;" x="292.527725" xlink:href="#m0c5136615b" y="295.488"/>
     <use style="fill:#008000;stroke:#008000;" x="293.830405" xlink:href="#m0c5136615b" y="295.488"/>
     <use style="fill:#008000;stroke:#008000;" x="295.084492" xlink:href="#m0c5136615b" y="295.488"/>
     <use style="fill:#008000;stroke:#008000;" x="296.328911" xlink:href="#m0c5136615b" y="295.488"/>
     <use style="fill:#008000;stroke:#008000;" x="297.623993" xlink:href="#m0c5136615b" y="295.488"/>
     <use style="fill:#008000;stroke:#008000;" x="300.092194" xlink:href="#m0c5136615b" y="295.488"/>
     <use style="fill:#008000;stroke:#008000;" x="302.375321" xlink:href="#m0c5136615b" y="295.488"/>
     <use style="fill:#008000;stroke:#008000;" x="303.603233" xlink:href="#m0c5136615b" y="295.488"/>
     <use style="fill:#008000;stroke:#008000;" x="304.735536" xlink:href="#m0c5136615b" y="295.488"/>
     <use style="fill:#008000;stroke:#008000;" x="305.940178" xlink:href="#m0c5136615b" y="295.488"/>
     <use style="fill:#008000;stroke:#008000;" x="307.017706" xlink:href="#m0c5136615b" y="295.488"/>
     <use style="fill:#008000;stroke:#008000;" x="308.429947" xlink:href="#m0c5136615b" y="295.488"/>
     <use style="fill:#008000;stroke:#008000;" x="309.494545" xlink:href="#m0c5136615b" y="295.488"/>
     <use style="fill:#008000;stroke:#008000;" x="310.683751" xlink:href="#m0c5136615b" y="295.488"/>
     <use style="fill:#008000;stroke:#008000;" x="313.000889" xlink:href="#m0c5136615b" y="295.488"/>
     <use style="fill:#008000;stroke:#008000;" x="314.242751" xlink:href="#m0c5136615b" y="295.488"/>
     <use style="fill:#008000;stroke:#008000;" x="315.357277" xlink:href="#m0c5136615b" y="295.488"/>
     <use style="fill:#008000;stroke:#008000;" x="317.414182" xlink:href="#m0c5136615b" y="295.488"/>
     <use style="fill:#008000;stroke:#008000;" x="318.460136" xlink:href="#m0c5136615b" y="295.488"/>
     <use style="fill:#008000;stroke:#008000;" x="319.40776" xlink:href="#m0c5136615b" y="295.488"/>
     <use style="fill:#008000;stroke:#008000;" x="320.437129" xlink:href="#m0c5136615b" y="295.488"/>
     <use style="fill:#008000;stroke:#008000;" x="322.328566" xlink:href="#m0c5136615b" y="295.488"/>
     <use style="fill:#008000;stroke:#008000;" x="323.418806" xlink:href="#m0c5136615b" y="295.488"/>
     <use style="fill:#008000;stroke:#008000;" x="324.482972" xlink:href="#m0c5136615b" y="295.488"/>
     <use style="fill:#008000;stroke:#008000;" x="325.650312" xlink:href="#m0c5136615b" y="295.488"/>
     <use style="fill:#008000;stroke:#008000;" x="326.686342" xlink:href="#m0c5136615b" y="295.488"/>
     <use style="fill:#008000;stroke:#008000;" x="327.736851" xlink:href="#m0c5136615b" y="295.488"/>
     <use style="fill:#008000;stroke:#008000;" x="328.680512" xlink:href="#m0c5136615b" y="295.488"/>
     <use style="fill:#008000;stroke:#008000;" x="329.626467" xlink:href="#m0c5136615b" y="295.488"/>
     <use style="fill:#008000;stroke:#008000;" x="330.540699" xlink:href="#m0c5136615b" y="295.488"/>
     <use style="fill:#008000;stroke:#008000;" x="331.483485" xlink:href="#m0c5136615b" y="295.488"/>
     <use style="fill:#008000;stroke:#008000;" x="332.404225" xlink:href="#m0c5136615b" y="295.488"/>
     <use style="fill:#008000;stroke:#008000;" x="333.285588" xlink:href="#m0c5136615b" y="295.488"/>
     <use style="fill:#008000;stroke:#008000;" x="334.71448" xlink:href="#m0c5136615b" y="295.488"/>
     <use style="fill:#008000;stroke:#008000;" x="335.673288" xlink:href="#m0c5136615b" y="295.488"/>
     <use style="fill:#008000;stroke:#008000;" x="336.630397" xlink:href="#m0c5136615b" y="295.488"/>
     <use style="fill:#008000;stroke:#008000;" x="338.529043" xlink:href="#m0c5136615b" y="295.488"/>
     <use style="fill:#008000;stroke:#008000;" x="339.448709" xlink:href="#m0c5136615b" y="295.488"/>
     <use style="fill:#008000;stroke:#008000;" x="340.386434" xlink:href="#m0c5136615b" y="295.488"/>
     <use style="fill:#008000;stroke:#008000;" x="341.296471" xlink:href="#m0c5136615b" y="295.488"/>
     <use style="fill:#008000;stroke:#008000;" x="342.692143" xlink:href="#m0c5136615b" y="295.488"/>
     <use style="fill:#008000;stroke:#008000;" x="343.506081" xlink:href="#m0c5136615b" y="295.488"/>
     <use style="fill:#008000;stroke:#008000;" x="344.398542" xlink:href="#m0c5136615b" y="295.488"/>
     <use style="fill:#008000;stroke:#008000;" x="345.238677" xlink:href="#m0c5136615b" y="295.488"/>
     <use style="fill:#008000;stroke:#008000;" x="346.058783" xlink:href="#m0c5136615b" y="295.488"/>
     <use style="fill:#008000;stroke:#008000;" x="346.879671" xlink:href="#m0c5136615b" y="295.488"/>
     <use style="fill:#008000;stroke:#008000;" x="347.765689" xlink:href="#m0c5136615b" y="295.488"/>
     <use style="fill:#008000;stroke:#008000;" x="348.630524" xlink:href="#m0c5136615b" y="295.488"/>
     <use style="fill:#008000;stroke:#008000;" x="349.486593" xlink:href="#m0c5136615b" y="295.488"/>
     <use style="fill:#008000;stroke:#008000;" x="350.307711" xlink:href="#m0c5136615b" y="295.488"/>
     <use style="fill:#008000;stroke:#008000;" x="351.093212" xlink:href="#m0c5136615b" y="295.488"/>
     <use style="fill:#008000;stroke:#008000;" x="355.896726" xlink:href="#m0c5136615b" y="295.488"/>
     <use style="fill:#008000;stroke:#008000;" x="356.718349" xlink:href="#m0c5136615b" y="295.488"/>
     <use style="fill:#008000;stroke:#008000;" x="357.60609" xlink:href="#m0c5136615b" y="295.488"/>
     <use style="fill:#008000;stroke:#008000;" x="358.404143" xlink:href="#m0c5136615b" y="295.488"/>
     <use style="fill:#008000;stroke:#008000;" x="359.16531" xlink:href="#m0c5136615b" y="295.488"/>
     <use style="fill:#008000;stroke:#008000;" x="359.979151" xlink:href="#m0c5136615b" y="295.488"/>
     <use style="fill:#008000;stroke:#008000;" x="360.75171" xlink:href="#m0c5136615b" y="295.488"/>
     <use style="fill:#008000;stroke:#008000;" x="361.543737" xlink:href="#m0c5136615b" y="295.488"/>
     <use style="fill:#008000;stroke:#008000;" x="362.299369" xlink:href="#m0c5136615b" y="295.488"/>
     <use style="fill:#008000;stroke:#008000;" x="363.083121" xlink:href="#m0c5136615b" y="295.488"/>
     <use style="fill:#008000;stroke:#008000;" x="363.816571" xlink:href="#m0c5136615b" y="295.488"/>
     <use style="fill:#008000;stroke:#008000;" x="364.590732" xlink:href="#m0c5136615b" y="295.488"/>
     <use style="fill:#008000;stroke:#008000;" x="365.376337" xlink:href="#m0c5136615b" y="295.488"/>
     <use style="fill:#008000;stroke:#008000;" x="366.182278" xlink:href="#m0c5136615b" y="295.488"/>
     <use style="fill:#008000;stroke:#008000;" x="367.09036" xlink:href="#m0c5136615b" y="295.488"/>
     <use style="fill:#008000;stroke:#008000;" x="368.016171" xlink:href="#m0c5136615b" y="295.488"/>
     <use style="fill:#008000;stroke:#008000;" x="368.739282" xlink:href="#m0c5136615b" y="295.488"/>
     <use style="fill:#008000;stroke:#008000;" x="369.59903" xlink:href="#m0c5136615b" y="295.488"/>
     <use style="fill:#008000;stroke:#008000;" x="371.417123" xlink:href="#m0c5136615b" y="295.488"/>
     <use style="fill:#008000;stroke:#008000;" x="372.122335" xlink:href="#m0c5136615b" y="295.488"/>
     <use style="fill:#008000;stroke:#008000;" x="372.874631" xlink:href="#m0c5136615b" y="295.488"/>
     <use style="fill:#008000;stroke:#008000;" x="373.772453" xlink:href="#m0c5136615b" y="295.488"/>
     <use style="fill:#008000;stroke:#008000;" x="374.475093" xlink:href="#m0c5136615b" y="295.488"/>
     <use style="fill:#008000;stroke:#008000;" x="375.135281" xlink:href="#m0c5136615b" y="295.488"/>
     <use style="fill:#008000;stroke:#008000;" x="376.199189" xlink:href="#m0c5136615b" y="295.488"/>
     <use style="fill:#008000;stroke:#008000;" x="377.22962" xlink:href="#m0c5136615b" y="295.488"/>
     <use style="fill:#008000;stroke:#008000;" x="377.878104" xlink:href="#m0c5136615b" y="295.488"/>
     <use style="fill:#008000;stroke:#008000;" x="379.266569" xlink:href="#m0c5136615b" y="295.488"/>
     <use style="fill:#008000;stroke:#008000;" x="379.955032" xlink:href="#m0c5136615b" y="295.488"/>
     <use style="fill:#008000;stroke:#008000;" x="380.609342" xlink:href="#m0c5136615b" y="295.488"/>
     <use style="fill:#008000;stroke:#008000;" x="381.252205" xlink:href="#m0c5136615b" y="295.488"/>
     <use style="fill:#008000;stroke:#008000;" x="381.886782" xlink:href="#m0c5136615b" y="295.488"/>
     <use style="fill:#008000;stroke:#008000;" x="382.512875" xlink:href="#m0c5136615b" y="295.488"/>
     <use style="fill:#008000;stroke:#008000;" x="383.136454" xlink:href="#m0c5136615b" y="295.488"/>
     <use style="fill:#008000;stroke:#008000;" x="384.409667" xlink:href="#m0c5136615b" y="295.488"/>
     <use style="fill:#008000;stroke:#008000;" x="385.057274" xlink:href="#m0c5136615b" y="295.488"/>
     <use style="fill:#008000;stroke:#008000;" x="385.735757" xlink:href="#m0c5136615b" y="295.488"/>
     <use style="fill:#008000;stroke:#008000;" x="386.822536" xlink:href="#m0c5136615b" y="295.488"/>
     <use style="fill:#008000;stroke:#008000;" x="388.259495" xlink:href="#m0c5136615b" y="295.488"/>
     <use style="fill:#008000;stroke:#008000;" x="388.953617" xlink:href="#m0c5136615b" y="295.488"/>
     <use style="fill:#008000;stroke:#008000;" x="389.613411" xlink:href="#m0c5136615b" y="295.488"/>
     <use style="fill:#008000;stroke:#008000;" x="390.298204" xlink:href="#m0c5136615b" y="295.488"/>
     <use style="fill:#008000;stroke:#008000;" x="390.951274" xlink:href="#m0c5136615b" y="295.488"/>
     <use style="fill:#008000;stroke:#008000;" x="391.601527" xlink:href="#m0c5136615b" y="295.488"/>
     <use style="fill:#008000;stroke:#008000;" x="392.24009" xlink:href="#m0c5136615b" y="295.488"/>
     <use style="fill:#008000;stroke:#008000;" x="392.886315" xlink:href="#m0c5136615b" y="295.488"/>
     <use style="fill:#008000;stroke:#008000;" x="393.51993" xlink:href="#m0c5136615b" y="295.488"/>
     <use style="fill:#008000;stroke:#008000;" x="394.155515" xlink:href="#m0c5136615b" y="295.488"/>
     <use style="fill:#008000;stroke:#008000;" x="394.775985" xlink:href="#m0c5136615b" y="295.488"/>
     <use style="fill:#008000;stroke:#008000;" x="395.423099" xlink:href="#m0c5136615b" y="295.488"/>
     <use style="fill:#008000;stroke:#008000;" x="396.067164" xlink:href="#m0c5136615b" y="295.488"/>
     <use style="fill:#008000;stroke:#008000;" x="396.677044" xlink:href="#m0c5136615b" y="295.488"/>
     <use style="fill:#008000;stroke:#008000;" x="397.273266" xlink:href="#m0c5136615b" y="295.488"/>
     <use style="fill:#008000;stroke:#008000;" x="398.487273" xlink:href="#m0c5136615b" y="295.488"/>
    </g>
   </g>
   <g id="patch_3">
    <path d="M 57.6 307.584 
L 57.6 41.472 
" style="fill:none;stroke:#000000;stroke-linecap:square;stroke-linejoin:miter;stroke-width:0.8;"/>
   </g>
   <g id="patch_4">
    <path d="M 414.72 307.584 
L 414.72 41.472 
" style="fill:none;stroke:#000000;stroke-linecap:square;stroke-linejoin:miter;stroke-width:0.8;"/>
   </g>
   <g id="patch_5">
    <path d="M 57.6 307.584 
L 414.72 307.584 
" style="fill:none;stroke:#000000;stroke-linecap:square;stroke-linejoin:miter;stroke-width:0.8;"/>
   </g>
   <g id="patch_6">
    <path d="M 57.6 41.472 
L 414.72 41.472 
" style="fill:none;stroke:#000000;stroke-linecap:square;stroke-linejoin:miter;stroke-width:0.8;"/>
   </g>
   <g id="legend_1">
    <g id="patch_7">
     <path d="M 64.6 78.82825 
L 151.392188 78.82825 
Q 153.392188 78.82825 153.392188 76.82825 
L 153.392188 48.472 
Q 153.392188 46.472 151.392188 46.472 
L 64.6 46.472 
Q 62.6 46.472 62.6 48.472 
L 62.6 76.82825 
Q 62.6 78.82825 64.6 78.82825 
z
" style="fill:#ffffff;opacity:0.8;stroke:#cccccc;stroke-linejoin:miter;"/>
    </g>
    <g id="line2d_32">
     <path d="M 66.6 54.570437 
L 86.6 54.570437 
" style="fill:none;stroke:#000000;stroke-linecap:square;stroke-width:1.5;"/>
    </g>
    <g id="line2d_33">
     <g>
      <use style="stroke:#000000;" x="76.6" xlink:href="#m429854f30c" y="54.570437"/>
     </g>
    </g>
    <g id="text_15">
     <!-- RAM -->
     <defs>
      <path d="M 44.390625 34.1875 
Q 47.5625 33.109375 50.5625 29.59375 
Q 53.5625 26.078125 56.59375 19.921875 
L 66.609375 0 
L 56 0 
L 46.6875 18.703125 
Q 43.0625 26.03125 39.671875 28.421875 
Q 36.28125 30.8125 30.421875 30.8125 
L 19.671875 30.8125 
L 19.671875 0 
L 9.8125 0 
L 9.8125 72.90625 
L 32.078125 72.90625 
Q 44.578125 72.90625 50.734375 67.671875 
Q 56.890625 62.453125 56.890625 51.90625 
Q 56.890625 45.015625 53.6875 40.46875 
Q 50.484375 35.9375 44.390625 34.1875 
z
M 19.671875 64.796875 
L 19.671875 38.921875 
L 32.078125 38.921875 
Q 39.203125 38.921875 42.84375 42.21875 
Q 46.484375 45.515625 46.484375 51.90625 
Q 46.484375 58.296875 42.84375 61.546875 
Q 39.203125 64.796875 32.078125 64.796875 
z
" id="DejaVuSans-52"/>
      <path d="M 34.1875 63.1875 
L 20.796875 26.90625 
L 47.609375 26.90625 
z
M 28.609375 72.90625 
L 39.796875 72.90625 
L 67.578125 0 
L 57.328125 0 
L 50.6875 18.703125 
L 17.828125 18.703125 
L 11.1875 0 
L 0.78125 0 
z
" id="DejaVuSans-41"/>
     </defs>
     <g transform="translate(94.6 58.070437)scale(0.1 -0.1)">
      <use xlink:href="#DejaVuSans-52"/>
      <use x="69.419922" xlink:href="#DejaVuSans-41"/>
      <use x="137.828125" xlink:href="#DejaVuSans-4d"/>
     </g>
    </g>
    <g id="line2d_34">
     <path d="M 66.6 69.248562 
L 86.6 69.248562 
" style="fill:none;stroke:#008000;stroke-linecap:square;stroke-width:1.5;"/>
    </g>
    <g id="line2d_35">
     <g>
      <use style="fill:#008000;stroke:#008000;" x="76.6" xlink:href="#m0c5136615b" y="69.248562"/>
     </g>
    </g>
    <g id="text_16">
     <!-- Restart file -->
     <defs>
      <path d="M 34.28125 27.484375 
Q 23.390625 27.484375 19.1875 25 
Q 14.984375 22.515625 14.984375 16.5 
Q 14.984375 11.71875 18.140625 8.90625 
Q 21.296875 6.109375 26.703125 6.109375 
Q 34.1875 6.109375 38.703125 11.40625 
Q 43.21875 16.703125 43.21875 25.484375 
L 43.21875 27.484375 
z
M 52.203125 31.203125 
L 52.203125 0 
L 43.21875 0 
L 43.21875 8.296875 
Q 40.140625 3.328125 35.546875 0.953125 
Q 30.953125 -1.421875 24.3125 -1.421875 
Q 15.921875 -1.421875 10.953125 3.296875 
Q 6 8.015625 6 15.921875 
Q 6 25.140625 12.171875 29.828125 
Q 18.359375 34.515625 30.609375 34.515625 
L 43.21875 34.515625 
L 43.21875 35.40625 
Q 43.21875 41.609375 39.140625 45 
Q 35.0625 48.390625 27.6875 48.390625 
Q 23 48.390625 18.546875 47.265625 
Q 14.109375 46.140625 10.015625 43.890625 
L 10.015625 52.203125 
Q 14.9375 54.109375 19.578125 55.046875 
Q 24.21875 56 28.609375 56 
Q 40.484375 56 46.34375 49.84375 
Q 52.203125 43.703125 52.203125 31.203125 
z
" id="DejaVuSans-61"/>
      <path d="M 37.109375 75.984375 
L 37.109375 68.5 
L 28.515625 68.5 
Q 23.6875 68.5 21.796875 66.546875 
Q 19.921875 64.59375 19.921875 59.515625 
L 19.921875 54.6875 
L 34.71875 54.6875 
L 34.71875 47.703125 
L 19.921875 47.703125 
L 19.921875 0 
L 10.890625 0 
L 10.890625 47.703125 
L 2.296875 47.703125 
L 2.296875 54.6875 
L 10.890625 54.6875 
L 10.890625 58.5 
Q 10.890625 67.625 15.140625 71.796875 
Q 19.390625 75.984375 28.609375 75.984375 
z
" id="DejaVuSans-66"/>
      <path d="M 9.421875 75.984375 
L 18.40625 75.984375 
L 18.40625 0 
L 9.421875 0 
z
" id="DejaVuSans-6c"/>
     </defs>
     <g transform="translate(94.6 72.748562)scale(0.1 -0.1)">
      <use xlink:href="#DejaVuSans-52"/>
      <use x="69.419922" xlink:href="#DejaVuSans-65"/>
      <use x="130.943359" xlink:href="#DejaVuSans-73"/>
      <use x="183.042969" xlink:href="#DejaVuSans-74"/>
      <use x="222.251953" xlink:href="#DejaVuSans-61"/>
      <use x="283.53125" xlink:href="#DejaVuSans-72"/>
      <use x="324.644531" xlink:href="#DejaVuSans-74"/>
      <use x="363.853516" xlink:href="#DejaVuSans-20"/>
      <use x="395.640625" xlink:href="#DejaVuSans-66"/>
      <use x="430.845703" xlink:href="#DejaVuSans-69"/>
      <use x="458.628906" xlink:href="#DejaVuSans-6c"/>
      <use x="486.412109" xlink:href="#DejaVuSans-65"/>
     </g>
    </g>
   </g>
  </g>
 </g>
 <defs>
  <clipPath id="p9909ac4f7d">
   <rect height="266.112" width="357.12" x="57.6" y="41.472"/>
  </clipPath>
 </defs>
</svg>
