<?xml version="1.0" encoding="utf-8" standalone="no"?>
<!DOCTYPE svg PUBLIC "-//W3C//DTD SVG 1.1//EN"
  "http://www.w3.org/Graphics/SVG/1.1/DTD/svg11.dtd">
<!-- Created with matplotlib (http://matplotlib.org/) -->
<svg height="345.6pt" version="1.1" viewBox="0 0 460.8 345.6" width="460.8pt" xmlns="http://www.w3.org/2000/svg" xmlns:xlink="http://www.w3.org/1999/xlink">
 <defs>
  <style type="text/css">
*{stroke-linecap:butt;stroke-linejoin:round;}
  </style>
 </defs>
 <g id="figure_1">
  <g id="patch_1">
   <path d="M 0 345.6 
L 460.8 345.6 
L 460.8 0 
L 0 0 
z
" style="fill:#ffffff;"/>
  </g>
  <g id="axes_1">
   <g id="patch_2">
    <path d="M 57.6 307.584 
L 414.72 307.584 
L 414.72 41.472 
L 57.6 41.472 
z
" style="fill:#ffffff;"/>
   </g>
   <g id="matplotlib.axis_1">
    <g id="xtick_1">
     <g id="line2d_1">
      <defs>
       <path d="M 0 0 
L 0 3.5 
" id="m72bf88b7e7" style="stroke:#000000;stroke-width:0.8;"/>
      </defs>
      <g>
       <use style="stroke:#000000;stroke-width:0.8;" x="70.423904" xlink:href="#m72bf88b7e7" y="307.584"/>
      </g>
     </g>
     <g id="text_1">
      <!-- $\mathdefault{10^{2}}$ -->
      <defs>
       <path d="M 12.40625 8.296875 
L 28.515625 8.296875 
L 28.515625 63.921875 
L 10.984375 60.40625 
L 10.984375 69.390625 
L 28.421875 72.90625 
L 38.28125 72.90625 
L 38.28125 8.296875 
L 54.390625 8.296875 
L 54.390625 0 
L 12.40625 0 
z
" id="DejaVuSans-31"/>
       <path d="M 31.78125 66.40625 
Q 24.171875 66.40625 20.328125 58.90625 
Q 16.5 51.421875 16.5 36.375 
Q 16.5 21.390625 20.328125 13.890625 
Q 24.171875 6.390625 31.78125 6.390625 
Q 39.453125 6.390625 43.28125 13.890625 
Q 47.125 21.390625 47.125 36.375 
Q 47.125 51.421875 43.28125 58.90625 
Q 39.453125 66.40625 31.78125 66.40625 
z
M 31.78125 74.21875 
Q 44.046875 74.21875 50.515625 64.515625 
Q 56.984375 54.828125 56.984375 36.375 
Q 56.984375 17.96875 50.515625 8.265625 
Q 44.046875 -1.421875 31.78125 -1.421875 
Q 19.53125 -1.421875 13.0625 8.265625 
Q 6.59375 17.96875 6.59375 36.375 
Q 6.59375 54.828125 13.0625 64.515625 
Q 19.53125 74.21875 31.78125 74.21875 
z
" id="DejaVuSans-30"/>
       <path d="M 19.1875 8.296875 
L 53.609375 8.296875 
L 53.609375 0 
L 7.328125 0 
L 7.328125 8.296875 
Q 12.9375 14.109375 22.625 23.890625 
Q 32.328125 33.6875 34.8125 36.53125 
Q 39.546875 41.84375 41.421875 45.53125 
Q 43.3125 49.21875 43.3125 52.78125 
Q 43.3125 58.59375 39.234375 62.25 
Q 35.15625 65.921875 28.609375 65.921875 
Q 23.96875 65.921875 18.8125 64.3125 
Q 13.671875 62.703125 7.8125 59.421875 
L 7.8125 69.390625 
Q 13.765625 71.78125 18.9375 73 
Q 24.125 74.21875 28.421875 74.21875 
Q 39.75 74.21875 46.484375 68.546875 
Q 53.21875 62.890625 53.21875 53.421875 
Q 53.21875 48.921875 51.53125 44.890625 
Q 49.859375 40.875 45.40625 35.40625 
Q 44.1875 33.984375 37.640625 27.21875 
Q 31.109375 20.453125 19.1875 8.296875 
z
" id="DejaVuSans-32"/>
      </defs>
      <g transform="translate(61.623904 322.182437)scale(0.1 -0.1)">
       <use transform="translate(0 0.765625)" xlink:href="#DejaVuSans-31"/>
       <use transform="translate(63.623047 0.765625)" xlink:href="#DejaVuSans-30"/>
       <use transform="translate(128.203125 39.046875)scale(0.7)" xlink:href="#DejaVuSans-32"/>
      </g>
     </g>
    </g>
    <g id="xtick_2">
     <g id="line2d_2">
      <g>
       <use style="stroke:#000000;stroke-width:0.8;" x="230.204719" xlink:href="#m72bf88b7e7" y="307.584"/>
      </g>
     </g>
     <g id="text_2">
      <!-- $\mathdefault{10^{3}}$ -->
      <defs>
       <path d="M 40.578125 39.3125 
Q 47.65625 37.796875 51.625 33 
Q 55.609375 28.21875 55.609375 21.1875 
Q 55.609375 10.40625 48.1875 4.484375 
Q 40.765625 -1.421875 27.09375 -1.421875 
Q 22.515625 -1.421875 17.65625 -0.515625 
Q 12.796875 0.390625 7.625 2.203125 
L 7.625 11.71875 
Q 11.71875 9.328125 16.59375 8.109375 
Q 21.484375 6.890625 26.8125 6.890625 
Q 36.078125 6.890625 40.9375 10.546875 
Q 45.796875 14.203125 45.796875 21.1875 
Q 45.796875 27.640625 41.28125 31.265625 
Q 36.765625 34.90625 28.71875 34.90625 
L 20.21875 34.90625 
L 20.21875 43.015625 
L 29.109375 43.015625 
Q 36.375 43.015625 40.234375 45.921875 
Q 44.09375 48.828125 44.09375 54.296875 
Q 44.09375 59.90625 40.109375 62.90625 
Q 36.140625 65.921875 28.71875 65.921875 
Q 24.65625 65.921875 20.015625 65.03125 
Q 15.375 64.15625 9.8125 62.3125 
L 9.8125 71.09375 
Q 15.4375 72.65625 20.34375 73.4375 
Q 25.25 74.21875 29.59375 74.21875 
Q 40.828125 74.21875 47.359375 69.109375 
Q 53.90625 64.015625 53.90625 55.328125 
Q 53.90625 49.265625 50.4375 45.09375 
Q 46.96875 40.921875 40.578125 39.3125 
z
" id="DejaVuSans-33"/>
      </defs>
      <g transform="translate(221.404719 322.182437)scale(0.1 -0.1)">
       <use transform="translate(0 0.765625)" xlink:href="#DejaVuSans-31"/>
       <use transform="translate(63.623047 0.765625)" xlink:href="#DejaVuSans-30"/>
       <use transform="translate(128.203125 39.046875)scale(0.7)" xlink:href="#DejaVuSans-33"/>
      </g>
     </g>
    </g>
    <g id="xtick_3">
     <g id="line2d_3">
      <g>
       <use style="stroke:#000000;stroke-width:0.8;" x="389.985534" xlink:href="#m72bf88b7e7" y="307.584"/>
      </g>
     </g>
     <g id="text_3">
      <!-- $\mathdefault{10^{4}}$ -->
      <defs>
       <path d="M 37.796875 64.3125 
L 12.890625 25.390625 
L 37.796875 25.390625 
z
M 35.203125 72.90625 
L 47.609375 72.90625 
L 47.609375 25.390625 
L 58.015625 25.390625 
L 58.015625 17.1875 
L 47.609375 17.1875 
L 47.609375 0 
L 37.796875 0 
L 37.796875 17.1875 
L 4.890625 17.1875 
L 4.890625 26.703125 
z
" id="DejaVuSans-34"/>
      </defs>
      <g transform="translate(381.185534 322.182437)scale(0.1 -0.1)">
       <use transform="translate(0 0.684375)" xlink:href="#DejaVuSans-31"/>
       <use transform="translate(63.623047 0.684375)" xlink:href="#DejaVuSans-30"/>
       <use transform="translate(128.203125 38.965625)scale(0.7)" xlink:href="#DejaVuSans-34"/>
      </g>
     </g>
    </g>
    <g id="xtick_4">
     <g id="line2d_4">
      <defs>
       <path d="M 0 0 
L 0 2 
" id="me82aff633c" style="stroke:#000000;stroke-width:0.6;"/>
      </defs>
      <g>
       <use style="stroke:#000000;stroke-width:0.6;" x="63.112735" xlink:href="#me82aff633c" y="307.584"/>
      </g>
     </g>
    </g>
    <g id="xtick_5">
     <g id="line2d_5">
      <g>
       <use style="stroke:#000000;stroke-width:0.6;" x="118.522722" xlink:href="#me82aff633c" y="307.584"/>
      </g>
     </g>
    </g>
    <g id="xtick_6">
     <g id="line2d_6">
      <g>
       <use style="stroke:#000000;stroke-width:0.6;" x="146.658727" xlink:href="#me82aff633c" y="307.584"/>
      </g>
     </g>
    </g>
    <g id="xtick_7">
     <g id="line2d_7">
      <g>
       <use style="stroke:#000000;stroke-width:0.6;" x="166.62154" xlink:href="#me82aff633c" y="307.584"/>
      </g>
     </g>
    </g>
    <g id="xtick_8">
     <g id="line2d_8">
      <g>
       <use style="stroke:#000000;stroke-width:0.6;" x="182.105901" xlink:href="#me82aff633c" y="307.584"/>
      </g>
     </g>
    </g>
    <g id="xtick_9">
     <g id="line2d_9">
      <g>
       <use style="stroke:#000000;stroke-width:0.6;" x="194.757545" xlink:href="#me82aff633c" y="307.584"/>
      </g>
     </g>
    </g>
    <g id="xtick_10">
     <g id="line2d_10">
      <g>
       <use style="stroke:#000000;stroke-width:0.6;" x="205.454358" xlink:href="#me82aff633c" y="307.584"/>
      </g>
     </g>
    </g>
    <g id="xtick_11">
     <g id="line2d_11">
      <g>
       <use style="stroke:#000000;stroke-width:0.6;" x="214.720358" xlink:href="#me82aff633c" y="307.584"/>
      </g>
     </g>
    </g>
    <g id="xtick_12">
     <g id="line2d_12">
      <g>
       <use style="stroke:#000000;stroke-width:0.6;" x="222.89355" xlink:href="#me82aff633c" y="307.584"/>
      </g>
     </g>
    </g>
    <g id="xtick_13">
     <g id="line2d_13">
      <g>
       <use style="stroke:#000000;stroke-width:0.6;" x="278.303537" xlink:href="#me82aff633c" y="307.584"/>
      </g>
     </g>
    </g>
    <g id="xtick_14">
     <g id="line2d_14">
      <g>
       <use style="stroke:#000000;stroke-width:0.6;" x="306.439542" xlink:href="#me82aff633c" y="307.584"/>
      </g>
     </g>
    </g>
    <g id="xtick_15">
     <g id="line2d_15">
      <g>
       <use style="stroke:#000000;stroke-width:0.6;" x="326.402355" xlink:href="#me82aff633c" y="307.584"/>
      </g>
     </g>
    </g>
    <g id="xtick_16">
     <g id="line2d_16">
      <g>
       <use style="stroke:#000000;stroke-width:0.6;" x="341.886716" xlink:href="#me82aff633c" y="307.584"/>
      </g>
     </g>
    </g>
    <g id="xtick_17">
     <g id="line2d_17">
      <g>
       <use style="stroke:#000000;stroke-width:0.6;" x="354.53836" xlink:href="#me82aff633c" y="307.584"/>
      </g>
     </g>
    </g>
    <g id="xtick_18">
     <g id="line2d_18">
      <g>
       <use style="stroke:#000000;stroke-width:0.6;" x="365.235172" xlink:href="#me82aff633c" y="307.584"/>
      </g>
     </g>
    </g>
    <g id="xtick_19">
     <g id="line2d_19">
      <g>
       <use style="stroke:#000000;stroke-width:0.6;" x="374.501173" xlink:href="#me82aff633c" y="307.584"/>
      </g>
     </g>
    </g>
    <g id="xtick_20">
     <g id="line2d_20">
      <g>
       <use style="stroke:#000000;stroke-width:0.6;" x="382.674365" xlink:href="#me82aff633c" y="307.584"/>
      </g>
     </g>
    </g>
    <g id="text_4">
     <!-- Execution time (s) -->
     <defs>
      <path d="M 9.8125 72.90625 
L 55.90625 72.90625 
L 55.90625 64.59375 
L 19.671875 64.59375 
L 19.671875 43.015625 
L 54.390625 43.015625 
L 54.390625 34.71875 
L 19.671875 34.71875 
L 19.671875 8.296875 
L 56.78125 8.296875 
L 56.78125 0 
L 9.8125 0 
z
" id="DejaVuSans-45"/>
      <path d="M 54.890625 54.6875 
L 35.109375 28.078125 
L 55.90625 0 
L 45.3125 0 
L 29.390625 21.484375 
L 13.484375 0 
L 2.875 0 
L 24.125 28.609375 
L 4.6875 54.6875 
L 15.28125 54.6875 
L 29.78125 35.203125 
L 44.28125 54.6875 
z
" id="DejaVuSans-78"/>
      <path d="M 56.203125 29.59375 
L 56.203125 25.203125 
L 14.890625 25.203125 
Q 15.484375 15.921875 20.484375 11.0625 
Q 25.484375 6.203125 34.421875 6.203125 
Q 39.59375 6.203125 44.453125 7.46875 
Q 49.3125 8.734375 54.109375 11.28125 
L 54.109375 2.78125 
Q 49.265625 0.734375 44.1875 -0.34375 
Q 39.109375 -1.421875 33.890625 -1.421875 
Q 20.796875 -1.421875 13.15625 6.1875 
Q 5.515625 13.8125 5.515625 26.8125 
Q 5.515625 40.234375 12.765625 48.109375 
Q 20.015625 56 32.328125 56 
Q 43.359375 56 49.78125 48.890625 
Q 56.203125 41.796875 56.203125 29.59375 
z
M 47.21875 32.234375 
Q 47.125 39.59375 43.09375 43.984375 
Q 39.0625 48.390625 32.421875 48.390625 
Q 24.90625 48.390625 20.390625 44.140625 
Q 15.875 39.890625 15.1875 32.171875 
z
" id="DejaVuSans-65"/>
      <path d="M 48.78125 52.59375 
L 48.78125 44.1875 
Q 44.96875 46.296875 41.140625 47.34375 
Q 37.3125 48.390625 33.40625 48.390625 
Q 24.65625 48.390625 19.8125 42.84375 
Q 14.984375 37.3125 14.984375 27.296875 
Q 14.984375 17.28125 19.8125 11.734375 
Q 24.65625 6.203125 33.40625 6.203125 
Q 37.3125 6.203125 41.140625 7.25 
Q 44.96875 8.296875 48.78125 10.40625 
L 48.78125 2.09375 
Q 45.015625 0.34375 40.984375 -0.53125 
Q 36.96875 -1.421875 32.421875 -1.421875 
Q 20.0625 -1.421875 12.78125 6.34375 
Q 5.515625 14.109375 5.515625 27.296875 
Q 5.515625 40.671875 12.859375 48.328125 
Q 20.21875 56 33.015625 56 
Q 37.15625 56 41.109375 55.140625 
Q 45.0625 54.296875 48.78125 52.59375 
z
" id="DejaVuSans-63"/>
      <path d="M 8.5 21.578125 
L 8.5 54.6875 
L 17.484375 54.6875 
L 17.484375 21.921875 
Q 17.484375 14.15625 20.5 10.265625 
Q 23.53125 6.390625 29.59375 6.390625 
Q 36.859375 6.390625 41.078125 11.03125 
Q 45.3125 15.671875 45.3125 23.6875 
L 45.3125 54.6875 
L 54.296875 54.6875 
L 54.296875 0 
L 45.3125 0 
L 45.3125 8.40625 
Q 42.046875 3.421875 37.71875 1 
Q 33.40625 -1.421875 27.6875 -1.421875 
Q 18.265625 -1.421875 13.375 4.4375 
Q 8.5 10.296875 8.5 21.578125 
z
M 31.109375 56 
z
" id="DejaVuSans-75"/>
      <path d="M 18.3125 70.21875 
L 18.3125 54.6875 
L 36.8125 54.6875 
L 36.8125 47.703125 
L 18.3125 47.703125 
L 18.3125 18.015625 
Q 18.3125 11.328125 20.140625 9.421875 
Q 21.96875 7.515625 27.59375 7.515625 
L 36.8125 7.515625 
L 36.8125 0 
L 27.59375 0 
Q 17.1875 0 13.234375 3.875 
Q 9.28125 7.765625 9.28125 18.015625 
L 9.28125 47.703125 
L 2.6875 47.703125 
L 2.6875 54.6875 
L 9.28125 54.6875 
L 9.28125 70.21875 
z
" id="DejaVuSans-74"/>
      <path d="M 9.421875 54.6875 
L 18.40625 54.6875 
L 18.40625 0 
L 9.421875 0 
z
M 9.421875 75.984375 
L 18.40625 75.984375 
L 18.40625 64.59375 
L 9.421875 64.59375 
z
" id="DejaVuSans-69"/>
      <path d="M 30.609375 48.390625 
Q 23.390625 48.390625 19.1875 42.75 
Q 14.984375 37.109375 14.984375 27.296875 
Q 14.984375 17.484375 19.15625 11.84375 
Q 23.34375 6.203125 30.609375 6.203125 
Q 37.796875 6.203125 41.984375 11.859375 
Q 46.1875 17.53125 46.1875 27.296875 
Q 46.1875 37.015625 41.984375 42.703125 
Q 37.796875 48.390625 30.609375 48.390625 
z
M 30.609375 56 
Q 42.328125 56 49.015625 48.375 
Q 55.71875 40.765625 55.71875 27.296875 
Q 55.71875 13.875 49.015625 6.21875 
Q 42.328125 -1.421875 30.609375 -1.421875 
Q 18.84375 -1.421875 12.171875 6.21875 
Q 5.515625 13.875 5.515625 27.296875 
Q 5.515625 40.765625 12.171875 48.375 
Q 18.84375 56 30.609375 56 
z
" id="DejaVuSans-6f"/>
      <path d="M 54.890625 33.015625 
L 54.890625 0 
L 45.90625 0 
L 45.90625 32.71875 
Q 45.90625 40.484375 42.875 44.328125 
Q 39.84375 48.1875 33.796875 48.1875 
Q 26.515625 48.1875 22.3125 43.546875 
Q 18.109375 38.921875 18.109375 30.90625 
L 18.109375 0 
L 9.078125 0 
L 9.078125 54.6875 
L 18.109375 54.6875 
L 18.109375 46.1875 
Q 21.34375 51.125 25.703125 53.5625 
Q 30.078125 56 35.796875 56 
Q 45.21875 56 50.046875 50.171875 
Q 54.890625 44.34375 54.890625 33.015625 
z
" id="DejaVuSans-6e"/>
      <path id="DejaVuSans-20"/>
      <path d="M 52 44.1875 
Q 55.375 50.25 60.0625 53.125 
Q 64.75 56 71.09375 56 
Q 79.640625 56 84.28125 50.015625 
Q 88.921875 44.046875 88.921875 33.015625 
L 88.921875 0 
L 79.890625 0 
L 79.890625 32.71875 
Q 79.890625 40.578125 77.09375 44.375 
Q 74.3125 48.1875 68.609375 48.1875 
Q 61.625 48.1875 57.5625 43.546875 
Q 53.515625 38.921875 53.515625 30.90625 
L 53.515625 0 
L 44.484375 0 
L 44.484375 32.71875 
Q 44.484375 40.625 41.703125 44.40625 
Q 38.921875 48.1875 33.109375 48.1875 
Q 26.21875 48.1875 22.15625 43.53125 
Q 18.109375 38.875 18.109375 30.90625 
L 18.109375 0 
L 9.078125 0 
L 9.078125 54.6875 
L 18.109375 54.6875 
L 18.109375 46.1875 
Q 21.1875 51.21875 25.484375 53.609375 
Q 29.78125 56 35.6875 56 
Q 41.65625 56 45.828125 52.96875 
Q 50 49.953125 52 44.1875 
z
" id="DejaVuSans-6d"/>
      <path d="M 31 75.875 
Q 24.46875 64.65625 21.28125 53.65625 
Q 18.109375 42.671875 18.109375 31.390625 
Q 18.109375 20.125 21.3125 9.0625 
Q 24.515625 -2 31 -13.1875 
L 23.1875 -13.1875 
Q 15.875 -1.703125 12.234375 9.375 
Q 8.59375 20.453125 8.59375 31.390625 
Q 8.59375 42.28125 12.203125 53.3125 
Q 15.828125 64.359375 23.1875 75.875 
z
" id="DejaVuSans-28"/>
      <path d="M 44.28125 53.078125 
L 44.28125 44.578125 
Q 40.484375 46.53125 36.375 47.5 
Q 32.28125 48.484375 27.875 48.484375 
Q 21.1875 48.484375 17.84375 46.4375 
Q 14.5 44.390625 14.5 40.28125 
Q 14.5 37.15625 16.890625 35.375 
Q 19.28125 33.59375 26.515625 31.984375 
L 29.59375 31.296875 
Q 39.15625 29.25 43.1875 25.515625 
Q 47.21875 21.78125 47.21875 15.09375 
Q 47.21875 7.46875 41.1875 3.015625 
Q 35.15625 -1.421875 24.609375 -1.421875 
Q 20.21875 -1.421875 15.453125 -0.5625 
Q 10.6875 0.296875 5.421875 2 
L 5.421875 11.28125 
Q 10.40625 8.6875 15.234375 7.390625 
Q 20.0625 6.109375 24.8125 6.109375 
Q 31.15625 6.109375 34.5625 8.28125 
Q 37.984375 10.453125 37.984375 14.40625 
Q 37.984375 18.0625 35.515625 20.015625 
Q 33.0625 21.96875 24.703125 23.78125 
L 21.578125 24.515625 
Q 13.234375 26.265625 9.515625 29.90625 
Q 5.8125 33.546875 5.8125 39.890625 
Q 5.8125 47.609375 11.28125 51.796875 
Q 16.75 56 26.8125 56 
Q 31.78125 56 36.171875 55.265625 
Q 40.578125 54.546875 44.28125 53.078125 
z
" id="DejaVuSans-73"/>
      <path d="M 8.015625 75.875 
L 15.828125 75.875 
Q 23.140625 64.359375 26.78125 53.3125 
Q 30.421875 42.28125 30.421875 31.390625 
Q 30.421875 20.453125 26.78125 9.375 
Q 23.140625 -1.703125 15.828125 -13.1875 
L 8.015625 -13.1875 
Q 14.5 -2 17.703125 9.0625 
Q 20.90625 20.125 20.90625 31.390625 
Q 20.90625 42.671875 17.703125 53.65625 
Q 14.5 64.65625 8.015625 75.875 
z
" id="DejaVuSans-29"/>
     </defs>
     <g transform="translate(190.49125 335.860562)scale(0.1 -0.1)">
      <use xlink:href="#DejaVuSans-45"/>
      <use x="63.183594" xlink:href="#DejaVuSans-78"/>
      <use x="122.316406" xlink:href="#DejaVuSans-65"/>
      <use x="183.839844" xlink:href="#DejaVuSans-63"/>
      <use x="238.820312" xlink:href="#DejaVuSans-75"/>
      <use x="302.199219" xlink:href="#DejaVuSans-74"/>
      <use x="341.408203" xlink:href="#DejaVuSans-69"/>
      <use x="369.191406" xlink:href="#DejaVuSans-6f"/>
      <use x="430.373047" xlink:href="#DejaVuSans-6e"/>
      <use x="493.751953" xlink:href="#DejaVuSans-20"/>
      <use x="525.539062" xlink:href="#DejaVuSans-74"/>
      <use x="564.748047" xlink:href="#DejaVuSans-69"/>
      <use x="592.53125" xlink:href="#DejaVuSans-6d"/>
      <use x="689.943359" xlink:href="#DejaVuSans-65"/>
      <use x="751.466797" xlink:href="#DejaVuSans-20"/>
      <use x="783.253906" xlink:href="#DejaVuSans-28"/>
      <use x="822.267578" xlink:href="#DejaVuSans-73"/>
      <use x="874.367188" xlink:href="#DejaVuSans-29"/>
     </g>
    </g>
   </g>
   <g id="matplotlib.axis_2">
    <g id="ytick_1">
     <g id="line2d_21">
      <defs>
       <path d="M 0 0 
L -3.5 0 
" id="mf225fc5053" style="stroke:#000000;stroke-width:0.8;"/>
      </defs>
      <g>
       <use style="stroke:#000000;stroke-width:0.8;" x="57.6" xlink:href="#mf225fc5053" y="295.488"/>
      </g>
     </g>
     <g id="text_5">
      <!-- 0 -->
      <g transform="translate(44.2375 299.287219)scale(0.1 -0.1)">
       <use xlink:href="#DejaVuSans-30"/>
      </g>
     </g>
    </g>
    <g id="ytick_2">
     <g id="line2d_22">
      <g>
       <use style="stroke:#000000;stroke-width:0.8;" x="57.6" xlink:href="#mf225fc5053" y="265.100991"/>
      </g>
     </g>
     <g id="text_6">
      <!-- 500 -->
      <defs>
       <path d="M 10.796875 72.90625 
L 49.515625 72.90625 
L 49.515625 64.59375 
L 19.828125 64.59375 
L 19.828125 46.734375 
Q 21.96875 47.46875 24.109375 47.828125 
Q 26.265625 48.1875 28.421875 48.1875 
Q 40.625 48.1875 47.75 41.5 
Q 54.890625 34.8125 54.890625 23.390625 
Q 54.890625 11.625 47.5625 5.09375 
Q 40.234375 -1.421875 26.90625 -1.421875 
Q 22.3125 -1.421875 17.546875 -0.640625 
Q 12.796875 0.140625 7.71875 1.703125 
L 7.71875 11.625 
Q 12.109375 9.234375 16.796875 8.0625 
Q 21.484375 6.890625 26.703125 6.890625 
Q 35.15625 6.890625 40.078125 11.328125 
Q 45.015625 15.765625 45.015625 23.390625 
Q 45.015625 31 40.078125 35.4375 
Q 35.15625 39.890625 26.703125 39.890625 
Q 22.75 39.890625 18.8125 39.015625 
Q 14.890625 38.140625 10.796875 36.28125 
z
" id="DejaVuSans-35"/>
      </defs>
      <g transform="translate(31.5125 268.90021)scale(0.1 -0.1)">
       <use xlink:href="#DejaVuSans-35"/>
       <use x="63.623047" xlink:href="#DejaVuSans-30"/>
       <use x="127.246094" xlink:href="#DejaVuSans-30"/>
      </g>
     </g>
    </g>
    <g id="ytick_3">
     <g id="line2d_23">
      <g>
       <use style="stroke:#000000;stroke-width:0.8;" x="57.6" xlink:href="#mf225fc5053" y="234.713982"/>
      </g>
     </g>
     <g id="text_7">
      <!-- 1000 -->
      <g transform="translate(25.15 238.513201)scale(0.1 -0.1)">
       <use xlink:href="#DejaVuSans-31"/>
       <use x="63.623047" xlink:href="#DejaVuSans-30"/>
       <use x="127.246094" xlink:href="#DejaVuSans-30"/>
       <use x="190.869141" xlink:href="#DejaVuSans-30"/>
      </g>
     </g>
    </g>
    <g id="ytick_4">
     <g id="line2d_24">
      <g>
       <use style="stroke:#000000;stroke-width:0.8;" x="57.6" xlink:href="#mf225fc5053" y="204.326973"/>
      </g>
     </g>
     <g id="text_8">
      <!-- 1500 -->
      <g transform="translate(25.15 208.126192)scale(0.1 -0.1)">
       <use xlink:href="#DejaVuSans-31"/>
       <use x="63.623047" xlink:href="#DejaVuSans-35"/>
       <use x="127.246094" xlink:href="#DejaVuSans-30"/>
       <use x="190.869141" xlink:href="#DejaVuSans-30"/>
      </g>
     </g>
    </g>
    <g id="ytick_5">
     <g id="line2d_25">
      <g>
       <use style="stroke:#000000;stroke-width:0.8;" x="57.6" xlink:href="#mf225fc5053" y="173.939964"/>
      </g>
     </g>
     <g id="text_9">
      <!-- 2000 -->
      <g transform="translate(25.15 177.739183)scale(0.1 -0.1)">
       <use xlink:href="#DejaVuSans-32"/>
       <use x="63.623047" xlink:href="#DejaVuSans-30"/>
       <use x="127.246094" xlink:href="#DejaVuSans-30"/>
       <use x="190.869141" xlink:href="#DejaVuSans-30"/>
      </g>
     </g>
    </g>
    <g id="ytick_6">
     <g id="line2d_26">
      <g>
       <use style="stroke:#000000;stroke-width:0.8;" x="57.6" xlink:href="#mf225fc5053" y="143.552955"/>
      </g>
     </g>
     <g id="text_10">
      <!-- 2500 -->
      <g transform="translate(25.15 147.352174)scale(0.1 -0.1)">
       <use xlink:href="#DejaVuSans-32"/>
       <use x="63.623047" xlink:href="#DejaVuSans-35"/>
       <use x="127.246094" xlink:href="#DejaVuSans-30"/>
       <use x="190.869141" xlink:href="#DejaVuSans-30"/>
      </g>
     </g>
    </g>
    <g id="ytick_7">
     <g id="line2d_27">
      <g>
       <use style="stroke:#000000;stroke-width:0.8;" x="57.6" xlink:href="#mf225fc5053" y="113.165946"/>
      </g>
     </g>
     <g id="text_11">
      <!-- 3000 -->
      <g transform="translate(25.15 116.965165)scale(0.1 -0.1)">
       <use xlink:href="#DejaVuSans-33"/>
       <use x="63.623047" xlink:href="#DejaVuSans-30"/>
       <use x="127.246094" xlink:href="#DejaVuSans-30"/>
       <use x="190.869141" xlink:href="#DejaVuSans-30"/>
      </g>
     </g>
    </g>
    <g id="ytick_8">
     <g id="line2d_28">
      <g>
       <use style="stroke:#000000;stroke-width:0.8;" x="57.6" xlink:href="#mf225fc5053" y="82.778937"/>
      </g>
     </g>
     <g id="text_12">
      <!-- 3500 -->
      <g transform="translate(25.15 86.578156)scale(0.1 -0.1)">
       <use xlink:href="#DejaVuSans-33"/>
       <use x="63.623047" xlink:href="#DejaVuSans-35"/>
       <use x="127.246094" xlink:href="#DejaVuSans-30"/>
       <use x="190.869141" xlink:href="#DejaVuSans-30"/>
      </g>
     </g>
    </g>
    <g id="ytick_9">
     <g id="line2d_29">
      <g>
       <use style="stroke:#000000;stroke-width:0.8;" x="57.6" xlink:href="#mf225fc5053" y="52.391928"/>
      </g>
     </g>
     <g id="text_13">
      <!-- 4000 -->
      <g transform="translate(25.15 56.191147)scale(0.1 -0.1)">
       <use xlink:href="#DejaVuSans-34"/>
       <use x="63.623047" xlink:href="#DejaVuSans-30"/>
       <use x="127.246094" xlink:href="#DejaVuSans-30"/>
       <use x="190.869141" xlink:href="#DejaVuSans-30"/>
      </g>
     </g>
    </g>
    <g id="text_14">
     <!-- Memory (MB) -->
     <defs>
      <path d="M 9.8125 72.90625 
L 24.515625 72.90625 
L 43.109375 23.296875 
L 61.8125 72.90625 
L 76.515625 72.90625 
L 76.515625 0 
L 66.890625 0 
L 66.890625 64.015625 
L 48.09375 14.015625 
L 38.1875 14.015625 
L 19.390625 64.015625 
L 19.390625 0 
L 9.8125 0 
z
" id="DejaVuSans-4d"/>
      <path d="M 41.109375 46.296875 
Q 39.59375 47.171875 37.8125 47.578125 
Q 36.03125 48 33.890625 48 
Q 26.265625 48 22.1875 43.046875 
Q 18.109375 38.09375 18.109375 28.8125 
L 18.109375 0 
L 9.078125 0 
L 9.078125 54.6875 
L 18.109375 54.6875 
L 18.109375 46.1875 
Q 20.953125 51.171875 25.484375 53.578125 
Q 30.03125 56 36.53125 56 
Q 37.453125 56 38.578125 55.875 
Q 39.703125 55.765625 41.0625 55.515625 
z
" id="DejaVuSans-72"/>
      <path d="M 32.171875 -5.078125 
Q 28.375 -14.84375 24.75 -17.8125 
Q 21.140625 -20.796875 15.09375 -20.796875 
L 7.90625 -20.796875 
L 7.90625 -13.28125 
L 13.1875 -13.28125 
Q 16.890625 -13.28125 18.9375 -11.515625 
Q 21 -9.765625 23.484375 -3.21875 
L 25.09375 0.875 
L 2.984375 54.6875 
L 12.5 54.6875 
L 29.59375 11.921875 
L 46.6875 54.6875 
L 56.203125 54.6875 
z
" id="DejaVuSans-79"/>
      <path d="M 19.671875 34.8125 
L 19.671875 8.109375 
L 35.5 8.109375 
Q 43.453125 8.109375 47.28125 11.40625 
Q 51.125 14.703125 51.125 21.484375 
Q 51.125 28.328125 47.28125 31.5625 
Q 43.453125 34.8125 35.5 34.8125 
z
M 19.671875 64.796875 
L 19.671875 42.828125 
L 34.28125 42.828125 
Q 41.5 42.828125 45.03125 45.53125 
Q 48.578125 48.25 48.578125 53.8125 
Q 48.578125 59.328125 45.03125 62.0625 
Q 41.5 64.796875 34.28125 64.796875 
z
M 9.8125 72.90625 
L 35.015625 72.90625 
Q 46.296875 72.90625 52.390625 68.21875 
Q 58.5 63.53125 58.5 54.890625 
Q 58.5 48.1875 55.375 44.234375 
Q 52.25 40.28125 46.1875 39.3125 
Q 53.46875 37.75 57.5 32.78125 
Q 61.53125 27.828125 61.53125 20.40625 
Q 61.53125 10.640625 54.890625 5.3125 
Q 48.25 0 35.984375 0 
L 9.8125 0 
z
" id="DejaVuSans-42"/>
     </defs>
     <g transform="translate(19.070312 208.098312)rotate(-90)scale(0.1 -0.1)">
      <use xlink:href="#DejaVuSans-4d"/>
      <use x="86.279297" xlink:href="#DejaVuSans-65"/>
      <use x="147.802734" xlink:href="#DejaVuSans-6d"/>
      <use x="245.214844" xlink:href="#DejaVuSans-6f"/>
      <use x="306.396484" xlink:href="#DejaVuSans-72"/>
      <use x="347.509766" xlink:href="#DejaVuSans-79"/>
      <use x="406.689453" xlink:href="#DejaVuSans-20"/>
      <use x="438.476562" xlink:href="#DejaVuSans-28"/>
      <use x="477.490234" xlink:href="#DejaVuSans-4d"/>
      <use x="563.769531" xlink:href="#DejaVuSans-42"/>
      <use x="632.373047" xlink:href="#DejaVuSans-29"/>
     </g>
    </g>
   </g>
   <g id="line2d_30">
    <path clip-path="url(#pac62397204)" d="M 73.832727 253.078727 
L 78.645778 251.75168 
L 99.940959 243.698035 
L 112.263018 241.579637 
L 116.852871 239.432862 
L 120.379447 236.269206 
L 126.85021 234.845075 
L 135.919 232.680128 
L 143.557432 231.756098 
L 146.207188 230.831571 
L 155.361292 230.284919 
L 163.83215 228.920283 
L 173.953558 227.772714 
L 181.613253 226.418533 
L 184.763132 227.271617 
L 190.155972 224.379295 
L 192.062183 225.596316 
L 195.247871 224.248358 
L 197.532413 221.473282 
L 208.102374 212.932232 
L 214.622566 214.674247 
L 223.236195 214.65956 
L 225.088105 213.908288 
L 227.226814 213.407689 
L 229.023065 212.626047 
L 231.045529 211.532247 
L 232.829453 201.676098 
L 234.480704 201.293741 
L 236.035275 197.540369 
L 237.65226 199.21567 
L 241.864245 199.201232 
L 245.164304 198.151742 
L 247.181201 195.602695 
L 248.733427 198.170163 
L 253.444083 198.140291 
L 254.765242 197.74947 
L 257.061013 196.861785 
L 258.413344 189.304009 
L 260.045033 188.418066 
L 261.32228 185.736588 
L 268.518513 177.433764 
L 270.073897 180.38807 
L 274.55777 180.38807 
L 278.612823 176.772107 
L 280.097831 179.683846 
L 285.413654 179.590995 
L 286.806843 178.484997 
L 291.667693 173.393624 
L 292.96525 173.117312 
L 294.214405 173.286086 
L 305.027401 173.273391 
L 306.100691 170.138113 
L 314.407466 170.122679 
L 316.456282 167.540026 
L 319.467341 167.531812 
L 321.35134 162.939544 
L 324.660023 162.939544 
L 325.691979 162.459606 
L 326.738356 161.681948 
L 327.678307 160.270264 
L 330.470257 157.961434 
L 331.387376 157.798385 
L 332.265273 156.298828 
L 333.688546 155.633935 
L 334.643583 133.316082 
L 340.244652 133.355413 
L 343.334524 132.690271 
L 344.171356 132.140135 
L 345.805896 132.077903 
L 350.002867 132.077903 
L 354.78749 114.357296 
L 358.853862 114.357296 
L 359.623382 114.070279 
L 361.164956 112.340462 
L 361.945625 111.557576 
L 362.67619 110.02765 
L 363.447308 109.12926 
L 364.229823 109.035911 
L 365.032594 107.488311 
L 365.937105 107.471633 
L 366.859276 82.180306 
L 385.591683 82.126786 
L 387.022991 81.611003 
L 391.631616 81.611003 
L 392.262739 80.522679 
L 392.895824 80.505254 
L 393.513855 79.966569 
L 394.799956 76.028739 
L 396.001315 74.477156 
L 397.210548 53.644422 
L 398.487273 53.568 
L 398.487273 53.568 
" style="fill:none;stroke:#000000;stroke-linecap:square;stroke-width:1.5;"/>
    <defs>
     <path d="M 0 3 
C 0.795609 3 1.55874 2.683901 2.12132 2.12132 
C 2.683901 1.55874 3 0.795609 3 0 
C 3 -0.795609 2.683901 -1.55874 2.12132 -2.12132 
C 1.55874 -2.683901 0.795609 -3 0 -3 
C -0.795609 -3 -1.55874 -2.683901 -2.12132 -2.12132 
C -2.683901 -1.55874 -3 -0.795609 -3 0 
C -3 0.795609 -2.683901 1.55874 -2.12132 2.12132 
C -1.55874 2.683901 -0.795609 3 0 3 
z
" id="mb71d1384ef" style="stroke:#000000;"/>
    </defs>
    <g clip-path="url(#pac62397204)">
     <use style="stroke:#000000;" x="73.832727" xlink:href="#mb71d1384ef" y="253.078727"/>
     <use style="stroke:#000000;" x="78.645778" xlink:href="#mb71d1384ef" y="251.75168"/>
     <use style="stroke:#000000;" x="99.940959" xlink:href="#mb71d1384ef" y="243.698035"/>
     <use style="stroke:#000000;" x="112.263018" xlink:href="#mb71d1384ef" y="241.579637"/>
     <use style="stroke:#000000;" x="116.852871" xlink:href="#mb71d1384ef" y="239.432862"/>
     <use style="stroke:#000000;" x="120.379447" xlink:href="#mb71d1384ef" y="236.269206"/>
     <use style="stroke:#000000;" x="126.85021" xlink:href="#mb71d1384ef" y="234.845075"/>
     <use style="stroke:#000000;" x="135.919" xlink:href="#mb71d1384ef" y="232.680128"/>
     <use style="stroke:#000000;" x="143.557432" xlink:href="#mb71d1384ef" y="231.756098"/>
     <use style="stroke:#000000;" x="146.207188" xlink:href="#mb71d1384ef" y="230.831571"/>
     <use style="stroke:#000000;" x="153.398631" xlink:href="#mb71d1384ef" y="230.367067"/>
     <use style="stroke:#000000;" x="155.361292" xlink:href="#mb71d1384ef" y="230.284919"/>
     <use style="stroke:#000000;" x="163.83215" xlink:href="#mb71d1384ef" y="228.920283"/>
     <use style="stroke:#000000;" x="173.953558" xlink:href="#mb71d1384ef" y="227.772714"/>
     <use style="stroke:#000000;" x="181.613253" xlink:href="#mb71d1384ef" y="226.418533"/>
     <use style="stroke:#000000;" x="184.763132" xlink:href="#mb71d1384ef" y="227.271617"/>
     <use style="stroke:#000000;" x="190.155972" xlink:href="#mb71d1384ef" y="224.379295"/>
     <use style="stroke:#000000;" x="192.062183" xlink:href="#mb71d1384ef" y="225.596316"/>
     <use style="stroke:#000000;" x="195.247871" xlink:href="#mb71d1384ef" y="224.248358"/>
     <use style="stroke:#000000;" x="197.532413" xlink:href="#mb71d1384ef" y="221.473282"/>
     <use style="stroke:#000000;" x="208.102374" xlink:href="#mb71d1384ef" y="212.932232"/>
     <use style="stroke:#000000;" x="214.622566" xlink:href="#mb71d1384ef" y="214.674247"/>
     <use style="stroke:#000000;" x="218.140395" xlink:href="#mb71d1384ef" y="214.674247"/>
     <use style="stroke:#000000;" x="221.175782" xlink:href="#mb71d1384ef" y="214.669019"/>
     <use style="stroke:#000000;" x="223.236195" xlink:href="#mb71d1384ef" y="214.65956"/>
     <use style="stroke:#000000;" x="225.088105" xlink:href="#mb71d1384ef" y="213.908288"/>
     <use style="stroke:#000000;" x="227.226814" xlink:href="#mb71d1384ef" y="213.407689"/>
     <use style="stroke:#000000;" x="229.023065" xlink:href="#mb71d1384ef" y="212.626047"/>
     <use style="stroke:#000000;" x="231.045529" xlink:href="#mb71d1384ef" y="211.532247"/>
     <use style="stroke:#000000;" x="232.829453" xlink:href="#mb71d1384ef" y="201.676098"/>
     <use style="stroke:#000000;" x="234.480704" xlink:href="#mb71d1384ef" y="201.293741"/>
     <use style="stroke:#000000;" x="236.035275" xlink:href="#mb71d1384ef" y="197.540369"/>
     <use style="stroke:#000000;" x="237.65226" xlink:href="#mb71d1384ef" y="199.21567"/>
     <use style="stroke:#000000;" x="239.290308" xlink:href="#mb71d1384ef" y="199.210692"/>
     <use style="stroke:#000000;" x="241.864245" xlink:href="#mb71d1384ef" y="199.201232"/>
     <use style="stroke:#000000;" x="245.164304" xlink:href="#mb71d1384ef" y="198.151742"/>
     <use style="stroke:#000000;" x="247.181201" xlink:href="#mb71d1384ef" y="195.602695"/>
     <use style="stroke:#000000;" x="248.733427" xlink:href="#mb71d1384ef" y="198.170163"/>
     <use style="stroke:#000000;" x="250.209997" xlink:href="#mb71d1384ef" y="198.170163"/>
     <use style="stroke:#000000;" x="251.945977" xlink:href="#mb71d1384ef" y="198.170163"/>
     <use style="stroke:#000000;" x="253.444083" xlink:href="#mb71d1384ef" y="198.140291"/>
     <use style="stroke:#000000;" x="254.765242" xlink:href="#mb71d1384ef" y="197.74947"/>
     <use style="stroke:#000000;" x="257.061013" xlink:href="#mb71d1384ef" y="196.861785"/>
     <use style="stroke:#000000;" x="258.413344" xlink:href="#mb71d1384ef" y="189.304009"/>
     <use style="stroke:#000000;" x="260.045033" xlink:href="#mb71d1384ef" y="188.418066"/>
     <use style="stroke:#000000;" x="261.32228" xlink:href="#mb71d1384ef" y="185.736588"/>
     <use style="stroke:#000000;" x="266.997191" xlink:href="#mb71d1384ef" y="179.188723"/>
     <use style="stroke:#000000;" x="268.518513" xlink:href="#mb71d1384ef" y="177.433764"/>
     <use style="stroke:#000000;" x="270.073897" xlink:href="#mb71d1384ef" y="180.38807"/>
     <use style="stroke:#000000;" x="271.542485" xlink:href="#mb71d1384ef" y="180.38807"/>
     <use style="stroke:#000000;" x="272.95824" xlink:href="#mb71d1384ef" y="180.38807"/>
     <use style="stroke:#000000;" x="274.55777" xlink:href="#mb71d1384ef" y="180.38807"/>
     <use style="stroke:#000000;" x="278.612823" xlink:href="#mb71d1384ef" y="176.772107"/>
     <use style="stroke:#000000;" x="280.097831" xlink:href="#mb71d1384ef" y="179.683846"/>
     <use style="stroke:#000000;" x="281.377833" xlink:href="#mb71d1384ef" y="179.683846"/>
     <use style="stroke:#000000;" x="282.800247" xlink:href="#mb71d1384ef" y="179.683846"/>
     <use style="stroke:#000000;" x="284.251851" xlink:href="#mb71d1384ef" y="179.683846"/>
     <use style="stroke:#000000;" x="285.413654" xlink:href="#mb71d1384ef" y="179.590995"/>
     <use style="stroke:#000000;" x="286.806843" xlink:href="#mb71d1384ef" y="178.484997"/>
     <use style="stroke:#000000;" x="291.667693" xlink:href="#mb71d1384ef" y="173.393624"/>
     <use style="stroke:#000000;" x="292.96525" xlink:href="#mb71d1384ef" y="173.117312"/>
     <use style="stroke:#000000;" x="294.214405" xlink:href="#mb71d1384ef" y="173.286086"/>
     <use style="stroke:#000000;" x="295.45393" xlink:href="#mb71d1384ef" y="173.286086"/>
     <use style="stroke:#000000;" x="296.743919" xlink:href="#mb71d1384ef" y="173.286086"/>
     <use style="stroke:#000000;" x="299.202414" xlink:href="#mb71d1384ef" y="173.286086"/>
     <use style="stroke:#000000;" x="301.476563" xlink:href="#mb71d1384ef" y="173.273391"/>
     <use style="stroke:#000000;" x="302.699646" xlink:href="#mb71d1384ef" y="173.273391"/>
     <use style="stroke:#000000;" x="303.827495" xlink:href="#mb71d1384ef" y="173.273391"/>
     <use style="stroke:#000000;" x="305.027401" xlink:href="#mb71d1384ef" y="173.273391"/>
     <use style="stroke:#000000;" x="306.100691" xlink:href="#mb71d1384ef" y="170.138113"/>
     <use style="stroke:#000000;" x="307.507378" xlink:href="#mb71d1384ef" y="170.138113"/>
     <use style="stroke:#000000;" x="308.56779" xlink:href="#mb71d1384ef" y="170.138113"/>
     <use style="stroke:#000000;" x="309.752319" xlink:href="#mb71d1384ef" y="170.138113"/>
     <use style="stroke:#000000;" x="312.060345" xlink:href="#mb71d1384ef" y="170.137864"/>
     <use style="stroke:#000000;" x="313.297323" xlink:href="#mb71d1384ef" y="170.137864"/>
     <use style="stroke:#000000;" x="314.407466" xlink:href="#mb71d1384ef" y="170.122679"/>
     <use style="stroke:#000000;" x="316.456282" xlink:href="#mb71d1384ef" y="167.540026"/>
     <use style="stroke:#000000;" x="317.498122" xlink:href="#mb71d1384ef" y="167.540026"/>
     <use style="stroke:#000000;" x="318.44202" xlink:href="#mb71d1384ef" y="167.540026"/>
     <use style="stroke:#000000;" x="319.467341" xlink:href="#mb71d1384ef" y="167.531812"/>
     <use style="stroke:#000000;" x="321.35134" xlink:href="#mb71d1384ef" y="162.939544"/>
     <use style="stroke:#000000;" x="322.437293" xlink:href="#mb71d1384ef" y="162.939544"/>
     <use style="stroke:#000000;" x="323.497273" xlink:href="#mb71d1384ef" y="162.939544"/>
     <use style="stroke:#000000;" x="324.660023" xlink:href="#mb71d1384ef" y="162.939544"/>
     <use style="stroke:#000000;" x="325.691979" xlink:href="#mb71d1384ef" y="162.459606"/>
     <use style="stroke:#000000;" x="326.738356" xlink:href="#mb71d1384ef" y="161.681948"/>
     <use style="stroke:#000000;" x="327.678307" xlink:href="#mb71d1384ef" y="160.270264"/>
     <use style="stroke:#000000;" x="328.620541" xlink:href="#mb71d1384ef" y="159.495592"/>
     <use style="stroke:#000000;" x="329.531179" xlink:href="#mb71d1384ef" y="158.72814"/>
     <use style="stroke:#000000;" x="330.470257" xlink:href="#mb71d1384ef" y="157.961434"/>
     <use style="stroke:#000000;" x="331.387376" xlink:href="#mb71d1384ef" y="157.798385"/>
     <use style="stroke:#000000;" x="332.265273" xlink:href="#mb71d1384ef" y="156.298828"/>
     <use style="stroke:#000000;" x="333.688546" xlink:href="#mb71d1384ef" y="155.633935"/>
     <use style="stroke:#000000;" x="334.643583" xlink:href="#mb71d1384ef" y="133.316082"/>
     <use style="stroke:#000000;" x="335.596928" xlink:href="#mb71d1384ef" y="133.316082"/>
     <use style="stroke:#000000;" x="337.488107" xlink:href="#mb71d1384ef" y="133.355413"/>
     <use style="stroke:#000000;" x="338.404157" xlink:href="#mb71d1384ef" y="133.355413"/>
     <use style="stroke:#000000;" x="339.338194" xlink:href="#mb71d1384ef" y="133.355413"/>
     <use style="stroke:#000000;" x="340.244652" xlink:href="#mb71d1384ef" y="133.355413"/>
     <use style="stroke:#000000;" x="341.634836" xlink:href="#mb71d1384ef" y="133.062173"/>
     <use style="stroke:#000000;" x="342.445573" xlink:href="#mb71d1384ef" y="132.924515"/>
     <use style="stroke:#000000;" x="343.334524" xlink:href="#mb71d1384ef" y="132.690271"/>
     <use style="stroke:#000000;" x="344.171356" xlink:href="#mb71d1384ef" y="132.140135"/>
     <use style="stroke:#000000;" x="344.988236" xlink:href="#mb71d1384ef" y="132.077903"/>
     <use style="stroke:#000000;" x="345.805896" xlink:href="#mb71d1384ef" y="132.077903"/>
     <use style="stroke:#000000;" x="346.68843" xlink:href="#mb71d1384ef" y="132.077903"/>
     <use style="stroke:#000000;" x="347.549863" xlink:href="#mb71d1384ef" y="132.077903"/>
     <use style="stroke:#000000;" x="348.402566" xlink:href="#mb71d1384ef" y="132.077903"/>
     <use style="stroke:#000000;" x="349.220455" xlink:href="#mb71d1384ef" y="132.077903"/>
     <use style="stroke:#000000;" x="350.002867" xlink:href="#mb71d1384ef" y="132.077903"/>
     <use style="stroke:#000000;" x="354.78749" xlink:href="#mb71d1384ef" y="114.357296"/>
     <use style="stroke:#000000;" x="355.605883" xlink:href="#mb71d1384ef" y="114.357296"/>
     <use style="stroke:#000000;" x="356.490133" xlink:href="#mb71d1384ef" y="114.357296"/>
     <use style="stroke:#000000;" x="357.285047" xlink:href="#mb71d1384ef" y="114.357296"/>
     <use style="stroke:#000000;" x="358.043221" xlink:href="#mb71d1384ef" y="114.357296"/>
     <use style="stroke:#000000;" x="358.853862" xlink:href="#mb71d1384ef" y="114.357296"/>
     <use style="stroke:#000000;" x="359.623382" xlink:href="#mb71d1384ef" y="114.070279"/>
     <use style="stroke:#000000;" x="360.412294" xlink:href="#mb71d1384ef" y="113.118867"/>
     <use style="stroke:#000000;" x="361.164956" xlink:href="#mb71d1384ef" y="112.340462"/>
     <use style="stroke:#000000;" x="361.945625" xlink:href="#mb71d1384ef" y="111.557576"/>
     <use style="stroke:#000000;" x="362.67619" xlink:href="#mb71d1384ef" y="110.02765"/>
     <use style="stroke:#000000;" x="363.447308" xlink:href="#mb71d1384ef" y="109.12926"/>
     <use style="stroke:#000000;" x="364.229823" xlink:href="#mb71d1384ef" y="109.035911"/>
     <use style="stroke:#000000;" x="365.032594" xlink:href="#mb71d1384ef" y="107.488311"/>
     <use style="stroke:#000000;" x="365.937105" xlink:href="#mb71d1384ef" y="107.471633"/>
     <use style="stroke:#000000;" x="366.859276" xlink:href="#mb71d1384ef" y="82.180306"/>
     <use style="stroke:#000000;" x="367.579543" xlink:href="#mb71d1384ef" y="82.180306"/>
     <use style="stroke:#000000;" x="368.43591" xlink:href="#mb71d1384ef" y="82.180306"/>
     <use style="stroke:#000000;" x="370.246853" xlink:href="#mb71d1384ef" y="82.180306"/>
     <use style="stroke:#000000;" x="370.949292" xlink:href="#mb71d1384ef" y="82.180306"/>
     <use style="stroke:#000000;" x="371.698629" xlink:href="#mb71d1384ef" y="82.180306"/>
     <use style="stroke:#000000;" x="372.59292" xlink:href="#mb71d1384ef" y="82.180306"/>
     <use style="stroke:#000000;" x="373.292798" xlink:href="#mb71d1384ef" y="82.180306"/>
     <use style="stroke:#000000;" x="373.950389" xlink:href="#mb71d1384ef" y="82.180306"/>
     <use style="stroke:#000000;" x="375.010113" xlink:href="#mb71d1384ef" y="82.180306"/>
     <use style="stroke:#000000;" x="376.036492" xlink:href="#mb71d1384ef" y="82.180306"/>
     <use style="stroke:#000000;" x="376.682426" xlink:href="#mb71d1384ef" y="82.180306"/>
     <use style="stroke:#000000;" x="378.065431" xlink:href="#mb71d1384ef" y="82.180306"/>
     <use style="stroke:#000000;" x="378.751186" xlink:href="#mb71d1384ef" y="82.180306"/>
     <use style="stroke:#000000;" x="379.402923" xlink:href="#mb71d1384ef" y="82.180306"/>
     <use style="stroke:#000000;" x="380.043258" xlink:href="#mb71d1384ef" y="82.180306"/>
     <use style="stroke:#000000;" x="380.675339" xlink:href="#mb71d1384ef" y="82.180306"/>
     <use style="stroke:#000000;" x="381.298971" xlink:href="#mb71d1384ef" y="82.180306"/>
     <use style="stroke:#000000;" x="381.920097" xlink:href="#mb71d1384ef" y="82.161139"/>
     <use style="stroke:#000000;" x="383.188302" xlink:href="#mb71d1384ef" y="82.136495"/>
     <use style="stroke:#000000;" x="383.833363" xlink:href="#mb71d1384ef" y="82.126786"/>
     <use style="stroke:#000000;" x="384.509178" xlink:href="#mb71d1384ef" y="82.126786"/>
     <use style="stroke:#000000;" x="385.591683" xlink:href="#mb71d1384ef" y="82.126786"/>
     <use style="stroke:#000000;" x="387.022991" xlink:href="#mb71d1384ef" y="81.611003"/>
     <use style="stroke:#000000;" x="387.714384" xlink:href="#mb71d1384ef" y="81.611003"/>
     <use style="stroke:#000000;" x="388.371583" xlink:href="#mb71d1384ef" y="81.611003"/>
     <use style="stroke:#000000;" x="389.053682" xlink:href="#mb71d1384ef" y="81.611003"/>
     <use style="stroke:#000000;" x="389.704185" xlink:href="#mb71d1384ef" y="81.611003"/>
     <use style="stroke:#000000;" x="390.351881" xlink:href="#mb71d1384ef" y="81.611003"/>
     <use style="stroke:#000000;" x="390.987932" xlink:href="#mb71d1384ef" y="81.611003"/>
     <use style="stroke:#000000;" x="391.631616" xlink:href="#mb71d1384ef" y="81.611003"/>
     <use style="stroke:#000000;" x="392.262739" xlink:href="#mb71d1384ef" y="80.522679"/>
     <use style="stroke:#000000;" x="392.895824" xlink:href="#mb71d1384ef" y="80.505254"/>
     <use style="stroke:#000000;" x="393.513855" xlink:href="#mb71d1384ef" y="79.966569"/>
     <use style="stroke:#000000;" x="394.158424" xlink:href="#mb71d1384ef" y="77.861364"/>
     <use style="stroke:#000000;" x="394.799956" xlink:href="#mb71d1384ef" y="76.028739"/>
     <use style="stroke:#000000;" x="395.407437" xlink:href="#mb71d1384ef" y="75.261038"/>
     <use style="stroke:#000000;" x="396.001315" xlink:href="#mb71d1384ef" y="74.477156"/>
     <use style="stroke:#000000;" x="397.210548" xlink:href="#mb71d1384ef" y="53.644422"/>
     <use style="stroke:#000000;" x="397.822785" xlink:href="#mb71d1384ef" y="53.644422"/>
     <use style="stroke:#000000;" x="398.487273" xlink:href="#mb71d1384ef" y="53.568"/>
    </g>
   </g>
   <g id="line2d_31">
    <path clip-path="url(#pac62397204)" d="M 73.832727 295.488 
L 398.487273 295.488 
L 398.487273 295.488 
" style="fill:none;stroke:#008000;stroke-linecap:square;stroke-width:1.5;"/>
    <defs>
     <path d="M 0 3 
C 0.795609 3 1.55874 2.683901 2.12132 2.12132 
C 2.683901 1.55874 3 0.795609 3 0 
C 3 -0.795609 2.683901 -1.55874 2.12132 -2.12132 
C 1.55874 -2.683901 0.795609 -3 0 -3 
C -0.795609 -3 -1.55874 -2.683901 -2.12132 -2.12132 
C -2.683901 -1.55874 -3 -0.795609 -3 0 
C -3 0.795609 -2.683901 1.55874 -2.12132 2.12132 
C -1.55874 2.683901 -0.795609 3 0 3 
z
" id="mff093e54b1" style="stroke:#008000;"/>
    </defs>
    <g clip-path="url(#pac62397204)">
     <use style="fill:#008000;stroke:#008000;" x="73.832727" xlink:href="#mff093e54b1" y="295.488"/>
     <use style="fill:#008000;stroke:#008000;" x="78.645778" xlink:href="#mff093e54b1" y="295.488"/>
     <use style="fill:#008000;stroke:#008000;" x="99.940959" xlink:href="#mff093e54b1" y="295.488"/>
     <use style="fill:#008000;stroke:#008000;" x="112.263018" xlink:href="#mff093e54b1" y="295.488"/>
     <use style="fill:#008000;stroke:#008000;" x="116.852871" xlink:href="#mff093e54b1" y="295.488"/>
     <use style="fill:#008000;stroke:#008000;" x="120.379447" xlink:href="#mff093e54b1" y="295.488"/>
     <use style="fill:#008000;stroke:#008000;" x="126.85021" xlink:href="#mff093e54b1" y="295.488"/>
     <use style="fill:#008000;stroke:#008000;" x="135.919" xlink:href="#mff093e54b1" y="295.488"/>
     <use style="fill:#008000;stroke:#008000;" x="143.557432" xlink:href="#mff093e54b1" y="295.488"/>
     <use style="fill:#008000;stroke:#008000;" x="146.207188" xlink:href="#mff093e54b1" y="295.488"/>
     <use style="fill:#008000;stroke:#008000;" x="153.398631" xlink:href="#mff093e54b1" y="295.488"/>
     <use style="fill:#008000;stroke:#008000;" x="155.361292" xlink:href="#mff093e54b1" y="295.488"/>
     <use style="fill:#008000;stroke:#008000;" x="163.83215" xlink:href="#mff093e54b1" y="295.488"/>
     <use style="fill:#008000;stroke:#008000;" x="173.953558" xlink:href="#mff093e54b1" y="295.488"/>
     <use style="fill:#008000;stroke:#008000;" x="181.613253" xlink:href="#mff093e54b1" y="295.488"/>
     <use style="fill:#008000;stroke:#008000;" x="184.763132" xlink:href="#mff093e54b1" y="295.488"/>
     <use style="fill:#008000;stroke:#008000;" x="190.155972" xlink:href="#mff093e54b1" y="295.488"/>
     <use style="fill:#008000;stroke:#008000;" x="192.062183" xlink:href="#mff093e54b1" y="295.488"/>
     <use style="fill:#008000;stroke:#008000;" x="195.247871" xlink:href="#mff093e54b1" y="295.488"/>
     <use style="fill:#008000;stroke:#008000;" x="197.532413" xlink:href="#mff093e54b1" y="295.488"/>
     <use style="fill:#008000;stroke:#008000;" x="208.102374" xlink:href="#mff093e54b1" y="295.488"/>
     <use style="fill:#008000;stroke:#008000;" x="214.622566" xlink:href="#mff093e54b1" y="295.488"/>
     <use style="fill:#008000;stroke:#008000;" x="218.140395" xlink:href="#mff093e54b1" y="295.488"/>
     <use style="fill:#008000;stroke:#008000;" x="221.175782" xlink:href="#mff093e54b1" y="295.488"/>
     <use style="fill:#008000;stroke:#008000;" x="223.236195" xlink:href="#mff093e54b1" y="295.488"/>
     <use style="fill:#008000;stroke:#008000;" x="225.088105" xlink:href="#mff093e54b1" y="295.488"/>
     <use style="fill:#008000;stroke:#008000;" x="227.226814" xlink:href="#mff093e54b1" y="295.488"/>
     <use style="fill:#008000;stroke:#008000;" x="229.023065" xlink:href="#mff093e54b1" y="295.488"/>
     <use style="fill:#008000;stroke:#008000;" x="231.045529" xlink:href="#mff093e54b1" y="295.488"/>
     <use style="fill:#008000;stroke:#008000;" x="232.829453" xlink:href="#mff093e54b1" y="295.488"/>
     <use style="fill:#008000;stroke:#008000;" x="234.480704" xlink:href="#mff093e54b1" y="295.488"/>
     <use style="fill:#008000;stroke:#008000;" x="236.035275" xlink:href="#mff093e54b1" y="295.488"/>
     <use style="fill:#008000;stroke:#008000;" x="237.65226" xlink:href="#mff093e54b1" y="295.488"/>
     <use style="fill:#008000;stroke:#008000;" x="239.290308" xlink:href="#mff093e54b1" y="295.488"/>
     <use style="fill:#008000;stroke:#008000;" x="241.864245" xlink:href="#mff093e54b1" y="295.488"/>
     <use style="fill:#008000;stroke:#008000;" x="245.164304" xlink:href="#mff093e54b1" y="295.488"/>
     <use style="fill:#008000;stroke:#008000;" x="247.181201" xlink:href="#mff093e54b1" y="295.488"/>
     <use style="fill:#008000;stroke:#008000;" x="248.733427" xlink:href="#mff093e54b1" y="295.488"/>
     <use style="fill:#008000;stroke:#008000;" x="250.209997" xlink:href="#mff093e54b1" y="295.488"/>
     <use style="fill:#008000;stroke:#008000;" x="251.945977" xlink:href="#mff093e54b1" y="295.488"/>
     <use style="fill:#008000;stroke:#008000;" x="253.444083" xlink:href="#mff093e54b1" y="295.488"/>
     <use style="fill:#008000;stroke:#008000;" x="254.765242" xlink:href="#mff093e54b1" y="295.488"/>
     <use style="fill:#008000;stroke:#008000;" x="257.061013" xlink:href="#mff093e54b1" y="295.488"/>
     <use style="fill:#008000;stroke:#008000;" x="258.413344" xlink:href="#mff093e54b1" y="295.488"/>
     <use style="fill:#008000;stroke:#008000;" x="260.045033" xlink:href="#mff093e54b1" y="295.488"/>
     <use style="fill:#008000;stroke:#008000;" x="261.32228" xlink:href="#mff093e54b1" y="295.488"/>
     <use style="fill:#008000;stroke:#008000;" x="266.997191" xlink:href="#mff093e54b1" y="295.488"/>
     <use style="fill:#008000;stroke:#008000;" x="268.518513" xlink:href="#mff093e54b1" y="295.488"/>
     <use style="fill:#008000;stroke:#008000;" x="270.073897" xlink:href="#mff093e54b1" y="295.488"/>
     <use style="fill:#008000;stroke:#008000;" x="271.542485" xlink:href="#mff093e54b1" y="295.488"/>
     <use style="fill:#008000;stroke:#008000;" x="272.95824" xlink:href="#mff093e54b1" y="295.488"/>
     <use style="fill:#008000;stroke:#008000;" x="274.55777" xlink:href="#mff093e54b1" y="295.488"/>
     <use style="fill:#008000;stroke:#008000;" x="278.612823" xlink:href="#mff093e54b1" y="295.488"/>
     <use style="fill:#008000;stroke:#008000;" x="280.097831" xlink:href="#mff093e54b1" y="295.488"/>
     <use style="fill:#008000;stroke:#008000;" x="281.377833" xlink:href="#mff093e54b1" y="295.488"/>
     <use style="fill:#008000;stroke:#008000;" x="282.800247" xlink:href="#mff093e54b1" y="295.488"/>
     <use style="fill:#008000;stroke:#008000;" x="284.251851" xlink:href="#mff093e54b1" y="295.488"/>
     <use style="fill:#008000;stroke:#008000;" x="285.413654" xlink:href="#mff093e54b1" y="295.488"/>
     <use style="fill:#008000;stroke:#008000;" x="286.806843" xlink:href="#mff093e54b1" y="295.488"/>
     <use style="fill:#008000;stroke:#008000;" x="291.667693" xlink:href="#mff093e54b1" y="295.488"/>
     <use style="fill:#008000;stroke:#008000;" x="292.96525" xlink:href="#mff093e54b1" y="295.488"/>
     <use style="fill:#008000;stroke:#008000;" x="294.214405" xlink:href="#mff093e54b1" y="295.488"/>
     <use style="fill:#008000;stroke:#008000;" x="295.45393" xlink:href="#mff093e54b1" y="295.488"/>
     <use style="fill:#008000;stroke:#008000;" x="296.743919" xlink:href="#mff093e54b1" y="295.488"/>
     <use style="fill:#008000;stroke:#008000;" x="299.202414" xlink:href="#mff093e54b1" y="295.488"/>
     <use style="fill:#008000;stroke:#008000;" x="301.476563" xlink:href="#mff093e54b1" y="295.488"/>
     <use style="fill:#008000;stroke:#008000;" x="302.699646" xlink:href="#mff093e54b1" y="295.488"/>
     <use style="fill:#008000;stroke:#008000;" x="303.827495" xlink:href="#mff093e54b1" y="295.488"/>
     <use style="fill:#008000;stroke:#008000;" x="305.027401" xlink:href="#mff093e54b1" y="295.488"/>
     <use style="fill:#008000;stroke:#008000;" x="306.100691" xlink:href="#mff093e54b1" y="295.488"/>
     <use style="fill:#008000;stroke:#008000;" x="307.507378" xlink:href="#mff093e54b1" y="295.488"/>
     <use style="fill:#008000;stroke:#008000;" x="308.56779" xlink:href="#mff093e54b1" y="295.488"/>
     <use style="fill:#008000;stroke:#008000;" x="309.752319" xlink:href="#mff093e54b1" y="295.488"/>
     <use style="fill:#008000;stroke:#008000;" x="312.060345" xlink:href="#mff093e54b1" y="295.488"/>
     <use style="fill:#008000;stroke:#008000;" x="313.297323" xlink:href="#mff093e54b1" y="295.488"/>
     <use style="fill:#008000;stroke:#008000;" x="314.407466" xlink:href="#mff093e54b1" y="295.488"/>
     <use style="fill:#008000;stroke:#008000;" x="316.456282" xlink:href="#mff093e54b1" y="295.488"/>
     <use style="fill:#008000;stroke:#008000;" x="317.498122" xlink:href="#mff093e54b1" y="295.488"/>
     <use style="fill:#008000;stroke:#008000;" x="318.44202" xlink:href="#mff093e54b1" y="295.488"/>
     <use style="fill:#008000;stroke:#008000;" x="319.467341" xlink:href="#mff093e54b1" y="295.488"/>
     <use style="fill:#008000;stroke:#008000;" x="321.35134" xlink:href="#mff093e54b1" y="295.488"/>
     <use style="fill:#008000;stroke:#008000;" x="322.437293" xlink:href="#mff093e54b1" y="295.488"/>
     <use style="fill:#008000;stroke:#008000;" x="323.497273" xlink:href="#mff093e54b1" y="295.488"/>
     <use style="fill:#008000;stroke:#008000;" x="324.660023" xlink:href="#mff093e54b1" y="295.488"/>
     <use style="fill:#008000;stroke:#008000;" x="325.691979" xlink:href="#mff093e54b1" y="295.488"/>
     <use style="fill:#008000;stroke:#008000;" x="326.738356" xlink:href="#mff093e54b1" y="295.488"/>
     <use style="fill:#008000;stroke:#008000;" x="327.678307" xlink:href="#mff093e54b1" y="295.488"/>
     <use style="fill:#008000;stroke:#008000;" x="328.620541" xlink:href="#mff093e54b1" y="295.488"/>
     <use style="fill:#008000;stroke:#008000;" x="329.531179" xlink:href="#mff093e54b1" y="295.488"/>
     <use style="fill:#008000;stroke:#008000;" x="330.470257" xlink:href="#mff093e54b1" y="295.488"/>
     <use style="fill:#008000;stroke:#008000;" x="331.387376" xlink:href="#mff093e54b1" y="295.488"/>
     <use style="fill:#008000;stroke:#008000;" x="332.265273" xlink:href="#mff093e54b1" y="295.488"/>
     <use style="fill:#008000;stroke:#008000;" x="333.688546" xlink:href="#mff093e54b1" y="295.488"/>
     <use style="fill:#008000;stroke:#008000;" x="334.643583" xlink:href="#mff093e54b1" y="295.488"/>
     <use style="fill:#008000;stroke:#008000;" x="335.596928" xlink:href="#mff093e54b1" y="295.488"/>
     <use style="fill:#008000;stroke:#008000;" x="337.488107" xlink:href="#mff093e54b1" y="295.488"/>
     <use style="fill:#008000;stroke:#008000;" x="338.404157" xlink:href="#mff093e54b1" y="295.488"/>
     <use style="fill:#008000;stroke:#008000;" x="339.338194" xlink:href="#mff093e54b1" y="295.488"/>
     <use style="fill:#008000;stroke:#008000;" x="340.244652" xlink:href="#mff093e54b1" y="295.488"/>
     <use style="fill:#008000;stroke:#008000;" x="341.634836" xlink:href="#mff093e54b1" y="295.488"/>
     <use style="fill:#008000;stroke:#008000;" x="342.445573" xlink:href="#mff093e54b1" y="295.488"/>
     <use style="fill:#008000;stroke:#008000;" x="343.334524" xlink:href="#mff093e54b1" y="295.488"/>
     <use style="fill:#008000;stroke:#008000;" x="344.171356" xlink:href="#mff093e54b1" y="295.488"/>
     <use style="fill:#008000;stroke:#008000;" x="344.988236" xlink:href="#mff093e54b1" y="295.488"/>
     <use style="fill:#008000;stroke:#008000;" x="345.805896" xlink:href="#mff093e54b1" y="295.488"/>
     <use style="fill:#008000;stroke:#008000;" x="346.68843" xlink:href="#mff093e54b1" y="295.488"/>
     <use style="fill:#008000;stroke:#008000;" x="347.549863" xlink:href="#mff093e54b1" y="295.488"/>
     <use style="fill:#008000;stroke:#008000;" x="348.402566" xlink:href="#mff093e54b1" y="295.488"/>
     <use style="fill:#008000;stroke:#008000;" x="349.220455" xlink:href="#mff093e54b1" y="295.488"/>
     <use style="fill:#008000;stroke:#008000;" x="350.002867" xlink:href="#mff093e54b1" y="295.488"/>
     <use style="fill:#008000;stroke:#008000;" x="354.78749" xlink:href="#mff093e54b1" y="295.488"/>
     <use style="fill:#008000;stroke:#008000;" x="355.605883" xlink:href="#mff093e54b1" y="295.488"/>
     <use style="fill:#008000;stroke:#008000;" x="356.490133" xlink:href="#mff093e54b1" y="295.488"/>
     <use style="fill:#008000;stroke:#008000;" x="357.285047" xlink:href="#mff093e54b1" y="295.488"/>
     <use style="fill:#008000;stroke:#008000;" x="358.043221" xlink:href="#mff093e54b1" y="295.488"/>
     <use style="fill:#008000;stroke:#008000;" x="358.853862" xlink:href="#mff093e54b1" y="295.488"/>
     <use style="fill:#008000;stroke:#008000;" x="359.623382" xlink:href="#mff093e54b1" y="295.488"/>
     <use style="fill:#008000;stroke:#008000;" x="360.412294" xlink:href="#mff093e54b1" y="295.488"/>
     <use style="fill:#008000;stroke:#008000;" x="361.164956" xlink:href="#mff093e54b1" y="295.488"/>
     <use style="fill:#008000;stroke:#008000;" x="361.945625" xlink:href="#mff093e54b1" y="295.488"/>
     <use style="fill:#008000;stroke:#008000;" x="362.67619" xlink:href="#mff093e54b1" y="295.488"/>
     <use style="fill:#008000;stroke:#008000;" x="363.447308" xlink:href="#mff093e54b1" y="295.488"/>
     <use style="fill:#008000;stroke:#008000;" x="364.229823" xlink:href="#mff093e54b1" y="295.488"/>
     <use style="fill:#008000;stroke:#008000;" x="365.032594" xlink:href="#mff093e54b1" y="295.488"/>
     <use style="fill:#008000;stroke:#008000;" x="365.937105" xlink:href="#mff093e54b1" y="295.488"/>
     <use style="fill:#008000;stroke:#008000;" x="366.859276" xlink:href="#mff093e54b1" y="295.488"/>
     <use style="fill:#008000;stroke:#008000;" x="367.579543" xlink:href="#mff093e54b1" y="295.488"/>
     <use style="fill:#008000;stroke:#008000;" x="368.43591" xlink:href="#mff093e54b1" y="295.488"/>
     <use style="fill:#008000;stroke:#008000;" x="370.246853" xlink:href="#mff093e54b1" y="295.488"/>
     <use style="fill:#008000;stroke:#008000;" x="370.949292" xlink:href="#mff093e54b1" y="295.488"/>
     <use style="fill:#008000;stroke:#008000;" x="371.698629" xlink:href="#mff093e54b1" y="295.488"/>
     <use style="fill:#008000;stroke:#008000;" x="372.59292" xlink:href="#mff093e54b1" y="295.488"/>
     <use style="fill:#008000;stroke:#008000;" x="373.292798" xlink:href="#mff093e54b1" y="295.488"/>
     <use style="fill:#008000;stroke:#008000;" x="373.950389" xlink:href="#mff093e54b1" y="295.488"/>
     <use style="fill:#008000;stroke:#008000;" x="375.010113" xlink:href="#mff093e54b1" y="295.488"/>
     <use style="fill:#008000;stroke:#008000;" x="376.036492" xlink:href="#mff093e54b1" y="295.488"/>
     <use style="fill:#008000;stroke:#008000;" x="376.682426" xlink:href="#mff093e54b1" y="295.488"/>
     <use style="fill:#008000;stroke:#008000;" x="378.065431" xlink:href="#mff093e54b1" y="295.488"/>
     <use style="fill:#008000;stroke:#008000;" x="378.751186" xlink:href="#mff093e54b1" y="295.488"/>
     <use style="fill:#008000;stroke:#008000;" x="379.402923" xlink:href="#mff093e54b1" y="295.488"/>
     <use style="fill:#008000;stroke:#008000;" x="380.043258" xlink:href="#mff093e54b1" y="295.488"/>
     <use style="fill:#008000;stroke:#008000;" x="380.675339" xlink:href="#mff093e54b1" y="295.488"/>
     <use style="fill:#008000;stroke:#008000;" x="381.298971" xlink:href="#mff093e54b1" y="295.488"/>
     <use style="fill:#008000;stroke:#008000;" x="381.920097" xlink:href="#mff093e54b1" y="295.488"/>
     <use style="fill:#008000;stroke:#008000;" x="383.188302" xlink:href="#mff093e54b1" y="295.488"/>
     <use style="fill:#008000;stroke:#008000;" x="383.833363" xlink:href="#mff093e54b1" y="295.488"/>
     <use style="fill:#008000;stroke:#008000;" x="384.509178" xlink:href="#mff093e54b1" y="295.488"/>
     <use style="fill:#008000;stroke:#008000;" x="385.591683" xlink:href="#mff093e54b1" y="295.488"/>
     <use style="fill:#008000;stroke:#008000;" x="387.022991" xlink:href="#mff093e54b1" y="295.488"/>
     <use style="fill:#008000;stroke:#008000;" x="387.714384" xlink:href="#mff093e54b1" y="295.488"/>
     <use style="fill:#008000;stroke:#008000;" x="388.371583" xlink:href="#mff093e54b1" y="295.488"/>
     <use style="fill:#008000;stroke:#008000;" x="389.053682" xlink:href="#mff093e54b1" y="295.488"/>
     <use style="fill:#008000;stroke:#008000;" x="389.704185" xlink:href="#mff093e54b1" y="295.488"/>
     <use style="fill:#008000;stroke:#008000;" x="390.351881" xlink:href="#mff093e54b1" y="295.488"/>
     <use style="fill:#008000;stroke:#008000;" x="390.987932" xlink:href="#mff093e54b1" y="295.488"/>
     <use style="fill:#008000;stroke:#008000;" x="391.631616" xlink:href="#mff093e54b1" y="295.488"/>
     <use style="fill:#008000;stroke:#008000;" x="392.262739" xlink:href="#mff093e54b1" y="295.488"/>
     <use style="fill:#008000;stroke:#008000;" x="392.895824" xlink:href="#mff093e54b1" y="295.488"/>
     <use style="fill:#008000;stroke:#008000;" x="393.513855" xlink:href="#mff093e54b1" y="295.488"/>
     <use style="fill:#008000;stroke:#008000;" x="394.158424" xlink:href="#mff093e54b1" y="295.488"/>
     <use style="fill:#008000;stroke:#008000;" x="394.799956" xlink:href="#mff093e54b1" y="295.488"/>
     <use style="fill:#008000;stroke:#008000;" x="395.407437" xlink:href="#mff093e54b1" y="295.488"/>
     <use style="fill:#008000;stroke:#008000;" x="396.001315" xlink:href="#mff093e54b1" y="295.488"/>
     <use style="fill:#008000;stroke:#008000;" x="397.210548" xlink:href="#mff093e54b1" y="295.488"/>
     <use style="fill:#008000;stroke:#008000;" x="397.822785" xlink:href="#mff093e54b1" y="295.488"/>
     <use style="fill:#008000;stroke:#008000;" x="398.487273" xlink:href="#mff093e54b1" y="295.488"/>
    </g>
   </g>
   <g id="patch_3">
    <path d="M 57.6 307.584 
L 57.6 41.472 
" style="fill:none;stroke:#000000;stroke-linecap:square;stroke-linejoin:miter;stroke-width:0.8;"/>
   </g>
   <g id="patch_4">
    <path d="M 414.72 307.584 
L 414.72 41.472 
" style="fill:none;stroke:#000000;stroke-linecap:square;stroke-linejoin:miter;stroke-width:0.8;"/>
   </g>
   <g id="patch_5">
    <path d="M 57.6 307.584 
L 414.72 307.584 
" style="fill:none;stroke:#000000;stroke-linecap:square;stroke-linejoin:miter;stroke-width:0.8;"/>
   </g>
   <g id="patch_6">
    <path d="M 57.6 41.472 
L 414.72 41.472 
" style="fill:none;stroke:#000000;stroke-linecap:square;stroke-linejoin:miter;stroke-width:0.8;"/>
   </g>
   <g id="legend_1">
    <g id="patch_7">
     <path d="M 64.6 78.82825 
L 151.392188 78.82825 
Q 153.392188 78.82825 153.392188 76.82825 
L 153.392188 48.472 
Q 153.392188 46.472 151.392188 46.472 
L 64.6 46.472 
Q 62.6 46.472 62.6 48.472 
L 62.6 76.82825 
Q 62.6 78.82825 64.6 78.82825 
z
" style="fill:#ffffff;opacity:0.8;stroke:#cccccc;stroke-linejoin:miter;"/>
    </g>
    <g id="line2d_32">
     <path d="M 66.6 54.570437 
L 86.6 54.570437 
" style="fill:none;stroke:#000000;stroke-linecap:square;stroke-width:1.5;"/>
    </g>
    <g id="line2d_33">
     <g>
      <use style="stroke:#000000;" x="76.6" xlink:href="#mb71d1384ef" y="54.570437"/>
     </g>
    </g>
    <g id="text_15">
     <!-- RAM -->
     <defs>
      <path d="M 44.390625 34.1875 
Q 47.5625 33.109375 50.5625 29.59375 
Q 53.5625 26.078125 56.59375 19.921875 
L 66.609375 0 
L 56 0 
L 46.6875 18.703125 
Q 43.0625 26.03125 39.671875 28.421875 
Q 36.28125 30.8125 30.421875 30.8125 
L 19.671875 30.8125 
L 19.671875 0 
L 9.8125 0 
L 9.8125 72.90625 
L 32.078125 72.90625 
Q 44.578125 72.90625 50.734375 67.671875 
Q 56.890625 62.453125 56.890625 51.90625 
Q 56.890625 45.015625 53.6875 40.46875 
Q 50.484375 35.9375 44.390625 34.1875 
z
M 19.671875 64.796875 
L 19.671875 38.921875 
L 32.078125 38.921875 
Q 39.203125 38.921875 42.84375 42.21875 
Q 46.484375 45.515625 46.484375 51.90625 
Q 46.484375 58.296875 42.84375 61.546875 
Q 39.203125 64.796875 32.078125 64.796875 
z
" id="DejaVuSans-52"/>
      <path d="M 34.1875 63.1875 
L 20.796875 26.90625 
L 47.609375 26.90625 
z
M 28.609375 72.90625 
L 39.796875 72.90625 
L 67.578125 0 
L 57.328125 0 
L 50.6875 18.703125 
L 17.828125 18.703125 
L 11.1875 0 
L 0.78125 0 
z
" id="DejaVuSans-41"/>
     </defs>
     <g transform="translate(94.6 58.070437)scale(0.1 -0.1)">
      <use xlink:href="#DejaVuSans-52"/>
      <use x="69.419922" xlink:href="#DejaVuSans-41"/>
      <use x="137.828125" xlink:href="#DejaVuSans-4d"/>
     </g>
    </g>
    <g id="line2d_34">
     <path d="M 66.6 69.248562 
L 86.6 69.248562 
" style="fill:none;stroke:#008000;stroke-linecap:square;stroke-width:1.5;"/>
    </g>
    <g id="line2d_35">
     <g>
      <use style="fill:#008000;stroke:#008000;" x="76.6" xlink:href="#mff093e54b1" y="69.248562"/>
     </g>
    </g>
    <g id="text_16">
     <!-- Restart file -->
     <defs>
      <path d="M 34.28125 27.484375 
Q 23.390625 27.484375 19.1875 25 
Q 14.984375 22.515625 14.984375 16.5 
Q 14.984375 11.71875 18.140625 8.90625 
Q 21.296875 6.109375 26.703125 6.109375 
Q 34.1875 6.109375 38.703125 11.40625 
Q 43.21875 16.703125 43.21875 25.484375 
L 43.21875 27.484375 
z
M 52.203125 31.203125 
L 52.203125 0 
L 43.21875 0 
L 43.21875 8.296875 
Q 40.140625 3.328125 35.546875 0.953125 
Q 30.953125 -1.421875 24.3125 -1.421875 
Q 15.921875 -1.421875 10.953125 3.296875 
Q 6 8.015625 6 15.921875 
Q 6 25.140625 12.171875 29.828125 
Q 18.359375 34.515625 30.609375 34.515625 
L 43.21875 34.515625 
L 43.21875 35.40625 
Q 43.21875 41.609375 39.140625 45 
Q 35.0625 48.390625 27.6875 48.390625 
Q 23 48.390625 18.546875 47.265625 
Q 14.109375 46.140625 10.015625 43.890625 
L 10.015625 52.203125 
Q 14.9375 54.109375 19.578125 55.046875 
Q 24.21875 56 28.609375 56 
Q 40.484375 56 46.34375 49.84375 
Q 52.203125 43.703125 52.203125 31.203125 
z
" id="DejaVuSans-61"/>
      <path d="M 37.109375 75.984375 
L 37.109375 68.5 
L 28.515625 68.5 
Q 23.6875 68.5 21.796875 66.546875 
Q 19.921875 64.59375 19.921875 59.515625 
L 19.921875 54.6875 
L 34.71875 54.6875 
L 34.71875 47.703125 
L 19.921875 47.703125 
L 19.921875 0 
L 10.890625 0 
L 10.890625 47.703125 
L 2.296875 47.703125 
L 2.296875 54.6875 
L 10.890625 54.6875 
L 10.890625 58.5 
Q 10.890625 67.625 15.140625 71.796875 
Q 19.390625 75.984375 28.609375 75.984375 
z
" id="DejaVuSans-66"/>
      <path d="M 9.421875 75.984375 
L 18.40625 75.984375 
L 18.40625 0 
L 9.421875 0 
z
" id="DejaVuSans-6c"/>
     </defs>
     <g transform="translate(94.6 72.748562)scale(0.1 -0.1)">
      <use xlink:href="#DejaVuSans-52"/>
      <use x="69.419922" xlink:href="#DejaVuSans-65"/>
      <use x="130.943359" xlink:href="#DejaVuSans-73"/>
      <use x="183.042969" xlink:href="#DejaVuSans-74"/>
      <use x="222.251953" xlink:href="#DejaVuSans-61"/>
      <use x="283.53125" xlink:href="#DejaVuSans-72"/>
      <use x="324.644531" xlink:href="#DejaVuSans-74"/>
      <use x="363.853516" xlink:href="#DejaVuSans-20"/>
      <use x="395.640625" xlink:href="#DejaVuSans-66"/>
      <use x="430.845703" xlink:href="#DejaVuSans-69"/>
      <use x="458.628906" xlink:href="#DejaVuSans-6c"/>
      <use x="486.412109" xlink:href="#DejaVuSans-65"/>
     </g>
    </g>
   </g>
  </g>
 </g>
 <defs>
  <clipPath id="pac62397204">
   <rect height="266.112" width="357.12" x="57.6" y="41.472"/>
  </clipPath>
 </defs>
</svg>
