<?xml version="1.0" encoding="utf-8" standalone="no"?>
<!DOCTYPE svg PUBLIC "-//W3C//DTD SVG 1.1//EN"
  "http://www.w3.org/Graphics/SVG/1.1/DTD/svg11.dtd">
<!-- Created with matplotlib (http://matplotlib.org/) -->
<svg height="345.6pt" version="1.1" viewBox="0 0 460.8 345.6" width="460.8pt" xmlns="http://www.w3.org/2000/svg" xmlns:xlink="http://www.w3.org/1999/xlink">
 <defs>
  <style type="text/css">
*{stroke-linecap:butt;stroke-linejoin:round;}
  </style>
 </defs>
 <g id="figure_1">
  <g id="patch_1">
   <path d="M 0 345.6 
L 460.8 345.6 
L 460.8 0 
L 0 0 
z
" style="fill:#ffffff;"/>
  </g>
  <g id="axes_1">
   <g id="patch_2">
    <path d="M 57.6 307.584 
L 414.72 307.584 
L 414.72 41.472 
L 57.6 41.472 
z
" style="fill:#ffffff;"/>
   </g>
   <g id="matplotlib.axis_1">
    <g id="xtick_1">
     <g id="line2d_1">
      <defs>
       <path d="M 0 0 
L 0 3.5 
" id="m4da02f8dea" style="stroke:#000000;stroke-width:0.8;"/>
      </defs>
      <g>
       <use style="stroke:#000000;stroke-width:0.8;" x="68.177223" xlink:href="#m4da02f8dea" y="307.584"/>
      </g>
     </g>
     <g id="text_1">
      <!-- $\mathdefault{10^{2}}$ -->
      <defs>
       <path d="M 12.40625 8.296875 
L 28.515625 8.296875 
L 28.515625 63.921875 
L 10.984375 60.40625 
L 10.984375 69.390625 
L 28.421875 72.90625 
L 38.28125 72.90625 
L 38.28125 8.296875 
L 54.390625 8.296875 
L 54.390625 0 
L 12.40625 0 
z
" id="DejaVuSans-31"/>
       <path d="M 31.78125 66.40625 
Q 24.171875 66.40625 20.328125 58.90625 
Q 16.5 51.421875 16.5 36.375 
Q 16.5 21.390625 20.328125 13.890625 
Q 24.171875 6.390625 31.78125 6.390625 
Q 39.453125 6.390625 43.28125 13.890625 
Q 47.125 21.390625 47.125 36.375 
Q 47.125 51.421875 43.28125 58.90625 
Q 39.453125 66.40625 31.78125 66.40625 
z
M 31.78125 74.21875 
Q 44.046875 74.21875 50.515625 64.515625 
Q 56.984375 54.828125 56.984375 36.375 
Q 56.984375 17.96875 50.515625 8.265625 
Q 44.046875 -1.421875 31.78125 -1.421875 
Q 19.53125 -1.421875 13.0625 8.265625 
Q 6.59375 17.96875 6.59375 36.375 
Q 6.59375 54.828125 13.0625 64.515625 
Q 19.53125 74.21875 31.78125 74.21875 
z
" id="DejaVuSans-30"/>
       <path d="M 19.1875 8.296875 
L 53.609375 8.296875 
L 53.609375 0 
L 7.328125 0 
L 7.328125 8.296875 
Q 12.9375 14.109375 22.625 23.890625 
Q 32.328125 33.6875 34.8125 36.53125 
Q 39.546875 41.84375 41.421875 45.53125 
Q 43.3125 49.21875 43.3125 52.78125 
Q 43.3125 58.59375 39.234375 62.25 
Q 35.15625 65.921875 28.609375 65.921875 
Q 23.96875 65.921875 18.8125 64.3125 
Q 13.671875 62.703125 7.8125 59.421875 
L 7.8125 69.390625 
Q 13.765625 71.78125 18.9375 73 
Q 24.125 74.21875 28.421875 74.21875 
Q 39.75 74.21875 46.484375 68.546875 
Q 53.21875 62.890625 53.21875 53.421875 
Q 53.21875 48.921875 51.53125 44.890625 
Q 49.859375 40.875 45.40625 35.40625 
Q 44.1875 33.984375 37.640625 27.21875 
Q 31.109375 20.453125 19.1875 8.296875 
z
" id="DejaVuSans-32"/>
      </defs>
      <g transform="translate(59.377223 322.182437)scale(0.1 -0.1)">
       <use transform="translate(0 0.765625)" xlink:href="#DejaVuSans-31"/>
       <use transform="translate(63.623047 0.765625)" xlink:href="#DejaVuSans-30"/>
       <use transform="translate(128.203125 39.046875)scale(0.7)" xlink:href="#DejaVuSans-32"/>
      </g>
     </g>
    </g>
    <g id="xtick_2">
     <g id="line2d_2">
      <g>
       <use style="stroke:#000000;stroke-width:0.8;" x="289.701988" xlink:href="#m4da02f8dea" y="307.584"/>
      </g>
     </g>
     <g id="text_2">
      <!-- $\mathdefault{10^{3}}$ -->
      <defs>
       <path d="M 40.578125 39.3125 
Q 47.65625 37.796875 51.625 33 
Q 55.609375 28.21875 55.609375 21.1875 
Q 55.609375 10.40625 48.1875 4.484375 
Q 40.765625 -1.421875 27.09375 -1.421875 
Q 22.515625 -1.421875 17.65625 -0.515625 
Q 12.796875 0.390625 7.625 2.203125 
L 7.625 11.71875 
Q 11.71875 9.328125 16.59375 8.109375 
Q 21.484375 6.890625 26.8125 6.890625 
Q 36.078125 6.890625 40.9375 10.546875 
Q 45.796875 14.203125 45.796875 21.1875 
Q 45.796875 27.640625 41.28125 31.265625 
Q 36.765625 34.90625 28.71875 34.90625 
L 20.21875 34.90625 
L 20.21875 43.015625 
L 29.109375 43.015625 
Q 36.375 43.015625 40.234375 45.921875 
Q 44.09375 48.828125 44.09375 54.296875 
Q 44.09375 59.90625 40.109375 62.90625 
Q 36.140625 65.921875 28.71875 65.921875 
Q 24.65625 65.921875 20.015625 65.03125 
Q 15.375 64.15625 9.8125 62.3125 
L 9.8125 71.09375 
Q 15.4375 72.65625 20.34375 73.4375 
Q 25.25 74.21875 29.59375 74.21875 
Q 40.828125 74.21875 47.359375 69.109375 
Q 53.90625 64.015625 53.90625 55.328125 
Q 53.90625 49.265625 50.4375 45.09375 
Q 46.96875 40.921875 40.578125 39.3125 
z
" id="DejaVuSans-33"/>
      </defs>
      <g transform="translate(280.901988 322.182437)scale(0.1 -0.1)">
       <use transform="translate(0 0.765625)" xlink:href="#DejaVuSans-31"/>
       <use transform="translate(63.623047 0.765625)" xlink:href="#DejaVuSans-30"/>
       <use transform="translate(128.203125 39.046875)scale(0.7)" xlink:href="#DejaVuSans-33"/>
      </g>
     </g>
    </g>
    <g id="xtick_3">
     <g id="line2d_3">
      <defs>
       <path d="M 0 0 
L 0 2 
" id="m8e98c15f71" style="stroke:#000000;stroke-width:0.6;"/>
      </defs>
      <g>
       <use style="stroke:#000000;stroke-width:0.6;" x="58.040806" xlink:href="#m8e98c15f71" y="307.584"/>
      </g>
     </g>
    </g>
    <g id="xtick_4">
     <g id="line2d_4">
      <g>
       <use style="stroke:#000000;stroke-width:0.6;" x="134.862822" xlink:href="#m8e98c15f71" y="307.584"/>
      </g>
     </g>
    </g>
    <g id="xtick_5">
     <g id="line2d_5">
      <g>
       <use style="stroke:#000000;stroke-width:0.6;" x="173.871397" xlink:href="#m8e98c15f71" y="307.584"/>
      </g>
     </g>
    </g>
    <g id="xtick_6">
     <g id="line2d_6">
      <g>
       <use style="stroke:#000000;stroke-width:0.6;" x="201.548421" xlink:href="#m8e98c15f71" y="307.584"/>
      </g>
     </g>
    </g>
    <g id="xtick_7">
     <g id="line2d_7">
      <g>
       <use style="stroke:#000000;stroke-width:0.6;" x="223.016389" xlink:href="#m8e98c15f71" y="307.584"/>
      </g>
     </g>
    </g>
    <g id="xtick_8">
     <g id="line2d_8">
      <g>
       <use style="stroke:#000000;stroke-width:0.6;" x="240.556996" xlink:href="#m8e98c15f71" y="307.584"/>
      </g>
     </g>
    </g>
    <g id="xtick_9">
     <g id="line2d_9">
      <g>
       <use style="stroke:#000000;stroke-width:0.6;" x="255.387368" xlink:href="#m8e98c15f71" y="307.584"/>
      </g>
     </g>
    </g>
    <g id="xtick_10">
     <g id="line2d_10">
      <g>
       <use style="stroke:#000000;stroke-width:0.6;" x="268.23402" xlink:href="#m8e98c15f71" y="307.584"/>
      </g>
     </g>
    </g>
    <g id="xtick_11">
     <g id="line2d_11">
      <g>
       <use style="stroke:#000000;stroke-width:0.6;" x="279.565571" xlink:href="#m8e98c15f71" y="307.584"/>
      </g>
     </g>
    </g>
    <g id="xtick_12">
     <g id="line2d_12">
      <g>
       <use style="stroke:#000000;stroke-width:0.6;" x="356.387587" xlink:href="#m8e98c15f71" y="307.584"/>
      </g>
     </g>
    </g>
    <g id="xtick_13">
     <g id="line2d_13">
      <g>
       <use style="stroke:#000000;stroke-width:0.6;" x="395.396162" xlink:href="#m8e98c15f71" y="307.584"/>
      </g>
     </g>
    </g>
    <g id="text_3">
     <!-- Execution time (s) -->
     <defs>
      <path d="M 9.8125 72.90625 
L 55.90625 72.90625 
L 55.90625 64.59375 
L 19.671875 64.59375 
L 19.671875 43.015625 
L 54.390625 43.015625 
L 54.390625 34.71875 
L 19.671875 34.71875 
L 19.671875 8.296875 
L 56.78125 8.296875 
L 56.78125 0 
L 9.8125 0 
z
" id="DejaVuSans-45"/>
      <path d="M 54.890625 54.6875 
L 35.109375 28.078125 
L 55.90625 0 
L 45.3125 0 
L 29.390625 21.484375 
L 13.484375 0 
L 2.875 0 
L 24.125 28.609375 
L 4.6875 54.6875 
L 15.28125 54.6875 
L 29.78125 35.203125 
L 44.28125 54.6875 
z
" id="DejaVuSans-78"/>
      <path d="M 56.203125 29.59375 
L 56.203125 25.203125 
L 14.890625 25.203125 
Q 15.484375 15.921875 20.484375 11.0625 
Q 25.484375 6.203125 34.421875 6.203125 
Q 39.59375 6.203125 44.453125 7.46875 
Q 49.3125 8.734375 54.109375 11.28125 
L 54.109375 2.78125 
Q 49.265625 0.734375 44.1875 -0.34375 
Q 39.109375 -1.421875 33.890625 -1.421875 
Q 20.796875 -1.421875 13.15625 6.1875 
Q 5.515625 13.8125 5.515625 26.8125 
Q 5.515625 40.234375 12.765625 48.109375 
Q 20.015625 56 32.328125 56 
Q 43.359375 56 49.78125 48.890625 
Q 56.203125 41.796875 56.203125 29.59375 
z
M 47.21875 32.234375 
Q 47.125 39.59375 43.09375 43.984375 
Q 39.0625 48.390625 32.421875 48.390625 
Q 24.90625 48.390625 20.390625 44.140625 
Q 15.875 39.890625 15.1875 32.171875 
z
" id="DejaVuSans-65"/>
      <path d="M 48.78125 52.59375 
L 48.78125 44.1875 
Q 44.96875 46.296875 41.140625 47.34375 
Q 37.3125 48.390625 33.40625 48.390625 
Q 24.65625 48.390625 19.8125 42.84375 
Q 14.984375 37.3125 14.984375 27.296875 
Q 14.984375 17.28125 19.8125 11.734375 
Q 24.65625 6.203125 33.40625 6.203125 
Q 37.3125 6.203125 41.140625 7.25 
Q 44.96875 8.296875 48.78125 10.40625 
L 48.78125 2.09375 
Q 45.015625 0.34375 40.984375 -0.53125 
Q 36.96875 -1.421875 32.421875 -1.421875 
Q 20.0625 -1.421875 12.78125 6.34375 
Q 5.515625 14.109375 5.515625 27.296875 
Q 5.515625 40.671875 12.859375 48.328125 
Q 20.21875 56 33.015625 56 
Q 37.15625 56 41.109375 55.140625 
Q 45.0625 54.296875 48.78125 52.59375 
z
" id="DejaVuSans-63"/>
      <path d="M 8.5 21.578125 
L 8.5 54.6875 
L 17.484375 54.6875 
L 17.484375 21.921875 
Q 17.484375 14.15625 20.5 10.265625 
Q 23.53125 6.390625 29.59375 6.390625 
Q 36.859375 6.390625 41.078125 11.03125 
Q 45.3125 15.671875 45.3125 23.6875 
L 45.3125 54.6875 
L 54.296875 54.6875 
L 54.296875 0 
L 45.3125 0 
L 45.3125 8.40625 
Q 42.046875 3.421875 37.71875 1 
Q 33.40625 -1.421875 27.6875 -1.421875 
Q 18.265625 -1.421875 13.375 4.4375 
Q 8.5 10.296875 8.5 21.578125 
z
M 31.109375 56 
z
" id="DejaVuSans-75"/>
      <path d="M 18.3125 70.21875 
L 18.3125 54.6875 
L 36.8125 54.6875 
L 36.8125 47.703125 
L 18.3125 47.703125 
L 18.3125 18.015625 
Q 18.3125 11.328125 20.140625 9.421875 
Q 21.96875 7.515625 27.59375 7.515625 
L 36.8125 7.515625 
L 36.8125 0 
L 27.59375 0 
Q 17.1875 0 13.234375 3.875 
Q 9.28125 7.765625 9.28125 18.015625 
L 9.28125 47.703125 
L 2.6875 47.703125 
L 2.6875 54.6875 
L 9.28125 54.6875 
L 9.28125 70.21875 
z
" id="DejaVuSans-74"/>
      <path d="M 9.421875 54.6875 
L 18.40625 54.6875 
L 18.40625 0 
L 9.421875 0 
z
M 9.421875 75.984375 
L 18.40625 75.984375 
L 18.40625 64.59375 
L 9.421875 64.59375 
z
" id="DejaVuSans-69"/>
      <path d="M 30.609375 48.390625 
Q 23.390625 48.390625 19.1875 42.75 
Q 14.984375 37.109375 14.984375 27.296875 
Q 14.984375 17.484375 19.15625 11.84375 
Q 23.34375 6.203125 30.609375 6.203125 
Q 37.796875 6.203125 41.984375 11.859375 
Q 46.1875 17.53125 46.1875 27.296875 
Q 46.1875 37.015625 41.984375 42.703125 
Q 37.796875 48.390625 30.609375 48.390625 
z
M 30.609375 56 
Q 42.328125 56 49.015625 48.375 
Q 55.71875 40.765625 55.71875 27.296875 
Q 55.71875 13.875 49.015625 6.21875 
Q 42.328125 -1.421875 30.609375 -1.421875 
Q 18.84375 -1.421875 12.171875 6.21875 
Q 5.515625 13.875 5.515625 27.296875 
Q 5.515625 40.765625 12.171875 48.375 
Q 18.84375 56 30.609375 56 
z
" id="DejaVuSans-6f"/>
      <path d="M 54.890625 33.015625 
L 54.890625 0 
L 45.90625 0 
L 45.90625 32.71875 
Q 45.90625 40.484375 42.875 44.328125 
Q 39.84375 48.1875 33.796875 48.1875 
Q 26.515625 48.1875 22.3125 43.546875 
Q 18.109375 38.921875 18.109375 30.90625 
L 18.109375 0 
L 9.078125 0 
L 9.078125 54.6875 
L 18.109375 54.6875 
L 18.109375 46.1875 
Q 21.34375 51.125 25.703125 53.5625 
Q 30.078125 56 35.796875 56 
Q 45.21875 56 50.046875 50.171875 
Q 54.890625 44.34375 54.890625 33.015625 
z
" id="DejaVuSans-6e"/>
      <path id="DejaVuSans-20"/>
      <path d="M 52 44.1875 
Q 55.375 50.25 60.0625 53.125 
Q 64.75 56 71.09375 56 
Q 79.640625 56 84.28125 50.015625 
Q 88.921875 44.046875 88.921875 33.015625 
L 88.921875 0 
L 79.890625 0 
L 79.890625 32.71875 
Q 79.890625 40.578125 77.09375 44.375 
Q 74.3125 48.1875 68.609375 48.1875 
Q 61.625 48.1875 57.5625 43.546875 
Q 53.515625 38.921875 53.515625 30.90625 
L 53.515625 0 
L 44.484375 0 
L 44.484375 32.71875 
Q 44.484375 40.625 41.703125 44.40625 
Q 38.921875 48.1875 33.109375 48.1875 
Q 26.21875 48.1875 22.15625 43.53125 
Q 18.109375 38.875 18.109375 30.90625 
L 18.109375 0 
L 9.078125 0 
L 9.078125 54.6875 
L 18.109375 54.6875 
L 18.109375 46.1875 
Q 21.1875 51.21875 25.484375 53.609375 
Q 29.78125 56 35.6875 56 
Q 41.65625 56 45.828125 52.96875 
Q 50 49.953125 52 44.1875 
z
" id="DejaVuSans-6d"/>
      <path d="M 31 75.875 
Q 24.46875 64.65625 21.28125 53.65625 
Q 18.109375 42.671875 18.109375 31.390625 
Q 18.109375 20.125 21.3125 9.0625 
Q 24.515625 -2 31 -13.1875 
L 23.1875 -13.1875 
Q 15.875 -1.703125 12.234375 9.375 
Q 8.59375 20.453125 8.59375 31.390625 
Q 8.59375 42.28125 12.203125 53.3125 
Q 15.828125 64.359375 23.1875 75.875 
z
" id="DejaVuSans-28"/>
      <path d="M 44.28125 53.078125 
L 44.28125 44.578125 
Q 40.484375 46.53125 36.375 47.5 
Q 32.28125 48.484375 27.875 48.484375 
Q 21.1875 48.484375 17.84375 46.4375 
Q 14.5 44.390625 14.5 40.28125 
Q 14.5 37.15625 16.890625 35.375 
Q 19.28125 33.59375 26.515625 31.984375 
L 29.59375 31.296875 
Q 39.15625 29.25 43.1875 25.515625 
Q 47.21875 21.78125 47.21875 15.09375 
Q 47.21875 7.46875 41.1875 3.015625 
Q 35.15625 -1.421875 24.609375 -1.421875 
Q 20.21875 -1.421875 15.453125 -0.5625 
Q 10.6875 0.296875 5.421875 2 
L 5.421875 11.28125 
Q 10.40625 8.6875 15.234375 7.390625 
Q 20.0625 6.109375 24.8125 6.109375 
Q 31.15625 6.109375 34.5625 8.28125 
Q 37.984375 10.453125 37.984375 14.40625 
Q 37.984375 18.0625 35.515625 20.015625 
Q 33.0625 21.96875 24.703125 23.78125 
L 21.578125 24.515625 
Q 13.234375 26.265625 9.515625 29.90625 
Q 5.8125 33.546875 5.8125 39.890625 
Q 5.8125 47.609375 11.28125 51.796875 
Q 16.75 56 26.8125 56 
Q 31.78125 56 36.171875 55.265625 
Q 40.578125 54.546875 44.28125 53.078125 
z
" id="DejaVuSans-73"/>
      <path d="M 8.015625 75.875 
L 15.828125 75.875 
Q 23.140625 64.359375 26.78125 53.3125 
Q 30.421875 42.28125 30.421875 31.390625 
Q 30.421875 20.453125 26.78125 9.375 
Q 23.140625 -1.703125 15.828125 -13.1875 
L 8.015625 -13.1875 
Q 14.5 -2 17.703125 9.0625 
Q 20.90625 20.125 20.90625 31.390625 
Q 20.90625 42.671875 17.703125 53.65625 
Q 14.5 64.65625 8.015625 75.875 
z
" id="DejaVuSans-29"/>
     </defs>
     <g transform="translate(190.49125 335.860562)scale(0.1 -0.1)">
      <use xlink:href="#DejaVuSans-45"/>
      <use x="63.183594" xlink:href="#DejaVuSans-78"/>
      <use x="122.316406" xlink:href="#DejaVuSans-65"/>
      <use x="183.839844" xlink:href="#DejaVuSans-63"/>
      <use x="238.820312" xlink:href="#DejaVuSans-75"/>
      <use x="302.199219" xlink:href="#DejaVuSans-74"/>
      <use x="341.408203" xlink:href="#DejaVuSans-69"/>
      <use x="369.191406" xlink:href="#DejaVuSans-6f"/>
      <use x="430.373047" xlink:href="#DejaVuSans-6e"/>
      <use x="493.751953" xlink:href="#DejaVuSans-20"/>
      <use x="525.539062" xlink:href="#DejaVuSans-74"/>
      <use x="564.748047" xlink:href="#DejaVuSans-69"/>
      <use x="592.53125" xlink:href="#DejaVuSans-6d"/>
      <use x="689.943359" xlink:href="#DejaVuSans-65"/>
      <use x="751.466797" xlink:href="#DejaVuSans-20"/>
      <use x="783.253906" xlink:href="#DejaVuSans-28"/>
      <use x="822.267578" xlink:href="#DejaVuSans-73"/>
      <use x="874.367188" xlink:href="#DejaVuSans-29"/>
     </g>
    </g>
   </g>
   <g id="matplotlib.axis_2">
    <g id="ytick_1">
     <g id="line2d_14">
      <defs>
       <path d="M 0 0 
L -3.5 0 
" id="m27d243d73d" style="stroke:#000000;stroke-width:0.8;"/>
      </defs>
      <g>
       <use style="stroke:#000000;stroke-width:0.8;" x="57.6" xlink:href="#m27d243d73d" y="262.498909"/>
      </g>
     </g>
     <g id="text_4">
      <!-- 30 -->
      <g transform="translate(37.875 266.298128)scale(0.1 -0.1)">
       <use xlink:href="#DejaVuSans-33"/>
       <use x="63.623047" xlink:href="#DejaVuSans-30"/>
      </g>
     </g>
    </g>
    <g id="ytick_2">
     <g id="line2d_15">
      <g>
       <use style="stroke:#000000;stroke-width:0.8;" x="57.6" xlink:href="#m27d243d73d" y="207.517091"/>
      </g>
     </g>
     <g id="text_5">
      <!-- 35 -->
      <defs>
       <path d="M 10.796875 72.90625 
L 49.515625 72.90625 
L 49.515625 64.59375 
L 19.828125 64.59375 
L 19.828125 46.734375 
Q 21.96875 47.46875 24.109375 47.828125 
Q 26.265625 48.1875 28.421875 48.1875 
Q 40.625 48.1875 47.75 41.5 
Q 54.890625 34.8125 54.890625 23.390625 
Q 54.890625 11.625 47.5625 5.09375 
Q 40.234375 -1.421875 26.90625 -1.421875 
Q 22.3125 -1.421875 17.546875 -0.640625 
Q 12.796875 0.140625 7.71875 1.703125 
L 7.71875 11.625 
Q 12.109375 9.234375 16.796875 8.0625 
Q 21.484375 6.890625 26.703125 6.890625 
Q 35.15625 6.890625 40.078125 11.328125 
Q 45.015625 15.765625 45.015625 23.390625 
Q 45.015625 31 40.078125 35.4375 
Q 35.15625 39.890625 26.703125 39.890625 
Q 22.75 39.890625 18.8125 39.015625 
Q 14.890625 38.140625 10.796875 36.28125 
z
" id="DejaVuSans-35"/>
      </defs>
      <g transform="translate(37.875 211.31631)scale(0.1 -0.1)">
       <use xlink:href="#DejaVuSans-33"/>
       <use x="63.623047" xlink:href="#DejaVuSans-35"/>
      </g>
     </g>
    </g>
    <g id="ytick_3">
     <g id="line2d_16">
      <g>
       <use style="stroke:#000000;stroke-width:0.8;" x="57.6" xlink:href="#m27d243d73d" y="152.535273"/>
      </g>
     </g>
     <g id="text_6">
      <!-- 40 -->
      <defs>
       <path d="M 37.796875 64.3125 
L 12.890625 25.390625 
L 37.796875 25.390625 
z
M 35.203125 72.90625 
L 47.609375 72.90625 
L 47.609375 25.390625 
L 58.015625 25.390625 
L 58.015625 17.1875 
L 47.609375 17.1875 
L 47.609375 0 
L 37.796875 0 
L 37.796875 17.1875 
L 4.890625 17.1875 
L 4.890625 26.703125 
z
" id="DejaVuSans-34"/>
      </defs>
      <g transform="translate(37.875 156.334491)scale(0.1 -0.1)">
       <use xlink:href="#DejaVuSans-34"/>
       <use x="63.623047" xlink:href="#DejaVuSans-30"/>
      </g>
     </g>
    </g>
    <g id="ytick_4">
     <g id="line2d_17">
      <g>
       <use style="stroke:#000000;stroke-width:0.8;" x="57.6" xlink:href="#m27d243d73d" y="97.553455"/>
      </g>
     </g>
     <g id="text_7">
      <!-- 45 -->
      <g transform="translate(37.875 101.352673)scale(0.1 -0.1)">
       <use xlink:href="#DejaVuSans-34"/>
       <use x="63.623047" xlink:href="#DejaVuSans-35"/>
      </g>
     </g>
    </g>
    <g id="ytick_5">
     <g id="line2d_18">
      <g>
       <use style="stroke:#000000;stroke-width:0.8;" x="57.6" xlink:href="#m27d243d73d" y="42.571636"/>
      </g>
     </g>
     <g id="text_8">
      <!-- 50 -->
      <g transform="translate(37.875 46.370855)scale(0.1 -0.1)">
       <use xlink:href="#DejaVuSans-35"/>
       <use x="63.623047" xlink:href="#DejaVuSans-30"/>
      </g>
     </g>
    </g>
    <g id="text_9">
     <!-- Number of core species -->
     <defs>
      <path d="M 9.8125 72.90625 
L 23.09375 72.90625 
L 55.421875 11.921875 
L 55.421875 72.90625 
L 64.984375 72.90625 
L 64.984375 0 
L 51.703125 0 
L 19.390625 60.984375 
L 19.390625 0 
L 9.8125 0 
z
" id="DejaVuSans-4e"/>
      <path d="M 48.6875 27.296875 
Q 48.6875 37.203125 44.609375 42.84375 
Q 40.53125 48.484375 33.40625 48.484375 
Q 26.265625 48.484375 22.1875 42.84375 
Q 18.109375 37.203125 18.109375 27.296875 
Q 18.109375 17.390625 22.1875 11.75 
Q 26.265625 6.109375 33.40625 6.109375 
Q 40.53125 6.109375 44.609375 11.75 
Q 48.6875 17.390625 48.6875 27.296875 
z
M 18.109375 46.390625 
Q 20.953125 51.265625 25.265625 53.625 
Q 29.59375 56 35.59375 56 
Q 45.5625 56 51.78125 48.09375 
Q 58.015625 40.1875 58.015625 27.296875 
Q 58.015625 14.40625 51.78125 6.484375 
Q 45.5625 -1.421875 35.59375 -1.421875 
Q 29.59375 -1.421875 25.265625 0.953125 
Q 20.953125 3.328125 18.109375 8.203125 
L 18.109375 0 
L 9.078125 0 
L 9.078125 75.984375 
L 18.109375 75.984375 
z
" id="DejaVuSans-62"/>
      <path d="M 41.109375 46.296875 
Q 39.59375 47.171875 37.8125 47.578125 
Q 36.03125 48 33.890625 48 
Q 26.265625 48 22.1875 43.046875 
Q 18.109375 38.09375 18.109375 28.8125 
L 18.109375 0 
L 9.078125 0 
L 9.078125 54.6875 
L 18.109375 54.6875 
L 18.109375 46.1875 
Q 20.953125 51.171875 25.484375 53.578125 
Q 30.03125 56 36.53125 56 
Q 37.453125 56 38.578125 55.875 
Q 39.703125 55.765625 41.0625 55.515625 
z
" id="DejaVuSans-72"/>
      <path d="M 37.109375 75.984375 
L 37.109375 68.5 
L 28.515625 68.5 
Q 23.6875 68.5 21.796875 66.546875 
Q 19.921875 64.59375 19.921875 59.515625 
L 19.921875 54.6875 
L 34.71875 54.6875 
L 34.71875 47.703125 
L 19.921875 47.703125 
L 19.921875 0 
L 10.890625 0 
L 10.890625 47.703125 
L 2.296875 47.703125 
L 2.296875 54.6875 
L 10.890625 54.6875 
L 10.890625 58.5 
Q 10.890625 67.625 15.140625 71.796875 
Q 19.390625 75.984375 28.609375 75.984375 
z
" id="DejaVuSans-66"/>
      <path d="M 18.109375 8.203125 
L 18.109375 -20.796875 
L 9.078125 -20.796875 
L 9.078125 54.6875 
L 18.109375 54.6875 
L 18.109375 46.390625 
Q 20.953125 51.265625 25.265625 53.625 
Q 29.59375 56 35.59375 56 
Q 45.5625 56 51.78125 48.09375 
Q 58.015625 40.1875 58.015625 27.296875 
Q 58.015625 14.40625 51.78125 6.484375 
Q 45.5625 -1.421875 35.59375 -1.421875 
Q 29.59375 -1.421875 25.265625 0.953125 
Q 20.953125 3.328125 18.109375 8.203125 
z
M 48.6875 27.296875 
Q 48.6875 37.203125 44.609375 42.84375 
Q 40.53125 48.484375 33.40625 48.484375 
Q 26.265625 48.484375 22.1875 42.84375 
Q 18.109375 37.203125 18.109375 27.296875 
Q 18.109375 17.390625 22.1875 11.75 
Q 26.265625 6.109375 33.40625 6.109375 
Q 40.53125 6.109375 44.609375 11.75 
Q 48.6875 17.390625 48.6875 27.296875 
z
" id="DejaVuSans-70"/>
     </defs>
     <g transform="translate(31.795312 233.814719)rotate(-90)scale(0.1 -0.1)">
      <use xlink:href="#DejaVuSans-4e"/>
      <use x="74.804688" xlink:href="#DejaVuSans-75"/>
      <use x="138.183594" xlink:href="#DejaVuSans-6d"/>
      <use x="235.595703" xlink:href="#DejaVuSans-62"/>
      <use x="299.072266" xlink:href="#DejaVuSans-65"/>
      <use x="360.595703" xlink:href="#DejaVuSans-72"/>
      <use x="401.708984" xlink:href="#DejaVuSans-20"/>
      <use x="433.496094" xlink:href="#DejaVuSans-6f"/>
      <use x="494.677734" xlink:href="#DejaVuSans-66"/>
      <use x="529.882812" xlink:href="#DejaVuSans-20"/>
      <use x="561.669922" xlink:href="#DejaVuSans-63"/>
      <use x="616.650391" xlink:href="#DejaVuSans-6f"/>
      <use x="677.832031" xlink:href="#DejaVuSans-72"/>
      <use x="718.914062" xlink:href="#DejaVuSans-65"/>
      <use x="780.4375" xlink:href="#DejaVuSans-20"/>
      <use x="812.224609" xlink:href="#DejaVuSans-73"/>
      <use x="864.324219" xlink:href="#DejaVuSans-70"/>
      <use x="927.800781" xlink:href="#DejaVuSans-65"/>
      <use x="989.324219" xlink:href="#DejaVuSans-63"/>
      <use x="1044.304688" xlink:href="#DejaVuSans-69"/>
      <use x="1072.087891" xlink:href="#DejaVuSans-65"/>
      <use x="1133.611328" xlink:href="#DejaVuSans-73"/>
     </g>
    </g>
   </g>
   <g id="line2d_19">
    <path clip-path="url(#pa780aa4bc0)" d="M 73.832727 295.488 
L 116.312648 295.488 
L 125.867674 284.491636 
L 195.740238 284.491636 
L 215.755083 273.495273 
L 230.679816 262.498909 
L 234.382262 251.502545 
L 238.34415 240.506182 
L 241.699824 229.509818 
L 247.096778 218.513455 
L 250.257366 207.517091 
L 254.155837 207.517091 
L 257.199328 207.517091 
L 260.439248 207.517091 
L 263.966191 207.517091 
L 266.520836 207.517091 
L 273.420072 207.517091 
L 276.204215 196.520727 
L 278.922687 196.520727 
L 281.554893 196.520727 
L 284.2297 196.520727 
L 286.504504 196.520727 
L 288.699009 196.520727 
L 291.530141 196.520727 
L 293.878966 196.520727 
L 296.095573 196.520727 
L 298.582128 196.520727 
L 300.672092 196.520727 
L 302.518199 196.520727 
L 304.86527 196.520727 
L 307.384525 196.520727 
L 309.776088 185.524364 
L 312.369875 185.524364 
L 316.907063 174.528 
L 322.869015 163.531636 
L 330.645366 152.535273 
L 332.866004 141.538909 
L 334.895346 141.538909 
L 337.041065 141.538909 
L 340.35735 141.538909 
L 342.557044 130.542545 
L 344.40767 130.542545 
L 351.284559 130.542545 
L 355.192407 119.546182 
L 357.202599 119.546182 
L 359.11642 119.546182 
L 363.91293 108.549818 
L 365.869122 97.553455 
L 368.034063 86.557091 
L 370.176023 86.557091 
L 372.093369 75.560727 
L 375.117059 75.560727 
L 378.095239 64.564364 
L 379.910228 53.568 
L 381.576707 53.568 
L 383.235914 53.568 
L 385.057616 53.568 
L 386.91563 53.568 
L 388.725072 53.568 
L 390.476142 53.568 
L 392.251719 53.568 
L 393.903924 53.568 
L 395.561943 53.568 
L 397.014546 53.568 
L 398.487273 53.568 
" style="fill:none;stroke:#0000ff;stroke-linecap:square;stroke-width:1.5;"/>
    <defs>
     <path d="M 0 3 
C 0.795609 3 1.55874 2.683901 2.12132 2.12132 
C 2.683901 1.55874 3 0.795609 3 0 
C 3 -0.795609 2.683901 -1.55874 2.12132 -2.12132 
C 1.55874 -2.683901 0.795609 -3 0 -3 
C -0.795609 -3 -1.55874 -2.683901 -2.12132 -2.12132 
C -2.683901 -1.55874 -3 -0.795609 -3 0 
C -3 0.795609 -2.683901 1.55874 -2.12132 2.12132 
C -1.55874 2.683901 -0.795609 3 0 3 
z
" id="m54123779a4" style="stroke:#0000ff;"/>
    </defs>
    <g clip-path="url(#pa780aa4bc0)">
     <use style="fill:#0000ff;stroke:#0000ff;" x="73.832727" xlink:href="#m54123779a4" y="295.488"/>
     <use style="fill:#0000ff;stroke:#0000ff;" x="116.312648" xlink:href="#m54123779a4" y="295.488"/>
     <use style="fill:#0000ff;stroke:#0000ff;" x="125.867674" xlink:href="#m54123779a4" y="284.491636"/>
     <use style="fill:#0000ff;stroke:#0000ff;" x="195.740238" xlink:href="#m54123779a4" y="284.491636"/>
     <use style="fill:#0000ff;stroke:#0000ff;" x="215.755083" xlink:href="#m54123779a4" y="273.495273"/>
     <use style="fill:#0000ff;stroke:#0000ff;" x="230.679816" xlink:href="#m54123779a4" y="262.498909"/>
     <use style="fill:#0000ff;stroke:#0000ff;" x="234.382262" xlink:href="#m54123779a4" y="251.502545"/>
     <use style="fill:#0000ff;stroke:#0000ff;" x="238.34415" xlink:href="#m54123779a4" y="240.506182"/>
     <use style="fill:#0000ff;stroke:#0000ff;" x="241.699824" xlink:href="#m54123779a4" y="229.509818"/>
     <use style="fill:#0000ff;stroke:#0000ff;" x="247.096778" xlink:href="#m54123779a4" y="218.513455"/>
     <use style="fill:#0000ff;stroke:#0000ff;" x="250.257366" xlink:href="#m54123779a4" y="207.517091"/>
     <use style="fill:#0000ff;stroke:#0000ff;" x="254.155837" xlink:href="#m54123779a4" y="207.517091"/>
     <use style="fill:#0000ff;stroke:#0000ff;" x="257.199328" xlink:href="#m54123779a4" y="207.517091"/>
     <use style="fill:#0000ff;stroke:#0000ff;" x="260.439248" xlink:href="#m54123779a4" y="207.517091"/>
     <use style="fill:#0000ff;stroke:#0000ff;" x="263.966191" xlink:href="#m54123779a4" y="207.517091"/>
     <use style="fill:#0000ff;stroke:#0000ff;" x="266.520836" xlink:href="#m54123779a4" y="207.517091"/>
     <use style="fill:#0000ff;stroke:#0000ff;" x="273.420072" xlink:href="#m54123779a4" y="207.517091"/>
     <use style="fill:#0000ff;stroke:#0000ff;" x="276.204215" xlink:href="#m54123779a4" y="196.520727"/>
     <use style="fill:#0000ff;stroke:#0000ff;" x="278.922687" xlink:href="#m54123779a4" y="196.520727"/>
     <use style="fill:#0000ff;stroke:#0000ff;" x="281.554893" xlink:href="#m54123779a4" y="196.520727"/>
     <use style="fill:#0000ff;stroke:#0000ff;" x="284.2297" xlink:href="#m54123779a4" y="196.520727"/>
     <use style="fill:#0000ff;stroke:#0000ff;" x="286.504504" xlink:href="#m54123779a4" y="196.520727"/>
     <use style="fill:#0000ff;stroke:#0000ff;" x="288.699009" xlink:href="#m54123779a4" y="196.520727"/>
     <use style="fill:#0000ff;stroke:#0000ff;" x="291.530141" xlink:href="#m54123779a4" y="196.520727"/>
     <use style="fill:#0000ff;stroke:#0000ff;" x="293.878966" xlink:href="#m54123779a4" y="196.520727"/>
     <use style="fill:#0000ff;stroke:#0000ff;" x="296.095573" xlink:href="#m54123779a4" y="196.520727"/>
     <use style="fill:#0000ff;stroke:#0000ff;" x="298.582128" xlink:href="#m54123779a4" y="196.520727"/>
     <use style="fill:#0000ff;stroke:#0000ff;" x="300.672092" xlink:href="#m54123779a4" y="196.520727"/>
     <use style="fill:#0000ff;stroke:#0000ff;" x="302.518199" xlink:href="#m54123779a4" y="196.520727"/>
     <use style="fill:#0000ff;stroke:#0000ff;" x="304.86527" xlink:href="#m54123779a4" y="196.520727"/>
     <use style="fill:#0000ff;stroke:#0000ff;" x="307.384525" xlink:href="#m54123779a4" y="196.520727"/>
     <use style="fill:#0000ff;stroke:#0000ff;" x="309.776088" xlink:href="#m54123779a4" y="185.524364"/>
     <use style="fill:#0000ff;stroke:#0000ff;" x="312.369875" xlink:href="#m54123779a4" y="185.524364"/>
     <use style="fill:#0000ff;stroke:#0000ff;" x="316.907063" xlink:href="#m54123779a4" y="174.528"/>
     <use style="fill:#0000ff;stroke:#0000ff;" x="322.869015" xlink:href="#m54123779a4" y="163.531636"/>
     <use style="fill:#0000ff;stroke:#0000ff;" x="330.645366" xlink:href="#m54123779a4" y="152.535273"/>
     <use style="fill:#0000ff;stroke:#0000ff;" x="332.866004" xlink:href="#m54123779a4" y="141.538909"/>
     <use style="fill:#0000ff;stroke:#0000ff;" x="334.895346" xlink:href="#m54123779a4" y="141.538909"/>
     <use style="fill:#0000ff;stroke:#0000ff;" x="337.041065" xlink:href="#m54123779a4" y="141.538909"/>
     <use style="fill:#0000ff;stroke:#0000ff;" x="340.35735" xlink:href="#m54123779a4" y="141.538909"/>
     <use style="fill:#0000ff;stroke:#0000ff;" x="342.557044" xlink:href="#m54123779a4" y="130.542545"/>
     <use style="fill:#0000ff;stroke:#0000ff;" x="344.40767" xlink:href="#m54123779a4" y="130.542545"/>
     <use style="fill:#0000ff;stroke:#0000ff;" x="351.284559" xlink:href="#m54123779a4" y="130.542545"/>
     <use style="fill:#0000ff;stroke:#0000ff;" x="355.192407" xlink:href="#m54123779a4" y="119.546182"/>
     <use style="fill:#0000ff;stroke:#0000ff;" x="357.202599" xlink:href="#m54123779a4" y="119.546182"/>
     <use style="fill:#0000ff;stroke:#0000ff;" x="359.11642" xlink:href="#m54123779a4" y="119.546182"/>
     <use style="fill:#0000ff;stroke:#0000ff;" x="363.91293" xlink:href="#m54123779a4" y="108.549818"/>
     <use style="fill:#0000ff;stroke:#0000ff;" x="365.869122" xlink:href="#m54123779a4" y="97.553455"/>
     <use style="fill:#0000ff;stroke:#0000ff;" x="368.034063" xlink:href="#m54123779a4" y="86.557091"/>
     <use style="fill:#0000ff;stroke:#0000ff;" x="370.176023" xlink:href="#m54123779a4" y="86.557091"/>
     <use style="fill:#0000ff;stroke:#0000ff;" x="372.093369" xlink:href="#m54123779a4" y="75.560727"/>
     <use style="fill:#0000ff;stroke:#0000ff;" x="375.117059" xlink:href="#m54123779a4" y="75.560727"/>
     <use style="fill:#0000ff;stroke:#0000ff;" x="378.095239" xlink:href="#m54123779a4" y="64.564364"/>
     <use style="fill:#0000ff;stroke:#0000ff;" x="379.910228" xlink:href="#m54123779a4" y="53.568"/>
     <use style="fill:#0000ff;stroke:#0000ff;" x="381.576707" xlink:href="#m54123779a4" y="53.568"/>
     <use style="fill:#0000ff;stroke:#0000ff;" x="383.235914" xlink:href="#m54123779a4" y="53.568"/>
     <use style="fill:#0000ff;stroke:#0000ff;" x="385.057616" xlink:href="#m54123779a4" y="53.568"/>
     <use style="fill:#0000ff;stroke:#0000ff;" x="386.91563" xlink:href="#m54123779a4" y="53.568"/>
     <use style="fill:#0000ff;stroke:#0000ff;" x="388.725072" xlink:href="#m54123779a4" y="53.568"/>
     <use style="fill:#0000ff;stroke:#0000ff;" x="390.476142" xlink:href="#m54123779a4" y="53.568"/>
     <use style="fill:#0000ff;stroke:#0000ff;" x="392.251719" xlink:href="#m54123779a4" y="53.568"/>
     <use style="fill:#0000ff;stroke:#0000ff;" x="393.903924" xlink:href="#m54123779a4" y="53.568"/>
     <use style="fill:#0000ff;stroke:#0000ff;" x="395.561943" xlink:href="#m54123779a4" y="53.568"/>
     <use style="fill:#0000ff;stroke:#0000ff;" x="397.014546" xlink:href="#m54123779a4" y="53.568"/>
     <use style="fill:#0000ff;stroke:#0000ff;" x="398.487273" xlink:href="#m54123779a4" y="53.568"/>
    </g>
   </g>
   <g id="patch_3">
    <path d="M 57.6 307.584 
L 57.6 41.472 
" style="fill:none;stroke:#000000;stroke-linecap:square;stroke-linejoin:miter;stroke-width:0.8;"/>
   </g>
   <g id="patch_4">
    <path d="M 414.72 307.584 
L 414.72 41.472 
" style="fill:none;stroke:#000000;stroke-linecap:square;stroke-linejoin:miter;stroke-width:0.8;"/>
   </g>
   <g id="patch_5">
    <path d="M 57.6 307.584 
L 414.72 307.584 
" style="fill:none;stroke:#000000;stroke-linecap:square;stroke-linejoin:miter;stroke-width:0.8;"/>
   </g>
   <g id="patch_6">
    <path d="M 57.6 41.472 
L 414.72 41.472 
" style="fill:none;stroke:#000000;stroke-linecap:square;stroke-linejoin:miter;stroke-width:0.8;"/>
   </g>
  </g>
  <g id="axes_2">
   <g id="matplotlib.axis_3">
    <g id="ytick_6">
     <g id="line2d_20">
      <defs>
       <path d="M 0 0 
L 3.5 0 
" id="m9fee2f8bbf" style="stroke:#000000;stroke-width:0.8;"/>
      </defs>
      <g>
       <use style="stroke:#000000;stroke-width:0.8;" x="414.72" xlink:href="#m9fee2f8bbf" y="302.208"/>
      </g>
     </g>
     <g id="text_10">
      <!-- 0 -->
      <g transform="translate(421.72 306.007219)scale(0.1 -0.1)">
       <use xlink:href="#DejaVuSans-30"/>
      </g>
     </g>
    </g>
    <g id="ytick_7">
     <g id="line2d_21">
      <g>
       <use style="stroke:#000000;stroke-width:0.8;" x="414.72" xlink:href="#m9fee2f8bbf" y="257.408"/>
      </g>
     </g>
     <g id="text_11">
      <!-- 20 -->
      <g transform="translate(421.72 261.207219)scale(0.1 -0.1)">
       <use xlink:href="#DejaVuSans-32"/>
       <use x="63.623047" xlink:href="#DejaVuSans-30"/>
      </g>
     </g>
    </g>
    <g id="ytick_8">
     <g id="line2d_22">
      <g>
       <use style="stroke:#000000;stroke-width:0.8;" x="414.72" xlink:href="#m9fee2f8bbf" y="212.608"/>
      </g>
     </g>
     <g id="text_12">
      <!-- 40 -->
      <g transform="translate(421.72 216.407219)scale(0.1 -0.1)">
       <use xlink:href="#DejaVuSans-34"/>
       <use x="63.623047" xlink:href="#DejaVuSans-30"/>
      </g>
     </g>
    </g>
    <g id="ytick_9">
     <g id="line2d_23">
      <g>
       <use style="stroke:#000000;stroke-width:0.8;" x="414.72" xlink:href="#m9fee2f8bbf" y="167.808"/>
      </g>
     </g>
     <g id="text_13">
      <!-- 60 -->
      <defs>
       <path d="M 33.015625 40.375 
Q 26.375 40.375 22.484375 35.828125 
Q 18.609375 31.296875 18.609375 23.390625 
Q 18.609375 15.53125 22.484375 10.953125 
Q 26.375 6.390625 33.015625 6.390625 
Q 39.65625 6.390625 43.53125 10.953125 
Q 47.40625 15.53125 47.40625 23.390625 
Q 47.40625 31.296875 43.53125 35.828125 
Q 39.65625 40.375 33.015625 40.375 
z
M 52.59375 71.296875 
L 52.59375 62.3125 
Q 48.875 64.0625 45.09375 64.984375 
Q 41.3125 65.921875 37.59375 65.921875 
Q 27.828125 65.921875 22.671875 59.328125 
Q 17.53125 52.734375 16.796875 39.40625 
Q 19.671875 43.65625 24.015625 45.921875 
Q 28.375 48.1875 33.59375 48.1875 
Q 44.578125 48.1875 50.953125 41.515625 
Q 57.328125 34.859375 57.328125 23.390625 
Q 57.328125 12.15625 50.6875 5.359375 
Q 44.046875 -1.421875 33.015625 -1.421875 
Q 20.359375 -1.421875 13.671875 8.265625 
Q 6.984375 17.96875 6.984375 36.375 
Q 6.984375 53.65625 15.1875 63.9375 
Q 23.390625 74.21875 37.203125 74.21875 
Q 40.921875 74.21875 44.703125 73.484375 
Q 48.484375 72.75 52.59375 71.296875 
z
" id="DejaVuSans-36"/>
      </defs>
      <g transform="translate(421.72 171.607219)scale(0.1 -0.1)">
       <use xlink:href="#DejaVuSans-36"/>
       <use x="63.623047" xlink:href="#DejaVuSans-30"/>
      </g>
     </g>
    </g>
    <g id="ytick_10">
     <g id="line2d_24">
      <g>
       <use style="stroke:#000000;stroke-width:0.8;" x="414.72" xlink:href="#m9fee2f8bbf" y="123.008"/>
      </g>
     </g>
     <g id="text_14">
      <!-- 80 -->
      <defs>
       <path d="M 31.78125 34.625 
Q 24.75 34.625 20.71875 30.859375 
Q 16.703125 27.09375 16.703125 20.515625 
Q 16.703125 13.921875 20.71875 10.15625 
Q 24.75 6.390625 31.78125 6.390625 
Q 38.8125 6.390625 42.859375 10.171875 
Q 46.921875 13.96875 46.921875 20.515625 
Q 46.921875 27.09375 42.890625 30.859375 
Q 38.875 34.625 31.78125 34.625 
z
M 21.921875 38.8125 
Q 15.578125 40.375 12.03125 44.71875 
Q 8.5 49.078125 8.5 55.328125 
Q 8.5 64.0625 14.71875 69.140625 
Q 20.953125 74.21875 31.78125 74.21875 
Q 42.671875 74.21875 48.875 69.140625 
Q 55.078125 64.0625 55.078125 55.328125 
Q 55.078125 49.078125 51.53125 44.71875 
Q 48 40.375 41.703125 38.8125 
Q 48.828125 37.15625 52.796875 32.3125 
Q 56.78125 27.484375 56.78125 20.515625 
Q 56.78125 9.90625 50.3125 4.234375 
Q 43.84375 -1.421875 31.78125 -1.421875 
Q 19.734375 -1.421875 13.25 4.234375 
Q 6.78125 9.90625 6.78125 20.515625 
Q 6.78125 27.484375 10.78125 32.3125 
Q 14.796875 37.15625 21.921875 38.8125 
z
M 18.3125 54.390625 
Q 18.3125 48.734375 21.84375 45.5625 
Q 25.390625 42.390625 31.78125 42.390625 
Q 38.140625 42.390625 41.71875 45.5625 
Q 45.3125 48.734375 45.3125 54.390625 
Q 45.3125 60.0625 41.71875 63.234375 
Q 38.140625 66.40625 31.78125 66.40625 
Q 25.390625 66.40625 21.84375 63.234375 
Q 18.3125 60.0625 18.3125 54.390625 
z
" id="DejaVuSans-38"/>
      </defs>
      <g transform="translate(421.72 126.807219)scale(0.1 -0.1)">
       <use xlink:href="#DejaVuSans-38"/>
       <use x="63.623047" xlink:href="#DejaVuSans-30"/>
      </g>
     </g>
    </g>
    <g id="ytick_11">
     <g id="line2d_25">
      <g>
       <use style="stroke:#000000;stroke-width:0.8;" x="414.72" xlink:href="#m9fee2f8bbf" y="78.208"/>
      </g>
     </g>
     <g id="text_15">
      <!-- 100 -->
      <g transform="translate(421.72 82.007219)scale(0.1 -0.1)">
       <use xlink:href="#DejaVuSans-31"/>
       <use x="63.623047" xlink:href="#DejaVuSans-30"/>
       <use x="127.246094" xlink:href="#DejaVuSans-30"/>
      </g>
     </g>
    </g>
    <g id="text_16">
     <!-- Number of core reactions -->
     <defs>
      <path d="M 34.28125 27.484375 
Q 23.390625 27.484375 19.1875 25 
Q 14.984375 22.515625 14.984375 16.5 
Q 14.984375 11.71875 18.140625 8.90625 
Q 21.296875 6.109375 26.703125 6.109375 
Q 34.1875 6.109375 38.703125 11.40625 
Q 43.21875 16.703125 43.21875 25.484375 
L 43.21875 27.484375 
z
M 52.203125 31.203125 
L 52.203125 0 
L 43.21875 0 
L 43.21875 8.296875 
Q 40.140625 3.328125 35.546875 0.953125 
Q 30.953125 -1.421875 24.3125 -1.421875 
Q 15.921875 -1.421875 10.953125 3.296875 
Q 6 8.015625 6 15.921875 
Q 6 25.140625 12.171875 29.828125 
Q 18.359375 34.515625 30.609375 34.515625 
L 43.21875 34.515625 
L 43.21875 35.40625 
Q 43.21875 41.609375 39.140625 45 
Q 35.0625 48.390625 27.6875 48.390625 
Q 23 48.390625 18.546875 47.265625 
Q 14.109375 46.140625 10.015625 43.890625 
L 10.015625 52.203125 
Q 14.9375 54.109375 19.578125 55.046875 
Q 24.21875 56 28.609375 56 
Q 40.484375 56 46.34375 49.84375 
Q 52.203125 43.703125 52.203125 31.203125 
z
" id="DejaVuSans-61"/>
     </defs>
     <g transform="translate(452.405937 238.2655)rotate(-90)scale(0.1 -0.1)">
      <use xlink:href="#DejaVuSans-4e"/>
      <use x="74.804688" xlink:href="#DejaVuSans-75"/>
      <use x="138.183594" xlink:href="#DejaVuSans-6d"/>
      <use x="235.595703" xlink:href="#DejaVuSans-62"/>
      <use x="299.072266" xlink:href="#DejaVuSans-65"/>
      <use x="360.595703" xlink:href="#DejaVuSans-72"/>
      <use x="401.708984" xlink:href="#DejaVuSans-20"/>
      <use x="433.496094" xlink:href="#DejaVuSans-6f"/>
      <use x="494.677734" xlink:href="#DejaVuSans-66"/>
      <use x="529.882812" xlink:href="#DejaVuSans-20"/>
      <use x="561.669922" xlink:href="#DejaVuSans-63"/>
      <use x="616.650391" xlink:href="#DejaVuSans-6f"/>
      <use x="677.832031" xlink:href="#DejaVuSans-72"/>
      <use x="718.914062" xlink:href="#DejaVuSans-65"/>
      <use x="780.4375" xlink:href="#DejaVuSans-20"/>
      <use x="812.224609" xlink:href="#DejaVuSans-72"/>
      <use x="853.306641" xlink:href="#DejaVuSans-65"/>
      <use x="914.830078" xlink:href="#DejaVuSans-61"/>
      <use x="976.109375" xlink:href="#DejaVuSans-63"/>
      <use x="1031.089844" xlink:href="#DejaVuSans-74"/>
      <use x="1070.298828" xlink:href="#DejaVuSans-69"/>
      <use x="1098.082031" xlink:href="#DejaVuSans-6f"/>
      <use x="1159.263672" xlink:href="#DejaVuSans-6e"/>
      <use x="1222.642578" xlink:href="#DejaVuSans-73"/>
     </g>
    </g>
   </g>
   <g id="line2d_26">
    <path clip-path="url(#pa780aa4bc0)" d="M 73.832727 295.488 
L 116.312648 261.888 
L 125.867674 248.448 
L 195.740238 223.808 
L 215.755083 219.328 
L 230.679816 217.088 
L 234.382262 214.848 
L 238.34415 210.368 
L 241.699824 205.888 
L 247.096778 203.648 
L 250.257366 190.208 
L 254.155837 190.208 
L 257.199328 190.208 
L 260.439248 190.208 
L 263.966191 190.208 
L 266.520836 190.208 
L 273.420072 187.968 
L 276.204215 176.768 
L 278.922687 176.768 
L 281.554893 176.768 
L 284.2297 176.768 
L 286.504504 176.768 
L 288.699009 176.768 
L 291.530141 176.768 
L 293.878966 176.768 
L 296.095573 176.768 
L 298.582128 176.768 
L 300.672092 176.768 
L 302.518199 176.768 
L 304.86527 176.768 
L 307.384525 176.768 
L 309.776088 174.528 
L 312.369875 174.528 
L 316.907063 161.088 
L 322.869015 152.128 
L 330.645366 149.888 
L 332.866004 147.648 
L 334.895346 147.648 
L 337.041065 147.648 
L 340.35735 147.648 
L 342.557044 145.408 
L 344.40767 145.408 
L 351.284559 145.408 
L 355.192407 143.168 
L 357.202599 143.168 
L 359.11642 143.168 
L 363.91293 120.768 
L 365.869122 87.168 
L 368.034063 84.928 
L 370.176023 69.248 
L 372.093369 67.008 
L 375.117059 60.288 
L 378.095239 55.808 
L 379.910228 53.568 
L 381.576707 53.568 
L 383.235914 53.568 
L 385.057616 53.568 
L 386.91563 53.568 
L 388.725072 53.568 
L 390.476142 53.568 
L 392.251719 53.568 
L 393.903924 53.568 
L 395.561943 53.568 
L 397.014546 53.568 
L 398.487273 53.568 
" style="fill:none;stroke:#ff0000;stroke-linecap:square;stroke-width:1.5;"/>
    <defs>
     <path d="M 0 3 
C 0.795609 3 1.55874 2.683901 2.12132 2.12132 
C 2.683901 1.55874 3 0.795609 3 0 
C 3 -0.795609 2.683901 -1.55874 2.12132 -2.12132 
C 1.55874 -2.683901 0.795609 -3 0 -3 
C -0.795609 -3 -1.55874 -2.683901 -2.12132 -2.12132 
C -2.683901 -1.55874 -3 -0.795609 -3 0 
C -3 0.795609 -2.683901 1.55874 -2.12132 2.12132 
C -1.55874 2.683901 -0.795609 3 0 3 
z
" id="m77b5efa92b" style="stroke:#ff0000;"/>
    </defs>
    <g clip-path="url(#pa780aa4bc0)">
     <use style="fill:#ff0000;stroke:#ff0000;" x="73.832727" xlink:href="#m77b5efa92b" y="295.488"/>
     <use style="fill:#ff0000;stroke:#ff0000;" x="116.312648" xlink:href="#m77b5efa92b" y="261.888"/>
     <use style="fill:#ff0000;stroke:#ff0000;" x="125.867674" xlink:href="#m77b5efa92b" y="248.448"/>
     <use style="fill:#ff0000;stroke:#ff0000;" x="195.740238" xlink:href="#m77b5efa92b" y="223.808"/>
     <use style="fill:#ff0000;stroke:#ff0000;" x="215.755083" xlink:href="#m77b5efa92b" y="219.328"/>
     <use style="fill:#ff0000;stroke:#ff0000;" x="230.679816" xlink:href="#m77b5efa92b" y="217.088"/>
     <use style="fill:#ff0000;stroke:#ff0000;" x="234.382262" xlink:href="#m77b5efa92b" y="214.848"/>
     <use style="fill:#ff0000;stroke:#ff0000;" x="238.34415" xlink:href="#m77b5efa92b" y="210.368"/>
     <use style="fill:#ff0000;stroke:#ff0000;" x="241.699824" xlink:href="#m77b5efa92b" y="205.888"/>
     <use style="fill:#ff0000;stroke:#ff0000;" x="247.096778" xlink:href="#m77b5efa92b" y="203.648"/>
     <use style="fill:#ff0000;stroke:#ff0000;" x="250.257366" xlink:href="#m77b5efa92b" y="190.208"/>
     <use style="fill:#ff0000;stroke:#ff0000;" x="254.155837" xlink:href="#m77b5efa92b" y="190.208"/>
     <use style="fill:#ff0000;stroke:#ff0000;" x="257.199328" xlink:href="#m77b5efa92b" y="190.208"/>
     <use style="fill:#ff0000;stroke:#ff0000;" x="260.439248" xlink:href="#m77b5efa92b" y="190.208"/>
     <use style="fill:#ff0000;stroke:#ff0000;" x="263.966191" xlink:href="#m77b5efa92b" y="190.208"/>
     <use style="fill:#ff0000;stroke:#ff0000;" x="266.520836" xlink:href="#m77b5efa92b" y="190.208"/>
     <use style="fill:#ff0000;stroke:#ff0000;" x="273.420072" xlink:href="#m77b5efa92b" y="187.968"/>
     <use style="fill:#ff0000;stroke:#ff0000;" x="276.204215" xlink:href="#m77b5efa92b" y="176.768"/>
     <use style="fill:#ff0000;stroke:#ff0000;" x="278.922687" xlink:href="#m77b5efa92b" y="176.768"/>
     <use style="fill:#ff0000;stroke:#ff0000;" x="281.554893" xlink:href="#m77b5efa92b" y="176.768"/>
     <use style="fill:#ff0000;stroke:#ff0000;" x="284.2297" xlink:href="#m77b5efa92b" y="176.768"/>
     <use style="fill:#ff0000;stroke:#ff0000;" x="286.504504" xlink:href="#m77b5efa92b" y="176.768"/>
     <use style="fill:#ff0000;stroke:#ff0000;" x="288.699009" xlink:href="#m77b5efa92b" y="176.768"/>
     <use style="fill:#ff0000;stroke:#ff0000;" x="291.530141" xlink:href="#m77b5efa92b" y="176.768"/>
     <use style="fill:#ff0000;stroke:#ff0000;" x="293.878966" xlink:href="#m77b5efa92b" y="176.768"/>
     <use style="fill:#ff0000;stroke:#ff0000;" x="296.095573" xlink:href="#m77b5efa92b" y="176.768"/>
     <use style="fill:#ff0000;stroke:#ff0000;" x="298.582128" xlink:href="#m77b5efa92b" y="176.768"/>
     <use style="fill:#ff0000;stroke:#ff0000;" x="300.672092" xlink:href="#m77b5efa92b" y="176.768"/>
     <use style="fill:#ff0000;stroke:#ff0000;" x="302.518199" xlink:href="#m77b5efa92b" y="176.768"/>
     <use style="fill:#ff0000;stroke:#ff0000;" x="304.86527" xlink:href="#m77b5efa92b" y="176.768"/>
     <use style="fill:#ff0000;stroke:#ff0000;" x="307.384525" xlink:href="#m77b5efa92b" y="176.768"/>
     <use style="fill:#ff0000;stroke:#ff0000;" x="309.776088" xlink:href="#m77b5efa92b" y="174.528"/>
     <use style="fill:#ff0000;stroke:#ff0000;" x="312.369875" xlink:href="#m77b5efa92b" y="174.528"/>
     <use style="fill:#ff0000;stroke:#ff0000;" x="316.907063" xlink:href="#m77b5efa92b" y="161.088"/>
     <use style="fill:#ff0000;stroke:#ff0000;" x="322.869015" xlink:href="#m77b5efa92b" y="152.128"/>
     <use style="fill:#ff0000;stroke:#ff0000;" x="330.645366" xlink:href="#m77b5efa92b" y="149.888"/>
     <use style="fill:#ff0000;stroke:#ff0000;" x="332.866004" xlink:href="#m77b5efa92b" y="147.648"/>
     <use style="fill:#ff0000;stroke:#ff0000;" x="334.895346" xlink:href="#m77b5efa92b" y="147.648"/>
     <use style="fill:#ff0000;stroke:#ff0000;" x="337.041065" xlink:href="#m77b5efa92b" y="147.648"/>
     <use style="fill:#ff0000;stroke:#ff0000;" x="340.35735" xlink:href="#m77b5efa92b" y="147.648"/>
     <use style="fill:#ff0000;stroke:#ff0000;" x="342.557044" xlink:href="#m77b5efa92b" y="145.408"/>
     <use style="fill:#ff0000;stroke:#ff0000;" x="344.40767" xlink:href="#m77b5efa92b" y="145.408"/>
     <use style="fill:#ff0000;stroke:#ff0000;" x="351.284559" xlink:href="#m77b5efa92b" y="145.408"/>
     <use style="fill:#ff0000;stroke:#ff0000;" x="355.192407" xlink:href="#m77b5efa92b" y="143.168"/>
     <use style="fill:#ff0000;stroke:#ff0000;" x="357.202599" xlink:href="#m77b5efa92b" y="143.168"/>
     <use style="fill:#ff0000;stroke:#ff0000;" x="359.11642" xlink:href="#m77b5efa92b" y="143.168"/>
     <use style="fill:#ff0000;stroke:#ff0000;" x="363.91293" xlink:href="#m77b5efa92b" y="120.768"/>
     <use style="fill:#ff0000;stroke:#ff0000;" x="365.869122" xlink:href="#m77b5efa92b" y="87.168"/>
     <use style="fill:#ff0000;stroke:#ff0000;" x="368.034063" xlink:href="#m77b5efa92b" y="84.928"/>
     <use style="fill:#ff0000;stroke:#ff0000;" x="370.176023" xlink:href="#m77b5efa92b" y="69.248"/>
     <use style="fill:#ff0000;stroke:#ff0000;" x="372.093369" xlink:href="#m77b5efa92b" y="67.008"/>
     <use style="fill:#ff0000;stroke:#ff0000;" x="375.117059" xlink:href="#m77b5efa92b" y="60.288"/>
     <use style="fill:#ff0000;stroke:#ff0000;" x="378.095239" xlink:href="#m77b5efa92b" y="55.808"/>
     <use style="fill:#ff0000;stroke:#ff0000;" x="379.910228" xlink:href="#m77b5efa92b" y="53.568"/>
     <use style="fill:#ff0000;stroke:#ff0000;" x="381.576707" xlink:href="#m77b5efa92b" y="53.568"/>
     <use style="fill:#ff0000;stroke:#ff0000;" x="383.235914" xlink:href="#m77b5efa92b" y="53.568"/>
     <use style="fill:#ff0000;stroke:#ff0000;" x="385.057616" xlink:href="#m77b5efa92b" y="53.568"/>
     <use style="fill:#ff0000;stroke:#ff0000;" x="386.91563" xlink:href="#m77b5efa92b" y="53.568"/>
     <use style="fill:#ff0000;stroke:#ff0000;" x="388.725072" xlink:href="#m77b5efa92b" y="53.568"/>
     <use style="fill:#ff0000;stroke:#ff0000;" x="390.476142" xlink:href="#m77b5efa92b" y="53.568"/>
     <use style="fill:#ff0000;stroke:#ff0000;" x="392.251719" xlink:href="#m77b5efa92b" y="53.568"/>
     <use style="fill:#ff0000;stroke:#ff0000;" x="393.903924" xlink:href="#m77b5efa92b" y="53.568"/>
     <use style="fill:#ff0000;stroke:#ff0000;" x="395.561943" xlink:href="#m77b5efa92b" y="53.568"/>
     <use style="fill:#ff0000;stroke:#ff0000;" x="397.014546" xlink:href="#m77b5efa92b" y="53.568"/>
     <use style="fill:#ff0000;stroke:#ff0000;" x="398.487273" xlink:href="#m77b5efa92b" y="53.568"/>
    </g>
   </g>
   <g id="patch_7">
    <path d="M 57.6 307.584 
L 57.6 41.472 
" style="fill:none;stroke:#000000;stroke-linecap:square;stroke-linejoin:miter;stroke-width:0.8;"/>
   </g>
   <g id="patch_8">
    <path d="M 414.72 307.584 
L 414.72 41.472 
" style="fill:none;stroke:#000000;stroke-linecap:square;stroke-linejoin:miter;stroke-width:0.8;"/>
   </g>
   <g id="patch_9">
    <path d="M 57.6 307.584 
L 414.72 307.584 
" style="fill:none;stroke:#000000;stroke-linecap:square;stroke-linejoin:miter;stroke-width:0.8;"/>
   </g>
   <g id="patch_10">
    <path d="M 57.6 41.472 
L 414.72 41.472 
" style="fill:none;stroke:#000000;stroke-linecap:square;stroke-linejoin:miter;stroke-width:0.8;"/>
   </g>
  </g>
 </g>
 <defs>
  <clipPath id="pa780aa4bc0">
   <rect height="266.112" width="357.12" x="57.6" y="41.472"/>
  </clipPath>
 </defs>
</svg>
