<?xml version="1.0" encoding="utf-8" standalone="no"?>
<!DOCTYPE svg PUBLIC "-//W3C//DTD SVG 1.1//EN"
  "http://www.w3.org/Graphics/SVG/1.1/DTD/svg11.dtd">
<!-- Created with matplotlib (http://matplotlib.org/) -->
<svg height="345.6pt" version="1.1" viewBox="0 0 460.8 345.6" width="460.8pt" xmlns="http://www.w3.org/2000/svg" xmlns:xlink="http://www.w3.org/1999/xlink">
 <defs>
  <style type="text/css">
*{stroke-linecap:butt;stroke-linejoin:round;}
  </style>
 </defs>
 <g id="figure_1">
  <g id="patch_1">
   <path d="M 0 345.6 
L 460.8 345.6 
L 460.8 0 
L 0 0 
z
" style="fill:#ffffff;"/>
  </g>
  <g id="axes_1">
   <g id="patch_2">
    <path d="M 57.6 307.584 
L 414.72 307.584 
L 414.72 41.472 
L 57.6 41.472 
z
" style="fill:#ffffff;"/>
   </g>
   <g id="matplotlib.axis_1">
    <g id="xtick_1">
     <g id="line2d_1">
      <defs>
       <path d="M 0 0 
L 0 3.5 
" id="m33f942828b" style="stroke:#000000;stroke-width:0.8;"/>
      </defs>
      <g>
       <use style="stroke:#000000;stroke-width:0.8;" x="164.294994" xlink:href="#m33f942828b" y="307.584"/>
      </g>
     </g>
     <g id="text_1">
      <!-- $\mathdefault{10^{3}}$ -->
      <defs>
       <path d="M 12.40625 8.296875 
L 28.515625 8.296875 
L 28.515625 63.921875 
L 10.984375 60.40625 
L 10.984375 69.390625 
L 28.421875 72.90625 
L 38.28125 72.90625 
L 38.28125 8.296875 
L 54.390625 8.296875 
L 54.390625 0 
L 12.40625 0 
z
" id="DejaVuSans-31"/>
       <path d="M 31.78125 66.40625 
Q 24.171875 66.40625 20.328125 58.90625 
Q 16.5 51.421875 16.5 36.375 
Q 16.5 21.390625 20.328125 13.890625 
Q 24.171875 6.390625 31.78125 6.390625 
Q 39.453125 6.390625 43.28125 13.890625 
Q 47.125 21.390625 47.125 36.375 
Q 47.125 51.421875 43.28125 58.90625 
Q 39.453125 66.40625 31.78125 66.40625 
z
M 31.78125 74.21875 
Q 44.046875 74.21875 50.515625 64.515625 
Q 56.984375 54.828125 56.984375 36.375 
Q 56.984375 17.96875 50.515625 8.265625 
Q 44.046875 -1.421875 31.78125 -1.421875 
Q 19.53125 -1.421875 13.0625 8.265625 
Q 6.59375 17.96875 6.59375 36.375 
Q 6.59375 54.828125 13.0625 64.515625 
Q 19.53125 74.21875 31.78125 74.21875 
z
" id="DejaVuSans-30"/>
       <path d="M 40.578125 39.3125 
Q 47.65625 37.796875 51.625 33 
Q 55.609375 28.21875 55.609375 21.1875 
Q 55.609375 10.40625 48.1875 4.484375 
Q 40.765625 -1.421875 27.09375 -1.421875 
Q 22.515625 -1.421875 17.65625 -0.515625 
Q 12.796875 0.390625 7.625 2.203125 
L 7.625 11.71875 
Q 11.71875 9.328125 16.59375 8.109375 
Q 21.484375 6.890625 26.8125 6.890625 
Q 36.078125 6.890625 40.9375 10.546875 
Q 45.796875 14.203125 45.796875 21.1875 
Q 45.796875 27.640625 41.28125 31.265625 
Q 36.765625 34.90625 28.71875 34.90625 
L 20.21875 34.90625 
L 20.21875 43.015625 
L 29.109375 43.015625 
Q 36.375 43.015625 40.234375 45.921875 
Q 44.09375 48.828125 44.09375 54.296875 
Q 44.09375 59.90625 40.109375 62.90625 
Q 36.140625 65.921875 28.71875 65.921875 
Q 24.65625 65.921875 20.015625 65.03125 
Q 15.375 64.15625 9.8125 62.3125 
L 9.8125 71.09375 
Q 15.4375 72.65625 20.34375 73.4375 
Q 25.25 74.21875 29.59375 74.21875 
Q 40.828125 74.21875 47.359375 69.109375 
Q 53.90625 64.015625 53.90625 55.328125 
Q 53.90625 49.265625 50.4375 45.09375 
Q 46.96875 40.921875 40.578125 39.3125 
z
" id="DejaVuSans-33"/>
      </defs>
      <g transform="translate(155.494994 322.182437)scale(0.1 -0.1)">
       <use transform="translate(0 0.765625)" xlink:href="#DejaVuSans-31"/>
       <use transform="translate(63.623047 0.765625)" xlink:href="#DejaVuSans-30"/>
       <use transform="translate(128.203125 39.046875)scale(0.7)" xlink:href="#DejaVuSans-33"/>
      </g>
     </g>
    </g>
    <g id="xtick_2">
     <g id="line2d_2">
      <g>
       <use style="stroke:#000000;stroke-width:0.8;" x="285.47433" xlink:href="#m33f942828b" y="307.584"/>
      </g>
     </g>
     <g id="text_2">
      <!-- $\mathdefault{10^{4}}$ -->
      <defs>
       <path d="M 37.796875 64.3125 
L 12.890625 25.390625 
L 37.796875 25.390625 
z
M 35.203125 72.90625 
L 47.609375 72.90625 
L 47.609375 25.390625 
L 58.015625 25.390625 
L 58.015625 17.1875 
L 47.609375 17.1875 
L 47.609375 0 
L 37.796875 0 
L 37.796875 17.1875 
L 4.890625 17.1875 
L 4.890625 26.703125 
z
" id="DejaVuSans-34"/>
      </defs>
      <g transform="translate(276.67433 322.182437)scale(0.1 -0.1)">
       <use transform="translate(0 0.684375)" xlink:href="#DejaVuSans-31"/>
       <use transform="translate(63.623047 0.684375)" xlink:href="#DejaVuSans-30"/>
       <use transform="translate(128.203125 38.965625)scale(0.7)" xlink:href="#DejaVuSans-34"/>
      </g>
     </g>
    </g>
    <g id="xtick_3">
     <g id="line2d_3">
      <g>
       <use style="stroke:#000000;stroke-width:0.8;" x="406.653667" xlink:href="#m33f942828b" y="307.584"/>
      </g>
     </g>
     <g id="text_3">
      <!-- $\mathdefault{10^{5}}$ -->
      <defs>
       <path d="M 10.796875 72.90625 
L 49.515625 72.90625 
L 49.515625 64.59375 
L 19.828125 64.59375 
L 19.828125 46.734375 
Q 21.96875 47.46875 24.109375 47.828125 
Q 26.265625 48.1875 28.421875 48.1875 
Q 40.625 48.1875 47.75 41.5 
Q 54.890625 34.8125 54.890625 23.390625 
Q 54.890625 11.625 47.5625 5.09375 
Q 40.234375 -1.421875 26.90625 -1.421875 
Q 22.3125 -1.421875 17.546875 -0.640625 
Q 12.796875 0.140625 7.71875 1.703125 
L 7.71875 11.625 
Q 12.109375 9.234375 16.796875 8.0625 
Q 21.484375 6.890625 26.703125 6.890625 
Q 35.15625 6.890625 40.078125 11.328125 
Q 45.015625 15.765625 45.015625 23.390625 
Q 45.015625 31 40.078125 35.4375 
Q 35.15625 39.890625 26.703125 39.890625 
Q 22.75 39.890625 18.8125 39.015625 
Q 14.890625 38.140625 10.796875 36.28125 
z
" id="DejaVuSans-35"/>
      </defs>
      <g transform="translate(397.853667 322.182437)scale(0.1 -0.1)">
       <use transform="translate(0 0.684375)" xlink:href="#DejaVuSans-31"/>
       <use transform="translate(63.623047 0.684375)" xlink:href="#DejaVuSans-30"/>
       <use transform="translate(128.203125 38.965625)scale(0.7)" xlink:href="#DejaVuSans-35"/>
      </g>
     </g>
    </g>
    <g id="xtick_4">
     <g id="line2d_4">
      <defs>
       <path d="M 0 0 
L 0 2 
" id="mc5b88ac609" style="stroke:#000000;stroke-width:0.6;"/>
      </defs>
      <g>
       <use style="stroke:#000000;stroke-width:0.6;" x="79.594272" xlink:href="#mc5b88ac609" y="307.584"/>
      </g>
     </g>
    </g>
    <g id="xtick_5">
     <g id="line2d_5">
      <g>
       <use style="stroke:#000000;stroke-width:0.6;" x="100.932894" xlink:href="#mc5b88ac609" y="307.584"/>
      </g>
     </g>
    </g>
    <g id="xtick_6">
     <g id="line2d_6">
      <g>
       <use style="stroke:#000000;stroke-width:0.6;" x="116.072887" xlink:href="#mc5b88ac609" y="307.584"/>
      </g>
     </g>
    </g>
    <g id="xtick_7">
     <g id="line2d_7">
      <g>
       <use style="stroke:#000000;stroke-width:0.6;" x="127.816378" xlink:href="#mc5b88ac609" y="307.584"/>
      </g>
     </g>
    </g>
    <g id="xtick_8">
     <g id="line2d_8">
      <g>
       <use style="stroke:#000000;stroke-width:0.6;" x="137.411509" xlink:href="#mc5b88ac609" y="307.584"/>
      </g>
     </g>
    </g>
    <g id="xtick_9">
     <g id="line2d_9">
      <g>
       <use style="stroke:#000000;stroke-width:0.6;" x="145.524077" xlink:href="#mc5b88ac609" y="307.584"/>
      </g>
     </g>
    </g>
    <g id="xtick_10">
     <g id="line2d_10">
      <g>
       <use style="stroke:#000000;stroke-width:0.6;" x="152.551503" xlink:href="#mc5b88ac609" y="307.584"/>
      </g>
     </g>
    </g>
    <g id="xtick_11">
     <g id="line2d_11">
      <g>
       <use style="stroke:#000000;stroke-width:0.6;" x="158.750131" xlink:href="#mc5b88ac609" y="307.584"/>
      </g>
     </g>
    </g>
    <g id="xtick_12">
     <g id="line2d_12">
      <g>
       <use style="stroke:#000000;stroke-width:0.6;" x="200.773609" xlink:href="#mc5b88ac609" y="307.584"/>
      </g>
     </g>
    </g>
    <g id="xtick_13">
     <g id="line2d_13">
      <g>
       <use style="stroke:#000000;stroke-width:0.6;" x="222.112231" xlink:href="#mc5b88ac609" y="307.584"/>
      </g>
     </g>
    </g>
    <g id="xtick_14">
     <g id="line2d_14">
      <g>
       <use style="stroke:#000000;stroke-width:0.6;" x="237.252224" xlink:href="#mc5b88ac609" y="307.584"/>
      </g>
     </g>
    </g>
    <g id="xtick_15">
     <g id="line2d_15">
      <g>
       <use style="stroke:#000000;stroke-width:0.6;" x="248.995715" xlink:href="#mc5b88ac609" y="307.584"/>
      </g>
     </g>
    </g>
    <g id="xtick_16">
     <g id="line2d_16">
      <g>
       <use style="stroke:#000000;stroke-width:0.6;" x="258.590846" xlink:href="#mc5b88ac609" y="307.584"/>
      </g>
     </g>
    </g>
    <g id="xtick_17">
     <g id="line2d_17">
      <g>
       <use style="stroke:#000000;stroke-width:0.6;" x="266.703413" xlink:href="#mc5b88ac609" y="307.584"/>
      </g>
     </g>
    </g>
    <g id="xtick_18">
     <g id="line2d_18">
      <g>
       <use style="stroke:#000000;stroke-width:0.6;" x="273.730839" xlink:href="#mc5b88ac609" y="307.584"/>
      </g>
     </g>
    </g>
    <g id="xtick_19">
     <g id="line2d_19">
      <g>
       <use style="stroke:#000000;stroke-width:0.6;" x="279.929468" xlink:href="#mc5b88ac609" y="307.584"/>
      </g>
     </g>
    </g>
    <g id="xtick_20">
     <g id="line2d_20">
      <g>
       <use style="stroke:#000000;stroke-width:0.6;" x="321.952945" xlink:href="#mc5b88ac609" y="307.584"/>
      </g>
     </g>
    </g>
    <g id="xtick_21">
     <g id="line2d_21">
      <g>
       <use style="stroke:#000000;stroke-width:0.6;" x="343.291567" xlink:href="#mc5b88ac609" y="307.584"/>
      </g>
     </g>
    </g>
    <g id="xtick_22">
     <g id="line2d_22">
      <g>
       <use style="stroke:#000000;stroke-width:0.6;" x="358.43156" xlink:href="#mc5b88ac609" y="307.584"/>
      </g>
     </g>
    </g>
    <g id="xtick_23">
     <g id="line2d_23">
      <g>
       <use style="stroke:#000000;stroke-width:0.6;" x="370.175052" xlink:href="#mc5b88ac609" y="307.584"/>
      </g>
     </g>
    </g>
    <g id="xtick_24">
     <g id="line2d_24">
      <g>
       <use style="stroke:#000000;stroke-width:0.6;" x="379.770182" xlink:href="#mc5b88ac609" y="307.584"/>
      </g>
     </g>
    </g>
    <g id="xtick_25">
     <g id="line2d_25">
      <g>
       <use style="stroke:#000000;stroke-width:0.6;" x="387.88275" xlink:href="#mc5b88ac609" y="307.584"/>
      </g>
     </g>
    </g>
    <g id="xtick_26">
     <g id="line2d_26">
      <g>
       <use style="stroke:#000000;stroke-width:0.6;" x="394.910176" xlink:href="#mc5b88ac609" y="307.584"/>
      </g>
     </g>
    </g>
    <g id="xtick_27">
     <g id="line2d_27">
      <g>
       <use style="stroke:#000000;stroke-width:0.6;" x="401.108804" xlink:href="#mc5b88ac609" y="307.584"/>
      </g>
     </g>
    </g>
    <g id="text_4">
     <!-- Execution time (s) -->
     <defs>
      <path d="M 9.8125 72.90625 
L 55.90625 72.90625 
L 55.90625 64.59375 
L 19.671875 64.59375 
L 19.671875 43.015625 
L 54.390625 43.015625 
L 54.390625 34.71875 
L 19.671875 34.71875 
L 19.671875 8.296875 
L 56.78125 8.296875 
L 56.78125 0 
L 9.8125 0 
z
" id="DejaVuSans-45"/>
      <path d="M 54.890625 54.6875 
L 35.109375 28.078125 
L 55.90625 0 
L 45.3125 0 
L 29.390625 21.484375 
L 13.484375 0 
L 2.875 0 
L 24.125 28.609375 
L 4.6875 54.6875 
L 15.28125 54.6875 
L 29.78125 35.203125 
L 44.28125 54.6875 
z
" id="DejaVuSans-78"/>
      <path d="M 56.203125 29.59375 
L 56.203125 25.203125 
L 14.890625 25.203125 
Q 15.484375 15.921875 20.484375 11.0625 
Q 25.484375 6.203125 34.421875 6.203125 
Q 39.59375 6.203125 44.453125 7.46875 
Q 49.3125 8.734375 54.109375 11.28125 
L 54.109375 2.78125 
Q 49.265625 0.734375 44.1875 -0.34375 
Q 39.109375 -1.421875 33.890625 -1.421875 
Q 20.796875 -1.421875 13.15625 6.1875 
Q 5.515625 13.8125 5.515625 26.8125 
Q 5.515625 40.234375 12.765625 48.109375 
Q 20.015625 56 32.328125 56 
Q 43.359375 56 49.78125 48.890625 
Q 56.203125 41.796875 56.203125 29.59375 
z
M 47.21875 32.234375 
Q 47.125 39.59375 43.09375 43.984375 
Q 39.0625 48.390625 32.421875 48.390625 
Q 24.90625 48.390625 20.390625 44.140625 
Q 15.875 39.890625 15.1875 32.171875 
z
" id="DejaVuSans-65"/>
      <path d="M 48.78125 52.59375 
L 48.78125 44.1875 
Q 44.96875 46.296875 41.140625 47.34375 
Q 37.3125 48.390625 33.40625 48.390625 
Q 24.65625 48.390625 19.8125 42.84375 
Q 14.984375 37.3125 14.984375 27.296875 
Q 14.984375 17.28125 19.8125 11.734375 
Q 24.65625 6.203125 33.40625 6.203125 
Q 37.3125 6.203125 41.140625 7.25 
Q 44.96875 8.296875 48.78125 10.40625 
L 48.78125 2.09375 
Q 45.015625 0.34375 40.984375 -0.53125 
Q 36.96875 -1.421875 32.421875 -1.421875 
Q 20.0625 -1.421875 12.78125 6.34375 
Q 5.515625 14.109375 5.515625 27.296875 
Q 5.515625 40.671875 12.859375 48.328125 
Q 20.21875 56 33.015625 56 
Q 37.15625 56 41.109375 55.140625 
Q 45.0625 54.296875 48.78125 52.59375 
z
" id="DejaVuSans-63"/>
      <path d="M 8.5 21.578125 
L 8.5 54.6875 
L 17.484375 54.6875 
L 17.484375 21.921875 
Q 17.484375 14.15625 20.5 10.265625 
Q 23.53125 6.390625 29.59375 6.390625 
Q 36.859375 6.390625 41.078125 11.03125 
Q 45.3125 15.671875 45.3125 23.6875 
L 45.3125 54.6875 
L 54.296875 54.6875 
L 54.296875 0 
L 45.3125 0 
L 45.3125 8.40625 
Q 42.046875 3.421875 37.71875 1 
Q 33.40625 -1.421875 27.6875 -1.421875 
Q 18.265625 -1.421875 13.375 4.4375 
Q 8.5 10.296875 8.5 21.578125 
z
M 31.109375 56 
z
" id="DejaVuSans-75"/>
      <path d="M 18.3125 70.21875 
L 18.3125 54.6875 
L 36.8125 54.6875 
L 36.8125 47.703125 
L 18.3125 47.703125 
L 18.3125 18.015625 
Q 18.3125 11.328125 20.140625 9.421875 
Q 21.96875 7.515625 27.59375 7.515625 
L 36.8125 7.515625 
L 36.8125 0 
L 27.59375 0 
Q 17.1875 0 13.234375 3.875 
Q 9.28125 7.765625 9.28125 18.015625 
L 9.28125 47.703125 
L 2.6875 47.703125 
L 2.6875 54.6875 
L 9.28125 54.6875 
L 9.28125 70.21875 
z
" id="DejaVuSans-74"/>
      <path d="M 9.421875 54.6875 
L 18.40625 54.6875 
L 18.40625 0 
L 9.421875 0 
z
M 9.421875 75.984375 
L 18.40625 75.984375 
L 18.40625 64.59375 
L 9.421875 64.59375 
z
" id="DejaVuSans-69"/>
      <path d="M 30.609375 48.390625 
Q 23.390625 48.390625 19.1875 42.75 
Q 14.984375 37.109375 14.984375 27.296875 
Q 14.984375 17.484375 19.15625 11.84375 
Q 23.34375 6.203125 30.609375 6.203125 
Q 37.796875 6.203125 41.984375 11.859375 
Q 46.1875 17.53125 46.1875 27.296875 
Q 46.1875 37.015625 41.984375 42.703125 
Q 37.796875 48.390625 30.609375 48.390625 
z
M 30.609375 56 
Q 42.328125 56 49.015625 48.375 
Q 55.71875 40.765625 55.71875 27.296875 
Q 55.71875 13.875 49.015625 6.21875 
Q 42.328125 -1.421875 30.609375 -1.421875 
Q 18.84375 -1.421875 12.171875 6.21875 
Q 5.515625 13.875 5.515625 27.296875 
Q 5.515625 40.765625 12.171875 48.375 
Q 18.84375 56 30.609375 56 
z
" id="DejaVuSans-6f"/>
      <path d="M 54.890625 33.015625 
L 54.890625 0 
L 45.90625 0 
L 45.90625 32.71875 
Q 45.90625 40.484375 42.875 44.328125 
Q 39.84375 48.1875 33.796875 48.1875 
Q 26.515625 48.1875 22.3125 43.546875 
Q 18.109375 38.921875 18.109375 30.90625 
L 18.109375 0 
L 9.078125 0 
L 9.078125 54.6875 
L 18.109375 54.6875 
L 18.109375 46.1875 
Q 21.34375 51.125 25.703125 53.5625 
Q 30.078125 56 35.796875 56 
Q 45.21875 56 50.046875 50.171875 
Q 54.890625 44.34375 54.890625 33.015625 
z
" id="DejaVuSans-6e"/>
      <path id="DejaVuSans-20"/>
      <path d="M 52 44.1875 
Q 55.375 50.25 60.0625 53.125 
Q 64.75 56 71.09375 56 
Q 79.640625 56 84.28125 50.015625 
Q 88.921875 44.046875 88.921875 33.015625 
L 88.921875 0 
L 79.890625 0 
L 79.890625 32.71875 
Q 79.890625 40.578125 77.09375 44.375 
Q 74.3125 48.1875 68.609375 48.1875 
Q 61.625 48.1875 57.5625 43.546875 
Q 53.515625 38.921875 53.515625 30.90625 
L 53.515625 0 
L 44.484375 0 
L 44.484375 32.71875 
Q 44.484375 40.625 41.703125 44.40625 
Q 38.921875 48.1875 33.109375 48.1875 
Q 26.21875 48.1875 22.15625 43.53125 
Q 18.109375 38.875 18.109375 30.90625 
L 18.109375 0 
L 9.078125 0 
L 9.078125 54.6875 
L 18.109375 54.6875 
L 18.109375 46.1875 
Q 21.1875 51.21875 25.484375 53.609375 
Q 29.78125 56 35.6875 56 
Q 41.65625 56 45.828125 52.96875 
Q 50 49.953125 52 44.1875 
z
" id="DejaVuSans-6d"/>
      <path d="M 31 75.875 
Q 24.46875 64.65625 21.28125 53.65625 
Q 18.109375 42.671875 18.109375 31.390625 
Q 18.109375 20.125 21.3125 9.0625 
Q 24.515625 -2 31 -13.1875 
L 23.1875 -13.1875 
Q 15.875 -1.703125 12.234375 9.375 
Q 8.59375 20.453125 8.59375 31.390625 
Q 8.59375 42.28125 12.203125 53.3125 
Q 15.828125 64.359375 23.1875 75.875 
z
" id="DejaVuSans-28"/>
      <path d="M 44.28125 53.078125 
L 44.28125 44.578125 
Q 40.484375 46.53125 36.375 47.5 
Q 32.28125 48.484375 27.875 48.484375 
Q 21.1875 48.484375 17.84375 46.4375 
Q 14.5 44.390625 14.5 40.28125 
Q 14.5 37.15625 16.890625 35.375 
Q 19.28125 33.59375 26.515625 31.984375 
L 29.59375 31.296875 
Q 39.15625 29.25 43.1875 25.515625 
Q 47.21875 21.78125 47.21875 15.09375 
Q 47.21875 7.46875 41.1875 3.015625 
Q 35.15625 -1.421875 24.609375 -1.421875 
Q 20.21875 -1.421875 15.453125 -0.5625 
Q 10.6875 0.296875 5.421875 2 
L 5.421875 11.28125 
Q 10.40625 8.6875 15.234375 7.390625 
Q 20.0625 6.109375 24.8125 6.109375 
Q 31.15625 6.109375 34.5625 8.28125 
Q 37.984375 10.453125 37.984375 14.40625 
Q 37.984375 18.0625 35.515625 20.015625 
Q 33.0625 21.96875 24.703125 23.78125 
L 21.578125 24.515625 
Q 13.234375 26.265625 9.515625 29.90625 
Q 5.8125 33.546875 5.8125 39.890625 
Q 5.8125 47.609375 11.28125 51.796875 
Q 16.75 56 26.8125 56 
Q 31.78125 56 36.171875 55.265625 
Q 40.578125 54.546875 44.28125 53.078125 
z
" id="DejaVuSans-73"/>
      <path d="M 8.015625 75.875 
L 15.828125 75.875 
Q 23.140625 64.359375 26.78125 53.3125 
Q 30.421875 42.28125 30.421875 31.390625 
Q 30.421875 20.453125 26.78125 9.375 
Q 23.140625 -1.703125 15.828125 -13.1875 
L 8.015625 -13.1875 
Q 14.5 -2 17.703125 9.0625 
Q 20.90625 20.125 20.90625 31.390625 
Q 20.90625 42.671875 17.703125 53.65625 
Q 14.5 64.65625 8.015625 75.875 
z
" id="DejaVuSans-29"/>
     </defs>
     <g transform="translate(190.49125 335.860562)scale(0.1 -0.1)">
      <use xlink:href="#DejaVuSans-45"/>
      <use x="63.183594" xlink:href="#DejaVuSans-78"/>
      <use x="122.316406" xlink:href="#DejaVuSans-65"/>
      <use x="183.839844" xlink:href="#DejaVuSans-63"/>
      <use x="238.820312" xlink:href="#DejaVuSans-75"/>
      <use x="302.199219" xlink:href="#DejaVuSans-74"/>
      <use x="341.408203" xlink:href="#DejaVuSans-69"/>
      <use x="369.191406" xlink:href="#DejaVuSans-6f"/>
      <use x="430.373047" xlink:href="#DejaVuSans-6e"/>
      <use x="493.751953" xlink:href="#DejaVuSans-20"/>
      <use x="525.539062" xlink:href="#DejaVuSans-74"/>
      <use x="564.748047" xlink:href="#DejaVuSans-69"/>
      <use x="592.53125" xlink:href="#DejaVuSans-6d"/>
      <use x="689.943359" xlink:href="#DejaVuSans-65"/>
      <use x="751.466797" xlink:href="#DejaVuSans-20"/>
      <use x="783.253906" xlink:href="#DejaVuSans-28"/>
      <use x="822.267578" xlink:href="#DejaVuSans-73"/>
      <use x="874.367188" xlink:href="#DejaVuSans-29"/>
     </g>
    </g>
   </g>
   <g id="matplotlib.axis_2">
    <g id="ytick_1">
     <g id="line2d_28">
      <defs>
       <path d="M 0 0 
L -3.5 0 
" id="m0ff81671e6" style="stroke:#000000;stroke-width:0.8;"/>
      </defs>
      <g>
       <use style="stroke:#000000;stroke-width:0.8;" x="57.6" xlink:href="#m0ff81671e6" y="295.488"/>
      </g>
     </g>
     <g id="text_5">
      <!-- 840 -->
      <defs>
       <path d="M 31.78125 34.625 
Q 24.75 34.625 20.71875 30.859375 
Q 16.703125 27.09375 16.703125 20.515625 
Q 16.703125 13.921875 20.71875 10.15625 
Q 24.75 6.390625 31.78125 6.390625 
Q 38.8125 6.390625 42.859375 10.171875 
Q 46.921875 13.96875 46.921875 20.515625 
Q 46.921875 27.09375 42.890625 30.859375 
Q 38.875 34.625 31.78125 34.625 
z
M 21.921875 38.8125 
Q 15.578125 40.375 12.03125 44.71875 
Q 8.5 49.078125 8.5 55.328125 
Q 8.5 64.0625 14.71875 69.140625 
Q 20.953125 74.21875 31.78125 74.21875 
Q 42.671875 74.21875 48.875 69.140625 
Q 55.078125 64.0625 55.078125 55.328125 
Q 55.078125 49.078125 51.53125 44.71875 
Q 48 40.375 41.703125 38.8125 
Q 48.828125 37.15625 52.796875 32.3125 
Q 56.78125 27.484375 56.78125 20.515625 
Q 56.78125 9.90625 50.3125 4.234375 
Q 43.84375 -1.421875 31.78125 -1.421875 
Q 19.734375 -1.421875 13.25 4.234375 
Q 6.78125 9.90625 6.78125 20.515625 
Q 6.78125 27.484375 10.78125 32.3125 
Q 14.796875 37.15625 21.921875 38.8125 
z
M 18.3125 54.390625 
Q 18.3125 48.734375 21.84375 45.5625 
Q 25.390625 42.390625 31.78125 42.390625 
Q 38.140625 42.390625 41.71875 45.5625 
Q 45.3125 48.734375 45.3125 54.390625 
Q 45.3125 60.0625 41.71875 63.234375 
Q 38.140625 66.40625 31.78125 66.40625 
Q 25.390625 66.40625 21.84375 63.234375 
Q 18.3125 60.0625 18.3125 54.390625 
z
" id="DejaVuSans-38"/>
      </defs>
      <g transform="translate(31.5125 299.287219)scale(0.1 -0.1)">
       <use xlink:href="#DejaVuSans-38"/>
       <use x="63.623047" xlink:href="#DejaVuSans-34"/>
       <use x="127.246094" xlink:href="#DejaVuSans-30"/>
      </g>
     </g>
    </g>
    <g id="ytick_2">
     <g id="line2d_29">
      <g>
       <use style="stroke:#000000;stroke-width:0.8;" x="57.6" xlink:href="#m0ff81671e6" y="255.168"/>
      </g>
     </g>
     <g id="text_6">
      <!-- 841 -->
      <g transform="translate(31.5125 258.967219)scale(0.1 -0.1)">
       <use xlink:href="#DejaVuSans-38"/>
       <use x="63.623047" xlink:href="#DejaVuSans-34"/>
       <use x="127.246094" xlink:href="#DejaVuSans-31"/>
      </g>
     </g>
    </g>
    <g id="ytick_3">
     <g id="line2d_30">
      <g>
       <use style="stroke:#000000;stroke-width:0.8;" x="57.6" xlink:href="#m0ff81671e6" y="214.848"/>
      </g>
     </g>
     <g id="text_7">
      <!-- 842 -->
      <defs>
       <path d="M 19.1875 8.296875 
L 53.609375 8.296875 
L 53.609375 0 
L 7.328125 0 
L 7.328125 8.296875 
Q 12.9375 14.109375 22.625 23.890625 
Q 32.328125 33.6875 34.8125 36.53125 
Q 39.546875 41.84375 41.421875 45.53125 
Q 43.3125 49.21875 43.3125 52.78125 
Q 43.3125 58.59375 39.234375 62.25 
Q 35.15625 65.921875 28.609375 65.921875 
Q 23.96875 65.921875 18.8125 64.3125 
Q 13.671875 62.703125 7.8125 59.421875 
L 7.8125 69.390625 
Q 13.765625 71.78125 18.9375 73 
Q 24.125 74.21875 28.421875 74.21875 
Q 39.75 74.21875 46.484375 68.546875 
Q 53.21875 62.890625 53.21875 53.421875 
Q 53.21875 48.921875 51.53125 44.890625 
Q 49.859375 40.875 45.40625 35.40625 
Q 44.1875 33.984375 37.640625 27.21875 
Q 31.109375 20.453125 19.1875 8.296875 
z
" id="DejaVuSans-32"/>
      </defs>
      <g transform="translate(31.5125 218.647219)scale(0.1 -0.1)">
       <use xlink:href="#DejaVuSans-38"/>
       <use x="63.623047" xlink:href="#DejaVuSans-34"/>
       <use x="127.246094" xlink:href="#DejaVuSans-32"/>
      </g>
     </g>
    </g>
    <g id="ytick_4">
     <g id="line2d_31">
      <g>
       <use style="stroke:#000000;stroke-width:0.8;" x="57.6" xlink:href="#m0ff81671e6" y="174.528"/>
      </g>
     </g>
     <g id="text_8">
      <!-- 843 -->
      <g transform="translate(31.5125 178.327219)scale(0.1 -0.1)">
       <use xlink:href="#DejaVuSans-38"/>
       <use x="63.623047" xlink:href="#DejaVuSans-34"/>
       <use x="127.246094" xlink:href="#DejaVuSans-33"/>
      </g>
     </g>
    </g>
    <g id="ytick_5">
     <g id="line2d_32">
      <g>
       <use style="stroke:#000000;stroke-width:0.8;" x="57.6" xlink:href="#m0ff81671e6" y="134.208"/>
      </g>
     </g>
     <g id="text_9">
      <!-- 844 -->
      <g transform="translate(31.5125 138.007219)scale(0.1 -0.1)">
       <use xlink:href="#DejaVuSans-38"/>
       <use x="63.623047" xlink:href="#DejaVuSans-34"/>
       <use x="127.246094" xlink:href="#DejaVuSans-34"/>
      </g>
     </g>
    </g>
    <g id="ytick_6">
     <g id="line2d_33">
      <g>
       <use style="stroke:#000000;stroke-width:0.8;" x="57.6" xlink:href="#m0ff81671e6" y="93.888"/>
      </g>
     </g>
     <g id="text_10">
      <!-- 845 -->
      <g transform="translate(31.5125 97.687219)scale(0.1 -0.1)">
       <use xlink:href="#DejaVuSans-38"/>
       <use x="63.623047" xlink:href="#DejaVuSans-34"/>
       <use x="127.246094" xlink:href="#DejaVuSans-35"/>
      </g>
     </g>
    </g>
    <g id="ytick_7">
     <g id="line2d_34">
      <g>
       <use style="stroke:#000000;stroke-width:0.8;" x="57.6" xlink:href="#m0ff81671e6" y="53.568"/>
      </g>
     </g>
     <g id="text_11">
      <!-- 846 -->
      <defs>
       <path d="M 33.015625 40.375 
Q 26.375 40.375 22.484375 35.828125 
Q 18.609375 31.296875 18.609375 23.390625 
Q 18.609375 15.53125 22.484375 10.953125 
Q 26.375 6.390625 33.015625 6.390625 
Q 39.65625 6.390625 43.53125 10.953125 
Q 47.40625 15.53125 47.40625 23.390625 
Q 47.40625 31.296875 43.53125 35.828125 
Q 39.65625 40.375 33.015625 40.375 
z
M 52.59375 71.296875 
L 52.59375 62.3125 
Q 48.875 64.0625 45.09375 64.984375 
Q 41.3125 65.921875 37.59375 65.921875 
Q 27.828125 65.921875 22.671875 59.328125 
Q 17.53125 52.734375 16.796875 39.40625 
Q 19.671875 43.65625 24.015625 45.921875 
Q 28.375 48.1875 33.59375 48.1875 
Q 44.578125 48.1875 50.953125 41.515625 
Q 57.328125 34.859375 57.328125 23.390625 
Q 57.328125 12.15625 50.6875 5.359375 
Q 44.046875 -1.421875 33.015625 -1.421875 
Q 20.359375 -1.421875 13.671875 8.265625 
Q 6.984375 17.96875 6.984375 36.375 
Q 6.984375 53.65625 15.1875 63.9375 
Q 23.390625 74.21875 37.203125 74.21875 
Q 40.921875 74.21875 44.703125 73.484375 
Q 48.484375 72.75 52.59375 71.296875 
z
" id="DejaVuSans-36"/>
      </defs>
      <g transform="translate(31.5125 57.367219)scale(0.1 -0.1)">
       <use xlink:href="#DejaVuSans-38"/>
       <use x="63.623047" xlink:href="#DejaVuSans-34"/>
       <use x="127.246094" xlink:href="#DejaVuSans-36"/>
      </g>
     </g>
    </g>
    <g id="text_12">
     <!-- Number of core species -->
     <defs>
      <path d="M 9.8125 72.90625 
L 23.09375 72.90625 
L 55.421875 11.921875 
L 55.421875 72.90625 
L 64.984375 72.90625 
L 64.984375 0 
L 51.703125 0 
L 19.390625 60.984375 
L 19.390625 0 
L 9.8125 0 
z
" id="DejaVuSans-4e"/>
      <path d="M 48.6875 27.296875 
Q 48.6875 37.203125 44.609375 42.84375 
Q 40.53125 48.484375 33.40625 48.484375 
Q 26.265625 48.484375 22.1875 42.84375 
Q 18.109375 37.203125 18.109375 27.296875 
Q 18.109375 17.390625 22.1875 11.75 
Q 26.265625 6.109375 33.40625 6.109375 
Q 40.53125 6.109375 44.609375 11.75 
Q 48.6875 17.390625 48.6875 27.296875 
z
M 18.109375 46.390625 
Q 20.953125 51.265625 25.265625 53.625 
Q 29.59375 56 35.59375 56 
Q 45.5625 56 51.78125 48.09375 
Q 58.015625 40.1875 58.015625 27.296875 
Q 58.015625 14.40625 51.78125 6.484375 
Q 45.5625 -1.421875 35.59375 -1.421875 
Q 29.59375 -1.421875 25.265625 0.953125 
Q 20.953125 3.328125 18.109375 8.203125 
L 18.109375 0 
L 9.078125 0 
L 9.078125 75.984375 
L 18.109375 75.984375 
z
" id="DejaVuSans-62"/>
      <path d="M 41.109375 46.296875 
Q 39.59375 47.171875 37.8125 47.578125 
Q 36.03125 48 33.890625 48 
Q 26.265625 48 22.1875 43.046875 
Q 18.109375 38.09375 18.109375 28.8125 
L 18.109375 0 
L 9.078125 0 
L 9.078125 54.6875 
L 18.109375 54.6875 
L 18.109375 46.1875 
Q 20.953125 51.171875 25.484375 53.578125 
Q 30.03125 56 36.53125 56 
Q 37.453125 56 38.578125 55.875 
Q 39.703125 55.765625 41.0625 55.515625 
z
" id="DejaVuSans-72"/>
      <path d="M 37.109375 75.984375 
L 37.109375 68.5 
L 28.515625 68.5 
Q 23.6875 68.5 21.796875 66.546875 
Q 19.921875 64.59375 19.921875 59.515625 
L 19.921875 54.6875 
L 34.71875 54.6875 
L 34.71875 47.703125 
L 19.921875 47.703125 
L 19.921875 0 
L 10.890625 0 
L 10.890625 47.703125 
L 2.296875 47.703125 
L 2.296875 54.6875 
L 10.890625 54.6875 
L 10.890625 58.5 
Q 10.890625 67.625 15.140625 71.796875 
Q 19.390625 75.984375 28.609375 75.984375 
z
" id="DejaVuSans-66"/>
      <path d="M 18.109375 8.203125 
L 18.109375 -20.796875 
L 9.078125 -20.796875 
L 9.078125 54.6875 
L 18.109375 54.6875 
L 18.109375 46.390625 
Q 20.953125 51.265625 25.265625 53.625 
Q 29.59375 56 35.59375 56 
Q 45.5625 56 51.78125 48.09375 
Q 58.015625 40.1875 58.015625 27.296875 
Q 58.015625 14.40625 51.78125 6.484375 
Q 45.5625 -1.421875 35.59375 -1.421875 
Q 29.59375 -1.421875 25.265625 0.953125 
Q 20.953125 3.328125 18.109375 8.203125 
z
M 48.6875 27.296875 
Q 48.6875 37.203125 44.609375 42.84375 
Q 40.53125 48.484375 33.40625 48.484375 
Q 26.265625 48.484375 22.1875 42.84375 
Q 18.109375 37.203125 18.109375 27.296875 
Q 18.109375 17.390625 22.1875 11.75 
Q 26.265625 6.109375 33.40625 6.109375 
Q 40.53125 6.109375 44.609375 11.75 
Q 48.6875 17.390625 48.6875 27.296875 
z
" id="DejaVuSans-70"/>
     </defs>
     <g transform="translate(25.432812 233.814719)rotate(-90)scale(0.1 -0.1)">
      <use xlink:href="#DejaVuSans-4e"/>
      <use x="74.804688" xlink:href="#DejaVuSans-75"/>
      <use x="138.183594" xlink:href="#DejaVuSans-6d"/>
      <use x="235.595703" xlink:href="#DejaVuSans-62"/>
      <use x="299.072266" xlink:href="#DejaVuSans-65"/>
      <use x="360.595703" xlink:href="#DejaVuSans-72"/>
      <use x="401.708984" xlink:href="#DejaVuSans-20"/>
      <use x="433.496094" xlink:href="#DejaVuSans-6f"/>
      <use x="494.677734" xlink:href="#DejaVuSans-66"/>
      <use x="529.882812" xlink:href="#DejaVuSans-20"/>
      <use x="561.669922" xlink:href="#DejaVuSans-63"/>
      <use x="616.650391" xlink:href="#DejaVuSans-6f"/>
      <use x="677.832031" xlink:href="#DejaVuSans-72"/>
      <use x="718.914062" xlink:href="#DejaVuSans-65"/>
      <use x="780.4375" xlink:href="#DejaVuSans-20"/>
      <use x="812.224609" xlink:href="#DejaVuSans-73"/>
      <use x="864.324219" xlink:href="#DejaVuSans-70"/>
      <use x="927.800781" xlink:href="#DejaVuSans-65"/>
      <use x="989.324219" xlink:href="#DejaVuSans-63"/>
      <use x="1044.304688" xlink:href="#DejaVuSans-69"/>
      <use x="1072.087891" xlink:href="#DejaVuSans-65"/>
      <use x="1133.611328" xlink:href="#DejaVuSans-73"/>
     </g>
    </g>
   </g>
   <g id="line2d_35">
    <path clip-path="url(#p97b744307a)" d="M 73.832727 295.488 
L 128.202281 295.488 
L 208.142355 295.488 
L 279.326559 295.488 
L 284.688829 295.488 
L 348.686073 295.488 
L 349.416574 295.488 
L 350.722429 295.488 
L 350.863869 295.488 
L 351.094717 295.488 
L 351.305715 295.488 
L 351.454958 295.488 
L 351.598212 295.488 
L 351.861892 295.488 
L 356.844253 295.488 
L 360.222529 295.488 
L 367.42858 295.488 
L 367.51293 295.488 
L 367.65108 295.488 
L 367.770266 295.488 
L 367.876974 295.488 
L 368.112868 295.488 
L 368.374862 295.488 
L 368.468615 295.488 
L 368.777401 295.488 
L 368.883634 295.488 
L 368.988666 295.488 
L 369.068921 295.488 
L 369.166983 295.488 
L 370.546084 255.168 
L 370.857835 255.168 
L 371.085934 255.168 
L 371.684828 255.168 
L 371.829397 255.168 
L 371.924467 255.168 
L 372.01264 255.168 
L 372.109168 255.168 
L 372.195068 255.168 
L 372.290974 255.168 
L 372.403398 255.168 
L 372.510586 255.168 
L 372.594741 255.168 
L 373.112617 255.168 
L 387.964131 214.848 
L 388.885076 214.848 
L 390.54977 174.528 
L 390.89762 174.528 
L 390.981829 174.528 
L 391.132407 174.528 
L 391.227779 174.528 
L 391.39312 174.528 
L 391.748484 134.208 
L 391.997733 134.208 
L 392.243867 134.208 
L 392.352168 134.208 
L 392.678706 134.208 
L 392.894822 134.208 
L 393.303182 134.208 
L 393.433613 134.208 
L 393.822372 134.208 
L 394.125101 134.208 
L 394.296734 134.208 
L 394.44027 134.208 
L 394.596411 134.208 
L 394.693441 134.208 
L 394.789708 134.208 
L 394.912578 134.208 
L 395.033928 134.208 
L 396.313506 93.888 
L 396.38748 93.888 
L 396.463471 93.888 
L 396.545972 93.888 
L 396.621133 93.888 
L 396.715347 93.888 
L 396.804345 93.888 
L 396.890553 93.888 
L 396.977284 93.888 
L 397.133371 93.888 
L 397.539545 93.888 
L 397.640484 93.888 
L 397.936453 93.888 
L 398.487273 53.568 
" style="fill:none;stroke:#0000ff;stroke-linecap:square;stroke-width:1.5;"/>
    <defs>
     <path d="M 0 3 
C 0.795609 3 1.55874 2.683901 2.12132 2.12132 
C 2.683901 1.55874 3 0.795609 3 0 
C 3 -0.795609 2.683901 -1.55874 2.12132 -2.12132 
C 1.55874 -2.683901 0.795609 -3 0 -3 
C -0.795609 -3 -1.55874 -2.683901 -2.12132 -2.12132 
C -2.683901 -1.55874 -3 -0.795609 -3 0 
C -3 0.795609 -2.683901 1.55874 -2.12132 2.12132 
C -1.55874 2.683901 -0.795609 3 0 3 
z
" id="ma1b2082b8d" style="stroke:#0000ff;"/>
    </defs>
    <g clip-path="url(#p97b744307a)">
     <use style="fill:#0000ff;stroke:#0000ff;" x="73.832727" xlink:href="#ma1b2082b8d" y="295.488"/>
     <use style="fill:#0000ff;stroke:#0000ff;" x="128.202281" xlink:href="#ma1b2082b8d" y="295.488"/>
     <use style="fill:#0000ff;stroke:#0000ff;" x="208.142355" xlink:href="#ma1b2082b8d" y="295.488"/>
     <use style="fill:#0000ff;stroke:#0000ff;" x="279.326559" xlink:href="#ma1b2082b8d" y="295.488"/>
     <use style="fill:#0000ff;stroke:#0000ff;" x="284.688829" xlink:href="#ma1b2082b8d" y="295.488"/>
     <use style="fill:#0000ff;stroke:#0000ff;" x="348.686073" xlink:href="#ma1b2082b8d" y="295.488"/>
     <use style="fill:#0000ff;stroke:#0000ff;" x="349.416574" xlink:href="#ma1b2082b8d" y="295.488"/>
     <use style="fill:#0000ff;stroke:#0000ff;" x="350.722429" xlink:href="#ma1b2082b8d" y="295.488"/>
     <use style="fill:#0000ff;stroke:#0000ff;" x="350.863869" xlink:href="#ma1b2082b8d" y="295.488"/>
     <use style="fill:#0000ff;stroke:#0000ff;" x="351.094717" xlink:href="#ma1b2082b8d" y="295.488"/>
     <use style="fill:#0000ff;stroke:#0000ff;" x="351.305715" xlink:href="#ma1b2082b8d" y="295.488"/>
     <use style="fill:#0000ff;stroke:#0000ff;" x="351.454958" xlink:href="#ma1b2082b8d" y="295.488"/>
     <use style="fill:#0000ff;stroke:#0000ff;" x="351.598212" xlink:href="#ma1b2082b8d" y="295.488"/>
     <use style="fill:#0000ff;stroke:#0000ff;" x="351.861892" xlink:href="#ma1b2082b8d" y="295.488"/>
     <use style="fill:#0000ff;stroke:#0000ff;" x="356.844253" xlink:href="#ma1b2082b8d" y="295.488"/>
     <use style="fill:#0000ff;stroke:#0000ff;" x="360.222529" xlink:href="#ma1b2082b8d" y="295.488"/>
     <use style="fill:#0000ff;stroke:#0000ff;" x="367.42858" xlink:href="#ma1b2082b8d" y="295.488"/>
     <use style="fill:#0000ff;stroke:#0000ff;" x="367.51293" xlink:href="#ma1b2082b8d" y="295.488"/>
     <use style="fill:#0000ff;stroke:#0000ff;" x="367.65108" xlink:href="#ma1b2082b8d" y="295.488"/>
     <use style="fill:#0000ff;stroke:#0000ff;" x="367.770266" xlink:href="#ma1b2082b8d" y="295.488"/>
     <use style="fill:#0000ff;stroke:#0000ff;" x="367.876974" xlink:href="#ma1b2082b8d" y="295.488"/>
     <use style="fill:#0000ff;stroke:#0000ff;" x="368.112868" xlink:href="#ma1b2082b8d" y="295.488"/>
     <use style="fill:#0000ff;stroke:#0000ff;" x="368.374862" xlink:href="#ma1b2082b8d" y="295.488"/>
     <use style="fill:#0000ff;stroke:#0000ff;" x="368.468615" xlink:href="#ma1b2082b8d" y="295.488"/>
     <use style="fill:#0000ff;stroke:#0000ff;" x="368.777401" xlink:href="#ma1b2082b8d" y="295.488"/>
     <use style="fill:#0000ff;stroke:#0000ff;" x="368.883634" xlink:href="#ma1b2082b8d" y="295.488"/>
     <use style="fill:#0000ff;stroke:#0000ff;" x="368.988666" xlink:href="#ma1b2082b8d" y="295.488"/>
     <use style="fill:#0000ff;stroke:#0000ff;" x="369.068921" xlink:href="#ma1b2082b8d" y="295.488"/>
     <use style="fill:#0000ff;stroke:#0000ff;" x="369.166983" xlink:href="#ma1b2082b8d" y="295.488"/>
     <use style="fill:#0000ff;stroke:#0000ff;" x="370.546084" xlink:href="#ma1b2082b8d" y="255.168"/>
     <use style="fill:#0000ff;stroke:#0000ff;" x="370.857835" xlink:href="#ma1b2082b8d" y="255.168"/>
     <use style="fill:#0000ff;stroke:#0000ff;" x="371.085934" xlink:href="#ma1b2082b8d" y="255.168"/>
     <use style="fill:#0000ff;stroke:#0000ff;" x="371.684828" xlink:href="#ma1b2082b8d" y="255.168"/>
     <use style="fill:#0000ff;stroke:#0000ff;" x="371.829397" xlink:href="#ma1b2082b8d" y="255.168"/>
     <use style="fill:#0000ff;stroke:#0000ff;" x="371.924467" xlink:href="#ma1b2082b8d" y="255.168"/>
     <use style="fill:#0000ff;stroke:#0000ff;" x="372.01264" xlink:href="#ma1b2082b8d" y="255.168"/>
     <use style="fill:#0000ff;stroke:#0000ff;" x="372.109168" xlink:href="#ma1b2082b8d" y="255.168"/>
     <use style="fill:#0000ff;stroke:#0000ff;" x="372.195068" xlink:href="#ma1b2082b8d" y="255.168"/>
     <use style="fill:#0000ff;stroke:#0000ff;" x="372.290974" xlink:href="#ma1b2082b8d" y="255.168"/>
     <use style="fill:#0000ff;stroke:#0000ff;" x="372.403398" xlink:href="#ma1b2082b8d" y="255.168"/>
     <use style="fill:#0000ff;stroke:#0000ff;" x="372.510586" xlink:href="#ma1b2082b8d" y="255.168"/>
     <use style="fill:#0000ff;stroke:#0000ff;" x="372.594741" xlink:href="#ma1b2082b8d" y="255.168"/>
     <use style="fill:#0000ff;stroke:#0000ff;" x="373.112617" xlink:href="#ma1b2082b8d" y="255.168"/>
     <use style="fill:#0000ff;stroke:#0000ff;" x="387.964131" xlink:href="#ma1b2082b8d" y="214.848"/>
     <use style="fill:#0000ff;stroke:#0000ff;" x="388.885076" xlink:href="#ma1b2082b8d" y="214.848"/>
     <use style="fill:#0000ff;stroke:#0000ff;" x="390.54977" xlink:href="#ma1b2082b8d" y="174.528"/>
     <use style="fill:#0000ff;stroke:#0000ff;" x="390.89762" xlink:href="#ma1b2082b8d" y="174.528"/>
     <use style="fill:#0000ff;stroke:#0000ff;" x="390.981829" xlink:href="#ma1b2082b8d" y="174.528"/>
     <use style="fill:#0000ff;stroke:#0000ff;" x="391.132407" xlink:href="#ma1b2082b8d" y="174.528"/>
     <use style="fill:#0000ff;stroke:#0000ff;" x="391.227779" xlink:href="#ma1b2082b8d" y="174.528"/>
     <use style="fill:#0000ff;stroke:#0000ff;" x="391.39312" xlink:href="#ma1b2082b8d" y="174.528"/>
     <use style="fill:#0000ff;stroke:#0000ff;" x="391.748484" xlink:href="#ma1b2082b8d" y="134.208"/>
     <use style="fill:#0000ff;stroke:#0000ff;" x="391.997733" xlink:href="#ma1b2082b8d" y="134.208"/>
     <use style="fill:#0000ff;stroke:#0000ff;" x="392.243867" xlink:href="#ma1b2082b8d" y="134.208"/>
     <use style="fill:#0000ff;stroke:#0000ff;" x="392.352168" xlink:href="#ma1b2082b8d" y="134.208"/>
     <use style="fill:#0000ff;stroke:#0000ff;" x="392.678706" xlink:href="#ma1b2082b8d" y="134.208"/>
     <use style="fill:#0000ff;stroke:#0000ff;" x="392.894822" xlink:href="#ma1b2082b8d" y="134.208"/>
     <use style="fill:#0000ff;stroke:#0000ff;" x="393.303182" xlink:href="#ma1b2082b8d" y="134.208"/>
     <use style="fill:#0000ff;stroke:#0000ff;" x="393.433613" xlink:href="#ma1b2082b8d" y="134.208"/>
     <use style="fill:#0000ff;stroke:#0000ff;" x="393.822372" xlink:href="#ma1b2082b8d" y="134.208"/>
     <use style="fill:#0000ff;stroke:#0000ff;" x="394.125101" xlink:href="#ma1b2082b8d" y="134.208"/>
     <use style="fill:#0000ff;stroke:#0000ff;" x="394.296734" xlink:href="#ma1b2082b8d" y="134.208"/>
     <use style="fill:#0000ff;stroke:#0000ff;" x="394.44027" xlink:href="#ma1b2082b8d" y="134.208"/>
     <use style="fill:#0000ff;stroke:#0000ff;" x="394.596411" xlink:href="#ma1b2082b8d" y="134.208"/>
     <use style="fill:#0000ff;stroke:#0000ff;" x="394.693441" xlink:href="#ma1b2082b8d" y="134.208"/>
     <use style="fill:#0000ff;stroke:#0000ff;" x="394.789708" xlink:href="#ma1b2082b8d" y="134.208"/>
     <use style="fill:#0000ff;stroke:#0000ff;" x="394.912578" xlink:href="#ma1b2082b8d" y="134.208"/>
     <use style="fill:#0000ff;stroke:#0000ff;" x="395.033928" xlink:href="#ma1b2082b8d" y="134.208"/>
     <use style="fill:#0000ff;stroke:#0000ff;" x="396.313506" xlink:href="#ma1b2082b8d" y="93.888"/>
     <use style="fill:#0000ff;stroke:#0000ff;" x="396.38748" xlink:href="#ma1b2082b8d" y="93.888"/>
     <use style="fill:#0000ff;stroke:#0000ff;" x="396.463471" xlink:href="#ma1b2082b8d" y="93.888"/>
     <use style="fill:#0000ff;stroke:#0000ff;" x="396.545972" xlink:href="#ma1b2082b8d" y="93.888"/>
     <use style="fill:#0000ff;stroke:#0000ff;" x="396.621133" xlink:href="#ma1b2082b8d" y="93.888"/>
     <use style="fill:#0000ff;stroke:#0000ff;" x="396.715347" xlink:href="#ma1b2082b8d" y="93.888"/>
     <use style="fill:#0000ff;stroke:#0000ff;" x="396.804345" xlink:href="#ma1b2082b8d" y="93.888"/>
     <use style="fill:#0000ff;stroke:#0000ff;" x="396.890553" xlink:href="#ma1b2082b8d" y="93.888"/>
     <use style="fill:#0000ff;stroke:#0000ff;" x="396.977284" xlink:href="#ma1b2082b8d" y="93.888"/>
     <use style="fill:#0000ff;stroke:#0000ff;" x="397.133371" xlink:href="#ma1b2082b8d" y="93.888"/>
     <use style="fill:#0000ff;stroke:#0000ff;" x="397.539545" xlink:href="#ma1b2082b8d" y="93.888"/>
     <use style="fill:#0000ff;stroke:#0000ff;" x="397.640484" xlink:href="#ma1b2082b8d" y="93.888"/>
     <use style="fill:#0000ff;stroke:#0000ff;" x="397.936453" xlink:href="#ma1b2082b8d" y="93.888"/>
     <use style="fill:#0000ff;stroke:#0000ff;" x="398.487273" xlink:href="#ma1b2082b8d" y="53.568"/>
    </g>
   </g>
   <g id="patch_3">
    <path d="M 57.6 307.584 
L 57.6 41.472 
" style="fill:none;stroke:#000000;stroke-linecap:square;stroke-linejoin:miter;stroke-width:0.8;"/>
   </g>
   <g id="patch_4">
    <path d="M 414.72 307.584 
L 414.72 41.472 
" style="fill:none;stroke:#000000;stroke-linecap:square;stroke-linejoin:miter;stroke-width:0.8;"/>
   </g>
   <g id="patch_5">
    <path d="M 57.6 307.584 
L 414.72 307.584 
" style="fill:none;stroke:#000000;stroke-linecap:square;stroke-linejoin:miter;stroke-width:0.8;"/>
   </g>
   <g id="patch_6">
    <path d="M 57.6 41.472 
L 414.72 41.472 
" style="fill:none;stroke:#000000;stroke-linecap:square;stroke-linejoin:miter;stroke-width:0.8;"/>
   </g>
  </g>
  <g id="axes_2">
   <g id="matplotlib.axis_3">
    <g id="ytick_8">
     <g id="line2d_36">
      <defs>
       <path d="M 0 0 
L 3.5 0 
" id="m421dce123b" style="stroke:#000000;stroke-width:0.8;"/>
      </defs>
      <g>
       <use style="stroke:#000000;stroke-width:0.8;" x="414.72" xlink:href="#m421dce123b" y="266.719614"/>
      </g>
     </g>
     <g id="text_13">
      <!-- 1000 -->
      <g transform="translate(421.72 270.518832)scale(0.1 -0.1)">
       <use xlink:href="#DejaVuSans-31"/>
       <use x="63.623047" xlink:href="#DejaVuSans-30"/>
       <use x="127.246094" xlink:href="#DejaVuSans-30"/>
       <use x="190.869141" xlink:href="#DejaVuSans-30"/>
      </g>
     </g>
    </g>
    <g id="ytick_9">
     <g id="line2d_37">
      <g>
       <use style="stroke:#000000;stroke-width:0.8;" x="414.72" xlink:href="#m421dce123b" y="222.460558"/>
      </g>
     </g>
     <g id="text_14">
      <!-- 1500 -->
      <g transform="translate(421.72 226.259776)scale(0.1 -0.1)">
       <use xlink:href="#DejaVuSans-31"/>
       <use x="63.623047" xlink:href="#DejaVuSans-35"/>
       <use x="127.246094" xlink:href="#DejaVuSans-30"/>
       <use x="190.869141" xlink:href="#DejaVuSans-30"/>
      </g>
     </g>
    </g>
    <g id="ytick_10">
     <g id="line2d_38">
      <g>
       <use style="stroke:#000000;stroke-width:0.8;" x="414.72" xlink:href="#m421dce123b" y="178.201502"/>
      </g>
     </g>
     <g id="text_15">
      <!-- 2000 -->
      <g transform="translate(421.72 182.00072)scale(0.1 -0.1)">
       <use xlink:href="#DejaVuSans-32"/>
       <use x="63.623047" xlink:href="#DejaVuSans-30"/>
       <use x="127.246094" xlink:href="#DejaVuSans-30"/>
       <use x="190.869141" xlink:href="#DejaVuSans-30"/>
      </g>
     </g>
    </g>
    <g id="ytick_11">
     <g id="line2d_39">
      <g>
       <use style="stroke:#000000;stroke-width:0.8;" x="414.72" xlink:href="#m421dce123b" y="133.942446"/>
      </g>
     </g>
     <g id="text_16">
      <!-- 2500 -->
      <g transform="translate(421.72 137.741664)scale(0.1 -0.1)">
       <use xlink:href="#DejaVuSans-32"/>
       <use x="63.623047" xlink:href="#DejaVuSans-35"/>
       <use x="127.246094" xlink:href="#DejaVuSans-30"/>
       <use x="190.869141" xlink:href="#DejaVuSans-30"/>
      </g>
     </g>
    </g>
    <g id="ytick_12">
     <g id="line2d_40">
      <g>
       <use style="stroke:#000000;stroke-width:0.8;" x="414.72" xlink:href="#m421dce123b" y="89.68339"/>
      </g>
     </g>
     <g id="text_17">
      <!-- 3000 -->
      <g transform="translate(421.72 93.482608)scale(0.1 -0.1)">
       <use xlink:href="#DejaVuSans-33"/>
       <use x="63.623047" xlink:href="#DejaVuSans-30"/>
       <use x="127.246094" xlink:href="#DejaVuSans-30"/>
       <use x="190.869141" xlink:href="#DejaVuSans-30"/>
      </g>
     </g>
    </g>
    <g id="ytick_13">
     <g id="line2d_41">
      <g>
       <use style="stroke:#000000;stroke-width:0.8;" x="414.72" xlink:href="#m421dce123b" y="45.424334"/>
      </g>
     </g>
     <g id="text_18">
      <!-- 3500 -->
      <g transform="translate(421.72 49.223552)scale(0.1 -0.1)">
       <use xlink:href="#DejaVuSans-33"/>
       <use x="63.623047" xlink:href="#DejaVuSans-35"/>
       <use x="127.246094" xlink:href="#DejaVuSans-30"/>
       <use x="190.869141" xlink:href="#DejaVuSans-30"/>
      </g>
     </g>
    </g>
    <g id="text_19">
     <!-- Number of core reactions -->
     <defs>
      <path d="M 34.28125 27.484375 
Q 23.390625 27.484375 19.1875 25 
Q 14.984375 22.515625 14.984375 16.5 
Q 14.984375 11.71875 18.140625 8.90625 
Q 21.296875 6.109375 26.703125 6.109375 
Q 34.1875 6.109375 38.703125 11.40625 
Q 43.21875 16.703125 43.21875 25.484375 
L 43.21875 27.484375 
z
M 52.203125 31.203125 
L 52.203125 0 
L 43.21875 0 
L 43.21875 8.296875 
Q 40.140625 3.328125 35.546875 0.953125 
Q 30.953125 -1.421875 24.3125 -1.421875 
Q 15.921875 -1.421875 10.953125 3.296875 
Q 6 8.015625 6 15.921875 
Q 6 25.140625 12.171875 29.828125 
Q 18.359375 34.515625 30.609375 34.515625 
L 43.21875 34.515625 
L 43.21875 35.40625 
Q 43.21875 41.609375 39.140625 45 
Q 35.0625 48.390625 27.6875 48.390625 
Q 23 48.390625 18.546875 47.265625 
Q 14.109375 46.140625 10.015625 43.890625 
L 10.015625 52.203125 
Q 14.9375 54.109375 19.578125 55.046875 
Q 24.21875 56 28.609375 56 
Q 40.484375 56 46.34375 49.84375 
Q 52.203125 43.703125 52.203125 31.203125 
z
" id="DejaVuSans-61"/>
     </defs>
     <g transform="translate(458.768438 238.2655)rotate(-90)scale(0.1 -0.1)">
      <use xlink:href="#DejaVuSans-4e"/>
      <use x="74.804688" xlink:href="#DejaVuSans-75"/>
      <use x="138.183594" xlink:href="#DejaVuSans-6d"/>
      <use x="235.595703" xlink:href="#DejaVuSans-62"/>
      <use x="299.072266" xlink:href="#DejaVuSans-65"/>
      <use x="360.595703" xlink:href="#DejaVuSans-72"/>
      <use x="401.708984" xlink:href="#DejaVuSans-20"/>
      <use x="433.496094" xlink:href="#DejaVuSans-6f"/>
      <use x="494.677734" xlink:href="#DejaVuSans-66"/>
      <use x="529.882812" xlink:href="#DejaVuSans-20"/>
      <use x="561.669922" xlink:href="#DejaVuSans-63"/>
      <use x="616.650391" xlink:href="#DejaVuSans-6f"/>
      <use x="677.832031" xlink:href="#DejaVuSans-72"/>
      <use x="718.914062" xlink:href="#DejaVuSans-65"/>
      <use x="780.4375" xlink:href="#DejaVuSans-20"/>
      <use x="812.224609" xlink:href="#DejaVuSans-72"/>
      <use x="853.306641" xlink:href="#DejaVuSans-65"/>
      <use x="914.830078" xlink:href="#DejaVuSans-61"/>
      <use x="976.109375" xlink:href="#DejaVuSans-63"/>
      <use x="1031.089844" xlink:href="#DejaVuSans-74"/>
      <use x="1070.298828" xlink:href="#DejaVuSans-69"/>
      <use x="1098.082031" xlink:href="#DejaVuSans-6f"/>
      <use x="1159.263672" xlink:href="#DejaVuSans-6e"/>
      <use x="1222.642578" xlink:href="#DejaVuSans-73"/>
     </g>
    </g>
   </g>
   <g id="line2d_42">
    <path clip-path="url(#p97b744307a)" d="M 73.832727 295.488 
L 128.202281 290.973576 
L 208.142355 268.224422 
L 279.326559 246.980075 
L 284.688829 234.321985 
L 348.686073 194.134762 
L 349.416574 189.974411 
L 350.722429 185.991095 
L 350.863869 185.725541 
L 351.094717 185.282951 
L 351.305715 185.105914 
L 351.454958 185.105914 
L 351.598212 185.105914 
L 351.861892 181.034081 
L 356.844253 168.110437 
L 360.222529 155.894937 
L 367.42858 145.361282 
L 367.51293 145.361282 
L 367.65108 145.361282 
L 367.770266 145.361282 
L 367.876974 145.361282 
L 368.112868 142.971293 
L 368.374862 141.997594 
L 368.468615 141.997594 
L 368.777401 141.909076 
L 368.883634 141.820558 
L 368.988666 141.820558 
L 369.068921 141.820558 
L 369.166983 141.820558 
L 370.546084 141.289449 
L 370.857835 140.75834 
L 371.085934 137.837243 
L 371.684828 135.270217 
L 371.829397 135.093181 
L 371.924467 135.093181 
L 372.01264 135.093181 
L 372.109168 135.004663 
L 372.195068 135.004663 
L 372.290974 134.916145 
L 372.403398 134.827627 
L 372.510586 134.827627 
L 372.594741 134.827627 
L 373.112617 131.198384 
L 387.964131 105.793686 
L 388.885076 99.774454 
L 390.54977 96.764839 
L 390.89762 95.348549 
L 390.981829 95.348549 
L 391.132407 94.37485 
L 391.227779 94.37485 
L 391.39312 91.365234 
L 391.748484 89.240799 
L 391.997733 87.027846 
L 392.243867 85.877111 
L 392.352168 85.877111 
L 392.678706 85.877111 
L 392.894822 85.611557 
L 393.303182 85.346002 
L 393.433613 84.549339 
L 393.822372 78.530108 
L 394.125101 71.094586 
L 394.296734 69.855333 
L 394.44027 69.324224 
L 394.596411 69.147188 
L 394.693441 69.147188 
L 394.789708 68.970151 
L 394.912578 65.606463 
L 395.033928 64.632764 
L 396.313506 62.95092 
L 396.38748 62.95092 
L 396.463471 62.95092 
L 396.545972 62.862402 
L 396.621133 62.862402 
L 396.715347 62.862402 
L 396.804345 62.862402 
L 396.890553 62.862402 
L 396.977284 62.862402 
L 397.133371 60.383895 
L 397.539545 58.436496 
L 397.640484 58.170942 
L 397.936453 56.312061 
L 398.487273 53.568 
" style="fill:none;stroke:#ff0000;stroke-linecap:square;stroke-width:1.5;"/>
    <defs>
     <path d="M 0 3 
C 0.795609 3 1.55874 2.683901 2.12132 2.12132 
C 2.683901 1.55874 3 0.795609 3 0 
C 3 -0.795609 2.683901 -1.55874 2.12132 -2.12132 
C 1.55874 -2.683901 0.795609 -3 0 -3 
C -0.795609 -3 -1.55874 -2.683901 -2.12132 -2.12132 
C -2.683901 -1.55874 -3 -0.795609 -3 0 
C -3 0.795609 -2.683901 1.55874 -2.12132 2.12132 
C -1.55874 2.683901 -0.795609 3 0 3 
z
" id="ma9e0a7f36f" style="stroke:#ff0000;"/>
    </defs>
    <g clip-path="url(#p97b744307a)">
     <use style="fill:#ff0000;stroke:#ff0000;" x="73.832727" xlink:href="#ma9e0a7f36f" y="295.488"/>
     <use style="fill:#ff0000;stroke:#ff0000;" x="128.202281" xlink:href="#ma9e0a7f36f" y="290.973576"/>
     <use style="fill:#ff0000;stroke:#ff0000;" x="208.142355" xlink:href="#ma9e0a7f36f" y="268.224422"/>
     <use style="fill:#ff0000;stroke:#ff0000;" x="279.326559" xlink:href="#ma9e0a7f36f" y="246.980075"/>
     <use style="fill:#ff0000;stroke:#ff0000;" x="284.688829" xlink:href="#ma9e0a7f36f" y="234.321985"/>
     <use style="fill:#ff0000;stroke:#ff0000;" x="348.686073" xlink:href="#ma9e0a7f36f" y="194.134762"/>
     <use style="fill:#ff0000;stroke:#ff0000;" x="349.416574" xlink:href="#ma9e0a7f36f" y="189.974411"/>
     <use style="fill:#ff0000;stroke:#ff0000;" x="350.722429" xlink:href="#ma9e0a7f36f" y="185.991095"/>
     <use style="fill:#ff0000;stroke:#ff0000;" x="350.863869" xlink:href="#ma9e0a7f36f" y="185.725541"/>
     <use style="fill:#ff0000;stroke:#ff0000;" x="351.094717" xlink:href="#ma9e0a7f36f" y="185.282951"/>
     <use style="fill:#ff0000;stroke:#ff0000;" x="351.305715" xlink:href="#ma9e0a7f36f" y="185.105914"/>
     <use style="fill:#ff0000;stroke:#ff0000;" x="351.454958" xlink:href="#ma9e0a7f36f" y="185.105914"/>
     <use style="fill:#ff0000;stroke:#ff0000;" x="351.598212" xlink:href="#ma9e0a7f36f" y="185.105914"/>
     <use style="fill:#ff0000;stroke:#ff0000;" x="351.861892" xlink:href="#ma9e0a7f36f" y="181.034081"/>
     <use style="fill:#ff0000;stroke:#ff0000;" x="356.844253" xlink:href="#ma9e0a7f36f" y="168.110437"/>
     <use style="fill:#ff0000;stroke:#ff0000;" x="360.222529" xlink:href="#ma9e0a7f36f" y="155.894937"/>
     <use style="fill:#ff0000;stroke:#ff0000;" x="367.42858" xlink:href="#ma9e0a7f36f" y="145.361282"/>
     <use style="fill:#ff0000;stroke:#ff0000;" x="367.51293" xlink:href="#ma9e0a7f36f" y="145.361282"/>
     <use style="fill:#ff0000;stroke:#ff0000;" x="367.65108" xlink:href="#ma9e0a7f36f" y="145.361282"/>
     <use style="fill:#ff0000;stroke:#ff0000;" x="367.770266" xlink:href="#ma9e0a7f36f" y="145.361282"/>
     <use style="fill:#ff0000;stroke:#ff0000;" x="367.876974" xlink:href="#ma9e0a7f36f" y="145.361282"/>
     <use style="fill:#ff0000;stroke:#ff0000;" x="368.112868" xlink:href="#ma9e0a7f36f" y="142.971293"/>
     <use style="fill:#ff0000;stroke:#ff0000;" x="368.374862" xlink:href="#ma9e0a7f36f" y="141.997594"/>
     <use style="fill:#ff0000;stroke:#ff0000;" x="368.468615" xlink:href="#ma9e0a7f36f" y="141.997594"/>
     <use style="fill:#ff0000;stroke:#ff0000;" x="368.777401" xlink:href="#ma9e0a7f36f" y="141.909076"/>
     <use style="fill:#ff0000;stroke:#ff0000;" x="368.883634" xlink:href="#ma9e0a7f36f" y="141.820558"/>
     <use style="fill:#ff0000;stroke:#ff0000;" x="368.988666" xlink:href="#ma9e0a7f36f" y="141.820558"/>
     <use style="fill:#ff0000;stroke:#ff0000;" x="369.068921" xlink:href="#ma9e0a7f36f" y="141.820558"/>
     <use style="fill:#ff0000;stroke:#ff0000;" x="369.166983" xlink:href="#ma9e0a7f36f" y="141.820558"/>
     <use style="fill:#ff0000;stroke:#ff0000;" x="370.546084" xlink:href="#ma9e0a7f36f" y="141.289449"/>
     <use style="fill:#ff0000;stroke:#ff0000;" x="370.857835" xlink:href="#ma9e0a7f36f" y="140.75834"/>
     <use style="fill:#ff0000;stroke:#ff0000;" x="371.085934" xlink:href="#ma9e0a7f36f" y="137.837243"/>
     <use style="fill:#ff0000;stroke:#ff0000;" x="371.684828" xlink:href="#ma9e0a7f36f" y="135.270217"/>
     <use style="fill:#ff0000;stroke:#ff0000;" x="371.829397" xlink:href="#ma9e0a7f36f" y="135.093181"/>
     <use style="fill:#ff0000;stroke:#ff0000;" x="371.924467" xlink:href="#ma9e0a7f36f" y="135.093181"/>
     <use style="fill:#ff0000;stroke:#ff0000;" x="372.01264" xlink:href="#ma9e0a7f36f" y="135.093181"/>
     <use style="fill:#ff0000;stroke:#ff0000;" x="372.109168" xlink:href="#ma9e0a7f36f" y="135.004663"/>
     <use style="fill:#ff0000;stroke:#ff0000;" x="372.195068" xlink:href="#ma9e0a7f36f" y="135.004663"/>
     <use style="fill:#ff0000;stroke:#ff0000;" x="372.290974" xlink:href="#ma9e0a7f36f" y="134.916145"/>
     <use style="fill:#ff0000;stroke:#ff0000;" x="372.403398" xlink:href="#ma9e0a7f36f" y="134.827627"/>
     <use style="fill:#ff0000;stroke:#ff0000;" x="372.510586" xlink:href="#ma9e0a7f36f" y="134.827627"/>
     <use style="fill:#ff0000;stroke:#ff0000;" x="372.594741" xlink:href="#ma9e0a7f36f" y="134.827627"/>
     <use style="fill:#ff0000;stroke:#ff0000;" x="373.112617" xlink:href="#ma9e0a7f36f" y="131.198384"/>
     <use style="fill:#ff0000;stroke:#ff0000;" x="387.964131" xlink:href="#ma9e0a7f36f" y="105.793686"/>
     <use style="fill:#ff0000;stroke:#ff0000;" x="388.885076" xlink:href="#ma9e0a7f36f" y="99.774454"/>
     <use style="fill:#ff0000;stroke:#ff0000;" x="390.54977" xlink:href="#ma9e0a7f36f" y="96.764839"/>
     <use style="fill:#ff0000;stroke:#ff0000;" x="390.89762" xlink:href="#ma9e0a7f36f" y="95.348549"/>
     <use style="fill:#ff0000;stroke:#ff0000;" x="390.981829" xlink:href="#ma9e0a7f36f" y="95.348549"/>
     <use style="fill:#ff0000;stroke:#ff0000;" x="391.132407" xlink:href="#ma9e0a7f36f" y="94.37485"/>
     <use style="fill:#ff0000;stroke:#ff0000;" x="391.227779" xlink:href="#ma9e0a7f36f" y="94.37485"/>
     <use style="fill:#ff0000;stroke:#ff0000;" x="391.39312" xlink:href="#ma9e0a7f36f" y="91.365234"/>
     <use style="fill:#ff0000;stroke:#ff0000;" x="391.748484" xlink:href="#ma9e0a7f36f" y="89.240799"/>
     <use style="fill:#ff0000;stroke:#ff0000;" x="391.997733" xlink:href="#ma9e0a7f36f" y="87.027846"/>
     <use style="fill:#ff0000;stroke:#ff0000;" x="392.243867" xlink:href="#ma9e0a7f36f" y="85.877111"/>
     <use style="fill:#ff0000;stroke:#ff0000;" x="392.352168" xlink:href="#ma9e0a7f36f" y="85.877111"/>
     <use style="fill:#ff0000;stroke:#ff0000;" x="392.678706" xlink:href="#ma9e0a7f36f" y="85.877111"/>
     <use style="fill:#ff0000;stroke:#ff0000;" x="392.894822" xlink:href="#ma9e0a7f36f" y="85.611557"/>
     <use style="fill:#ff0000;stroke:#ff0000;" x="393.303182" xlink:href="#ma9e0a7f36f" y="85.346002"/>
     <use style="fill:#ff0000;stroke:#ff0000;" x="393.433613" xlink:href="#ma9e0a7f36f" y="84.549339"/>
     <use style="fill:#ff0000;stroke:#ff0000;" x="393.822372" xlink:href="#ma9e0a7f36f" y="78.530108"/>
     <use style="fill:#ff0000;stroke:#ff0000;" x="394.125101" xlink:href="#ma9e0a7f36f" y="71.094586"/>
     <use style="fill:#ff0000;stroke:#ff0000;" x="394.296734" xlink:href="#ma9e0a7f36f" y="69.855333"/>
     <use style="fill:#ff0000;stroke:#ff0000;" x="394.44027" xlink:href="#ma9e0a7f36f" y="69.324224"/>
     <use style="fill:#ff0000;stroke:#ff0000;" x="394.596411" xlink:href="#ma9e0a7f36f" y="69.147188"/>
     <use style="fill:#ff0000;stroke:#ff0000;" x="394.693441" xlink:href="#ma9e0a7f36f" y="69.147188"/>
     <use style="fill:#ff0000;stroke:#ff0000;" x="394.789708" xlink:href="#ma9e0a7f36f" y="68.970151"/>
     <use style="fill:#ff0000;stroke:#ff0000;" x="394.912578" xlink:href="#ma9e0a7f36f" y="65.606463"/>
     <use style="fill:#ff0000;stroke:#ff0000;" x="395.033928" xlink:href="#ma9e0a7f36f" y="64.632764"/>
     <use style="fill:#ff0000;stroke:#ff0000;" x="396.313506" xlink:href="#ma9e0a7f36f" y="62.95092"/>
     <use style="fill:#ff0000;stroke:#ff0000;" x="396.38748" xlink:href="#ma9e0a7f36f" y="62.95092"/>
     <use style="fill:#ff0000;stroke:#ff0000;" x="396.463471" xlink:href="#ma9e0a7f36f" y="62.95092"/>
     <use style="fill:#ff0000;stroke:#ff0000;" x="396.545972" xlink:href="#ma9e0a7f36f" y="62.862402"/>
     <use style="fill:#ff0000;stroke:#ff0000;" x="396.621133" xlink:href="#ma9e0a7f36f" y="62.862402"/>
     <use style="fill:#ff0000;stroke:#ff0000;" x="396.715347" xlink:href="#ma9e0a7f36f" y="62.862402"/>
     <use style="fill:#ff0000;stroke:#ff0000;" x="396.804345" xlink:href="#ma9e0a7f36f" y="62.862402"/>
     <use style="fill:#ff0000;stroke:#ff0000;" x="396.890553" xlink:href="#ma9e0a7f36f" y="62.862402"/>
     <use style="fill:#ff0000;stroke:#ff0000;" x="396.977284" xlink:href="#ma9e0a7f36f" y="62.862402"/>
     <use style="fill:#ff0000;stroke:#ff0000;" x="397.133371" xlink:href="#ma9e0a7f36f" y="60.383895"/>
     <use style="fill:#ff0000;stroke:#ff0000;" x="397.539545" xlink:href="#ma9e0a7f36f" y="58.436496"/>
     <use style="fill:#ff0000;stroke:#ff0000;" x="397.640484" xlink:href="#ma9e0a7f36f" y="58.170942"/>
     <use style="fill:#ff0000;stroke:#ff0000;" x="397.936453" xlink:href="#ma9e0a7f36f" y="56.312061"/>
     <use style="fill:#ff0000;stroke:#ff0000;" x="398.487273" xlink:href="#ma9e0a7f36f" y="53.568"/>
    </g>
   </g>
   <g id="patch_7">
    <path d="M 57.6 307.584 
L 57.6 41.472 
" style="fill:none;stroke:#000000;stroke-linecap:square;stroke-linejoin:miter;stroke-width:0.8;"/>
   </g>
   <g id="patch_8">
    <path d="M 414.72 307.584 
L 414.72 41.472 
" style="fill:none;stroke:#000000;stroke-linecap:square;stroke-linejoin:miter;stroke-width:0.8;"/>
   </g>
   <g id="patch_9">
    <path d="M 57.6 307.584 
L 414.72 307.584 
" style="fill:none;stroke:#000000;stroke-linecap:square;stroke-linejoin:miter;stroke-width:0.8;"/>
   </g>
   <g id="patch_10">
    <path d="M 57.6 41.472 
L 414.72 41.472 
" style="fill:none;stroke:#000000;stroke-linecap:square;stroke-linejoin:miter;stroke-width:0.8;"/>
   </g>
  </g>
 </g>
 <defs>
  <clipPath id="p97b744307a">
   <rect height="266.112" width="357.12" x="57.6" y="41.472"/>
  </clipPath>
 </defs>
</svg>
