<?xml version="1.0" encoding="utf-8" standalone="no"?>
<!DOCTYPE svg PUBLIC "-//W3C//DTD SVG 1.1//EN"
  "http://www.w3.org/Graphics/SVG/1.1/DTD/svg11.dtd">
<!-- Created with matplotlib (http://matplotlib.org/) -->
<svg height="345.6pt" version="1.1" viewBox="0 0 460.8 345.6" width="460.8pt" xmlns="http://www.w3.org/2000/svg" xmlns:xlink="http://www.w3.org/1999/xlink">
 <defs>
  <style type="text/css">
*{stroke-linecap:butt;stroke-linejoin:round;}
  </style>
 </defs>
 <g id="figure_1">
  <g id="patch_1">
   <path d="M 0 345.6 
L 460.8 345.6 
L 460.8 0 
L 0 0 
z
" style="fill:#ffffff;"/>
  </g>
  <g id="axes_1">
   <g id="patch_2">
    <path d="M 57.6 307.584 
L 414.72 307.584 
L 414.72 41.472 
L 57.6 41.472 
z
" style="fill:#ffffff;"/>
   </g>
   <g id="matplotlib.axis_1">
    <g id="xtick_1">
     <g id="line2d_1">
      <defs>
       <path d="M 0 0 
L 0 3.5 
" id="meb2f213172" style="stroke:#000000;stroke-width:0.8;"/>
      </defs>
      <g>
       <use style="stroke:#000000;stroke-width:0.8;" x="76.847123" xlink:href="#meb2f213172" y="307.584"/>
      </g>
     </g>
     <g id="text_1">
      <!-- $\mathdefault{10^{2}}$ -->
      <defs>
       <path d="M 12.40625 8.296875 
L 28.515625 8.296875 
L 28.515625 63.921875 
L 10.984375 60.40625 
L 10.984375 69.390625 
L 28.421875 72.90625 
L 38.28125 72.90625 
L 38.28125 8.296875 
L 54.390625 8.296875 
L 54.390625 0 
L 12.40625 0 
z
" id="DejaVuSans-31"/>
       <path d="M 31.78125 66.40625 
Q 24.171875 66.40625 20.328125 58.90625 
Q 16.5 51.421875 16.5 36.375 
Q 16.5 21.390625 20.328125 13.890625 
Q 24.171875 6.390625 31.78125 6.390625 
Q 39.453125 6.390625 43.28125 13.890625 
Q 47.125 21.390625 47.125 36.375 
Q 47.125 51.421875 43.28125 58.90625 
Q 39.453125 66.40625 31.78125 66.40625 
z
M 31.78125 74.21875 
Q 44.046875 74.21875 50.515625 64.515625 
Q 56.984375 54.828125 56.984375 36.375 
Q 56.984375 17.96875 50.515625 8.265625 
Q 44.046875 -1.421875 31.78125 -1.421875 
Q 19.53125 -1.421875 13.0625 8.265625 
Q 6.59375 17.96875 6.59375 36.375 
Q 6.59375 54.828125 13.0625 64.515625 
Q 19.53125 74.21875 31.78125 74.21875 
z
" id="DejaVuSans-30"/>
       <path d="M 19.1875 8.296875 
L 53.609375 8.296875 
L 53.609375 0 
L 7.328125 0 
L 7.328125 8.296875 
Q 12.9375 14.109375 22.625 23.890625 
Q 32.328125 33.6875 34.8125 36.53125 
Q 39.546875 41.84375 41.421875 45.53125 
Q 43.3125 49.21875 43.3125 52.78125 
Q 43.3125 58.59375 39.234375 62.25 
Q 35.15625 65.921875 28.609375 65.921875 
Q 23.96875 65.921875 18.8125 64.3125 
Q 13.671875 62.703125 7.8125 59.421875 
L 7.8125 69.390625 
Q 13.765625 71.78125 18.9375 73 
Q 24.125 74.21875 28.421875 74.21875 
Q 39.75 74.21875 46.484375 68.546875 
Q 53.21875 62.890625 53.21875 53.421875 
Q 53.21875 48.921875 51.53125 44.890625 
Q 49.859375 40.875 45.40625 35.40625 
Q 44.1875 33.984375 37.640625 27.21875 
Q 31.109375 20.453125 19.1875 8.296875 
z
" id="DejaVuSans-32"/>
      </defs>
      <g transform="translate(68.047123 322.182437)scale(0.1 -0.1)">
       <use transform="translate(0 0.765625)" xlink:href="#DejaVuSans-31"/>
       <use transform="translate(63.623047 0.765625)" xlink:href="#DejaVuSans-30"/>
       <use transform="translate(128.203125 39.046875)scale(0.7)" xlink:href="#DejaVuSans-32"/>
      </g>
     </g>
    </g>
    <g id="xtick_2">
     <g id="line2d_2">
      <g>
       <use style="stroke:#000000;stroke-width:0.8;" x="260.717845" xlink:href="#meb2f213172" y="307.584"/>
      </g>
     </g>
     <g id="text_2">
      <!-- $\mathdefault{10^{3}}$ -->
      <defs>
       <path d="M 40.578125 39.3125 
Q 47.65625 37.796875 51.625 33 
Q 55.609375 28.21875 55.609375 21.1875 
Q 55.609375 10.40625 48.1875 4.484375 
Q 40.765625 -1.421875 27.09375 -1.421875 
Q 22.515625 -1.421875 17.65625 -0.515625 
Q 12.796875 0.390625 7.625 2.203125 
L 7.625 11.71875 
Q 11.71875 9.328125 16.59375 8.109375 
Q 21.484375 6.890625 26.8125 6.890625 
Q 36.078125 6.890625 40.9375 10.546875 
Q 45.796875 14.203125 45.796875 21.1875 
Q 45.796875 27.640625 41.28125 31.265625 
Q 36.765625 34.90625 28.71875 34.90625 
L 20.21875 34.90625 
L 20.21875 43.015625 
L 29.109375 43.015625 
Q 36.375 43.015625 40.234375 45.921875 
Q 44.09375 48.828125 44.09375 54.296875 
Q 44.09375 59.90625 40.109375 62.90625 
Q 36.140625 65.921875 28.71875 65.921875 
Q 24.65625 65.921875 20.015625 65.03125 
Q 15.375 64.15625 9.8125 62.3125 
L 9.8125 71.09375 
Q 15.4375 72.65625 20.34375 73.4375 
Q 25.25 74.21875 29.59375 74.21875 
Q 40.828125 74.21875 47.359375 69.109375 
Q 53.90625 64.015625 53.90625 55.328125 
Q 53.90625 49.265625 50.4375 45.09375 
Q 46.96875 40.921875 40.578125 39.3125 
z
" id="DejaVuSans-33"/>
      </defs>
      <g transform="translate(251.917845 322.182437)scale(0.1 -0.1)">
       <use transform="translate(0 0.765625)" xlink:href="#DejaVuSans-31"/>
       <use transform="translate(63.623047 0.765625)" xlink:href="#DejaVuSans-30"/>
       <use transform="translate(128.203125 39.046875)scale(0.7)" xlink:href="#DejaVuSans-33"/>
      </g>
     </g>
    </g>
    <g id="xtick_3">
     <g id="line2d_3">
      <defs>
       <path d="M 0 0 
L 0 2 
" id="m95c8e6dd70" style="stroke:#000000;stroke-width:0.6;"/>
      </defs>
      <g>
       <use style="stroke:#000000;stroke-width:0.6;" x="59.028209" xlink:href="#m95c8e6dd70" y="307.584"/>
      </g>
     </g>
    </g>
    <g id="xtick_4">
     <g id="line2d_4">
      <g>
       <use style="stroke:#000000;stroke-width:0.6;" x="68.43366" xlink:href="#m95c8e6dd70" y="307.584"/>
      </g>
     </g>
    </g>
    <g id="xtick_5">
     <g id="line2d_5">
      <g>
       <use style="stroke:#000000;stroke-width:0.6;" x="132.197725" xlink:href="#m95c8e6dd70" y="307.584"/>
      </g>
     </g>
    </g>
    <g id="xtick_6">
     <g id="line2d_6">
      <g>
       <use style="stroke:#000000;stroke-width:0.6;" x="164.575752" xlink:href="#m95c8e6dd70" y="307.584"/>
      </g>
     </g>
    </g>
    <g id="xtick_7">
     <g id="line2d_7">
      <g>
       <use style="stroke:#000000;stroke-width:0.6;" x="187.548328" xlink:href="#m95c8e6dd70" y="307.584"/>
      </g>
     </g>
    </g>
    <g id="xtick_8">
     <g id="line2d_8">
      <g>
       <use style="stroke:#000000;stroke-width:0.6;" x="205.367242" xlink:href="#m95c8e6dd70" y="307.584"/>
      </g>
     </g>
    </g>
    <g id="xtick_9">
     <g id="line2d_9">
      <g>
       <use style="stroke:#000000;stroke-width:0.6;" x="219.926355" xlink:href="#m95c8e6dd70" y="307.584"/>
      </g>
     </g>
    </g>
    <g id="xtick_10">
     <g id="line2d_10">
      <g>
       <use style="stroke:#000000;stroke-width:0.6;" x="232.235909" xlink:href="#m95c8e6dd70" y="307.584"/>
      </g>
     </g>
    </g>
    <g id="xtick_11">
     <g id="line2d_11">
      <g>
       <use style="stroke:#000000;stroke-width:0.6;" x="242.898931" xlink:href="#m95c8e6dd70" y="307.584"/>
      </g>
     </g>
    </g>
    <g id="xtick_12">
     <g id="line2d_12">
      <g>
       <use style="stroke:#000000;stroke-width:0.6;" x="252.304382" xlink:href="#m95c8e6dd70" y="307.584"/>
      </g>
     </g>
    </g>
    <g id="xtick_13">
     <g id="line2d_13">
      <g>
       <use style="stroke:#000000;stroke-width:0.6;" x="316.068447" xlink:href="#m95c8e6dd70" y="307.584"/>
      </g>
     </g>
    </g>
    <g id="xtick_14">
     <g id="line2d_14">
      <g>
       <use style="stroke:#000000;stroke-width:0.6;" x="348.446474" xlink:href="#m95c8e6dd70" y="307.584"/>
      </g>
     </g>
    </g>
    <g id="xtick_15">
     <g id="line2d_15">
      <g>
       <use style="stroke:#000000;stroke-width:0.6;" x="371.41905" xlink:href="#m95c8e6dd70" y="307.584"/>
      </g>
     </g>
    </g>
    <g id="xtick_16">
     <g id="line2d_16">
      <g>
       <use style="stroke:#000000;stroke-width:0.6;" x="389.237964" xlink:href="#m95c8e6dd70" y="307.584"/>
      </g>
     </g>
    </g>
    <g id="xtick_17">
     <g id="line2d_17">
      <g>
       <use style="stroke:#000000;stroke-width:0.6;" x="403.797077" xlink:href="#m95c8e6dd70" y="307.584"/>
      </g>
     </g>
    </g>
    <g id="text_3">
     <!-- Execution time (s) -->
     <defs>
      <path d="M 9.8125 72.90625 
L 55.90625 72.90625 
L 55.90625 64.59375 
L 19.671875 64.59375 
L 19.671875 43.015625 
L 54.390625 43.015625 
L 54.390625 34.71875 
L 19.671875 34.71875 
L 19.671875 8.296875 
L 56.78125 8.296875 
L 56.78125 0 
L 9.8125 0 
z
" id="DejaVuSans-45"/>
      <path d="M 54.890625 54.6875 
L 35.109375 28.078125 
L 55.90625 0 
L 45.3125 0 
L 29.390625 21.484375 
L 13.484375 0 
L 2.875 0 
L 24.125 28.609375 
L 4.6875 54.6875 
L 15.28125 54.6875 
L 29.78125 35.203125 
L 44.28125 54.6875 
z
" id="DejaVuSans-78"/>
      <path d="M 56.203125 29.59375 
L 56.203125 25.203125 
L 14.890625 25.203125 
Q 15.484375 15.921875 20.484375 11.0625 
Q 25.484375 6.203125 34.421875 6.203125 
Q 39.59375 6.203125 44.453125 7.46875 
Q 49.3125 8.734375 54.109375 11.28125 
L 54.109375 2.78125 
Q 49.265625 0.734375 44.1875 -0.34375 
Q 39.109375 -1.421875 33.890625 -1.421875 
Q 20.796875 -1.421875 13.15625 6.1875 
Q 5.515625 13.8125 5.515625 26.8125 
Q 5.515625 40.234375 12.765625 48.109375 
Q 20.015625 56 32.328125 56 
Q 43.359375 56 49.78125 48.890625 
Q 56.203125 41.796875 56.203125 29.59375 
z
M 47.21875 32.234375 
Q 47.125 39.59375 43.09375 43.984375 
Q 39.0625 48.390625 32.421875 48.390625 
Q 24.90625 48.390625 20.390625 44.140625 
Q 15.875 39.890625 15.1875 32.171875 
z
" id="DejaVuSans-65"/>
      <path d="M 48.78125 52.59375 
L 48.78125 44.1875 
Q 44.96875 46.296875 41.140625 47.34375 
Q 37.3125 48.390625 33.40625 48.390625 
Q 24.65625 48.390625 19.8125 42.84375 
Q 14.984375 37.3125 14.984375 27.296875 
Q 14.984375 17.28125 19.8125 11.734375 
Q 24.65625 6.203125 33.40625 6.203125 
Q 37.3125 6.203125 41.140625 7.25 
Q 44.96875 8.296875 48.78125 10.40625 
L 48.78125 2.09375 
Q 45.015625 0.34375 40.984375 -0.53125 
Q 36.96875 -1.421875 32.421875 -1.421875 
Q 20.0625 -1.421875 12.78125 6.34375 
Q 5.515625 14.109375 5.515625 27.296875 
Q 5.515625 40.671875 12.859375 48.328125 
Q 20.21875 56 33.015625 56 
Q 37.15625 56 41.109375 55.140625 
Q 45.0625 54.296875 48.78125 52.59375 
z
" id="DejaVuSans-63"/>
      <path d="M 8.5 21.578125 
L 8.5 54.6875 
L 17.484375 54.6875 
L 17.484375 21.921875 
Q 17.484375 14.15625 20.5 10.265625 
Q 23.53125 6.390625 29.59375 6.390625 
Q 36.859375 6.390625 41.078125 11.03125 
Q 45.3125 15.671875 45.3125 23.6875 
L 45.3125 54.6875 
L 54.296875 54.6875 
L 54.296875 0 
L 45.3125 0 
L 45.3125 8.40625 
Q 42.046875 3.421875 37.71875 1 
Q 33.40625 -1.421875 27.6875 -1.421875 
Q 18.265625 -1.421875 13.375 4.4375 
Q 8.5 10.296875 8.5 21.578125 
z
M 31.109375 56 
z
" id="DejaVuSans-75"/>
      <path d="M 18.3125 70.21875 
L 18.3125 54.6875 
L 36.8125 54.6875 
L 36.8125 47.703125 
L 18.3125 47.703125 
L 18.3125 18.015625 
Q 18.3125 11.328125 20.140625 9.421875 
Q 21.96875 7.515625 27.59375 7.515625 
L 36.8125 7.515625 
L 36.8125 0 
L 27.59375 0 
Q 17.1875 0 13.234375 3.875 
Q 9.28125 7.765625 9.28125 18.015625 
L 9.28125 47.703125 
L 2.6875 47.703125 
L 2.6875 54.6875 
L 9.28125 54.6875 
L 9.28125 70.21875 
z
" id="DejaVuSans-74"/>
      <path d="M 9.421875 54.6875 
L 18.40625 54.6875 
L 18.40625 0 
L 9.421875 0 
z
M 9.421875 75.984375 
L 18.40625 75.984375 
L 18.40625 64.59375 
L 9.421875 64.59375 
z
" id="DejaVuSans-69"/>
      <path d="M 30.609375 48.390625 
Q 23.390625 48.390625 19.1875 42.75 
Q 14.984375 37.109375 14.984375 27.296875 
Q 14.984375 17.484375 19.15625 11.84375 
Q 23.34375 6.203125 30.609375 6.203125 
Q 37.796875 6.203125 41.984375 11.859375 
Q 46.1875 17.53125 46.1875 27.296875 
Q 46.1875 37.015625 41.984375 42.703125 
Q 37.796875 48.390625 30.609375 48.390625 
z
M 30.609375 56 
Q 42.328125 56 49.015625 48.375 
Q 55.71875 40.765625 55.71875 27.296875 
Q 55.71875 13.875 49.015625 6.21875 
Q 42.328125 -1.421875 30.609375 -1.421875 
Q 18.84375 -1.421875 12.171875 6.21875 
Q 5.515625 13.875 5.515625 27.296875 
Q 5.515625 40.765625 12.171875 48.375 
Q 18.84375 56 30.609375 56 
z
" id="DejaVuSans-6f"/>
      <path d="M 54.890625 33.015625 
L 54.890625 0 
L 45.90625 0 
L 45.90625 32.71875 
Q 45.90625 40.484375 42.875 44.328125 
Q 39.84375 48.1875 33.796875 48.1875 
Q 26.515625 48.1875 22.3125 43.546875 
Q 18.109375 38.921875 18.109375 30.90625 
L 18.109375 0 
L 9.078125 0 
L 9.078125 54.6875 
L 18.109375 54.6875 
L 18.109375 46.1875 
Q 21.34375 51.125 25.703125 53.5625 
Q 30.078125 56 35.796875 56 
Q 45.21875 56 50.046875 50.171875 
Q 54.890625 44.34375 54.890625 33.015625 
z
" id="DejaVuSans-6e"/>
      <path id="DejaVuSans-20"/>
      <path d="M 52 44.1875 
Q 55.375 50.25 60.0625 53.125 
Q 64.75 56 71.09375 56 
Q 79.640625 56 84.28125 50.015625 
Q 88.921875 44.046875 88.921875 33.015625 
L 88.921875 0 
L 79.890625 0 
L 79.890625 32.71875 
Q 79.890625 40.578125 77.09375 44.375 
Q 74.3125 48.1875 68.609375 48.1875 
Q 61.625 48.1875 57.5625 43.546875 
Q 53.515625 38.921875 53.515625 30.90625 
L 53.515625 0 
L 44.484375 0 
L 44.484375 32.71875 
Q 44.484375 40.625 41.703125 44.40625 
Q 38.921875 48.1875 33.109375 48.1875 
Q 26.21875 48.1875 22.15625 43.53125 
Q 18.109375 38.875 18.109375 30.90625 
L 18.109375 0 
L 9.078125 0 
L 9.078125 54.6875 
L 18.109375 54.6875 
L 18.109375 46.1875 
Q 21.1875 51.21875 25.484375 53.609375 
Q 29.78125 56 35.6875 56 
Q 41.65625 56 45.828125 52.96875 
Q 50 49.953125 52 44.1875 
z
" id="DejaVuSans-6d"/>
      <path d="M 31 75.875 
Q 24.46875 64.65625 21.28125 53.65625 
Q 18.109375 42.671875 18.109375 31.390625 
Q 18.109375 20.125 21.3125 9.0625 
Q 24.515625 -2 31 -13.1875 
L 23.1875 -13.1875 
Q 15.875 -1.703125 12.234375 9.375 
Q 8.59375 20.453125 8.59375 31.390625 
Q 8.59375 42.28125 12.203125 53.3125 
Q 15.828125 64.359375 23.1875 75.875 
z
" id="DejaVuSans-28"/>
      <path d="M 44.28125 53.078125 
L 44.28125 44.578125 
Q 40.484375 46.53125 36.375 47.5 
Q 32.28125 48.484375 27.875 48.484375 
Q 21.1875 48.484375 17.84375 46.4375 
Q 14.5 44.390625 14.5 40.28125 
Q 14.5 37.15625 16.890625 35.375 
Q 19.28125 33.59375 26.515625 31.984375 
L 29.59375 31.296875 
Q 39.15625 29.25 43.1875 25.515625 
Q 47.21875 21.78125 47.21875 15.09375 
Q 47.21875 7.46875 41.1875 3.015625 
Q 35.15625 -1.421875 24.609375 -1.421875 
Q 20.21875 -1.421875 15.453125 -0.5625 
Q 10.6875 0.296875 5.421875 2 
L 5.421875 11.28125 
Q 10.40625 8.6875 15.234375 7.390625 
Q 20.0625 6.109375 24.8125 6.109375 
Q 31.15625 6.109375 34.5625 8.28125 
Q 37.984375 10.453125 37.984375 14.40625 
Q 37.984375 18.0625 35.515625 20.015625 
Q 33.0625 21.96875 24.703125 23.78125 
L 21.578125 24.515625 
Q 13.234375 26.265625 9.515625 29.90625 
Q 5.8125 33.546875 5.8125 39.890625 
Q 5.8125 47.609375 11.28125 51.796875 
Q 16.75 56 26.8125 56 
Q 31.78125 56 36.171875 55.265625 
Q 40.578125 54.546875 44.28125 53.078125 
z
" id="DejaVuSans-73"/>
      <path d="M 8.015625 75.875 
L 15.828125 75.875 
Q 23.140625 64.359375 26.78125 53.3125 
Q 30.421875 42.28125 30.421875 31.390625 
Q 30.421875 20.453125 26.78125 9.375 
Q 23.140625 -1.703125 15.828125 -13.1875 
L 8.015625 -13.1875 
Q 14.5 -2 17.703125 9.0625 
Q 20.90625 20.125 20.90625 31.390625 
Q 20.90625 42.671875 17.703125 53.65625 
Q 14.5 64.65625 8.015625 75.875 
z
" id="DejaVuSans-29"/>
     </defs>
     <g transform="translate(190.49125 335.860562)scale(0.1 -0.1)">
      <use xlink:href="#DejaVuSans-45"/>
      <use x="63.183594" xlink:href="#DejaVuSans-78"/>
      <use x="122.316406" xlink:href="#DejaVuSans-65"/>
      <use x="183.839844" xlink:href="#DejaVuSans-63"/>
      <use x="238.820312" xlink:href="#DejaVuSans-75"/>
      <use x="302.199219" xlink:href="#DejaVuSans-74"/>
      <use x="341.408203" xlink:href="#DejaVuSans-69"/>
      <use x="369.191406" xlink:href="#DejaVuSans-6f"/>
      <use x="430.373047" xlink:href="#DejaVuSans-6e"/>
      <use x="493.751953" xlink:href="#DejaVuSans-20"/>
      <use x="525.539062" xlink:href="#DejaVuSans-74"/>
      <use x="564.748047" xlink:href="#DejaVuSans-69"/>
      <use x="592.53125" xlink:href="#DejaVuSans-6d"/>
      <use x="689.943359" xlink:href="#DejaVuSans-65"/>
      <use x="751.466797" xlink:href="#DejaVuSans-20"/>
      <use x="783.253906" xlink:href="#DejaVuSans-28"/>
      <use x="822.267578" xlink:href="#DejaVuSans-73"/>
      <use x="874.367188" xlink:href="#DejaVuSans-29"/>
     </g>
    </g>
   </g>
   <g id="matplotlib.axis_2">
    <g id="ytick_1">
     <g id="line2d_18">
      <defs>
       <path d="M 0 0 
L -3.5 0 
" id="m86b3e41e53" style="stroke:#000000;stroke-width:0.8;"/>
      </defs>
      <g>
       <use style="stroke:#000000;stroke-width:0.8;" x="57.6" xlink:href="#m86b3e41e53" y="259.782009"/>
      </g>
     </g>
     <g id="text_4">
      <!-- $\mathdefault{10^{2}}$ -->
      <g transform="translate(33 263.581228)scale(0.1 -0.1)">
       <use transform="translate(0 0.765625)" xlink:href="#DejaVuSans-31"/>
       <use transform="translate(63.623047 0.765625)" xlink:href="#DejaVuSans-30"/>
       <use transform="translate(128.203125 39.046875)scale(0.7)" xlink:href="#DejaVuSans-32"/>
      </g>
     </g>
    </g>
    <g id="ytick_2">
     <g id="line2d_19">
      <g>
       <use style="stroke:#000000;stroke-width:0.8;" x="57.6" xlink:href="#m86b3e41e53" y="130.28304"/>
      </g>
     </g>
     <g id="text_5">
      <!-- $\mathdefault{10^{3}}$ -->
      <g transform="translate(33 134.082259)scale(0.1 -0.1)">
       <use transform="translate(0 0.765625)" xlink:href="#DejaVuSans-31"/>
       <use transform="translate(63.623047 0.765625)" xlink:href="#DejaVuSans-30"/>
       <use transform="translate(128.203125 39.046875)scale(0.7)" xlink:href="#DejaVuSans-33"/>
      </g>
     </g>
    </g>
    <g id="ytick_3">
     <g id="line2d_20">
      <defs>
       <path d="M 0 0 
L -2 0 
" id="m20b89ba9f5" style="stroke:#000000;stroke-width:0.6;"/>
      </defs>
      <g>
       <use style="stroke:#000000;stroke-width:0.6;" x="57.6" xlink:href="#m20b89ba9f5" y="298.765083"/>
      </g>
     </g>
    </g>
    <g id="ytick_4">
     <g id="line2d_21">
      <g>
       <use style="stroke:#000000;stroke-width:0.6;" x="57.6" xlink:href="#m20b89ba9f5" y="288.511194"/>
      </g>
     </g>
    </g>
    <g id="ytick_5">
     <g id="line2d_22">
      <g>
       <use style="stroke:#000000;stroke-width:0.6;" x="57.6" xlink:href="#m20b89ba9f5" y="279.841653"/>
      </g>
     </g>
    </g>
    <g id="ytick_6">
     <g id="line2d_23">
      <g>
       <use style="stroke:#000000;stroke-width:0.6;" x="57.6" xlink:href="#m20b89ba9f5" y="272.331756"/>
      </g>
     </g>
    </g>
    <g id="ytick_7">
     <g id="line2d_24">
      <g>
       <use style="stroke:#000000;stroke-width:0.6;" x="57.6" xlink:href="#m20b89ba9f5" y="265.707557"/>
      </g>
     </g>
    </g>
    <g id="ytick_8">
     <g id="line2d_25">
      <g>
       <use style="stroke:#000000;stroke-width:0.6;" x="57.6" xlink:href="#m20b89ba9f5" y="220.798935"/>
      </g>
     </g>
    </g>
    <g id="ytick_9">
     <g id="line2d_26">
      <g>
       <use style="stroke:#000000;stroke-width:0.6;" x="57.6" xlink:href="#m20b89ba9f5" y="197.995299"/>
      </g>
     </g>
    </g>
    <g id="ytick_10">
     <g id="line2d_27">
      <g>
       <use style="stroke:#000000;stroke-width:0.6;" x="57.6" xlink:href="#m20b89ba9f5" y="181.815861"/>
      </g>
     </g>
    </g>
    <g id="ytick_11">
     <g id="line2d_28">
      <g>
       <use style="stroke:#000000;stroke-width:0.6;" x="57.6" xlink:href="#m20b89ba9f5" y="169.266114"/>
      </g>
     </g>
    </g>
    <g id="ytick_12">
     <g id="line2d_29">
      <g>
       <use style="stroke:#000000;stroke-width:0.6;" x="57.6" xlink:href="#m20b89ba9f5" y="159.012224"/>
      </g>
     </g>
    </g>
    <g id="ytick_13">
     <g id="line2d_30">
      <g>
       <use style="stroke:#000000;stroke-width:0.6;" x="57.6" xlink:href="#m20b89ba9f5" y="150.342684"/>
      </g>
     </g>
    </g>
    <g id="ytick_14">
     <g id="line2d_31">
      <g>
       <use style="stroke:#000000;stroke-width:0.6;" x="57.6" xlink:href="#m20b89ba9f5" y="142.832787"/>
      </g>
     </g>
    </g>
    <g id="ytick_15">
     <g id="line2d_32">
      <g>
       <use style="stroke:#000000;stroke-width:0.6;" x="57.6" xlink:href="#m20b89ba9f5" y="136.208588"/>
      </g>
     </g>
    </g>
    <g id="ytick_16">
     <g id="line2d_33">
      <g>
       <use style="stroke:#000000;stroke-width:0.6;" x="57.6" xlink:href="#m20b89ba9f5" y="91.299966"/>
      </g>
     </g>
    </g>
    <g id="ytick_17">
     <g id="line2d_34">
      <g>
       <use style="stroke:#000000;stroke-width:0.6;" x="57.6" xlink:href="#m20b89ba9f5" y="68.496329"/>
      </g>
     </g>
    </g>
    <g id="ytick_18">
     <g id="line2d_35">
      <g>
       <use style="stroke:#000000;stroke-width:0.6;" x="57.6" xlink:href="#m20b89ba9f5" y="52.316892"/>
      </g>
     </g>
    </g>
    <g id="text_6">
     <!-- Number of edge species -->
     <defs>
      <path d="M 9.8125 72.90625 
L 23.09375 72.90625 
L 55.421875 11.921875 
L 55.421875 72.90625 
L 64.984375 72.90625 
L 64.984375 0 
L 51.703125 0 
L 19.390625 60.984375 
L 19.390625 0 
L 9.8125 0 
z
" id="DejaVuSans-4e"/>
      <path d="M 48.6875 27.296875 
Q 48.6875 37.203125 44.609375 42.84375 
Q 40.53125 48.484375 33.40625 48.484375 
Q 26.265625 48.484375 22.1875 42.84375 
Q 18.109375 37.203125 18.109375 27.296875 
Q 18.109375 17.390625 22.1875 11.75 
Q 26.265625 6.109375 33.40625 6.109375 
Q 40.53125 6.109375 44.609375 11.75 
Q 48.6875 17.390625 48.6875 27.296875 
z
M 18.109375 46.390625 
Q 20.953125 51.265625 25.265625 53.625 
Q 29.59375 56 35.59375 56 
Q 45.5625 56 51.78125 48.09375 
Q 58.015625 40.1875 58.015625 27.296875 
Q 58.015625 14.40625 51.78125 6.484375 
Q 45.5625 -1.421875 35.59375 -1.421875 
Q 29.59375 -1.421875 25.265625 0.953125 
Q 20.953125 3.328125 18.109375 8.203125 
L 18.109375 0 
L 9.078125 0 
L 9.078125 75.984375 
L 18.109375 75.984375 
z
" id="DejaVuSans-62"/>
      <path d="M 41.109375 46.296875 
Q 39.59375 47.171875 37.8125 47.578125 
Q 36.03125 48 33.890625 48 
Q 26.265625 48 22.1875 43.046875 
Q 18.109375 38.09375 18.109375 28.8125 
L 18.109375 0 
L 9.078125 0 
L 9.078125 54.6875 
L 18.109375 54.6875 
L 18.109375 46.1875 
Q 20.953125 51.171875 25.484375 53.578125 
Q 30.03125 56 36.53125 56 
Q 37.453125 56 38.578125 55.875 
Q 39.703125 55.765625 41.0625 55.515625 
z
" id="DejaVuSans-72"/>
      <path d="M 37.109375 75.984375 
L 37.109375 68.5 
L 28.515625 68.5 
Q 23.6875 68.5 21.796875 66.546875 
Q 19.921875 64.59375 19.921875 59.515625 
L 19.921875 54.6875 
L 34.71875 54.6875 
L 34.71875 47.703125 
L 19.921875 47.703125 
L 19.921875 0 
L 10.890625 0 
L 10.890625 47.703125 
L 2.296875 47.703125 
L 2.296875 54.6875 
L 10.890625 54.6875 
L 10.890625 58.5 
Q 10.890625 67.625 15.140625 71.796875 
Q 19.390625 75.984375 28.609375 75.984375 
z
" id="DejaVuSans-66"/>
      <path d="M 45.40625 46.390625 
L 45.40625 75.984375 
L 54.390625 75.984375 
L 54.390625 0 
L 45.40625 0 
L 45.40625 8.203125 
Q 42.578125 3.328125 38.25 0.953125 
Q 33.9375 -1.421875 27.875 -1.421875 
Q 17.96875 -1.421875 11.734375 6.484375 
Q 5.515625 14.40625 5.515625 27.296875 
Q 5.515625 40.1875 11.734375 48.09375 
Q 17.96875 56 27.875 56 
Q 33.9375 56 38.25 53.625 
Q 42.578125 51.265625 45.40625 46.390625 
z
M 14.796875 27.296875 
Q 14.796875 17.390625 18.875 11.75 
Q 22.953125 6.109375 30.078125 6.109375 
Q 37.203125 6.109375 41.296875 11.75 
Q 45.40625 17.390625 45.40625 27.296875 
Q 45.40625 37.203125 41.296875 42.84375 
Q 37.203125 48.484375 30.078125 48.484375 
Q 22.953125 48.484375 18.875 42.84375 
Q 14.796875 37.203125 14.796875 27.296875 
z
" id="DejaVuSans-64"/>
      <path d="M 45.40625 27.984375 
Q 45.40625 37.75 41.375 43.109375 
Q 37.359375 48.484375 30.078125 48.484375 
Q 22.859375 48.484375 18.828125 43.109375 
Q 14.796875 37.75 14.796875 27.984375 
Q 14.796875 18.265625 18.828125 12.890625 
Q 22.859375 7.515625 30.078125 7.515625 
Q 37.359375 7.515625 41.375 12.890625 
Q 45.40625 18.265625 45.40625 27.984375 
z
M 54.390625 6.78125 
Q 54.390625 -7.171875 48.1875 -13.984375 
Q 42 -20.796875 29.203125 -20.796875 
Q 24.46875 -20.796875 20.265625 -20.09375 
Q 16.0625 -19.390625 12.109375 -17.921875 
L 12.109375 -9.1875 
Q 16.0625 -11.328125 19.921875 -12.34375 
Q 23.78125 -13.375 27.78125 -13.375 
Q 36.625 -13.375 41.015625 -8.765625 
Q 45.40625 -4.15625 45.40625 5.171875 
L 45.40625 9.625 
Q 42.625 4.78125 38.28125 2.390625 
Q 33.9375 0 27.875 0 
Q 17.828125 0 11.671875 7.65625 
Q 5.515625 15.328125 5.515625 27.984375 
Q 5.515625 40.671875 11.671875 48.328125 
Q 17.828125 56 27.875 56 
Q 33.9375 56 38.28125 53.609375 
Q 42.625 51.21875 45.40625 46.390625 
L 45.40625 54.6875 
L 54.390625 54.6875 
z
" id="DejaVuSans-67"/>
      <path d="M 18.109375 8.203125 
L 18.109375 -20.796875 
L 9.078125 -20.796875 
L 9.078125 54.6875 
L 18.109375 54.6875 
L 18.109375 46.390625 
Q 20.953125 51.265625 25.265625 53.625 
Q 29.59375 56 35.59375 56 
Q 45.5625 56 51.78125 48.09375 
Q 58.015625 40.1875 58.015625 27.296875 
Q 58.015625 14.40625 51.78125 6.484375 
Q 45.5625 -1.421875 35.59375 -1.421875 
Q 29.59375 -1.421875 25.265625 0.953125 
Q 20.953125 3.328125 18.109375 8.203125 
z
M 48.6875 27.296875 
Q 48.6875 37.203125 44.609375 42.84375 
Q 40.53125 48.484375 33.40625 48.484375 
Q 26.265625 48.484375 22.1875 42.84375 
Q 18.109375 37.203125 18.109375 27.296875 
Q 18.109375 17.390625 22.1875 11.75 
Q 26.265625 6.109375 33.40625 6.109375 
Q 40.53125 6.109375 44.609375 11.75 
Q 48.6875 17.390625 48.6875 27.296875 
z
" id="DejaVuSans-70"/>
     </defs>
     <g transform="translate(26.920312 235.377219)rotate(-90)scale(0.1 -0.1)">
      <use xlink:href="#DejaVuSans-4e"/>
      <use x="74.804688" xlink:href="#DejaVuSans-75"/>
      <use x="138.183594" xlink:href="#DejaVuSans-6d"/>
      <use x="235.595703" xlink:href="#DejaVuSans-62"/>
      <use x="299.072266" xlink:href="#DejaVuSans-65"/>
      <use x="360.595703" xlink:href="#DejaVuSans-72"/>
      <use x="401.708984" xlink:href="#DejaVuSans-20"/>
      <use x="433.496094" xlink:href="#DejaVuSans-6f"/>
      <use x="494.677734" xlink:href="#DejaVuSans-66"/>
      <use x="529.882812" xlink:href="#DejaVuSans-20"/>
      <use x="561.669922" xlink:href="#DejaVuSans-65"/>
      <use x="623.193359" xlink:href="#DejaVuSans-64"/>
      <use x="686.669922" xlink:href="#DejaVuSans-67"/>
      <use x="750.146484" xlink:href="#DejaVuSans-65"/>
      <use x="811.669922" xlink:href="#DejaVuSans-20"/>
      <use x="843.457031" xlink:href="#DejaVuSans-73"/>
      <use x="895.556641" xlink:href="#DejaVuSans-70"/>
      <use x="959.033203" xlink:href="#DejaVuSans-65"/>
      <use x="1020.556641" xlink:href="#DejaVuSans-63"/>
      <use x="1075.537109" xlink:href="#DejaVuSans-69"/>
      <use x="1103.320312" xlink:href="#DejaVuSans-65"/>
      <use x="1164.84375" xlink:href="#DejaVuSans-73"/>
     </g>
    </g>
   </g>
   <g id="line2d_36">
    <path clip-path="url(#p86c02446fd)" d="M 73.832727 295.488 
L 112.888762 265.707557 
L 165.122846 221.080844 
L 174.423136 219.685222 
L 179.746278 219.410206 
L 190.132903 205.827493 
L 194.556494 203.093763 
L 199.057926 203.093763 
L 220.16899 186.965663 
L 242.020734 175.693814 
L 245.38603 173.589957 
L 247.861588 170.517223 
L 259.189157 159.862226 
L 260.321733 159.294133 
L 261.365837 158.359881 
L 263.25877 156.806425 
L 267.167412 153.993804 
L 271.456906 148.524485 
L 279.160293 140.290014 
L 282.217625 138.244672 
L 284.527986 135.402034 
L 285.645066 135.402034 
L 290.929659 131.133041 
L 294.084088 130.452016 
L 299.119781 129.004156 
L 300.539846 127.432024 
L 301.825397 127.485511 
L 303.283731 126.268018 
L 307.19519 122.864608 
L 308.25216 122.081435 
L 310.244707 119.982303 
L 316.257258 118.731943 
L 319.05926 114.96788 
L 323.746902 111.199151 
L 328.216104 107.704817 
L 330.586178 104.771131 
L 331.705582 103.324912 
L 334.615346 100.143183 
L 337.824053 97.381955 
L 339.419286 97.413296 
L 340.295962 96.604063 
L 341.937411 95.381391 
L 343.081065 94.989679 
L 344.737672 94.392321 
L 346.949324 94.096005 
L 348.96484 93.566538 
L 349.80052 93.449553 
L 350.778851 92.868249 
L 352.082299 91.52538 
L 352.466674 91.497154 
L 355.420204 84.800885 
L 358.717427 82.759123 
L 359.441789 82.373911 
L 362.195677 80.116457 
L 363.027324 79.725975 
L 366.288403 77.394421 
L 368.697845 75.430706 
L 371.488658 73.471773 
L 374.688967 71.598589 
L 376.306319 69.881778 
L 377.069347 69.308279 
L 377.591227 69.099452 
L 380.508864 67.162496 
L 381.820742 66.038732 
L 383.117196 64.9018 
L 384.315691 64.202715 
L 386.784742 62.441576 
L 390.644286 60.294725 
L 391.65204 59.538292 
L 393.081985 58.195592 
L 394.591443 56.884201 
L 395.814669 55.781851 
L 396.769618 54.95062 
L 397.253247 54.627397 
L 398.487273 53.568 
" style="fill:none;stroke:#0000ff;stroke-linecap:square;stroke-width:1.5;"/>
    <defs>
     <path d="M 0 3 
C 0.795609 3 1.55874 2.683901 2.12132 2.12132 
C 2.683901 1.55874 3 0.795609 3 0 
C 3 -0.795609 2.683901 -1.55874 2.12132 -2.12132 
C 1.55874 -2.683901 0.795609 -3 0 -3 
C -0.795609 -3 -1.55874 -2.683901 -2.12132 -2.12132 
C -2.683901 -1.55874 -3 -0.795609 -3 0 
C -3 0.795609 -2.683901 1.55874 -2.12132 2.12132 
C -1.55874 2.683901 -0.795609 3 0 3 
z
" id="m9c647f66b6" style="stroke:#0000ff;"/>
    </defs>
    <g clip-path="url(#p86c02446fd)">
     <use style="fill:#0000ff;stroke:#0000ff;" x="73.832727" xlink:href="#m9c647f66b6" y="295.488"/>
     <use style="fill:#0000ff;stroke:#0000ff;" x="112.888762" xlink:href="#m9c647f66b6" y="265.707557"/>
     <use style="fill:#0000ff;stroke:#0000ff;" x="165.122846" xlink:href="#m9c647f66b6" y="221.080844"/>
     <use style="fill:#0000ff;stroke:#0000ff;" x="174.423136" xlink:href="#m9c647f66b6" y="219.685222"/>
     <use style="fill:#0000ff;stroke:#0000ff;" x="179.746278" xlink:href="#m9c647f66b6" y="219.410206"/>
     <use style="fill:#0000ff;stroke:#0000ff;" x="190.132903" xlink:href="#m9c647f66b6" y="205.827493"/>
     <use style="fill:#0000ff;stroke:#0000ff;" x="194.556494" xlink:href="#m9c647f66b6" y="203.093763"/>
     <use style="fill:#0000ff;stroke:#0000ff;" x="199.057926" xlink:href="#m9c647f66b6" y="203.093763"/>
     <use style="fill:#0000ff;stroke:#0000ff;" x="220.16899" xlink:href="#m9c647f66b6" y="186.965663"/>
     <use style="fill:#0000ff;stroke:#0000ff;" x="242.020734" xlink:href="#m9c647f66b6" y="175.693814"/>
     <use style="fill:#0000ff;stroke:#0000ff;" x="245.38603" xlink:href="#m9c647f66b6" y="173.589957"/>
     <use style="fill:#0000ff;stroke:#0000ff;" x="247.861588" xlink:href="#m9c647f66b6" y="170.517223"/>
     <use style="fill:#0000ff;stroke:#0000ff;" x="259.189157" xlink:href="#m9c647f66b6" y="159.862226"/>
     <use style="fill:#0000ff;stroke:#0000ff;" x="260.321733" xlink:href="#m9c647f66b6" y="159.294133"/>
     <use style="fill:#0000ff;stroke:#0000ff;" x="261.365837" xlink:href="#m9c647f66b6" y="158.359881"/>
     <use style="fill:#0000ff;stroke:#0000ff;" x="263.25877" xlink:href="#m9c647f66b6" y="156.806425"/>
     <use style="fill:#0000ff;stroke:#0000ff;" x="267.167412" xlink:href="#m9c647f66b6" y="153.993804"/>
     <use style="fill:#0000ff;stroke:#0000ff;" x="271.456906" xlink:href="#m9c647f66b6" y="148.524485"/>
     <use style="fill:#0000ff;stroke:#0000ff;" x="279.160293" xlink:href="#m9c647f66b6" y="140.290014"/>
     <use style="fill:#0000ff;stroke:#0000ff;" x="282.217625" xlink:href="#m9c647f66b6" y="138.244672"/>
     <use style="fill:#0000ff;stroke:#0000ff;" x="284.527986" xlink:href="#m9c647f66b6" y="135.402034"/>
     <use style="fill:#0000ff;stroke:#0000ff;" x="285.645066" xlink:href="#m9c647f66b6" y="135.402034"/>
     <use style="fill:#0000ff;stroke:#0000ff;" x="290.929659" xlink:href="#m9c647f66b6" y="131.133041"/>
     <use style="fill:#0000ff;stroke:#0000ff;" x="294.084088" xlink:href="#m9c647f66b6" y="130.452016"/>
     <use style="fill:#0000ff;stroke:#0000ff;" x="299.119781" xlink:href="#m9c647f66b6" y="129.004156"/>
     <use style="fill:#0000ff;stroke:#0000ff;" x="300.539846" xlink:href="#m9c647f66b6" y="127.432024"/>
     <use style="fill:#0000ff;stroke:#0000ff;" x="301.825397" xlink:href="#m9c647f66b6" y="127.485511"/>
     <use style="fill:#0000ff;stroke:#0000ff;" x="303.283731" xlink:href="#m9c647f66b6" y="126.268018"/>
     <use style="fill:#0000ff;stroke:#0000ff;" x="307.19519" xlink:href="#m9c647f66b6" y="122.864608"/>
     <use style="fill:#0000ff;stroke:#0000ff;" x="308.25216" xlink:href="#m9c647f66b6" y="122.081435"/>
     <use style="fill:#0000ff;stroke:#0000ff;" x="310.244707" xlink:href="#m9c647f66b6" y="119.982303"/>
     <use style="fill:#0000ff;stroke:#0000ff;" x="316.257258" xlink:href="#m9c647f66b6" y="118.731943"/>
     <use style="fill:#0000ff;stroke:#0000ff;" x="319.05926" xlink:href="#m9c647f66b6" y="114.96788"/>
     <use style="fill:#0000ff;stroke:#0000ff;" x="323.746902" xlink:href="#m9c647f66b6" y="111.199151"/>
     <use style="fill:#0000ff;stroke:#0000ff;" x="328.216104" xlink:href="#m9c647f66b6" y="107.704817"/>
     <use style="fill:#0000ff;stroke:#0000ff;" x="330.586178" xlink:href="#m9c647f66b6" y="104.771131"/>
     <use style="fill:#0000ff;stroke:#0000ff;" x="331.705582" xlink:href="#m9c647f66b6" y="103.324912"/>
     <use style="fill:#0000ff;stroke:#0000ff;" x="334.615346" xlink:href="#m9c647f66b6" y="100.143183"/>
     <use style="fill:#0000ff;stroke:#0000ff;" x="337.824053" xlink:href="#m9c647f66b6" y="97.381955"/>
     <use style="fill:#0000ff;stroke:#0000ff;" x="339.419286" xlink:href="#m9c647f66b6" y="97.413296"/>
     <use style="fill:#0000ff;stroke:#0000ff;" x="340.295962" xlink:href="#m9c647f66b6" y="96.604063"/>
     <use style="fill:#0000ff;stroke:#0000ff;" x="341.937411" xlink:href="#m9c647f66b6" y="95.381391"/>
     <use style="fill:#0000ff;stroke:#0000ff;" x="343.081065" xlink:href="#m9c647f66b6" y="94.989679"/>
     <use style="fill:#0000ff;stroke:#0000ff;" x="344.737672" xlink:href="#m9c647f66b6" y="94.392321"/>
     <use style="fill:#0000ff;stroke:#0000ff;" x="346.949324" xlink:href="#m9c647f66b6" y="94.096005"/>
     <use style="fill:#0000ff;stroke:#0000ff;" x="348.96484" xlink:href="#m9c647f66b6" y="93.566538"/>
     <use style="fill:#0000ff;stroke:#0000ff;" x="349.80052" xlink:href="#m9c647f66b6" y="93.449553"/>
     <use style="fill:#0000ff;stroke:#0000ff;" x="350.778851" xlink:href="#m9c647f66b6" y="92.868249"/>
     <use style="fill:#0000ff;stroke:#0000ff;" x="352.082299" xlink:href="#m9c647f66b6" y="91.52538"/>
     <use style="fill:#0000ff;stroke:#0000ff;" x="352.466674" xlink:href="#m9c647f66b6" y="91.497154"/>
     <use style="fill:#0000ff;stroke:#0000ff;" x="355.420204" xlink:href="#m9c647f66b6" y="84.800885"/>
     <use style="fill:#0000ff;stroke:#0000ff;" x="358.717427" xlink:href="#m9c647f66b6" y="82.759123"/>
     <use style="fill:#0000ff;stroke:#0000ff;" x="359.441789" xlink:href="#m9c647f66b6" y="82.373911"/>
     <use style="fill:#0000ff;stroke:#0000ff;" x="362.195677" xlink:href="#m9c647f66b6" y="80.116457"/>
     <use style="fill:#0000ff;stroke:#0000ff;" x="363.027324" xlink:href="#m9c647f66b6" y="79.725975"/>
     <use style="fill:#0000ff;stroke:#0000ff;" x="366.288403" xlink:href="#m9c647f66b6" y="77.394421"/>
     <use style="fill:#0000ff;stroke:#0000ff;" x="368.697845" xlink:href="#m9c647f66b6" y="75.430706"/>
     <use style="fill:#0000ff;stroke:#0000ff;" x="371.488658" xlink:href="#m9c647f66b6" y="73.471773"/>
     <use style="fill:#0000ff;stroke:#0000ff;" x="374.688967" xlink:href="#m9c647f66b6" y="71.598589"/>
     <use style="fill:#0000ff;stroke:#0000ff;" x="376.306319" xlink:href="#m9c647f66b6" y="69.881778"/>
     <use style="fill:#0000ff;stroke:#0000ff;" x="377.069347" xlink:href="#m9c647f66b6" y="69.308279"/>
     <use style="fill:#0000ff;stroke:#0000ff;" x="377.591227" xlink:href="#m9c647f66b6" y="69.099452"/>
     <use style="fill:#0000ff;stroke:#0000ff;" x="380.508864" xlink:href="#m9c647f66b6" y="67.162496"/>
     <use style="fill:#0000ff;stroke:#0000ff;" x="381.820742" xlink:href="#m9c647f66b6" y="66.038732"/>
     <use style="fill:#0000ff;stroke:#0000ff;" x="383.117196" xlink:href="#m9c647f66b6" y="64.9018"/>
     <use style="fill:#0000ff;stroke:#0000ff;" x="384.315691" xlink:href="#m9c647f66b6" y="64.202715"/>
     <use style="fill:#0000ff;stroke:#0000ff;" x="386.784742" xlink:href="#m9c647f66b6" y="62.441576"/>
     <use style="fill:#0000ff;stroke:#0000ff;" x="390.644286" xlink:href="#m9c647f66b6" y="60.294725"/>
     <use style="fill:#0000ff;stroke:#0000ff;" x="391.65204" xlink:href="#m9c647f66b6" y="59.538292"/>
     <use style="fill:#0000ff;stroke:#0000ff;" x="393.081985" xlink:href="#m9c647f66b6" y="58.195592"/>
     <use style="fill:#0000ff;stroke:#0000ff;" x="394.591443" xlink:href="#m9c647f66b6" y="56.884201"/>
     <use style="fill:#0000ff;stroke:#0000ff;" x="395.814669" xlink:href="#m9c647f66b6" y="55.781851"/>
     <use style="fill:#0000ff;stroke:#0000ff;" x="396.769618" xlink:href="#m9c647f66b6" y="54.95062"/>
     <use style="fill:#0000ff;stroke:#0000ff;" x="397.253247" xlink:href="#m9c647f66b6" y="54.627397"/>
     <use style="fill:#0000ff;stroke:#0000ff;" x="398.487273" xlink:href="#m9c647f66b6" y="53.568"/>
    </g>
   </g>
   <g id="patch_3">
    <path d="M 57.6 307.584 
L 57.6 41.472 
" style="fill:none;stroke:#000000;stroke-linecap:square;stroke-linejoin:miter;stroke-width:0.8;"/>
   </g>
   <g id="patch_4">
    <path d="M 414.72 307.584 
L 414.72 41.472 
" style="fill:none;stroke:#000000;stroke-linecap:square;stroke-linejoin:miter;stroke-width:0.8;"/>
   </g>
   <g id="patch_5">
    <path d="M 57.6 307.584 
L 414.72 307.584 
" style="fill:none;stroke:#000000;stroke-linecap:square;stroke-linejoin:miter;stroke-width:0.8;"/>
   </g>
   <g id="patch_6">
    <path d="M 57.6 41.472 
L 414.72 41.472 
" style="fill:none;stroke:#000000;stroke-linecap:square;stroke-linejoin:miter;stroke-width:0.8;"/>
   </g>
  </g>
  <g id="axes_2">
   <g id="matplotlib.axis_3">
    <g id="ytick_19">
     <g id="line2d_37">
      <defs>
       <path d="M 0 0 
L 3.5 0 
" id="m708a9e2672" style="stroke:#000000;stroke-width:0.8;"/>
      </defs>
      <g>
       <use style="stroke:#000000;stroke-width:0.8;" x="414.72" xlink:href="#m708a9e2672" y="213.052019"/>
      </g>
     </g>
     <g id="text_7">
      <!-- $\mathdefault{10^{3}}$ -->
      <g transform="translate(421.72 216.851238)scale(0.1 -0.1)">
       <use transform="translate(0 0.765625)" xlink:href="#DejaVuSans-31"/>
       <use transform="translate(63.623047 0.765625)" xlink:href="#DejaVuSans-30"/>
       <use transform="translate(128.203125 39.046875)scale(0.7)" xlink:href="#DejaVuSans-33"/>
      </g>
     </g>
    </g>
    <g id="ytick_20">
     <g id="line2d_38">
      <g>
       <use style="stroke:#000000;stroke-width:0.8;" x="414.72" xlink:href="#m708a9e2672" y="60.13855"/>
      </g>
     </g>
     <g id="text_8">
      <!-- $\mathdefault{10^{4}}$ -->
      <defs>
       <path d="M 37.796875 64.3125 
L 12.890625 25.390625 
L 37.796875 25.390625 
z
M 35.203125 72.90625 
L 47.609375 72.90625 
L 47.609375 25.390625 
L 58.015625 25.390625 
L 58.015625 17.1875 
L 47.609375 17.1875 
L 47.609375 0 
L 37.796875 0 
L 37.796875 17.1875 
L 4.890625 17.1875 
L 4.890625 26.703125 
z
" id="DejaVuSans-34"/>
      </defs>
      <g transform="translate(421.72 63.937769)scale(0.1 -0.1)">
       <use transform="translate(0 0.684375)" xlink:href="#DejaVuSans-31"/>
       <use transform="translate(63.623047 0.684375)" xlink:href="#DejaVuSans-30"/>
       <use transform="translate(128.203125 38.965625)scale(0.7)" xlink:href="#DejaVuSans-34"/>
      </g>
     </g>
    </g>
    <g id="ytick_21">
     <g id="line2d_39">
      <defs>
       <path d="M 0 0 
L 2 0 
" id="m21d458a4ed" style="stroke:#000000;stroke-width:0.6;"/>
      </defs>
      <g>
       <use style="stroke:#000000;stroke-width:0.6;" x="414.72" xlink:href="#m21d458a4ed" y="293.007222"/>
      </g>
     </g>
    </g>
    <g id="ytick_22">
     <g id="line2d_40">
      <g>
       <use style="stroke:#000000;stroke-width:0.6;" x="414.72" xlink:href="#m21d458a4ed" y="273.902406"/>
      </g>
     </g>
    </g>
    <g id="ytick_23">
     <g id="line2d_41">
      <g>
       <use style="stroke:#000000;stroke-width:0.6;" x="414.72" xlink:href="#m21d458a4ed" y="259.08356"/>
      </g>
     </g>
    </g>
    <g id="ytick_24">
     <g id="line2d_42">
      <g>
       <use style="stroke:#000000;stroke-width:0.6;" x="414.72" xlink:href="#m21d458a4ed" y="246.975681"/>
      </g>
     </g>
    </g>
    <g id="ytick_25">
     <g id="line2d_43">
      <g>
       <use style="stroke:#000000;stroke-width:0.6;" x="414.72" xlink:href="#m21d458a4ed" y="236.738615"/>
      </g>
     </g>
    </g>
    <g id="ytick_26">
     <g id="line2d_44">
      <g>
       <use style="stroke:#000000;stroke-width:0.6;" x="414.72" xlink:href="#m21d458a4ed" y="227.870865"/>
      </g>
     </g>
    </g>
    <g id="ytick_27">
     <g id="line2d_45">
      <g>
       <use style="stroke:#000000;stroke-width:0.6;" x="414.72" xlink:href="#m21d458a4ed" y="220.048956"/>
      </g>
     </g>
    </g>
    <g id="ytick_28">
     <g id="line2d_46">
      <g>
       <use style="stroke:#000000;stroke-width:0.6;" x="414.72" xlink:href="#m21d458a4ed" y="167.020478"/>
      </g>
     </g>
    </g>
    <g id="ytick_29">
     <g id="line2d_47">
      <g>
       <use style="stroke:#000000;stroke-width:0.6;" x="414.72" xlink:href="#m21d458a4ed" y="140.093753"/>
      </g>
     </g>
    </g>
    <g id="ytick_30">
     <g id="line2d_48">
      <g>
       <use style="stroke:#000000;stroke-width:0.6;" x="414.72" xlink:href="#m21d458a4ed" y="120.988937"/>
      </g>
     </g>
    </g>
    <g id="ytick_31">
     <g id="line2d_49">
      <g>
       <use style="stroke:#000000;stroke-width:0.6;" x="414.72" xlink:href="#m21d458a4ed" y="106.170091"/>
      </g>
     </g>
    </g>
    <g id="ytick_32">
     <g id="line2d_50">
      <g>
       <use style="stroke:#000000;stroke-width:0.6;" x="414.72" xlink:href="#m21d458a4ed" y="94.062212"/>
      </g>
     </g>
    </g>
    <g id="ytick_33">
     <g id="line2d_51">
      <g>
       <use style="stroke:#000000;stroke-width:0.6;" x="414.72" xlink:href="#m21d458a4ed" y="83.825146"/>
      </g>
     </g>
    </g>
    <g id="ytick_34">
     <g id="line2d_52">
      <g>
       <use style="stroke:#000000;stroke-width:0.6;" x="414.72" xlink:href="#m21d458a4ed" y="74.957396"/>
      </g>
     </g>
    </g>
    <g id="ytick_35">
     <g id="line2d_53">
      <g>
       <use style="stroke:#000000;stroke-width:0.6;" x="414.72" xlink:href="#m21d458a4ed" y="67.135487"/>
      </g>
     </g>
    </g>
    <g id="text_9">
     <!-- Number of edge reactions -->
     <defs>
      <path d="M 34.28125 27.484375 
Q 23.390625 27.484375 19.1875 25 
Q 14.984375 22.515625 14.984375 16.5 
Q 14.984375 11.71875 18.140625 8.90625 
Q 21.296875 6.109375 26.703125 6.109375 
Q 34.1875 6.109375 38.703125 11.40625 
Q 43.21875 16.703125 43.21875 25.484375 
L 43.21875 27.484375 
z
M 52.203125 31.203125 
L 52.203125 0 
L 43.21875 0 
L 43.21875 8.296875 
Q 40.140625 3.328125 35.546875 0.953125 
Q 30.953125 -1.421875 24.3125 -1.421875 
Q 15.921875 -1.421875 10.953125 3.296875 
Q 6 8.015625 6 15.921875 
Q 6 25.140625 12.171875 29.828125 
Q 18.359375 34.515625 30.609375 34.515625 
L 43.21875 34.515625 
L 43.21875 35.40625 
Q 43.21875 41.609375 39.140625 45 
Q 35.0625 48.390625 27.6875 48.390625 
Q 23 48.390625 18.546875 47.265625 
Q 14.109375 46.140625 10.015625 43.890625 
L 10.015625 52.203125 
Q 14.9375 54.109375 19.578125 55.046875 
Q 24.21875 56 28.609375 56 
Q 40.484375 56 46.34375 49.84375 
Q 52.203125 43.703125 52.203125 31.203125 
z
" id="DejaVuSans-61"/>
     </defs>
     <g transform="translate(450.918438 239.828)rotate(-90)scale(0.1 -0.1)">
      <use xlink:href="#DejaVuSans-4e"/>
      <use x="74.804688" xlink:href="#DejaVuSans-75"/>
      <use x="138.183594" xlink:href="#DejaVuSans-6d"/>
      <use x="235.595703" xlink:href="#DejaVuSans-62"/>
      <use x="299.072266" xlink:href="#DejaVuSans-65"/>
      <use x="360.595703" xlink:href="#DejaVuSans-72"/>
      <use x="401.708984" xlink:href="#DejaVuSans-20"/>
      <use x="433.496094" xlink:href="#DejaVuSans-6f"/>
      <use x="494.677734" xlink:href="#DejaVuSans-66"/>
      <use x="529.882812" xlink:href="#DejaVuSans-20"/>
      <use x="561.669922" xlink:href="#DejaVuSans-65"/>
      <use x="623.193359" xlink:href="#DejaVuSans-64"/>
      <use x="686.669922" xlink:href="#DejaVuSans-67"/>
      <use x="750.146484" xlink:href="#DejaVuSans-65"/>
      <use x="811.669922" xlink:href="#DejaVuSans-20"/>
      <use x="843.457031" xlink:href="#DejaVuSans-72"/>
      <use x="884.539062" xlink:href="#DejaVuSans-65"/>
      <use x="946.0625" xlink:href="#DejaVuSans-61"/>
      <use x="1007.341797" xlink:href="#DejaVuSans-63"/>
      <use x="1062.322266" xlink:href="#DejaVuSans-74"/>
      <use x="1101.53125" xlink:href="#DejaVuSans-69"/>
      <use x="1129.314453" xlink:href="#DejaVuSans-6f"/>
      <use x="1190.496094" xlink:href="#DejaVuSans-6e"/>
      <use x="1253.875" xlink:href="#DejaVuSans-73"/>
     </g>
    </g>
   </g>
   <g id="line2d_54">
    <path clip-path="url(#p86c02446fd)" d="M 73.832727 295.488 
L 112.888762 255.088769 
L 165.122846 237.119186 
L 174.423136 229.722707 
L 179.746278 225.266238 
L 190.132903 217.800031 
L 194.556494 212.259849 
L 199.057926 211.21811 
L 220.16899 180.280538 
L 242.020734 171.911306 
L 245.38603 169.904612 
L 247.861588 168.804068 
L 259.189157 163.875287 
L 260.321733 162.90074 
L 261.365837 162.527303 
L 263.25877 156.169598 
L 267.167412 148.056933 
L 271.456906 142.276473 
L 279.160293 137.446569 
L 282.217625 136.286825 
L 284.527986 132.055749 
L 285.645066 131.762205 
L 290.929659 129.894646 
L 294.084088 124.57029 
L 299.119781 123.80375 
L 300.539846 123.217426 
L 301.825397 121.958924 
L 303.283731 115.801176 
L 307.19519 114.163226 
L 308.25216 113.745085 
L 310.244707 113.078541 
L 316.257258 111.304414 
L 319.05926 105.87853 
L 323.746902 104.194213 
L 328.216104 102.287954 
L 330.586178 101.096053 
L 331.705582 99.816447 
L 334.615346 98.348181 
L 337.824053 96.531502 
L 339.419286 96.119232 
L 340.295962 93.084373 
L 341.937411 92.617043 
L 343.081065 86.992265 
L 344.737672 86.615219 
L 346.949324 82.584514 
L 348.96484 81.540565 
L 349.80052 78.828498 
L 350.778851 75.801153 
L 352.082299 74.75019 
L 352.466674 74.733642 
L 355.420204 70.224154 
L 358.717427 69.143054 
L 359.441789 68.884976 
L 362.195677 67.914819 
L 363.027324 67.631718 
L 366.288403 66.547788 
L 368.697845 65.625369 
L 371.488658 64.573444 
L 374.688967 63.412225 
L 376.306319 62.663003 
L 377.069347 62.387644 
L 377.591227 62.216123 
L 380.508864 61.155724 
L 381.820742 60.571621 
L 383.117196 59.952863 
L 384.315691 59.490906 
L 386.784742 58.570034 
L 390.644286 57.189997 
L 391.65204 56.746801 
L 393.081985 56.093752 
L 394.591443 55.453252 
L 395.814669 54.818869 
L 396.769618 54.378989 
L 397.253247 54.208708 
L 398.487273 53.568 
" style="fill:none;stroke:#ff0000;stroke-linecap:square;stroke-width:1.5;"/>
    <defs>
     <path d="M 0 3 
C 0.795609 3 1.55874 2.683901 2.12132 2.12132 
C 2.683901 1.55874 3 0.795609 3 0 
C 3 -0.795609 2.683901 -1.55874 2.12132 -2.12132 
C 1.55874 -2.683901 0.795609 -3 0 -3 
C -0.795609 -3 -1.55874 -2.683901 -2.12132 -2.12132 
C -2.683901 -1.55874 -3 -0.795609 -3 0 
C -3 0.795609 -2.683901 1.55874 -2.12132 2.12132 
C -1.55874 2.683901 -0.795609 3 0 3 
z
" id="m2e3bff0a4f" style="stroke:#ff0000;"/>
    </defs>
    <g clip-path="url(#p86c02446fd)">
     <use style="fill:#ff0000;stroke:#ff0000;" x="73.832727" xlink:href="#m2e3bff0a4f" y="295.488"/>
     <use style="fill:#ff0000;stroke:#ff0000;" x="112.888762" xlink:href="#m2e3bff0a4f" y="255.088769"/>
     <use style="fill:#ff0000;stroke:#ff0000;" x="165.122846" xlink:href="#m2e3bff0a4f" y="237.119186"/>
     <use style="fill:#ff0000;stroke:#ff0000;" x="174.423136" xlink:href="#m2e3bff0a4f" y="229.722707"/>
     <use style="fill:#ff0000;stroke:#ff0000;" x="179.746278" xlink:href="#m2e3bff0a4f" y="225.266238"/>
     <use style="fill:#ff0000;stroke:#ff0000;" x="190.132903" xlink:href="#m2e3bff0a4f" y="217.800031"/>
     <use style="fill:#ff0000;stroke:#ff0000;" x="194.556494" xlink:href="#m2e3bff0a4f" y="212.259849"/>
     <use style="fill:#ff0000;stroke:#ff0000;" x="199.057926" xlink:href="#m2e3bff0a4f" y="211.21811"/>
     <use style="fill:#ff0000;stroke:#ff0000;" x="220.16899" xlink:href="#m2e3bff0a4f" y="180.280538"/>
     <use style="fill:#ff0000;stroke:#ff0000;" x="242.020734" xlink:href="#m2e3bff0a4f" y="171.911306"/>
     <use style="fill:#ff0000;stroke:#ff0000;" x="245.38603" xlink:href="#m2e3bff0a4f" y="169.904612"/>
     <use style="fill:#ff0000;stroke:#ff0000;" x="247.861588" xlink:href="#m2e3bff0a4f" y="168.804068"/>
     <use style="fill:#ff0000;stroke:#ff0000;" x="259.189157" xlink:href="#m2e3bff0a4f" y="163.875287"/>
     <use style="fill:#ff0000;stroke:#ff0000;" x="260.321733" xlink:href="#m2e3bff0a4f" y="162.90074"/>
     <use style="fill:#ff0000;stroke:#ff0000;" x="261.365837" xlink:href="#m2e3bff0a4f" y="162.527303"/>
     <use style="fill:#ff0000;stroke:#ff0000;" x="263.25877" xlink:href="#m2e3bff0a4f" y="156.169598"/>
     <use style="fill:#ff0000;stroke:#ff0000;" x="267.167412" xlink:href="#m2e3bff0a4f" y="148.056933"/>
     <use style="fill:#ff0000;stroke:#ff0000;" x="271.456906" xlink:href="#m2e3bff0a4f" y="142.276473"/>
     <use style="fill:#ff0000;stroke:#ff0000;" x="279.160293" xlink:href="#m2e3bff0a4f" y="137.446569"/>
     <use style="fill:#ff0000;stroke:#ff0000;" x="282.217625" xlink:href="#m2e3bff0a4f" y="136.286825"/>
     <use style="fill:#ff0000;stroke:#ff0000;" x="284.527986" xlink:href="#m2e3bff0a4f" y="132.055749"/>
     <use style="fill:#ff0000;stroke:#ff0000;" x="285.645066" xlink:href="#m2e3bff0a4f" y="131.762205"/>
     <use style="fill:#ff0000;stroke:#ff0000;" x="290.929659" xlink:href="#m2e3bff0a4f" y="129.894646"/>
     <use style="fill:#ff0000;stroke:#ff0000;" x="294.084088" xlink:href="#m2e3bff0a4f" y="124.57029"/>
     <use style="fill:#ff0000;stroke:#ff0000;" x="299.119781" xlink:href="#m2e3bff0a4f" y="123.80375"/>
     <use style="fill:#ff0000;stroke:#ff0000;" x="300.539846" xlink:href="#m2e3bff0a4f" y="123.217426"/>
     <use style="fill:#ff0000;stroke:#ff0000;" x="301.825397" xlink:href="#m2e3bff0a4f" y="121.958924"/>
     <use style="fill:#ff0000;stroke:#ff0000;" x="303.283731" xlink:href="#m2e3bff0a4f" y="115.801176"/>
     <use style="fill:#ff0000;stroke:#ff0000;" x="307.19519" xlink:href="#m2e3bff0a4f" y="114.163226"/>
     <use style="fill:#ff0000;stroke:#ff0000;" x="308.25216" xlink:href="#m2e3bff0a4f" y="113.745085"/>
     <use style="fill:#ff0000;stroke:#ff0000;" x="310.244707" xlink:href="#m2e3bff0a4f" y="113.078541"/>
     <use style="fill:#ff0000;stroke:#ff0000;" x="316.257258" xlink:href="#m2e3bff0a4f" y="111.304414"/>
     <use style="fill:#ff0000;stroke:#ff0000;" x="319.05926" xlink:href="#m2e3bff0a4f" y="105.87853"/>
     <use style="fill:#ff0000;stroke:#ff0000;" x="323.746902" xlink:href="#m2e3bff0a4f" y="104.194213"/>
     <use style="fill:#ff0000;stroke:#ff0000;" x="328.216104" xlink:href="#m2e3bff0a4f" y="102.287954"/>
     <use style="fill:#ff0000;stroke:#ff0000;" x="330.586178" xlink:href="#m2e3bff0a4f" y="101.096053"/>
     <use style="fill:#ff0000;stroke:#ff0000;" x="331.705582" xlink:href="#m2e3bff0a4f" y="99.816447"/>
     <use style="fill:#ff0000;stroke:#ff0000;" x="334.615346" xlink:href="#m2e3bff0a4f" y="98.348181"/>
     <use style="fill:#ff0000;stroke:#ff0000;" x="337.824053" xlink:href="#m2e3bff0a4f" y="96.531502"/>
     <use style="fill:#ff0000;stroke:#ff0000;" x="339.419286" xlink:href="#m2e3bff0a4f" y="96.119232"/>
     <use style="fill:#ff0000;stroke:#ff0000;" x="340.295962" xlink:href="#m2e3bff0a4f" y="93.084373"/>
     <use style="fill:#ff0000;stroke:#ff0000;" x="341.937411" xlink:href="#m2e3bff0a4f" y="92.617043"/>
     <use style="fill:#ff0000;stroke:#ff0000;" x="343.081065" xlink:href="#m2e3bff0a4f" y="86.992265"/>
     <use style="fill:#ff0000;stroke:#ff0000;" x="344.737672" xlink:href="#m2e3bff0a4f" y="86.615219"/>
     <use style="fill:#ff0000;stroke:#ff0000;" x="346.949324" xlink:href="#m2e3bff0a4f" y="82.584514"/>
     <use style="fill:#ff0000;stroke:#ff0000;" x="348.96484" xlink:href="#m2e3bff0a4f" y="81.540565"/>
     <use style="fill:#ff0000;stroke:#ff0000;" x="349.80052" xlink:href="#m2e3bff0a4f" y="78.828498"/>
     <use style="fill:#ff0000;stroke:#ff0000;" x="350.778851" xlink:href="#m2e3bff0a4f" y="75.801153"/>
     <use style="fill:#ff0000;stroke:#ff0000;" x="352.082299" xlink:href="#m2e3bff0a4f" y="74.75019"/>
     <use style="fill:#ff0000;stroke:#ff0000;" x="352.466674" xlink:href="#m2e3bff0a4f" y="74.733642"/>
     <use style="fill:#ff0000;stroke:#ff0000;" x="355.420204" xlink:href="#m2e3bff0a4f" y="70.224154"/>
     <use style="fill:#ff0000;stroke:#ff0000;" x="358.717427" xlink:href="#m2e3bff0a4f" y="69.143054"/>
     <use style="fill:#ff0000;stroke:#ff0000;" x="359.441789" xlink:href="#m2e3bff0a4f" y="68.884976"/>
     <use style="fill:#ff0000;stroke:#ff0000;" x="362.195677" xlink:href="#m2e3bff0a4f" y="67.914819"/>
     <use style="fill:#ff0000;stroke:#ff0000;" x="363.027324" xlink:href="#m2e3bff0a4f" y="67.631718"/>
     <use style="fill:#ff0000;stroke:#ff0000;" x="366.288403" xlink:href="#m2e3bff0a4f" y="66.547788"/>
     <use style="fill:#ff0000;stroke:#ff0000;" x="368.697845" xlink:href="#m2e3bff0a4f" y="65.625369"/>
     <use style="fill:#ff0000;stroke:#ff0000;" x="371.488658" xlink:href="#m2e3bff0a4f" y="64.573444"/>
     <use style="fill:#ff0000;stroke:#ff0000;" x="374.688967" xlink:href="#m2e3bff0a4f" y="63.412225"/>
     <use style="fill:#ff0000;stroke:#ff0000;" x="376.306319" xlink:href="#m2e3bff0a4f" y="62.663003"/>
     <use style="fill:#ff0000;stroke:#ff0000;" x="377.069347" xlink:href="#m2e3bff0a4f" y="62.387644"/>
     <use style="fill:#ff0000;stroke:#ff0000;" x="377.591227" xlink:href="#m2e3bff0a4f" y="62.216123"/>
     <use style="fill:#ff0000;stroke:#ff0000;" x="380.508864" xlink:href="#m2e3bff0a4f" y="61.155724"/>
     <use style="fill:#ff0000;stroke:#ff0000;" x="381.820742" xlink:href="#m2e3bff0a4f" y="60.571621"/>
     <use style="fill:#ff0000;stroke:#ff0000;" x="383.117196" xlink:href="#m2e3bff0a4f" y="59.952863"/>
     <use style="fill:#ff0000;stroke:#ff0000;" x="384.315691" xlink:href="#m2e3bff0a4f" y="59.490906"/>
     <use style="fill:#ff0000;stroke:#ff0000;" x="386.784742" xlink:href="#m2e3bff0a4f" y="58.570034"/>
     <use style="fill:#ff0000;stroke:#ff0000;" x="390.644286" xlink:href="#m2e3bff0a4f" y="57.189997"/>
     <use style="fill:#ff0000;stroke:#ff0000;" x="391.65204" xlink:href="#m2e3bff0a4f" y="56.746801"/>
     <use style="fill:#ff0000;stroke:#ff0000;" x="393.081985" xlink:href="#m2e3bff0a4f" y="56.093752"/>
     <use style="fill:#ff0000;stroke:#ff0000;" x="394.591443" xlink:href="#m2e3bff0a4f" y="55.453252"/>
     <use style="fill:#ff0000;stroke:#ff0000;" x="395.814669" xlink:href="#m2e3bff0a4f" y="54.818869"/>
     <use style="fill:#ff0000;stroke:#ff0000;" x="396.769618" xlink:href="#m2e3bff0a4f" y="54.378989"/>
     <use style="fill:#ff0000;stroke:#ff0000;" x="397.253247" xlink:href="#m2e3bff0a4f" y="54.208708"/>
     <use style="fill:#ff0000;stroke:#ff0000;" x="398.487273" xlink:href="#m2e3bff0a4f" y="53.568"/>
    </g>
   </g>
   <g id="patch_7">
    <path d="M 57.6 307.584 
L 57.6 41.472 
" style="fill:none;stroke:#000000;stroke-linecap:square;stroke-linejoin:miter;stroke-width:0.8;"/>
   </g>
   <g id="patch_8">
    <path d="M 414.72 307.584 
L 414.72 41.472 
" style="fill:none;stroke:#000000;stroke-linecap:square;stroke-linejoin:miter;stroke-width:0.8;"/>
   </g>
   <g id="patch_9">
    <path d="M 57.6 307.584 
L 414.72 307.584 
" style="fill:none;stroke:#000000;stroke-linecap:square;stroke-linejoin:miter;stroke-width:0.8;"/>
   </g>
   <g id="patch_10">
    <path d="M 57.6 41.472 
L 414.72 41.472 
" style="fill:none;stroke:#000000;stroke-linecap:square;stroke-linejoin:miter;stroke-width:0.8;"/>
   </g>
  </g>
 </g>
 <defs>
  <clipPath id="p86c02446fd">
   <rect height="266.112" width="357.12" x="57.6" y="41.472"/>
  </clipPath>
 </defs>
</svg>
