<?xml version="1.0" encoding="utf-8" standalone="no"?>
<!DOCTYPE svg PUBLIC "-//W3C//DTD SVG 1.1//EN"
  "http://www.w3.org/Graphics/SVG/1.1/DTD/svg11.dtd">
<!-- Created with matplotlib (http://matplotlib.org/) -->
<svg height="345.6pt" version="1.1" viewBox="0 0 460.8 345.6" width="460.8pt" xmlns="http://www.w3.org/2000/svg" xmlns:xlink="http://www.w3.org/1999/xlink">
 <defs>
  <style type="text/css">
*{stroke-linecap:butt;stroke-linejoin:round;}
  </style>
 </defs>
 <g id="figure_1">
  <g id="patch_1">
   <path d="M 0 345.6 
L 460.8 345.6 
L 460.8 0 
L 0 0 
z
" style="fill:#ffffff;"/>
  </g>
  <g id="axes_1">
   <g id="patch_2">
    <path d="M 57.6 307.584 
L 414.72 307.584 
L 414.72 41.472 
L 57.6 41.472 
z
" style="fill:#ffffff;"/>
   </g>
   <g id="matplotlib.axis_1">
    <g id="xtick_1">
     <g id="line2d_1">
      <defs>
       <path d="M 0 0 
L 0 3.5 
" id="ma9a489b514" style="stroke:#000000;stroke-width:0.8;"/>
      </defs>
      <g>
       <use style="stroke:#000000;stroke-width:0.8;" x="76.847123" xlink:href="#ma9a489b514" y="307.584"/>
      </g>
     </g>
     <g id="text_1">
      <!-- $\mathdefault{10^{2}}$ -->
      <defs>
       <path d="M 12.40625 8.296875 
L 28.515625 8.296875 
L 28.515625 63.921875 
L 10.984375 60.40625 
L 10.984375 69.390625 
L 28.421875 72.90625 
L 38.28125 72.90625 
L 38.28125 8.296875 
L 54.390625 8.296875 
L 54.390625 0 
L 12.40625 0 
z
" id="DejaVuSans-31"/>
       <path d="M 31.78125 66.40625 
Q 24.171875 66.40625 20.328125 58.90625 
Q 16.5 51.421875 16.5 36.375 
Q 16.5 21.390625 20.328125 13.890625 
Q 24.171875 6.390625 31.78125 6.390625 
Q 39.453125 6.390625 43.28125 13.890625 
Q 47.125 21.390625 47.125 36.375 
Q 47.125 51.421875 43.28125 58.90625 
Q 39.453125 66.40625 31.78125 66.40625 
z
M 31.78125 74.21875 
Q 44.046875 74.21875 50.515625 64.515625 
Q 56.984375 54.828125 56.984375 36.375 
Q 56.984375 17.96875 50.515625 8.265625 
Q 44.046875 -1.421875 31.78125 -1.421875 
Q 19.53125 -1.421875 13.0625 8.265625 
Q 6.59375 17.96875 6.59375 36.375 
Q 6.59375 54.828125 13.0625 64.515625 
Q 19.53125 74.21875 31.78125 74.21875 
z
" id="DejaVuSans-30"/>
       <path d="M 19.1875 8.296875 
L 53.609375 8.296875 
L 53.609375 0 
L 7.328125 0 
L 7.328125 8.296875 
Q 12.9375 14.109375 22.625 23.890625 
Q 32.328125 33.6875 34.8125 36.53125 
Q 39.546875 41.84375 41.421875 45.53125 
Q 43.3125 49.21875 43.3125 52.78125 
Q 43.3125 58.59375 39.234375 62.25 
Q 35.15625 65.921875 28.609375 65.921875 
Q 23.96875 65.921875 18.8125 64.3125 
Q 13.671875 62.703125 7.8125 59.421875 
L 7.8125 69.390625 
Q 13.765625 71.78125 18.9375 73 
Q 24.125 74.21875 28.421875 74.21875 
Q 39.75 74.21875 46.484375 68.546875 
Q 53.21875 62.890625 53.21875 53.421875 
Q 53.21875 48.921875 51.53125 44.890625 
Q 49.859375 40.875 45.40625 35.40625 
Q 44.1875 33.984375 37.640625 27.21875 
Q 31.109375 20.453125 19.1875 8.296875 
z
" id="DejaVuSans-32"/>
      </defs>
      <g transform="translate(68.047123 322.182437)scale(0.1 -0.1)">
       <use transform="translate(0 0.765625)" xlink:href="#DejaVuSans-31"/>
       <use transform="translate(63.623047 0.765625)" xlink:href="#DejaVuSans-30"/>
       <use transform="translate(128.203125 39.046875)scale(0.7)" xlink:href="#DejaVuSans-32"/>
      </g>
     </g>
    </g>
    <g id="xtick_2">
     <g id="line2d_2">
      <g>
       <use style="stroke:#000000;stroke-width:0.8;" x="260.717845" xlink:href="#ma9a489b514" y="307.584"/>
      </g>
     </g>
     <g id="text_2">
      <!-- $\mathdefault{10^{3}}$ -->
      <defs>
       <path d="M 40.578125 39.3125 
Q 47.65625 37.796875 51.625 33 
Q 55.609375 28.21875 55.609375 21.1875 
Q 55.609375 10.40625 48.1875 4.484375 
Q 40.765625 -1.421875 27.09375 -1.421875 
Q 22.515625 -1.421875 17.65625 -0.515625 
Q 12.796875 0.390625 7.625 2.203125 
L 7.625 11.71875 
Q 11.71875 9.328125 16.59375 8.109375 
Q 21.484375 6.890625 26.8125 6.890625 
Q 36.078125 6.890625 40.9375 10.546875 
Q 45.796875 14.203125 45.796875 21.1875 
Q 45.796875 27.640625 41.28125 31.265625 
Q 36.765625 34.90625 28.71875 34.90625 
L 20.21875 34.90625 
L 20.21875 43.015625 
L 29.109375 43.015625 
Q 36.375 43.015625 40.234375 45.921875 
Q 44.09375 48.828125 44.09375 54.296875 
Q 44.09375 59.90625 40.109375 62.90625 
Q 36.140625 65.921875 28.71875 65.921875 
Q 24.65625 65.921875 20.015625 65.03125 
Q 15.375 64.15625 9.8125 62.3125 
L 9.8125 71.09375 
Q 15.4375 72.65625 20.34375 73.4375 
Q 25.25 74.21875 29.59375 74.21875 
Q 40.828125 74.21875 47.359375 69.109375 
Q 53.90625 64.015625 53.90625 55.328125 
Q 53.90625 49.265625 50.4375 45.09375 
Q 46.96875 40.921875 40.578125 39.3125 
z
" id="DejaVuSans-33"/>
      </defs>
      <g transform="translate(251.917845 322.182437)scale(0.1 -0.1)">
       <use transform="translate(0 0.765625)" xlink:href="#DejaVuSans-31"/>
       <use transform="translate(63.623047 0.765625)" xlink:href="#DejaVuSans-30"/>
       <use transform="translate(128.203125 39.046875)scale(0.7)" xlink:href="#DejaVuSans-33"/>
      </g>
     </g>
    </g>
    <g id="xtick_3">
     <g id="line2d_3">
      <defs>
       <path d="M 0 0 
L 0 2 
" id="mc42848cda1" style="stroke:#000000;stroke-width:0.6;"/>
      </defs>
      <g>
       <use style="stroke:#000000;stroke-width:0.6;" x="59.028209" xlink:href="#mc42848cda1" y="307.584"/>
      </g>
     </g>
    </g>
    <g id="xtick_4">
     <g id="line2d_4">
      <g>
       <use style="stroke:#000000;stroke-width:0.6;" x="68.43366" xlink:href="#mc42848cda1" y="307.584"/>
      </g>
     </g>
    </g>
    <g id="xtick_5">
     <g id="line2d_5">
      <g>
       <use style="stroke:#000000;stroke-width:0.6;" x="132.197725" xlink:href="#mc42848cda1" y="307.584"/>
      </g>
     </g>
    </g>
    <g id="xtick_6">
     <g id="line2d_6">
      <g>
       <use style="stroke:#000000;stroke-width:0.6;" x="164.575752" xlink:href="#mc42848cda1" y="307.584"/>
      </g>
     </g>
    </g>
    <g id="xtick_7">
     <g id="line2d_7">
      <g>
       <use style="stroke:#000000;stroke-width:0.6;" x="187.548328" xlink:href="#mc42848cda1" y="307.584"/>
      </g>
     </g>
    </g>
    <g id="xtick_8">
     <g id="line2d_8">
      <g>
       <use style="stroke:#000000;stroke-width:0.6;" x="205.367242" xlink:href="#mc42848cda1" y="307.584"/>
      </g>
     </g>
    </g>
    <g id="xtick_9">
     <g id="line2d_9">
      <g>
       <use style="stroke:#000000;stroke-width:0.6;" x="219.926355" xlink:href="#mc42848cda1" y="307.584"/>
      </g>
     </g>
    </g>
    <g id="xtick_10">
     <g id="line2d_10">
      <g>
       <use style="stroke:#000000;stroke-width:0.6;" x="232.235909" xlink:href="#mc42848cda1" y="307.584"/>
      </g>
     </g>
    </g>
    <g id="xtick_11">
     <g id="line2d_11">
      <g>
       <use style="stroke:#000000;stroke-width:0.6;" x="242.898931" xlink:href="#mc42848cda1" y="307.584"/>
      </g>
     </g>
    </g>
    <g id="xtick_12">
     <g id="line2d_12">
      <g>
       <use style="stroke:#000000;stroke-width:0.6;" x="252.304382" xlink:href="#mc42848cda1" y="307.584"/>
      </g>
     </g>
    </g>
    <g id="xtick_13">
     <g id="line2d_13">
      <g>
       <use style="stroke:#000000;stroke-width:0.6;" x="316.068447" xlink:href="#mc42848cda1" y="307.584"/>
      </g>
     </g>
    </g>
    <g id="xtick_14">
     <g id="line2d_14">
      <g>
       <use style="stroke:#000000;stroke-width:0.6;" x="348.446474" xlink:href="#mc42848cda1" y="307.584"/>
      </g>
     </g>
    </g>
    <g id="xtick_15">
     <g id="line2d_15">
      <g>
       <use style="stroke:#000000;stroke-width:0.6;" x="371.41905" xlink:href="#mc42848cda1" y="307.584"/>
      </g>
     </g>
    </g>
    <g id="xtick_16">
     <g id="line2d_16">
      <g>
       <use style="stroke:#000000;stroke-width:0.6;" x="389.237964" xlink:href="#mc42848cda1" y="307.584"/>
      </g>
     </g>
    </g>
    <g id="xtick_17">
     <g id="line2d_17">
      <g>
       <use style="stroke:#000000;stroke-width:0.6;" x="403.797077" xlink:href="#mc42848cda1" y="307.584"/>
      </g>
     </g>
    </g>
    <g id="text_3">
     <!-- Execution time (s) -->
     <defs>
      <path d="M 9.8125 72.90625 
L 55.90625 72.90625 
L 55.90625 64.59375 
L 19.671875 64.59375 
L 19.671875 43.015625 
L 54.390625 43.015625 
L 54.390625 34.71875 
L 19.671875 34.71875 
L 19.671875 8.296875 
L 56.78125 8.296875 
L 56.78125 0 
L 9.8125 0 
z
" id="DejaVuSans-45"/>
      <path d="M 54.890625 54.6875 
L 35.109375 28.078125 
L 55.90625 0 
L 45.3125 0 
L 29.390625 21.484375 
L 13.484375 0 
L 2.875 0 
L 24.125 28.609375 
L 4.6875 54.6875 
L 15.28125 54.6875 
L 29.78125 35.203125 
L 44.28125 54.6875 
z
" id="DejaVuSans-78"/>
      <path d="M 56.203125 29.59375 
L 56.203125 25.203125 
L 14.890625 25.203125 
Q 15.484375 15.921875 20.484375 11.0625 
Q 25.484375 6.203125 34.421875 6.203125 
Q 39.59375 6.203125 44.453125 7.46875 
Q 49.3125 8.734375 54.109375 11.28125 
L 54.109375 2.78125 
Q 49.265625 0.734375 44.1875 -0.34375 
Q 39.109375 -1.421875 33.890625 -1.421875 
Q 20.796875 -1.421875 13.15625 6.1875 
Q 5.515625 13.8125 5.515625 26.8125 
Q 5.515625 40.234375 12.765625 48.109375 
Q 20.015625 56 32.328125 56 
Q 43.359375 56 49.78125 48.890625 
Q 56.203125 41.796875 56.203125 29.59375 
z
M 47.21875 32.234375 
Q 47.125 39.59375 43.09375 43.984375 
Q 39.0625 48.390625 32.421875 48.390625 
Q 24.90625 48.390625 20.390625 44.140625 
Q 15.875 39.890625 15.1875 32.171875 
z
" id="DejaVuSans-65"/>
      <path d="M 48.78125 52.59375 
L 48.78125 44.1875 
Q 44.96875 46.296875 41.140625 47.34375 
Q 37.3125 48.390625 33.40625 48.390625 
Q 24.65625 48.390625 19.8125 42.84375 
Q 14.984375 37.3125 14.984375 27.296875 
Q 14.984375 17.28125 19.8125 11.734375 
Q 24.65625 6.203125 33.40625 6.203125 
Q 37.3125 6.203125 41.140625 7.25 
Q 44.96875 8.296875 48.78125 10.40625 
L 48.78125 2.09375 
Q 45.015625 0.34375 40.984375 -0.53125 
Q 36.96875 -1.421875 32.421875 -1.421875 
Q 20.0625 -1.421875 12.78125 6.34375 
Q 5.515625 14.109375 5.515625 27.296875 
Q 5.515625 40.671875 12.859375 48.328125 
Q 20.21875 56 33.015625 56 
Q 37.15625 56 41.109375 55.140625 
Q 45.0625 54.296875 48.78125 52.59375 
z
" id="DejaVuSans-63"/>
      <path d="M 8.5 21.578125 
L 8.5 54.6875 
L 17.484375 54.6875 
L 17.484375 21.921875 
Q 17.484375 14.15625 20.5 10.265625 
Q 23.53125 6.390625 29.59375 6.390625 
Q 36.859375 6.390625 41.078125 11.03125 
Q 45.3125 15.671875 45.3125 23.6875 
L 45.3125 54.6875 
L 54.296875 54.6875 
L 54.296875 0 
L 45.3125 0 
L 45.3125 8.40625 
Q 42.046875 3.421875 37.71875 1 
Q 33.40625 -1.421875 27.6875 -1.421875 
Q 18.265625 -1.421875 13.375 4.4375 
Q 8.5 10.296875 8.5 21.578125 
z
M 31.109375 56 
z
" id="DejaVuSans-75"/>
      <path d="M 18.3125 70.21875 
L 18.3125 54.6875 
L 36.8125 54.6875 
L 36.8125 47.703125 
L 18.3125 47.703125 
L 18.3125 18.015625 
Q 18.3125 11.328125 20.140625 9.421875 
Q 21.96875 7.515625 27.59375 7.515625 
L 36.8125 7.515625 
L 36.8125 0 
L 27.59375 0 
Q 17.1875 0 13.234375 3.875 
Q 9.28125 7.765625 9.28125 18.015625 
L 9.28125 47.703125 
L 2.6875 47.703125 
L 2.6875 54.6875 
L 9.28125 54.6875 
L 9.28125 70.21875 
z
" id="DejaVuSans-74"/>
      <path d="M 9.421875 54.6875 
L 18.40625 54.6875 
L 18.40625 0 
L 9.421875 0 
z
M 9.421875 75.984375 
L 18.40625 75.984375 
L 18.40625 64.59375 
L 9.421875 64.59375 
z
" id="DejaVuSans-69"/>
      <path d="M 30.609375 48.390625 
Q 23.390625 48.390625 19.1875 42.75 
Q 14.984375 37.109375 14.984375 27.296875 
Q 14.984375 17.484375 19.15625 11.84375 
Q 23.34375 6.203125 30.609375 6.203125 
Q 37.796875 6.203125 41.984375 11.859375 
Q 46.1875 17.53125 46.1875 27.296875 
Q 46.1875 37.015625 41.984375 42.703125 
Q 37.796875 48.390625 30.609375 48.390625 
z
M 30.609375 56 
Q 42.328125 56 49.015625 48.375 
Q 55.71875 40.765625 55.71875 27.296875 
Q 55.71875 13.875 49.015625 6.21875 
Q 42.328125 -1.421875 30.609375 -1.421875 
Q 18.84375 -1.421875 12.171875 6.21875 
Q 5.515625 13.875 5.515625 27.296875 
Q 5.515625 40.765625 12.171875 48.375 
Q 18.84375 56 30.609375 56 
z
" id="DejaVuSans-6f"/>
      <path d="M 54.890625 33.015625 
L 54.890625 0 
L 45.90625 0 
L 45.90625 32.71875 
Q 45.90625 40.484375 42.875 44.328125 
Q 39.84375 48.1875 33.796875 48.1875 
Q 26.515625 48.1875 22.3125 43.546875 
Q 18.109375 38.921875 18.109375 30.90625 
L 18.109375 0 
L 9.078125 0 
L 9.078125 54.6875 
L 18.109375 54.6875 
L 18.109375 46.1875 
Q 21.34375 51.125 25.703125 53.5625 
Q 30.078125 56 35.796875 56 
Q 45.21875 56 50.046875 50.171875 
Q 54.890625 44.34375 54.890625 33.015625 
z
" id="DejaVuSans-6e"/>
      <path id="DejaVuSans-20"/>
      <path d="M 52 44.1875 
Q 55.375 50.25 60.0625 53.125 
Q 64.75 56 71.09375 56 
Q 79.640625 56 84.28125 50.015625 
Q 88.921875 44.046875 88.921875 33.015625 
L 88.921875 0 
L 79.890625 0 
L 79.890625 32.71875 
Q 79.890625 40.578125 77.09375 44.375 
Q 74.3125 48.1875 68.609375 48.1875 
Q 61.625 48.1875 57.5625 43.546875 
Q 53.515625 38.921875 53.515625 30.90625 
L 53.515625 0 
L 44.484375 0 
L 44.484375 32.71875 
Q 44.484375 40.625 41.703125 44.40625 
Q 38.921875 48.1875 33.109375 48.1875 
Q 26.21875 48.1875 22.15625 43.53125 
Q 18.109375 38.875 18.109375 30.90625 
L 18.109375 0 
L 9.078125 0 
L 9.078125 54.6875 
L 18.109375 54.6875 
L 18.109375 46.1875 
Q 21.1875 51.21875 25.484375 53.609375 
Q 29.78125 56 35.6875 56 
Q 41.65625 56 45.828125 52.96875 
Q 50 49.953125 52 44.1875 
z
" id="DejaVuSans-6d"/>
      <path d="M 31 75.875 
Q 24.46875 64.65625 21.28125 53.65625 
Q 18.109375 42.671875 18.109375 31.390625 
Q 18.109375 20.125 21.3125 9.0625 
Q 24.515625 -2 31 -13.1875 
L 23.1875 -13.1875 
Q 15.875 -1.703125 12.234375 9.375 
Q 8.59375 20.453125 8.59375 31.390625 
Q 8.59375 42.28125 12.203125 53.3125 
Q 15.828125 64.359375 23.1875 75.875 
z
" id="DejaVuSans-28"/>
      <path d="M 44.28125 53.078125 
L 44.28125 44.578125 
Q 40.484375 46.53125 36.375 47.5 
Q 32.28125 48.484375 27.875 48.484375 
Q 21.1875 48.484375 17.84375 46.4375 
Q 14.5 44.390625 14.5 40.28125 
Q 14.5 37.15625 16.890625 35.375 
Q 19.28125 33.59375 26.515625 31.984375 
L 29.59375 31.296875 
Q 39.15625 29.25 43.1875 25.515625 
Q 47.21875 21.78125 47.21875 15.09375 
Q 47.21875 7.46875 41.1875 3.015625 
Q 35.15625 -1.421875 24.609375 -1.421875 
Q 20.21875 -1.421875 15.453125 -0.5625 
Q 10.6875 0.296875 5.421875 2 
L 5.421875 11.28125 
Q 10.40625 8.6875 15.234375 7.390625 
Q 20.0625 6.109375 24.8125 6.109375 
Q 31.15625 6.109375 34.5625 8.28125 
Q 37.984375 10.453125 37.984375 14.40625 
Q 37.984375 18.0625 35.515625 20.015625 
Q 33.0625 21.96875 24.703125 23.78125 
L 21.578125 24.515625 
Q 13.234375 26.265625 9.515625 29.90625 
Q 5.8125 33.546875 5.8125 39.890625 
Q 5.8125 47.609375 11.28125 51.796875 
Q 16.75 56 26.8125 56 
Q 31.78125 56 36.171875 55.265625 
Q 40.578125 54.546875 44.28125 53.078125 
z
" id="DejaVuSans-73"/>
      <path d="M 8.015625 75.875 
L 15.828125 75.875 
Q 23.140625 64.359375 26.78125 53.3125 
Q 30.421875 42.28125 30.421875 31.390625 
Q 30.421875 20.453125 26.78125 9.375 
Q 23.140625 -1.703125 15.828125 -13.1875 
L 8.015625 -13.1875 
Q 14.5 -2 17.703125 9.0625 
Q 20.90625 20.125 20.90625 31.390625 
Q 20.90625 42.671875 17.703125 53.65625 
Q 14.5 64.65625 8.015625 75.875 
z
" id="DejaVuSans-29"/>
     </defs>
     <g transform="translate(190.49125 335.860562)scale(0.1 -0.1)">
      <use xlink:href="#DejaVuSans-45"/>
      <use x="63.183594" xlink:href="#DejaVuSans-78"/>
      <use x="122.316406" xlink:href="#DejaVuSans-65"/>
      <use x="183.839844" xlink:href="#DejaVuSans-63"/>
      <use x="238.820312" xlink:href="#DejaVuSans-75"/>
      <use x="302.199219" xlink:href="#DejaVuSans-74"/>
      <use x="341.408203" xlink:href="#DejaVuSans-69"/>
      <use x="369.191406" xlink:href="#DejaVuSans-6f"/>
      <use x="430.373047" xlink:href="#DejaVuSans-6e"/>
      <use x="493.751953" xlink:href="#DejaVuSans-20"/>
      <use x="525.539062" xlink:href="#DejaVuSans-74"/>
      <use x="564.748047" xlink:href="#DejaVuSans-69"/>
      <use x="592.53125" xlink:href="#DejaVuSans-6d"/>
      <use x="689.943359" xlink:href="#DejaVuSans-65"/>
      <use x="751.466797" xlink:href="#DejaVuSans-20"/>
      <use x="783.253906" xlink:href="#DejaVuSans-28"/>
      <use x="822.267578" xlink:href="#DejaVuSans-73"/>
      <use x="874.367188" xlink:href="#DejaVuSans-29"/>
     </g>
    </g>
   </g>
   <g id="matplotlib.axis_2">
    <g id="ytick_1">
     <g id="line2d_18">
      <defs>
       <path d="M 0 0 
L -3.5 0 
" id="m7f32523e20" style="stroke:#000000;stroke-width:0.8;"/>
      </defs>
      <g>
       <use style="stroke:#000000;stroke-width:0.8;" x="57.6" xlink:href="#m7f32523e20" y="295.488"/>
      </g>
     </g>
     <g id="text_4">
      <!-- 0 -->
      <g transform="translate(44.2375 299.287219)scale(0.1 -0.1)">
       <use xlink:href="#DejaVuSans-30"/>
      </g>
     </g>
    </g>
    <g id="ytick_2">
     <g id="line2d_19">
      <g>
       <use style="stroke:#000000;stroke-width:0.8;" x="57.6" xlink:href="#m7f32523e20" y="240.947859"/>
      </g>
     </g>
     <g id="text_5">
      <!-- 500 -->
      <defs>
       <path d="M 10.796875 72.90625 
L 49.515625 72.90625 
L 49.515625 64.59375 
L 19.828125 64.59375 
L 19.828125 46.734375 
Q 21.96875 47.46875 24.109375 47.828125 
Q 26.265625 48.1875 28.421875 48.1875 
Q 40.625 48.1875 47.75 41.5 
Q 54.890625 34.8125 54.890625 23.390625 
Q 54.890625 11.625 47.5625 5.09375 
Q 40.234375 -1.421875 26.90625 -1.421875 
Q 22.3125 -1.421875 17.546875 -0.640625 
Q 12.796875 0.140625 7.71875 1.703125 
L 7.71875 11.625 
Q 12.109375 9.234375 16.796875 8.0625 
Q 21.484375 6.890625 26.703125 6.890625 
Q 35.15625 6.890625 40.078125 11.328125 
Q 45.015625 15.765625 45.015625 23.390625 
Q 45.015625 31 40.078125 35.4375 
Q 35.15625 39.890625 26.703125 39.890625 
Q 22.75 39.890625 18.8125 39.015625 
Q 14.890625 38.140625 10.796875 36.28125 
z
" id="DejaVuSans-35"/>
      </defs>
      <g transform="translate(31.5125 244.747078)scale(0.1 -0.1)">
       <use xlink:href="#DejaVuSans-35"/>
       <use x="63.623047" xlink:href="#DejaVuSans-30"/>
       <use x="127.246094" xlink:href="#DejaVuSans-30"/>
      </g>
     </g>
    </g>
    <g id="ytick_3">
     <g id="line2d_20">
      <g>
       <use style="stroke:#000000;stroke-width:0.8;" x="57.6" xlink:href="#m7f32523e20" y="186.407719"/>
      </g>
     </g>
     <g id="text_6">
      <!-- 1000 -->
      <g transform="translate(25.15 190.206938)scale(0.1 -0.1)">
       <use xlink:href="#DejaVuSans-31"/>
       <use x="63.623047" xlink:href="#DejaVuSans-30"/>
       <use x="127.246094" xlink:href="#DejaVuSans-30"/>
       <use x="190.869141" xlink:href="#DejaVuSans-30"/>
      </g>
     </g>
    </g>
    <g id="ytick_4">
     <g id="line2d_21">
      <g>
       <use style="stroke:#000000;stroke-width:0.8;" x="57.6" xlink:href="#m7f32523e20" y="131.867578"/>
      </g>
     </g>
     <g id="text_7">
      <!-- 1500 -->
      <g transform="translate(25.15 135.666797)scale(0.1 -0.1)">
       <use xlink:href="#DejaVuSans-31"/>
       <use x="63.623047" xlink:href="#DejaVuSans-35"/>
       <use x="127.246094" xlink:href="#DejaVuSans-30"/>
       <use x="190.869141" xlink:href="#DejaVuSans-30"/>
      </g>
     </g>
    </g>
    <g id="ytick_5">
     <g id="line2d_22">
      <g>
       <use style="stroke:#000000;stroke-width:0.8;" x="57.6" xlink:href="#m7f32523e20" y="77.327438"/>
      </g>
     </g>
     <g id="text_8">
      <!-- 2000 -->
      <g transform="translate(25.15 81.126656)scale(0.1 -0.1)">
       <use xlink:href="#DejaVuSans-32"/>
       <use x="63.623047" xlink:href="#DejaVuSans-30"/>
       <use x="127.246094" xlink:href="#DejaVuSans-30"/>
       <use x="190.869141" xlink:href="#DejaVuSans-30"/>
      </g>
     </g>
    </g>
    <g id="text_9">
     <!-- Memory (MB) -->
     <defs>
      <path d="M 9.8125 72.90625 
L 24.515625 72.90625 
L 43.109375 23.296875 
L 61.8125 72.90625 
L 76.515625 72.90625 
L 76.515625 0 
L 66.890625 0 
L 66.890625 64.015625 
L 48.09375 14.015625 
L 38.1875 14.015625 
L 19.390625 64.015625 
L 19.390625 0 
L 9.8125 0 
z
" id="DejaVuSans-4d"/>
      <path d="M 41.109375 46.296875 
Q 39.59375 47.171875 37.8125 47.578125 
Q 36.03125 48 33.890625 48 
Q 26.265625 48 22.1875 43.046875 
Q 18.109375 38.09375 18.109375 28.8125 
L 18.109375 0 
L 9.078125 0 
L 9.078125 54.6875 
L 18.109375 54.6875 
L 18.109375 46.1875 
Q 20.953125 51.171875 25.484375 53.578125 
Q 30.03125 56 36.53125 56 
Q 37.453125 56 38.578125 55.875 
Q 39.703125 55.765625 41.0625 55.515625 
z
" id="DejaVuSans-72"/>
      <path d="M 32.171875 -5.078125 
Q 28.375 -14.84375 24.75 -17.8125 
Q 21.140625 -20.796875 15.09375 -20.796875 
L 7.90625 -20.796875 
L 7.90625 -13.28125 
L 13.1875 -13.28125 
Q 16.890625 -13.28125 18.9375 -11.515625 
Q 21 -9.765625 23.484375 -3.21875 
L 25.09375 0.875 
L 2.984375 54.6875 
L 12.5 54.6875 
L 29.59375 11.921875 
L 46.6875 54.6875 
L 56.203125 54.6875 
z
" id="DejaVuSans-79"/>
      <path d="M 19.671875 34.8125 
L 19.671875 8.109375 
L 35.5 8.109375 
Q 43.453125 8.109375 47.28125 11.40625 
Q 51.125 14.703125 51.125 21.484375 
Q 51.125 28.328125 47.28125 31.5625 
Q 43.453125 34.8125 35.5 34.8125 
z
M 19.671875 64.796875 
L 19.671875 42.828125 
L 34.28125 42.828125 
Q 41.5 42.828125 45.03125 45.53125 
Q 48.578125 48.25 48.578125 53.8125 
Q 48.578125 59.328125 45.03125 62.0625 
Q 41.5 64.796875 34.28125 64.796875 
z
M 9.8125 72.90625 
L 35.015625 72.90625 
Q 46.296875 72.90625 52.390625 68.21875 
Q 58.5 63.53125 58.5 54.890625 
Q 58.5 48.1875 55.375 44.234375 
Q 52.25 40.28125 46.1875 39.3125 
Q 53.46875 37.75 57.5 32.78125 
Q 61.53125 27.828125 61.53125 20.40625 
Q 61.53125 10.640625 54.890625 5.3125 
Q 48.25 0 35.984375 0 
L 9.8125 0 
z
" id="DejaVuSans-42"/>
     </defs>
     <g transform="translate(19.070312 208.098312)rotate(-90)scale(0.1 -0.1)">
      <use xlink:href="#DejaVuSans-4d"/>
      <use x="86.279297" xlink:href="#DejaVuSans-65"/>
      <use x="147.802734" xlink:href="#DejaVuSans-6d"/>
      <use x="245.214844" xlink:href="#DejaVuSans-6f"/>
      <use x="306.396484" xlink:href="#DejaVuSans-72"/>
      <use x="347.509766" xlink:href="#DejaVuSans-79"/>
      <use x="406.689453" xlink:href="#DejaVuSans-20"/>
      <use x="438.476562" xlink:href="#DejaVuSans-28"/>
      <use x="477.490234" xlink:href="#DejaVuSans-4d"/>
      <use x="563.769531" xlink:href="#DejaVuSans-42"/>
      <use x="632.373047" xlink:href="#DejaVuSans-29"/>
     </g>
    </g>
   </g>
   <g id="line2d_23">
    <path clip-path="url(#p17fc1c73e4)" d="M 73.832727 215.799818 
L 112.888762 211.927464 
L 165.122846 210.835503 
L 174.423136 207.821438 
L 179.746278 204.481662 
L 190.132903 200.195578 
L 194.556494 194.581179 
L 199.057926 193.865417 
L 220.16899 180.994656 
L 242.020734 175.558081 
L 245.38603 175.557634 
L 247.861588 175.557187 
L 259.189157 173.811568 
L 260.321733 172.595844 
L 261.365837 172.584228 
L 263.25877 170.277883 
L 267.167412 167.605615 
L 271.456906 164.277455 
L 279.160293 165.357801 
L 282.217625 165.289441 
L 284.527986 163.839152 
L 285.645066 158.075077 
L 290.929659 155.722713 
L 294.084088 153.57498 
L 299.119781 153.559342 
L 300.539846 153.154101 
L 301.825397 152.257388 
L 303.283731 150.395155 
L 307.19519 140.281553 
L 308.25216 140.281553 
L 310.244707 139.838781 
L 316.257258 138.760223 
L 319.05926 136.015575 
L 323.746902 135.615248 
L 328.216104 126.469846 
L 330.586178 126.469846 
L 331.705582 126.469846 
L 334.615346 126.454655 
L 337.824053 119.608448 
L 339.419286 119.061574 
L 340.295962 119.056213 
L 341.937411 119.056213 
L 343.081065 116.273587 
L 344.737672 116.198526 
L 346.949324 116.198526 
L 348.96484 116.027404 
L 349.80052 114.17098 
L 350.778851 113.396241 
L 352.082299 113.395794 
L 352.466674 113.395794 
L 355.420204 102.905545 
L 358.717427 103.58199 
L 359.441789 103.58199 
L 362.195677 97.165598 
L 363.027324 97.153534 
L 366.288403 95.542399 
L 368.697845 94.101939 
L 371.488658 83.085368 
L 374.688967 86.47876 
L 376.306319 86.10122 
L 377.069347 85.70134 
L 377.591227 85.70134 
L 380.508864 82.305715 
L 381.820742 85.78221 
L 383.117196 85.78221 
L 384.315691 79.448922 
L 386.784742 72.11437 
L 390.644286 61.04195 
L 391.65204 61.78318 
L 393.081985 61.768436 
L 394.591443 59.852588 
L 395.814669 59.852588 
L 396.769618 59.852588 
L 397.253247 57.525244 
L 398.487273 53.568 
" style="fill:none;stroke:#000000;stroke-linecap:square;stroke-width:1.5;"/>
    <defs>
     <path d="M 0 3 
C 0.795609 3 1.55874 2.683901 2.12132 2.12132 
C 2.683901 1.55874 3 0.795609 3 0 
C 3 -0.795609 2.683901 -1.55874 2.12132 -2.12132 
C 1.55874 -2.683901 0.795609 -3 0 -3 
C -0.795609 -3 -1.55874 -2.683901 -2.12132 -2.12132 
C -2.683901 -1.55874 -3 -0.795609 -3 0 
C -3 0.795609 -2.683901 1.55874 -2.12132 2.12132 
C -1.55874 2.683901 -0.795609 3 0 3 
z
" id="m5f0444d7b1" style="stroke:#000000;"/>
    </defs>
    <g clip-path="url(#p17fc1c73e4)">
     <use style="stroke:#000000;" x="73.832727" xlink:href="#m5f0444d7b1" y="215.799818"/>
     <use style="stroke:#000000;" x="112.888762" xlink:href="#m5f0444d7b1" y="211.927464"/>
     <use style="stroke:#000000;" x="165.122846" xlink:href="#m5f0444d7b1" y="210.835503"/>
     <use style="stroke:#000000;" x="174.423136" xlink:href="#m5f0444d7b1" y="207.821438"/>
     <use style="stroke:#000000;" x="179.746278" xlink:href="#m5f0444d7b1" y="204.481662"/>
     <use style="stroke:#000000;" x="190.132903" xlink:href="#m5f0444d7b1" y="200.195578"/>
     <use style="stroke:#000000;" x="194.556494" xlink:href="#m5f0444d7b1" y="194.581179"/>
     <use style="stroke:#000000;" x="199.057926" xlink:href="#m5f0444d7b1" y="193.865417"/>
     <use style="stroke:#000000;" x="220.16899" xlink:href="#m5f0444d7b1" y="180.994656"/>
     <use style="stroke:#000000;" x="242.020734" xlink:href="#m5f0444d7b1" y="175.558081"/>
     <use style="stroke:#000000;" x="245.38603" xlink:href="#m5f0444d7b1" y="175.557634"/>
     <use style="stroke:#000000;" x="247.861588" xlink:href="#m5f0444d7b1" y="175.557187"/>
     <use style="stroke:#000000;" x="259.189157" xlink:href="#m5f0444d7b1" y="173.811568"/>
     <use style="stroke:#000000;" x="260.321733" xlink:href="#m5f0444d7b1" y="172.595844"/>
     <use style="stroke:#000000;" x="261.365837" xlink:href="#m5f0444d7b1" y="172.584228"/>
     <use style="stroke:#000000;" x="263.25877" xlink:href="#m5f0444d7b1" y="170.277883"/>
     <use style="stroke:#000000;" x="267.167412" xlink:href="#m5f0444d7b1" y="167.605615"/>
     <use style="stroke:#000000;" x="271.456906" xlink:href="#m5f0444d7b1" y="164.277455"/>
     <use style="stroke:#000000;" x="279.160293" xlink:href="#m5f0444d7b1" y="165.357801"/>
     <use style="stroke:#000000;" x="282.217625" xlink:href="#m5f0444d7b1" y="165.289441"/>
     <use style="stroke:#000000;" x="284.527986" xlink:href="#m5f0444d7b1" y="163.839152"/>
     <use style="stroke:#000000;" x="285.645066" xlink:href="#m5f0444d7b1" y="158.075077"/>
     <use style="stroke:#000000;" x="290.929659" xlink:href="#m5f0444d7b1" y="155.722713"/>
     <use style="stroke:#000000;" x="294.084088" xlink:href="#m5f0444d7b1" y="153.57498"/>
     <use style="stroke:#000000;" x="299.119781" xlink:href="#m5f0444d7b1" y="153.559342"/>
     <use style="stroke:#000000;" x="300.539846" xlink:href="#m5f0444d7b1" y="153.154101"/>
     <use style="stroke:#000000;" x="301.825397" xlink:href="#m5f0444d7b1" y="152.257388"/>
     <use style="stroke:#000000;" x="303.283731" xlink:href="#m5f0444d7b1" y="150.395155"/>
     <use style="stroke:#000000;" x="307.19519" xlink:href="#m5f0444d7b1" y="140.281553"/>
     <use style="stroke:#000000;" x="308.25216" xlink:href="#m5f0444d7b1" y="140.281553"/>
     <use style="stroke:#000000;" x="310.244707" xlink:href="#m5f0444d7b1" y="139.838781"/>
     <use style="stroke:#000000;" x="316.257258" xlink:href="#m5f0444d7b1" y="138.760223"/>
     <use style="stroke:#000000;" x="319.05926" xlink:href="#m5f0444d7b1" y="136.015575"/>
     <use style="stroke:#000000;" x="323.746902" xlink:href="#m5f0444d7b1" y="135.615248"/>
     <use style="stroke:#000000;" x="328.216104" xlink:href="#m5f0444d7b1" y="126.469846"/>
     <use style="stroke:#000000;" x="330.586178" xlink:href="#m5f0444d7b1" y="126.469846"/>
     <use style="stroke:#000000;" x="331.705582" xlink:href="#m5f0444d7b1" y="126.469846"/>
     <use style="stroke:#000000;" x="334.615346" xlink:href="#m5f0444d7b1" y="126.454655"/>
     <use style="stroke:#000000;" x="337.824053" xlink:href="#m5f0444d7b1" y="119.608448"/>
     <use style="stroke:#000000;" x="339.419286" xlink:href="#m5f0444d7b1" y="119.061574"/>
     <use style="stroke:#000000;" x="340.295962" xlink:href="#m5f0444d7b1" y="119.056213"/>
     <use style="stroke:#000000;" x="341.937411" xlink:href="#m5f0444d7b1" y="119.056213"/>
     <use style="stroke:#000000;" x="343.081065" xlink:href="#m5f0444d7b1" y="116.273587"/>
     <use style="stroke:#000000;" x="344.737672" xlink:href="#m5f0444d7b1" y="116.198526"/>
     <use style="stroke:#000000;" x="346.949324" xlink:href="#m5f0444d7b1" y="116.198526"/>
     <use style="stroke:#000000;" x="348.96484" xlink:href="#m5f0444d7b1" y="116.027404"/>
     <use style="stroke:#000000;" x="349.80052" xlink:href="#m5f0444d7b1" y="114.17098"/>
     <use style="stroke:#000000;" x="350.778851" xlink:href="#m5f0444d7b1" y="113.396241"/>
     <use style="stroke:#000000;" x="352.082299" xlink:href="#m5f0444d7b1" y="113.395794"/>
     <use style="stroke:#000000;" x="352.466674" xlink:href="#m5f0444d7b1" y="113.395794"/>
     <use style="stroke:#000000;" x="355.420204" xlink:href="#m5f0444d7b1" y="102.905545"/>
     <use style="stroke:#000000;" x="358.717427" xlink:href="#m5f0444d7b1" y="103.58199"/>
     <use style="stroke:#000000;" x="359.441789" xlink:href="#m5f0444d7b1" y="103.58199"/>
     <use style="stroke:#000000;" x="362.195677" xlink:href="#m5f0444d7b1" y="97.165598"/>
     <use style="stroke:#000000;" x="363.027324" xlink:href="#m5f0444d7b1" y="97.153534"/>
     <use style="stroke:#000000;" x="366.288403" xlink:href="#m5f0444d7b1" y="95.542399"/>
     <use style="stroke:#000000;" x="368.697845" xlink:href="#m5f0444d7b1" y="94.101939"/>
     <use style="stroke:#000000;" x="371.488658" xlink:href="#m5f0444d7b1" y="83.085368"/>
     <use style="stroke:#000000;" x="374.688967" xlink:href="#m5f0444d7b1" y="86.47876"/>
     <use style="stroke:#000000;" x="376.306319" xlink:href="#m5f0444d7b1" y="86.10122"/>
     <use style="stroke:#000000;" x="377.069347" xlink:href="#m5f0444d7b1" y="85.70134"/>
     <use style="stroke:#000000;" x="377.591227" xlink:href="#m5f0444d7b1" y="85.70134"/>
     <use style="stroke:#000000;" x="380.508864" xlink:href="#m5f0444d7b1" y="82.305715"/>
     <use style="stroke:#000000;" x="381.820742" xlink:href="#m5f0444d7b1" y="85.78221"/>
     <use style="stroke:#000000;" x="383.117196" xlink:href="#m5f0444d7b1" y="85.78221"/>
     <use style="stroke:#000000;" x="384.315691" xlink:href="#m5f0444d7b1" y="79.448922"/>
     <use style="stroke:#000000;" x="386.784742" xlink:href="#m5f0444d7b1" y="72.11437"/>
     <use style="stroke:#000000;" x="390.644286" xlink:href="#m5f0444d7b1" y="61.04195"/>
     <use style="stroke:#000000;" x="391.65204" xlink:href="#m5f0444d7b1" y="61.78318"/>
     <use style="stroke:#000000;" x="393.081985" xlink:href="#m5f0444d7b1" y="61.768436"/>
     <use style="stroke:#000000;" x="394.591443" xlink:href="#m5f0444d7b1" y="59.852588"/>
     <use style="stroke:#000000;" x="395.814669" xlink:href="#m5f0444d7b1" y="59.852588"/>
     <use style="stroke:#000000;" x="396.769618" xlink:href="#m5f0444d7b1" y="59.852588"/>
     <use style="stroke:#000000;" x="397.253247" xlink:href="#m5f0444d7b1" y="57.525244"/>
     <use style="stroke:#000000;" x="398.487273" xlink:href="#m5f0444d7b1" y="53.568"/>
    </g>
   </g>
   <g id="line2d_24">
    <path clip-path="url(#p17fc1c73e4)" d="M 73.832727 295.488 
L 112.888762 295.488 
L 165.122846 295.488 
L 174.423136 295.488 
L 179.746278 295.488 
L 190.132903 295.488 
L 194.556494 295.488 
L 199.057926 295.488 
L 220.16899 295.488 
L 242.020734 295.488 
L 245.38603 295.488 
L 247.861588 295.488 
L 259.189157 295.488 
L 260.321733 295.488 
L 261.365837 295.488 
L 263.25877 295.488 
L 267.167412 295.488 
L 271.456906 295.488 
L 279.160293 295.488 
L 282.217625 295.488 
L 284.527986 295.488 
L 285.645066 295.488 
L 290.929659 295.488 
L 294.084088 295.488 
L 299.119781 295.488 
L 300.539846 295.488 
L 301.825397 295.488 
L 303.283731 295.488 
L 307.19519 295.488 
L 308.25216 295.488 
L 310.244707 295.488 
L 316.257258 295.488 
L 319.05926 295.488 
L 323.746902 295.488 
L 328.216104 295.488 
L 330.586178 295.488 
L 331.705582 295.488 
L 334.615346 295.488 
L 337.824053 295.488 
L 339.419286 295.488 
L 340.295962 295.488 
L 341.937411 295.488 
L 343.081065 295.488 
L 344.737672 295.488 
L 346.949324 295.488 
L 348.96484 295.488 
L 349.80052 295.488 
L 350.778851 295.488 
L 352.082299 295.488 
L 352.466674 295.488 
L 355.420204 295.488 
L 358.717427 295.488 
L 359.441789 295.488 
L 362.195677 295.488 
L 363.027324 295.488 
L 366.288403 295.488 
L 368.697845 295.488 
L 371.488658 295.488 
L 374.688967 295.488 
L 376.306319 295.488 
L 377.069347 295.488 
L 377.591227 295.488 
L 380.508864 295.488 
L 381.820742 295.488 
L 383.117196 295.488 
L 384.315691 295.488 
L 386.784742 295.488 
L 390.644286 295.488 
L 391.65204 295.488 
L 393.081985 295.488 
L 394.591443 295.488 
L 395.814669 295.488 
L 396.769618 295.488 
L 397.253247 295.488 
L 398.487273 295.488 
" style="fill:none;stroke:#008000;stroke-linecap:square;stroke-width:1.5;"/>
    <defs>
     <path d="M 0 3 
C 0.795609 3 1.55874 2.683901 2.12132 2.12132 
C 2.683901 1.55874 3 0.795609 3 0 
C 3 -0.795609 2.683901 -1.55874 2.12132 -2.12132 
C 1.55874 -2.683901 0.795609 -3 0 -3 
C -0.795609 -3 -1.55874 -2.683901 -2.12132 -2.12132 
C -2.683901 -1.55874 -3 -0.795609 -3 0 
C -3 0.795609 -2.683901 1.55874 -2.12132 2.12132 
C -1.55874 2.683901 -0.795609 3 0 3 
z
" id="mdb18016ade" style="stroke:#008000;"/>
    </defs>
    <g clip-path="url(#p17fc1c73e4)">
     <use style="fill:#008000;stroke:#008000;" x="73.832727" xlink:href="#mdb18016ade" y="295.488"/>
     <use style="fill:#008000;stroke:#008000;" x="112.888762" xlink:href="#mdb18016ade" y="295.488"/>
     <use style="fill:#008000;stroke:#008000;" x="165.122846" xlink:href="#mdb18016ade" y="295.488"/>
     <use style="fill:#008000;stroke:#008000;" x="174.423136" xlink:href="#mdb18016ade" y="295.488"/>
     <use style="fill:#008000;stroke:#008000;" x="179.746278" xlink:href="#mdb18016ade" y="295.488"/>
     <use style="fill:#008000;stroke:#008000;" x="190.132903" xlink:href="#mdb18016ade" y="295.488"/>
     <use style="fill:#008000;stroke:#008000;" x="194.556494" xlink:href="#mdb18016ade" y="295.488"/>
     <use style="fill:#008000;stroke:#008000;" x="199.057926" xlink:href="#mdb18016ade" y="295.488"/>
     <use style="fill:#008000;stroke:#008000;" x="220.16899" xlink:href="#mdb18016ade" y="295.488"/>
     <use style="fill:#008000;stroke:#008000;" x="242.020734" xlink:href="#mdb18016ade" y="295.488"/>
     <use style="fill:#008000;stroke:#008000;" x="245.38603" xlink:href="#mdb18016ade" y="295.488"/>
     <use style="fill:#008000;stroke:#008000;" x="247.861588" xlink:href="#mdb18016ade" y="295.488"/>
     <use style="fill:#008000;stroke:#008000;" x="259.189157" xlink:href="#mdb18016ade" y="295.488"/>
     <use style="fill:#008000;stroke:#008000;" x="260.321733" xlink:href="#mdb18016ade" y="295.488"/>
     <use style="fill:#008000;stroke:#008000;" x="261.365837" xlink:href="#mdb18016ade" y="295.488"/>
     <use style="fill:#008000;stroke:#008000;" x="263.25877" xlink:href="#mdb18016ade" y="295.488"/>
     <use style="fill:#008000;stroke:#008000;" x="267.167412" xlink:href="#mdb18016ade" y="295.488"/>
     <use style="fill:#008000;stroke:#008000;" x="271.456906" xlink:href="#mdb18016ade" y="295.488"/>
     <use style="fill:#008000;stroke:#008000;" x="279.160293" xlink:href="#mdb18016ade" y="295.488"/>
     <use style="fill:#008000;stroke:#008000;" x="282.217625" xlink:href="#mdb18016ade" y="295.488"/>
     <use style="fill:#008000;stroke:#008000;" x="284.527986" xlink:href="#mdb18016ade" y="295.488"/>
     <use style="fill:#008000;stroke:#008000;" x="285.645066" xlink:href="#mdb18016ade" y="295.488"/>
     <use style="fill:#008000;stroke:#008000;" x="290.929659" xlink:href="#mdb18016ade" y="295.488"/>
     <use style="fill:#008000;stroke:#008000;" x="294.084088" xlink:href="#mdb18016ade" y="295.488"/>
     <use style="fill:#008000;stroke:#008000;" x="299.119781" xlink:href="#mdb18016ade" y="295.488"/>
     <use style="fill:#008000;stroke:#008000;" x="300.539846" xlink:href="#mdb18016ade" y="295.488"/>
     <use style="fill:#008000;stroke:#008000;" x="301.825397" xlink:href="#mdb18016ade" y="295.488"/>
     <use style="fill:#008000;stroke:#008000;" x="303.283731" xlink:href="#mdb18016ade" y="295.488"/>
     <use style="fill:#008000;stroke:#008000;" x="307.19519" xlink:href="#mdb18016ade" y="295.488"/>
     <use style="fill:#008000;stroke:#008000;" x="308.25216" xlink:href="#mdb18016ade" y="295.488"/>
     <use style="fill:#008000;stroke:#008000;" x="310.244707" xlink:href="#mdb18016ade" y="295.488"/>
     <use style="fill:#008000;stroke:#008000;" x="316.257258" xlink:href="#mdb18016ade" y="295.488"/>
     <use style="fill:#008000;stroke:#008000;" x="319.05926" xlink:href="#mdb18016ade" y="295.488"/>
     <use style="fill:#008000;stroke:#008000;" x="323.746902" xlink:href="#mdb18016ade" y="295.488"/>
     <use style="fill:#008000;stroke:#008000;" x="328.216104" xlink:href="#mdb18016ade" y="295.488"/>
     <use style="fill:#008000;stroke:#008000;" x="330.586178" xlink:href="#mdb18016ade" y="295.488"/>
     <use style="fill:#008000;stroke:#008000;" x="331.705582" xlink:href="#mdb18016ade" y="295.488"/>
     <use style="fill:#008000;stroke:#008000;" x="334.615346" xlink:href="#mdb18016ade" y="295.488"/>
     <use style="fill:#008000;stroke:#008000;" x="337.824053" xlink:href="#mdb18016ade" y="295.488"/>
     <use style="fill:#008000;stroke:#008000;" x="339.419286" xlink:href="#mdb18016ade" y="295.488"/>
     <use style="fill:#008000;stroke:#008000;" x="340.295962" xlink:href="#mdb18016ade" y="295.488"/>
     <use style="fill:#008000;stroke:#008000;" x="341.937411" xlink:href="#mdb18016ade" y="295.488"/>
     <use style="fill:#008000;stroke:#008000;" x="343.081065" xlink:href="#mdb18016ade" y="295.488"/>
     <use style="fill:#008000;stroke:#008000;" x="344.737672" xlink:href="#mdb18016ade" y="295.488"/>
     <use style="fill:#008000;stroke:#008000;" x="346.949324" xlink:href="#mdb18016ade" y="295.488"/>
     <use style="fill:#008000;stroke:#008000;" x="348.96484" xlink:href="#mdb18016ade" y="295.488"/>
     <use style="fill:#008000;stroke:#008000;" x="349.80052" xlink:href="#mdb18016ade" y="295.488"/>
     <use style="fill:#008000;stroke:#008000;" x="350.778851" xlink:href="#mdb18016ade" y="295.488"/>
     <use style="fill:#008000;stroke:#008000;" x="352.082299" xlink:href="#mdb18016ade" y="295.488"/>
     <use style="fill:#008000;stroke:#008000;" x="352.466674" xlink:href="#mdb18016ade" y="295.488"/>
     <use style="fill:#008000;stroke:#008000;" x="355.420204" xlink:href="#mdb18016ade" y="295.488"/>
     <use style="fill:#008000;stroke:#008000;" x="358.717427" xlink:href="#mdb18016ade" y="295.488"/>
     <use style="fill:#008000;stroke:#008000;" x="359.441789" xlink:href="#mdb18016ade" y="295.488"/>
     <use style="fill:#008000;stroke:#008000;" x="362.195677" xlink:href="#mdb18016ade" y="295.488"/>
     <use style="fill:#008000;stroke:#008000;" x="363.027324" xlink:href="#mdb18016ade" y="295.488"/>
     <use style="fill:#008000;stroke:#008000;" x="366.288403" xlink:href="#mdb18016ade" y="295.488"/>
     <use style="fill:#008000;stroke:#008000;" x="368.697845" xlink:href="#mdb18016ade" y="295.488"/>
     <use style="fill:#008000;stroke:#008000;" x="371.488658" xlink:href="#mdb18016ade" y="295.488"/>
     <use style="fill:#008000;stroke:#008000;" x="374.688967" xlink:href="#mdb18016ade" y="295.488"/>
     <use style="fill:#008000;stroke:#008000;" x="376.306319" xlink:href="#mdb18016ade" y="295.488"/>
     <use style="fill:#008000;stroke:#008000;" x="377.069347" xlink:href="#mdb18016ade" y="295.488"/>
     <use style="fill:#008000;stroke:#008000;" x="377.591227" xlink:href="#mdb18016ade" y="295.488"/>
     <use style="fill:#008000;stroke:#008000;" x="380.508864" xlink:href="#mdb18016ade" y="295.488"/>
     <use style="fill:#008000;stroke:#008000;" x="381.820742" xlink:href="#mdb18016ade" y="295.488"/>
     <use style="fill:#008000;stroke:#008000;" x="383.117196" xlink:href="#mdb18016ade" y="295.488"/>
     <use style="fill:#008000;stroke:#008000;" x="384.315691" xlink:href="#mdb18016ade" y="295.488"/>
     <use style="fill:#008000;stroke:#008000;" x="386.784742" xlink:href="#mdb18016ade" y="295.488"/>
     <use style="fill:#008000;stroke:#008000;" x="390.644286" xlink:href="#mdb18016ade" y="295.488"/>
     <use style="fill:#008000;stroke:#008000;" x="391.65204" xlink:href="#mdb18016ade" y="295.488"/>
     <use style="fill:#008000;stroke:#008000;" x="393.081985" xlink:href="#mdb18016ade" y="295.488"/>
     <use style="fill:#008000;stroke:#008000;" x="394.591443" xlink:href="#mdb18016ade" y="295.488"/>
     <use style="fill:#008000;stroke:#008000;" x="395.814669" xlink:href="#mdb18016ade" y="295.488"/>
     <use style="fill:#008000;stroke:#008000;" x="396.769618" xlink:href="#mdb18016ade" y="295.488"/>
     <use style="fill:#008000;stroke:#008000;" x="397.253247" xlink:href="#mdb18016ade" y="295.488"/>
     <use style="fill:#008000;stroke:#008000;" x="398.487273" xlink:href="#mdb18016ade" y="295.488"/>
    </g>
   </g>
   <g id="patch_3">
    <path d="M 57.6 307.584 
L 57.6 41.472 
" style="fill:none;stroke:#000000;stroke-linecap:square;stroke-linejoin:miter;stroke-width:0.8;"/>
   </g>
   <g id="patch_4">
    <path d="M 414.72 307.584 
L 414.72 41.472 
" style="fill:none;stroke:#000000;stroke-linecap:square;stroke-linejoin:miter;stroke-width:0.8;"/>
   </g>
   <g id="patch_5">
    <path d="M 57.6 307.584 
L 414.72 307.584 
" style="fill:none;stroke:#000000;stroke-linecap:square;stroke-linejoin:miter;stroke-width:0.8;"/>
   </g>
   <g id="patch_6">
    <path d="M 57.6 41.472 
L 414.72 41.472 
" style="fill:none;stroke:#000000;stroke-linecap:square;stroke-linejoin:miter;stroke-width:0.8;"/>
   </g>
   <g id="legend_1">
    <g id="patch_7">
     <path d="M 64.6 78.82825 
L 151.392188 78.82825 
Q 153.392188 78.82825 153.392188 76.82825 
L 153.392188 48.472 
Q 153.392188 46.472 151.392188 46.472 
L 64.6 46.472 
Q 62.6 46.472 62.6 48.472 
L 62.6 76.82825 
Q 62.6 78.82825 64.6 78.82825 
z
" style="fill:#ffffff;opacity:0.8;stroke:#cccccc;stroke-linejoin:miter;"/>
    </g>
    <g id="line2d_25">
     <path d="M 66.6 54.570437 
L 86.6 54.570437 
" style="fill:none;stroke:#000000;stroke-linecap:square;stroke-width:1.5;"/>
    </g>
    <g id="line2d_26">
     <g>
      <use style="stroke:#000000;" x="76.6" xlink:href="#m5f0444d7b1" y="54.570437"/>
     </g>
    </g>
    <g id="text_10">
     <!-- RAM -->
     <defs>
      <path d="M 44.390625 34.1875 
Q 47.5625 33.109375 50.5625 29.59375 
Q 53.5625 26.078125 56.59375 19.921875 
L 66.609375 0 
L 56 0 
L 46.6875 18.703125 
Q 43.0625 26.03125 39.671875 28.421875 
Q 36.28125 30.8125 30.421875 30.8125 
L 19.671875 30.8125 
L 19.671875 0 
L 9.8125 0 
L 9.8125 72.90625 
L 32.078125 72.90625 
Q 44.578125 72.90625 50.734375 67.671875 
Q 56.890625 62.453125 56.890625 51.90625 
Q 56.890625 45.015625 53.6875 40.46875 
Q 50.484375 35.9375 44.390625 34.1875 
z
M 19.671875 64.796875 
L 19.671875 38.921875 
L 32.078125 38.921875 
Q 39.203125 38.921875 42.84375 42.21875 
Q 46.484375 45.515625 46.484375 51.90625 
Q 46.484375 58.296875 42.84375 61.546875 
Q 39.203125 64.796875 32.078125 64.796875 
z
" id="DejaVuSans-52"/>
      <path d="M 34.1875 63.1875 
L 20.796875 26.90625 
L 47.609375 26.90625 
z
M 28.609375 72.90625 
L 39.796875 72.90625 
L 67.578125 0 
L 57.328125 0 
L 50.6875 18.703125 
L 17.828125 18.703125 
L 11.1875 0 
L 0.78125 0 
z
" id="DejaVuSans-41"/>
     </defs>
     <g transform="translate(94.6 58.070437)scale(0.1 -0.1)">
      <use xlink:href="#DejaVuSans-52"/>
      <use x="69.419922" xlink:href="#DejaVuSans-41"/>
      <use x="137.828125" xlink:href="#DejaVuSans-4d"/>
     </g>
    </g>
    <g id="line2d_27">
     <path d="M 66.6 69.248562 
L 86.6 69.248562 
" style="fill:none;stroke:#008000;stroke-linecap:square;stroke-width:1.5;"/>
    </g>
    <g id="line2d_28">
     <g>
      <use style="fill:#008000;stroke:#008000;" x="76.6" xlink:href="#mdb18016ade" y="69.248562"/>
     </g>
    </g>
    <g id="text_11">
     <!-- Restart file -->
     <defs>
      <path d="M 34.28125 27.484375 
Q 23.390625 27.484375 19.1875 25 
Q 14.984375 22.515625 14.984375 16.5 
Q 14.984375 11.71875 18.140625 8.90625 
Q 21.296875 6.109375 26.703125 6.109375 
Q 34.1875 6.109375 38.703125 11.40625 
Q 43.21875 16.703125 43.21875 25.484375 
L 43.21875 27.484375 
z
M 52.203125 31.203125 
L 52.203125 0 
L 43.21875 0 
L 43.21875 8.296875 
Q 40.140625 3.328125 35.546875 0.953125 
Q 30.953125 -1.421875 24.3125 -1.421875 
Q 15.921875 -1.421875 10.953125 3.296875 
Q 6 8.015625 6 15.921875 
Q 6 25.140625 12.171875 29.828125 
Q 18.359375 34.515625 30.609375 34.515625 
L 43.21875 34.515625 
L 43.21875 35.40625 
Q 43.21875 41.609375 39.140625 45 
Q 35.0625 48.390625 27.6875 48.390625 
Q 23 48.390625 18.546875 47.265625 
Q 14.109375 46.140625 10.015625 43.890625 
L 10.015625 52.203125 
Q 14.9375 54.109375 19.578125 55.046875 
Q 24.21875 56 28.609375 56 
Q 40.484375 56 46.34375 49.84375 
Q 52.203125 43.703125 52.203125 31.203125 
z
" id="DejaVuSans-61"/>
      <path d="M 37.109375 75.984375 
L 37.109375 68.5 
L 28.515625 68.5 
Q 23.6875 68.5 21.796875 66.546875 
Q 19.921875 64.59375 19.921875 59.515625 
L 19.921875 54.6875 
L 34.71875 54.6875 
L 34.71875 47.703125 
L 19.921875 47.703125 
L 19.921875 0 
L 10.890625 0 
L 10.890625 47.703125 
L 2.296875 47.703125 
L 2.296875 54.6875 
L 10.890625 54.6875 
L 10.890625 58.5 
Q 10.890625 67.625 15.140625 71.796875 
Q 19.390625 75.984375 28.609375 75.984375 
z
" id="DejaVuSans-66"/>
      <path d="M 9.421875 75.984375 
L 18.40625 75.984375 
L 18.40625 0 
L 9.421875 0 
z
" id="DejaVuSans-6c"/>
     </defs>
     <g transform="translate(94.6 72.748562)scale(0.1 -0.1)">
      <use xlink:href="#DejaVuSans-52"/>
      <use x="69.419922" xlink:href="#DejaVuSans-65"/>
      <use x="130.943359" xlink:href="#DejaVuSans-73"/>
      <use x="183.042969" xlink:href="#DejaVuSans-74"/>
      <use x="222.251953" xlink:href="#DejaVuSans-61"/>
      <use x="283.53125" xlink:href="#DejaVuSans-72"/>
      <use x="324.644531" xlink:href="#DejaVuSans-74"/>
      <use x="363.853516" xlink:href="#DejaVuSans-20"/>
      <use x="395.640625" xlink:href="#DejaVuSans-66"/>
      <use x="430.845703" xlink:href="#DejaVuSans-69"/>
      <use x="458.628906" xlink:href="#DejaVuSans-6c"/>
      <use x="486.412109" xlink:href="#DejaVuSans-65"/>
     </g>
    </g>
   </g>
  </g>
 </g>
 <defs>
  <clipPath id="p17fc1c73e4">
   <rect height="266.112" width="357.12" x="57.6" y="41.472"/>
  </clipPath>
 </defs>
</svg>
