<?xml version="1.0" encoding="utf-8" standalone="no"?>
<!DOCTYPE svg PUBLIC "-//W3C//DTD SVG 1.1//EN"
  "http://www.w3.org/Graphics/SVG/1.1/DTD/svg11.dtd">
<!-- Created with matplotlib (http://matplotlib.org/) -->
<svg height="345.6pt" version="1.1" viewBox="0 0 460.8 345.6" width="460.8pt" xmlns="http://www.w3.org/2000/svg" xmlns:xlink="http://www.w3.org/1999/xlink">
 <defs>
  <style type="text/css">
*{stroke-linecap:butt;stroke-linejoin:round;}
  </style>
 </defs>
 <g id="figure_1">
  <g id="patch_1">
   <path d="M 0 345.6 
L 460.8 345.6 
L 460.8 0 
L 0 0 
z
" style="fill:#ffffff;"/>
  </g>
  <g id="axes_1">
   <g id="patch_2">
    <path d="M 57.6 307.584 
L 414.72 307.584 
L 414.72 41.472 
L 57.6 41.472 
z
" style="fill:#ffffff;"/>
   </g>
   <g id="matplotlib.axis_1">
    <g id="xtick_1">
     <g id="line2d_1">
      <defs>
       <path d="M 0 0 
L 0 3.5 
" id="mbc4ba99ae9" style="stroke:#000000;stroke-width:0.8;"/>
      </defs>
      <g>
       <use style="stroke:#000000;stroke-width:0.8;" x="141.560545" xlink:href="#mbc4ba99ae9" y="307.584"/>
      </g>
     </g>
     <g id="text_1">
      <!-- $\mathdefault{10^{3}}$ -->
      <defs>
       <path d="M 12.40625 8.296875 
L 28.515625 8.296875 
L 28.515625 63.921875 
L 10.984375 60.40625 
L 10.984375 69.390625 
L 28.421875 72.90625 
L 38.28125 72.90625 
L 38.28125 8.296875 
L 54.390625 8.296875 
L 54.390625 0 
L 12.40625 0 
z
" id="DejaVuSans-31"/>
       <path d="M 31.78125 66.40625 
Q 24.171875 66.40625 20.328125 58.90625 
Q 16.5 51.421875 16.5 36.375 
Q 16.5 21.390625 20.328125 13.890625 
Q 24.171875 6.390625 31.78125 6.390625 
Q 39.453125 6.390625 43.28125 13.890625 
Q 47.125 21.390625 47.125 36.375 
Q 47.125 51.421875 43.28125 58.90625 
Q 39.453125 66.40625 31.78125 66.40625 
z
M 31.78125 74.21875 
Q 44.046875 74.21875 50.515625 64.515625 
Q 56.984375 54.828125 56.984375 36.375 
Q 56.984375 17.96875 50.515625 8.265625 
Q 44.046875 -1.421875 31.78125 -1.421875 
Q 19.53125 -1.421875 13.0625 8.265625 
Q 6.59375 17.96875 6.59375 36.375 
Q 6.59375 54.828125 13.0625 64.515625 
Q 19.53125 74.21875 31.78125 74.21875 
z
" id="DejaVuSans-30"/>
       <path d="M 40.578125 39.3125 
Q 47.65625 37.796875 51.625 33 
Q 55.609375 28.21875 55.609375 21.1875 
Q 55.609375 10.40625 48.1875 4.484375 
Q 40.765625 -1.421875 27.09375 -1.421875 
Q 22.515625 -1.421875 17.65625 -0.515625 
Q 12.796875 0.390625 7.625 2.203125 
L 7.625 11.71875 
Q 11.71875 9.328125 16.59375 8.109375 
Q 21.484375 6.890625 26.8125 6.890625 
Q 36.078125 6.890625 40.9375 10.546875 
Q 45.796875 14.203125 45.796875 21.1875 
Q 45.796875 27.640625 41.28125 31.265625 
Q 36.765625 34.90625 28.71875 34.90625 
L 20.21875 34.90625 
L 20.21875 43.015625 
L 29.109375 43.015625 
Q 36.375 43.015625 40.234375 45.921875 
Q 44.09375 48.828125 44.09375 54.296875 
Q 44.09375 59.90625 40.109375 62.90625 
Q 36.140625 65.921875 28.71875 65.921875 
Q 24.65625 65.921875 20.015625 65.03125 
Q 15.375 64.15625 9.8125 62.3125 
L 9.8125 71.09375 
Q 15.4375 72.65625 20.34375 73.4375 
Q 25.25 74.21875 29.59375 74.21875 
Q 40.828125 74.21875 47.359375 69.109375 
Q 53.90625 64.015625 53.90625 55.328125 
Q 53.90625 49.265625 50.4375 45.09375 
Q 46.96875 40.921875 40.578125 39.3125 
z
" id="DejaVuSans-33"/>
      </defs>
      <g transform="translate(132.760545 322.182437)scale(0.1 -0.1)">
       <use transform="translate(0 0.765625)" xlink:href="#DejaVuSans-31"/>
       <use transform="translate(63.623047 0.765625)" xlink:href="#DejaVuSans-30"/>
       <use transform="translate(128.203125 39.046875)scale(0.7)" xlink:href="#DejaVuSans-33"/>
      </g>
     </g>
    </g>
    <g id="xtick_2">
     <g id="line2d_2">
      <g>
       <use style="stroke:#000000;stroke-width:0.8;" x="377.428525" xlink:href="#mbc4ba99ae9" y="307.584"/>
      </g>
     </g>
     <g id="text_2">
      <!-- $\mathdefault{10^{4}}$ -->
      <defs>
       <path d="M 37.796875 64.3125 
L 12.890625 25.390625 
L 37.796875 25.390625 
z
M 35.203125 72.90625 
L 47.609375 72.90625 
L 47.609375 25.390625 
L 58.015625 25.390625 
L 58.015625 17.1875 
L 47.609375 17.1875 
L 47.609375 0 
L 37.796875 0 
L 37.796875 17.1875 
L 4.890625 17.1875 
L 4.890625 26.703125 
z
" id="DejaVuSans-34"/>
      </defs>
      <g transform="translate(368.628525 322.182437)scale(0.1 -0.1)">
       <use transform="translate(0 0.684375)" xlink:href="#DejaVuSans-31"/>
       <use transform="translate(63.623047 0.684375)" xlink:href="#DejaVuSans-30"/>
       <use transform="translate(128.203125 38.965625)scale(0.7)" xlink:href="#DejaVuSans-34"/>
      </g>
     </g>
    </g>
    <g id="xtick_3">
     <g id="line2d_3">
      <defs>
       <path d="M 0 0 
L 0 2 
" id="mc71d1cb1c6" style="stroke:#000000;stroke-width:0.6;"/>
      </defs>
      <g>
       <use style="stroke:#000000;stroke-width:0.6;" x="70.557208" xlink:href="#mc71d1cb1c6" y="307.584"/>
      </g>
     </g>
    </g>
    <g id="xtick_4">
     <g id="line2d_4">
      <g>
       <use style="stroke:#000000;stroke-width:0.6;" x="89.233529" xlink:href="#mc71d1cb1c6" y="307.584"/>
      </g>
     </g>
    </g>
    <g id="xtick_5">
     <g id="line2d_5">
      <g>
       <use style="stroke:#000000;stroke-width:0.6;" x="105.024133" xlink:href="#mc71d1cb1c6" y="307.584"/>
      </g>
     </g>
    </g>
    <g id="xtick_6">
     <g id="line2d_6">
      <g>
       <use style="stroke:#000000;stroke-width:0.6;" x="118.702576" xlink:href="#mc71d1cb1c6" y="307.584"/>
      </g>
     </g>
    </g>
    <g id="xtick_7">
     <g id="line2d_7">
      <g>
       <use style="stroke:#000000;stroke-width:0.6;" x="130.767818" xlink:href="#mc71d1cb1c6" y="307.584"/>
      </g>
     </g>
    </g>
    <g id="xtick_8">
     <g id="line2d_8">
      <g>
       <use style="stroke:#000000;stroke-width:0.6;" x="212.563882" xlink:href="#mc71d1cb1c6" y="307.584"/>
      </g>
     </g>
    </g>
    <g id="xtick_9">
     <g id="line2d_9">
      <g>
       <use style="stroke:#000000;stroke-width:0.6;" x="254.098172" xlink:href="#mc71d1cb1c6" y="307.584"/>
      </g>
     </g>
    </g>
    <g id="xtick_10">
     <g id="line2d_10">
      <g>
       <use style="stroke:#000000;stroke-width:0.6;" x="283.567219" xlink:href="#mc71d1cb1c6" y="307.584"/>
      </g>
     </g>
    </g>
    <g id="xtick_11">
     <g id="line2d_11">
      <g>
       <use style="stroke:#000000;stroke-width:0.6;" x="306.425188" xlink:href="#mc71d1cb1c6" y="307.584"/>
      </g>
     </g>
    </g>
    <g id="xtick_12">
     <g id="line2d_12">
      <g>
       <use style="stroke:#000000;stroke-width:0.6;" x="325.101508" xlink:href="#mc71d1cb1c6" y="307.584"/>
      </g>
     </g>
    </g>
    <g id="xtick_13">
     <g id="line2d_13">
      <g>
       <use style="stroke:#000000;stroke-width:0.6;" x="340.892112" xlink:href="#mc71d1cb1c6" y="307.584"/>
      </g>
     </g>
    </g>
    <g id="xtick_14">
     <g id="line2d_14">
      <g>
       <use style="stroke:#000000;stroke-width:0.6;" x="354.570556" xlink:href="#mc71d1cb1c6" y="307.584"/>
      </g>
     </g>
    </g>
    <g id="xtick_15">
     <g id="line2d_15">
      <g>
       <use style="stroke:#000000;stroke-width:0.6;" x="366.635798" xlink:href="#mc71d1cb1c6" y="307.584"/>
      </g>
     </g>
    </g>
    <g id="text_3">
     <!-- Execution time (s) -->
     <defs>
      <path d="M 9.8125 72.90625 
L 55.90625 72.90625 
L 55.90625 64.59375 
L 19.671875 64.59375 
L 19.671875 43.015625 
L 54.390625 43.015625 
L 54.390625 34.71875 
L 19.671875 34.71875 
L 19.671875 8.296875 
L 56.78125 8.296875 
L 56.78125 0 
L 9.8125 0 
z
" id="DejaVuSans-45"/>
      <path d="M 54.890625 54.6875 
L 35.109375 28.078125 
L 55.90625 0 
L 45.3125 0 
L 29.390625 21.484375 
L 13.484375 0 
L 2.875 0 
L 24.125 28.609375 
L 4.6875 54.6875 
L 15.28125 54.6875 
L 29.78125 35.203125 
L 44.28125 54.6875 
z
" id="DejaVuSans-78"/>
      <path d="M 56.203125 29.59375 
L 56.203125 25.203125 
L 14.890625 25.203125 
Q 15.484375 15.921875 20.484375 11.0625 
Q 25.484375 6.203125 34.421875 6.203125 
Q 39.59375 6.203125 44.453125 7.46875 
Q 49.3125 8.734375 54.109375 11.28125 
L 54.109375 2.78125 
Q 49.265625 0.734375 44.1875 -0.34375 
Q 39.109375 -1.421875 33.890625 -1.421875 
Q 20.796875 -1.421875 13.15625 6.1875 
Q 5.515625 13.8125 5.515625 26.8125 
Q 5.515625 40.234375 12.765625 48.109375 
Q 20.015625 56 32.328125 56 
Q 43.359375 56 49.78125 48.890625 
Q 56.203125 41.796875 56.203125 29.59375 
z
M 47.21875 32.234375 
Q 47.125 39.59375 43.09375 43.984375 
Q 39.0625 48.390625 32.421875 48.390625 
Q 24.90625 48.390625 20.390625 44.140625 
Q 15.875 39.890625 15.1875 32.171875 
z
" id="DejaVuSans-65"/>
      <path d="M 48.78125 52.59375 
L 48.78125 44.1875 
Q 44.96875 46.296875 41.140625 47.34375 
Q 37.3125 48.390625 33.40625 48.390625 
Q 24.65625 48.390625 19.8125 42.84375 
Q 14.984375 37.3125 14.984375 27.296875 
Q 14.984375 17.28125 19.8125 11.734375 
Q 24.65625 6.203125 33.40625 6.203125 
Q 37.3125 6.203125 41.140625 7.25 
Q 44.96875 8.296875 48.78125 10.40625 
L 48.78125 2.09375 
Q 45.015625 0.34375 40.984375 -0.53125 
Q 36.96875 -1.421875 32.421875 -1.421875 
Q 20.0625 -1.421875 12.78125 6.34375 
Q 5.515625 14.109375 5.515625 27.296875 
Q 5.515625 40.671875 12.859375 48.328125 
Q 20.21875 56 33.015625 56 
Q 37.15625 56 41.109375 55.140625 
Q 45.0625 54.296875 48.78125 52.59375 
z
" id="DejaVuSans-63"/>
      <path d="M 8.5 21.578125 
L 8.5 54.6875 
L 17.484375 54.6875 
L 17.484375 21.921875 
Q 17.484375 14.15625 20.5 10.265625 
Q 23.53125 6.390625 29.59375 6.390625 
Q 36.859375 6.390625 41.078125 11.03125 
Q 45.3125 15.671875 45.3125 23.6875 
L 45.3125 54.6875 
L 54.296875 54.6875 
L 54.296875 0 
L 45.3125 0 
L 45.3125 8.40625 
Q 42.046875 3.421875 37.71875 1 
Q 33.40625 -1.421875 27.6875 -1.421875 
Q 18.265625 -1.421875 13.375 4.4375 
Q 8.5 10.296875 8.5 21.578125 
z
M 31.109375 56 
z
" id="DejaVuSans-75"/>
      <path d="M 18.3125 70.21875 
L 18.3125 54.6875 
L 36.8125 54.6875 
L 36.8125 47.703125 
L 18.3125 47.703125 
L 18.3125 18.015625 
Q 18.3125 11.328125 20.140625 9.421875 
Q 21.96875 7.515625 27.59375 7.515625 
L 36.8125 7.515625 
L 36.8125 0 
L 27.59375 0 
Q 17.1875 0 13.234375 3.875 
Q 9.28125 7.765625 9.28125 18.015625 
L 9.28125 47.703125 
L 2.6875 47.703125 
L 2.6875 54.6875 
L 9.28125 54.6875 
L 9.28125 70.21875 
z
" id="DejaVuSans-74"/>
      <path d="M 9.421875 54.6875 
L 18.40625 54.6875 
L 18.40625 0 
L 9.421875 0 
z
M 9.421875 75.984375 
L 18.40625 75.984375 
L 18.40625 64.59375 
L 9.421875 64.59375 
z
" id="DejaVuSans-69"/>
      <path d="M 30.609375 48.390625 
Q 23.390625 48.390625 19.1875 42.75 
Q 14.984375 37.109375 14.984375 27.296875 
Q 14.984375 17.484375 19.15625 11.84375 
Q 23.34375 6.203125 30.609375 6.203125 
Q 37.796875 6.203125 41.984375 11.859375 
Q 46.1875 17.53125 46.1875 27.296875 
Q 46.1875 37.015625 41.984375 42.703125 
Q 37.796875 48.390625 30.609375 48.390625 
z
M 30.609375 56 
Q 42.328125 56 49.015625 48.375 
Q 55.71875 40.765625 55.71875 27.296875 
Q 55.71875 13.875 49.015625 6.21875 
Q 42.328125 -1.421875 30.609375 -1.421875 
Q 18.84375 -1.421875 12.171875 6.21875 
Q 5.515625 13.875 5.515625 27.296875 
Q 5.515625 40.765625 12.171875 48.375 
Q 18.84375 56 30.609375 56 
z
" id="DejaVuSans-6f"/>
      <path d="M 54.890625 33.015625 
L 54.890625 0 
L 45.90625 0 
L 45.90625 32.71875 
Q 45.90625 40.484375 42.875 44.328125 
Q 39.84375 48.1875 33.796875 48.1875 
Q 26.515625 48.1875 22.3125 43.546875 
Q 18.109375 38.921875 18.109375 30.90625 
L 18.109375 0 
L 9.078125 0 
L 9.078125 54.6875 
L 18.109375 54.6875 
L 18.109375 46.1875 
Q 21.34375 51.125 25.703125 53.5625 
Q 30.078125 56 35.796875 56 
Q 45.21875 56 50.046875 50.171875 
Q 54.890625 44.34375 54.890625 33.015625 
z
" id="DejaVuSans-6e"/>
      <path id="DejaVuSans-20"/>
      <path d="M 52 44.1875 
Q 55.375 50.25 60.0625 53.125 
Q 64.75 56 71.09375 56 
Q 79.640625 56 84.28125 50.015625 
Q 88.921875 44.046875 88.921875 33.015625 
L 88.921875 0 
L 79.890625 0 
L 79.890625 32.71875 
Q 79.890625 40.578125 77.09375 44.375 
Q 74.3125 48.1875 68.609375 48.1875 
Q 61.625 48.1875 57.5625 43.546875 
Q 53.515625 38.921875 53.515625 30.90625 
L 53.515625 0 
L 44.484375 0 
L 44.484375 32.71875 
Q 44.484375 40.625 41.703125 44.40625 
Q 38.921875 48.1875 33.109375 48.1875 
Q 26.21875 48.1875 22.15625 43.53125 
Q 18.109375 38.875 18.109375 30.90625 
L 18.109375 0 
L 9.078125 0 
L 9.078125 54.6875 
L 18.109375 54.6875 
L 18.109375 46.1875 
Q 21.1875 51.21875 25.484375 53.609375 
Q 29.78125 56 35.6875 56 
Q 41.65625 56 45.828125 52.96875 
Q 50 49.953125 52 44.1875 
z
" id="DejaVuSans-6d"/>
      <path d="M 31 75.875 
Q 24.46875 64.65625 21.28125 53.65625 
Q 18.109375 42.671875 18.109375 31.390625 
Q 18.109375 20.125 21.3125 9.0625 
Q 24.515625 -2 31 -13.1875 
L 23.1875 -13.1875 
Q 15.875 -1.703125 12.234375 9.375 
Q 8.59375 20.453125 8.59375 31.390625 
Q 8.59375 42.28125 12.203125 53.3125 
Q 15.828125 64.359375 23.1875 75.875 
z
" id="DejaVuSans-28"/>
      <path d="M 44.28125 53.078125 
L 44.28125 44.578125 
Q 40.484375 46.53125 36.375 47.5 
Q 32.28125 48.484375 27.875 48.484375 
Q 21.1875 48.484375 17.84375 46.4375 
Q 14.5 44.390625 14.5 40.28125 
Q 14.5 37.15625 16.890625 35.375 
Q 19.28125 33.59375 26.515625 31.984375 
L 29.59375 31.296875 
Q 39.15625 29.25 43.1875 25.515625 
Q 47.21875 21.78125 47.21875 15.09375 
Q 47.21875 7.46875 41.1875 3.015625 
Q 35.15625 -1.421875 24.609375 -1.421875 
Q 20.21875 -1.421875 15.453125 -0.5625 
Q 10.6875 0.296875 5.421875 2 
L 5.421875 11.28125 
Q 10.40625 8.6875 15.234375 7.390625 
Q 20.0625 6.109375 24.8125 6.109375 
Q 31.15625 6.109375 34.5625 8.28125 
Q 37.984375 10.453125 37.984375 14.40625 
Q 37.984375 18.0625 35.515625 20.015625 
Q 33.0625 21.96875 24.703125 23.78125 
L 21.578125 24.515625 
Q 13.234375 26.265625 9.515625 29.90625 
Q 5.8125 33.546875 5.8125 39.890625 
Q 5.8125 47.609375 11.28125 51.796875 
Q 16.75 56 26.8125 56 
Q 31.78125 56 36.171875 55.265625 
Q 40.578125 54.546875 44.28125 53.078125 
z
" id="DejaVuSans-73"/>
      <path d="M 8.015625 75.875 
L 15.828125 75.875 
Q 23.140625 64.359375 26.78125 53.3125 
Q 30.421875 42.28125 30.421875 31.390625 
Q 30.421875 20.453125 26.78125 9.375 
Q 23.140625 -1.703125 15.828125 -13.1875 
L 8.015625 -13.1875 
Q 14.5 -2 17.703125 9.0625 
Q 20.90625 20.125 20.90625 31.390625 
Q 20.90625 42.671875 17.703125 53.65625 
Q 14.5 64.65625 8.015625 75.875 
z
" id="DejaVuSans-29"/>
     </defs>
     <g transform="translate(190.49125 335.860562)scale(0.1 -0.1)">
      <use xlink:href="#DejaVuSans-45"/>
      <use x="63.183594" xlink:href="#DejaVuSans-78"/>
      <use x="122.316406" xlink:href="#DejaVuSans-65"/>
      <use x="183.839844" xlink:href="#DejaVuSans-63"/>
      <use x="238.820312" xlink:href="#DejaVuSans-75"/>
      <use x="302.199219" xlink:href="#DejaVuSans-74"/>
      <use x="341.408203" xlink:href="#DejaVuSans-69"/>
      <use x="369.191406" xlink:href="#DejaVuSans-6f"/>
      <use x="430.373047" xlink:href="#DejaVuSans-6e"/>
      <use x="493.751953" xlink:href="#DejaVuSans-20"/>
      <use x="525.539062" xlink:href="#DejaVuSans-74"/>
      <use x="564.748047" xlink:href="#DejaVuSans-69"/>
      <use x="592.53125" xlink:href="#DejaVuSans-6d"/>
      <use x="689.943359" xlink:href="#DejaVuSans-65"/>
      <use x="751.466797" xlink:href="#DejaVuSans-20"/>
      <use x="783.253906" xlink:href="#DejaVuSans-28"/>
      <use x="822.267578" xlink:href="#DejaVuSans-73"/>
      <use x="874.367188" xlink:href="#DejaVuSans-29"/>
     </g>
    </g>
   </g>
   <g id="matplotlib.axis_2">
    <g id="ytick_1">
     <g id="line2d_16">
      <defs>
       <path d="M 0 0 
L -3.5 0 
" id="md34ef7cc12" style="stroke:#000000;stroke-width:0.8;"/>
      </defs>
      <g>
       <use style="stroke:#000000;stroke-width:0.8;" x="57.6" xlink:href="#md34ef7cc12" y="295.488"/>
      </g>
     </g>
     <g id="text_4">
      <!-- 340 -->
      <g transform="translate(31.5125 299.287219)scale(0.1 -0.1)">
       <use xlink:href="#DejaVuSans-33"/>
       <use x="63.623047" xlink:href="#DejaVuSans-34"/>
       <use x="127.246094" xlink:href="#DejaVuSans-30"/>
      </g>
     </g>
    </g>
    <g id="ytick_2">
     <g id="line2d_17">
      <g>
       <use style="stroke:#000000;stroke-width:0.8;" x="57.6" xlink:href="#md34ef7cc12" y="237.888"/>
      </g>
     </g>
     <g id="text_5">
      <!-- 345 -->
      <defs>
       <path d="M 10.796875 72.90625 
L 49.515625 72.90625 
L 49.515625 64.59375 
L 19.828125 64.59375 
L 19.828125 46.734375 
Q 21.96875 47.46875 24.109375 47.828125 
Q 26.265625 48.1875 28.421875 48.1875 
Q 40.625 48.1875 47.75 41.5 
Q 54.890625 34.8125 54.890625 23.390625 
Q 54.890625 11.625 47.5625 5.09375 
Q 40.234375 -1.421875 26.90625 -1.421875 
Q 22.3125 -1.421875 17.546875 -0.640625 
Q 12.796875 0.140625 7.71875 1.703125 
L 7.71875 11.625 
Q 12.109375 9.234375 16.796875 8.0625 
Q 21.484375 6.890625 26.703125 6.890625 
Q 35.15625 6.890625 40.078125 11.328125 
Q 45.015625 15.765625 45.015625 23.390625 
Q 45.015625 31 40.078125 35.4375 
Q 35.15625 39.890625 26.703125 39.890625 
Q 22.75 39.890625 18.8125 39.015625 
Q 14.890625 38.140625 10.796875 36.28125 
z
" id="DejaVuSans-35"/>
      </defs>
      <g transform="translate(31.5125 241.687219)scale(0.1 -0.1)">
       <use xlink:href="#DejaVuSans-33"/>
       <use x="63.623047" xlink:href="#DejaVuSans-34"/>
       <use x="127.246094" xlink:href="#DejaVuSans-35"/>
      </g>
     </g>
    </g>
    <g id="ytick_3">
     <g id="line2d_18">
      <g>
       <use style="stroke:#000000;stroke-width:0.8;" x="57.6" xlink:href="#md34ef7cc12" y="180.288"/>
      </g>
     </g>
     <g id="text_6">
      <!-- 350 -->
      <g transform="translate(31.5125 184.087219)scale(0.1 -0.1)">
       <use xlink:href="#DejaVuSans-33"/>
       <use x="63.623047" xlink:href="#DejaVuSans-35"/>
       <use x="127.246094" xlink:href="#DejaVuSans-30"/>
      </g>
     </g>
    </g>
    <g id="ytick_4">
     <g id="line2d_19">
      <g>
       <use style="stroke:#000000;stroke-width:0.8;" x="57.6" xlink:href="#md34ef7cc12" y="122.688"/>
      </g>
     </g>
     <g id="text_7">
      <!-- 355 -->
      <g transform="translate(31.5125 126.487219)scale(0.1 -0.1)">
       <use xlink:href="#DejaVuSans-33"/>
       <use x="63.623047" xlink:href="#DejaVuSans-35"/>
       <use x="127.246094" xlink:href="#DejaVuSans-35"/>
      </g>
     </g>
    </g>
    <g id="ytick_5">
     <g id="line2d_20">
      <g>
       <use style="stroke:#000000;stroke-width:0.8;" x="57.6" xlink:href="#md34ef7cc12" y="65.088"/>
      </g>
     </g>
     <g id="text_8">
      <!-- 360 -->
      <defs>
       <path d="M 33.015625 40.375 
Q 26.375 40.375 22.484375 35.828125 
Q 18.609375 31.296875 18.609375 23.390625 
Q 18.609375 15.53125 22.484375 10.953125 
Q 26.375 6.390625 33.015625 6.390625 
Q 39.65625 6.390625 43.53125 10.953125 
Q 47.40625 15.53125 47.40625 23.390625 
Q 47.40625 31.296875 43.53125 35.828125 
Q 39.65625 40.375 33.015625 40.375 
z
M 52.59375 71.296875 
L 52.59375 62.3125 
Q 48.875 64.0625 45.09375 64.984375 
Q 41.3125 65.921875 37.59375 65.921875 
Q 27.828125 65.921875 22.671875 59.328125 
Q 17.53125 52.734375 16.796875 39.40625 
Q 19.671875 43.65625 24.015625 45.921875 
Q 28.375 48.1875 33.59375 48.1875 
Q 44.578125 48.1875 50.953125 41.515625 
Q 57.328125 34.859375 57.328125 23.390625 
Q 57.328125 12.15625 50.6875 5.359375 
Q 44.046875 -1.421875 33.015625 -1.421875 
Q 20.359375 -1.421875 13.671875 8.265625 
Q 6.984375 17.96875 6.984375 36.375 
Q 6.984375 53.65625 15.1875 63.9375 
Q 23.390625 74.21875 37.203125 74.21875 
Q 40.921875 74.21875 44.703125 73.484375 
Q 48.484375 72.75 52.59375 71.296875 
z
" id="DejaVuSans-36"/>
      </defs>
      <g transform="translate(31.5125 68.887219)scale(0.1 -0.1)">
       <use xlink:href="#DejaVuSans-33"/>
       <use x="63.623047" xlink:href="#DejaVuSans-36"/>
       <use x="127.246094" xlink:href="#DejaVuSans-30"/>
      </g>
     </g>
    </g>
    <g id="text_9">
     <!-- Number of core species -->
     <defs>
      <path d="M 9.8125 72.90625 
L 23.09375 72.90625 
L 55.421875 11.921875 
L 55.421875 72.90625 
L 64.984375 72.90625 
L 64.984375 0 
L 51.703125 0 
L 19.390625 60.984375 
L 19.390625 0 
L 9.8125 0 
z
" id="DejaVuSans-4e"/>
      <path d="M 48.6875 27.296875 
Q 48.6875 37.203125 44.609375 42.84375 
Q 40.53125 48.484375 33.40625 48.484375 
Q 26.265625 48.484375 22.1875 42.84375 
Q 18.109375 37.203125 18.109375 27.296875 
Q 18.109375 17.390625 22.1875 11.75 
Q 26.265625 6.109375 33.40625 6.109375 
Q 40.53125 6.109375 44.609375 11.75 
Q 48.6875 17.390625 48.6875 27.296875 
z
M 18.109375 46.390625 
Q 20.953125 51.265625 25.265625 53.625 
Q 29.59375 56 35.59375 56 
Q 45.5625 56 51.78125 48.09375 
Q 58.015625 40.1875 58.015625 27.296875 
Q 58.015625 14.40625 51.78125 6.484375 
Q 45.5625 -1.421875 35.59375 -1.421875 
Q 29.59375 -1.421875 25.265625 0.953125 
Q 20.953125 3.328125 18.109375 8.203125 
L 18.109375 0 
L 9.078125 0 
L 9.078125 75.984375 
L 18.109375 75.984375 
z
" id="DejaVuSans-62"/>
      <path d="M 41.109375 46.296875 
Q 39.59375 47.171875 37.8125 47.578125 
Q 36.03125 48 33.890625 48 
Q 26.265625 48 22.1875 43.046875 
Q 18.109375 38.09375 18.109375 28.8125 
L 18.109375 0 
L 9.078125 0 
L 9.078125 54.6875 
L 18.109375 54.6875 
L 18.109375 46.1875 
Q 20.953125 51.171875 25.484375 53.578125 
Q 30.03125 56 36.53125 56 
Q 37.453125 56 38.578125 55.875 
Q 39.703125 55.765625 41.0625 55.515625 
z
" id="DejaVuSans-72"/>
      <path d="M 37.109375 75.984375 
L 37.109375 68.5 
L 28.515625 68.5 
Q 23.6875 68.5 21.796875 66.546875 
Q 19.921875 64.59375 19.921875 59.515625 
L 19.921875 54.6875 
L 34.71875 54.6875 
L 34.71875 47.703125 
L 19.921875 47.703125 
L 19.921875 0 
L 10.890625 0 
L 10.890625 47.703125 
L 2.296875 47.703125 
L 2.296875 54.6875 
L 10.890625 54.6875 
L 10.890625 58.5 
Q 10.890625 67.625 15.140625 71.796875 
Q 19.390625 75.984375 28.609375 75.984375 
z
" id="DejaVuSans-66"/>
      <path d="M 18.109375 8.203125 
L 18.109375 -20.796875 
L 9.078125 -20.796875 
L 9.078125 54.6875 
L 18.109375 54.6875 
L 18.109375 46.390625 
Q 20.953125 51.265625 25.265625 53.625 
Q 29.59375 56 35.59375 56 
Q 45.5625 56 51.78125 48.09375 
Q 58.015625 40.1875 58.015625 27.296875 
Q 58.015625 14.40625 51.78125 6.484375 
Q 45.5625 -1.421875 35.59375 -1.421875 
Q 29.59375 -1.421875 25.265625 0.953125 
Q 20.953125 3.328125 18.109375 8.203125 
z
M 48.6875 27.296875 
Q 48.6875 37.203125 44.609375 42.84375 
Q 40.53125 48.484375 33.40625 48.484375 
Q 26.265625 48.484375 22.1875 42.84375 
Q 18.109375 37.203125 18.109375 27.296875 
Q 18.109375 17.390625 22.1875 11.75 
Q 26.265625 6.109375 33.40625 6.109375 
Q 40.53125 6.109375 44.609375 11.75 
Q 48.6875 17.390625 48.6875 27.296875 
z
" id="DejaVuSans-70"/>
     </defs>
     <g transform="translate(25.432812 233.814719)rotate(-90)scale(0.1 -0.1)">
      <use xlink:href="#DejaVuSans-4e"/>
      <use x="74.804688" xlink:href="#DejaVuSans-75"/>
      <use x="138.183594" xlink:href="#DejaVuSans-6d"/>
      <use x="235.595703" xlink:href="#DejaVuSans-62"/>
      <use x="299.072266" xlink:href="#DejaVuSans-65"/>
      <use x="360.595703" xlink:href="#DejaVuSans-72"/>
      <use x="401.708984" xlink:href="#DejaVuSans-20"/>
      <use x="433.496094" xlink:href="#DejaVuSans-6f"/>
      <use x="494.677734" xlink:href="#DejaVuSans-66"/>
      <use x="529.882812" xlink:href="#DejaVuSans-20"/>
      <use x="561.669922" xlink:href="#DejaVuSans-63"/>
      <use x="616.650391" xlink:href="#DejaVuSans-6f"/>
      <use x="677.832031" xlink:href="#DejaVuSans-72"/>
      <use x="718.914062" xlink:href="#DejaVuSans-65"/>
      <use x="780.4375" xlink:href="#DejaVuSans-20"/>
      <use x="812.224609" xlink:href="#DejaVuSans-73"/>
      <use x="864.324219" xlink:href="#DejaVuSans-70"/>
      <use x="927.800781" xlink:href="#DejaVuSans-65"/>
      <use x="989.324219" xlink:href="#DejaVuSans-63"/>
      <use x="1044.304688" xlink:href="#DejaVuSans-69"/>
      <use x="1072.087891" xlink:href="#DejaVuSans-65"/>
      <use x="1133.611328" xlink:href="#DejaVuSans-73"/>
     </g>
    </g>
   </g>
   <g id="line2d_21">
    <path clip-path="url(#p9ec1f340a6)" d="M 73.832727 295.488 
L 297.642753 295.488 
L 300.475048 295.488 
L 308.572784 295.488 
L 310.655953 283.968 
L 315.737353 272.448 
L 317.503523 260.928 
L 325.769209 249.408 
L 327.179288 249.408 
L 328.548257 249.408 
L 330.076585 249.408 
L 331.46165 249.408 
L 332.816821 249.408 
L 334.202697 237.888 
L 335.872589 237.888 
L 339.462621 237.888 
L 342.861954 226.368 
L 344.23735 214.848 
L 346.153548 203.328 
L 347.563374 191.808 
L 348.648487 191.808 
L 350.378561 180.288 
L 351.566571 168.768 
L 352.91497 157.248 
L 354.067636 157.248 
L 355.265209 157.248 
L 356.589031 157.248 
L 357.657386 157.248 
L 358.727019 157.248 
L 359.735696 157.248 
L 360.95644 157.248 
L 362.288897 145.728 
L 363.66448 145.728 
L 364.715579 145.728 
L 365.754012 145.728 
L 366.678597 145.728 
L 368.257763 145.728 
L 369.723984 134.208 
L 370.664724 134.208 
L 372.033892 134.208 
L 373.892357 134.208 
L 375.212622 122.688 
L 376.279922 111.168 
L 377.712089 111.168 
L 378.540289 111.168 
L 379.678435 111.168 
L 381.556547 111.168 
L 382.460357 99.648 
L 383.334116 88.128 
L 384.294333 76.608 
L 385.240448 76.608 
L 386.044229 76.608 
L 387.01914 76.608 
L 388.778508 65.088 
L 389.779038 53.568 
L 390.542517 53.568 
L 391.374872 53.568 
L 392.153574 53.568 
L 392.986424 53.568 
L 393.798694 53.568 
L 394.577573 53.568 
L 395.360894 53.568 
L 396.130376 53.568 
L 396.914415 53.568 
L 397.713978 53.568 
L 398.487273 53.568 
" style="fill:none;stroke:#0000ff;stroke-linecap:square;stroke-width:1.5;"/>
    <defs>
     <path d="M 0 3 
C 0.795609 3 1.55874 2.683901 2.12132 2.12132 
C 2.683901 1.55874 3 0.795609 3 0 
C 3 -0.795609 2.683901 -1.55874 2.12132 -2.12132 
C 1.55874 -2.683901 0.795609 -3 0 -3 
C -0.795609 -3 -1.55874 -2.683901 -2.12132 -2.12132 
C -2.683901 -1.55874 -3 -0.795609 -3 0 
C -3 0.795609 -2.683901 1.55874 -2.12132 2.12132 
C -1.55874 2.683901 -0.795609 3 0 3 
z
" id="m41044827ea" style="stroke:#0000ff;"/>
    </defs>
    <g clip-path="url(#p9ec1f340a6)">
     <use style="fill:#0000ff;stroke:#0000ff;" x="73.832727" xlink:href="#m41044827ea" y="295.488"/>
     <use style="fill:#0000ff;stroke:#0000ff;" x="297.642753" xlink:href="#m41044827ea" y="295.488"/>
     <use style="fill:#0000ff;stroke:#0000ff;" x="300.475048" xlink:href="#m41044827ea" y="295.488"/>
     <use style="fill:#0000ff;stroke:#0000ff;" x="308.572784" xlink:href="#m41044827ea" y="295.488"/>
     <use style="fill:#0000ff;stroke:#0000ff;" x="310.655953" xlink:href="#m41044827ea" y="283.968"/>
     <use style="fill:#0000ff;stroke:#0000ff;" x="315.737353" xlink:href="#m41044827ea" y="272.448"/>
     <use style="fill:#0000ff;stroke:#0000ff;" x="317.503523" xlink:href="#m41044827ea" y="260.928"/>
     <use style="fill:#0000ff;stroke:#0000ff;" x="325.769209" xlink:href="#m41044827ea" y="249.408"/>
     <use style="fill:#0000ff;stroke:#0000ff;" x="327.179288" xlink:href="#m41044827ea" y="249.408"/>
     <use style="fill:#0000ff;stroke:#0000ff;" x="328.548257" xlink:href="#m41044827ea" y="249.408"/>
     <use style="fill:#0000ff;stroke:#0000ff;" x="330.076585" xlink:href="#m41044827ea" y="249.408"/>
     <use style="fill:#0000ff;stroke:#0000ff;" x="331.46165" xlink:href="#m41044827ea" y="249.408"/>
     <use style="fill:#0000ff;stroke:#0000ff;" x="332.816821" xlink:href="#m41044827ea" y="249.408"/>
     <use style="fill:#0000ff;stroke:#0000ff;" x="334.202697" xlink:href="#m41044827ea" y="237.888"/>
     <use style="fill:#0000ff;stroke:#0000ff;" x="335.872589" xlink:href="#m41044827ea" y="237.888"/>
     <use style="fill:#0000ff;stroke:#0000ff;" x="339.462621" xlink:href="#m41044827ea" y="237.888"/>
     <use style="fill:#0000ff;stroke:#0000ff;" x="342.861954" xlink:href="#m41044827ea" y="226.368"/>
     <use style="fill:#0000ff;stroke:#0000ff;" x="344.23735" xlink:href="#m41044827ea" y="214.848"/>
     <use style="fill:#0000ff;stroke:#0000ff;" x="346.153548" xlink:href="#m41044827ea" y="203.328"/>
     <use style="fill:#0000ff;stroke:#0000ff;" x="347.563374" xlink:href="#m41044827ea" y="191.808"/>
     <use style="fill:#0000ff;stroke:#0000ff;" x="348.648487" xlink:href="#m41044827ea" y="191.808"/>
     <use style="fill:#0000ff;stroke:#0000ff;" x="350.378561" xlink:href="#m41044827ea" y="180.288"/>
     <use style="fill:#0000ff;stroke:#0000ff;" x="351.566571" xlink:href="#m41044827ea" y="168.768"/>
     <use style="fill:#0000ff;stroke:#0000ff;" x="352.91497" xlink:href="#m41044827ea" y="157.248"/>
     <use style="fill:#0000ff;stroke:#0000ff;" x="354.067636" xlink:href="#m41044827ea" y="157.248"/>
     <use style="fill:#0000ff;stroke:#0000ff;" x="355.265209" xlink:href="#m41044827ea" y="157.248"/>
     <use style="fill:#0000ff;stroke:#0000ff;" x="356.589031" xlink:href="#m41044827ea" y="157.248"/>
     <use style="fill:#0000ff;stroke:#0000ff;" x="357.657386" xlink:href="#m41044827ea" y="157.248"/>
     <use style="fill:#0000ff;stroke:#0000ff;" x="358.727019" xlink:href="#m41044827ea" y="157.248"/>
     <use style="fill:#0000ff;stroke:#0000ff;" x="359.735696" xlink:href="#m41044827ea" y="157.248"/>
     <use style="fill:#0000ff;stroke:#0000ff;" x="360.95644" xlink:href="#m41044827ea" y="157.248"/>
     <use style="fill:#0000ff;stroke:#0000ff;" x="362.288897" xlink:href="#m41044827ea" y="145.728"/>
     <use style="fill:#0000ff;stroke:#0000ff;" x="363.66448" xlink:href="#m41044827ea" y="145.728"/>
     <use style="fill:#0000ff;stroke:#0000ff;" x="364.715579" xlink:href="#m41044827ea" y="145.728"/>
     <use style="fill:#0000ff;stroke:#0000ff;" x="365.754012" xlink:href="#m41044827ea" y="145.728"/>
     <use style="fill:#0000ff;stroke:#0000ff;" x="366.678597" xlink:href="#m41044827ea" y="145.728"/>
     <use style="fill:#0000ff;stroke:#0000ff;" x="368.257763" xlink:href="#m41044827ea" y="145.728"/>
     <use style="fill:#0000ff;stroke:#0000ff;" x="369.723984" xlink:href="#m41044827ea" y="134.208"/>
     <use style="fill:#0000ff;stroke:#0000ff;" x="370.664724" xlink:href="#m41044827ea" y="134.208"/>
     <use style="fill:#0000ff;stroke:#0000ff;" x="372.033892" xlink:href="#m41044827ea" y="134.208"/>
     <use style="fill:#0000ff;stroke:#0000ff;" x="373.892357" xlink:href="#m41044827ea" y="134.208"/>
     <use style="fill:#0000ff;stroke:#0000ff;" x="375.212622" xlink:href="#m41044827ea" y="122.688"/>
     <use style="fill:#0000ff;stroke:#0000ff;" x="376.279922" xlink:href="#m41044827ea" y="111.168"/>
     <use style="fill:#0000ff;stroke:#0000ff;" x="377.712089" xlink:href="#m41044827ea" y="111.168"/>
     <use style="fill:#0000ff;stroke:#0000ff;" x="378.540289" xlink:href="#m41044827ea" y="111.168"/>
     <use style="fill:#0000ff;stroke:#0000ff;" x="379.678435" xlink:href="#m41044827ea" y="111.168"/>
     <use style="fill:#0000ff;stroke:#0000ff;" x="381.556547" xlink:href="#m41044827ea" y="111.168"/>
     <use style="fill:#0000ff;stroke:#0000ff;" x="382.460357" xlink:href="#m41044827ea" y="99.648"/>
     <use style="fill:#0000ff;stroke:#0000ff;" x="383.334116" xlink:href="#m41044827ea" y="88.128"/>
     <use style="fill:#0000ff;stroke:#0000ff;" x="384.294333" xlink:href="#m41044827ea" y="76.608"/>
     <use style="fill:#0000ff;stroke:#0000ff;" x="385.240448" xlink:href="#m41044827ea" y="76.608"/>
     <use style="fill:#0000ff;stroke:#0000ff;" x="386.044229" xlink:href="#m41044827ea" y="76.608"/>
     <use style="fill:#0000ff;stroke:#0000ff;" x="387.01914" xlink:href="#m41044827ea" y="76.608"/>
     <use style="fill:#0000ff;stroke:#0000ff;" x="388.778508" xlink:href="#m41044827ea" y="65.088"/>
     <use style="fill:#0000ff;stroke:#0000ff;" x="389.779038" xlink:href="#m41044827ea" y="53.568"/>
     <use style="fill:#0000ff;stroke:#0000ff;" x="390.542517" xlink:href="#m41044827ea" y="53.568"/>
     <use style="fill:#0000ff;stroke:#0000ff;" x="391.374872" xlink:href="#m41044827ea" y="53.568"/>
     <use style="fill:#0000ff;stroke:#0000ff;" x="392.153574" xlink:href="#m41044827ea" y="53.568"/>
     <use style="fill:#0000ff;stroke:#0000ff;" x="392.986424" xlink:href="#m41044827ea" y="53.568"/>
     <use style="fill:#0000ff;stroke:#0000ff;" x="393.798694" xlink:href="#m41044827ea" y="53.568"/>
     <use style="fill:#0000ff;stroke:#0000ff;" x="394.577573" xlink:href="#m41044827ea" y="53.568"/>
     <use style="fill:#0000ff;stroke:#0000ff;" x="395.360894" xlink:href="#m41044827ea" y="53.568"/>
     <use style="fill:#0000ff;stroke:#0000ff;" x="396.130376" xlink:href="#m41044827ea" y="53.568"/>
     <use style="fill:#0000ff;stroke:#0000ff;" x="396.914415" xlink:href="#m41044827ea" y="53.568"/>
     <use style="fill:#0000ff;stroke:#0000ff;" x="397.713978" xlink:href="#m41044827ea" y="53.568"/>
     <use style="fill:#0000ff;stroke:#0000ff;" x="398.487273" xlink:href="#m41044827ea" y="53.568"/>
    </g>
   </g>
   <g id="patch_3">
    <path d="M 57.6 307.584 
L 57.6 41.472 
" style="fill:none;stroke:#000000;stroke-linecap:square;stroke-linejoin:miter;stroke-width:0.8;"/>
   </g>
   <g id="patch_4">
    <path d="M 414.72 307.584 
L 414.72 41.472 
" style="fill:none;stroke:#000000;stroke-linecap:square;stroke-linejoin:miter;stroke-width:0.8;"/>
   </g>
   <g id="patch_5">
    <path d="M 57.6 307.584 
L 414.72 307.584 
" style="fill:none;stroke:#000000;stroke-linecap:square;stroke-linejoin:miter;stroke-width:0.8;"/>
   </g>
   <g id="patch_6">
    <path d="M 57.6 41.472 
L 414.72 41.472 
" style="fill:none;stroke:#000000;stroke-linecap:square;stroke-linejoin:miter;stroke-width:0.8;"/>
   </g>
  </g>
  <g id="axes_2">
   <g id="matplotlib.axis_3">
    <g id="ytick_6">
     <g id="line2d_22">
      <defs>
       <path d="M 0 0 
L 3.5 0 
" id="m376fe1492a" style="stroke:#000000;stroke-width:0.8;"/>
      </defs>
      <g>
       <use style="stroke:#000000;stroke-width:0.8;" x="414.72" xlink:href="#m376fe1492a" y="275.978323"/>
      </g>
     </g>
     <g id="text_10">
      <!-- 8000 -->
      <defs>
       <path d="M 31.78125 34.625 
Q 24.75 34.625 20.71875 30.859375 
Q 16.703125 27.09375 16.703125 20.515625 
Q 16.703125 13.921875 20.71875 10.15625 
Q 24.75 6.390625 31.78125 6.390625 
Q 38.8125 6.390625 42.859375 10.171875 
Q 46.921875 13.96875 46.921875 20.515625 
Q 46.921875 27.09375 42.890625 30.859375 
Q 38.875 34.625 31.78125 34.625 
z
M 21.921875 38.8125 
Q 15.578125 40.375 12.03125 44.71875 
Q 8.5 49.078125 8.5 55.328125 
Q 8.5 64.0625 14.71875 69.140625 
Q 20.953125 74.21875 31.78125 74.21875 
Q 42.671875 74.21875 48.875 69.140625 
Q 55.078125 64.0625 55.078125 55.328125 
Q 55.078125 49.078125 51.53125 44.71875 
Q 48 40.375 41.703125 38.8125 
Q 48.828125 37.15625 52.796875 32.3125 
Q 56.78125 27.484375 56.78125 20.515625 
Q 56.78125 9.90625 50.3125 4.234375 
Q 43.84375 -1.421875 31.78125 -1.421875 
Q 19.734375 -1.421875 13.25 4.234375 
Q 6.78125 9.90625 6.78125 20.515625 
Q 6.78125 27.484375 10.78125 32.3125 
Q 14.796875 37.15625 21.921875 38.8125 
z
M 18.3125 54.390625 
Q 18.3125 48.734375 21.84375 45.5625 
Q 25.390625 42.390625 31.78125 42.390625 
Q 38.140625 42.390625 41.71875 45.5625 
Q 45.3125 48.734375 45.3125 54.390625 
Q 45.3125 60.0625 41.71875 63.234375 
Q 38.140625 66.40625 31.78125 66.40625 
Q 25.390625 66.40625 21.84375 63.234375 
Q 18.3125 60.0625 18.3125 54.390625 
z
" id="DejaVuSans-38"/>
      </defs>
      <g transform="translate(421.72 279.777541)scale(0.1 -0.1)">
       <use xlink:href="#DejaVuSans-38"/>
       <use x="63.623047" xlink:href="#DejaVuSans-30"/>
       <use x="127.246094" xlink:href="#DejaVuSans-30"/>
       <use x="190.869141" xlink:href="#DejaVuSans-30"/>
      </g>
     </g>
    </g>
    <g id="ytick_7">
     <g id="line2d_23">
      <g>
       <use style="stroke:#000000;stroke-width:0.8;" x="414.72" xlink:href="#m376fe1492a" y="234.905317"/>
      </g>
     </g>
     <g id="text_11">
      <!-- 8200 -->
      <defs>
       <path d="M 19.1875 8.296875 
L 53.609375 8.296875 
L 53.609375 0 
L 7.328125 0 
L 7.328125 8.296875 
Q 12.9375 14.109375 22.625 23.890625 
Q 32.328125 33.6875 34.8125 36.53125 
Q 39.546875 41.84375 41.421875 45.53125 
Q 43.3125 49.21875 43.3125 52.78125 
Q 43.3125 58.59375 39.234375 62.25 
Q 35.15625 65.921875 28.609375 65.921875 
Q 23.96875 65.921875 18.8125 64.3125 
Q 13.671875 62.703125 7.8125 59.421875 
L 7.8125 69.390625 
Q 13.765625 71.78125 18.9375 73 
Q 24.125 74.21875 28.421875 74.21875 
Q 39.75 74.21875 46.484375 68.546875 
Q 53.21875 62.890625 53.21875 53.421875 
Q 53.21875 48.921875 51.53125 44.890625 
Q 49.859375 40.875 45.40625 35.40625 
Q 44.1875 33.984375 37.640625 27.21875 
Q 31.109375 20.453125 19.1875 8.296875 
z
" id="DejaVuSans-32"/>
      </defs>
      <g transform="translate(421.72 238.704536)scale(0.1 -0.1)">
       <use xlink:href="#DejaVuSans-38"/>
       <use x="63.623047" xlink:href="#DejaVuSans-32"/>
       <use x="127.246094" xlink:href="#DejaVuSans-30"/>
       <use x="190.869141" xlink:href="#DejaVuSans-30"/>
      </g>
     </g>
    </g>
    <g id="ytick_8">
     <g id="line2d_24">
      <g>
       <use style="stroke:#000000;stroke-width:0.8;" x="414.72" xlink:href="#m376fe1492a" y="193.832312"/>
      </g>
     </g>
     <g id="text_12">
      <!-- 8400 -->
      <g transform="translate(421.72 197.631531)scale(0.1 -0.1)">
       <use xlink:href="#DejaVuSans-38"/>
       <use x="63.623047" xlink:href="#DejaVuSans-34"/>
       <use x="127.246094" xlink:href="#DejaVuSans-30"/>
       <use x="190.869141" xlink:href="#DejaVuSans-30"/>
      </g>
     </g>
    </g>
    <g id="ytick_9">
     <g id="line2d_25">
      <g>
       <use style="stroke:#000000;stroke-width:0.8;" x="414.72" xlink:href="#m376fe1492a" y="152.759307"/>
      </g>
     </g>
     <g id="text_13">
      <!-- 8600 -->
      <g transform="translate(421.72 156.558526)scale(0.1 -0.1)">
       <use xlink:href="#DejaVuSans-38"/>
       <use x="63.623047" xlink:href="#DejaVuSans-36"/>
       <use x="127.246094" xlink:href="#DejaVuSans-30"/>
       <use x="190.869141" xlink:href="#DejaVuSans-30"/>
      </g>
     </g>
    </g>
    <g id="ytick_10">
     <g id="line2d_26">
      <g>
       <use style="stroke:#000000;stroke-width:0.8;" x="414.72" xlink:href="#m376fe1492a" y="111.686302"/>
      </g>
     </g>
     <g id="text_14">
      <!-- 8800 -->
      <g transform="translate(421.72 115.485521)scale(0.1 -0.1)">
       <use xlink:href="#DejaVuSans-38"/>
       <use x="63.623047" xlink:href="#DejaVuSans-38"/>
       <use x="127.246094" xlink:href="#DejaVuSans-30"/>
       <use x="190.869141" xlink:href="#DejaVuSans-30"/>
      </g>
     </g>
    </g>
    <g id="ytick_11">
     <g id="line2d_27">
      <g>
       <use style="stroke:#000000;stroke-width:0.8;" x="414.72" xlink:href="#m376fe1492a" y="70.613297"/>
      </g>
     </g>
     <g id="text_15">
      <!-- 9000 -->
      <defs>
       <path d="M 10.984375 1.515625 
L 10.984375 10.5 
Q 14.703125 8.734375 18.5 7.8125 
Q 22.3125 6.890625 25.984375 6.890625 
Q 35.75 6.890625 40.890625 13.453125 
Q 46.046875 20.015625 46.78125 33.40625 
Q 43.953125 29.203125 39.59375 26.953125 
Q 35.25 24.703125 29.984375 24.703125 
Q 19.046875 24.703125 12.671875 31.3125 
Q 6.296875 37.9375 6.296875 49.421875 
Q 6.296875 60.640625 12.9375 67.421875 
Q 19.578125 74.21875 30.609375 74.21875 
Q 43.265625 74.21875 49.921875 64.515625 
Q 56.59375 54.828125 56.59375 36.375 
Q 56.59375 19.140625 48.40625 8.859375 
Q 40.234375 -1.421875 26.421875 -1.421875 
Q 22.703125 -1.421875 18.890625 -0.6875 
Q 15.09375 0.046875 10.984375 1.515625 
z
M 30.609375 32.421875 
Q 37.25 32.421875 41.125 36.953125 
Q 45.015625 41.5 45.015625 49.421875 
Q 45.015625 57.28125 41.125 61.84375 
Q 37.25 66.40625 30.609375 66.40625 
Q 23.96875 66.40625 20.09375 61.84375 
Q 16.21875 57.28125 16.21875 49.421875 
Q 16.21875 41.5 20.09375 36.953125 
Q 23.96875 32.421875 30.609375 32.421875 
z
" id="DejaVuSans-39"/>
      </defs>
      <g transform="translate(421.72 74.412516)scale(0.1 -0.1)">
       <use xlink:href="#DejaVuSans-39"/>
       <use x="63.623047" xlink:href="#DejaVuSans-30"/>
       <use x="127.246094" xlink:href="#DejaVuSans-30"/>
       <use x="190.869141" xlink:href="#DejaVuSans-30"/>
      </g>
     </g>
    </g>
    <g id="text_16">
     <!-- Number of core reactions -->
     <defs>
      <path d="M 34.28125 27.484375 
Q 23.390625 27.484375 19.1875 25 
Q 14.984375 22.515625 14.984375 16.5 
Q 14.984375 11.71875 18.140625 8.90625 
Q 21.296875 6.109375 26.703125 6.109375 
Q 34.1875 6.109375 38.703125 11.40625 
Q 43.21875 16.703125 43.21875 25.484375 
L 43.21875 27.484375 
z
M 52.203125 31.203125 
L 52.203125 0 
L 43.21875 0 
L 43.21875 8.296875 
Q 40.140625 3.328125 35.546875 0.953125 
Q 30.953125 -1.421875 24.3125 -1.421875 
Q 15.921875 -1.421875 10.953125 3.296875 
Q 6 8.015625 6 15.921875 
Q 6 25.140625 12.171875 29.828125 
Q 18.359375 34.515625 30.609375 34.515625 
L 43.21875 34.515625 
L 43.21875 35.40625 
Q 43.21875 41.609375 39.140625 45 
Q 35.0625 48.390625 27.6875 48.390625 
Q 23 48.390625 18.546875 47.265625 
Q 14.109375 46.140625 10.015625 43.890625 
L 10.015625 52.203125 
Q 14.9375 54.109375 19.578125 55.046875 
Q 24.21875 56 28.609375 56 
Q 40.484375 56 46.34375 49.84375 
Q 52.203125 43.703125 52.203125 31.203125 
z
" id="DejaVuSans-61"/>
     </defs>
     <g transform="translate(458.768438 238.2655)rotate(-90)scale(0.1 -0.1)">
      <use xlink:href="#DejaVuSans-4e"/>
      <use x="74.804688" xlink:href="#DejaVuSans-75"/>
      <use x="138.183594" xlink:href="#DejaVuSans-6d"/>
      <use x="235.595703" xlink:href="#DejaVuSans-62"/>
      <use x="299.072266" xlink:href="#DejaVuSans-65"/>
      <use x="360.595703" xlink:href="#DejaVuSans-72"/>
      <use x="401.708984" xlink:href="#DejaVuSans-20"/>
      <use x="433.496094" xlink:href="#DejaVuSans-6f"/>
      <use x="494.677734" xlink:href="#DejaVuSans-66"/>
      <use x="529.882812" xlink:href="#DejaVuSans-20"/>
      <use x="561.669922" xlink:href="#DejaVuSans-63"/>
      <use x="616.650391" xlink:href="#DejaVuSans-6f"/>
      <use x="677.832031" xlink:href="#DejaVuSans-72"/>
      <use x="718.914062" xlink:href="#DejaVuSans-65"/>
      <use x="780.4375" xlink:href="#DejaVuSans-20"/>
      <use x="812.224609" xlink:href="#DejaVuSans-72"/>
      <use x="853.306641" xlink:href="#DejaVuSans-65"/>
      <use x="914.830078" xlink:href="#DejaVuSans-61"/>
      <use x="976.109375" xlink:href="#DejaVuSans-63"/>
      <use x="1031.089844" xlink:href="#DejaVuSans-74"/>
      <use x="1070.298828" xlink:href="#DejaVuSans-69"/>
      <use x="1098.082031" xlink:href="#DejaVuSans-6f"/>
      <use x="1159.263672" xlink:href="#DejaVuSans-6e"/>
      <use x="1222.642578" xlink:href="#DejaVuSans-73"/>
     </g>
    </g>
   </g>
   <g id="line2d_28">
    <path clip-path="url(#p9ec1f340a6)" d="M 73.832727 295.488 
L 297.642753 266.736896 
L 300.475048 266.736896 
L 308.572784 266.736896 
L 310.655953 265.915436 
L 315.737353 257.9062 
L 317.503523 257.700835 
L 325.769209 256.468645 
L 327.179288 256.468645 
L 328.548257 256.468645 
L 330.076585 256.468645 
L 331.46165 256.468645 
L 332.816821 256.468645 
L 334.202697 256.26328 
L 335.872589 256.26328 
L 339.462621 255.85255 
L 342.861954 253.38817 
L 344.23735 252.97744 
L 346.153548 214.779545 
L 347.563374 214.368815 
L 348.648487 214.368815 
L 350.378561 213.75272 
L 351.566571 213.34199 
L 352.91497 212.725895 
L 354.067636 212.725895 
L 355.265209 212.725895 
L 356.589031 212.725895 
L 357.657386 212.725895 
L 358.727019 212.725895 
L 359.735696 212.725895 
L 360.95644 212.1098 
L 362.288897 178.635301 
L 363.66448 169.188509 
L 364.715579 169.188509 
L 365.754012 169.188509 
L 366.678597 169.188509 
L 368.257763 156.866608 
L 369.723984 151.321752 
L 370.664724 151.321752 
L 372.033892 149.268102 
L 373.892357 146.803722 
L 375.212622 104.293161 
L 376.279922 102.034146 
L 377.712089 97.72148 
L 378.540289 97.72148 
L 379.678435 96.283925 
L 381.556547 94.84637 
L 382.460357 94.641005 
L 383.334116 94.43564 
L 384.294333 92.38199 
L 385.240448 92.38199 
L 386.044229 92.38199 
L 387.01914 92.38199 
L 388.778508 68.765012 
L 389.779038 53.97873 
L 390.542517 53.97873 
L 391.374872 53.97873 
L 392.153574 53.568 
L 392.986424 53.568 
L 393.798694 53.568 
L 394.577573 53.568 
L 395.360894 53.568 
L 396.130376 53.568 
L 396.914415 53.568 
L 397.713978 53.568 
L 398.487273 53.568 
" style="fill:none;stroke:#ff0000;stroke-linecap:square;stroke-width:1.5;"/>
    <defs>
     <path d="M 0 3 
C 0.795609 3 1.55874 2.683901 2.12132 2.12132 
C 2.683901 1.55874 3 0.795609 3 0 
C 3 -0.795609 2.683901 -1.55874 2.12132 -2.12132 
C 1.55874 -2.683901 0.795609 -3 0 -3 
C -0.795609 -3 -1.55874 -2.683901 -2.12132 -2.12132 
C -2.683901 -1.55874 -3 -0.795609 -3 0 
C -3 0.795609 -2.683901 1.55874 -2.12132 2.12132 
C -1.55874 2.683901 -0.795609 3 0 3 
z
" id="mca62f608b8" style="stroke:#ff0000;"/>
    </defs>
    <g clip-path="url(#p9ec1f340a6)">
     <use style="fill:#ff0000;stroke:#ff0000;" x="73.832727" xlink:href="#mca62f608b8" y="295.488"/>
     <use style="fill:#ff0000;stroke:#ff0000;" x="297.642753" xlink:href="#mca62f608b8" y="266.736896"/>
     <use style="fill:#ff0000;stroke:#ff0000;" x="300.475048" xlink:href="#mca62f608b8" y="266.736896"/>
     <use style="fill:#ff0000;stroke:#ff0000;" x="308.572784" xlink:href="#mca62f608b8" y="266.736896"/>
     <use style="fill:#ff0000;stroke:#ff0000;" x="310.655953" xlink:href="#mca62f608b8" y="265.915436"/>
     <use style="fill:#ff0000;stroke:#ff0000;" x="315.737353" xlink:href="#mca62f608b8" y="257.9062"/>
     <use style="fill:#ff0000;stroke:#ff0000;" x="317.503523" xlink:href="#mca62f608b8" y="257.700835"/>
     <use style="fill:#ff0000;stroke:#ff0000;" x="325.769209" xlink:href="#mca62f608b8" y="256.468645"/>
     <use style="fill:#ff0000;stroke:#ff0000;" x="327.179288" xlink:href="#mca62f608b8" y="256.468645"/>
     <use style="fill:#ff0000;stroke:#ff0000;" x="328.548257" xlink:href="#mca62f608b8" y="256.468645"/>
     <use style="fill:#ff0000;stroke:#ff0000;" x="330.076585" xlink:href="#mca62f608b8" y="256.468645"/>
     <use style="fill:#ff0000;stroke:#ff0000;" x="331.46165" xlink:href="#mca62f608b8" y="256.468645"/>
     <use style="fill:#ff0000;stroke:#ff0000;" x="332.816821" xlink:href="#mca62f608b8" y="256.468645"/>
     <use style="fill:#ff0000;stroke:#ff0000;" x="334.202697" xlink:href="#mca62f608b8" y="256.26328"/>
     <use style="fill:#ff0000;stroke:#ff0000;" x="335.872589" xlink:href="#mca62f608b8" y="256.26328"/>
     <use style="fill:#ff0000;stroke:#ff0000;" x="339.462621" xlink:href="#mca62f608b8" y="255.85255"/>
     <use style="fill:#ff0000;stroke:#ff0000;" x="342.861954" xlink:href="#mca62f608b8" y="253.38817"/>
     <use style="fill:#ff0000;stroke:#ff0000;" x="344.23735" xlink:href="#mca62f608b8" y="252.97744"/>
     <use style="fill:#ff0000;stroke:#ff0000;" x="346.153548" xlink:href="#mca62f608b8" y="214.779545"/>
     <use style="fill:#ff0000;stroke:#ff0000;" x="347.563374" xlink:href="#mca62f608b8" y="214.368815"/>
     <use style="fill:#ff0000;stroke:#ff0000;" x="348.648487" xlink:href="#mca62f608b8" y="214.368815"/>
     <use style="fill:#ff0000;stroke:#ff0000;" x="350.378561" xlink:href="#mca62f608b8" y="213.75272"/>
     <use style="fill:#ff0000;stroke:#ff0000;" x="351.566571" xlink:href="#mca62f608b8" y="213.34199"/>
     <use style="fill:#ff0000;stroke:#ff0000;" x="352.91497" xlink:href="#mca62f608b8" y="212.725895"/>
     <use style="fill:#ff0000;stroke:#ff0000;" x="354.067636" xlink:href="#mca62f608b8" y="212.725895"/>
     <use style="fill:#ff0000;stroke:#ff0000;" x="355.265209" xlink:href="#mca62f608b8" y="212.725895"/>
     <use style="fill:#ff0000;stroke:#ff0000;" x="356.589031" xlink:href="#mca62f608b8" y="212.725895"/>
     <use style="fill:#ff0000;stroke:#ff0000;" x="357.657386" xlink:href="#mca62f608b8" y="212.725895"/>
     <use style="fill:#ff0000;stroke:#ff0000;" x="358.727019" xlink:href="#mca62f608b8" y="212.725895"/>
     <use style="fill:#ff0000;stroke:#ff0000;" x="359.735696" xlink:href="#mca62f608b8" y="212.725895"/>
     <use style="fill:#ff0000;stroke:#ff0000;" x="360.95644" xlink:href="#mca62f608b8" y="212.1098"/>
     <use style="fill:#ff0000;stroke:#ff0000;" x="362.288897" xlink:href="#mca62f608b8" y="178.635301"/>
     <use style="fill:#ff0000;stroke:#ff0000;" x="363.66448" xlink:href="#mca62f608b8" y="169.188509"/>
     <use style="fill:#ff0000;stroke:#ff0000;" x="364.715579" xlink:href="#mca62f608b8" y="169.188509"/>
     <use style="fill:#ff0000;stroke:#ff0000;" x="365.754012" xlink:href="#mca62f608b8" y="169.188509"/>
     <use style="fill:#ff0000;stroke:#ff0000;" x="366.678597" xlink:href="#mca62f608b8" y="169.188509"/>
     <use style="fill:#ff0000;stroke:#ff0000;" x="368.257763" xlink:href="#mca62f608b8" y="156.866608"/>
     <use style="fill:#ff0000;stroke:#ff0000;" x="369.723984" xlink:href="#mca62f608b8" y="151.321752"/>
     <use style="fill:#ff0000;stroke:#ff0000;" x="370.664724" xlink:href="#mca62f608b8" y="151.321752"/>
     <use style="fill:#ff0000;stroke:#ff0000;" x="372.033892" xlink:href="#mca62f608b8" y="149.268102"/>
     <use style="fill:#ff0000;stroke:#ff0000;" x="373.892357" xlink:href="#mca62f608b8" y="146.803722"/>
     <use style="fill:#ff0000;stroke:#ff0000;" x="375.212622" xlink:href="#mca62f608b8" y="104.293161"/>
     <use style="fill:#ff0000;stroke:#ff0000;" x="376.279922" xlink:href="#mca62f608b8" y="102.034146"/>
     <use style="fill:#ff0000;stroke:#ff0000;" x="377.712089" xlink:href="#mca62f608b8" y="97.72148"/>
     <use style="fill:#ff0000;stroke:#ff0000;" x="378.540289" xlink:href="#mca62f608b8" y="97.72148"/>
     <use style="fill:#ff0000;stroke:#ff0000;" x="379.678435" xlink:href="#mca62f608b8" y="96.283925"/>
     <use style="fill:#ff0000;stroke:#ff0000;" x="381.556547" xlink:href="#mca62f608b8" y="94.84637"/>
     <use style="fill:#ff0000;stroke:#ff0000;" x="382.460357" xlink:href="#mca62f608b8" y="94.641005"/>
     <use style="fill:#ff0000;stroke:#ff0000;" x="383.334116" xlink:href="#mca62f608b8" y="94.43564"/>
     <use style="fill:#ff0000;stroke:#ff0000;" x="384.294333" xlink:href="#mca62f608b8" y="92.38199"/>
     <use style="fill:#ff0000;stroke:#ff0000;" x="385.240448" xlink:href="#mca62f608b8" y="92.38199"/>
     <use style="fill:#ff0000;stroke:#ff0000;" x="386.044229" xlink:href="#mca62f608b8" y="92.38199"/>
     <use style="fill:#ff0000;stroke:#ff0000;" x="387.01914" xlink:href="#mca62f608b8" y="92.38199"/>
     <use style="fill:#ff0000;stroke:#ff0000;" x="388.778508" xlink:href="#mca62f608b8" y="68.765012"/>
     <use style="fill:#ff0000;stroke:#ff0000;" x="389.779038" xlink:href="#mca62f608b8" y="53.97873"/>
     <use style="fill:#ff0000;stroke:#ff0000;" x="390.542517" xlink:href="#mca62f608b8" y="53.97873"/>
     <use style="fill:#ff0000;stroke:#ff0000;" x="391.374872" xlink:href="#mca62f608b8" y="53.97873"/>
     <use style="fill:#ff0000;stroke:#ff0000;" x="392.153574" xlink:href="#mca62f608b8" y="53.568"/>
     <use style="fill:#ff0000;stroke:#ff0000;" x="392.986424" xlink:href="#mca62f608b8" y="53.568"/>
     <use style="fill:#ff0000;stroke:#ff0000;" x="393.798694" xlink:href="#mca62f608b8" y="53.568"/>
     <use style="fill:#ff0000;stroke:#ff0000;" x="394.577573" xlink:href="#mca62f608b8" y="53.568"/>
     <use style="fill:#ff0000;stroke:#ff0000;" x="395.360894" xlink:href="#mca62f608b8" y="53.568"/>
     <use style="fill:#ff0000;stroke:#ff0000;" x="396.130376" xlink:href="#mca62f608b8" y="53.568"/>
     <use style="fill:#ff0000;stroke:#ff0000;" x="396.914415" xlink:href="#mca62f608b8" y="53.568"/>
     <use style="fill:#ff0000;stroke:#ff0000;" x="397.713978" xlink:href="#mca62f608b8" y="53.568"/>
     <use style="fill:#ff0000;stroke:#ff0000;" x="398.487273" xlink:href="#mca62f608b8" y="53.568"/>
    </g>
   </g>
   <g id="patch_7">
    <path d="M 57.6 307.584 
L 57.6 41.472 
" style="fill:none;stroke:#000000;stroke-linecap:square;stroke-linejoin:miter;stroke-width:0.8;"/>
   </g>
   <g id="patch_8">
    <path d="M 414.72 307.584 
L 414.72 41.472 
" style="fill:none;stroke:#000000;stroke-linecap:square;stroke-linejoin:miter;stroke-width:0.8;"/>
   </g>
   <g id="patch_9">
    <path d="M 57.6 307.584 
L 414.72 307.584 
" style="fill:none;stroke:#000000;stroke-linecap:square;stroke-linejoin:miter;stroke-width:0.8;"/>
   </g>
   <g id="patch_10">
    <path d="M 57.6 41.472 
L 414.72 41.472 
" style="fill:none;stroke:#000000;stroke-linecap:square;stroke-linejoin:miter;stroke-width:0.8;"/>
   </g>
  </g>
 </g>
 <defs>
  <clipPath id="p9ec1f340a6">
   <rect height="266.112" width="357.12" x="57.6" y="41.472"/>
  </clipPath>
 </defs>
</svg>
