<?xml version="1.0" encoding="utf-8" standalone="no"?>
<!DOCTYPE svg PUBLIC "-//W3C//DTD SVG 1.1//EN"
  "http://www.w3.org/Graphics/SVG/1.1/DTD/svg11.dtd">
<!-- Created with matplotlib (http://matplotlib.org/) -->
<svg height="345.6pt" version="1.1" viewBox="0 0 460.8 345.6" width="460.8pt" xmlns="http://www.w3.org/2000/svg" xmlns:xlink="http://www.w3.org/1999/xlink">
 <defs>
  <style type="text/css">
*{stroke-linecap:butt;stroke-linejoin:round;}
  </style>
 </defs>
 <g id="figure_1">
  <g id="patch_1">
   <path d="M 0 345.6 
L 460.8 345.6 
L 460.8 0 
L 0 0 
z
" style="fill:#ffffff;"/>
  </g>
  <g id="axes_1">
   <g id="patch_2">
    <path d="M 57.6 307.584 
L 414.72 307.584 
L 414.72 41.472 
L 57.6 41.472 
z
" style="fill:#ffffff;"/>
   </g>
   <g id="matplotlib.axis_1">
    <g id="xtick_1">
     <g id="line2d_1">
      <defs>
       <path d="M 0 0 
L 0 3.5 
" id="m8c765b6a56" style="stroke:#000000;stroke-width:0.8;"/>
      </defs>
      <g>
       <use style="stroke:#000000;stroke-width:0.8;" x="187.968116" xlink:href="#m8c765b6a56" y="307.584"/>
      </g>
     </g>
     <g id="text_1">
      <!-- $\mathdefault{10^{3}}$ -->
      <defs>
       <path d="M 12.40625 8.296875 
L 28.515625 8.296875 
L 28.515625 63.921875 
L 10.984375 60.40625 
L 10.984375 69.390625 
L 28.421875 72.90625 
L 38.28125 72.90625 
L 38.28125 8.296875 
L 54.390625 8.296875 
L 54.390625 0 
L 12.40625 0 
z
" id="DejaVuSans-31"/>
       <path d="M 31.78125 66.40625 
Q 24.171875 66.40625 20.328125 58.90625 
Q 16.5 51.421875 16.5 36.375 
Q 16.5 21.390625 20.328125 13.890625 
Q 24.171875 6.390625 31.78125 6.390625 
Q 39.453125 6.390625 43.28125 13.890625 
Q 47.125 21.390625 47.125 36.375 
Q 47.125 51.421875 43.28125 58.90625 
Q 39.453125 66.40625 31.78125 66.40625 
z
M 31.78125 74.21875 
Q 44.046875 74.21875 50.515625 64.515625 
Q 56.984375 54.828125 56.984375 36.375 
Q 56.984375 17.96875 50.515625 8.265625 
Q 44.046875 -1.421875 31.78125 -1.421875 
Q 19.53125 -1.421875 13.0625 8.265625 
Q 6.59375 17.96875 6.59375 36.375 
Q 6.59375 54.828125 13.0625 64.515625 
Q 19.53125 74.21875 31.78125 74.21875 
z
" id="DejaVuSans-30"/>
       <path d="M 40.578125 39.3125 
Q 47.65625 37.796875 51.625 33 
Q 55.609375 28.21875 55.609375 21.1875 
Q 55.609375 10.40625 48.1875 4.484375 
Q 40.765625 -1.421875 27.09375 -1.421875 
Q 22.515625 -1.421875 17.65625 -0.515625 
Q 12.796875 0.390625 7.625 2.203125 
L 7.625 11.71875 
Q 11.71875 9.328125 16.59375 8.109375 
Q 21.484375 6.890625 26.8125 6.890625 
Q 36.078125 6.890625 40.9375 10.546875 
Q 45.796875 14.203125 45.796875 21.1875 
Q 45.796875 27.640625 41.28125 31.265625 
Q 36.765625 34.90625 28.71875 34.90625 
L 20.21875 34.90625 
L 20.21875 43.015625 
L 29.109375 43.015625 
Q 36.375 43.015625 40.234375 45.921875 
Q 44.09375 48.828125 44.09375 54.296875 
Q 44.09375 59.90625 40.109375 62.90625 
Q 36.140625 65.921875 28.71875 65.921875 
Q 24.65625 65.921875 20.015625 65.03125 
Q 15.375 64.15625 9.8125 62.3125 
L 9.8125 71.09375 
Q 15.4375 72.65625 20.34375 73.4375 
Q 25.25 74.21875 29.59375 74.21875 
Q 40.828125 74.21875 47.359375 69.109375 
Q 53.90625 64.015625 53.90625 55.328125 
Q 53.90625 49.265625 50.4375 45.09375 
Q 46.96875 40.921875 40.578125 39.3125 
z
" id="DejaVuSans-33"/>
      </defs>
      <g transform="translate(179.168116 322.182437)scale(0.1 -0.1)">
       <use transform="translate(0 0.765625)" xlink:href="#DejaVuSans-31"/>
       <use transform="translate(63.623047 0.765625)" xlink:href="#DejaVuSans-30"/>
       <use transform="translate(128.203125 39.046875)scale(0.7)" xlink:href="#DejaVuSans-33"/>
      </g>
     </g>
    </g>
    <g id="xtick_2">
     <g id="line2d_2">
      <g>
       <use style="stroke:#000000;stroke-width:0.8;" x="321.574605" xlink:href="#m8c765b6a56" y="307.584"/>
      </g>
     </g>
     <g id="text_2">
      <!-- $\mathdefault{10^{4}}$ -->
      <defs>
       <path d="M 37.796875 64.3125 
L 12.890625 25.390625 
L 37.796875 25.390625 
z
M 35.203125 72.90625 
L 47.609375 72.90625 
L 47.609375 25.390625 
L 58.015625 25.390625 
L 58.015625 17.1875 
L 47.609375 17.1875 
L 47.609375 0 
L 37.796875 0 
L 37.796875 17.1875 
L 4.890625 17.1875 
L 4.890625 26.703125 
z
" id="DejaVuSans-34"/>
      </defs>
      <g transform="translate(312.774605 322.182437)scale(0.1 -0.1)">
       <use transform="translate(0 0.684375)" xlink:href="#DejaVuSans-31"/>
       <use transform="translate(63.623047 0.684375)" xlink:href="#DejaVuSans-30"/>
       <use transform="translate(128.203125 38.965625)scale(0.7)" xlink:href="#DejaVuSans-34"/>
      </g>
     </g>
    </g>
    <g id="xtick_3">
     <g id="line2d_3">
      <defs>
       <path d="M 0 0 
L 0 2 
" id="m961bbe1d7b" style="stroke:#000000;stroke-width:0.6;"/>
      </defs>
      <g>
       <use style="stroke:#000000;stroke-width:0.6;" x="94.581187" xlink:href="#m961bbe1d7b" y="307.584"/>
      </g>
     </g>
    </g>
    <g id="xtick_4">
     <g id="line2d_4">
      <g>
       <use style="stroke:#000000;stroke-width:0.6;" x="118.108122" xlink:href="#m961bbe1d7b" y="307.584"/>
      </g>
     </g>
    </g>
    <g id="xtick_5">
     <g id="line2d_5">
      <g>
       <use style="stroke:#000000;stroke-width:0.6;" x="134.800748" xlink:href="#m961bbe1d7b" y="307.584"/>
      </g>
     </g>
    </g>
    <g id="xtick_6">
     <g id="line2d_6">
      <g>
       <use style="stroke:#000000;stroke-width:0.6;" x="147.748555" xlink:href="#m961bbe1d7b" y="307.584"/>
      </g>
     </g>
    </g>
    <g id="xtick_7">
     <g id="line2d_7">
      <g>
       <use style="stroke:#000000;stroke-width:0.6;" x="158.327683" xlink:href="#m961bbe1d7b" y="307.584"/>
      </g>
     </g>
    </g>
    <g id="xtick_8">
     <g id="line2d_8">
      <g>
       <use style="stroke:#000000;stroke-width:0.6;" x="167.272208" xlink:href="#m961bbe1d7b" y="307.584"/>
      </g>
     </g>
    </g>
    <g id="xtick_9">
     <g id="line2d_9">
      <g>
       <use style="stroke:#000000;stroke-width:0.6;" x="175.020309" xlink:href="#m961bbe1d7b" y="307.584"/>
      </g>
     </g>
    </g>
    <g id="xtick_10">
     <g id="line2d_10">
      <g>
       <use style="stroke:#000000;stroke-width:0.6;" x="181.854618" xlink:href="#m961bbe1d7b" y="307.584"/>
      </g>
     </g>
    </g>
    <g id="xtick_11">
     <g id="line2d_11">
      <g>
       <use style="stroke:#000000;stroke-width:0.6;" x="228.187676" xlink:href="#m961bbe1d7b" y="307.584"/>
      </g>
     </g>
    </g>
    <g id="xtick_12">
     <g id="line2d_12">
      <g>
       <use style="stroke:#000000;stroke-width:0.6;" x="251.714611" xlink:href="#m961bbe1d7b" y="307.584"/>
      </g>
     </g>
    </g>
    <g id="xtick_13">
     <g id="line2d_13">
      <g>
       <use style="stroke:#000000;stroke-width:0.6;" x="268.407237" xlink:href="#m961bbe1d7b" y="307.584"/>
      </g>
     </g>
    </g>
    <g id="xtick_14">
     <g id="line2d_14">
      <g>
       <use style="stroke:#000000;stroke-width:0.6;" x="281.355044" xlink:href="#m961bbe1d7b" y="307.584"/>
      </g>
     </g>
    </g>
    <g id="xtick_15">
     <g id="line2d_15">
      <g>
       <use style="stroke:#000000;stroke-width:0.6;" x="291.934172" xlink:href="#m961bbe1d7b" y="307.584"/>
      </g>
     </g>
    </g>
    <g id="xtick_16">
     <g id="line2d_16">
      <g>
       <use style="stroke:#000000;stroke-width:0.6;" x="300.878698" xlink:href="#m961bbe1d7b" y="307.584"/>
      </g>
     </g>
    </g>
    <g id="xtick_17">
     <g id="line2d_17">
      <g>
       <use style="stroke:#000000;stroke-width:0.6;" x="308.626798" xlink:href="#m961bbe1d7b" y="307.584"/>
      </g>
     </g>
    </g>
    <g id="xtick_18">
     <g id="line2d_18">
      <g>
       <use style="stroke:#000000;stroke-width:0.6;" x="315.461107" xlink:href="#m961bbe1d7b" y="307.584"/>
      </g>
     </g>
    </g>
    <g id="xtick_19">
     <g id="line2d_19">
      <g>
       <use style="stroke:#000000;stroke-width:0.6;" x="361.794165" xlink:href="#m961bbe1d7b" y="307.584"/>
      </g>
     </g>
    </g>
    <g id="xtick_20">
     <g id="line2d_20">
      <g>
       <use style="stroke:#000000;stroke-width:0.6;" x="385.3211" xlink:href="#m961bbe1d7b" y="307.584"/>
      </g>
     </g>
    </g>
    <g id="xtick_21">
     <g id="line2d_21">
      <g>
       <use style="stroke:#000000;stroke-width:0.6;" x="402.013726" xlink:href="#m961bbe1d7b" y="307.584"/>
      </g>
     </g>
    </g>
    <g id="xtick_22">
     <g id="line2d_22">
      <g>
       <use style="stroke:#000000;stroke-width:0.6;" x="414.961533" xlink:href="#m961bbe1d7b" y="307.584"/>
      </g>
     </g>
    </g>
    <g id="text_3">
     <!-- Execution time (s) -->
     <defs>
      <path d="M 9.8125 72.90625 
L 55.90625 72.90625 
L 55.90625 64.59375 
L 19.671875 64.59375 
L 19.671875 43.015625 
L 54.390625 43.015625 
L 54.390625 34.71875 
L 19.671875 34.71875 
L 19.671875 8.296875 
L 56.78125 8.296875 
L 56.78125 0 
L 9.8125 0 
z
" id="DejaVuSans-45"/>
      <path d="M 54.890625 54.6875 
L 35.109375 28.078125 
L 55.90625 0 
L 45.3125 0 
L 29.390625 21.484375 
L 13.484375 0 
L 2.875 0 
L 24.125 28.609375 
L 4.6875 54.6875 
L 15.28125 54.6875 
L 29.78125 35.203125 
L 44.28125 54.6875 
z
" id="DejaVuSans-78"/>
      <path d="M 56.203125 29.59375 
L 56.203125 25.203125 
L 14.890625 25.203125 
Q 15.484375 15.921875 20.484375 11.0625 
Q 25.484375 6.203125 34.421875 6.203125 
Q 39.59375 6.203125 44.453125 7.46875 
Q 49.3125 8.734375 54.109375 11.28125 
L 54.109375 2.78125 
Q 49.265625 0.734375 44.1875 -0.34375 
Q 39.109375 -1.421875 33.890625 -1.421875 
Q 20.796875 -1.421875 13.15625 6.1875 
Q 5.515625 13.8125 5.515625 26.8125 
Q 5.515625 40.234375 12.765625 48.109375 
Q 20.015625 56 32.328125 56 
Q 43.359375 56 49.78125 48.890625 
Q 56.203125 41.796875 56.203125 29.59375 
z
M 47.21875 32.234375 
Q 47.125 39.59375 43.09375 43.984375 
Q 39.0625 48.390625 32.421875 48.390625 
Q 24.90625 48.390625 20.390625 44.140625 
Q 15.875 39.890625 15.1875 32.171875 
z
" id="DejaVuSans-65"/>
      <path d="M 48.78125 52.59375 
L 48.78125 44.1875 
Q 44.96875 46.296875 41.140625 47.34375 
Q 37.3125 48.390625 33.40625 48.390625 
Q 24.65625 48.390625 19.8125 42.84375 
Q 14.984375 37.3125 14.984375 27.296875 
Q 14.984375 17.28125 19.8125 11.734375 
Q 24.65625 6.203125 33.40625 6.203125 
Q 37.3125 6.203125 41.140625 7.25 
Q 44.96875 8.296875 48.78125 10.40625 
L 48.78125 2.09375 
Q 45.015625 0.34375 40.984375 -0.53125 
Q 36.96875 -1.421875 32.421875 -1.421875 
Q 20.0625 -1.421875 12.78125 6.34375 
Q 5.515625 14.109375 5.515625 27.296875 
Q 5.515625 40.671875 12.859375 48.328125 
Q 20.21875 56 33.015625 56 
Q 37.15625 56 41.109375 55.140625 
Q 45.0625 54.296875 48.78125 52.59375 
z
" id="DejaVuSans-63"/>
      <path d="M 8.5 21.578125 
L 8.5 54.6875 
L 17.484375 54.6875 
L 17.484375 21.921875 
Q 17.484375 14.15625 20.5 10.265625 
Q 23.53125 6.390625 29.59375 6.390625 
Q 36.859375 6.390625 41.078125 11.03125 
Q 45.3125 15.671875 45.3125 23.6875 
L 45.3125 54.6875 
L 54.296875 54.6875 
L 54.296875 0 
L 45.3125 0 
L 45.3125 8.40625 
Q 42.046875 3.421875 37.71875 1 
Q 33.40625 -1.421875 27.6875 -1.421875 
Q 18.265625 -1.421875 13.375 4.4375 
Q 8.5 10.296875 8.5 21.578125 
z
M 31.109375 56 
z
" id="DejaVuSans-75"/>
      <path d="M 18.3125 70.21875 
L 18.3125 54.6875 
L 36.8125 54.6875 
L 36.8125 47.703125 
L 18.3125 47.703125 
L 18.3125 18.015625 
Q 18.3125 11.328125 20.140625 9.421875 
Q 21.96875 7.515625 27.59375 7.515625 
L 36.8125 7.515625 
L 36.8125 0 
L 27.59375 0 
Q 17.1875 0 13.234375 3.875 
Q 9.28125 7.765625 9.28125 18.015625 
L 9.28125 47.703125 
L 2.6875 47.703125 
L 2.6875 54.6875 
L 9.28125 54.6875 
L 9.28125 70.21875 
z
" id="DejaVuSans-74"/>
      <path d="M 9.421875 54.6875 
L 18.40625 54.6875 
L 18.40625 0 
L 9.421875 0 
z
M 9.421875 75.984375 
L 18.40625 75.984375 
L 18.40625 64.59375 
L 9.421875 64.59375 
z
" id="DejaVuSans-69"/>
      <path d="M 30.609375 48.390625 
Q 23.390625 48.390625 19.1875 42.75 
Q 14.984375 37.109375 14.984375 27.296875 
Q 14.984375 17.484375 19.15625 11.84375 
Q 23.34375 6.203125 30.609375 6.203125 
Q 37.796875 6.203125 41.984375 11.859375 
Q 46.1875 17.53125 46.1875 27.296875 
Q 46.1875 37.015625 41.984375 42.703125 
Q 37.796875 48.390625 30.609375 48.390625 
z
M 30.609375 56 
Q 42.328125 56 49.015625 48.375 
Q 55.71875 40.765625 55.71875 27.296875 
Q 55.71875 13.875 49.015625 6.21875 
Q 42.328125 -1.421875 30.609375 -1.421875 
Q 18.84375 -1.421875 12.171875 6.21875 
Q 5.515625 13.875 5.515625 27.296875 
Q 5.515625 40.765625 12.171875 48.375 
Q 18.84375 56 30.609375 56 
z
" id="DejaVuSans-6f"/>
      <path d="M 54.890625 33.015625 
L 54.890625 0 
L 45.90625 0 
L 45.90625 32.71875 
Q 45.90625 40.484375 42.875 44.328125 
Q 39.84375 48.1875 33.796875 48.1875 
Q 26.515625 48.1875 22.3125 43.546875 
Q 18.109375 38.921875 18.109375 30.90625 
L 18.109375 0 
L 9.078125 0 
L 9.078125 54.6875 
L 18.109375 54.6875 
L 18.109375 46.1875 
Q 21.34375 51.125 25.703125 53.5625 
Q 30.078125 56 35.796875 56 
Q 45.21875 56 50.046875 50.171875 
Q 54.890625 44.34375 54.890625 33.015625 
z
" id="DejaVuSans-6e"/>
      <path id="DejaVuSans-20"/>
      <path d="M 52 44.1875 
Q 55.375 50.25 60.0625 53.125 
Q 64.75 56 71.09375 56 
Q 79.640625 56 84.28125 50.015625 
Q 88.921875 44.046875 88.921875 33.015625 
L 88.921875 0 
L 79.890625 0 
L 79.890625 32.71875 
Q 79.890625 40.578125 77.09375 44.375 
Q 74.3125 48.1875 68.609375 48.1875 
Q 61.625 48.1875 57.5625 43.546875 
Q 53.515625 38.921875 53.515625 30.90625 
L 53.515625 0 
L 44.484375 0 
L 44.484375 32.71875 
Q 44.484375 40.625 41.703125 44.40625 
Q 38.921875 48.1875 33.109375 48.1875 
Q 26.21875 48.1875 22.15625 43.53125 
Q 18.109375 38.875 18.109375 30.90625 
L 18.109375 0 
L 9.078125 0 
L 9.078125 54.6875 
L 18.109375 54.6875 
L 18.109375 46.1875 
Q 21.1875 51.21875 25.484375 53.609375 
Q 29.78125 56 35.6875 56 
Q 41.65625 56 45.828125 52.96875 
Q 50 49.953125 52 44.1875 
z
" id="DejaVuSans-6d"/>
      <path d="M 31 75.875 
Q 24.46875 64.65625 21.28125 53.65625 
Q 18.109375 42.671875 18.109375 31.390625 
Q 18.109375 20.125 21.3125 9.0625 
Q 24.515625 -2 31 -13.1875 
L 23.1875 -13.1875 
Q 15.875 -1.703125 12.234375 9.375 
Q 8.59375 20.453125 8.59375 31.390625 
Q 8.59375 42.28125 12.203125 53.3125 
Q 15.828125 64.359375 23.1875 75.875 
z
" id="DejaVuSans-28"/>
      <path d="M 44.28125 53.078125 
L 44.28125 44.578125 
Q 40.484375 46.53125 36.375 47.5 
Q 32.28125 48.484375 27.875 48.484375 
Q 21.1875 48.484375 17.84375 46.4375 
Q 14.5 44.390625 14.5 40.28125 
Q 14.5 37.15625 16.890625 35.375 
Q 19.28125 33.59375 26.515625 31.984375 
L 29.59375 31.296875 
Q 39.15625 29.25 43.1875 25.515625 
Q 47.21875 21.78125 47.21875 15.09375 
Q 47.21875 7.46875 41.1875 3.015625 
Q 35.15625 -1.421875 24.609375 -1.421875 
Q 20.21875 -1.421875 15.453125 -0.5625 
Q 10.6875 0.296875 5.421875 2 
L 5.421875 11.28125 
Q 10.40625 8.6875 15.234375 7.390625 
Q 20.0625 6.109375 24.8125 6.109375 
Q 31.15625 6.109375 34.5625 8.28125 
Q 37.984375 10.453125 37.984375 14.40625 
Q 37.984375 18.0625 35.515625 20.015625 
Q 33.0625 21.96875 24.703125 23.78125 
L 21.578125 24.515625 
Q 13.234375 26.265625 9.515625 29.90625 
Q 5.8125 33.546875 5.8125 39.890625 
Q 5.8125 47.609375 11.28125 51.796875 
Q 16.75 56 26.8125 56 
Q 31.78125 56 36.171875 55.265625 
Q 40.578125 54.546875 44.28125 53.078125 
z
" id="DejaVuSans-73"/>
      <path d="M 8.015625 75.875 
L 15.828125 75.875 
Q 23.140625 64.359375 26.78125 53.3125 
Q 30.421875 42.28125 30.421875 31.390625 
Q 30.421875 20.453125 26.78125 9.375 
Q 23.140625 -1.703125 15.828125 -13.1875 
L 8.015625 -13.1875 
Q 14.5 -2 17.703125 9.0625 
Q 20.90625 20.125 20.90625 31.390625 
Q 20.90625 42.671875 17.703125 53.65625 
Q 14.5 64.65625 8.015625 75.875 
z
" id="DejaVuSans-29"/>
     </defs>
     <g transform="translate(190.49125 335.860562)scale(0.1 -0.1)">
      <use xlink:href="#DejaVuSans-45"/>
      <use x="63.183594" xlink:href="#DejaVuSans-78"/>
      <use x="122.316406" xlink:href="#DejaVuSans-65"/>
      <use x="183.839844" xlink:href="#DejaVuSans-63"/>
      <use x="238.820312" xlink:href="#DejaVuSans-75"/>
      <use x="302.199219" xlink:href="#DejaVuSans-74"/>
      <use x="341.408203" xlink:href="#DejaVuSans-69"/>
      <use x="369.191406" xlink:href="#DejaVuSans-6f"/>
      <use x="430.373047" xlink:href="#DejaVuSans-6e"/>
      <use x="493.751953" xlink:href="#DejaVuSans-20"/>
      <use x="525.539062" xlink:href="#DejaVuSans-74"/>
      <use x="564.748047" xlink:href="#DejaVuSans-69"/>
      <use x="592.53125" xlink:href="#DejaVuSans-6d"/>
      <use x="689.943359" xlink:href="#DejaVuSans-65"/>
      <use x="751.466797" xlink:href="#DejaVuSans-20"/>
      <use x="783.253906" xlink:href="#DejaVuSans-28"/>
      <use x="822.267578" xlink:href="#DejaVuSans-73"/>
      <use x="874.367188" xlink:href="#DejaVuSans-29"/>
     </g>
    </g>
   </g>
   <g id="matplotlib.axis_2">
    <g id="ytick_1">
     <g id="line2d_23">
      <defs>
       <path d="M 0 0 
L -3.5 0 
" id="m15b1fed995" style="stroke:#000000;stroke-width:0.8;"/>
      </defs>
      <g>
       <use style="stroke:#000000;stroke-width:0.8;" x="57.6" xlink:href="#m15b1fed995" y="295.488"/>
      </g>
     </g>
     <g id="text_4">
      <!-- 0 -->
      <g transform="translate(44.2375 299.287219)scale(0.1 -0.1)">
       <use xlink:href="#DejaVuSans-30"/>
      </g>
     </g>
    </g>
    <g id="ytick_2">
     <g id="line2d_24">
      <g>
       <use style="stroke:#000000;stroke-width:0.8;" x="57.6" xlink:href="#m15b1fed995" y="264.240034"/>
      </g>
     </g>
     <g id="text_5">
      <!-- 1000 -->
      <g transform="translate(25.15 268.039252)scale(0.1 -0.1)">
       <use xlink:href="#DejaVuSans-31"/>
       <use x="63.623047" xlink:href="#DejaVuSans-30"/>
       <use x="127.246094" xlink:href="#DejaVuSans-30"/>
       <use x="190.869141" xlink:href="#DejaVuSans-30"/>
      </g>
     </g>
    </g>
    <g id="ytick_3">
     <g id="line2d_25">
      <g>
       <use style="stroke:#000000;stroke-width:0.8;" x="57.6" xlink:href="#m15b1fed995" y="232.992067"/>
      </g>
     </g>
     <g id="text_6">
      <!-- 2000 -->
      <defs>
       <path d="M 19.1875 8.296875 
L 53.609375 8.296875 
L 53.609375 0 
L 7.328125 0 
L 7.328125 8.296875 
Q 12.9375 14.109375 22.625 23.890625 
Q 32.328125 33.6875 34.8125 36.53125 
Q 39.546875 41.84375 41.421875 45.53125 
Q 43.3125 49.21875 43.3125 52.78125 
Q 43.3125 58.59375 39.234375 62.25 
Q 35.15625 65.921875 28.609375 65.921875 
Q 23.96875 65.921875 18.8125 64.3125 
Q 13.671875 62.703125 7.8125 59.421875 
L 7.8125 69.390625 
Q 13.765625 71.78125 18.9375 73 
Q 24.125 74.21875 28.421875 74.21875 
Q 39.75 74.21875 46.484375 68.546875 
Q 53.21875 62.890625 53.21875 53.421875 
Q 53.21875 48.921875 51.53125 44.890625 
Q 49.859375 40.875 45.40625 35.40625 
Q 44.1875 33.984375 37.640625 27.21875 
Q 31.109375 20.453125 19.1875 8.296875 
z
" id="DejaVuSans-32"/>
      </defs>
      <g transform="translate(25.15 236.791286)scale(0.1 -0.1)">
       <use xlink:href="#DejaVuSans-32"/>
       <use x="63.623047" xlink:href="#DejaVuSans-30"/>
       <use x="127.246094" xlink:href="#DejaVuSans-30"/>
       <use x="190.869141" xlink:href="#DejaVuSans-30"/>
      </g>
     </g>
    </g>
    <g id="ytick_4">
     <g id="line2d_26">
      <g>
       <use style="stroke:#000000;stroke-width:0.8;" x="57.6" xlink:href="#m15b1fed995" y="201.744101"/>
      </g>
     </g>
     <g id="text_7">
      <!-- 3000 -->
      <g transform="translate(25.15 205.54332)scale(0.1 -0.1)">
       <use xlink:href="#DejaVuSans-33"/>
       <use x="63.623047" xlink:href="#DejaVuSans-30"/>
       <use x="127.246094" xlink:href="#DejaVuSans-30"/>
       <use x="190.869141" xlink:href="#DejaVuSans-30"/>
      </g>
     </g>
    </g>
    <g id="ytick_5">
     <g id="line2d_27">
      <g>
       <use style="stroke:#000000;stroke-width:0.8;" x="57.6" xlink:href="#m15b1fed995" y="170.496134"/>
      </g>
     </g>
     <g id="text_8">
      <!-- 4000 -->
      <g transform="translate(25.15 174.295353)scale(0.1 -0.1)">
       <use xlink:href="#DejaVuSans-34"/>
       <use x="63.623047" xlink:href="#DejaVuSans-30"/>
       <use x="127.246094" xlink:href="#DejaVuSans-30"/>
       <use x="190.869141" xlink:href="#DejaVuSans-30"/>
      </g>
     </g>
    </g>
    <g id="ytick_6">
     <g id="line2d_28">
      <g>
       <use style="stroke:#000000;stroke-width:0.8;" x="57.6" xlink:href="#m15b1fed995" y="139.248168"/>
      </g>
     </g>
     <g id="text_9">
      <!-- 5000 -->
      <defs>
       <path d="M 10.796875 72.90625 
L 49.515625 72.90625 
L 49.515625 64.59375 
L 19.828125 64.59375 
L 19.828125 46.734375 
Q 21.96875 47.46875 24.109375 47.828125 
Q 26.265625 48.1875 28.421875 48.1875 
Q 40.625 48.1875 47.75 41.5 
Q 54.890625 34.8125 54.890625 23.390625 
Q 54.890625 11.625 47.5625 5.09375 
Q 40.234375 -1.421875 26.90625 -1.421875 
Q 22.3125 -1.421875 17.546875 -0.640625 
Q 12.796875 0.140625 7.71875 1.703125 
L 7.71875 11.625 
Q 12.109375 9.234375 16.796875 8.0625 
Q 21.484375 6.890625 26.703125 6.890625 
Q 35.15625 6.890625 40.078125 11.328125 
Q 45.015625 15.765625 45.015625 23.390625 
Q 45.015625 31 40.078125 35.4375 
Q 35.15625 39.890625 26.703125 39.890625 
Q 22.75 39.890625 18.8125 39.015625 
Q 14.890625 38.140625 10.796875 36.28125 
z
" id="DejaVuSans-35"/>
      </defs>
      <g transform="translate(25.15 143.047387)scale(0.1 -0.1)">
       <use xlink:href="#DejaVuSans-35"/>
       <use x="63.623047" xlink:href="#DejaVuSans-30"/>
       <use x="127.246094" xlink:href="#DejaVuSans-30"/>
       <use x="190.869141" xlink:href="#DejaVuSans-30"/>
      </g>
     </g>
    </g>
    <g id="ytick_7">
     <g id="line2d_29">
      <g>
       <use style="stroke:#000000;stroke-width:0.8;" x="57.6" xlink:href="#m15b1fed995" y="108.000202"/>
      </g>
     </g>
     <g id="text_10">
      <!-- 6000 -->
      <defs>
       <path d="M 33.015625 40.375 
Q 26.375 40.375 22.484375 35.828125 
Q 18.609375 31.296875 18.609375 23.390625 
Q 18.609375 15.53125 22.484375 10.953125 
Q 26.375 6.390625 33.015625 6.390625 
Q 39.65625 6.390625 43.53125 10.953125 
Q 47.40625 15.53125 47.40625 23.390625 
Q 47.40625 31.296875 43.53125 35.828125 
Q 39.65625 40.375 33.015625 40.375 
z
M 52.59375 71.296875 
L 52.59375 62.3125 
Q 48.875 64.0625 45.09375 64.984375 
Q 41.3125 65.921875 37.59375 65.921875 
Q 27.828125 65.921875 22.671875 59.328125 
Q 17.53125 52.734375 16.796875 39.40625 
Q 19.671875 43.65625 24.015625 45.921875 
Q 28.375 48.1875 33.59375 48.1875 
Q 44.578125 48.1875 50.953125 41.515625 
Q 57.328125 34.859375 57.328125 23.390625 
Q 57.328125 12.15625 50.6875 5.359375 
Q 44.046875 -1.421875 33.015625 -1.421875 
Q 20.359375 -1.421875 13.671875 8.265625 
Q 6.984375 17.96875 6.984375 36.375 
Q 6.984375 53.65625 15.1875 63.9375 
Q 23.390625 74.21875 37.203125 74.21875 
Q 40.921875 74.21875 44.703125 73.484375 
Q 48.484375 72.75 52.59375 71.296875 
z
" id="DejaVuSans-36"/>
      </defs>
      <g transform="translate(25.15 111.79942)scale(0.1 -0.1)">
       <use xlink:href="#DejaVuSans-36"/>
       <use x="63.623047" xlink:href="#DejaVuSans-30"/>
       <use x="127.246094" xlink:href="#DejaVuSans-30"/>
       <use x="190.869141" xlink:href="#DejaVuSans-30"/>
      </g>
     </g>
    </g>
    <g id="ytick_8">
     <g id="line2d_30">
      <g>
       <use style="stroke:#000000;stroke-width:0.8;" x="57.6" xlink:href="#m15b1fed995" y="76.752235"/>
      </g>
     </g>
     <g id="text_11">
      <!-- 7000 -->
      <defs>
       <path d="M 8.203125 72.90625 
L 55.078125 72.90625 
L 55.078125 68.703125 
L 28.609375 0 
L 18.3125 0 
L 43.21875 64.59375 
L 8.203125 64.59375 
z
" id="DejaVuSans-37"/>
      </defs>
      <g transform="translate(25.15 80.551454)scale(0.1 -0.1)">
       <use xlink:href="#DejaVuSans-37"/>
       <use x="63.623047" xlink:href="#DejaVuSans-30"/>
       <use x="127.246094" xlink:href="#DejaVuSans-30"/>
       <use x="190.869141" xlink:href="#DejaVuSans-30"/>
      </g>
     </g>
    </g>
    <g id="ytick_9">
     <g id="line2d_31">
      <g>
       <use style="stroke:#000000;stroke-width:0.8;" x="57.6" xlink:href="#m15b1fed995" y="45.504269"/>
      </g>
     </g>
     <g id="text_12">
      <!-- 8000 -->
      <defs>
       <path d="M 31.78125 34.625 
Q 24.75 34.625 20.71875 30.859375 
Q 16.703125 27.09375 16.703125 20.515625 
Q 16.703125 13.921875 20.71875 10.15625 
Q 24.75 6.390625 31.78125 6.390625 
Q 38.8125 6.390625 42.859375 10.171875 
Q 46.921875 13.96875 46.921875 20.515625 
Q 46.921875 27.09375 42.890625 30.859375 
Q 38.875 34.625 31.78125 34.625 
z
M 21.921875 38.8125 
Q 15.578125 40.375 12.03125 44.71875 
Q 8.5 49.078125 8.5 55.328125 
Q 8.5 64.0625 14.71875 69.140625 
Q 20.953125 74.21875 31.78125 74.21875 
Q 42.671875 74.21875 48.875 69.140625 
Q 55.078125 64.0625 55.078125 55.328125 
Q 55.078125 49.078125 51.53125 44.71875 
Q 48 40.375 41.703125 38.8125 
Q 48.828125 37.15625 52.796875 32.3125 
Q 56.78125 27.484375 56.78125 20.515625 
Q 56.78125 9.90625 50.3125 4.234375 
Q 43.84375 -1.421875 31.78125 -1.421875 
Q 19.734375 -1.421875 13.25 4.234375 
Q 6.78125 9.90625 6.78125 20.515625 
Q 6.78125 27.484375 10.78125 32.3125 
Q 14.796875 37.15625 21.921875 38.8125 
z
M 18.3125 54.390625 
Q 18.3125 48.734375 21.84375 45.5625 
Q 25.390625 42.390625 31.78125 42.390625 
Q 38.140625 42.390625 41.71875 45.5625 
Q 45.3125 48.734375 45.3125 54.390625 
Q 45.3125 60.0625 41.71875 63.234375 
Q 38.140625 66.40625 31.78125 66.40625 
Q 25.390625 66.40625 21.84375 63.234375 
Q 18.3125 60.0625 18.3125 54.390625 
z
" id="DejaVuSans-38"/>
      </defs>
      <g transform="translate(25.15 49.303488)scale(0.1 -0.1)">
       <use xlink:href="#DejaVuSans-38"/>
       <use x="63.623047" xlink:href="#DejaVuSans-30"/>
       <use x="127.246094" xlink:href="#DejaVuSans-30"/>
       <use x="190.869141" xlink:href="#DejaVuSans-30"/>
      </g>
     </g>
    </g>
    <g id="text_13">
     <!-- Memory (MB) -->
     <defs>
      <path d="M 9.8125 72.90625 
L 24.515625 72.90625 
L 43.109375 23.296875 
L 61.8125 72.90625 
L 76.515625 72.90625 
L 76.515625 0 
L 66.890625 0 
L 66.890625 64.015625 
L 48.09375 14.015625 
L 38.1875 14.015625 
L 19.390625 64.015625 
L 19.390625 0 
L 9.8125 0 
z
" id="DejaVuSans-4d"/>
      <path d="M 41.109375 46.296875 
Q 39.59375 47.171875 37.8125 47.578125 
Q 36.03125 48 33.890625 48 
Q 26.265625 48 22.1875 43.046875 
Q 18.109375 38.09375 18.109375 28.8125 
L 18.109375 0 
L 9.078125 0 
L 9.078125 54.6875 
L 18.109375 54.6875 
L 18.109375 46.1875 
Q 20.953125 51.171875 25.484375 53.578125 
Q 30.03125 56 36.53125 56 
Q 37.453125 56 38.578125 55.875 
Q 39.703125 55.765625 41.0625 55.515625 
z
" id="DejaVuSans-72"/>
      <path d="M 32.171875 -5.078125 
Q 28.375 -14.84375 24.75 -17.8125 
Q 21.140625 -20.796875 15.09375 -20.796875 
L 7.90625 -20.796875 
L 7.90625 -13.28125 
L 13.1875 -13.28125 
Q 16.890625 -13.28125 18.9375 -11.515625 
Q 21 -9.765625 23.484375 -3.21875 
L 25.09375 0.875 
L 2.984375 54.6875 
L 12.5 54.6875 
L 29.59375 11.921875 
L 46.6875 54.6875 
L 56.203125 54.6875 
z
" id="DejaVuSans-79"/>
      <path d="M 19.671875 34.8125 
L 19.671875 8.109375 
L 35.5 8.109375 
Q 43.453125 8.109375 47.28125 11.40625 
Q 51.125 14.703125 51.125 21.484375 
Q 51.125 28.328125 47.28125 31.5625 
Q 43.453125 34.8125 35.5 34.8125 
z
M 19.671875 64.796875 
L 19.671875 42.828125 
L 34.28125 42.828125 
Q 41.5 42.828125 45.03125 45.53125 
Q 48.578125 48.25 48.578125 53.8125 
Q 48.578125 59.328125 45.03125 62.0625 
Q 41.5 64.796875 34.28125 64.796875 
z
M 9.8125 72.90625 
L 35.015625 72.90625 
Q 46.296875 72.90625 52.390625 68.21875 
Q 58.5 63.53125 58.5 54.890625 
Q 58.5 48.1875 55.375 44.234375 
Q 52.25 40.28125 46.1875 39.3125 
Q 53.46875 37.75 57.5 32.78125 
Q 61.53125 27.828125 61.53125 20.40625 
Q 61.53125 10.640625 54.890625 5.3125 
Q 48.25 0 35.984375 0 
L 9.8125 0 
z
" id="DejaVuSans-42"/>
     </defs>
     <g transform="translate(19.070312 208.098312)rotate(-90)scale(0.1 -0.1)">
      <use xlink:href="#DejaVuSans-4d"/>
      <use x="86.279297" xlink:href="#DejaVuSans-65"/>
      <use x="147.802734" xlink:href="#DejaVuSans-6d"/>
      <use x="245.214844" xlink:href="#DejaVuSans-6f"/>
      <use x="306.396484" xlink:href="#DejaVuSans-72"/>
      <use x="347.509766" xlink:href="#DejaVuSans-79"/>
      <use x="406.689453" xlink:href="#DejaVuSans-20"/>
      <use x="438.476562" xlink:href="#DejaVuSans-28"/>
      <use x="477.490234" xlink:href="#DejaVuSans-4d"/>
      <use x="563.769531" xlink:href="#DejaVuSans-42"/>
      <use x="632.373047" xlink:href="#DejaVuSans-29"/>
     </g>
    </g>
   </g>
   <g id="line2d_32">
    <path clip-path="url(#pe2baf598b6)" d="M 73.832727 272.240489 
L 109.877008 265.272878 
L 161.335504 247.343933 
L 175.694504 245.295043 
L 227.898337 185.573233 
L 237.819232 184.718377 
L 241.438326 183.659502 
L 252.306379 182.95606 
L 254.856033 182.468283 
L 256.956946 181.122707 
L 281.743478 115.394504 
L 283.134418 113.762483 
L 284.423342 112.60851 
L 286.297742 111.671227 
L 290.22022 110.802803 
L 293.672011 110.737015 
L 296.747196 107.768761 
L 297.990294 107.415376 
L 310.81055 106.310808 
L 316.548233 106.783481 
L 318.176094 103.791675 
L 318.97663 103.209185 
L 319.809435 102.124328 
L 320.603637 100.829948 
L 324.791036 99.737027 
L 325.730654 99.746499 
L 326.506504 99.42588 
L 328.022433 96.517653 
L 330.664607 98.816255 
L 332.583851 98.769282 
L 334.043454 97.220711 
L 334.723819 96.051891 
L 336.179483 93.028344 
L 338.295373 92.504218 
L 346.711962 92.504218 
L 347.272461 92.183983 
L 347.908254 92.193326 
L 348.717699 91.339366 
L 349.455431 89.455072 
L 350.077076 90.417058 
L 350.703381 90.417058 
L 352.026061 88.640406 
L 353.956506 84.51229 
L 354.504308 84.069567 
L 355.148013 84.069567 
L 356.239125 82.561569 
L 356.761091 85.318126 
L 357.279599 84.134715 
L 358.421511 82.971398 
L 360.206549 82.938761 
L 360.875754 82.585888 
L 361.340913 81.254774 
L 363.013099 81.286644 
L 364.502667 81.284724 
L 364.963821 80.235321 
L 365.428112 78.760984 
L 368.011972 78.760856 
L 369.677124 80.032966 
L 370.150486 79.96833 
L 370.74823 78.500265 
L 371.297436 76.687007 
L 371.806825 76.410161 
L 373.135483 76.441519 
L 373.555066 76.204479 
L 373.969955 76.986764 
L 374.418515 76.986764 
L 375.320106 74.983822 
L 375.811052 76.774682 
L 376.732778 75.17069 
L 378.054981 71.135497 
L 378.444163 71.031056 
L 378.901065 70.298047 
L 380.332101 70.079437 
L 380.717912 69.379067 
L 381.107843 67.689833 
L 382.246958 67.503989 
L 384.817957 67.49311 
L 385.358705 68.835102 
L 385.814118 68.805152 
L 386.680378 65.602033 
L 387.264335 65.601905 
L 387.662384 65.080595 
L 388.040776 65.047317 
L 388.40153 64.011224 
L 388.852633 62.109012 
L 389.298302 61.607029 
L 389.767562 61.607029 
L 390.203335 62.981915 
L 390.590655 62.986779 
L 391.26819 61.198223 
L 391.581132 61.198991 
L 391.869747 60.065753 
L 392.165195 58.381255 
L 392.652344 61.352837 
L 393.030257 60.963743 
L 393.766052 60.907042 
L 394.342907 60.271692 
L 394.803021 58.464065 
L 395.424118 58.335946 
L 395.72746 57.614329 
L 396.041076 56.299086 
L 397.299044 56.298958 
L 397.601628 55.367947 
L 397.901548 53.568 
L 398.204107 56.636728 
L 398.487273 55.801583 
L 398.487273 55.801583 
" style="fill:none;stroke:#000000;stroke-linecap:square;stroke-width:1.5;"/>
    <defs>
     <path d="M 0 3 
C 0.795609 3 1.55874 2.683901 2.12132 2.12132 
C 2.683901 1.55874 3 0.795609 3 0 
C 3 -0.795609 2.683901 -1.55874 2.12132 -2.12132 
C 1.55874 -2.683901 0.795609 -3 0 -3 
C -0.795609 -3 -1.55874 -2.683901 -2.12132 -2.12132 
C -2.683901 -1.55874 -3 -0.795609 -3 0 
C -3 0.795609 -2.683901 1.55874 -2.12132 2.12132 
C -1.55874 2.683901 -0.795609 3 0 3 
z
" id="m1779b34a90" style="stroke:#000000;"/>
    </defs>
    <g clip-path="url(#pe2baf598b6)">
     <use style="stroke:#000000;" x="73.832727" xlink:href="#m1779b34a90" y="272.240489"/>
     <use style="stroke:#000000;" x="84.583209" xlink:href="#m1779b34a90" y="270.192238"/>
     <use style="stroke:#000000;" x="109.877008" xlink:href="#m1779b34a90" y="265.272878"/>
     <use style="stroke:#000000;" x="161.335504" xlink:href="#m1779b34a90" y="247.343933"/>
     <use style="stroke:#000000;" x="175.694504" xlink:href="#m1779b34a90" y="245.295043"/>
     <use style="stroke:#000000;" x="227.898337" xlink:href="#m1779b34a90" y="185.573233"/>
     <use style="stroke:#000000;" x="232.98884" xlink:href="#m1779b34a90" y="185.15918"/>
     <use style="stroke:#000000;" x="237.819232" xlink:href="#m1779b34a90" y="184.718377"/>
     <use style="stroke:#000000;" x="241.438326" xlink:href="#m1779b34a90" y="183.659502"/>
     <use style="stroke:#000000;" x="252.306379" xlink:href="#m1779b34a90" y="182.95606"/>
     <use style="stroke:#000000;" x="254.856033" xlink:href="#m1779b34a90" y="182.468283"/>
     <use style="stroke:#000000;" x="256.956946" xlink:href="#m1779b34a90" y="181.122707"/>
     <use style="stroke:#000000;" x="281.743478" xlink:href="#m1779b34a90" y="115.394504"/>
     <use style="stroke:#000000;" x="283.134418" xlink:href="#m1779b34a90" y="113.762483"/>
     <use style="stroke:#000000;" x="284.423342" xlink:href="#m1779b34a90" y="112.60851"/>
     <use style="stroke:#000000;" x="286.297742" xlink:href="#m1779b34a90" y="111.671227"/>
     <use style="stroke:#000000;" x="290.22022" xlink:href="#m1779b34a90" y="110.802803"/>
     <use style="stroke:#000000;" x="291.329784" xlink:href="#m1779b34a90" y="110.784116"/>
     <use style="stroke:#000000;" x="292.559996" xlink:href="#m1779b34a90" y="110.775157"/>
     <use style="stroke:#000000;" x="293.672011" xlink:href="#m1779b34a90" y="110.737015"/>
     <use style="stroke:#000000;" x="294.715037" xlink:href="#m1779b34a90" y="109.722681"/>
     <use style="stroke:#000000;" x="295.705938" xlink:href="#m1779b34a90" y="108.660735"/>
     <use style="stroke:#000000;" x="296.747196" xlink:href="#m1779b34a90" y="107.768761"/>
     <use style="stroke:#000000;" x="297.990294" xlink:href="#m1779b34a90" y="107.415376"/>
     <use style="stroke:#000000;" x="299.070219" xlink:href="#m1779b34a90" y="107.331157"/>
     <use style="stroke:#000000;" x="300.124208" xlink:href="#m1779b34a90" y="107.34882"/>
     <use style="stroke:#000000;" x="309.809912" xlink:href="#m1779b34a90" y="106.466573"/>
     <use style="stroke:#000000;" x="310.81055" xlink:href="#m1779b34a90" y="106.310808"/>
     <use style="stroke:#000000;" x="316.548233" xlink:href="#m1779b34a90" y="106.783481"/>
     <use style="stroke:#000000;" x="317.424099" xlink:href="#m1779b34a90" y="105.230558"/>
     <use style="stroke:#000000;" x="318.176094" xlink:href="#m1779b34a90" y="103.791675"/>
     <use style="stroke:#000000;" x="318.97663" xlink:href="#m1779b34a90" y="103.209185"/>
     <use style="stroke:#000000;" x="319.809435" xlink:href="#m1779b34a90" y="102.124328"/>
     <use style="stroke:#000000;" x="320.603637" xlink:href="#m1779b34a90" y="100.829948"/>
     <use style="stroke:#000000;" x="323.824625" xlink:href="#m1779b34a90" y="99.926327"/>
     <use style="stroke:#000000;" x="324.791036" xlink:href="#m1779b34a90" y="99.737027"/>
     <use style="stroke:#000000;" x="325.730654" xlink:href="#m1779b34a90" y="99.746499"/>
     <use style="stroke:#000000;" x="326.506504" xlink:href="#m1779b34a90" y="99.42588"/>
     <use style="stroke:#000000;" x="327.288049" xlink:href="#m1779b34a90" y="97.972534"/>
     <use style="stroke:#000000;" x="328.022433" xlink:href="#m1779b34a90" y="96.517653"/>
     <use style="stroke:#000000;" x="330.664607" xlink:href="#m1779b34a90" y="98.816255"/>
     <use style="stroke:#000000;" x="331.612919" xlink:href="#m1779b34a90" y="98.816255"/>
     <use style="stroke:#000000;" x="332.583851" xlink:href="#m1779b34a90" y="98.769282"/>
     <use style="stroke:#000000;" x="333.348127" xlink:href="#m1779b34a90" y="98.03141"/>
     <use style="stroke:#000000;" x="334.043454" xlink:href="#m1779b34a90" y="97.220711"/>
     <use style="stroke:#000000;" x="334.723819" xlink:href="#m1779b34a90" y="96.051891"/>
     <use style="stroke:#000000;" x="335.443722" xlink:href="#m1779b34a90" y="94.544661"/>
     <use style="stroke:#000000;" x="336.179483" xlink:href="#m1779b34a90" y="93.028344"/>
     <use style="stroke:#000000;" x="337.477904" xlink:href="#m1779b34a90" y="92.700685"/>
     <use style="stroke:#000000;" x="338.295373" xlink:href="#m1779b34a90" y="92.504218"/>
     <use style="stroke:#000000;" x="339.105603" xlink:href="#m1779b34a90" y="92.504218"/>
     <use style="stroke:#000000;" x="339.772497" xlink:href="#m1779b34a90" y="92.504218"/>
     <use style="stroke:#000000;" x="341.689415" xlink:href="#m1779b34a90" y="92.504218"/>
     <use style="stroke:#000000;" x="342.855928" xlink:href="#m1779b34a90" y="92.496795"/>
     <use style="stroke:#000000;" x="345.998093" xlink:href="#m1779b34a90" y="92.503194"/>
     <use style="stroke:#000000;" x="346.711962" xlink:href="#m1779b34a90" y="92.504218"/>
     <use style="stroke:#000000;" x="347.272461" xlink:href="#m1779b34a90" y="92.183983"/>
     <use style="stroke:#000000;" x="347.908254" xlink:href="#m1779b34a90" y="92.193326"/>
     <use style="stroke:#000000;" x="348.717699" xlink:href="#m1779b34a90" y="91.339366"/>
     <use style="stroke:#000000;" x="349.455431" xlink:href="#m1779b34a90" y="89.455072"/>
     <use style="stroke:#000000;" x="350.077076" xlink:href="#m1779b34a90" y="90.417058"/>
     <use style="stroke:#000000;" x="350.703381" xlink:href="#m1779b34a90" y="90.417058"/>
     <use style="stroke:#000000;" x="351.356577" xlink:href="#m1779b34a90" y="89.616086"/>
     <use style="stroke:#000000;" x="352.026061" xlink:href="#m1779b34a90" y="88.640406"/>
     <use style="stroke:#000000;" x="352.65872" xlink:href="#m1779b34a90" y="87.350377"/>
     <use style="stroke:#000000;" x="353.371222" xlink:href="#m1779b34a90" y="85.793871"/>
     <use style="stroke:#000000;" x="353.956506" xlink:href="#m1779b34a90" y="84.51229"/>
     <use style="stroke:#000000;" x="354.504308" xlink:href="#m1779b34a90" y="84.069567"/>
     <use style="stroke:#000000;" x="355.148013" xlink:href="#m1779b34a90" y="84.069567"/>
     <use style="stroke:#000000;" x="355.695415" xlink:href="#m1779b34a90" y="83.290738"/>
     <use style="stroke:#000000;" x="356.239125" xlink:href="#m1779b34a90" y="82.561569"/>
     <use style="stroke:#000000;" x="356.761091" xlink:href="#m1779b34a90" y="85.318126"/>
     <use style="stroke:#000000;" x="357.279599" xlink:href="#m1779b34a90" y="84.134715"/>
     <use style="stroke:#000000;" x="358.421511" xlink:href="#m1779b34a90" y="82.971398"/>
     <use style="stroke:#000000;" x="359.116994" xlink:href="#m1779b34a90" y="82.985478"/>
     <use style="stroke:#000000;" x="359.629318" xlink:href="#m1779b34a90" y="82.985478"/>
     <use style="stroke:#000000;" x="360.206549" xlink:href="#m1779b34a90" y="82.938761"/>
     <use style="stroke:#000000;" x="360.875754" xlink:href="#m1779b34a90" y="82.585888"/>
     <use style="stroke:#000000;" x="361.340913" xlink:href="#m1779b34a90" y="81.254774"/>
     <use style="stroke:#000000;" x="361.810539" xlink:href="#m1779b34a90" y="81.288052"/>
     <use style="stroke:#000000;" x="362.417288" xlink:href="#m1779b34a90" y="81.288052"/>
     <use style="stroke:#000000;" x="363.013099" xlink:href="#m1779b34a90" y="81.286644"/>
     <use style="stroke:#000000;" x="363.528639" xlink:href="#m1779b34a90" y="81.284724"/>
     <use style="stroke:#000000;" x="364.014819" xlink:href="#m1779b34a90" y="81.284724"/>
     <use style="stroke:#000000;" x="364.502667" xlink:href="#m1779b34a90" y="81.284724"/>
     <use style="stroke:#000000;" x="364.963821" xlink:href="#m1779b34a90" y="80.235321"/>
     <use style="stroke:#000000;" x="365.428112" xlink:href="#m1779b34a90" y="78.760984"/>
     <use style="stroke:#000000;" x="365.862775" xlink:href="#m1779b34a90" y="78.760984"/>
     <use style="stroke:#000000;" x="366.293057" xlink:href="#m1779b34a90" y="78.760984"/>
     <use style="stroke:#000000;" x="366.715368" xlink:href="#m1779b34a90" y="78.760984"/>
     <use style="stroke:#000000;" x="367.143786" xlink:href="#m1779b34a90" y="78.760856"/>
     <use style="stroke:#000000;" x="367.562506" xlink:href="#m1779b34a90" y="78.760856"/>
     <use style="stroke:#000000;" x="368.011972" xlink:href="#m1779b34a90" y="78.760856"/>
     <use style="stroke:#000000;" x="369.677124" xlink:href="#m1779b34a90" y="80.032966"/>
     <use style="stroke:#000000;" x="370.150486" xlink:href="#m1779b34a90" y="79.96833"/>
     <use style="stroke:#000000;" x="370.74823" xlink:href="#m1779b34a90" y="78.500265"/>
     <use style="stroke:#000000;" x="371.297436" xlink:href="#m1779b34a90" y="76.687007"/>
     <use style="stroke:#000000;" x="371.806825" xlink:href="#m1779b34a90" y="76.410161"/>
     <use style="stroke:#000000;" x="372.220863" xlink:href="#m1779b34a90" y="76.421681"/>
     <use style="stroke:#000000;" x="372.667496" xlink:href="#m1779b34a90" y="76.441519"/>
     <use style="stroke:#000000;" x="373.135483" xlink:href="#m1779b34a90" y="76.441519"/>
     <use style="stroke:#000000;" x="373.555066" xlink:href="#m1779b34a90" y="76.204479"/>
     <use style="stroke:#000000;" x="373.969955" xlink:href="#m1779b34a90" y="76.986764"/>
     <use style="stroke:#000000;" x="374.418515" xlink:href="#m1779b34a90" y="76.986764"/>
     <use style="stroke:#000000;" x="374.84529" xlink:href="#m1779b34a90" y="76.008908"/>
     <use style="stroke:#000000;" x="375.320106" xlink:href="#m1779b34a90" y="74.983822"/>
     <use style="stroke:#000000;" x="375.811052" xlink:href="#m1779b34a90" y="76.774682"/>
     <use style="stroke:#000000;" x="376.226155" xlink:href="#m1779b34a90" y="75.997004"/>
     <use style="stroke:#000000;" x="376.732778" xlink:href="#m1779b34a90" y="75.17069"/>
     <use style="stroke:#000000;" x="377.125615" xlink:href="#m1779b34a90" y="73.905748"/>
     <use style="stroke:#000000;" x="377.606399" xlink:href="#m1779b34a90" y="72.312892"/>
     <use style="stroke:#000000;" x="378.054981" xlink:href="#m1779b34a90" y="71.135497"/>
     <use style="stroke:#000000;" x="378.444163" xlink:href="#m1779b34a90" y="71.031056"/>
     <use style="stroke:#000000;" x="378.901065" xlink:href="#m1779b34a90" y="70.298047"/>
     <use style="stroke:#000000;" x="379.315629" xlink:href="#m1779b34a90" y="70.235075"/>
     <use style="stroke:#000000;" x="379.768196" xlink:href="#m1779b34a90" y="70.073038"/>
     <use style="stroke:#000000;" x="380.332101" xlink:href="#m1779b34a90" y="70.079437"/>
     <use style="stroke:#000000;" x="380.717912" xlink:href="#m1779b34a90" y="69.379067"/>
     <use style="stroke:#000000;" x="381.107843" xlink:href="#m1779b34a90" y="67.689833"/>
     <use style="stroke:#000000;" x="381.540961" xlink:href="#m1779b34a90" y="67.61099"/>
     <use style="stroke:#000000;" x="381.905487" xlink:href="#m1779b34a90" y="67.443449"/>
     <use style="stroke:#000000;" x="382.246958" xlink:href="#m1779b34a90" y="67.503989"/>
     <use style="stroke:#000000;" x="382.831068" xlink:href="#m1779b34a90" y="67.503861"/>
     <use style="stroke:#000000;" x="383.606488" xlink:href="#m1779b34a90" y="67.503861"/>
     <use style="stroke:#000000;" x="384.163289" xlink:href="#m1779b34a90" y="67.492214"/>
     <use style="stroke:#000000;" x="384.817957" xlink:href="#m1779b34a90" y="67.49311"/>
     <use style="stroke:#000000;" x="385.358705" xlink:href="#m1779b34a90" y="68.835102"/>
     <use style="stroke:#000000;" x="385.814118" xlink:href="#m1779b34a90" y="68.805152"/>
     <use style="stroke:#000000;" x="386.193428" xlink:href="#m1779b34a90" y="67.476855"/>
     <use style="stroke:#000000;" x="386.680378" xlink:href="#m1779b34a90" y="65.602033"/>
     <use style="stroke:#000000;" x="387.264335" xlink:href="#m1779b34a90" y="65.601905"/>
     <use style="stroke:#000000;" x="387.662384" xlink:href="#m1779b34a90" y="65.080595"/>
     <use style="stroke:#000000;" x="388.040776" xlink:href="#m1779b34a90" y="65.047317"/>
     <use style="stroke:#000000;" x="388.40153" xlink:href="#m1779b34a90" y="64.011224"/>
     <use style="stroke:#000000;" x="388.852633" xlink:href="#m1779b34a90" y="62.109012"/>
     <use style="stroke:#000000;" x="389.298302" xlink:href="#m1779b34a90" y="61.607029"/>
     <use style="stroke:#000000;" x="389.767562" xlink:href="#m1779b34a90" y="61.607029"/>
     <use style="stroke:#000000;" x="390.203335" xlink:href="#m1779b34a90" y="62.981915"/>
     <use style="stroke:#000000;" x="390.590655" xlink:href="#m1779b34a90" y="62.986779"/>
     <use style="stroke:#000000;" x="390.934714" xlink:href="#m1779b34a90" y="62.204494"/>
     <use style="stroke:#000000;" x="391.26819" xlink:href="#m1779b34a90" y="61.198223"/>
     <use style="stroke:#000000;" x="391.581132" xlink:href="#m1779b34a90" y="61.198991"/>
     <use style="stroke:#000000;" x="391.869747" xlink:href="#m1779b34a90" y="60.065753"/>
     <use style="stroke:#000000;" x="392.165195" xlink:href="#m1779b34a90" y="58.381255"/>
     <use style="stroke:#000000;" x="392.652344" xlink:href="#m1779b34a90" y="61.352837"/>
     <use style="stroke:#000000;" x="393.030257" xlink:href="#m1779b34a90" y="60.963743"/>
     <use style="stroke:#000000;" x="393.362958" xlink:href="#m1779b34a90" y="60.931617"/>
     <use style="stroke:#000000;" x="393.766052" xlink:href="#m1779b34a90" y="60.907042"/>
     <use style="stroke:#000000;" x="394.342907" xlink:href="#m1779b34a90" y="60.271692"/>
     <use style="stroke:#000000;" x="394.803021" xlink:href="#m1779b34a90" y="58.464065"/>
     <use style="stroke:#000000;" x="395.125557" xlink:href="#m1779b34a90" y="58.435651"/>
     <use style="stroke:#000000;" x="395.424118" xlink:href="#m1779b34a90" y="58.335946"/>
     <use style="stroke:#000000;" x="395.72746" xlink:href="#m1779b34a90" y="57.614329"/>
     <use style="stroke:#000000;" x="396.041076" xlink:href="#m1779b34a90" y="56.299086"/>
     <use style="stroke:#000000;" x="396.3593" xlink:href="#m1779b34a90" y="56.298958"/>
     <use style="stroke:#000000;" x="396.667749" xlink:href="#m1779b34a90" y="56.298958"/>
     <use style="stroke:#000000;" x="396.979686" xlink:href="#m1779b34a90" y="56.298958"/>
     <use style="stroke:#000000;" x="397.299044" xlink:href="#m1779b34a90" y="56.298958"/>
     <use style="stroke:#000000;" x="397.601628" xlink:href="#m1779b34a90" y="55.367947"/>
     <use style="stroke:#000000;" x="397.901548" xlink:href="#m1779b34a90" y="53.568"/>
     <use style="stroke:#000000;" x="398.204107" xlink:href="#m1779b34a90" y="56.636728"/>
     <use style="stroke:#000000;" x="398.487273" xlink:href="#m1779b34a90" y="55.801583"/>
    </g>
   </g>
   <g id="line2d_33">
    <path clip-path="url(#pe2baf598b6)" d="M 73.832727 295.488 
L 398.487273 295.488 
L 398.487273 295.488 
" style="fill:none;stroke:#008000;stroke-linecap:square;stroke-width:1.5;"/>
    <defs>
     <path d="M 0 3 
C 0.795609 3 1.55874 2.683901 2.12132 2.12132 
C 2.683901 1.55874 3 0.795609 3 0 
C 3 -0.795609 2.683901 -1.55874 2.12132 -2.12132 
C 1.55874 -2.683901 0.795609 -3 0 -3 
C -0.795609 -3 -1.55874 -2.683901 -2.12132 -2.12132 
C -2.683901 -1.55874 -3 -0.795609 -3 0 
C -3 0.795609 -2.683901 1.55874 -2.12132 2.12132 
C -1.55874 2.683901 -0.795609 3 0 3 
z
" id="mffde90d2fc" style="stroke:#008000;"/>
    </defs>
    <g clip-path="url(#pe2baf598b6)">
     <use style="fill:#008000;stroke:#008000;" x="73.832727" xlink:href="#mffde90d2fc" y="295.488"/>
     <use style="fill:#008000;stroke:#008000;" x="84.583209" xlink:href="#mffde90d2fc" y="295.488"/>
     <use style="fill:#008000;stroke:#008000;" x="109.877008" xlink:href="#mffde90d2fc" y="295.488"/>
     <use style="fill:#008000;stroke:#008000;" x="161.335504" xlink:href="#mffde90d2fc" y="295.488"/>
     <use style="fill:#008000;stroke:#008000;" x="175.694504" xlink:href="#mffde90d2fc" y="295.488"/>
     <use style="fill:#008000;stroke:#008000;" x="227.898337" xlink:href="#mffde90d2fc" y="295.488"/>
     <use style="fill:#008000;stroke:#008000;" x="232.98884" xlink:href="#mffde90d2fc" y="295.488"/>
     <use style="fill:#008000;stroke:#008000;" x="237.819232" xlink:href="#mffde90d2fc" y="295.488"/>
     <use style="fill:#008000;stroke:#008000;" x="241.438326" xlink:href="#mffde90d2fc" y="295.488"/>
     <use style="fill:#008000;stroke:#008000;" x="252.306379" xlink:href="#mffde90d2fc" y="295.488"/>
     <use style="fill:#008000;stroke:#008000;" x="254.856033" xlink:href="#mffde90d2fc" y="295.488"/>
     <use style="fill:#008000;stroke:#008000;" x="256.956946" xlink:href="#mffde90d2fc" y="295.488"/>
     <use style="fill:#008000;stroke:#008000;" x="281.743478" xlink:href="#mffde90d2fc" y="295.488"/>
     <use style="fill:#008000;stroke:#008000;" x="283.134418" xlink:href="#mffde90d2fc" y="295.488"/>
     <use style="fill:#008000;stroke:#008000;" x="284.423342" xlink:href="#mffde90d2fc" y="295.488"/>
     <use style="fill:#008000;stroke:#008000;" x="286.297742" xlink:href="#mffde90d2fc" y="295.488"/>
     <use style="fill:#008000;stroke:#008000;" x="290.22022" xlink:href="#mffde90d2fc" y="295.488"/>
     <use style="fill:#008000;stroke:#008000;" x="291.329784" xlink:href="#mffde90d2fc" y="295.488"/>
     <use style="fill:#008000;stroke:#008000;" x="292.559996" xlink:href="#mffde90d2fc" y="295.488"/>
     <use style="fill:#008000;stroke:#008000;" x="293.672011" xlink:href="#mffde90d2fc" y="295.488"/>
     <use style="fill:#008000;stroke:#008000;" x="294.715037" xlink:href="#mffde90d2fc" y="295.488"/>
     <use style="fill:#008000;stroke:#008000;" x="295.705938" xlink:href="#mffde90d2fc" y="295.488"/>
     <use style="fill:#008000;stroke:#008000;" x="296.747196" xlink:href="#mffde90d2fc" y="295.488"/>
     <use style="fill:#008000;stroke:#008000;" x="297.990294" xlink:href="#mffde90d2fc" y="295.488"/>
     <use style="fill:#008000;stroke:#008000;" x="299.070219" xlink:href="#mffde90d2fc" y="295.488"/>
     <use style="fill:#008000;stroke:#008000;" x="300.124208" xlink:href="#mffde90d2fc" y="295.488"/>
     <use style="fill:#008000;stroke:#008000;" x="309.809912" xlink:href="#mffde90d2fc" y="295.488"/>
     <use style="fill:#008000;stroke:#008000;" x="310.81055" xlink:href="#mffde90d2fc" y="295.488"/>
     <use style="fill:#008000;stroke:#008000;" x="316.548233" xlink:href="#mffde90d2fc" y="295.488"/>
     <use style="fill:#008000;stroke:#008000;" x="317.424099" xlink:href="#mffde90d2fc" y="295.488"/>
     <use style="fill:#008000;stroke:#008000;" x="318.176094" xlink:href="#mffde90d2fc" y="295.488"/>
     <use style="fill:#008000;stroke:#008000;" x="318.97663" xlink:href="#mffde90d2fc" y="295.488"/>
     <use style="fill:#008000;stroke:#008000;" x="319.809435" xlink:href="#mffde90d2fc" y="295.488"/>
     <use style="fill:#008000;stroke:#008000;" x="320.603637" xlink:href="#mffde90d2fc" y="295.488"/>
     <use style="fill:#008000;stroke:#008000;" x="323.824625" xlink:href="#mffde90d2fc" y="295.488"/>
     <use style="fill:#008000;stroke:#008000;" x="324.791036" xlink:href="#mffde90d2fc" y="295.488"/>
     <use style="fill:#008000;stroke:#008000;" x="325.730654" xlink:href="#mffde90d2fc" y="295.488"/>
     <use style="fill:#008000;stroke:#008000;" x="326.506504" xlink:href="#mffde90d2fc" y="295.488"/>
     <use style="fill:#008000;stroke:#008000;" x="327.288049" xlink:href="#mffde90d2fc" y="295.488"/>
     <use style="fill:#008000;stroke:#008000;" x="328.022433" xlink:href="#mffde90d2fc" y="295.488"/>
     <use style="fill:#008000;stroke:#008000;" x="330.664607" xlink:href="#mffde90d2fc" y="295.488"/>
     <use style="fill:#008000;stroke:#008000;" x="331.612919" xlink:href="#mffde90d2fc" y="295.488"/>
     <use style="fill:#008000;stroke:#008000;" x="332.583851" xlink:href="#mffde90d2fc" y="295.488"/>
     <use style="fill:#008000;stroke:#008000;" x="333.348127" xlink:href="#mffde90d2fc" y="295.488"/>
     <use style="fill:#008000;stroke:#008000;" x="334.043454" xlink:href="#mffde90d2fc" y="295.488"/>
     <use style="fill:#008000;stroke:#008000;" x="334.723819" xlink:href="#mffde90d2fc" y="295.488"/>
     <use style="fill:#008000;stroke:#008000;" x="335.443722" xlink:href="#mffde90d2fc" y="295.488"/>
     <use style="fill:#008000;stroke:#008000;" x="336.179483" xlink:href="#mffde90d2fc" y="295.488"/>
     <use style="fill:#008000;stroke:#008000;" x="337.477904" xlink:href="#mffde90d2fc" y="295.488"/>
     <use style="fill:#008000;stroke:#008000;" x="338.295373" xlink:href="#mffde90d2fc" y="295.488"/>
     <use style="fill:#008000;stroke:#008000;" x="339.105603" xlink:href="#mffde90d2fc" y="295.488"/>
     <use style="fill:#008000;stroke:#008000;" x="339.772497" xlink:href="#mffde90d2fc" y="295.488"/>
     <use style="fill:#008000;stroke:#008000;" x="341.689415" xlink:href="#mffde90d2fc" y="295.488"/>
     <use style="fill:#008000;stroke:#008000;" x="342.855928" xlink:href="#mffde90d2fc" y="295.488"/>
     <use style="fill:#008000;stroke:#008000;" x="345.998093" xlink:href="#mffde90d2fc" y="295.488"/>
     <use style="fill:#008000;stroke:#008000;" x="346.711962" xlink:href="#mffde90d2fc" y="295.488"/>
     <use style="fill:#008000;stroke:#008000;" x="347.272461" xlink:href="#mffde90d2fc" y="295.488"/>
     <use style="fill:#008000;stroke:#008000;" x="347.908254" xlink:href="#mffde90d2fc" y="295.488"/>
     <use style="fill:#008000;stroke:#008000;" x="348.717699" xlink:href="#mffde90d2fc" y="295.488"/>
     <use style="fill:#008000;stroke:#008000;" x="349.455431" xlink:href="#mffde90d2fc" y="295.488"/>
     <use style="fill:#008000;stroke:#008000;" x="350.077076" xlink:href="#mffde90d2fc" y="295.488"/>
     <use style="fill:#008000;stroke:#008000;" x="350.703381" xlink:href="#mffde90d2fc" y="295.488"/>
     <use style="fill:#008000;stroke:#008000;" x="351.356577" xlink:href="#mffde90d2fc" y="295.488"/>
     <use style="fill:#008000;stroke:#008000;" x="352.026061" xlink:href="#mffde90d2fc" y="295.488"/>
     <use style="fill:#008000;stroke:#008000;" x="352.65872" xlink:href="#mffde90d2fc" y="295.488"/>
     <use style="fill:#008000;stroke:#008000;" x="353.371222" xlink:href="#mffde90d2fc" y="295.488"/>
     <use style="fill:#008000;stroke:#008000;" x="353.956506" xlink:href="#mffde90d2fc" y="295.488"/>
     <use style="fill:#008000;stroke:#008000;" x="354.504308" xlink:href="#mffde90d2fc" y="295.488"/>
     <use style="fill:#008000;stroke:#008000;" x="355.148013" xlink:href="#mffde90d2fc" y="295.488"/>
     <use style="fill:#008000;stroke:#008000;" x="355.695415" xlink:href="#mffde90d2fc" y="295.488"/>
     <use style="fill:#008000;stroke:#008000;" x="356.239125" xlink:href="#mffde90d2fc" y="295.488"/>
     <use style="fill:#008000;stroke:#008000;" x="356.761091" xlink:href="#mffde90d2fc" y="295.488"/>
     <use style="fill:#008000;stroke:#008000;" x="357.279599" xlink:href="#mffde90d2fc" y="295.488"/>
     <use style="fill:#008000;stroke:#008000;" x="358.421511" xlink:href="#mffde90d2fc" y="295.488"/>
     <use style="fill:#008000;stroke:#008000;" x="359.116994" xlink:href="#mffde90d2fc" y="295.488"/>
     <use style="fill:#008000;stroke:#008000;" x="359.629318" xlink:href="#mffde90d2fc" y="295.488"/>
     <use style="fill:#008000;stroke:#008000;" x="360.206549" xlink:href="#mffde90d2fc" y="295.488"/>
     <use style="fill:#008000;stroke:#008000;" x="360.875754" xlink:href="#mffde90d2fc" y="295.488"/>
     <use style="fill:#008000;stroke:#008000;" x="361.340913" xlink:href="#mffde90d2fc" y="295.488"/>
     <use style="fill:#008000;stroke:#008000;" x="361.810539" xlink:href="#mffde90d2fc" y="295.488"/>
     <use style="fill:#008000;stroke:#008000;" x="362.417288" xlink:href="#mffde90d2fc" y="295.488"/>
     <use style="fill:#008000;stroke:#008000;" x="363.013099" xlink:href="#mffde90d2fc" y="295.488"/>
     <use style="fill:#008000;stroke:#008000;" x="363.528639" xlink:href="#mffde90d2fc" y="295.488"/>
     <use style="fill:#008000;stroke:#008000;" x="364.014819" xlink:href="#mffde90d2fc" y="295.488"/>
     <use style="fill:#008000;stroke:#008000;" x="364.502667" xlink:href="#mffde90d2fc" y="295.488"/>
     <use style="fill:#008000;stroke:#008000;" x="364.963821" xlink:href="#mffde90d2fc" y="295.488"/>
     <use style="fill:#008000;stroke:#008000;" x="365.428112" xlink:href="#mffde90d2fc" y="295.488"/>
     <use style="fill:#008000;stroke:#008000;" x="365.862775" xlink:href="#mffde90d2fc" y="295.488"/>
     <use style="fill:#008000;stroke:#008000;" x="366.293057" xlink:href="#mffde90d2fc" y="295.488"/>
     <use style="fill:#008000;stroke:#008000;" x="366.715368" xlink:href="#mffde90d2fc" y="295.488"/>
     <use style="fill:#008000;stroke:#008000;" x="367.143786" xlink:href="#mffde90d2fc" y="295.488"/>
     <use style="fill:#008000;stroke:#008000;" x="367.562506" xlink:href="#mffde90d2fc" y="295.488"/>
     <use style="fill:#008000;stroke:#008000;" x="368.011972" xlink:href="#mffde90d2fc" y="295.488"/>
     <use style="fill:#008000;stroke:#008000;" x="369.677124" xlink:href="#mffde90d2fc" y="295.488"/>
     <use style="fill:#008000;stroke:#008000;" x="370.150486" xlink:href="#mffde90d2fc" y="295.488"/>
     <use style="fill:#008000;stroke:#008000;" x="370.74823" xlink:href="#mffde90d2fc" y="295.488"/>
     <use style="fill:#008000;stroke:#008000;" x="371.297436" xlink:href="#mffde90d2fc" y="295.488"/>
     <use style="fill:#008000;stroke:#008000;" x="371.806825" xlink:href="#mffde90d2fc" y="295.488"/>
     <use style="fill:#008000;stroke:#008000;" x="372.220863" xlink:href="#mffde90d2fc" y="295.488"/>
     <use style="fill:#008000;stroke:#008000;" x="372.667496" xlink:href="#mffde90d2fc" y="295.488"/>
     <use style="fill:#008000;stroke:#008000;" x="373.135483" xlink:href="#mffde90d2fc" y="295.488"/>
     <use style="fill:#008000;stroke:#008000;" x="373.555066" xlink:href="#mffde90d2fc" y="295.488"/>
     <use style="fill:#008000;stroke:#008000;" x="373.969955" xlink:href="#mffde90d2fc" y="295.488"/>
     <use style="fill:#008000;stroke:#008000;" x="374.418515" xlink:href="#mffde90d2fc" y="295.488"/>
     <use style="fill:#008000;stroke:#008000;" x="374.84529" xlink:href="#mffde90d2fc" y="295.488"/>
     <use style="fill:#008000;stroke:#008000;" x="375.320106" xlink:href="#mffde90d2fc" y="295.488"/>
     <use style="fill:#008000;stroke:#008000;" x="375.811052" xlink:href="#mffde90d2fc" y="295.488"/>
     <use style="fill:#008000;stroke:#008000;" x="376.226155" xlink:href="#mffde90d2fc" y="295.488"/>
     <use style="fill:#008000;stroke:#008000;" x="376.732778" xlink:href="#mffde90d2fc" y="295.488"/>
     <use style="fill:#008000;stroke:#008000;" x="377.125615" xlink:href="#mffde90d2fc" y="295.488"/>
     <use style="fill:#008000;stroke:#008000;" x="377.606399" xlink:href="#mffde90d2fc" y="295.488"/>
     <use style="fill:#008000;stroke:#008000;" x="378.054981" xlink:href="#mffde90d2fc" y="295.488"/>
     <use style="fill:#008000;stroke:#008000;" x="378.444163" xlink:href="#mffde90d2fc" y="295.488"/>
     <use style="fill:#008000;stroke:#008000;" x="378.901065" xlink:href="#mffde90d2fc" y="295.488"/>
     <use style="fill:#008000;stroke:#008000;" x="379.315629" xlink:href="#mffde90d2fc" y="295.488"/>
     <use style="fill:#008000;stroke:#008000;" x="379.768196" xlink:href="#mffde90d2fc" y="295.488"/>
     <use style="fill:#008000;stroke:#008000;" x="380.332101" xlink:href="#mffde90d2fc" y="295.488"/>
     <use style="fill:#008000;stroke:#008000;" x="380.717912" xlink:href="#mffde90d2fc" y="295.488"/>
     <use style="fill:#008000;stroke:#008000;" x="381.107843" xlink:href="#mffde90d2fc" y="295.488"/>
     <use style="fill:#008000;stroke:#008000;" x="381.540961" xlink:href="#mffde90d2fc" y="295.488"/>
     <use style="fill:#008000;stroke:#008000;" x="381.905487" xlink:href="#mffde90d2fc" y="295.488"/>
     <use style="fill:#008000;stroke:#008000;" x="382.246958" xlink:href="#mffde90d2fc" y="295.488"/>
     <use style="fill:#008000;stroke:#008000;" x="382.831068" xlink:href="#mffde90d2fc" y="295.488"/>
     <use style="fill:#008000;stroke:#008000;" x="383.606488" xlink:href="#mffde90d2fc" y="295.488"/>
     <use style="fill:#008000;stroke:#008000;" x="384.163289" xlink:href="#mffde90d2fc" y="295.488"/>
     <use style="fill:#008000;stroke:#008000;" x="384.817957" xlink:href="#mffde90d2fc" y="295.488"/>
     <use style="fill:#008000;stroke:#008000;" x="385.358705" xlink:href="#mffde90d2fc" y="295.488"/>
     <use style="fill:#008000;stroke:#008000;" x="385.814118" xlink:href="#mffde90d2fc" y="295.488"/>
     <use style="fill:#008000;stroke:#008000;" x="386.193428" xlink:href="#mffde90d2fc" y="295.488"/>
     <use style="fill:#008000;stroke:#008000;" x="386.680378" xlink:href="#mffde90d2fc" y="295.488"/>
     <use style="fill:#008000;stroke:#008000;" x="387.264335" xlink:href="#mffde90d2fc" y="295.488"/>
     <use style="fill:#008000;stroke:#008000;" x="387.662384" xlink:href="#mffde90d2fc" y="295.488"/>
     <use style="fill:#008000;stroke:#008000;" x="388.040776" xlink:href="#mffde90d2fc" y="295.488"/>
     <use style="fill:#008000;stroke:#008000;" x="388.40153" xlink:href="#mffde90d2fc" y="295.488"/>
     <use style="fill:#008000;stroke:#008000;" x="388.852633" xlink:href="#mffde90d2fc" y="295.488"/>
     <use style="fill:#008000;stroke:#008000;" x="389.298302" xlink:href="#mffde90d2fc" y="295.488"/>
     <use style="fill:#008000;stroke:#008000;" x="389.767562" xlink:href="#mffde90d2fc" y="295.488"/>
     <use style="fill:#008000;stroke:#008000;" x="390.203335" xlink:href="#mffde90d2fc" y="295.488"/>
     <use style="fill:#008000;stroke:#008000;" x="390.590655" xlink:href="#mffde90d2fc" y="295.488"/>
     <use style="fill:#008000;stroke:#008000;" x="390.934714" xlink:href="#mffde90d2fc" y="295.488"/>
     <use style="fill:#008000;stroke:#008000;" x="391.26819" xlink:href="#mffde90d2fc" y="295.488"/>
     <use style="fill:#008000;stroke:#008000;" x="391.581132" xlink:href="#mffde90d2fc" y="295.488"/>
     <use style="fill:#008000;stroke:#008000;" x="391.869747" xlink:href="#mffde90d2fc" y="295.488"/>
     <use style="fill:#008000;stroke:#008000;" x="392.165195" xlink:href="#mffde90d2fc" y="295.488"/>
     <use style="fill:#008000;stroke:#008000;" x="392.652344" xlink:href="#mffde90d2fc" y="295.488"/>
     <use style="fill:#008000;stroke:#008000;" x="393.030257" xlink:href="#mffde90d2fc" y="295.488"/>
     <use style="fill:#008000;stroke:#008000;" x="393.362958" xlink:href="#mffde90d2fc" y="295.488"/>
     <use style="fill:#008000;stroke:#008000;" x="393.766052" xlink:href="#mffde90d2fc" y="295.488"/>
     <use style="fill:#008000;stroke:#008000;" x="394.342907" xlink:href="#mffde90d2fc" y="295.488"/>
     <use style="fill:#008000;stroke:#008000;" x="394.803021" xlink:href="#mffde90d2fc" y="295.488"/>
     <use style="fill:#008000;stroke:#008000;" x="395.125557" xlink:href="#mffde90d2fc" y="295.488"/>
     <use style="fill:#008000;stroke:#008000;" x="395.424118" xlink:href="#mffde90d2fc" y="295.488"/>
     <use style="fill:#008000;stroke:#008000;" x="395.72746" xlink:href="#mffde90d2fc" y="295.488"/>
     <use style="fill:#008000;stroke:#008000;" x="396.041076" xlink:href="#mffde90d2fc" y="295.488"/>
     <use style="fill:#008000;stroke:#008000;" x="396.3593" xlink:href="#mffde90d2fc" y="295.488"/>
     <use style="fill:#008000;stroke:#008000;" x="396.667749" xlink:href="#mffde90d2fc" y="295.488"/>
     <use style="fill:#008000;stroke:#008000;" x="396.979686" xlink:href="#mffde90d2fc" y="295.488"/>
     <use style="fill:#008000;stroke:#008000;" x="397.299044" xlink:href="#mffde90d2fc" y="295.488"/>
     <use style="fill:#008000;stroke:#008000;" x="397.601628" xlink:href="#mffde90d2fc" y="295.488"/>
     <use style="fill:#008000;stroke:#008000;" x="397.901548" xlink:href="#mffde90d2fc" y="295.488"/>
     <use style="fill:#008000;stroke:#008000;" x="398.204107" xlink:href="#mffde90d2fc" y="295.488"/>
     <use style="fill:#008000;stroke:#008000;" x="398.487273" xlink:href="#mffde90d2fc" y="295.488"/>
    </g>
   </g>
   <g id="patch_3">
    <path d="M 57.6 307.584 
L 57.6 41.472 
" style="fill:none;stroke:#000000;stroke-linecap:square;stroke-linejoin:miter;stroke-width:0.8;"/>
   </g>
   <g id="patch_4">
    <path d="M 414.72 307.584 
L 414.72 41.472 
" style="fill:none;stroke:#000000;stroke-linecap:square;stroke-linejoin:miter;stroke-width:0.8;"/>
   </g>
   <g id="patch_5">
    <path d="M 57.6 307.584 
L 414.72 307.584 
" style="fill:none;stroke:#000000;stroke-linecap:square;stroke-linejoin:miter;stroke-width:0.8;"/>
   </g>
   <g id="patch_6">
    <path d="M 57.6 41.472 
L 414.72 41.472 
" style="fill:none;stroke:#000000;stroke-linecap:square;stroke-linejoin:miter;stroke-width:0.8;"/>
   </g>
   <g id="legend_1">
    <g id="patch_7">
     <path d="M 64.6 78.82825 
L 151.392188 78.82825 
Q 153.392188 78.82825 153.392188 76.82825 
L 153.392188 48.472 
Q 153.392188 46.472 151.392188 46.472 
L 64.6 46.472 
Q 62.6 46.472 62.6 48.472 
L 62.6 76.82825 
Q 62.6 78.82825 64.6 78.82825 
z
" style="fill:#ffffff;opacity:0.8;stroke:#cccccc;stroke-linejoin:miter;"/>
    </g>
    <g id="line2d_34">
     <path d="M 66.6 54.570437 
L 86.6 54.570437 
" style="fill:none;stroke:#000000;stroke-linecap:square;stroke-width:1.5;"/>
    </g>
    <g id="line2d_35">
     <g>
      <use style="stroke:#000000;" x="76.6" xlink:href="#m1779b34a90" y="54.570437"/>
     </g>
    </g>
    <g id="text_14">
     <!-- RAM -->
     <defs>
      <path d="M 44.390625 34.1875 
Q 47.5625 33.109375 50.5625 29.59375 
Q 53.5625 26.078125 56.59375 19.921875 
L 66.609375 0 
L 56 0 
L 46.6875 18.703125 
Q 43.0625 26.03125 39.671875 28.421875 
Q 36.28125 30.8125 30.421875 30.8125 
L 19.671875 30.8125 
L 19.671875 0 
L 9.8125 0 
L 9.8125 72.90625 
L 32.078125 72.90625 
Q 44.578125 72.90625 50.734375 67.671875 
Q 56.890625 62.453125 56.890625 51.90625 
Q 56.890625 45.015625 53.6875 40.46875 
Q 50.484375 35.9375 44.390625 34.1875 
z
M 19.671875 64.796875 
L 19.671875 38.921875 
L 32.078125 38.921875 
Q 39.203125 38.921875 42.84375 42.21875 
Q 46.484375 45.515625 46.484375 51.90625 
Q 46.484375 58.296875 42.84375 61.546875 
Q 39.203125 64.796875 32.078125 64.796875 
z
" id="DejaVuSans-52"/>
      <path d="M 34.1875 63.1875 
L 20.796875 26.90625 
L 47.609375 26.90625 
z
M 28.609375 72.90625 
L 39.796875 72.90625 
L 67.578125 0 
L 57.328125 0 
L 50.6875 18.703125 
L 17.828125 18.703125 
L 11.1875 0 
L 0.78125 0 
z
" id="DejaVuSans-41"/>
     </defs>
     <g transform="translate(94.6 58.070437)scale(0.1 -0.1)">
      <use xlink:href="#DejaVuSans-52"/>
      <use x="69.419922" xlink:href="#DejaVuSans-41"/>
      <use x="137.828125" xlink:href="#DejaVuSans-4d"/>
     </g>
    </g>
    <g id="line2d_36">
     <path d="M 66.6 69.248562 
L 86.6 69.248562 
" style="fill:none;stroke:#008000;stroke-linecap:square;stroke-width:1.5;"/>
    </g>
    <g id="line2d_37">
     <g>
      <use style="fill:#008000;stroke:#008000;" x="76.6" xlink:href="#mffde90d2fc" y="69.248562"/>
     </g>
    </g>
    <g id="text_15">
     <!-- Restart file -->
     <defs>
      <path d="M 34.28125 27.484375 
Q 23.390625 27.484375 19.1875 25 
Q 14.984375 22.515625 14.984375 16.5 
Q 14.984375 11.71875 18.140625 8.90625 
Q 21.296875 6.109375 26.703125 6.109375 
Q 34.1875 6.109375 38.703125 11.40625 
Q 43.21875 16.703125 43.21875 25.484375 
L 43.21875 27.484375 
z
M 52.203125 31.203125 
L 52.203125 0 
L 43.21875 0 
L 43.21875 8.296875 
Q 40.140625 3.328125 35.546875 0.953125 
Q 30.953125 -1.421875 24.3125 -1.421875 
Q 15.921875 -1.421875 10.953125 3.296875 
Q 6 8.015625 6 15.921875 
Q 6 25.140625 12.171875 29.828125 
Q 18.359375 34.515625 30.609375 34.515625 
L 43.21875 34.515625 
L 43.21875 35.40625 
Q 43.21875 41.609375 39.140625 45 
Q 35.0625 48.390625 27.6875 48.390625 
Q 23 48.390625 18.546875 47.265625 
Q 14.109375 46.140625 10.015625 43.890625 
L 10.015625 52.203125 
Q 14.9375 54.109375 19.578125 55.046875 
Q 24.21875 56 28.609375 56 
Q 40.484375 56 46.34375 49.84375 
Q 52.203125 43.703125 52.203125 31.203125 
z
" id="DejaVuSans-61"/>
      <path d="M 37.109375 75.984375 
L 37.109375 68.5 
L 28.515625 68.5 
Q 23.6875 68.5 21.796875 66.546875 
Q 19.921875 64.59375 19.921875 59.515625 
L 19.921875 54.6875 
L 34.71875 54.6875 
L 34.71875 47.703125 
L 19.921875 47.703125 
L 19.921875 0 
L 10.890625 0 
L 10.890625 47.703125 
L 2.296875 47.703125 
L 2.296875 54.6875 
L 10.890625 54.6875 
L 10.890625 58.5 
Q 10.890625 67.625 15.140625 71.796875 
Q 19.390625 75.984375 28.609375 75.984375 
z
" id="DejaVuSans-66"/>
      <path d="M 9.421875 75.984375 
L 18.40625 75.984375 
L 18.40625 0 
L 9.421875 0 
z
" id="DejaVuSans-6c"/>
     </defs>
     <g transform="translate(94.6 72.748562)scale(0.1 -0.1)">
      <use xlink:href="#DejaVuSans-52"/>
      <use x="69.419922" xlink:href="#DejaVuSans-65"/>
      <use x="130.943359" xlink:href="#DejaVuSans-73"/>
      <use x="183.042969" xlink:href="#DejaVuSans-74"/>
      <use x="222.251953" xlink:href="#DejaVuSans-61"/>
      <use x="283.53125" xlink:href="#DejaVuSans-72"/>
      <use x="324.644531" xlink:href="#DejaVuSans-74"/>
      <use x="363.853516" xlink:href="#DejaVuSans-20"/>
      <use x="395.640625" xlink:href="#DejaVuSans-66"/>
      <use x="430.845703" xlink:href="#DejaVuSans-69"/>
      <use x="458.628906" xlink:href="#DejaVuSans-6c"/>
      <use x="486.412109" xlink:href="#DejaVuSans-65"/>
     </g>
    </g>
   </g>
  </g>
 </g>
 <defs>
  <clipPath id="pe2baf598b6">
   <rect height="266.112" width="357.12" x="57.6" y="41.472"/>
  </clipPath>
 </defs>
</svg>
