<?xml version="1.0" encoding="utf-8" standalone="no"?>
<!DOCTYPE svg PUBLIC "-//W3C//DTD SVG 1.1//EN"
  "http://www.w3.org/Graphics/SVG/1.1/DTD/svg11.dtd">
<!-- Created with matplotlib (http://matplotlib.org/) -->
<svg height="345.6pt" version="1.1" viewBox="0 0 460.8 345.6" width="460.8pt" xmlns="http://www.w3.org/2000/svg" xmlns:xlink="http://www.w3.org/1999/xlink">
 <defs>
  <style type="text/css">
*{stroke-linecap:butt;stroke-linejoin:round;}
  </style>
 </defs>
 <g id="figure_1">
  <g id="patch_1">
   <path d="M 0 345.6 
L 460.8 345.6 
L 460.8 0 
L 0 0 
z
" style="fill:#ffffff;"/>
  </g>
  <g id="axes_1">
   <g id="patch_2">
    <path d="M 57.6 307.584 
L 414.72 307.584 
L 414.72 41.472 
L 57.6 41.472 
z
" style="fill:#ffffff;"/>
   </g>
   <g id="matplotlib.axis_1">
    <g id="xtick_1">
     <g id="line2d_1">
      <defs>
       <path d="M 0 0 
L 0 3.5 
" id="mdda6c812aa" style="stroke:#000000;stroke-width:0.8;"/>
      </defs>
      <g>
       <use style="stroke:#000000;stroke-width:0.8;" x="157.642745" xlink:href="#mdda6c812aa" y="307.584"/>
      </g>
     </g>
     <g id="text_1">
      <!-- $\mathdefault{10^{4}}$ -->
      <defs>
       <path d="M 12.40625 8.296875 
L 28.515625 8.296875 
L 28.515625 63.921875 
L 10.984375 60.40625 
L 10.984375 69.390625 
L 28.421875 72.90625 
L 38.28125 72.90625 
L 38.28125 8.296875 
L 54.390625 8.296875 
L 54.390625 0 
L 12.40625 0 
z
" id="DejaVuSans-31"/>
       <path d="M 31.78125 66.40625 
Q 24.171875 66.40625 20.328125 58.90625 
Q 16.5 51.421875 16.5 36.375 
Q 16.5 21.390625 20.328125 13.890625 
Q 24.171875 6.390625 31.78125 6.390625 
Q 39.453125 6.390625 43.28125 13.890625 
Q 47.125 21.390625 47.125 36.375 
Q 47.125 51.421875 43.28125 58.90625 
Q 39.453125 66.40625 31.78125 66.40625 
z
M 31.78125 74.21875 
Q 44.046875 74.21875 50.515625 64.515625 
Q 56.984375 54.828125 56.984375 36.375 
Q 56.984375 17.96875 50.515625 8.265625 
Q 44.046875 -1.421875 31.78125 -1.421875 
Q 19.53125 -1.421875 13.0625 8.265625 
Q 6.59375 17.96875 6.59375 36.375 
Q 6.59375 54.828125 13.0625 64.515625 
Q 19.53125 74.21875 31.78125 74.21875 
z
" id="DejaVuSans-30"/>
       <path d="M 37.796875 64.3125 
L 12.890625 25.390625 
L 37.796875 25.390625 
z
M 35.203125 72.90625 
L 47.609375 72.90625 
L 47.609375 25.390625 
L 58.015625 25.390625 
L 58.015625 17.1875 
L 47.609375 17.1875 
L 47.609375 0 
L 37.796875 0 
L 37.796875 17.1875 
L 4.890625 17.1875 
L 4.890625 26.703125 
z
" id="DejaVuSans-34"/>
      </defs>
      <g transform="translate(148.842745 322.182437)scale(0.1 -0.1)">
       <use transform="translate(0 0.684375)" xlink:href="#DejaVuSans-31"/>
       <use transform="translate(63.623047 0.684375)" xlink:href="#DejaVuSans-30"/>
       <use transform="translate(128.203125 38.965625)scale(0.7)" xlink:href="#DejaVuSans-34"/>
      </g>
     </g>
    </g>
    <g id="xtick_2">
     <g id="line2d_2">
      <g>
       <use style="stroke:#000000;stroke-width:0.8;" x="395.905863" xlink:href="#mdda6c812aa" y="307.584"/>
      </g>
     </g>
     <g id="text_2">
      <!-- $\mathdefault{10^{5}}$ -->
      <defs>
       <path d="M 10.796875 72.90625 
L 49.515625 72.90625 
L 49.515625 64.59375 
L 19.828125 64.59375 
L 19.828125 46.734375 
Q 21.96875 47.46875 24.109375 47.828125 
Q 26.265625 48.1875 28.421875 48.1875 
Q 40.625 48.1875 47.75 41.5 
Q 54.890625 34.8125 54.890625 23.390625 
Q 54.890625 11.625 47.5625 5.09375 
Q 40.234375 -1.421875 26.90625 -1.421875 
Q 22.3125 -1.421875 17.546875 -0.640625 
Q 12.796875 0.140625 7.71875 1.703125 
L 7.71875 11.625 
Q 12.109375 9.234375 16.796875 8.0625 
Q 21.484375 6.890625 26.703125 6.890625 
Q 35.15625 6.890625 40.078125 11.328125 
Q 45.015625 15.765625 45.015625 23.390625 
Q 45.015625 31 40.078125 35.4375 
Q 35.15625 39.890625 26.703125 39.890625 
Q 22.75 39.890625 18.8125 39.015625 
Q 14.890625 38.140625 10.796875 36.28125 
z
" id="DejaVuSans-35"/>
      </defs>
      <g transform="translate(387.105863 322.182437)scale(0.1 -0.1)">
       <use transform="translate(0 0.684375)" xlink:href="#DejaVuSans-31"/>
       <use transform="translate(63.623047 0.684375)" xlink:href="#DejaVuSans-30"/>
       <use transform="translate(128.203125 38.965625)scale(0.7)" xlink:href="#DejaVuSans-35"/>
      </g>
     </g>
    </g>
    <g id="xtick_3">
     <g id="line2d_3">
      <defs>
       <path d="M 0 0 
L 0 2 
" id="ma77b2d6f2d" style="stroke:#000000;stroke-width:0.6;"/>
      </defs>
      <g>
       <use style="stroke:#000000;stroke-width:0.6;" x="62.828317" xlink:href="#ma77b2d6f2d" y="307.584"/>
      </g>
     </g>
    </g>
    <g id="xtick_4">
     <g id="line2d_4">
      <g>
       <use style="stroke:#000000;stroke-width:0.6;" x="85.918399" xlink:href="#ma77b2d6f2d" y="307.584"/>
      </g>
     </g>
    </g>
    <g id="xtick_5">
     <g id="line2d_5">
      <g>
       <use style="stroke:#000000;stroke-width:0.6;" x="104.78437" xlink:href="#ma77b2d6f2d" y="307.584"/>
      </g>
     </g>
    </g>
    <g id="xtick_6">
     <g id="line2d_6">
      <g>
       <use style="stroke:#000000;stroke-width:0.6;" x="120.735321" xlink:href="#ma77b2d6f2d" y="307.584"/>
      </g>
     </g>
    </g>
    <g id="xtick_7">
     <g id="line2d_7">
      <g>
       <use style="stroke:#000000;stroke-width:0.6;" x="134.552663" xlink:href="#ma77b2d6f2d" y="307.584"/>
      </g>
     </g>
    </g>
    <g id="xtick_8">
     <g id="line2d_8">
      <g>
       <use style="stroke:#000000;stroke-width:0.6;" x="146.740422" xlink:href="#ma77b2d6f2d" y="307.584"/>
      </g>
     </g>
    </g>
    <g id="xtick_9">
     <g id="line2d_9">
      <g>
       <use style="stroke:#000000;stroke-width:0.6;" x="229.36709" xlink:href="#ma77b2d6f2d" y="307.584"/>
      </g>
     </g>
    </g>
    <g id="xtick_10">
     <g id="line2d_10">
      <g>
       <use style="stroke:#000000;stroke-width:0.6;" x="271.323142" xlink:href="#ma77b2d6f2d" y="307.584"/>
      </g>
     </g>
    </g>
    <g id="xtick_11">
     <g id="line2d_11">
      <g>
       <use style="stroke:#000000;stroke-width:0.6;" x="301.091435" xlink:href="#ma77b2d6f2d" y="307.584"/>
      </g>
     </g>
    </g>
    <g id="xtick_12">
     <g id="line2d_12">
      <g>
       <use style="stroke:#000000;stroke-width:0.6;" x="324.181517" xlink:href="#ma77b2d6f2d" y="307.584"/>
      </g>
     </g>
    </g>
    <g id="xtick_13">
     <g id="line2d_13">
      <g>
       <use style="stroke:#000000;stroke-width:0.6;" x="343.047488" xlink:href="#ma77b2d6f2d" y="307.584"/>
      </g>
     </g>
    </g>
    <g id="xtick_14">
     <g id="line2d_14">
      <g>
       <use style="stroke:#000000;stroke-width:0.6;" x="358.998439" xlink:href="#ma77b2d6f2d" y="307.584"/>
      </g>
     </g>
    </g>
    <g id="xtick_15">
     <g id="line2d_15">
      <g>
       <use style="stroke:#000000;stroke-width:0.6;" x="372.815781" xlink:href="#ma77b2d6f2d" y="307.584"/>
      </g>
     </g>
    </g>
    <g id="xtick_16">
     <g id="line2d_16">
      <g>
       <use style="stroke:#000000;stroke-width:0.6;" x="385.00354" xlink:href="#ma77b2d6f2d" y="307.584"/>
      </g>
     </g>
    </g>
    <g id="text_3">
     <!-- Execution time (s) -->
     <defs>
      <path d="M 9.8125 72.90625 
L 55.90625 72.90625 
L 55.90625 64.59375 
L 19.671875 64.59375 
L 19.671875 43.015625 
L 54.390625 43.015625 
L 54.390625 34.71875 
L 19.671875 34.71875 
L 19.671875 8.296875 
L 56.78125 8.296875 
L 56.78125 0 
L 9.8125 0 
z
" id="DejaVuSans-45"/>
      <path d="M 54.890625 54.6875 
L 35.109375 28.078125 
L 55.90625 0 
L 45.3125 0 
L 29.390625 21.484375 
L 13.484375 0 
L 2.875 0 
L 24.125 28.609375 
L 4.6875 54.6875 
L 15.28125 54.6875 
L 29.78125 35.203125 
L 44.28125 54.6875 
z
" id="DejaVuSans-78"/>
      <path d="M 56.203125 29.59375 
L 56.203125 25.203125 
L 14.890625 25.203125 
Q 15.484375 15.921875 20.484375 11.0625 
Q 25.484375 6.203125 34.421875 6.203125 
Q 39.59375 6.203125 44.453125 7.46875 
Q 49.3125 8.734375 54.109375 11.28125 
L 54.109375 2.78125 
Q 49.265625 0.734375 44.1875 -0.34375 
Q 39.109375 -1.421875 33.890625 -1.421875 
Q 20.796875 -1.421875 13.15625 6.1875 
Q 5.515625 13.8125 5.515625 26.8125 
Q 5.515625 40.234375 12.765625 48.109375 
Q 20.015625 56 32.328125 56 
Q 43.359375 56 49.78125 48.890625 
Q 56.203125 41.796875 56.203125 29.59375 
z
M 47.21875 32.234375 
Q 47.125 39.59375 43.09375 43.984375 
Q 39.0625 48.390625 32.421875 48.390625 
Q 24.90625 48.390625 20.390625 44.140625 
Q 15.875 39.890625 15.1875 32.171875 
z
" id="DejaVuSans-65"/>
      <path d="M 48.78125 52.59375 
L 48.78125 44.1875 
Q 44.96875 46.296875 41.140625 47.34375 
Q 37.3125 48.390625 33.40625 48.390625 
Q 24.65625 48.390625 19.8125 42.84375 
Q 14.984375 37.3125 14.984375 27.296875 
Q 14.984375 17.28125 19.8125 11.734375 
Q 24.65625 6.203125 33.40625 6.203125 
Q 37.3125 6.203125 41.140625 7.25 
Q 44.96875 8.296875 48.78125 10.40625 
L 48.78125 2.09375 
Q 45.015625 0.34375 40.984375 -0.53125 
Q 36.96875 -1.421875 32.421875 -1.421875 
Q 20.0625 -1.421875 12.78125 6.34375 
Q 5.515625 14.109375 5.515625 27.296875 
Q 5.515625 40.671875 12.859375 48.328125 
Q 20.21875 56 33.015625 56 
Q 37.15625 56 41.109375 55.140625 
Q 45.0625 54.296875 48.78125 52.59375 
z
" id="DejaVuSans-63"/>
      <path d="M 8.5 21.578125 
L 8.5 54.6875 
L 17.484375 54.6875 
L 17.484375 21.921875 
Q 17.484375 14.15625 20.5 10.265625 
Q 23.53125 6.390625 29.59375 6.390625 
Q 36.859375 6.390625 41.078125 11.03125 
Q 45.3125 15.671875 45.3125 23.6875 
L 45.3125 54.6875 
L 54.296875 54.6875 
L 54.296875 0 
L 45.3125 0 
L 45.3125 8.40625 
Q 42.046875 3.421875 37.71875 1 
Q 33.40625 -1.421875 27.6875 -1.421875 
Q 18.265625 -1.421875 13.375 4.4375 
Q 8.5 10.296875 8.5 21.578125 
z
M 31.109375 56 
z
" id="DejaVuSans-75"/>
      <path d="M 18.3125 70.21875 
L 18.3125 54.6875 
L 36.8125 54.6875 
L 36.8125 47.703125 
L 18.3125 47.703125 
L 18.3125 18.015625 
Q 18.3125 11.328125 20.140625 9.421875 
Q 21.96875 7.515625 27.59375 7.515625 
L 36.8125 7.515625 
L 36.8125 0 
L 27.59375 0 
Q 17.1875 0 13.234375 3.875 
Q 9.28125 7.765625 9.28125 18.015625 
L 9.28125 47.703125 
L 2.6875 47.703125 
L 2.6875 54.6875 
L 9.28125 54.6875 
L 9.28125 70.21875 
z
" id="DejaVuSans-74"/>
      <path d="M 9.421875 54.6875 
L 18.40625 54.6875 
L 18.40625 0 
L 9.421875 0 
z
M 9.421875 75.984375 
L 18.40625 75.984375 
L 18.40625 64.59375 
L 9.421875 64.59375 
z
" id="DejaVuSans-69"/>
      <path d="M 30.609375 48.390625 
Q 23.390625 48.390625 19.1875 42.75 
Q 14.984375 37.109375 14.984375 27.296875 
Q 14.984375 17.484375 19.15625 11.84375 
Q 23.34375 6.203125 30.609375 6.203125 
Q 37.796875 6.203125 41.984375 11.859375 
Q 46.1875 17.53125 46.1875 27.296875 
Q 46.1875 37.015625 41.984375 42.703125 
Q 37.796875 48.390625 30.609375 48.390625 
z
M 30.609375 56 
Q 42.328125 56 49.015625 48.375 
Q 55.71875 40.765625 55.71875 27.296875 
Q 55.71875 13.875 49.015625 6.21875 
Q 42.328125 -1.421875 30.609375 -1.421875 
Q 18.84375 -1.421875 12.171875 6.21875 
Q 5.515625 13.875 5.515625 27.296875 
Q 5.515625 40.765625 12.171875 48.375 
Q 18.84375 56 30.609375 56 
z
" id="DejaVuSans-6f"/>
      <path d="M 54.890625 33.015625 
L 54.890625 0 
L 45.90625 0 
L 45.90625 32.71875 
Q 45.90625 40.484375 42.875 44.328125 
Q 39.84375 48.1875 33.796875 48.1875 
Q 26.515625 48.1875 22.3125 43.546875 
Q 18.109375 38.921875 18.109375 30.90625 
L 18.109375 0 
L 9.078125 0 
L 9.078125 54.6875 
L 18.109375 54.6875 
L 18.109375 46.1875 
Q 21.34375 51.125 25.703125 53.5625 
Q 30.078125 56 35.796875 56 
Q 45.21875 56 50.046875 50.171875 
Q 54.890625 44.34375 54.890625 33.015625 
z
" id="DejaVuSans-6e"/>
      <path id="DejaVuSans-20"/>
      <path d="M 52 44.1875 
Q 55.375 50.25 60.0625 53.125 
Q 64.75 56 71.09375 56 
Q 79.640625 56 84.28125 50.015625 
Q 88.921875 44.046875 88.921875 33.015625 
L 88.921875 0 
L 79.890625 0 
L 79.890625 32.71875 
Q 79.890625 40.578125 77.09375 44.375 
Q 74.3125 48.1875 68.609375 48.1875 
Q 61.625 48.1875 57.5625 43.546875 
Q 53.515625 38.921875 53.515625 30.90625 
L 53.515625 0 
L 44.484375 0 
L 44.484375 32.71875 
Q 44.484375 40.625 41.703125 44.40625 
Q 38.921875 48.1875 33.109375 48.1875 
Q 26.21875 48.1875 22.15625 43.53125 
Q 18.109375 38.875 18.109375 30.90625 
L 18.109375 0 
L 9.078125 0 
L 9.078125 54.6875 
L 18.109375 54.6875 
L 18.109375 46.1875 
Q 21.1875 51.21875 25.484375 53.609375 
Q 29.78125 56 35.6875 56 
Q 41.65625 56 45.828125 52.96875 
Q 50 49.953125 52 44.1875 
z
" id="DejaVuSans-6d"/>
      <path d="M 31 75.875 
Q 24.46875 64.65625 21.28125 53.65625 
Q 18.109375 42.671875 18.109375 31.390625 
Q 18.109375 20.125 21.3125 9.0625 
Q 24.515625 -2 31 -13.1875 
L 23.1875 -13.1875 
Q 15.875 -1.703125 12.234375 9.375 
Q 8.59375 20.453125 8.59375 31.390625 
Q 8.59375 42.28125 12.203125 53.3125 
Q 15.828125 64.359375 23.1875 75.875 
z
" id="DejaVuSans-28"/>
      <path d="M 44.28125 53.078125 
L 44.28125 44.578125 
Q 40.484375 46.53125 36.375 47.5 
Q 32.28125 48.484375 27.875 48.484375 
Q 21.1875 48.484375 17.84375 46.4375 
Q 14.5 44.390625 14.5 40.28125 
Q 14.5 37.15625 16.890625 35.375 
Q 19.28125 33.59375 26.515625 31.984375 
L 29.59375 31.296875 
Q 39.15625 29.25 43.1875 25.515625 
Q 47.21875 21.78125 47.21875 15.09375 
Q 47.21875 7.46875 41.1875 3.015625 
Q 35.15625 -1.421875 24.609375 -1.421875 
Q 20.21875 -1.421875 15.453125 -0.5625 
Q 10.6875 0.296875 5.421875 2 
L 5.421875 11.28125 
Q 10.40625 8.6875 15.234375 7.390625 
Q 20.0625 6.109375 24.8125 6.109375 
Q 31.15625 6.109375 34.5625 8.28125 
Q 37.984375 10.453125 37.984375 14.40625 
Q 37.984375 18.0625 35.515625 20.015625 
Q 33.0625 21.96875 24.703125 23.78125 
L 21.578125 24.515625 
Q 13.234375 26.265625 9.515625 29.90625 
Q 5.8125 33.546875 5.8125 39.890625 
Q 5.8125 47.609375 11.28125 51.796875 
Q 16.75 56 26.8125 56 
Q 31.78125 56 36.171875 55.265625 
Q 40.578125 54.546875 44.28125 53.078125 
z
" id="DejaVuSans-73"/>
      <path d="M 8.015625 75.875 
L 15.828125 75.875 
Q 23.140625 64.359375 26.78125 53.3125 
Q 30.421875 42.28125 30.421875 31.390625 
Q 30.421875 20.453125 26.78125 9.375 
Q 23.140625 -1.703125 15.828125 -13.1875 
L 8.015625 -13.1875 
Q 14.5 -2 17.703125 9.0625 
Q 20.90625 20.125 20.90625 31.390625 
Q 20.90625 42.671875 17.703125 53.65625 
Q 14.5 64.65625 8.015625 75.875 
z
" id="DejaVuSans-29"/>
     </defs>
     <g transform="translate(190.49125 335.860562)scale(0.1 -0.1)">
      <use xlink:href="#DejaVuSans-45"/>
      <use x="63.183594" xlink:href="#DejaVuSans-78"/>
      <use x="122.316406" xlink:href="#DejaVuSans-65"/>
      <use x="183.839844" xlink:href="#DejaVuSans-63"/>
      <use x="238.820312" xlink:href="#DejaVuSans-75"/>
      <use x="302.199219" xlink:href="#DejaVuSans-74"/>
      <use x="341.408203" xlink:href="#DejaVuSans-69"/>
      <use x="369.191406" xlink:href="#DejaVuSans-6f"/>
      <use x="430.373047" xlink:href="#DejaVuSans-6e"/>
      <use x="493.751953" xlink:href="#DejaVuSans-20"/>
      <use x="525.539062" xlink:href="#DejaVuSans-74"/>
      <use x="564.748047" xlink:href="#DejaVuSans-69"/>
      <use x="592.53125" xlink:href="#DejaVuSans-6d"/>
      <use x="689.943359" xlink:href="#DejaVuSans-65"/>
      <use x="751.466797" xlink:href="#DejaVuSans-20"/>
      <use x="783.253906" xlink:href="#DejaVuSans-28"/>
      <use x="822.267578" xlink:href="#DejaVuSans-73"/>
      <use x="874.367188" xlink:href="#DejaVuSans-29"/>
     </g>
    </g>
   </g>
   <g id="matplotlib.axis_2">
    <g id="ytick_1">
     <g id="line2d_17">
      <defs>
       <path d="M 0 0 
L -3.5 0 
" id="m937a2f6b85" style="stroke:#000000;stroke-width:0.8;"/>
      </defs>
      <g>
       <use style="stroke:#000000;stroke-width:0.8;" x="57.6" xlink:href="#m937a2f6b85" y="295.488"/>
      </g>
     </g>
     <g id="text_4">
      <!-- 100 -->
      <g transform="translate(31.5125 299.287219)scale(0.1 -0.1)">
       <use xlink:href="#DejaVuSans-31"/>
       <use x="63.623047" xlink:href="#DejaVuSans-30"/>
       <use x="127.246094" xlink:href="#DejaVuSans-30"/>
      </g>
     </g>
    </g>
    <g id="ytick_2">
     <g id="line2d_18">
      <g>
       <use style="stroke:#000000;stroke-width:0.8;" x="57.6" xlink:href="#m937a2f6b85" y="258.609951"/>
      </g>
     </g>
     <g id="text_5">
      <!-- 125 -->
      <defs>
       <path d="M 19.1875 8.296875 
L 53.609375 8.296875 
L 53.609375 0 
L 7.328125 0 
L 7.328125 8.296875 
Q 12.9375 14.109375 22.625 23.890625 
Q 32.328125 33.6875 34.8125 36.53125 
Q 39.546875 41.84375 41.421875 45.53125 
Q 43.3125 49.21875 43.3125 52.78125 
Q 43.3125 58.59375 39.234375 62.25 
Q 35.15625 65.921875 28.609375 65.921875 
Q 23.96875 65.921875 18.8125 64.3125 
Q 13.671875 62.703125 7.8125 59.421875 
L 7.8125 69.390625 
Q 13.765625 71.78125 18.9375 73 
Q 24.125 74.21875 28.421875 74.21875 
Q 39.75 74.21875 46.484375 68.546875 
Q 53.21875 62.890625 53.21875 53.421875 
Q 53.21875 48.921875 51.53125 44.890625 
Q 49.859375 40.875 45.40625 35.40625 
Q 44.1875 33.984375 37.640625 27.21875 
Q 31.109375 20.453125 19.1875 8.296875 
z
" id="DejaVuSans-32"/>
      </defs>
      <g transform="translate(31.5125 262.40917)scale(0.1 -0.1)">
       <use xlink:href="#DejaVuSans-31"/>
       <use x="63.623047" xlink:href="#DejaVuSans-32"/>
       <use x="127.246094" xlink:href="#DejaVuSans-35"/>
      </g>
     </g>
    </g>
    <g id="ytick_3">
     <g id="line2d_19">
      <g>
       <use style="stroke:#000000;stroke-width:0.8;" x="57.6" xlink:href="#m937a2f6b85" y="221.731902"/>
      </g>
     </g>
     <g id="text_6">
      <!-- 150 -->
      <g transform="translate(31.5125 225.531121)scale(0.1 -0.1)">
       <use xlink:href="#DejaVuSans-31"/>
       <use x="63.623047" xlink:href="#DejaVuSans-35"/>
       <use x="127.246094" xlink:href="#DejaVuSans-30"/>
      </g>
     </g>
    </g>
    <g id="ytick_4">
     <g id="line2d_20">
      <g>
       <use style="stroke:#000000;stroke-width:0.8;" x="57.6" xlink:href="#m937a2f6b85" y="184.853854"/>
      </g>
     </g>
     <g id="text_7">
      <!-- 175 -->
      <defs>
       <path d="M 8.203125 72.90625 
L 55.078125 72.90625 
L 55.078125 68.703125 
L 28.609375 0 
L 18.3125 0 
L 43.21875 64.59375 
L 8.203125 64.59375 
z
" id="DejaVuSans-37"/>
      </defs>
      <g transform="translate(31.5125 188.653072)scale(0.1 -0.1)">
       <use xlink:href="#DejaVuSans-31"/>
       <use x="63.623047" xlink:href="#DejaVuSans-37"/>
       <use x="127.246094" xlink:href="#DejaVuSans-35"/>
      </g>
     </g>
    </g>
    <g id="ytick_5">
     <g id="line2d_21">
      <g>
       <use style="stroke:#000000;stroke-width:0.8;" x="57.6" xlink:href="#m937a2f6b85" y="147.975805"/>
      </g>
     </g>
     <g id="text_8">
      <!-- 200 -->
      <g transform="translate(31.5125 151.775024)scale(0.1 -0.1)">
       <use xlink:href="#DejaVuSans-32"/>
       <use x="63.623047" xlink:href="#DejaVuSans-30"/>
       <use x="127.246094" xlink:href="#DejaVuSans-30"/>
      </g>
     </g>
    </g>
    <g id="ytick_6">
     <g id="line2d_22">
      <g>
       <use style="stroke:#000000;stroke-width:0.8;" x="57.6" xlink:href="#m937a2f6b85" y="111.097756"/>
      </g>
     </g>
     <g id="text_9">
      <!-- 225 -->
      <g transform="translate(31.5125 114.896975)scale(0.1 -0.1)">
       <use xlink:href="#DejaVuSans-32"/>
       <use x="63.623047" xlink:href="#DejaVuSans-32"/>
       <use x="127.246094" xlink:href="#DejaVuSans-35"/>
      </g>
     </g>
    </g>
    <g id="ytick_7">
     <g id="line2d_23">
      <g>
       <use style="stroke:#000000;stroke-width:0.8;" x="57.6" xlink:href="#m937a2f6b85" y="74.219707"/>
      </g>
     </g>
     <g id="text_10">
      <!-- 250 -->
      <g transform="translate(31.5125 78.018926)scale(0.1 -0.1)">
       <use xlink:href="#DejaVuSans-32"/>
       <use x="63.623047" xlink:href="#DejaVuSans-35"/>
       <use x="127.246094" xlink:href="#DejaVuSans-30"/>
      </g>
     </g>
    </g>
    <g id="text_11">
     <!-- Number of core species -->
     <defs>
      <path d="M 9.8125 72.90625 
L 23.09375 72.90625 
L 55.421875 11.921875 
L 55.421875 72.90625 
L 64.984375 72.90625 
L 64.984375 0 
L 51.703125 0 
L 19.390625 60.984375 
L 19.390625 0 
L 9.8125 0 
z
" id="DejaVuSans-4e"/>
      <path d="M 48.6875 27.296875 
Q 48.6875 37.203125 44.609375 42.84375 
Q 40.53125 48.484375 33.40625 48.484375 
Q 26.265625 48.484375 22.1875 42.84375 
Q 18.109375 37.203125 18.109375 27.296875 
Q 18.109375 17.390625 22.1875 11.75 
Q 26.265625 6.109375 33.40625 6.109375 
Q 40.53125 6.109375 44.609375 11.75 
Q 48.6875 17.390625 48.6875 27.296875 
z
M 18.109375 46.390625 
Q 20.953125 51.265625 25.265625 53.625 
Q 29.59375 56 35.59375 56 
Q 45.5625 56 51.78125 48.09375 
Q 58.015625 40.1875 58.015625 27.296875 
Q 58.015625 14.40625 51.78125 6.484375 
Q 45.5625 -1.421875 35.59375 -1.421875 
Q 29.59375 -1.421875 25.265625 0.953125 
Q 20.953125 3.328125 18.109375 8.203125 
L 18.109375 0 
L 9.078125 0 
L 9.078125 75.984375 
L 18.109375 75.984375 
z
" id="DejaVuSans-62"/>
      <path d="M 41.109375 46.296875 
Q 39.59375 47.171875 37.8125 47.578125 
Q 36.03125 48 33.890625 48 
Q 26.265625 48 22.1875 43.046875 
Q 18.109375 38.09375 18.109375 28.8125 
L 18.109375 0 
L 9.078125 0 
L 9.078125 54.6875 
L 18.109375 54.6875 
L 18.109375 46.1875 
Q 20.953125 51.171875 25.484375 53.578125 
Q 30.03125 56 36.53125 56 
Q 37.453125 56 38.578125 55.875 
Q 39.703125 55.765625 41.0625 55.515625 
z
" id="DejaVuSans-72"/>
      <path d="M 37.109375 75.984375 
L 37.109375 68.5 
L 28.515625 68.5 
Q 23.6875 68.5 21.796875 66.546875 
Q 19.921875 64.59375 19.921875 59.515625 
L 19.921875 54.6875 
L 34.71875 54.6875 
L 34.71875 47.703125 
L 19.921875 47.703125 
L 19.921875 0 
L 10.890625 0 
L 10.890625 47.703125 
L 2.296875 47.703125 
L 2.296875 54.6875 
L 10.890625 54.6875 
L 10.890625 58.5 
Q 10.890625 67.625 15.140625 71.796875 
Q 19.390625 75.984375 28.609375 75.984375 
z
" id="DejaVuSans-66"/>
      <path d="M 18.109375 8.203125 
L 18.109375 -20.796875 
L 9.078125 -20.796875 
L 9.078125 54.6875 
L 18.109375 54.6875 
L 18.109375 46.390625 
Q 20.953125 51.265625 25.265625 53.625 
Q 29.59375 56 35.59375 56 
Q 45.5625 56 51.78125 48.09375 
Q 58.015625 40.1875 58.015625 27.296875 
Q 58.015625 14.40625 51.78125 6.484375 
Q 45.5625 -1.421875 35.59375 -1.421875 
Q 29.59375 -1.421875 25.265625 0.953125 
Q 20.953125 3.328125 18.109375 8.203125 
z
M 48.6875 27.296875 
Q 48.6875 37.203125 44.609375 42.84375 
Q 40.53125 48.484375 33.40625 48.484375 
Q 26.265625 48.484375 22.1875 42.84375 
Q 18.109375 37.203125 18.109375 27.296875 
Q 18.109375 17.390625 22.1875 11.75 
Q 26.265625 6.109375 33.40625 6.109375 
Q 40.53125 6.109375 44.609375 11.75 
Q 48.6875 17.390625 48.6875 27.296875 
z
" id="DejaVuSans-70"/>
     </defs>
     <g transform="translate(25.432812 233.814719)rotate(-90)scale(0.1 -0.1)">
      <use xlink:href="#DejaVuSans-4e"/>
      <use x="74.804688" xlink:href="#DejaVuSans-75"/>
      <use x="138.183594" xlink:href="#DejaVuSans-6d"/>
      <use x="235.595703" xlink:href="#DejaVuSans-62"/>
      <use x="299.072266" xlink:href="#DejaVuSans-65"/>
      <use x="360.595703" xlink:href="#DejaVuSans-72"/>
      <use x="401.708984" xlink:href="#DejaVuSans-20"/>
      <use x="433.496094" xlink:href="#DejaVuSans-6f"/>
      <use x="494.677734" xlink:href="#DejaVuSans-66"/>
      <use x="529.882812" xlink:href="#DejaVuSans-20"/>
      <use x="561.669922" xlink:href="#DejaVuSans-63"/>
      <use x="616.650391" xlink:href="#DejaVuSans-6f"/>
      <use x="677.832031" xlink:href="#DejaVuSans-72"/>
      <use x="718.914062" xlink:href="#DejaVuSans-65"/>
      <use x="780.4375" xlink:href="#DejaVuSans-20"/>
      <use x="812.224609" xlink:href="#DejaVuSans-73"/>
      <use x="864.324219" xlink:href="#DejaVuSans-70"/>
      <use x="927.800781" xlink:href="#DejaVuSans-65"/>
      <use x="989.324219" xlink:href="#DejaVuSans-63"/>
      <use x="1044.304688" xlink:href="#DejaVuSans-69"/>
      <use x="1072.087891" xlink:href="#DejaVuSans-65"/>
      <use x="1133.611328" xlink:href="#DejaVuSans-73"/>
     </g>
    </g>
   </g>
   <g id="line2d_24">
    <path clip-path="url(#pc1dbe78fa0)" d="M 73.832727 295.488 
L 74.816164 295.488 
L 76.072255 294.012878 
L 76.740116 292.537756 
L 78.912357 291.062634 
L 80.494938 289.587512 
L 81.49953 288.11239 
L 87.270883 286.637268 
L 98.713706 282.211902 
L 101.246686 280.73678 
L 108.601993 277.786537 
L 111.162072 276.311415 
L 117.269782 274.836293 
L 117.821291 274.836293 
L 121.846984 273.361171 
L 126.242222 271.886049 
L 128.58206 270.410927 
L 131.422655 268.935805 
L 133.555624 267.460683 
L 136.086146 265.985561 
L 138.027136 264.510439 
L 142.225621 263.035317 
L 142.436102 263.035317 
L 147.619096 261.560195 
L 151.350525 260.085073 
L 153.769009 258.609951 
L 155.672415 257.134829 
L 158.064649 255.659707 
L 160.942454 254.184585 
L 164.587033 252.709463 
L 166.865939 251.234341 
L 173.427503 248.284098 
L 175.54055 246.808976 
L 177.078192 245.333854 
L 179.096463 243.858732 
L 179.8692 243.858732 
L 181.157338 242.38361 
L 183.298803 240.908488 
L 185.000168 239.433366 
L 186.098082 237.958244 
L 191.584518 236.483122 
L 208.374744 229.107512 
L 210.483463 227.63239 
L 213.13895 226.157268 
L 219.37426 221.731902 
L 220.535559 220.25678 
L 222.599518 218.781659 
L 223.760103 217.306537 
L 227.206255 214.356293 
L 231.256529 212.881171 
L 236.910944 209.930927 
L 238.620274 208.455805 
L 241.977286 206.980683 
L 243.806575 205.505561 
L 245.379773 204.030439 
L 246.43676 202.555317 
L 247.711874 201.080195 
L 250.792244 199.605073 
L 252.406889 196.654829 
L 252.965982 195.179707 
L 254.592241 192.229463 
L 257.91343 189.27922 
L 259.25443 187.804098 
L 260.15209 186.328976 
L 261.182442 184.853854 
L 262.744828 183.378732 
L 263.800268 181.90361 
L 265.440184 180.428488 
L 266.706513 178.953366 
L 267.74121 177.478244 
L 269.322514 176.003122 
L 271.443292 173.052878 
L 271.872636 171.577756 
L 273.487454 170.102634 
L 278.786261 167.15239 
L 280.169349 165.677268 
L 284.469263 164.202146 
L 286.179277 162.727024 
L 290.194571 161.251902 
L 292.013586 159.77678 
L 296.886936 156.826537 
L 298.594881 155.351415 
L 301.498224 152.401171 
L 308.158855 147.975805 
L 308.736814 147.975805 
L 310.118371 146.500683 
L 312.397554 143.550439 
L 313.075508 142.075317 
L 314.203707 140.600195 
L 315.014542 139.125073 
L 318.116387 136.174829 
L 319.957436 133.224585 
L 322.989562 130.274341 
L 323.957621 128.79922 
L 324.376746 127.324098 
L 325.995052 125.848976 
L 328.65038 122.898732 
L 330.339904 121.42361 
L 332.464349 119.948488 
L 333.918677 118.473366 
L 335.000775 116.998244 
L 336.25342 115.523122 
L 337.728644 114.048 
L 339.995579 112.572878 
L 341.768771 111.097756 
L 343.218245 108.147512 
L 343.849835 108.147512 
L 345.468904 106.67239 
L 346.700502 105.197268 
L 348.962839 103.722146 
L 350.428327 102.247024 
L 353.260094 100.771902 
L 354.898046 99.29678 
L 358.529844 96.346537 
L 359.857609 94.871415 
L 361.459888 93.396293 
L 362.798832 91.921171 
L 365.716805 88.970927 
L 366.46082 87.495805 
L 367.765349 86.020683 
L 369.346182 84.545561 
L 370.604878 83.070439 
L 371.529587 81.595317 
L 373.90633 78.645073 
L 376.27589 77.169951 
L 377.433876 75.694829 
L 379.07651 74.219707 
L 380.454714 71.269463 
L 382.733003 69.794341 
L 383.800856 68.31922 
L 384.58583 66.844098 
L 386.070086 65.368976 
L 387.319908 63.893854 
L 388.294542 62.418732 
L 391.299469 59.468488 
L 392.065973 57.993366 
L 393.689231 56.518244 
L 395.095865 55.043122 
L 398.487273 53.568 
L 398.487273 53.568 
" style="fill:none;stroke:#0000ff;stroke-linecap:square;stroke-width:1.5;"/>
    <defs>
     <path d="M 0 3 
C 0.795609 3 1.55874 2.683901 2.12132 2.12132 
C 2.683901 1.55874 3 0.795609 3 0 
C 3 -0.795609 2.683901 -1.55874 2.12132 -2.12132 
C 1.55874 -2.683901 0.795609 -3 0 -3 
C -0.795609 -3 -1.55874 -2.683901 -2.12132 -2.12132 
C -2.683901 -1.55874 -3 -0.795609 -3 0 
C -3 0.795609 -2.683901 1.55874 -2.12132 2.12132 
C -1.55874 2.683901 -0.795609 3 0 3 
z
" id="m73b19af600" style="stroke:#0000ff;"/>
    </defs>
    <g clip-path="url(#pc1dbe78fa0)">
     <use style="fill:#0000ff;stroke:#0000ff;" x="73.832727" xlink:href="#m73b19af600" y="295.488"/>
     <use style="fill:#0000ff;stroke:#0000ff;" x="74.604469" xlink:href="#m73b19af600" y="295.488"/>
     <use style="fill:#0000ff;stroke:#0000ff;" x="74.816164" xlink:href="#m73b19af600" y="295.488"/>
     <use style="fill:#0000ff;stroke:#0000ff;" x="76.072255" xlink:href="#m73b19af600" y="294.012878"/>
     <use style="fill:#0000ff;stroke:#0000ff;" x="76.740116" xlink:href="#m73b19af600" y="292.537756"/>
     <use style="fill:#0000ff;stroke:#0000ff;" x="78.912357" xlink:href="#m73b19af600" y="291.062634"/>
     <use style="fill:#0000ff;stroke:#0000ff;" x="80.494938" xlink:href="#m73b19af600" y="289.587512"/>
     <use style="fill:#0000ff;stroke:#0000ff;" x="81.49953" xlink:href="#m73b19af600" y="288.11239"/>
     <use style="fill:#0000ff;stroke:#0000ff;" x="87.030305" xlink:href="#m73b19af600" y="286.637268"/>
     <use style="fill:#0000ff;stroke:#0000ff;" x="87.270883" xlink:href="#m73b19af600" y="286.637268"/>
     <use style="fill:#0000ff;stroke:#0000ff;" x="91.09478" xlink:href="#m73b19af600" y="285.162146"/>
     <use style="fill:#0000ff;stroke:#0000ff;" x="95.089159" xlink:href="#m73b19af600" y="283.687024"/>
     <use style="fill:#0000ff;stroke:#0000ff;" x="98.713706" xlink:href="#m73b19af600" y="282.211902"/>
     <use style="fill:#0000ff;stroke:#0000ff;" x="101.246686" xlink:href="#m73b19af600" y="280.73678"/>
     <use style="fill:#0000ff;stroke:#0000ff;" x="104.904148" xlink:href="#m73b19af600" y="279.261659"/>
     <use style="fill:#0000ff;stroke:#0000ff;" x="108.601993" xlink:href="#m73b19af600" y="277.786537"/>
     <use style="fill:#0000ff;stroke:#0000ff;" x="111.162072" xlink:href="#m73b19af600" y="276.311415"/>
     <use style="fill:#0000ff;stroke:#0000ff;" x="117.269782" xlink:href="#m73b19af600" y="274.836293"/>
     <use style="fill:#0000ff;stroke:#0000ff;" x="117.821291" xlink:href="#m73b19af600" y="274.836293"/>
     <use style="fill:#0000ff;stroke:#0000ff;" x="121.846984" xlink:href="#m73b19af600" y="273.361171"/>
     <use style="fill:#0000ff;stroke:#0000ff;" x="126.242222" xlink:href="#m73b19af600" y="271.886049"/>
     <use style="fill:#0000ff;stroke:#0000ff;" x="128.58206" xlink:href="#m73b19af600" y="270.410927"/>
     <use style="fill:#0000ff;stroke:#0000ff;" x="131.422655" xlink:href="#m73b19af600" y="268.935805"/>
     <use style="fill:#0000ff;stroke:#0000ff;" x="133.555624" xlink:href="#m73b19af600" y="267.460683"/>
     <use style="fill:#0000ff;stroke:#0000ff;" x="136.086146" xlink:href="#m73b19af600" y="265.985561"/>
     <use style="fill:#0000ff;stroke:#0000ff;" x="138.027136" xlink:href="#m73b19af600" y="264.510439"/>
     <use style="fill:#0000ff;stroke:#0000ff;" x="142.008701" xlink:href="#m73b19af600" y="263.035317"/>
     <use style="fill:#0000ff;stroke:#0000ff;" x="142.225621" xlink:href="#m73b19af600" y="263.035317"/>
     <use style="fill:#0000ff;stroke:#0000ff;" x="142.436102" xlink:href="#m73b19af600" y="263.035317"/>
     <use style="fill:#0000ff;stroke:#0000ff;" x="147.619096" xlink:href="#m73b19af600" y="261.560195"/>
     <use style="fill:#0000ff;stroke:#0000ff;" x="151.350525" xlink:href="#m73b19af600" y="260.085073"/>
     <use style="fill:#0000ff;stroke:#0000ff;" x="153.769009" xlink:href="#m73b19af600" y="258.609951"/>
     <use style="fill:#0000ff;stroke:#0000ff;" x="155.672415" xlink:href="#m73b19af600" y="257.134829"/>
     <use style="fill:#0000ff;stroke:#0000ff;" x="158.064649" xlink:href="#m73b19af600" y="255.659707"/>
     <use style="fill:#0000ff;stroke:#0000ff;" x="160.942454" xlink:href="#m73b19af600" y="254.184585"/>
     <use style="fill:#0000ff;stroke:#0000ff;" x="164.587033" xlink:href="#m73b19af600" y="252.709463"/>
     <use style="fill:#0000ff;stroke:#0000ff;" x="166.865939" xlink:href="#m73b19af600" y="251.234341"/>
     <use style="fill:#0000ff;stroke:#0000ff;" x="170.021761" xlink:href="#m73b19af600" y="249.75922"/>
     <use style="fill:#0000ff;stroke:#0000ff;" x="173.427503" xlink:href="#m73b19af600" y="248.284098"/>
     <use style="fill:#0000ff;stroke:#0000ff;" x="175.54055" xlink:href="#m73b19af600" y="246.808976"/>
     <use style="fill:#0000ff;stroke:#0000ff;" x="177.078192" xlink:href="#m73b19af600" y="245.333854"/>
     <use style="fill:#0000ff;stroke:#0000ff;" x="179.096463" xlink:href="#m73b19af600" y="243.858732"/>
     <use style="fill:#0000ff;stroke:#0000ff;" x="179.8692" xlink:href="#m73b19af600" y="243.858732"/>
     <use style="fill:#0000ff;stroke:#0000ff;" x="181.157338" xlink:href="#m73b19af600" y="242.38361"/>
     <use style="fill:#0000ff;stroke:#0000ff;" x="183.298803" xlink:href="#m73b19af600" y="240.908488"/>
     <use style="fill:#0000ff;stroke:#0000ff;" x="185.000168" xlink:href="#m73b19af600" y="239.433366"/>
     <use style="fill:#0000ff;stroke:#0000ff;" x="186.098082" xlink:href="#m73b19af600" y="237.958244"/>
     <use style="fill:#0000ff;stroke:#0000ff;" x="191.584518" xlink:href="#m73b19af600" y="236.483122"/>
     <use style="fill:#0000ff;stroke:#0000ff;" x="194.964253" xlink:href="#m73b19af600" y="235.008"/>
     <use style="fill:#0000ff;stroke:#0000ff;" x="198.128031" xlink:href="#m73b19af600" y="233.532878"/>
     <use style="fill:#0000ff;stroke:#0000ff;" x="201.664506" xlink:href="#m73b19af600" y="232.057756"/>
     <use style="fill:#0000ff;stroke:#0000ff;" x="205.299128" xlink:href="#m73b19af600" y="230.582634"/>
     <use style="fill:#0000ff;stroke:#0000ff;" x="208.374744" xlink:href="#m73b19af600" y="229.107512"/>
     <use style="fill:#0000ff;stroke:#0000ff;" x="210.483463" xlink:href="#m73b19af600" y="227.63239"/>
     <use style="fill:#0000ff;stroke:#0000ff;" x="213.13895" xlink:href="#m73b19af600" y="226.157268"/>
     <use style="fill:#0000ff;stroke:#0000ff;" x="215.258912" xlink:href="#m73b19af600" y="224.682146"/>
     <use style="fill:#0000ff;stroke:#0000ff;" x="217.260652" xlink:href="#m73b19af600" y="223.207024"/>
     <use style="fill:#0000ff;stroke:#0000ff;" x="219.37426" xlink:href="#m73b19af600" y="221.731902"/>
     <use style="fill:#0000ff;stroke:#0000ff;" x="220.535559" xlink:href="#m73b19af600" y="220.25678"/>
     <use style="fill:#0000ff;stroke:#0000ff;" x="222.599518" xlink:href="#m73b19af600" y="218.781659"/>
     <use style="fill:#0000ff;stroke:#0000ff;" x="223.760103" xlink:href="#m73b19af600" y="217.306537"/>
     <use style="fill:#0000ff;stroke:#0000ff;" x="225.545201" xlink:href="#m73b19af600" y="215.831415"/>
     <use style="fill:#0000ff;stroke:#0000ff;" x="227.206255" xlink:href="#m73b19af600" y="214.356293"/>
     <use style="fill:#0000ff;stroke:#0000ff;" x="231.256529" xlink:href="#m73b19af600" y="212.881171"/>
     <use style="fill:#0000ff;stroke:#0000ff;" x="234.012896" xlink:href="#m73b19af600" y="211.406049"/>
     <use style="fill:#0000ff;stroke:#0000ff;" x="236.910944" xlink:href="#m73b19af600" y="209.930927"/>
     <use style="fill:#0000ff;stroke:#0000ff;" x="238.620274" xlink:href="#m73b19af600" y="208.455805"/>
     <use style="fill:#0000ff;stroke:#0000ff;" x="241.977286" xlink:href="#m73b19af600" y="206.980683"/>
     <use style="fill:#0000ff;stroke:#0000ff;" x="243.806575" xlink:href="#m73b19af600" y="205.505561"/>
     <use style="fill:#0000ff;stroke:#0000ff;" x="245.379773" xlink:href="#m73b19af600" y="204.030439"/>
     <use style="fill:#0000ff;stroke:#0000ff;" x="246.43676" xlink:href="#m73b19af600" y="202.555317"/>
     <use style="fill:#0000ff;stroke:#0000ff;" x="247.711874" xlink:href="#m73b19af600" y="201.080195"/>
     <use style="fill:#0000ff;stroke:#0000ff;" x="250.792244" xlink:href="#m73b19af600" y="199.605073"/>
     <use style="fill:#0000ff;stroke:#0000ff;" x="251.586815" xlink:href="#m73b19af600" y="198.129951"/>
     <use style="fill:#0000ff;stroke:#0000ff;" x="252.406889" xlink:href="#m73b19af600" y="196.654829"/>
     <use style="fill:#0000ff;stroke:#0000ff;" x="252.965982" xlink:href="#m73b19af600" y="195.179707"/>
     <use style="fill:#0000ff;stroke:#0000ff;" x="253.76241" xlink:href="#m73b19af600" y="193.704585"/>
     <use style="fill:#0000ff;stroke:#0000ff;" x="254.592241" xlink:href="#m73b19af600" y="192.229463"/>
     <use style="fill:#0000ff;stroke:#0000ff;" x="256.260178" xlink:href="#m73b19af600" y="190.754341"/>
     <use style="fill:#0000ff;stroke:#0000ff;" x="257.91343" xlink:href="#m73b19af600" y="189.27922"/>
     <use style="fill:#0000ff;stroke:#0000ff;" x="259.25443" xlink:href="#m73b19af600" y="187.804098"/>
     <use style="fill:#0000ff;stroke:#0000ff;" x="260.15209" xlink:href="#m73b19af600" y="186.328976"/>
     <use style="fill:#0000ff;stroke:#0000ff;" x="261.182442" xlink:href="#m73b19af600" y="184.853854"/>
     <use style="fill:#0000ff;stroke:#0000ff;" x="262.744828" xlink:href="#m73b19af600" y="183.378732"/>
     <use style="fill:#0000ff;stroke:#0000ff;" x="263.800268" xlink:href="#m73b19af600" y="181.90361"/>
     <use style="fill:#0000ff;stroke:#0000ff;" x="265.440184" xlink:href="#m73b19af600" y="180.428488"/>
     <use style="fill:#0000ff;stroke:#0000ff;" x="266.706513" xlink:href="#m73b19af600" y="178.953366"/>
     <use style="fill:#0000ff;stroke:#0000ff;" x="267.74121" xlink:href="#m73b19af600" y="177.478244"/>
     <use style="fill:#0000ff;stroke:#0000ff;" x="269.322514" xlink:href="#m73b19af600" y="176.003122"/>
     <use style="fill:#0000ff;stroke:#0000ff;" x="270.42078" xlink:href="#m73b19af600" y="174.528"/>
     <use style="fill:#0000ff;stroke:#0000ff;" x="271.443292" xlink:href="#m73b19af600" y="173.052878"/>
     <use style="fill:#0000ff;stroke:#0000ff;" x="271.872636" xlink:href="#m73b19af600" y="171.577756"/>
     <use style="fill:#0000ff;stroke:#0000ff;" x="273.487454" xlink:href="#m73b19af600" y="170.102634"/>
     <use style="fill:#0000ff;stroke:#0000ff;" x="276.189372" xlink:href="#m73b19af600" y="168.627512"/>
     <use style="fill:#0000ff;stroke:#0000ff;" x="278.786261" xlink:href="#m73b19af600" y="167.15239"/>
     <use style="fill:#0000ff;stroke:#0000ff;" x="280.169349" xlink:href="#m73b19af600" y="165.677268"/>
     <use style="fill:#0000ff;stroke:#0000ff;" x="284.469263" xlink:href="#m73b19af600" y="164.202146"/>
     <use style="fill:#0000ff;stroke:#0000ff;" x="286.179277" xlink:href="#m73b19af600" y="162.727024"/>
     <use style="fill:#0000ff;stroke:#0000ff;" x="290.194571" xlink:href="#m73b19af600" y="161.251902"/>
     <use style="fill:#0000ff;stroke:#0000ff;" x="292.013586" xlink:href="#m73b19af600" y="159.77678"/>
     <use style="fill:#0000ff;stroke:#0000ff;" x="294.418239" xlink:href="#m73b19af600" y="158.301659"/>
     <use style="fill:#0000ff;stroke:#0000ff;" x="296.886936" xlink:href="#m73b19af600" y="156.826537"/>
     <use style="fill:#0000ff;stroke:#0000ff;" x="298.594881" xlink:href="#m73b19af600" y="155.351415"/>
     <use style="fill:#0000ff;stroke:#0000ff;" x="300.01198" xlink:href="#m73b19af600" y="153.876293"/>
     <use style="fill:#0000ff;stroke:#0000ff;" x="301.498224" xlink:href="#m73b19af600" y="152.401171"/>
     <use style="fill:#0000ff;stroke:#0000ff;" x="303.696009" xlink:href="#m73b19af600" y="150.926049"/>
     <use style="fill:#0000ff;stroke:#0000ff;" x="306.064539" xlink:href="#m73b19af600" y="149.450927"/>
     <use style="fill:#0000ff;stroke:#0000ff;" x="308.158855" xlink:href="#m73b19af600" y="147.975805"/>
     <use style="fill:#0000ff;stroke:#0000ff;" x="308.5357" xlink:href="#m73b19af600" y="147.975805"/>
     <use style="fill:#0000ff;stroke:#0000ff;" x="308.736814" xlink:href="#m73b19af600" y="147.975805"/>
     <use style="fill:#0000ff;stroke:#0000ff;" x="310.118371" xlink:href="#m73b19af600" y="146.500683"/>
     <use style="fill:#0000ff;stroke:#0000ff;" x="311.246618" xlink:href="#m73b19af600" y="145.025561"/>
     <use style="fill:#0000ff;stroke:#0000ff;" x="312.397554" xlink:href="#m73b19af600" y="143.550439"/>
     <use style="fill:#0000ff;stroke:#0000ff;" x="313.075508" xlink:href="#m73b19af600" y="142.075317"/>
     <use style="fill:#0000ff;stroke:#0000ff;" x="314.203707" xlink:href="#m73b19af600" y="140.600195"/>
     <use style="fill:#0000ff;stroke:#0000ff;" x="315.014542" xlink:href="#m73b19af600" y="139.125073"/>
     <use style="fill:#0000ff;stroke:#0000ff;" x="316.578884" xlink:href="#m73b19af600" y="137.649951"/>
     <use style="fill:#0000ff;stroke:#0000ff;" x="318.116387" xlink:href="#m73b19af600" y="136.174829"/>
     <use style="fill:#0000ff;stroke:#0000ff;" x="319.051676" xlink:href="#m73b19af600" y="134.699707"/>
     <use style="fill:#0000ff;stroke:#0000ff;" x="319.957436" xlink:href="#m73b19af600" y="133.224585"/>
     <use style="fill:#0000ff;stroke:#0000ff;" x="321.466999" xlink:href="#m73b19af600" y="131.749463"/>
     <use style="fill:#0000ff;stroke:#0000ff;" x="322.989562" xlink:href="#m73b19af600" y="130.274341"/>
     <use style="fill:#0000ff;stroke:#0000ff;" x="323.957621" xlink:href="#m73b19af600" y="128.79922"/>
     <use style="fill:#0000ff;stroke:#0000ff;" x="324.376746" xlink:href="#m73b19af600" y="127.324098"/>
     <use style="fill:#0000ff;stroke:#0000ff;" x="325.995052" xlink:href="#m73b19af600" y="125.848976"/>
     <use style="fill:#0000ff;stroke:#0000ff;" x="327.316678" xlink:href="#m73b19af600" y="124.373854"/>
     <use style="fill:#0000ff;stroke:#0000ff;" x="328.65038" xlink:href="#m73b19af600" y="122.898732"/>
     <use style="fill:#0000ff;stroke:#0000ff;" x="330.339904" xlink:href="#m73b19af600" y="121.42361"/>
     <use style="fill:#0000ff;stroke:#0000ff;" x="332.464349" xlink:href="#m73b19af600" y="119.948488"/>
     <use style="fill:#0000ff;stroke:#0000ff;" x="333.918677" xlink:href="#m73b19af600" y="118.473366"/>
     <use style="fill:#0000ff;stroke:#0000ff;" x="335.000775" xlink:href="#m73b19af600" y="116.998244"/>
     <use style="fill:#0000ff;stroke:#0000ff;" x="336.25342" xlink:href="#m73b19af600" y="115.523122"/>
     <use style="fill:#0000ff;stroke:#0000ff;" x="337.728644" xlink:href="#m73b19af600" y="114.048"/>
     <use style="fill:#0000ff;stroke:#0000ff;" x="339.995579" xlink:href="#m73b19af600" y="112.572878"/>
     <use style="fill:#0000ff;stroke:#0000ff;" x="341.768771" xlink:href="#m73b19af600" y="111.097756"/>
     <use style="fill:#0000ff;stroke:#0000ff;" x="342.482427" xlink:href="#m73b19af600" y="109.622634"/>
     <use style="fill:#0000ff;stroke:#0000ff;" x="343.218245" xlink:href="#m73b19af600" y="108.147512"/>
     <use style="fill:#0000ff;stroke:#0000ff;" x="343.582349" xlink:href="#m73b19af600" y="108.147512"/>
     <use style="fill:#0000ff;stroke:#0000ff;" x="343.849835" xlink:href="#m73b19af600" y="108.147512"/>
     <use style="fill:#0000ff;stroke:#0000ff;" x="345.468904" xlink:href="#m73b19af600" y="106.67239"/>
     <use style="fill:#0000ff;stroke:#0000ff;" x="346.700502" xlink:href="#m73b19af600" y="105.197268"/>
     <use style="fill:#0000ff;stroke:#0000ff;" x="348.962839" xlink:href="#m73b19af600" y="103.722146"/>
     <use style="fill:#0000ff;stroke:#0000ff;" x="350.428327" xlink:href="#m73b19af600" y="102.247024"/>
     <use style="fill:#0000ff;stroke:#0000ff;" x="353.260094" xlink:href="#m73b19af600" y="100.771902"/>
     <use style="fill:#0000ff;stroke:#0000ff;" x="354.898046" xlink:href="#m73b19af600" y="99.29678"/>
     <use style="fill:#0000ff;stroke:#0000ff;" x="356.792416" xlink:href="#m73b19af600" y="97.821659"/>
     <use style="fill:#0000ff;stroke:#0000ff;" x="358.529844" xlink:href="#m73b19af600" y="96.346537"/>
     <use style="fill:#0000ff;stroke:#0000ff;" x="359.857609" xlink:href="#m73b19af600" y="94.871415"/>
     <use style="fill:#0000ff;stroke:#0000ff;" x="361.459888" xlink:href="#m73b19af600" y="93.396293"/>
     <use style="fill:#0000ff;stroke:#0000ff;" x="362.798832" xlink:href="#m73b19af600" y="91.921171"/>
     <use style="fill:#0000ff;stroke:#0000ff;" x="364.308671" xlink:href="#m73b19af600" y="90.446049"/>
     <use style="fill:#0000ff;stroke:#0000ff;" x="365.716805" xlink:href="#m73b19af600" y="88.970927"/>
     <use style="fill:#0000ff;stroke:#0000ff;" x="366.46082" xlink:href="#m73b19af600" y="87.495805"/>
     <use style="fill:#0000ff;stroke:#0000ff;" x="367.765349" xlink:href="#m73b19af600" y="86.020683"/>
     <use style="fill:#0000ff;stroke:#0000ff;" x="369.346182" xlink:href="#m73b19af600" y="84.545561"/>
     <use style="fill:#0000ff;stroke:#0000ff;" x="370.604878" xlink:href="#m73b19af600" y="83.070439"/>
     <use style="fill:#0000ff;stroke:#0000ff;" x="371.529587" xlink:href="#m73b19af600" y="81.595317"/>
     <use style="fill:#0000ff;stroke:#0000ff;" x="372.702313" xlink:href="#m73b19af600" y="80.120195"/>
     <use style="fill:#0000ff;stroke:#0000ff;" x="373.90633" xlink:href="#m73b19af600" y="78.645073"/>
     <use style="fill:#0000ff;stroke:#0000ff;" x="376.27589" xlink:href="#m73b19af600" y="77.169951"/>
     <use style="fill:#0000ff;stroke:#0000ff;" x="377.433876" xlink:href="#m73b19af600" y="75.694829"/>
     <use style="fill:#0000ff;stroke:#0000ff;" x="379.07651" xlink:href="#m73b19af600" y="74.219707"/>
     <use style="fill:#0000ff;stroke:#0000ff;" x="379.750105" xlink:href="#m73b19af600" y="72.744585"/>
     <use style="fill:#0000ff;stroke:#0000ff;" x="380.454714" xlink:href="#m73b19af600" y="71.269463"/>
     <use style="fill:#0000ff;stroke:#0000ff;" x="382.733003" xlink:href="#m73b19af600" y="69.794341"/>
     <use style="fill:#0000ff;stroke:#0000ff;" x="383.800856" xlink:href="#m73b19af600" y="68.31922"/>
     <use style="fill:#0000ff;stroke:#0000ff;" x="384.58583" xlink:href="#m73b19af600" y="66.844098"/>
     <use style="fill:#0000ff;stroke:#0000ff;" x="386.070086" xlink:href="#m73b19af600" y="65.368976"/>
     <use style="fill:#0000ff;stroke:#0000ff;" x="387.319908" xlink:href="#m73b19af600" y="63.893854"/>
     <use style="fill:#0000ff;stroke:#0000ff;" x="388.294542" xlink:href="#m73b19af600" y="62.418732"/>
     <use style="fill:#0000ff;stroke:#0000ff;" x="389.77572" xlink:href="#m73b19af600" y="60.94361"/>
     <use style="fill:#0000ff;stroke:#0000ff;" x="391.299469" xlink:href="#m73b19af600" y="59.468488"/>
     <use style="fill:#0000ff;stroke:#0000ff;" x="392.065973" xlink:href="#m73b19af600" y="57.993366"/>
     <use style="fill:#0000ff;stroke:#0000ff;" x="393.689231" xlink:href="#m73b19af600" y="56.518244"/>
     <use style="fill:#0000ff;stroke:#0000ff;" x="395.095865" xlink:href="#m73b19af600" y="55.043122"/>
     <use style="fill:#0000ff;stroke:#0000ff;" x="398.487273" xlink:href="#m73b19af600" y="53.568"/>
    </g>
   </g>
   <g id="patch_3">
    <path d="M 57.6 307.584 
L 57.6 41.472 
" style="fill:none;stroke:#000000;stroke-linecap:square;stroke-linejoin:miter;stroke-width:0.8;"/>
   </g>
   <g id="patch_4">
    <path d="M 414.72 307.584 
L 414.72 41.472 
" style="fill:none;stroke:#000000;stroke-linecap:square;stroke-linejoin:miter;stroke-width:0.8;"/>
   </g>
   <g id="patch_5">
    <path d="M 57.6 307.584 
L 414.72 307.584 
" style="fill:none;stroke:#000000;stroke-linecap:square;stroke-linejoin:miter;stroke-width:0.8;"/>
   </g>
   <g id="patch_6">
    <path d="M 57.6 41.472 
L 414.72 41.472 
" style="fill:none;stroke:#000000;stroke-linecap:square;stroke-linejoin:miter;stroke-width:0.8;"/>
   </g>
  </g>
  <g id="axes_2">
   <g id="matplotlib.axis_3">
    <g id="ytick_8">
     <g id="line2d_25">
      <defs>
       <path d="M 0 0 
L 3.5 0 
" id="m708546204e" style="stroke:#000000;stroke-width:0.8;"/>
      </defs>
      <g>
       <use style="stroke:#000000;stroke-width:0.8;" x="414.72" xlink:href="#m708546204e" y="279.817827"/>
      </g>
     </g>
     <g id="text_12">
      <!-- 1000 -->
      <g transform="translate(421.72 283.617046)scale(0.1 -0.1)">
       <use xlink:href="#DejaVuSans-31"/>
       <use x="63.623047" xlink:href="#DejaVuSans-30"/>
       <use x="127.246094" xlink:href="#DejaVuSans-30"/>
       <use x="190.869141" xlink:href="#DejaVuSans-30"/>
      </g>
     </g>
    </g>
    <g id="ytick_9">
     <g id="line2d_26">
      <g>
       <use style="stroke:#000000;stroke-width:0.8;" x="414.72" xlink:href="#m708546204e" y="248.602343"/>
      </g>
     </g>
     <g id="text_13">
      <!-- 1500 -->
      <g transform="translate(421.72 252.401562)scale(0.1 -0.1)">
       <use xlink:href="#DejaVuSans-31"/>
       <use x="63.623047" xlink:href="#DejaVuSans-35"/>
       <use x="127.246094" xlink:href="#DejaVuSans-30"/>
       <use x="190.869141" xlink:href="#DejaVuSans-30"/>
      </g>
     </g>
    </g>
    <g id="ytick_10">
     <g id="line2d_27">
      <g>
       <use style="stroke:#000000;stroke-width:0.8;" x="414.72" xlink:href="#m708546204e" y="217.386859"/>
      </g>
     </g>
     <g id="text_14">
      <!-- 2000 -->
      <g transform="translate(421.72 221.186078)scale(0.1 -0.1)">
       <use xlink:href="#DejaVuSans-32"/>
       <use x="63.623047" xlink:href="#DejaVuSans-30"/>
       <use x="127.246094" xlink:href="#DejaVuSans-30"/>
       <use x="190.869141" xlink:href="#DejaVuSans-30"/>
      </g>
     </g>
    </g>
    <g id="ytick_11">
     <g id="line2d_28">
      <g>
       <use style="stroke:#000000;stroke-width:0.8;" x="414.72" xlink:href="#m708546204e" y="186.171375"/>
      </g>
     </g>
     <g id="text_15">
      <!-- 2500 -->
      <g transform="translate(421.72 189.970594)scale(0.1 -0.1)">
       <use xlink:href="#DejaVuSans-32"/>
       <use x="63.623047" xlink:href="#DejaVuSans-35"/>
       <use x="127.246094" xlink:href="#DejaVuSans-30"/>
       <use x="190.869141" xlink:href="#DejaVuSans-30"/>
      </g>
     </g>
    </g>
    <g id="ytick_12">
     <g id="line2d_29">
      <g>
       <use style="stroke:#000000;stroke-width:0.8;" x="414.72" xlink:href="#m708546204e" y="154.955892"/>
      </g>
     </g>
     <g id="text_16">
      <!-- 3000 -->
      <defs>
       <path d="M 40.578125 39.3125 
Q 47.65625 37.796875 51.625 33 
Q 55.609375 28.21875 55.609375 21.1875 
Q 55.609375 10.40625 48.1875 4.484375 
Q 40.765625 -1.421875 27.09375 -1.421875 
Q 22.515625 -1.421875 17.65625 -0.515625 
Q 12.796875 0.390625 7.625 2.203125 
L 7.625 11.71875 
Q 11.71875 9.328125 16.59375 8.109375 
Q 21.484375 6.890625 26.8125 6.890625 
Q 36.078125 6.890625 40.9375 10.546875 
Q 45.796875 14.203125 45.796875 21.1875 
Q 45.796875 27.640625 41.28125 31.265625 
Q 36.765625 34.90625 28.71875 34.90625 
L 20.21875 34.90625 
L 20.21875 43.015625 
L 29.109375 43.015625 
Q 36.375 43.015625 40.234375 45.921875 
Q 44.09375 48.828125 44.09375 54.296875 
Q 44.09375 59.90625 40.109375 62.90625 
Q 36.140625 65.921875 28.71875 65.921875 
Q 24.65625 65.921875 20.015625 65.03125 
Q 15.375 64.15625 9.8125 62.3125 
L 9.8125 71.09375 
Q 15.4375 72.65625 20.34375 73.4375 
Q 25.25 74.21875 29.59375 74.21875 
Q 40.828125 74.21875 47.359375 69.109375 
Q 53.90625 64.015625 53.90625 55.328125 
Q 53.90625 49.265625 50.4375 45.09375 
Q 46.96875 40.921875 40.578125 39.3125 
z
" id="DejaVuSans-33"/>
      </defs>
      <g transform="translate(421.72 158.75511)scale(0.1 -0.1)">
       <use xlink:href="#DejaVuSans-33"/>
       <use x="63.623047" xlink:href="#DejaVuSans-30"/>
       <use x="127.246094" xlink:href="#DejaVuSans-30"/>
       <use x="190.869141" xlink:href="#DejaVuSans-30"/>
      </g>
     </g>
    </g>
    <g id="ytick_13">
     <g id="line2d_30">
      <g>
       <use style="stroke:#000000;stroke-width:0.8;" x="414.72" xlink:href="#m708546204e" y="123.740408"/>
      </g>
     </g>
     <g id="text_17">
      <!-- 3500 -->
      <g transform="translate(421.72 127.539626)scale(0.1 -0.1)">
       <use xlink:href="#DejaVuSans-33"/>
       <use x="63.623047" xlink:href="#DejaVuSans-35"/>
       <use x="127.246094" xlink:href="#DejaVuSans-30"/>
       <use x="190.869141" xlink:href="#DejaVuSans-30"/>
      </g>
     </g>
    </g>
    <g id="ytick_14">
     <g id="line2d_31">
      <g>
       <use style="stroke:#000000;stroke-width:0.8;" x="414.72" xlink:href="#m708546204e" y="92.524924"/>
      </g>
     </g>
     <g id="text_18">
      <!-- 4000 -->
      <g transform="translate(421.72 96.324143)scale(0.1 -0.1)">
       <use xlink:href="#DejaVuSans-34"/>
       <use x="63.623047" xlink:href="#DejaVuSans-30"/>
       <use x="127.246094" xlink:href="#DejaVuSans-30"/>
       <use x="190.869141" xlink:href="#DejaVuSans-30"/>
      </g>
     </g>
    </g>
    <g id="ytick_15">
     <g id="line2d_32">
      <g>
       <use style="stroke:#000000;stroke-width:0.8;" x="414.72" xlink:href="#m708546204e" y="61.30944"/>
      </g>
     </g>
     <g id="text_19">
      <!-- 4500 -->
      <g transform="translate(421.72 65.108659)scale(0.1 -0.1)">
       <use xlink:href="#DejaVuSans-34"/>
       <use x="63.623047" xlink:href="#DejaVuSans-35"/>
       <use x="127.246094" xlink:href="#DejaVuSans-30"/>
       <use x="190.869141" xlink:href="#DejaVuSans-30"/>
      </g>
     </g>
    </g>
    <g id="text_20">
     <!-- Number of core reactions -->
     <defs>
      <path d="M 34.28125 27.484375 
Q 23.390625 27.484375 19.1875 25 
Q 14.984375 22.515625 14.984375 16.5 
Q 14.984375 11.71875 18.140625 8.90625 
Q 21.296875 6.109375 26.703125 6.109375 
Q 34.1875 6.109375 38.703125 11.40625 
Q 43.21875 16.703125 43.21875 25.484375 
L 43.21875 27.484375 
z
M 52.203125 31.203125 
L 52.203125 0 
L 43.21875 0 
L 43.21875 8.296875 
Q 40.140625 3.328125 35.546875 0.953125 
Q 30.953125 -1.421875 24.3125 -1.421875 
Q 15.921875 -1.421875 10.953125 3.296875 
Q 6 8.015625 6 15.921875 
Q 6 25.140625 12.171875 29.828125 
Q 18.359375 34.515625 30.609375 34.515625 
L 43.21875 34.515625 
L 43.21875 35.40625 
Q 43.21875 41.609375 39.140625 45 
Q 35.0625 48.390625 27.6875 48.390625 
Q 23 48.390625 18.546875 47.265625 
Q 14.109375 46.140625 10.015625 43.890625 
L 10.015625 52.203125 
Q 14.9375 54.109375 19.578125 55.046875 
Q 24.21875 56 28.609375 56 
Q 40.484375 56 46.34375 49.84375 
Q 52.203125 43.703125 52.203125 31.203125 
z
" id="DejaVuSans-61"/>
     </defs>
     <g transform="translate(458.768438 238.2655)rotate(-90)scale(0.1 -0.1)">
      <use xlink:href="#DejaVuSans-4e"/>
      <use x="74.804688" xlink:href="#DejaVuSans-75"/>
      <use x="138.183594" xlink:href="#DejaVuSans-6d"/>
      <use x="235.595703" xlink:href="#DejaVuSans-62"/>
      <use x="299.072266" xlink:href="#DejaVuSans-65"/>
      <use x="360.595703" xlink:href="#DejaVuSans-72"/>
      <use x="401.708984" xlink:href="#DejaVuSans-20"/>
      <use x="433.496094" xlink:href="#DejaVuSans-6f"/>
      <use x="494.677734" xlink:href="#DejaVuSans-66"/>
      <use x="529.882812" xlink:href="#DejaVuSans-20"/>
      <use x="561.669922" xlink:href="#DejaVuSans-63"/>
      <use x="616.650391" xlink:href="#DejaVuSans-6f"/>
      <use x="677.832031" xlink:href="#DejaVuSans-72"/>
      <use x="718.914062" xlink:href="#DejaVuSans-65"/>
      <use x="780.4375" xlink:href="#DejaVuSans-20"/>
      <use x="812.224609" xlink:href="#DejaVuSans-72"/>
      <use x="853.306641" xlink:href="#DejaVuSans-65"/>
      <use x="914.830078" xlink:href="#DejaVuSans-61"/>
      <use x="976.109375" xlink:href="#DejaVuSans-63"/>
      <use x="1031.089844" xlink:href="#DejaVuSans-74"/>
      <use x="1070.298828" xlink:href="#DejaVuSans-69"/>
      <use x="1098.082031" xlink:href="#DejaVuSans-6f"/>
      <use x="1159.263672" xlink:href="#DejaVuSans-6e"/>
      <use x="1222.642578" xlink:href="#DejaVuSans-73"/>
     </g>
    </g>
   </g>
   <g id="line2d_33">
    <path clip-path="url(#pc1dbe78fa0)" d="M 73.832727 295.488 
L 74.816164 295.488 
L 76.072255 293.677502 
L 76.740116 293.615071 
L 80.494938 293.490209 
L 81.49953 291.742142 
L 87.270883 289.369765 
L 95.089159 289.244903 
L 98.713706 286.747665 
L 111.162072 286.497941 
L 128.58206 286.248217 
L 131.422655 284.375288 
L 142.436102 284.125564 
L 155.672415 283.87584 
L 158.064649 278.631639 
L 166.865939 278.444346 
L 170.021761 276.446555 
L 175.54055 276.321693 
L 177.078192 273.200145 
L 179.8692 273.137714 
L 181.157338 270.265889 
L 185.000168 270.141027 
L 186.098082 266.957048 
L 191.584518 264.022792 
L 210.483463 263.648206 
L 213.13895 259.153177 
L 215.258912 255.969197 
L 217.260652 252.722787 
L 225.545201 252.410632 
L 227.206255 252.28577 
L 231.256529 248.914498 
L 238.620274 248.664774 
L 245.379773 248.477481 
L 246.43676 242.421677 
L 252.406889 242.109523 
L 252.965982 238.613388 
L 253.76241 238.550957 
L 254.592241 235.741564 
L 262.744828 235.179685 
L 263.800268 228.874157 
L 265.440184 228.499572 
L 266.706513 228.437141 
L 267.74121 223.192939 
L 269.322514 219.322219 
L 271.443292 219.134926 
L 271.872636 216.013378 
L 273.487454 215.888516 
L 276.189372 211.955365 
L 286.179277 211.64321 
L 290.194571 208.833817 
L 294.418239 208.646524 
L 296.886936 208.584093 
L 298.594881 204.52608 
L 301.498224 204.338787 
L 303.696009 204.213925 
L 306.064539 200.155912 
L 308.736814 200.093481 
L 310.118371 195.848175 
L 312.397554 195.723314 
L 313.075508 192.601765 
L 314.203707 188.231597 
L 315.014542 188.169166 
L 316.578884 183.86143 
L 319.051676 183.736568 
L 319.957436 180.615019 
L 321.466999 176.182421 
L 323.957621 176.057559 
L 324.376746 167.566947 
L 328.65038 167.379654 
L 330.339904 164.070813 
L 333.918677 163.945951 
L 337.728644 163.446503 
L 339.995579 163.384072 
L 341.768771 160.075231 
L 342.482427 151.834343 
L 343.218245 146.839866 
L 343.849835 146.839866 
L 346.700502 146.527711 
L 348.962839 136.726049 
L 350.428327 136.663618 
L 353.260094 131.60671 
L 359.857609 131.356986 
L 361.459888 123.990132 
L 362.798832 123.927701 
L 364.308671 120.244274 
L 365.716805 120.181843 
L 366.46082 109.381285 
L 371.529587 109.006699 
L 372.702313 103.575205 
L 373.90633 103.387912 
L 377.433876 103.26305 
L 379.07651 95.708903 
L 379.750105 86.219396 
L 380.454714 86.156965 
L 382.733003 82.223814 
L 383.800856 82.161383 
L 384.58583 68.42657 
L 386.070086 68.114415 
L 388.294542 67.989554 
L 389.77572 64.118834 
L 391.299469 63.993972 
L 392.065973 53.755293 
L 398.487273 53.568 
L 398.487273 53.568 
" style="fill:none;stroke:#ff0000;stroke-linecap:square;stroke-width:1.5;"/>
    <defs>
     <path d="M 0 3 
C 0.795609 3 1.55874 2.683901 2.12132 2.12132 
C 2.683901 1.55874 3 0.795609 3 0 
C 3 -0.795609 2.683901 -1.55874 2.12132 -2.12132 
C 1.55874 -2.683901 0.795609 -3 0 -3 
C -0.795609 -3 -1.55874 -2.683901 -2.12132 -2.12132 
C -2.683901 -1.55874 -3 -0.795609 -3 0 
C -3 0.795609 -2.683901 1.55874 -2.12132 2.12132 
C -1.55874 2.683901 -0.795609 3 0 3 
z
" id="m2b576fbbec" style="stroke:#ff0000;"/>
    </defs>
    <g clip-path="url(#pc1dbe78fa0)">
     <use style="fill:#ff0000;stroke:#ff0000;" x="73.832727" xlink:href="#m2b576fbbec" y="295.488"/>
     <use style="fill:#ff0000;stroke:#ff0000;" x="74.604469" xlink:href="#m2b576fbbec" y="295.488"/>
     <use style="fill:#ff0000;stroke:#ff0000;" x="74.816164" xlink:href="#m2b576fbbec" y="295.488"/>
     <use style="fill:#ff0000;stroke:#ff0000;" x="76.072255" xlink:href="#m2b576fbbec" y="293.677502"/>
     <use style="fill:#ff0000;stroke:#ff0000;" x="76.740116" xlink:href="#m2b576fbbec" y="293.615071"/>
     <use style="fill:#ff0000;stroke:#ff0000;" x="78.912357" xlink:href="#m2b576fbbec" y="293.55264"/>
     <use style="fill:#ff0000;stroke:#ff0000;" x="80.494938" xlink:href="#m2b576fbbec" y="293.490209"/>
     <use style="fill:#ff0000;stroke:#ff0000;" x="81.49953" xlink:href="#m2b576fbbec" y="291.742142"/>
     <use style="fill:#ff0000;stroke:#ff0000;" x="87.030305" xlink:href="#m2b576fbbec" y="289.369765"/>
     <use style="fill:#ff0000;stroke:#ff0000;" x="87.270883" xlink:href="#m2b576fbbec" y="289.369765"/>
     <use style="fill:#ff0000;stroke:#ff0000;" x="91.09478" xlink:href="#m2b576fbbec" y="289.307334"/>
     <use style="fill:#ff0000;stroke:#ff0000;" x="95.089159" xlink:href="#m2b576fbbec" y="289.244903"/>
     <use style="fill:#ff0000;stroke:#ff0000;" x="98.713706" xlink:href="#m2b576fbbec" y="286.747665"/>
     <use style="fill:#ff0000;stroke:#ff0000;" x="101.246686" xlink:href="#m2b576fbbec" y="286.685234"/>
     <use style="fill:#ff0000;stroke:#ff0000;" x="104.904148" xlink:href="#m2b576fbbec" y="286.622803"/>
     <use style="fill:#ff0000;stroke:#ff0000;" x="108.601993" xlink:href="#m2b576fbbec" y="286.560372"/>
     <use style="fill:#ff0000;stroke:#ff0000;" x="111.162072" xlink:href="#m2b576fbbec" y="286.497941"/>
     <use style="fill:#ff0000;stroke:#ff0000;" x="117.269782" xlink:href="#m2b576fbbec" y="286.43551"/>
     <use style="fill:#ff0000;stroke:#ff0000;" x="117.821291" xlink:href="#m2b576fbbec" y="286.43551"/>
     <use style="fill:#ff0000;stroke:#ff0000;" x="121.846984" xlink:href="#m2b576fbbec" y="286.373079"/>
     <use style="fill:#ff0000;stroke:#ff0000;" x="126.242222" xlink:href="#m2b576fbbec" y="286.310648"/>
     <use style="fill:#ff0000;stroke:#ff0000;" x="128.58206" xlink:href="#m2b576fbbec" y="286.248217"/>
     <use style="fill:#ff0000;stroke:#ff0000;" x="131.422655" xlink:href="#m2b576fbbec" y="284.375288"/>
     <use style="fill:#ff0000;stroke:#ff0000;" x="133.555624" xlink:href="#m2b576fbbec" y="284.312857"/>
     <use style="fill:#ff0000;stroke:#ff0000;" x="136.086146" xlink:href="#m2b576fbbec" y="284.250426"/>
     <use style="fill:#ff0000;stroke:#ff0000;" x="138.027136" xlink:href="#m2b576fbbec" y="284.187995"/>
     <use style="fill:#ff0000;stroke:#ff0000;" x="142.008701" xlink:href="#m2b576fbbec" y="284.125564"/>
     <use style="fill:#ff0000;stroke:#ff0000;" x="142.225621" xlink:href="#m2b576fbbec" y="284.125564"/>
     <use style="fill:#ff0000;stroke:#ff0000;" x="142.436102" xlink:href="#m2b576fbbec" y="284.125564"/>
     <use style="fill:#ff0000;stroke:#ff0000;" x="147.619096" xlink:href="#m2b576fbbec" y="284.063133"/>
     <use style="fill:#ff0000;stroke:#ff0000;" x="151.350525" xlink:href="#m2b576fbbec" y="284.000702"/>
     <use style="fill:#ff0000;stroke:#ff0000;" x="153.769009" xlink:href="#m2b576fbbec" y="283.938271"/>
     <use style="fill:#ff0000;stroke:#ff0000;" x="155.672415" xlink:href="#m2b576fbbec" y="283.87584"/>
     <use style="fill:#ff0000;stroke:#ff0000;" x="158.064649" xlink:href="#m2b576fbbec" y="278.631639"/>
     <use style="fill:#ff0000;stroke:#ff0000;" x="160.942454" xlink:href="#m2b576fbbec" y="278.569208"/>
     <use style="fill:#ff0000;stroke:#ff0000;" x="164.587033" xlink:href="#m2b576fbbec" y="278.506777"/>
     <use style="fill:#ff0000;stroke:#ff0000;" x="166.865939" xlink:href="#m2b576fbbec" y="278.444346"/>
     <use style="fill:#ff0000;stroke:#ff0000;" x="170.021761" xlink:href="#m2b576fbbec" y="276.446555"/>
     <use style="fill:#ff0000;stroke:#ff0000;" x="173.427503" xlink:href="#m2b576fbbec" y="276.384124"/>
     <use style="fill:#ff0000;stroke:#ff0000;" x="175.54055" xlink:href="#m2b576fbbec" y="276.321693"/>
     <use style="fill:#ff0000;stroke:#ff0000;" x="177.078192" xlink:href="#m2b576fbbec" y="273.200145"/>
     <use style="fill:#ff0000;stroke:#ff0000;" x="179.096463" xlink:href="#m2b576fbbec" y="273.137714"/>
     <use style="fill:#ff0000;stroke:#ff0000;" x="179.8692" xlink:href="#m2b576fbbec" y="273.137714"/>
     <use style="fill:#ff0000;stroke:#ff0000;" x="181.157338" xlink:href="#m2b576fbbec" y="270.265889"/>
     <use style="fill:#ff0000;stroke:#ff0000;" x="183.298803" xlink:href="#m2b576fbbec" y="270.203458"/>
     <use style="fill:#ff0000;stroke:#ff0000;" x="185.000168" xlink:href="#m2b576fbbec" y="270.141027"/>
     <use style="fill:#ff0000;stroke:#ff0000;" x="186.098082" xlink:href="#m2b576fbbec" y="266.957048"/>
     <use style="fill:#ff0000;stroke:#ff0000;" x="191.584518" xlink:href="#m2b576fbbec" y="264.022792"/>
     <use style="fill:#ff0000;stroke:#ff0000;" x="194.964253" xlink:href="#m2b576fbbec" y="263.960361"/>
     <use style="fill:#ff0000;stroke:#ff0000;" x="198.128031" xlink:href="#m2b576fbbec" y="263.89793"/>
     <use style="fill:#ff0000;stroke:#ff0000;" x="201.664506" xlink:href="#m2b576fbbec" y="263.835499"/>
     <use style="fill:#ff0000;stroke:#ff0000;" x="205.299128" xlink:href="#m2b576fbbec" y="263.773068"/>
     <use style="fill:#ff0000;stroke:#ff0000;" x="208.374744" xlink:href="#m2b576fbbec" y="263.710637"/>
     <use style="fill:#ff0000;stroke:#ff0000;" x="210.483463" xlink:href="#m2b576fbbec" y="263.648206"/>
     <use style="fill:#ff0000;stroke:#ff0000;" x="213.13895" xlink:href="#m2b576fbbec" y="259.153177"/>
     <use style="fill:#ff0000;stroke:#ff0000;" x="215.258912" xlink:href="#m2b576fbbec" y="255.969197"/>
     <use style="fill:#ff0000;stroke:#ff0000;" x="217.260652" xlink:href="#m2b576fbbec" y="252.722787"/>
     <use style="fill:#ff0000;stroke:#ff0000;" x="219.37426" xlink:href="#m2b576fbbec" y="252.660356"/>
     <use style="fill:#ff0000;stroke:#ff0000;" x="220.535559" xlink:href="#m2b576fbbec" y="252.597925"/>
     <use style="fill:#ff0000;stroke:#ff0000;" x="222.599518" xlink:href="#m2b576fbbec" y="252.535494"/>
     <use style="fill:#ff0000;stroke:#ff0000;" x="223.760103" xlink:href="#m2b576fbbec" y="252.473063"/>
     <use style="fill:#ff0000;stroke:#ff0000;" x="225.545201" xlink:href="#m2b576fbbec" y="252.410632"/>
     <use style="fill:#ff0000;stroke:#ff0000;" x="227.206255" xlink:href="#m2b576fbbec" y="252.28577"/>
     <use style="fill:#ff0000;stroke:#ff0000;" x="231.256529" xlink:href="#m2b576fbbec" y="248.914498"/>
     <use style="fill:#ff0000;stroke:#ff0000;" x="234.012896" xlink:href="#m2b576fbbec" y="248.789636"/>
     <use style="fill:#ff0000;stroke:#ff0000;" x="236.910944" xlink:href="#m2b576fbbec" y="248.727205"/>
     <use style="fill:#ff0000;stroke:#ff0000;" x="238.620274" xlink:href="#m2b576fbbec" y="248.664774"/>
     <use style="fill:#ff0000;stroke:#ff0000;" x="241.977286" xlink:href="#m2b576fbbec" y="248.602343"/>
     <use style="fill:#ff0000;stroke:#ff0000;" x="243.806575" xlink:href="#m2b576fbbec" y="248.539912"/>
     <use style="fill:#ff0000;stroke:#ff0000;" x="245.379773" xlink:href="#m2b576fbbec" y="248.477481"/>
     <use style="fill:#ff0000;stroke:#ff0000;" x="246.43676" xlink:href="#m2b576fbbec" y="242.421677"/>
     <use style="fill:#ff0000;stroke:#ff0000;" x="247.711874" xlink:href="#m2b576fbbec" y="242.359246"/>
     <use style="fill:#ff0000;stroke:#ff0000;" x="250.792244" xlink:href="#m2b576fbbec" y="242.296815"/>
     <use style="fill:#ff0000;stroke:#ff0000;" x="251.586815" xlink:href="#m2b576fbbec" y="242.171954"/>
     <use style="fill:#ff0000;stroke:#ff0000;" x="252.406889" xlink:href="#m2b576fbbec" y="242.109523"/>
     <use style="fill:#ff0000;stroke:#ff0000;" x="252.965982" xlink:href="#m2b576fbbec" y="238.613388"/>
     <use style="fill:#ff0000;stroke:#ff0000;" x="253.76241" xlink:href="#m2b576fbbec" y="238.550957"/>
     <use style="fill:#ff0000;stroke:#ff0000;" x="254.592241" xlink:href="#m2b576fbbec" y="235.741564"/>
     <use style="fill:#ff0000;stroke:#ff0000;" x="256.260178" xlink:href="#m2b576fbbec" y="235.616702"/>
     <use style="fill:#ff0000;stroke:#ff0000;" x="257.91343" xlink:href="#m2b576fbbec" y="235.554271"/>
     <use style="fill:#ff0000;stroke:#ff0000;" x="259.25443" xlink:href="#m2b576fbbec" y="235.429409"/>
     <use style="fill:#ff0000;stroke:#ff0000;" x="260.15209" xlink:href="#m2b576fbbec" y="235.366978"/>
     <use style="fill:#ff0000;stroke:#ff0000;" x="261.182442" xlink:href="#m2b576fbbec" y="235.242116"/>
     <use style="fill:#ff0000;stroke:#ff0000;" x="262.744828" xlink:href="#m2b576fbbec" y="235.179685"/>
     <use style="fill:#ff0000;stroke:#ff0000;" x="263.800268" xlink:href="#m2b576fbbec" y="228.874157"/>
     <use style="fill:#ff0000;stroke:#ff0000;" x="265.440184" xlink:href="#m2b576fbbec" y="228.499572"/>
     <use style="fill:#ff0000;stroke:#ff0000;" x="266.706513" xlink:href="#m2b576fbbec" y="228.437141"/>
     <use style="fill:#ff0000;stroke:#ff0000;" x="267.74121" xlink:href="#m2b576fbbec" y="223.192939"/>
     <use style="fill:#ff0000;stroke:#ff0000;" x="269.322514" xlink:href="#m2b576fbbec" y="219.322219"/>
     <use style="fill:#ff0000;stroke:#ff0000;" x="270.42078" xlink:href="#m2b576fbbec" y="219.259788"/>
     <use style="fill:#ff0000;stroke:#ff0000;" x="271.443292" xlink:href="#m2b576fbbec" y="219.134926"/>
     <use style="fill:#ff0000;stroke:#ff0000;" x="271.872636" xlink:href="#m2b576fbbec" y="216.013378"/>
     <use style="fill:#ff0000;stroke:#ff0000;" x="273.487454" xlink:href="#m2b576fbbec" y="215.888516"/>
     <use style="fill:#ff0000;stroke:#ff0000;" x="276.189372" xlink:href="#m2b576fbbec" y="211.955365"/>
     <use style="fill:#ff0000;stroke:#ff0000;" x="278.786261" xlink:href="#m2b576fbbec" y="211.892934"/>
     <use style="fill:#ff0000;stroke:#ff0000;" x="280.169349" xlink:href="#m2b576fbbec" y="211.830503"/>
     <use style="fill:#ff0000;stroke:#ff0000;" x="284.469263" xlink:href="#m2b576fbbec" y="211.705641"/>
     <use style="fill:#ff0000;stroke:#ff0000;" x="286.179277" xlink:href="#m2b576fbbec" y="211.64321"/>
     <use style="fill:#ff0000;stroke:#ff0000;" x="290.194571" xlink:href="#m2b576fbbec" y="208.833817"/>
     <use style="fill:#ff0000;stroke:#ff0000;" x="292.013586" xlink:href="#m2b576fbbec" y="208.708955"/>
     <use style="fill:#ff0000;stroke:#ff0000;" x="294.418239" xlink:href="#m2b576fbbec" y="208.646524"/>
     <use style="fill:#ff0000;stroke:#ff0000;" x="296.886936" xlink:href="#m2b576fbbec" y="208.584093"/>
     <use style="fill:#ff0000;stroke:#ff0000;" x="298.594881" xlink:href="#m2b576fbbec" y="204.52608"/>
     <use style="fill:#ff0000;stroke:#ff0000;" x="300.01198" xlink:href="#m2b576fbbec" y="204.401218"/>
     <use style="fill:#ff0000;stroke:#ff0000;" x="301.498224" xlink:href="#m2b576fbbec" y="204.338787"/>
     <use style="fill:#ff0000;stroke:#ff0000;" x="303.696009" xlink:href="#m2b576fbbec" y="204.213925"/>
     <use style="fill:#ff0000;stroke:#ff0000;" x="306.064539" xlink:href="#m2b576fbbec" y="200.155912"/>
     <use style="fill:#ff0000;stroke:#ff0000;" x="308.158855" xlink:href="#m2b576fbbec" y="200.093481"/>
     <use style="fill:#ff0000;stroke:#ff0000;" x="308.5357" xlink:href="#m2b576fbbec" y="200.093481"/>
     <use style="fill:#ff0000;stroke:#ff0000;" x="308.736814" xlink:href="#m2b576fbbec" y="200.093481"/>
     <use style="fill:#ff0000;stroke:#ff0000;" x="310.118371" xlink:href="#m2b576fbbec" y="195.848175"/>
     <use style="fill:#ff0000;stroke:#ff0000;" x="311.246618" xlink:href="#m2b576fbbec" y="195.785745"/>
     <use style="fill:#ff0000;stroke:#ff0000;" x="312.397554" xlink:href="#m2b576fbbec" y="195.723314"/>
     <use style="fill:#ff0000;stroke:#ff0000;" x="313.075508" xlink:href="#m2b576fbbec" y="192.601765"/>
     <use style="fill:#ff0000;stroke:#ff0000;" x="314.203707" xlink:href="#m2b576fbbec" y="188.231597"/>
     <use style="fill:#ff0000;stroke:#ff0000;" x="315.014542" xlink:href="#m2b576fbbec" y="188.169166"/>
     <use style="fill:#ff0000;stroke:#ff0000;" x="316.578884" xlink:href="#m2b576fbbec" y="183.86143"/>
     <use style="fill:#ff0000;stroke:#ff0000;" x="318.116387" xlink:href="#m2b576fbbec" y="183.798999"/>
     <use style="fill:#ff0000;stroke:#ff0000;" x="319.051676" xlink:href="#m2b576fbbec" y="183.736568"/>
     <use style="fill:#ff0000;stroke:#ff0000;" x="319.957436" xlink:href="#m2b576fbbec" y="180.615019"/>
     <use style="fill:#ff0000;stroke:#ff0000;" x="321.466999" xlink:href="#m2b576fbbec" y="176.182421"/>
     <use style="fill:#ff0000;stroke:#ff0000;" x="322.989562" xlink:href="#m2b576fbbec" y="176.11999"/>
     <use style="fill:#ff0000;stroke:#ff0000;" x="323.957621" xlink:href="#m2b576fbbec" y="176.057559"/>
     <use style="fill:#ff0000;stroke:#ff0000;" x="324.376746" xlink:href="#m2b576fbbec" y="167.566947"/>
     <use style="fill:#ff0000;stroke:#ff0000;" x="325.995052" xlink:href="#m2b576fbbec" y="167.504516"/>
     <use style="fill:#ff0000;stroke:#ff0000;" x="327.316678" xlink:href="#m2b576fbbec" y="167.442085"/>
     <use style="fill:#ff0000;stroke:#ff0000;" x="328.65038" xlink:href="#m2b576fbbec" y="167.379654"/>
     <use style="fill:#ff0000;stroke:#ff0000;" x="330.339904" xlink:href="#m2b576fbbec" y="164.070813"/>
     <use style="fill:#ff0000;stroke:#ff0000;" x="332.464349" xlink:href="#m2b576fbbec" y="164.008382"/>
     <use style="fill:#ff0000;stroke:#ff0000;" x="333.918677" xlink:href="#m2b576fbbec" y="163.945951"/>
     <use style="fill:#ff0000;stroke:#ff0000;" x="335.000775" xlink:href="#m2b576fbbec" y="163.821089"/>
     <use style="fill:#ff0000;stroke:#ff0000;" x="336.25342" xlink:href="#m2b576fbbec" y="163.633796"/>
     <use style="fill:#ff0000;stroke:#ff0000;" x="337.728644" xlink:href="#m2b576fbbec" y="163.446503"/>
     <use style="fill:#ff0000;stroke:#ff0000;" x="339.995579" xlink:href="#m2b576fbbec" y="163.384072"/>
     <use style="fill:#ff0000;stroke:#ff0000;" x="341.768771" xlink:href="#m2b576fbbec" y="160.075231"/>
     <use style="fill:#ff0000;stroke:#ff0000;" x="342.482427" xlink:href="#m2b576fbbec" y="151.834343"/>
     <use style="fill:#ff0000;stroke:#ff0000;" x="343.218245" xlink:href="#m2b576fbbec" y="146.839866"/>
     <use style="fill:#ff0000;stroke:#ff0000;" x="343.582349" xlink:href="#m2b576fbbec" y="146.839866"/>
     <use style="fill:#ff0000;stroke:#ff0000;" x="343.849835" xlink:href="#m2b576fbbec" y="146.839866"/>
     <use style="fill:#ff0000;stroke:#ff0000;" x="345.468904" xlink:href="#m2b576fbbec" y="146.715004"/>
     <use style="fill:#ff0000;stroke:#ff0000;" x="346.700502" xlink:href="#m2b576fbbec" y="146.527711"/>
     <use style="fill:#ff0000;stroke:#ff0000;" x="348.962839" xlink:href="#m2b576fbbec" y="136.726049"/>
     <use style="fill:#ff0000;stroke:#ff0000;" x="350.428327" xlink:href="#m2b576fbbec" y="136.663618"/>
     <use style="fill:#ff0000;stroke:#ff0000;" x="353.260094" xlink:href="#m2b576fbbec" y="131.60671"/>
     <use style="fill:#ff0000;stroke:#ff0000;" x="354.898046" xlink:href="#m2b576fbbec" y="131.544279"/>
     <use style="fill:#ff0000;stroke:#ff0000;" x="356.792416" xlink:href="#m2b576fbbec" y="131.481848"/>
     <use style="fill:#ff0000;stroke:#ff0000;" x="358.529844" xlink:href="#m2b576fbbec" y="131.419417"/>
     <use style="fill:#ff0000;stroke:#ff0000;" x="359.857609" xlink:href="#m2b576fbbec" y="131.356986"/>
     <use style="fill:#ff0000;stroke:#ff0000;" x="361.459888" xlink:href="#m2b576fbbec" y="123.990132"/>
     <use style="fill:#ff0000;stroke:#ff0000;" x="362.798832" xlink:href="#m2b576fbbec" y="123.927701"/>
     <use style="fill:#ff0000;stroke:#ff0000;" x="364.308671" xlink:href="#m2b576fbbec" y="120.244274"/>
     <use style="fill:#ff0000;stroke:#ff0000;" x="365.716805" xlink:href="#m2b576fbbec" y="120.181843"/>
     <use style="fill:#ff0000;stroke:#ff0000;" x="366.46082" xlink:href="#m2b576fbbec" y="109.381285"/>
     <use style="fill:#ff0000;stroke:#ff0000;" x="367.765349" xlink:href="#m2b576fbbec" y="109.256423"/>
     <use style="fill:#ff0000;stroke:#ff0000;" x="369.346182" xlink:href="#m2b576fbbec" y="109.131561"/>
     <use style="fill:#ff0000;stroke:#ff0000;" x="370.604878" xlink:href="#m2b576fbbec" y="109.06913"/>
     <use style="fill:#ff0000;stroke:#ff0000;" x="371.529587" xlink:href="#m2b576fbbec" y="109.006699"/>
     <use style="fill:#ff0000;stroke:#ff0000;" x="372.702313" xlink:href="#m2b576fbbec" y="103.575205"/>
     <use style="fill:#ff0000;stroke:#ff0000;" x="373.90633" xlink:href="#m2b576fbbec" y="103.387912"/>
     <use style="fill:#ff0000;stroke:#ff0000;" x="376.27589" xlink:href="#m2b576fbbec" y="103.325481"/>
     <use style="fill:#ff0000;stroke:#ff0000;" x="377.433876" xlink:href="#m2b576fbbec" y="103.26305"/>
     <use style="fill:#ff0000;stroke:#ff0000;" x="379.07651" xlink:href="#m2b576fbbec" y="95.708903"/>
     <use style="fill:#ff0000;stroke:#ff0000;" x="379.750105" xlink:href="#m2b576fbbec" y="86.219396"/>
     <use style="fill:#ff0000;stroke:#ff0000;" x="380.454714" xlink:href="#m2b576fbbec" y="86.156965"/>
     <use style="fill:#ff0000;stroke:#ff0000;" x="382.733003" xlink:href="#m2b576fbbec" y="82.223814"/>
     <use style="fill:#ff0000;stroke:#ff0000;" x="383.800856" xlink:href="#m2b576fbbec" y="82.161383"/>
     <use style="fill:#ff0000;stroke:#ff0000;" x="384.58583" xlink:href="#m2b576fbbec" y="68.42657"/>
     <use style="fill:#ff0000;stroke:#ff0000;" x="386.070086" xlink:href="#m2b576fbbec" y="68.114415"/>
     <use style="fill:#ff0000;stroke:#ff0000;" x="387.319908" xlink:href="#m2b576fbbec" y="68.051985"/>
     <use style="fill:#ff0000;stroke:#ff0000;" x="388.294542" xlink:href="#m2b576fbbec" y="67.989554"/>
     <use style="fill:#ff0000;stroke:#ff0000;" x="389.77572" xlink:href="#m2b576fbbec" y="64.118834"/>
     <use style="fill:#ff0000;stroke:#ff0000;" x="391.299469" xlink:href="#m2b576fbbec" y="63.993972"/>
     <use style="fill:#ff0000;stroke:#ff0000;" x="392.065973" xlink:href="#m2b576fbbec" y="53.755293"/>
     <use style="fill:#ff0000;stroke:#ff0000;" x="393.689231" xlink:href="#m2b576fbbec" y="53.692862"/>
     <use style="fill:#ff0000;stroke:#ff0000;" x="395.095865" xlink:href="#m2b576fbbec" y="53.630431"/>
     <use style="fill:#ff0000;stroke:#ff0000;" x="398.487273" xlink:href="#m2b576fbbec" y="53.568"/>
    </g>
   </g>
   <g id="patch_7">
    <path d="M 57.6 307.584 
L 57.6 41.472 
" style="fill:none;stroke:#000000;stroke-linecap:square;stroke-linejoin:miter;stroke-width:0.8;"/>
   </g>
   <g id="patch_8">
    <path d="M 414.72 307.584 
L 414.72 41.472 
" style="fill:none;stroke:#000000;stroke-linecap:square;stroke-linejoin:miter;stroke-width:0.8;"/>
   </g>
   <g id="patch_9">
    <path d="M 57.6 307.584 
L 414.72 307.584 
" style="fill:none;stroke:#000000;stroke-linecap:square;stroke-linejoin:miter;stroke-width:0.8;"/>
   </g>
   <g id="patch_10">
    <path d="M 57.6 41.472 
L 414.72 41.472 
" style="fill:none;stroke:#000000;stroke-linecap:square;stroke-linejoin:miter;stroke-width:0.8;"/>
   </g>
  </g>
 </g>
 <defs>
  <clipPath id="pc1dbe78fa0">
   <rect height="266.112" width="357.12" x="57.6" y="41.472"/>
  </clipPath>
 </defs>
</svg>
