<?xml version="1.0" encoding="utf-8" standalone="no"?>
<!DOCTYPE svg PUBLIC "-//W3C//DTD SVG 1.1//EN"
  "http://www.w3.org/Graphics/SVG/1.1/DTD/svg11.dtd">
<!-- Created with matplotlib (http://matplotlib.org/) -->
<svg height="345.6pt" version="1.1" viewBox="0 0 460.8 345.6" width="460.8pt" xmlns="http://www.w3.org/2000/svg" xmlns:xlink="http://www.w3.org/1999/xlink">
 <defs>
  <style type="text/css">
*{stroke-linecap:butt;stroke-linejoin:round;}
  </style>
 </defs>
 <g id="figure_1">
  <g id="patch_1">
   <path d="M 0 345.6 
L 460.8 345.6 
L 460.8 0 
L 0 0 
z
" style="fill:#ffffff;"/>
  </g>
  <g id="axes_1">
   <g id="patch_2">
    <path d="M 57.6 307.584 
L 414.72 307.584 
L 414.72 41.472 
L 57.6 41.472 
z
" style="fill:#ffffff;"/>
   </g>
   <g id="matplotlib.axis_1">
    <g id="xtick_1">
     <g id="line2d_1">
      <defs>
       <path d="M 0 0 
L 0 3.5 
" id="mcab614f6e4" style="stroke:#000000;stroke-width:0.8;"/>
      </defs>
      <g>
       <use style="stroke:#000000;stroke-width:0.8;" x="157.642745" xlink:href="#mcab614f6e4" y="307.584"/>
      </g>
     </g>
     <g id="text_1">
      <!-- $\mathdefault{10^{4}}$ -->
      <defs>
       <path d="M 12.40625 8.296875 
L 28.515625 8.296875 
L 28.515625 63.921875 
L 10.984375 60.40625 
L 10.984375 69.390625 
L 28.421875 72.90625 
L 38.28125 72.90625 
L 38.28125 8.296875 
L 54.390625 8.296875 
L 54.390625 0 
L 12.40625 0 
z
" id="DejaVuSans-31"/>
       <path d="M 31.78125 66.40625 
Q 24.171875 66.40625 20.328125 58.90625 
Q 16.5 51.421875 16.5 36.375 
Q 16.5 21.390625 20.328125 13.890625 
Q 24.171875 6.390625 31.78125 6.390625 
Q 39.453125 6.390625 43.28125 13.890625 
Q 47.125 21.390625 47.125 36.375 
Q 47.125 51.421875 43.28125 58.90625 
Q 39.453125 66.40625 31.78125 66.40625 
z
M 31.78125 74.21875 
Q 44.046875 74.21875 50.515625 64.515625 
Q 56.984375 54.828125 56.984375 36.375 
Q 56.984375 17.96875 50.515625 8.265625 
Q 44.046875 -1.421875 31.78125 -1.421875 
Q 19.53125 -1.421875 13.0625 8.265625 
Q 6.59375 17.96875 6.59375 36.375 
Q 6.59375 54.828125 13.0625 64.515625 
Q 19.53125 74.21875 31.78125 74.21875 
z
" id="DejaVuSans-30"/>
       <path d="M 37.796875 64.3125 
L 12.890625 25.390625 
L 37.796875 25.390625 
z
M 35.203125 72.90625 
L 47.609375 72.90625 
L 47.609375 25.390625 
L 58.015625 25.390625 
L 58.015625 17.1875 
L 47.609375 17.1875 
L 47.609375 0 
L 37.796875 0 
L 37.796875 17.1875 
L 4.890625 17.1875 
L 4.890625 26.703125 
z
" id="DejaVuSans-34"/>
      </defs>
      <g transform="translate(148.842745 322.182437)scale(0.1 -0.1)">
       <use transform="translate(0 0.684375)" xlink:href="#DejaVuSans-31"/>
       <use transform="translate(63.623047 0.684375)" xlink:href="#DejaVuSans-30"/>
       <use transform="translate(128.203125 38.965625)scale(0.7)" xlink:href="#DejaVuSans-34"/>
      </g>
     </g>
    </g>
    <g id="xtick_2">
     <g id="line2d_2">
      <g>
       <use style="stroke:#000000;stroke-width:0.8;" x="395.905863" xlink:href="#mcab614f6e4" y="307.584"/>
      </g>
     </g>
     <g id="text_2">
      <!-- $\mathdefault{10^{5}}$ -->
      <defs>
       <path d="M 10.796875 72.90625 
L 49.515625 72.90625 
L 49.515625 64.59375 
L 19.828125 64.59375 
L 19.828125 46.734375 
Q 21.96875 47.46875 24.109375 47.828125 
Q 26.265625 48.1875 28.421875 48.1875 
Q 40.625 48.1875 47.75 41.5 
Q 54.890625 34.8125 54.890625 23.390625 
Q 54.890625 11.625 47.5625 5.09375 
Q 40.234375 -1.421875 26.90625 -1.421875 
Q 22.3125 -1.421875 17.546875 -0.640625 
Q 12.796875 0.140625 7.71875 1.703125 
L 7.71875 11.625 
Q 12.109375 9.234375 16.796875 8.0625 
Q 21.484375 6.890625 26.703125 6.890625 
Q 35.15625 6.890625 40.078125 11.328125 
Q 45.015625 15.765625 45.015625 23.390625 
Q 45.015625 31 40.078125 35.4375 
Q 35.15625 39.890625 26.703125 39.890625 
Q 22.75 39.890625 18.8125 39.015625 
Q 14.890625 38.140625 10.796875 36.28125 
z
" id="DejaVuSans-35"/>
      </defs>
      <g transform="translate(387.105863 322.182437)scale(0.1 -0.1)">
       <use transform="translate(0 0.684375)" xlink:href="#DejaVuSans-31"/>
       <use transform="translate(63.623047 0.684375)" xlink:href="#DejaVuSans-30"/>
       <use transform="translate(128.203125 38.965625)scale(0.7)" xlink:href="#DejaVuSans-35"/>
      </g>
     </g>
    </g>
    <g id="xtick_3">
     <g id="line2d_3">
      <defs>
       <path d="M 0 0 
L 0 2 
" id="m77ae1ec0c6" style="stroke:#000000;stroke-width:0.6;"/>
      </defs>
      <g>
       <use style="stroke:#000000;stroke-width:0.6;" x="62.828317" xlink:href="#m77ae1ec0c6" y="307.584"/>
      </g>
     </g>
    </g>
    <g id="xtick_4">
     <g id="line2d_4">
      <g>
       <use style="stroke:#000000;stroke-width:0.6;" x="85.918399" xlink:href="#m77ae1ec0c6" y="307.584"/>
      </g>
     </g>
    </g>
    <g id="xtick_5">
     <g id="line2d_5">
      <g>
       <use style="stroke:#000000;stroke-width:0.6;" x="104.78437" xlink:href="#m77ae1ec0c6" y="307.584"/>
      </g>
     </g>
    </g>
    <g id="xtick_6">
     <g id="line2d_6">
      <g>
       <use style="stroke:#000000;stroke-width:0.6;" x="120.735321" xlink:href="#m77ae1ec0c6" y="307.584"/>
      </g>
     </g>
    </g>
    <g id="xtick_7">
     <g id="line2d_7">
      <g>
       <use style="stroke:#000000;stroke-width:0.6;" x="134.552663" xlink:href="#m77ae1ec0c6" y="307.584"/>
      </g>
     </g>
    </g>
    <g id="xtick_8">
     <g id="line2d_8">
      <g>
       <use style="stroke:#000000;stroke-width:0.6;" x="146.740422" xlink:href="#m77ae1ec0c6" y="307.584"/>
      </g>
     </g>
    </g>
    <g id="xtick_9">
     <g id="line2d_9">
      <g>
       <use style="stroke:#000000;stroke-width:0.6;" x="229.36709" xlink:href="#m77ae1ec0c6" y="307.584"/>
      </g>
     </g>
    </g>
    <g id="xtick_10">
     <g id="line2d_10">
      <g>
       <use style="stroke:#000000;stroke-width:0.6;" x="271.323142" xlink:href="#m77ae1ec0c6" y="307.584"/>
      </g>
     </g>
    </g>
    <g id="xtick_11">
     <g id="line2d_11">
      <g>
       <use style="stroke:#000000;stroke-width:0.6;" x="301.091435" xlink:href="#m77ae1ec0c6" y="307.584"/>
      </g>
     </g>
    </g>
    <g id="xtick_12">
     <g id="line2d_12">
      <g>
       <use style="stroke:#000000;stroke-width:0.6;" x="324.181517" xlink:href="#m77ae1ec0c6" y="307.584"/>
      </g>
     </g>
    </g>
    <g id="xtick_13">
     <g id="line2d_13">
      <g>
       <use style="stroke:#000000;stroke-width:0.6;" x="343.047488" xlink:href="#m77ae1ec0c6" y="307.584"/>
      </g>
     </g>
    </g>
    <g id="xtick_14">
     <g id="line2d_14">
      <g>
       <use style="stroke:#000000;stroke-width:0.6;" x="358.998439" xlink:href="#m77ae1ec0c6" y="307.584"/>
      </g>
     </g>
    </g>
    <g id="xtick_15">
     <g id="line2d_15">
      <g>
       <use style="stroke:#000000;stroke-width:0.6;" x="372.815781" xlink:href="#m77ae1ec0c6" y="307.584"/>
      </g>
     </g>
    </g>
    <g id="xtick_16">
     <g id="line2d_16">
      <g>
       <use style="stroke:#000000;stroke-width:0.6;" x="385.00354" xlink:href="#m77ae1ec0c6" y="307.584"/>
      </g>
     </g>
    </g>
    <g id="text_3">
     <!-- Execution time (s) -->
     <defs>
      <path d="M 9.8125 72.90625 
L 55.90625 72.90625 
L 55.90625 64.59375 
L 19.671875 64.59375 
L 19.671875 43.015625 
L 54.390625 43.015625 
L 54.390625 34.71875 
L 19.671875 34.71875 
L 19.671875 8.296875 
L 56.78125 8.296875 
L 56.78125 0 
L 9.8125 0 
z
" id="DejaVuSans-45"/>
      <path d="M 54.890625 54.6875 
L 35.109375 28.078125 
L 55.90625 0 
L 45.3125 0 
L 29.390625 21.484375 
L 13.484375 0 
L 2.875 0 
L 24.125 28.609375 
L 4.6875 54.6875 
L 15.28125 54.6875 
L 29.78125 35.203125 
L 44.28125 54.6875 
z
" id="DejaVuSans-78"/>
      <path d="M 56.203125 29.59375 
L 56.203125 25.203125 
L 14.890625 25.203125 
Q 15.484375 15.921875 20.484375 11.0625 
Q 25.484375 6.203125 34.421875 6.203125 
Q 39.59375 6.203125 44.453125 7.46875 
Q 49.3125 8.734375 54.109375 11.28125 
L 54.109375 2.78125 
Q 49.265625 0.734375 44.1875 -0.34375 
Q 39.109375 -1.421875 33.890625 -1.421875 
Q 20.796875 -1.421875 13.15625 6.1875 
Q 5.515625 13.8125 5.515625 26.8125 
Q 5.515625 40.234375 12.765625 48.109375 
Q 20.015625 56 32.328125 56 
Q 43.359375 56 49.78125 48.890625 
Q 56.203125 41.796875 56.203125 29.59375 
z
M 47.21875 32.234375 
Q 47.125 39.59375 43.09375 43.984375 
Q 39.0625 48.390625 32.421875 48.390625 
Q 24.90625 48.390625 20.390625 44.140625 
Q 15.875 39.890625 15.1875 32.171875 
z
" id="DejaVuSans-65"/>
      <path d="M 48.78125 52.59375 
L 48.78125 44.1875 
Q 44.96875 46.296875 41.140625 47.34375 
Q 37.3125 48.390625 33.40625 48.390625 
Q 24.65625 48.390625 19.8125 42.84375 
Q 14.984375 37.3125 14.984375 27.296875 
Q 14.984375 17.28125 19.8125 11.734375 
Q 24.65625 6.203125 33.40625 6.203125 
Q 37.3125 6.203125 41.140625 7.25 
Q 44.96875 8.296875 48.78125 10.40625 
L 48.78125 2.09375 
Q 45.015625 0.34375 40.984375 -0.53125 
Q 36.96875 -1.421875 32.421875 -1.421875 
Q 20.0625 -1.421875 12.78125 6.34375 
Q 5.515625 14.109375 5.515625 27.296875 
Q 5.515625 40.671875 12.859375 48.328125 
Q 20.21875 56 33.015625 56 
Q 37.15625 56 41.109375 55.140625 
Q 45.0625 54.296875 48.78125 52.59375 
z
" id="DejaVuSans-63"/>
      <path d="M 8.5 21.578125 
L 8.5 54.6875 
L 17.484375 54.6875 
L 17.484375 21.921875 
Q 17.484375 14.15625 20.5 10.265625 
Q 23.53125 6.390625 29.59375 6.390625 
Q 36.859375 6.390625 41.078125 11.03125 
Q 45.3125 15.671875 45.3125 23.6875 
L 45.3125 54.6875 
L 54.296875 54.6875 
L 54.296875 0 
L 45.3125 0 
L 45.3125 8.40625 
Q 42.046875 3.421875 37.71875 1 
Q 33.40625 -1.421875 27.6875 -1.421875 
Q 18.265625 -1.421875 13.375 4.4375 
Q 8.5 10.296875 8.5 21.578125 
z
M 31.109375 56 
z
" id="DejaVuSans-75"/>
      <path d="M 18.3125 70.21875 
L 18.3125 54.6875 
L 36.8125 54.6875 
L 36.8125 47.703125 
L 18.3125 47.703125 
L 18.3125 18.015625 
Q 18.3125 11.328125 20.140625 9.421875 
Q 21.96875 7.515625 27.59375 7.515625 
L 36.8125 7.515625 
L 36.8125 0 
L 27.59375 0 
Q 17.1875 0 13.234375 3.875 
Q 9.28125 7.765625 9.28125 18.015625 
L 9.28125 47.703125 
L 2.6875 47.703125 
L 2.6875 54.6875 
L 9.28125 54.6875 
L 9.28125 70.21875 
z
" id="DejaVuSans-74"/>
      <path d="M 9.421875 54.6875 
L 18.40625 54.6875 
L 18.40625 0 
L 9.421875 0 
z
M 9.421875 75.984375 
L 18.40625 75.984375 
L 18.40625 64.59375 
L 9.421875 64.59375 
z
" id="DejaVuSans-69"/>
      <path d="M 30.609375 48.390625 
Q 23.390625 48.390625 19.1875 42.75 
Q 14.984375 37.109375 14.984375 27.296875 
Q 14.984375 17.484375 19.15625 11.84375 
Q 23.34375 6.203125 30.609375 6.203125 
Q 37.796875 6.203125 41.984375 11.859375 
Q 46.1875 17.53125 46.1875 27.296875 
Q 46.1875 37.015625 41.984375 42.703125 
Q 37.796875 48.390625 30.609375 48.390625 
z
M 30.609375 56 
Q 42.328125 56 49.015625 48.375 
Q 55.71875 40.765625 55.71875 27.296875 
Q 55.71875 13.875 49.015625 6.21875 
Q 42.328125 -1.421875 30.609375 -1.421875 
Q 18.84375 -1.421875 12.171875 6.21875 
Q 5.515625 13.875 5.515625 27.296875 
Q 5.515625 40.765625 12.171875 48.375 
Q 18.84375 56 30.609375 56 
z
" id="DejaVuSans-6f"/>
      <path d="M 54.890625 33.015625 
L 54.890625 0 
L 45.90625 0 
L 45.90625 32.71875 
Q 45.90625 40.484375 42.875 44.328125 
Q 39.84375 48.1875 33.796875 48.1875 
Q 26.515625 48.1875 22.3125 43.546875 
Q 18.109375 38.921875 18.109375 30.90625 
L 18.109375 0 
L 9.078125 0 
L 9.078125 54.6875 
L 18.109375 54.6875 
L 18.109375 46.1875 
Q 21.34375 51.125 25.703125 53.5625 
Q 30.078125 56 35.796875 56 
Q 45.21875 56 50.046875 50.171875 
Q 54.890625 44.34375 54.890625 33.015625 
z
" id="DejaVuSans-6e"/>
      <path id="DejaVuSans-20"/>
      <path d="M 52 44.1875 
Q 55.375 50.25 60.0625 53.125 
Q 64.75 56 71.09375 56 
Q 79.640625 56 84.28125 50.015625 
Q 88.921875 44.046875 88.921875 33.015625 
L 88.921875 0 
L 79.890625 0 
L 79.890625 32.71875 
Q 79.890625 40.578125 77.09375 44.375 
Q 74.3125 48.1875 68.609375 48.1875 
Q 61.625 48.1875 57.5625 43.546875 
Q 53.515625 38.921875 53.515625 30.90625 
L 53.515625 0 
L 44.484375 0 
L 44.484375 32.71875 
Q 44.484375 40.625 41.703125 44.40625 
Q 38.921875 48.1875 33.109375 48.1875 
Q 26.21875 48.1875 22.15625 43.53125 
Q 18.109375 38.875 18.109375 30.90625 
L 18.109375 0 
L 9.078125 0 
L 9.078125 54.6875 
L 18.109375 54.6875 
L 18.109375 46.1875 
Q 21.1875 51.21875 25.484375 53.609375 
Q 29.78125 56 35.6875 56 
Q 41.65625 56 45.828125 52.96875 
Q 50 49.953125 52 44.1875 
z
" id="DejaVuSans-6d"/>
      <path d="M 31 75.875 
Q 24.46875 64.65625 21.28125 53.65625 
Q 18.109375 42.671875 18.109375 31.390625 
Q 18.109375 20.125 21.3125 9.0625 
Q 24.515625 -2 31 -13.1875 
L 23.1875 -13.1875 
Q 15.875 -1.703125 12.234375 9.375 
Q 8.59375 20.453125 8.59375 31.390625 
Q 8.59375 42.28125 12.203125 53.3125 
Q 15.828125 64.359375 23.1875 75.875 
z
" id="DejaVuSans-28"/>
      <path d="M 44.28125 53.078125 
L 44.28125 44.578125 
Q 40.484375 46.53125 36.375 47.5 
Q 32.28125 48.484375 27.875 48.484375 
Q 21.1875 48.484375 17.84375 46.4375 
Q 14.5 44.390625 14.5 40.28125 
Q 14.5 37.15625 16.890625 35.375 
Q 19.28125 33.59375 26.515625 31.984375 
L 29.59375 31.296875 
Q 39.15625 29.25 43.1875 25.515625 
Q 47.21875 21.78125 47.21875 15.09375 
Q 47.21875 7.46875 41.1875 3.015625 
Q 35.15625 -1.421875 24.609375 -1.421875 
Q 20.21875 -1.421875 15.453125 -0.5625 
Q 10.6875 0.296875 5.421875 2 
L 5.421875 11.28125 
Q 10.40625 8.6875 15.234375 7.390625 
Q 20.0625 6.109375 24.8125 6.109375 
Q 31.15625 6.109375 34.5625 8.28125 
Q 37.984375 10.453125 37.984375 14.40625 
Q 37.984375 18.0625 35.515625 20.015625 
Q 33.0625 21.96875 24.703125 23.78125 
L 21.578125 24.515625 
Q 13.234375 26.265625 9.515625 29.90625 
Q 5.8125 33.546875 5.8125 39.890625 
Q 5.8125 47.609375 11.28125 51.796875 
Q 16.75 56 26.8125 56 
Q 31.78125 56 36.171875 55.265625 
Q 40.578125 54.546875 44.28125 53.078125 
z
" id="DejaVuSans-73"/>
      <path d="M 8.015625 75.875 
L 15.828125 75.875 
Q 23.140625 64.359375 26.78125 53.3125 
Q 30.421875 42.28125 30.421875 31.390625 
Q 30.421875 20.453125 26.78125 9.375 
Q 23.140625 -1.703125 15.828125 -13.1875 
L 8.015625 -13.1875 
Q 14.5 -2 17.703125 9.0625 
Q 20.90625 20.125 20.90625 31.390625 
Q 20.90625 42.671875 17.703125 53.65625 
Q 14.5 64.65625 8.015625 75.875 
z
" id="DejaVuSans-29"/>
     </defs>
     <g transform="translate(190.49125 335.860562)scale(0.1 -0.1)">
      <use xlink:href="#DejaVuSans-45"/>
      <use x="63.183594" xlink:href="#DejaVuSans-78"/>
      <use x="122.316406" xlink:href="#DejaVuSans-65"/>
      <use x="183.839844" xlink:href="#DejaVuSans-63"/>
      <use x="238.820312" xlink:href="#DejaVuSans-75"/>
      <use x="302.199219" xlink:href="#DejaVuSans-74"/>
      <use x="341.408203" xlink:href="#DejaVuSans-69"/>
      <use x="369.191406" xlink:href="#DejaVuSans-6f"/>
      <use x="430.373047" xlink:href="#DejaVuSans-6e"/>
      <use x="493.751953" xlink:href="#DejaVuSans-20"/>
      <use x="525.539062" xlink:href="#DejaVuSans-74"/>
      <use x="564.748047" xlink:href="#DejaVuSans-69"/>
      <use x="592.53125" xlink:href="#DejaVuSans-6d"/>
      <use x="689.943359" xlink:href="#DejaVuSans-65"/>
      <use x="751.466797" xlink:href="#DejaVuSans-20"/>
      <use x="783.253906" xlink:href="#DejaVuSans-28"/>
      <use x="822.267578" xlink:href="#DejaVuSans-73"/>
      <use x="874.367188" xlink:href="#DejaVuSans-29"/>
     </g>
    </g>
   </g>
   <g id="matplotlib.axis_2">
    <g id="ytick_1">
     <g id="line2d_17">
      <defs>
       <path d="M 0 0 
L -3.5 0 
" id="m4a2074a173" style="stroke:#000000;stroke-width:0.8;"/>
      </defs>
      <g>
       <use style="stroke:#000000;stroke-width:0.8;" x="57.6" xlink:href="#m4a2074a173" y="279.807079"/>
      </g>
     </g>
     <g id="text_4">
      <!-- $\mathdefault{10^{4}}$ -->
      <g transform="translate(33 283.606298)scale(0.1 -0.1)">
       <use transform="translate(0 0.684375)" xlink:href="#DejaVuSans-31"/>
       <use transform="translate(63.623047 0.684375)" xlink:href="#DejaVuSans-30"/>
       <use transform="translate(128.203125 38.965625)scale(0.7)" xlink:href="#DejaVuSans-34"/>
      </g>
     </g>
    </g>
    <g id="ytick_2">
     <g id="line2d_18">
      <g>
       <use style="stroke:#000000;stroke-width:0.8;" x="57.6" xlink:href="#m4a2074a173" y="51.198857"/>
      </g>
     </g>
     <g id="text_5">
      <!-- $\mathdefault{10^{5}}$ -->
      <g transform="translate(33 54.998075)scale(0.1 -0.1)">
       <use transform="translate(0 0.684375)" xlink:href="#DejaVuSans-31"/>
       <use transform="translate(63.623047 0.684375)" xlink:href="#DejaVuSans-30"/>
       <use transform="translate(128.203125 38.965625)scale(0.7)" xlink:href="#DejaVuSans-35"/>
      </g>
     </g>
    </g>
    <g id="ytick_3">
     <g id="line2d_19">
      <defs>
       <path d="M 0 0 
L -2 0 
" id="m5d26b86305" style="stroke:#000000;stroke-width:0.6;"/>
      </defs>
      <g>
       <use style="stroke:#000000;stroke-width:0.6;" x="57.6" xlink:href="#m5d26b86305" y="301.961505"/>
      </g>
     </g>
    </g>
    <g id="ytick_4">
     <g id="line2d_20">
      <g>
       <use style="stroke:#000000;stroke-width:0.6;" x="57.6" xlink:href="#m5d26b86305" y="290.267618"/>
      </g>
     </g>
    </g>
    <g id="ytick_5">
     <g id="line2d_21">
      <g>
       <use style="stroke:#000000;stroke-width:0.6;" x="57.6" xlink:href="#m5d26b86305" y="210.989147"/>
      </g>
     </g>
    </g>
    <g id="ytick_6">
     <g id="line2d_22">
      <g>
       <use style="stroke:#000000;stroke-width:0.6;" x="57.6" xlink:href="#m5d26b86305" y="170.733237"/>
      </g>
     </g>
    </g>
    <g id="ytick_7">
     <g id="line2d_23">
      <g>
       <use style="stroke:#000000;stroke-width:0.6;" x="57.6" xlink:href="#m5d26b86305" y="142.171215"/>
      </g>
     </g>
    </g>
    <g id="ytick_8">
     <g id="line2d_24">
      <g>
       <use style="stroke:#000000;stroke-width:0.6;" x="57.6" xlink:href="#m5d26b86305" y="120.016789"/>
      </g>
     </g>
    </g>
    <g id="ytick_9">
     <g id="line2d_25">
      <g>
       <use style="stroke:#000000;stroke-width:0.6;" x="57.6" xlink:href="#m5d26b86305" y="101.915305"/>
      </g>
     </g>
    </g>
    <g id="ytick_10">
     <g id="line2d_26">
      <g>
       <use style="stroke:#000000;stroke-width:0.6;" x="57.6" xlink:href="#m5d26b86305" y="86.610718"/>
      </g>
     </g>
    </g>
    <g id="ytick_11">
     <g id="line2d_27">
      <g>
       <use style="stroke:#000000;stroke-width:0.6;" x="57.6" xlink:href="#m5d26b86305" y="73.353283"/>
      </g>
     </g>
    </g>
    <g id="ytick_12">
     <g id="line2d_28">
      <g>
       <use style="stroke:#000000;stroke-width:0.6;" x="57.6" xlink:href="#m5d26b86305" y="61.659395"/>
      </g>
     </g>
    </g>
    <g id="text_6">
     <!-- Number of edge species -->
     <defs>
      <path d="M 9.8125 72.90625 
L 23.09375 72.90625 
L 55.421875 11.921875 
L 55.421875 72.90625 
L 64.984375 72.90625 
L 64.984375 0 
L 51.703125 0 
L 19.390625 60.984375 
L 19.390625 0 
L 9.8125 0 
z
" id="DejaVuSans-4e"/>
      <path d="M 48.6875 27.296875 
Q 48.6875 37.203125 44.609375 42.84375 
Q 40.53125 48.484375 33.40625 48.484375 
Q 26.265625 48.484375 22.1875 42.84375 
Q 18.109375 37.203125 18.109375 27.296875 
Q 18.109375 17.390625 22.1875 11.75 
Q 26.265625 6.109375 33.40625 6.109375 
Q 40.53125 6.109375 44.609375 11.75 
Q 48.6875 17.390625 48.6875 27.296875 
z
M 18.109375 46.390625 
Q 20.953125 51.265625 25.265625 53.625 
Q 29.59375 56 35.59375 56 
Q 45.5625 56 51.78125 48.09375 
Q 58.015625 40.1875 58.015625 27.296875 
Q 58.015625 14.40625 51.78125 6.484375 
Q 45.5625 -1.421875 35.59375 -1.421875 
Q 29.59375 -1.421875 25.265625 0.953125 
Q 20.953125 3.328125 18.109375 8.203125 
L 18.109375 0 
L 9.078125 0 
L 9.078125 75.984375 
L 18.109375 75.984375 
z
" id="DejaVuSans-62"/>
      <path d="M 41.109375 46.296875 
Q 39.59375 47.171875 37.8125 47.578125 
Q 36.03125 48 33.890625 48 
Q 26.265625 48 22.1875 43.046875 
Q 18.109375 38.09375 18.109375 28.8125 
L 18.109375 0 
L 9.078125 0 
L 9.078125 54.6875 
L 18.109375 54.6875 
L 18.109375 46.1875 
Q 20.953125 51.171875 25.484375 53.578125 
Q 30.03125 56 36.53125 56 
Q 37.453125 56 38.578125 55.875 
Q 39.703125 55.765625 41.0625 55.515625 
z
" id="DejaVuSans-72"/>
      <path d="M 37.109375 75.984375 
L 37.109375 68.5 
L 28.515625 68.5 
Q 23.6875 68.5 21.796875 66.546875 
Q 19.921875 64.59375 19.921875 59.515625 
L 19.921875 54.6875 
L 34.71875 54.6875 
L 34.71875 47.703125 
L 19.921875 47.703125 
L 19.921875 0 
L 10.890625 0 
L 10.890625 47.703125 
L 2.296875 47.703125 
L 2.296875 54.6875 
L 10.890625 54.6875 
L 10.890625 58.5 
Q 10.890625 67.625 15.140625 71.796875 
Q 19.390625 75.984375 28.609375 75.984375 
z
" id="DejaVuSans-66"/>
      <path d="M 45.40625 46.390625 
L 45.40625 75.984375 
L 54.390625 75.984375 
L 54.390625 0 
L 45.40625 0 
L 45.40625 8.203125 
Q 42.578125 3.328125 38.25 0.953125 
Q 33.9375 -1.421875 27.875 -1.421875 
Q 17.96875 -1.421875 11.734375 6.484375 
Q 5.515625 14.40625 5.515625 27.296875 
Q 5.515625 40.1875 11.734375 48.09375 
Q 17.96875 56 27.875 56 
Q 33.9375 56 38.25 53.625 
Q 42.578125 51.265625 45.40625 46.390625 
z
M 14.796875 27.296875 
Q 14.796875 17.390625 18.875 11.75 
Q 22.953125 6.109375 30.078125 6.109375 
Q 37.203125 6.109375 41.296875 11.75 
Q 45.40625 17.390625 45.40625 27.296875 
Q 45.40625 37.203125 41.296875 42.84375 
Q 37.203125 48.484375 30.078125 48.484375 
Q 22.953125 48.484375 18.875 42.84375 
Q 14.796875 37.203125 14.796875 27.296875 
z
" id="DejaVuSans-64"/>
      <path d="M 45.40625 27.984375 
Q 45.40625 37.75 41.375 43.109375 
Q 37.359375 48.484375 30.078125 48.484375 
Q 22.859375 48.484375 18.828125 43.109375 
Q 14.796875 37.75 14.796875 27.984375 
Q 14.796875 18.265625 18.828125 12.890625 
Q 22.859375 7.515625 30.078125 7.515625 
Q 37.359375 7.515625 41.375 12.890625 
Q 45.40625 18.265625 45.40625 27.984375 
z
M 54.390625 6.78125 
Q 54.390625 -7.171875 48.1875 -13.984375 
Q 42 -20.796875 29.203125 -20.796875 
Q 24.46875 -20.796875 20.265625 -20.09375 
Q 16.0625 -19.390625 12.109375 -17.921875 
L 12.109375 -9.1875 
Q 16.0625 -11.328125 19.921875 -12.34375 
Q 23.78125 -13.375 27.78125 -13.375 
Q 36.625 -13.375 41.015625 -8.765625 
Q 45.40625 -4.15625 45.40625 5.171875 
L 45.40625 9.625 
Q 42.625 4.78125 38.28125 2.390625 
Q 33.9375 0 27.875 0 
Q 17.828125 0 11.671875 7.65625 
Q 5.515625 15.328125 5.515625 27.984375 
Q 5.515625 40.671875 11.671875 48.328125 
Q 17.828125 56 27.875 56 
Q 33.9375 56 38.28125 53.609375 
Q 42.625 51.21875 45.40625 46.390625 
L 45.40625 54.6875 
L 54.390625 54.6875 
z
" id="DejaVuSans-67"/>
      <path d="M 18.109375 8.203125 
L 18.109375 -20.796875 
L 9.078125 -20.796875 
L 9.078125 54.6875 
L 18.109375 54.6875 
L 18.109375 46.390625 
Q 20.953125 51.265625 25.265625 53.625 
Q 29.59375 56 35.59375 56 
Q 45.5625 56 51.78125 48.09375 
Q 58.015625 40.1875 58.015625 27.296875 
Q 58.015625 14.40625 51.78125 6.484375 
Q 45.5625 -1.421875 35.59375 -1.421875 
Q 29.59375 -1.421875 25.265625 0.953125 
Q 20.953125 3.328125 18.109375 8.203125 
z
M 48.6875 27.296875 
Q 48.6875 37.203125 44.609375 42.84375 
Q 40.53125 48.484375 33.40625 48.484375 
Q 26.265625 48.484375 22.1875 42.84375 
Q 18.109375 37.203125 18.109375 27.296875 
Q 18.109375 17.390625 22.1875 11.75 
Q 26.265625 6.109375 33.40625 6.109375 
Q 40.53125 6.109375 44.609375 11.75 
Q 48.6875 17.390625 48.6875 27.296875 
z
" id="DejaVuSans-70"/>
     </defs>
     <g transform="translate(26.920312 235.377219)rotate(-90)scale(0.1 -0.1)">
      <use xlink:href="#DejaVuSans-4e"/>
      <use x="74.804688" xlink:href="#DejaVuSans-75"/>
      <use x="138.183594" xlink:href="#DejaVuSans-6d"/>
      <use x="235.595703" xlink:href="#DejaVuSans-62"/>
      <use x="299.072266" xlink:href="#DejaVuSans-65"/>
      <use x="360.595703" xlink:href="#DejaVuSans-72"/>
      <use x="401.708984" xlink:href="#DejaVuSans-20"/>
      <use x="433.496094" xlink:href="#DejaVuSans-6f"/>
      <use x="494.677734" xlink:href="#DejaVuSans-66"/>
      <use x="529.882812" xlink:href="#DejaVuSans-20"/>
      <use x="561.669922" xlink:href="#DejaVuSans-65"/>
      <use x="623.193359" xlink:href="#DejaVuSans-64"/>
      <use x="686.669922" xlink:href="#DejaVuSans-67"/>
      <use x="750.146484" xlink:href="#DejaVuSans-65"/>
      <use x="811.669922" xlink:href="#DejaVuSans-20"/>
      <use x="843.457031" xlink:href="#DejaVuSans-73"/>
      <use x="895.556641" xlink:href="#DejaVuSans-70"/>
      <use x="959.033203" xlink:href="#DejaVuSans-65"/>
      <use x="1020.556641" xlink:href="#DejaVuSans-63"/>
      <use x="1075.537109" xlink:href="#DejaVuSans-69"/>
      <use x="1103.320312" xlink:href="#DejaVuSans-65"/>
      <use x="1164.84375" xlink:href="#DejaVuSans-73"/>
     </g>
    </g>
   </g>
   <g id="line2d_29">
    <path clip-path="url(#p2139869cbd)" d="M 73.832727 295.476374 
L 74.816164 295.488 
L 76.072255 294.159814 
L 76.740116 293.759085 
L 78.912357 292.792568 
L 80.494938 289.126922 
L 81.49953 287.729992 
L 108.601993 283.148975 
L 111.162072 282.463378 
L 126.242222 279.96606 
L 131.422655 277.821544 
L 133.555624 274.660914 
L 136.086146 271.49731 
L 138.027136 269.705602 
L 142.008701 266.563296 
L 142.436102 266.580674 
L 147.619096 261.639429 
L 151.350525 258.634439 
L 153.769009 255.026891 
L 155.672415 254.402296 
L 158.064649 251.456258 
L 160.942454 248.508161 
L 164.587033 243.749005 
L 166.865939 241.058421 
L 170.021761 236.500872 
L 173.427503 231.274887 
L 175.54055 228.945783 
L 177.078192 227.839634 
L 179.096463 224.849785 
L 179.8692 224.855493 
L 181.157338 222.097134 
L 183.298803 221.831003 
L 186.098082 218.842189 
L 201.664506 215.836422 
L 205.299128 215.269874 
L 210.483463 214.289978 
L 213.13895 213.212993 
L 217.260652 212.017068 
L 223.760103 209.281355 
L 227.206255 207.756087 
L 234.012896 206.500317 
L 236.910944 205.970325 
L 238.620274 205.18997 
L 241.977286 204.457524 
L 243.806575 203.615154 
L 245.379773 202.08308 
L 246.43676 200.404582 
L 247.711874 200.168368 
L 250.792244 199.471921 
L 252.406889 197.40276 
L 252.965982 197.139025 
L 253.76241 196.146592 
L 254.592241 194.762682 
L 257.91343 193.381167 
L 259.25443 190.061468 
L 261.182442 187.364356 
L 262.744828 185.730522 
L 263.800268 183.733815 
L 265.440184 180.874377 
L 267.74121 177.558259 
L 269.322514 175.523191 
L 270.42078 173.454141 
L 271.443292 172.445665 
L 271.872636 172.405269 
L 273.487454 171.761158 
L 278.786261 170.842509 
L 280.169349 170.478737 
L 284.469263 169.699473 
L 286.179277 168.95553 
L 296.886936 166.906124 
L 298.594881 166.46132 
L 300.01198 163.245625 
L 301.498224 162.740522 
L 303.696009 162.292674 
L 306.064539 159.180653 
L 308.158855 157.001205 
L 308.736814 157.006969 
L 311.246618 153.437555 
L 312.397554 151.920022 
L 313.075508 150.279792 
L 314.203707 148.891715 
L 315.014542 148.135016 
L 319.051676 141.75757 
L 319.957436 139.494702 
L 321.466999 137.435965 
L 323.957621 133.133626 
L 324.376746 132.724303 
L 325.995052 130.175524 
L 328.65038 126.621559 
L 330.339904 123.014271 
L 332.464349 120.99657 
L 333.918677 118.407612 
L 336.25342 113.559563 
L 337.728644 111.000957 
L 339.995579 107.554562 
L 342.482427 105.390777 
L 343.218245 104.188237 
L 343.849835 104.191623 
L 345.468904 102.11407 
L 350.428327 101.443179 
L 359.857609 100.218899 
L 362.798832 99.460513 
L 365.716805 98.714284 
L 366.46082 97.603769 
L 367.765349 97.255812 
L 369.346182 94.354063 
L 371.529587 91.281668 
L 372.702313 89.099627 
L 376.27589 83.813821 
L 377.433876 81.872088 
L 379.07651 78.867391 
L 379.750105 78.237052 
L 380.454714 76.828755 
L 382.733003 73.796079 
L 383.800856 72.12116 
L 384.58583 70.412563 
L 386.070086 68.115248 
L 388.294542 65.253753 
L 389.77572 62.96413 
L 393.689231 58.529966 
L 395.095865 56.941501 
L 398.487273 53.568 
L 398.487273 53.568 
" style="fill:none;stroke:#0000ff;stroke-linecap:square;stroke-width:1.5;"/>
    <defs>
     <path d="M 0 3 
C 0.795609 3 1.55874 2.683901 2.12132 2.12132 
C 2.683901 1.55874 3 0.795609 3 0 
C 3 -0.795609 2.683901 -1.55874 2.12132 -2.12132 
C 1.55874 -2.683901 0.795609 -3 0 -3 
C -0.795609 -3 -1.55874 -2.683901 -2.12132 -2.12132 
C -2.683901 -1.55874 -3 -0.795609 -3 0 
C -3 0.795609 -2.683901 1.55874 -2.12132 2.12132 
C -1.55874 2.683901 -0.795609 3 0 3 
z
" id="ma1733fe574" style="stroke:#0000ff;"/>
    </defs>
    <g clip-path="url(#p2139869cbd)">
     <use style="fill:#0000ff;stroke:#0000ff;" x="73.832727" xlink:href="#ma1733fe574" y="295.476374"/>
     <use style="fill:#0000ff;stroke:#0000ff;" x="74.604469" xlink:href="#ma1733fe574" y="295.476374"/>
     <use style="fill:#0000ff;stroke:#0000ff;" x="74.816164" xlink:href="#ma1733fe574" y="295.488"/>
     <use style="fill:#0000ff;stroke:#0000ff;" x="76.072255" xlink:href="#ma1733fe574" y="294.159814"/>
     <use style="fill:#0000ff;stroke:#0000ff;" x="76.740116" xlink:href="#ma1733fe574" y="293.759085"/>
     <use style="fill:#0000ff;stroke:#0000ff;" x="78.912357" xlink:href="#ma1733fe574" y="292.792568"/>
     <use style="fill:#0000ff;stroke:#0000ff;" x="80.494938" xlink:href="#ma1733fe574" y="289.126922"/>
     <use style="fill:#0000ff;stroke:#0000ff;" x="81.49953" xlink:href="#ma1733fe574" y="287.729992"/>
     <use style="fill:#0000ff;stroke:#0000ff;" x="87.030305" xlink:href="#ma1733fe574" y="286.798853"/>
     <use style="fill:#0000ff;stroke:#0000ff;" x="87.270883" xlink:href="#ma1733fe574" y="286.809506"/>
     <use style="fill:#0000ff;stroke:#0000ff;" x="91.09478" xlink:href="#ma1733fe574" y="286.10883"/>
     <use style="fill:#0000ff;stroke:#0000ff;" x="95.089159" xlink:href="#ma1733fe574" y="285.434077"/>
     <use style="fill:#0000ff;stroke:#0000ff;" x="98.713706" xlink:href="#ma1733fe574" y="284.868299"/>
     <use style="fill:#0000ff;stroke:#0000ff;" x="101.246686" xlink:href="#ma1733fe574" y="284.38887"/>
     <use style="fill:#0000ff;stroke:#0000ff;" x="104.904148" xlink:href="#ma1733fe574" y="283.84968"/>
     <use style="fill:#0000ff;stroke:#0000ff;" x="108.601993" xlink:href="#ma1733fe574" y="283.148975"/>
     <use style="fill:#0000ff;stroke:#0000ff;" x="111.162072" xlink:href="#ma1733fe574" y="282.463378"/>
     <use style="fill:#0000ff;stroke:#0000ff;" x="117.269782" xlink:href="#ma1733fe574" y="281.479111"/>
     <use style="fill:#0000ff;stroke:#0000ff;" x="117.821291" xlink:href="#ma1733fe574" y="281.489208"/>
     <use style="fill:#0000ff;stroke:#0000ff;" x="121.846984" xlink:href="#ma1733fe574" y="280.724713"/>
     <use style="fill:#0000ff;stroke:#0000ff;" x="126.242222" xlink:href="#ma1733fe574" y="279.96606"/>
     <use style="fill:#0000ff;stroke:#0000ff;" x="128.58206" xlink:href="#ma1733fe574" y="279.006124"/>
     <use style="fill:#0000ff;stroke:#0000ff;" x="131.422655" xlink:href="#ma1733fe574" y="277.821544"/>
     <use style="fill:#0000ff;stroke:#0000ff;" x="133.555624" xlink:href="#ma1733fe574" y="274.660914"/>
     <use style="fill:#0000ff;stroke:#0000ff;" x="136.086146" xlink:href="#ma1733fe574" y="271.49731"/>
     <use style="fill:#0000ff;stroke:#0000ff;" x="138.027136" xlink:href="#ma1733fe574" y="269.705602"/>
     <use style="fill:#0000ff;stroke:#0000ff;" x="142.008701" xlink:href="#ma1733fe574" y="266.563296"/>
     <use style="fill:#0000ff;stroke:#0000ff;" x="142.225621" xlink:href="#ma1733fe574" y="266.571985"/>
     <use style="fill:#0000ff;stroke:#0000ff;" x="142.436102" xlink:href="#ma1733fe574" y="266.580674"/>
     <use style="fill:#0000ff;stroke:#0000ff;" x="147.619096" xlink:href="#ma1733fe574" y="261.639429"/>
     <use style="fill:#0000ff;stroke:#0000ff;" x="151.350525" xlink:href="#ma1733fe574" y="258.634439"/>
     <use style="fill:#0000ff;stroke:#0000ff;" x="153.769009" xlink:href="#ma1733fe574" y="255.026891"/>
     <use style="fill:#0000ff;stroke:#0000ff;" x="155.672415" xlink:href="#ma1733fe574" y="254.402296"/>
     <use style="fill:#0000ff;stroke:#0000ff;" x="158.064649" xlink:href="#ma1733fe574" y="251.456258"/>
     <use style="fill:#0000ff;stroke:#0000ff;" x="160.942454" xlink:href="#ma1733fe574" y="248.508161"/>
     <use style="fill:#0000ff;stroke:#0000ff;" x="164.587033" xlink:href="#ma1733fe574" y="243.749005"/>
     <use style="fill:#0000ff;stroke:#0000ff;" x="166.865939" xlink:href="#ma1733fe574" y="241.058421"/>
     <use style="fill:#0000ff;stroke:#0000ff;" x="170.021761" xlink:href="#ma1733fe574" y="236.500872"/>
     <use style="fill:#0000ff;stroke:#0000ff;" x="173.427503" xlink:href="#ma1733fe574" y="231.274887"/>
     <use style="fill:#0000ff;stroke:#0000ff;" x="175.54055" xlink:href="#ma1733fe574" y="228.945783"/>
     <use style="fill:#0000ff;stroke:#0000ff;" x="177.078192" xlink:href="#ma1733fe574" y="227.839634"/>
     <use style="fill:#0000ff;stroke:#0000ff;" x="179.096463" xlink:href="#ma1733fe574" y="224.849785"/>
     <use style="fill:#0000ff;stroke:#0000ff;" x="179.8692" xlink:href="#ma1733fe574" y="224.855493"/>
     <use style="fill:#0000ff;stroke:#0000ff;" x="181.157338" xlink:href="#ma1733fe574" y="222.097134"/>
     <use style="fill:#0000ff;stroke:#0000ff;" x="183.298803" xlink:href="#ma1733fe574" y="221.831003"/>
     <use style="fill:#0000ff;stroke:#0000ff;" x="185.000168" xlink:href="#ma1733fe574" y="220.025852"/>
     <use style="fill:#0000ff;stroke:#0000ff;" x="186.098082" xlink:href="#ma1733fe574" y="218.842189"/>
     <use style="fill:#0000ff;stroke:#0000ff;" x="191.584518" xlink:href="#ma1733fe574" y="217.757466"/>
     <use style="fill:#0000ff;stroke:#0000ff;" x="194.964253" xlink:href="#ma1733fe574" y="217.148185"/>
     <use style="fill:#0000ff;stroke:#0000ff;" x="198.128031" xlink:href="#ma1733fe574" y="216.479644"/>
     <use style="fill:#0000ff;stroke:#0000ff;" x="201.664506" xlink:href="#ma1733fe574" y="215.836422"/>
     <use style="fill:#0000ff;stroke:#0000ff;" x="205.299128" xlink:href="#ma1733fe574" y="215.269874"/>
     <use style="fill:#0000ff;stroke:#0000ff;" x="208.374744" xlink:href="#ma1733fe574" y="214.634418"/>
     <use style="fill:#0000ff;stroke:#0000ff;" x="210.483463" xlink:href="#ma1733fe574" y="214.289978"/>
     <use style="fill:#0000ff;stroke:#0000ff;" x="213.13895" xlink:href="#ma1733fe574" y="213.212993"/>
     <use style="fill:#0000ff;stroke:#0000ff;" x="215.258912" xlink:href="#ma1733fe574" y="212.590525"/>
     <use style="fill:#0000ff;stroke:#0000ff;" x="217.260652" xlink:href="#ma1733fe574" y="212.017068"/>
     <use style="fill:#0000ff;stroke:#0000ff;" x="219.37426" xlink:href="#ma1733fe574" y="211.08848"/>
     <use style="fill:#0000ff;stroke:#0000ff;" x="220.535559" xlink:href="#ma1733fe574" y="210.637316"/>
     <use style="fill:#0000ff;stroke:#0000ff;" x="222.599518" xlink:href="#ma1733fe574" y="209.721484"/>
     <use style="fill:#0000ff;stroke:#0000ff;" x="223.760103" xlink:href="#ma1733fe574" y="209.281355"/>
     <use style="fill:#0000ff;stroke:#0000ff;" x="225.545201" xlink:href="#ma1733fe574" y="208.518213"/>
     <use style="fill:#0000ff;stroke:#0000ff;" x="227.206255" xlink:href="#ma1733fe574" y="207.756087"/>
     <use style="fill:#0000ff;stroke:#0000ff;" x="231.256529" xlink:href="#ma1733fe574" y="207.061779"/>
     <use style="fill:#0000ff;stroke:#0000ff;" x="234.012896" xlink:href="#ma1733fe574" y="206.500317"/>
     <use style="fill:#0000ff;stroke:#0000ff;" x="236.910944" xlink:href="#ma1733fe574" y="205.970325"/>
     <use style="fill:#0000ff;stroke:#0000ff;" x="238.620274" xlink:href="#ma1733fe574" y="205.18997"/>
     <use style="fill:#0000ff;stroke:#0000ff;" x="241.977286" xlink:href="#ma1733fe574" y="204.457524"/>
     <use style="fill:#0000ff;stroke:#0000ff;" x="243.806575" xlink:href="#ma1733fe574" y="203.615154"/>
     <use style="fill:#0000ff;stroke:#0000ff;" x="245.379773" xlink:href="#ma1733fe574" y="202.08308"/>
     <use style="fill:#0000ff;stroke:#0000ff;" x="246.43676" xlink:href="#ma1733fe574" y="200.404582"/>
     <use style="fill:#0000ff;stroke:#0000ff;" x="247.711874" xlink:href="#ma1733fe574" y="200.168368"/>
     <use style="fill:#0000ff;stroke:#0000ff;" x="250.792244" xlink:href="#ma1733fe574" y="199.471921"/>
     <use style="fill:#0000ff;stroke:#0000ff;" x="251.586815" xlink:href="#ma1733fe574" y="198.464763"/>
     <use style="fill:#0000ff;stroke:#0000ff;" x="252.406889" xlink:href="#ma1733fe574" y="197.40276"/>
     <use style="fill:#0000ff;stroke:#0000ff;" x="252.965982" xlink:href="#ma1733fe574" y="197.139025"/>
     <use style="fill:#0000ff;stroke:#0000ff;" x="253.76241" xlink:href="#ma1733fe574" y="196.146592"/>
     <use style="fill:#0000ff;stroke:#0000ff;" x="254.592241" xlink:href="#ma1733fe574" y="194.762682"/>
     <use style="fill:#0000ff;stroke:#0000ff;" x="256.260178" xlink:href="#ma1733fe574" y="194.073708"/>
     <use style="fill:#0000ff;stroke:#0000ff;" x="257.91343" xlink:href="#ma1733fe574" y="193.381167"/>
     <use style="fill:#0000ff;stroke:#0000ff;" x="259.25443" xlink:href="#ma1733fe574" y="190.061468"/>
     <use style="fill:#0000ff;stroke:#0000ff;" x="260.15209" xlink:href="#ma1733fe574" y="188.890335"/>
     <use style="fill:#0000ff;stroke:#0000ff;" x="261.182442" xlink:href="#ma1733fe574" y="187.364356"/>
     <use style="fill:#0000ff;stroke:#0000ff;" x="262.744828" xlink:href="#ma1733fe574" y="185.730522"/>
     <use style="fill:#0000ff;stroke:#0000ff;" x="263.800268" xlink:href="#ma1733fe574" y="183.733815"/>
     <use style="fill:#0000ff;stroke:#0000ff;" x="265.440184" xlink:href="#ma1733fe574" y="180.874377"/>
     <use style="fill:#0000ff;stroke:#0000ff;" x="266.706513" xlink:href="#ma1733fe574" y="179.04042"/>
     <use style="fill:#0000ff;stroke:#0000ff;" x="267.74121" xlink:href="#ma1733fe574" y="177.558259"/>
     <use style="fill:#0000ff;stroke:#0000ff;" x="269.322514" xlink:href="#ma1733fe574" y="175.523191"/>
     <use style="fill:#0000ff;stroke:#0000ff;" x="270.42078" xlink:href="#ma1733fe574" y="173.454141"/>
     <use style="fill:#0000ff;stroke:#0000ff;" x="271.443292" xlink:href="#ma1733fe574" y="172.445665"/>
     <use style="fill:#0000ff;stroke:#0000ff;" x="271.872636" xlink:href="#ma1733fe574" y="172.405269"/>
     <use style="fill:#0000ff;stroke:#0000ff;" x="273.487454" xlink:href="#ma1733fe574" y="171.761158"/>
     <use style="fill:#0000ff;stroke:#0000ff;" x="276.189372" xlink:href="#ma1733fe574" y="171.300771"/>
     <use style="fill:#0000ff;stroke:#0000ff;" x="278.786261" xlink:href="#ma1733fe574" y="170.842509"/>
     <use style="fill:#0000ff;stroke:#0000ff;" x="280.169349" xlink:href="#ma1733fe574" y="170.478737"/>
     <use style="fill:#0000ff;stroke:#0000ff;" x="284.469263" xlink:href="#ma1733fe574" y="169.699473"/>
     <use style="fill:#0000ff;stroke:#0000ff;" x="286.179277" xlink:href="#ma1733fe574" y="168.95553"/>
     <use style="fill:#0000ff;stroke:#0000ff;" x="290.194571" xlink:href="#ma1733fe574" y="168.207441"/>
     <use style="fill:#0000ff;stroke:#0000ff;" x="292.013586" xlink:href="#ma1733fe574" y="167.798542"/>
     <use style="fill:#0000ff;stroke:#0000ff;" x="294.418239" xlink:href="#ma1733fe574" y="167.349731"/>
     <use style="fill:#0000ff;stroke:#0000ff;" x="296.886936" xlink:href="#ma1733fe574" y="166.906124"/>
     <use style="fill:#0000ff;stroke:#0000ff;" x="298.594881" xlink:href="#ma1733fe574" y="166.46132"/>
     <use style="fill:#0000ff;stroke:#0000ff;" x="300.01198" xlink:href="#ma1733fe574" y="163.245625"/>
     <use style="fill:#0000ff;stroke:#0000ff;" x="301.498224" xlink:href="#ma1733fe574" y="162.740522"/>
     <use style="fill:#0000ff;stroke:#0000ff;" x="303.696009" xlink:href="#ma1733fe574" y="162.292674"/>
     <use style="fill:#0000ff;stroke:#0000ff;" x="306.064539" xlink:href="#ma1733fe574" y="159.180653"/>
     <use style="fill:#0000ff;stroke:#0000ff;" x="308.158855" xlink:href="#ma1733fe574" y="157.001205"/>
     <use style="fill:#0000ff;stroke:#0000ff;" x="308.5357" xlink:href="#ma1733fe574" y="157.004087"/>
     <use style="fill:#0000ff;stroke:#0000ff;" x="308.736814" xlink:href="#ma1733fe574" y="157.006969"/>
     <use style="fill:#0000ff;stroke:#0000ff;" x="310.118371" xlink:href="#ma1733fe574" y="154.961701"/>
     <use style="fill:#0000ff;stroke:#0000ff;" x="311.246618" xlink:href="#ma1733fe574" y="153.437555"/>
     <use style="fill:#0000ff;stroke:#0000ff;" x="312.397554" xlink:href="#ma1733fe574" y="151.920022"/>
     <use style="fill:#0000ff;stroke:#0000ff;" x="313.075508" xlink:href="#ma1733fe574" y="150.279792"/>
     <use style="fill:#0000ff;stroke:#0000ff;" x="314.203707" xlink:href="#ma1733fe574" y="148.891715"/>
     <use style="fill:#0000ff;stroke:#0000ff;" x="315.014542" xlink:href="#ma1733fe574" y="148.135016"/>
     <use style="fill:#0000ff;stroke:#0000ff;" x="316.578884" xlink:href="#ma1733fe574" y="145.736695"/>
     <use style="fill:#0000ff;stroke:#0000ff;" x="318.116387" xlink:href="#ma1733fe574" y="143.36982"/>
     <use style="fill:#0000ff;stroke:#0000ff;" x="319.051676" xlink:href="#ma1733fe574" y="141.75757"/>
     <use style="fill:#0000ff;stroke:#0000ff;" x="319.957436" xlink:href="#ma1733fe574" y="139.494702"/>
     <use style="fill:#0000ff;stroke:#0000ff;" x="321.466999" xlink:href="#ma1733fe574" y="137.435965"/>
     <use style="fill:#0000ff;stroke:#0000ff;" x="322.989562" xlink:href="#ma1733fe574" y="134.744235"/>
     <use style="fill:#0000ff;stroke:#0000ff;" x="323.957621" xlink:href="#ma1733fe574" y="133.133626"/>
     <use style="fill:#0000ff;stroke:#0000ff;" x="324.376746" xlink:href="#ma1733fe574" y="132.724303"/>
     <use style="fill:#0000ff;stroke:#0000ff;" x="325.995052" xlink:href="#ma1733fe574" y="130.175524"/>
     <use style="fill:#0000ff;stroke:#0000ff;" x="327.316678" xlink:href="#ma1733fe574" y="128.394522"/>
     <use style="fill:#0000ff;stroke:#0000ff;" x="328.65038" xlink:href="#ma1733fe574" y="126.621559"/>
     <use style="fill:#0000ff;stroke:#0000ff;" x="330.339904" xlink:href="#ma1733fe574" y="123.014271"/>
     <use style="fill:#0000ff;stroke:#0000ff;" x="332.464349" xlink:href="#ma1733fe574" y="120.99657"/>
     <use style="fill:#0000ff;stroke:#0000ff;" x="333.918677" xlink:href="#ma1733fe574" y="118.407612"/>
     <use style="fill:#0000ff;stroke:#0000ff;" x="335.000775" xlink:href="#ma1733fe574" y="116.134284"/>
     <use style="fill:#0000ff;stroke:#0000ff;" x="336.25342" xlink:href="#ma1733fe574" y="113.559563"/>
     <use style="fill:#0000ff;stroke:#0000ff;" x="337.728644" xlink:href="#ma1733fe574" y="111.000957"/>
     <use style="fill:#0000ff;stroke:#0000ff;" x="339.995579" xlink:href="#ma1733fe574" y="107.554562"/>
     <use style="fill:#0000ff;stroke:#0000ff;" x="341.768771" xlink:href="#ma1733fe574" y="105.914828"/>
     <use style="fill:#0000ff;stroke:#0000ff;" x="342.482427" xlink:href="#ma1733fe574" y="105.390777"/>
     <use style="fill:#0000ff;stroke:#0000ff;" x="343.218245" xlink:href="#ma1733fe574" y="104.188237"/>
     <use style="fill:#0000ff;stroke:#0000ff;" x="343.582349" xlink:href="#ma1733fe574" y="104.18993"/>
     <use style="fill:#0000ff;stroke:#0000ff;" x="343.849835" xlink:href="#ma1733fe574" y="104.191623"/>
     <use style="fill:#0000ff;stroke:#0000ff;" x="345.468904" xlink:href="#ma1733fe574" y="102.11407"/>
     <use style="fill:#0000ff;stroke:#0000ff;" x="346.700502" xlink:href="#ma1733fe574" y="101.921924"/>
     <use style="fill:#0000ff;stroke:#0000ff;" x="348.962839" xlink:href="#ma1733fe574" y="101.649252"/>
     <use style="fill:#0000ff;stroke:#0000ff;" x="350.428327" xlink:href="#ma1733fe574" y="101.443179"/>
     <use style="fill:#0000ff;stroke:#0000ff;" x="353.260094" xlink:href="#ma1733fe574" y="101.06676"/>
     <use style="fill:#0000ff;stroke:#0000ff;" x="354.898046" xlink:href="#ma1733fe574" y="100.860254"/>
     <use style="fill:#0000ff;stroke:#0000ff;" x="356.792416" xlink:href="#ma1733fe574" y="100.634573"/>
     <use style="fill:#0000ff;stroke:#0000ff;" x="358.529844" xlink:href="#ma1733fe574" y="100.412664"/>
     <use style="fill:#0000ff;stroke:#0000ff;" x="359.857609" xlink:href="#ma1733fe574" y="100.218899"/>
     <use style="fill:#0000ff;stroke:#0000ff;" x="361.459888" xlink:href="#ma1733fe574" y="99.858429"/>
     <use style="fill:#0000ff;stroke:#0000ff;" x="362.798832" xlink:href="#ma1733fe574" y="99.460513"/>
     <use style="fill:#0000ff;stroke:#0000ff;" x="364.308671" xlink:href="#ma1733fe574" y="99.077048"/>
     <use style="fill:#0000ff;stroke:#0000ff;" x="365.716805" xlink:href="#ma1733fe574" y="98.714284"/>
     <use style="fill:#0000ff;stroke:#0000ff;" x="366.46082" xlink:href="#ma1733fe574" y="97.603769"/>
     <use style="fill:#0000ff;stroke:#0000ff;" x="367.765349" xlink:href="#ma1733fe574" y="97.255812"/>
     <use style="fill:#0000ff;stroke:#0000ff;" x="369.346182" xlink:href="#ma1733fe574" y="94.354063"/>
     <use style="fill:#0000ff;stroke:#0000ff;" x="370.604878" xlink:href="#ma1733fe574" y="92.594101"/>
     <use style="fill:#0000ff;stroke:#0000ff;" x="371.529587" xlink:href="#ma1733fe574" y="91.281668"/>
     <use style="fill:#0000ff;stroke:#0000ff;" x="372.702313" xlink:href="#ma1733fe574" y="89.099627"/>
     <use style="fill:#0000ff;stroke:#0000ff;" x="373.90633" xlink:href="#ma1733fe574" y="87.366724"/>
     <use style="fill:#0000ff;stroke:#0000ff;" x="376.27589" xlink:href="#ma1733fe574" y="83.813821"/>
     <use style="fill:#0000ff;stroke:#0000ff;" x="377.433876" xlink:href="#ma1733fe574" y="81.872088"/>
     <use style="fill:#0000ff;stroke:#0000ff;" x="379.07651" xlink:href="#ma1733fe574" y="78.867391"/>
     <use style="fill:#0000ff;stroke:#0000ff;" x="379.750105" xlink:href="#ma1733fe574" y="78.237052"/>
     <use style="fill:#0000ff;stroke:#0000ff;" x="380.454714" xlink:href="#ma1733fe574" y="76.828755"/>
     <use style="fill:#0000ff;stroke:#0000ff;" x="382.733003" xlink:href="#ma1733fe574" y="73.796079"/>
     <use style="fill:#0000ff;stroke:#0000ff;" x="383.800856" xlink:href="#ma1733fe574" y="72.12116"/>
     <use style="fill:#0000ff;stroke:#0000ff;" x="384.58583" xlink:href="#ma1733fe574" y="70.412563"/>
     <use style="fill:#0000ff;stroke:#0000ff;" x="386.070086" xlink:href="#ma1733fe574" y="68.115248"/>
     <use style="fill:#0000ff;stroke:#0000ff;" x="387.319908" xlink:href="#ma1733fe574" y="66.572138"/>
     <use style="fill:#0000ff;stroke:#0000ff;" x="388.294542" xlink:href="#ma1733fe574" y="65.253753"/>
     <use style="fill:#0000ff;stroke:#0000ff;" x="389.77572" xlink:href="#ma1733fe574" y="62.96413"/>
     <use style="fill:#0000ff;stroke:#0000ff;" x="391.299469" xlink:href="#ma1733fe574" y="61.18178"/>
     <use style="fill:#0000ff;stroke:#0000ff;" x="392.065973" xlink:href="#ma1733fe574" y="60.285597"/>
     <use style="fill:#0000ff;stroke:#0000ff;" x="393.689231" xlink:href="#ma1733fe574" y="58.529966"/>
     <use style="fill:#0000ff;stroke:#0000ff;" x="395.095865" xlink:href="#ma1733fe574" y="56.941501"/>
     <use style="fill:#0000ff;stroke:#0000ff;" x="398.487273" xlink:href="#ma1733fe574" y="53.568"/>
    </g>
   </g>
   <g id="patch_3">
    <path d="M 57.6 307.584 
L 57.6 41.472 
" style="fill:none;stroke:#000000;stroke-linecap:square;stroke-linejoin:miter;stroke-width:0.8;"/>
   </g>
   <g id="patch_4">
    <path d="M 414.72 307.584 
L 414.72 41.472 
" style="fill:none;stroke:#000000;stroke-linecap:square;stroke-linejoin:miter;stroke-width:0.8;"/>
   </g>
   <g id="patch_5">
    <path d="M 57.6 307.584 
L 414.72 307.584 
" style="fill:none;stroke:#000000;stroke-linecap:square;stroke-linejoin:miter;stroke-width:0.8;"/>
   </g>
   <g id="patch_6">
    <path d="M 57.6 41.472 
L 414.72 41.472 
" style="fill:none;stroke:#000000;stroke-linecap:square;stroke-linejoin:miter;stroke-width:0.8;"/>
   </g>
  </g>
  <g id="axes_2">
   <g id="matplotlib.axis_3">
    <g id="ytick_13">
     <g id="line2d_30">
      <defs>
       <path d="M 0 0 
L 3.5 0 
" id="md7a273deaf" style="stroke:#000000;stroke-width:0.8;"/>
      </defs>
      <g>
       <use style="stroke:#000000;stroke-width:0.8;" x="414.72" xlink:href="#md7a273deaf" y="251.178476"/>
      </g>
     </g>
     <g id="text_7">
      <!-- $\mathdefault{10^{5}}$ -->
      <g transform="translate(421.72 254.977695)scale(0.1 -0.1)">
       <use transform="translate(0 0.684375)" xlink:href="#DejaVuSans-31"/>
       <use transform="translate(63.623047 0.684375)" xlink:href="#DejaVuSans-30"/>
       <use transform="translate(128.203125 38.965625)scale(0.7)" xlink:href="#DejaVuSans-35"/>
      </g>
     </g>
    </g>
    <g id="ytick_14">
     <g id="line2d_31">
      <defs>
       <path d="M 0 0 
L 2 0 
" id="m1953fa39ff" style="stroke:#000000;stroke-width:0.6;"/>
      </defs>
      <g>
       <use style="stroke:#000000;stroke-width:0.6;" x="414.72" xlink:href="#m1953fa39ff" y="298.076892"/>
      </g>
     </g>
    </g>
    <g id="ytick_15">
     <g id="line2d_32">
      <g>
       <use style="stroke:#000000;stroke-width:0.6;" x="414.72" xlink:href="#m1953fa39ff" y="283.924464"/>
      </g>
     </g>
    </g>
    <g id="ytick_16">
     <g id="line2d_33">
      <g>
       <use style="stroke:#000000;stroke-width:0.6;" x="414.72" xlink:href="#m1953fa39ff" y="271.665074"/>
      </g>
     </g>
    </g>
    <g id="ytick_17">
     <g id="line2d_34">
      <g>
       <use style="stroke:#000000;stroke-width:0.6;" x="414.72" xlink:href="#m1953fa39ff" y="260.851525"/>
      </g>
     </g>
    </g>
    <g id="ytick_18">
     <g id="line2d_35">
      <g>
       <use style="stroke:#000000;stroke-width:0.6;" x="414.72" xlink:href="#m1953fa39ff" y="187.541291"/>
      </g>
     </g>
    </g>
    <g id="ytick_19">
     <g id="line2d_36">
      <g>
       <use style="stroke:#000000;stroke-width:0.6;" x="414.72" xlink:href="#m1953fa39ff" y="150.315924"/>
      </g>
     </g>
    </g>
    <g id="ytick_20">
     <g id="line2d_37">
      <g>
       <use style="stroke:#000000;stroke-width:0.6;" x="414.72" xlink:href="#m1953fa39ff" y="123.904106"/>
      </g>
     </g>
    </g>
    <g id="ytick_21">
     <g id="line2d_38">
      <g>
       <use style="stroke:#000000;stroke-width:0.6;" x="414.72" xlink:href="#m1953fa39ff" y="103.417508"/>
      </g>
     </g>
    </g>
    <g id="ytick_22">
     <g id="line2d_39">
      <g>
       <use style="stroke:#000000;stroke-width:0.6;" x="414.72" xlink:href="#m1953fa39ff" y="86.678739"/>
      </g>
     </g>
    </g>
    <g id="ytick_23">
     <g id="line2d_40">
      <g>
       <use style="stroke:#000000;stroke-width:0.6;" x="414.72" xlink:href="#m1953fa39ff" y="72.526312"/>
      </g>
     </g>
    </g>
    <g id="ytick_24">
     <g id="line2d_41">
      <g>
       <use style="stroke:#000000;stroke-width:0.6;" x="414.72" xlink:href="#m1953fa39ff" y="60.266921"/>
      </g>
     </g>
    </g>
    <g id="ytick_25">
     <g id="line2d_42">
      <g>
       <use style="stroke:#000000;stroke-width:0.6;" x="414.72" xlink:href="#m1953fa39ff" y="49.453372"/>
      </g>
     </g>
    </g>
    <g id="text_8">
     <!-- Number of edge reactions -->
     <defs>
      <path d="M 34.28125 27.484375 
Q 23.390625 27.484375 19.1875 25 
Q 14.984375 22.515625 14.984375 16.5 
Q 14.984375 11.71875 18.140625 8.90625 
Q 21.296875 6.109375 26.703125 6.109375 
Q 34.1875 6.109375 38.703125 11.40625 
Q 43.21875 16.703125 43.21875 25.484375 
L 43.21875 27.484375 
z
M 52.203125 31.203125 
L 52.203125 0 
L 43.21875 0 
L 43.21875 8.296875 
Q 40.140625 3.328125 35.546875 0.953125 
Q 30.953125 -1.421875 24.3125 -1.421875 
Q 15.921875 -1.421875 10.953125 3.296875 
Q 6 8.015625 6 15.921875 
Q 6 25.140625 12.171875 29.828125 
Q 18.359375 34.515625 30.609375 34.515625 
L 43.21875 34.515625 
L 43.21875 35.40625 
Q 43.21875 41.609375 39.140625 45 
Q 35.0625 48.390625 27.6875 48.390625 
Q 23 48.390625 18.546875 47.265625 
Q 14.109375 46.140625 10.015625 43.890625 
L 10.015625 52.203125 
Q 14.9375 54.109375 19.578125 55.046875 
Q 24.21875 56 28.609375 56 
Q 40.484375 56 46.34375 49.84375 
Q 52.203125 43.703125 52.203125 31.203125 
z
" id="DejaVuSans-61"/>
     </defs>
     <g transform="translate(450.918438 239.828)rotate(-90)scale(0.1 -0.1)">
      <use xlink:href="#DejaVuSans-4e"/>
      <use x="74.804688" xlink:href="#DejaVuSans-75"/>
      <use x="138.183594" xlink:href="#DejaVuSans-6d"/>
      <use x="235.595703" xlink:href="#DejaVuSans-62"/>
      <use x="299.072266" xlink:href="#DejaVuSans-65"/>
      <use x="360.595703" xlink:href="#DejaVuSans-72"/>
      <use x="401.708984" xlink:href="#DejaVuSans-20"/>
      <use x="433.496094" xlink:href="#DejaVuSans-6f"/>
      <use x="494.677734" xlink:href="#DejaVuSans-66"/>
      <use x="529.882812" xlink:href="#DejaVuSans-20"/>
      <use x="561.669922" xlink:href="#DejaVuSans-65"/>
      <use x="623.193359" xlink:href="#DejaVuSans-64"/>
      <use x="686.669922" xlink:href="#DejaVuSans-67"/>
      <use x="750.146484" xlink:href="#DejaVuSans-65"/>
      <use x="811.669922" xlink:href="#DejaVuSans-20"/>
      <use x="843.457031" xlink:href="#DejaVuSans-72"/>
      <use x="884.539062" xlink:href="#DejaVuSans-65"/>
      <use x="946.0625" xlink:href="#DejaVuSans-61"/>
      <use x="1007.341797" xlink:href="#DejaVuSans-63"/>
      <use x="1062.322266" xlink:href="#DejaVuSans-74"/>
      <use x="1101.53125" xlink:href="#DejaVuSans-69"/>
      <use x="1129.314453" xlink:href="#DejaVuSans-6f"/>
      <use x="1190.496094" xlink:href="#DejaVuSans-6e"/>
      <use x="1253.875" xlink:href="#DejaVuSans-73"/>
     </g>
    </g>
   </g>
   <g id="line2d_43">
    <path clip-path="url(#p2139869cbd)" d="M 73.832727 295.486512 
L 74.816164 295.488 
L 76.072255 294.373142 
L 76.740116 294.038672 
L 78.912357 293.17587 
L 80.494938 291.20406 
L 81.49953 290.295646 
L 87.030305 286.201798 
L 87.270883 286.203143 
L 91.09478 283.13178 
L 98.713706 277.238422 
L 111.162072 267.643695 
L 117.269782 263.699501 
L 117.821291 263.700553 
L 121.846984 260.766896 
L 126.242222 257.874693 
L 128.58206 255.634813 
L 133.555624 250.260401 
L 138.027136 246.255117 
L 142.225621 244.007406 
L 142.436102 244.008255 
L 153.769009 236.982515 
L 155.672415 234.998378 
L 160.942454 231.153551 
L 166.865939 226.438014 
L 170.021761 224.247114 
L 175.54055 219.773278 
L 177.078192 218.780921 
L 179.096463 217.251284 
L 179.8692 217.251918 
L 181.157338 216.019242 
L 183.298803 214.434838 
L 185.000168 212.676093 
L 186.098082 211.782292 
L 191.584518 208.098494 
L 201.664506 200.20079 
L 205.299128 198.063407 
L 208.374744 195.52989 
L 210.483463 194.055485 
L 213.13895 191.311118 
L 217.260652 189.2842 
L 219.37426 187.126792 
L 220.535559 186.406232 
L 222.599518 184.28319 
L 223.760103 183.57441 
L 227.206255 179.447225 
L 231.256529 176.539421 
L 234.012896 174.162655 
L 236.910944 171.815696 
L 238.620274 169.857939 
L 241.977286 168.641195 
L 243.806575 166.717456 
L 245.379773 165.232673 
L 246.43676 164.05756 
L 247.711874 162.92538 
L 250.792244 161.749436 
L 253.76241 159.178858 
L 254.592241 158.607994 
L 257.91343 154.998379 
L 261.182442 152.269448 
L 262.744828 151.350916 
L 263.800268 150.442402 
L 266.706513 147.584333 
L 267.74121 146.959669 
L 269.322514 146.149813 
L 271.443292 144.814288 
L 271.872636 144.646979 
L 273.487454 142.970952 
L 276.189372 141.002276 
L 278.786261 139.274157 
L 280.169349 137.968783 
L 284.469263 135.524895 
L 286.179277 133.637871 
L 290.194571 131.277313 
L 292.013586 129.533078 
L 296.886936 126.084318 
L 298.594881 125.46357 
L 301.498224 122.672975 
L 303.696009 121.728283 
L 308.158855 119.177831 
L 308.736814 119.178267 
L 311.246618 116.68571 
L 313.075508 114.969501 
L 315.014542 114.01533 
L 316.578884 112.592673 
L 319.051676 110.530827 
L 319.957436 109.516424 
L 322.989562 106.721139 
L 323.957621 105.805777 
L 324.376746 105.611119 
L 325.995052 104.301279 
L 330.339904 101.257153 
L 332.464349 100.386259 
L 333.918677 99.254673 
L 336.25342 97.046035 
L 337.728644 95.930096 
L 342.482427 93.232858 
L 343.218245 92.609183 
L 343.849835 92.609509 
L 345.468904 91.50139 
L 346.700502 90.974591 
L 348.962839 89.45293 
L 350.428327 88.183046 
L 353.260094 86.508286 
L 354.898046 85.257574 
L 358.529844 82.775628 
L 361.459888 80.572375 
L 362.798832 79.215334 
L 365.716805 76.636215 
L 366.46082 76.15331 
L 369.346182 73.497126 
L 373.90633 69.642964 
L 376.27589 67.991614 
L 377.433876 66.863573 
L 379.07651 65.64634 
L 379.750105 65.315463 
L 380.454714 64.608884 
L 382.733003 63.169775 
L 383.800856 62.908141 
L 384.58583 62.338844 
L 387.319908 60.22011 
L 388.294542 59.577847 
L 389.77572 58.831972 
L 395.095865 55.123026 
L 398.487273 53.568 
L 398.487273 53.568 
" style="fill:none;stroke:#ff0000;stroke-linecap:square;stroke-width:1.5;"/>
    <defs>
     <path d="M 0 3 
C 0.795609 3 1.55874 2.683901 2.12132 2.12132 
C 2.683901 1.55874 3 0.795609 3 0 
C 3 -0.795609 2.683901 -1.55874 2.12132 -2.12132 
C 1.55874 -2.683901 0.795609 -3 0 -3 
C -0.795609 -3 -1.55874 -2.683901 -2.12132 -2.12132 
C -2.683901 -1.55874 -3 -0.795609 -3 0 
C -3 0.795609 -2.683901 1.55874 -2.12132 2.12132 
C -1.55874 2.683901 -0.795609 3 0 3 
z
" id="m9784a3a184" style="stroke:#ff0000;"/>
    </defs>
    <g clip-path="url(#p2139869cbd)">
     <use style="fill:#ff0000;stroke:#ff0000;" x="73.832727" xlink:href="#m9784a3a184" y="295.486512"/>
     <use style="fill:#ff0000;stroke:#ff0000;" x="74.604469" xlink:href="#m9784a3a184" y="295.486512"/>
     <use style="fill:#ff0000;stroke:#ff0000;" x="74.816164" xlink:href="#m9784a3a184" y="295.488"/>
     <use style="fill:#ff0000;stroke:#ff0000;" x="76.072255" xlink:href="#m9784a3a184" y="294.373142"/>
     <use style="fill:#ff0000;stroke:#ff0000;" x="76.740116" xlink:href="#m9784a3a184" y="294.038672"/>
     <use style="fill:#ff0000;stroke:#ff0000;" x="78.912357" xlink:href="#m9784a3a184" y="293.17587"/>
     <use style="fill:#ff0000;stroke:#ff0000;" x="80.494938" xlink:href="#m9784a3a184" y="291.20406"/>
     <use style="fill:#ff0000;stroke:#ff0000;" x="81.49953" xlink:href="#m9784a3a184" y="290.295646"/>
     <use style="fill:#ff0000;stroke:#ff0000;" x="87.030305" xlink:href="#m9784a3a184" y="286.201798"/>
     <use style="fill:#ff0000;stroke:#ff0000;" x="87.270883" xlink:href="#m9784a3a184" y="286.203143"/>
     <use style="fill:#ff0000;stroke:#ff0000;" x="91.09478" xlink:href="#m9784a3a184" y="283.13178"/>
     <use style="fill:#ff0000;stroke:#ff0000;" x="95.089159" xlink:href="#m9784a3a184" y="280.110766"/>
     <use style="fill:#ff0000;stroke:#ff0000;" x="98.713706" xlink:href="#m9784a3a184" y="277.238422"/>
     <use style="fill:#ff0000;stroke:#ff0000;" x="101.246686" xlink:href="#m9784a3a184" y="275.298213"/>
     <use style="fill:#ff0000;stroke:#ff0000;" x="104.904148" xlink:href="#m9784a3a184" y="272.395559"/>
     <use style="fill:#ff0000;stroke:#ff0000;" x="108.601993" xlink:href="#m9784a3a184" y="269.525794"/>
     <use style="fill:#ff0000;stroke:#ff0000;" x="111.162072" xlink:href="#m9784a3a184" y="267.643695"/>
     <use style="fill:#ff0000;stroke:#ff0000;" x="117.269782" xlink:href="#m9784a3a184" y="263.699501"/>
     <use style="fill:#ff0000;stroke:#ff0000;" x="117.821291" xlink:href="#m9784a3a184" y="263.700553"/>
     <use style="fill:#ff0000;stroke:#ff0000;" x="121.846984" xlink:href="#m9784a3a184" y="260.766896"/>
     <use style="fill:#ff0000;stroke:#ff0000;" x="126.242222" xlink:href="#m9784a3a184" y="257.874693"/>
     <use style="fill:#ff0000;stroke:#ff0000;" x="128.58206" xlink:href="#m9784a3a184" y="255.634813"/>
     <use style="fill:#ff0000;stroke:#ff0000;" x="131.422655" xlink:href="#m9784a3a184" y="252.570705"/>
     <use style="fill:#ff0000;stroke:#ff0000;" x="133.555624" xlink:href="#m9784a3a184" y="250.260401"/>
     <use style="fill:#ff0000;stroke:#ff0000;" x="136.086146" xlink:href="#m9784a3a184" y="247.961587"/>
     <use style="fill:#ff0000;stroke:#ff0000;" x="138.027136" xlink:href="#m9784a3a184" y="246.255117"/>
     <use style="fill:#ff0000;stroke:#ff0000;" x="142.008701" xlink:href="#m9784a3a184" y="244.006557"/>
     <use style="fill:#ff0000;stroke:#ff0000;" x="142.225621" xlink:href="#m9784a3a184" y="244.007406"/>
     <use style="fill:#ff0000;stroke:#ff0000;" x="142.436102" xlink:href="#m9784a3a184" y="244.008255"/>
     <use style="fill:#ff0000;stroke:#ff0000;" x="147.619096" xlink:href="#m9784a3a184" y="240.805852"/>
     <use style="fill:#ff0000;stroke:#ff0000;" x="151.350525" xlink:href="#m9784a3a184" y="238.624507"/>
     <use style="fill:#ff0000;stroke:#ff0000;" x="153.769009" xlink:href="#m9784a3a184" y="236.982515"/>
     <use style="fill:#ff0000;stroke:#ff0000;" x="155.672415" xlink:href="#m9784a3a184" y="234.998378"/>
     <use style="fill:#ff0000;stroke:#ff0000;" x="158.064649" xlink:href="#m9784a3a184" y="233.244063"/>
     <use style="fill:#ff0000;stroke:#ff0000;" x="160.942454" xlink:href="#m9784a3a184" y="231.153551"/>
     <use style="fill:#ff0000;stroke:#ff0000;" x="164.587033" xlink:href="#m9784a3a184" y="228.309579"/>
     <use style="fill:#ff0000;stroke:#ff0000;" x="166.865939" xlink:href="#m9784a3a184" y="226.438014"/>
     <use style="fill:#ff0000;stroke:#ff0000;" x="170.021761" xlink:href="#m9784a3a184" y="224.247114"/>
     <use style="fill:#ff0000;stroke:#ff0000;" x="173.427503" xlink:href="#m9784a3a184" y="221.489287"/>
     <use style="fill:#ff0000;stroke:#ff0000;" x="175.54055" xlink:href="#m9784a3a184" y="219.773278"/>
     <use style="fill:#ff0000;stroke:#ff0000;" x="177.078192" xlink:href="#m9784a3a184" y="218.780921"/>
     <use style="fill:#ff0000;stroke:#ff0000;" x="179.096463" xlink:href="#m9784a3a184" y="217.251284"/>
     <use style="fill:#ff0000;stroke:#ff0000;" x="179.8692" xlink:href="#m9784a3a184" y="217.251918"/>
     <use style="fill:#ff0000;stroke:#ff0000;" x="181.157338" xlink:href="#m9784a3a184" y="216.019242"/>
     <use style="fill:#ff0000;stroke:#ff0000;" x="183.298803" xlink:href="#m9784a3a184" y="214.434838"/>
     <use style="fill:#ff0000;stroke:#ff0000;" x="185.000168" xlink:href="#m9784a3a184" y="212.676093"/>
     <use style="fill:#ff0000;stroke:#ff0000;" x="186.098082" xlink:href="#m9784a3a184" y="211.782292"/>
     <use style="fill:#ff0000;stroke:#ff0000;" x="191.584518" xlink:href="#m9784a3a184" y="208.098494"/>
     <use style="fill:#ff0000;stroke:#ff0000;" x="194.964253" xlink:href="#m9784a3a184" y="205.433419"/>
     <use style="fill:#ff0000;stroke:#ff0000;" x="198.128031" xlink:href="#m9784a3a184" y="202.798529"/>
     <use style="fill:#ff0000;stroke:#ff0000;" x="201.664506" xlink:href="#m9784a3a184" y="200.20079"/>
     <use style="fill:#ff0000;stroke:#ff0000;" x="205.299128" xlink:href="#m9784a3a184" y="198.063407"/>
     <use style="fill:#ff0000;stroke:#ff0000;" x="208.374744" xlink:href="#m9784a3a184" y="195.52989"/>
     <use style="fill:#ff0000;stroke:#ff0000;" x="210.483463" xlink:href="#m9784a3a184" y="194.055485"/>
     <use style="fill:#ff0000;stroke:#ff0000;" x="213.13895" xlink:href="#m9784a3a184" y="191.311118"/>
     <use style="fill:#ff0000;stroke:#ff0000;" x="215.258912" xlink:href="#m9784a3a184" y="190.322106"/>
     <use style="fill:#ff0000;stroke:#ff0000;" x="217.260652" xlink:href="#m9784a3a184" y="189.2842"/>
     <use style="fill:#ff0000;stroke:#ff0000;" x="219.37426" xlink:href="#m9784a3a184" y="187.126792"/>
     <use style="fill:#ff0000;stroke:#ff0000;" x="220.535559" xlink:href="#m9784a3a184" y="186.406232"/>
     <use style="fill:#ff0000;stroke:#ff0000;" x="222.599518" xlink:href="#m9784a3a184" y="184.28319"/>
     <use style="fill:#ff0000;stroke:#ff0000;" x="223.760103" xlink:href="#m9784a3a184" y="183.57441"/>
     <use style="fill:#ff0000;stroke:#ff0000;" x="225.545201" xlink:href="#m9784a3a184" y="181.499662"/>
     <use style="fill:#ff0000;stroke:#ff0000;" x="227.206255" xlink:href="#m9784a3a184" y="179.447225"/>
     <use style="fill:#ff0000;stroke:#ff0000;" x="231.256529" xlink:href="#m9784a3a184" y="176.539421"/>
     <use style="fill:#ff0000;stroke:#ff0000;" x="234.012896" xlink:href="#m9784a3a184" y="174.162655"/>
     <use style="fill:#ff0000;stroke:#ff0000;" x="236.910944" xlink:href="#m9784a3a184" y="171.815696"/>
     <use style="fill:#ff0000;stroke:#ff0000;" x="238.620274" xlink:href="#m9784a3a184" y="169.857939"/>
     <use style="fill:#ff0000;stroke:#ff0000;" x="241.977286" xlink:href="#m9784a3a184" y="168.641195"/>
     <use style="fill:#ff0000;stroke:#ff0000;" x="243.806575" xlink:href="#m9784a3a184" y="166.717456"/>
     <use style="fill:#ff0000;stroke:#ff0000;" x="245.379773" xlink:href="#m9784a3a184" y="165.232673"/>
     <use style="fill:#ff0000;stroke:#ff0000;" x="246.43676" xlink:href="#m9784a3a184" y="164.05756"/>
     <use style="fill:#ff0000;stroke:#ff0000;" x="247.711874" xlink:href="#m9784a3a184" y="162.92538"/>
     <use style="fill:#ff0000;stroke:#ff0000;" x="250.792244" xlink:href="#m9784a3a184" y="161.749436"/>
     <use style="fill:#ff0000;stroke:#ff0000;" x="251.586815" xlink:href="#m9784a3a184" y="161.052271"/>
     <use style="fill:#ff0000;stroke:#ff0000;" x="252.406889" xlink:href="#m9784a3a184" y="160.349435"/>
     <use style="fill:#ff0000;stroke:#ff0000;" x="252.965982" xlink:href="#m9784a3a184" y="159.876151"/>
     <use style="fill:#ff0000;stroke:#ff0000;" x="253.76241" xlink:href="#m9784a3a184" y="159.178858"/>
     <use style="fill:#ff0000;stroke:#ff0000;" x="254.592241" xlink:href="#m9784a3a184" y="158.607994"/>
     <use style="fill:#ff0000;stroke:#ff0000;" x="256.260178" xlink:href="#m9784a3a184" y="156.795136"/>
     <use style="fill:#ff0000;stroke:#ff0000;" x="257.91343" xlink:href="#m9784a3a184" y="154.998379"/>
     <use style="fill:#ff0000;stroke:#ff0000;" x="259.25443" xlink:href="#m9784a3a184" y="153.929962"/>
     <use style="fill:#ff0000;stroke:#ff0000;" x="260.15209" xlink:href="#m9784a3a184" y="153.321134"/>
     <use style="fill:#ff0000;stroke:#ff0000;" x="261.182442" xlink:href="#m9784a3a184" y="152.269448"/>
     <use style="fill:#ff0000;stroke:#ff0000;" x="262.744828" xlink:href="#m9784a3a184" y="151.350916"/>
     <use style="fill:#ff0000;stroke:#ff0000;" x="263.800268" xlink:href="#m9784a3a184" y="150.442402"/>
     <use style="fill:#ff0000;stroke:#ff0000;" x="265.440184" xlink:href="#m9784a3a184" y="148.745722"/>
     <use style="fill:#ff0000;stroke:#ff0000;" x="266.706513" xlink:href="#m9784a3a184" y="147.584333"/>
     <use style="fill:#ff0000;stroke:#ff0000;" x="267.74121" xlink:href="#m9784a3a184" y="146.959669"/>
     <use style="fill:#ff0000;stroke:#ff0000;" x="269.322514" xlink:href="#m9784a3a184" y="146.149813"/>
     <use style="fill:#ff0000;stroke:#ff0000;" x="270.42078" xlink:href="#m9784a3a184" y="145.418674"/>
     <use style="fill:#ff0000;stroke:#ff0000;" x="271.443292" xlink:href="#m9784a3a184" y="144.814288"/>
     <use style="fill:#ff0000;stroke:#ff0000;" x="271.872636" xlink:href="#m9784a3a184" y="144.646979"/>
     <use style="fill:#ff0000;stroke:#ff0000;" x="273.487454" xlink:href="#m9784a3a184" y="142.970952"/>
     <use style="fill:#ff0000;stroke:#ff0000;" x="276.189372" xlink:href="#m9784a3a184" y="141.002276"/>
     <use style="fill:#ff0000;stroke:#ff0000;" x="278.786261" xlink:href="#m9784a3a184" y="139.274157"/>
     <use style="fill:#ff0000;stroke:#ff0000;" x="280.169349" xlink:href="#m9784a3a184" y="137.968783"/>
     <use style="fill:#ff0000;stroke:#ff0000;" x="284.469263" xlink:href="#m9784a3a184" y="135.524895"/>
     <use style="fill:#ff0000;stroke:#ff0000;" x="286.179277" xlink:href="#m9784a3a184" y="133.637871"/>
     <use style="fill:#ff0000;stroke:#ff0000;" x="290.194571" xlink:href="#m9784a3a184" y="131.277313"/>
     <use style="fill:#ff0000;stroke:#ff0000;" x="292.013586" xlink:href="#m9784a3a184" y="129.533078"/>
     <use style="fill:#ff0000;stroke:#ff0000;" x="294.418239" xlink:href="#m9784a3a184" y="127.800767"/>
     <use style="fill:#ff0000;stroke:#ff0000;" x="296.886936" xlink:href="#m9784a3a184" y="126.084318"/>
     <use style="fill:#ff0000;stroke:#ff0000;" x="298.594881" xlink:href="#m9784a3a184" y="125.46357"/>
     <use style="fill:#ff0000;stroke:#ff0000;" x="300.01198" xlink:href="#m9784a3a184" y="124.173041"/>
     <use style="fill:#ff0000;stroke:#ff0000;" x="301.498224" xlink:href="#m9784a3a184" y="122.672975"/>
     <use style="fill:#ff0000;stroke:#ff0000;" x="303.696009" xlink:href="#m9784a3a184" y="121.728283"/>
     <use style="fill:#ff0000;stroke:#ff0000;" x="306.064539" xlink:href="#m9784a3a184" y="120.337283"/>
     <use style="fill:#ff0000;stroke:#ff0000;" x="308.158855" xlink:href="#m9784a3a184" y="119.177831"/>
     <use style="fill:#ff0000;stroke:#ff0000;" x="308.5357" xlink:href="#m9784a3a184" y="119.178049"/>
     <use style="fill:#ff0000;stroke:#ff0000;" x="308.736814" xlink:href="#m9784a3a184" y="119.178267"/>
     <use style="fill:#ff0000;stroke:#ff0000;" x="310.118371" xlink:href="#m9784a3a184" y="117.748862"/>
     <use style="fill:#ff0000;stroke:#ff0000;" x="311.246618" xlink:href="#m9784a3a184" y="116.68571"/>
     <use style="fill:#ff0000;stroke:#ff0000;" x="312.397554" xlink:href="#m9784a3a184" y="115.628856"/>
     <use style="fill:#ff0000;stroke:#ff0000;" x="313.075508" xlink:href="#m9784a3a184" y="114.969501"/>
     <use style="fill:#ff0000;stroke:#ff0000;" x="314.203707" xlink:href="#m9784a3a184" y="114.448305"/>
     <use style="fill:#ff0000;stroke:#ff0000;" x="315.014542" xlink:href="#m9784a3a184" y="114.01533"/>
     <use style="fill:#ff0000;stroke:#ff0000;" x="316.578884" xlink:href="#m9784a3a184" y="112.592673"/>
     <use style="fill:#ff0000;stroke:#ff0000;" x="318.116387" xlink:href="#m9784a3a184" y="111.360748"/>
     <use style="fill:#ff0000;stroke:#ff0000;" x="319.051676" xlink:href="#m9784a3a184" y="110.530827"/>
     <use style="fill:#ff0000;stroke:#ff0000;" x="319.957436" xlink:href="#m9784a3a184" y="109.516424"/>
     <use style="fill:#ff0000;stroke:#ff0000;" x="321.466999" xlink:href="#m9784a3a184" y="108.055597"/>
     <use style="fill:#ff0000;stroke:#ff0000;" x="322.989562" xlink:href="#m9784a3a184" y="106.721139"/>
     <use style="fill:#ff0000;stroke:#ff0000;" x="323.957621" xlink:href="#m9784a3a184" y="105.805777"/>
     <use style="fill:#ff0000;stroke:#ff0000;" x="324.376746" xlink:href="#m9784a3a184" y="105.611119"/>
     <use style="fill:#ff0000;stroke:#ff0000;" x="325.995052" xlink:href="#m9784a3a184" y="104.301279"/>
     <use style="fill:#ff0000;stroke:#ff0000;" x="327.316678" xlink:href="#m9784a3a184" y="103.376754"/>
     <use style="fill:#ff0000;stroke:#ff0000;" x="328.65038" xlink:href="#m9784a3a184" y="102.45545"/>
     <use style="fill:#ff0000;stroke:#ff0000;" x="330.339904" xlink:href="#m9784a3a184" y="101.257153"/>
     <use style="fill:#ff0000;stroke:#ff0000;" x="332.464349" xlink:href="#m9784a3a184" y="100.386259"/>
     <use style="fill:#ff0000;stroke:#ff0000;" x="333.918677" xlink:href="#m9784a3a184" y="99.254673"/>
     <use style="fill:#ff0000;stroke:#ff0000;" x="335.000775" xlink:href="#m9784a3a184" y="98.167033"/>
     <use style="fill:#ff0000;stroke:#ff0000;" x="336.25342" xlink:href="#m9784a3a184" y="97.046035"/>
     <use style="fill:#ff0000;stroke:#ff0000;" x="337.728644" xlink:href="#m9784a3a184" y="95.930096"/>
     <use style="fill:#ff0000;stroke:#ff0000;" x="339.995579" xlink:href="#m9784a3a184" y="94.646141"/>
     <use style="fill:#ff0000;stroke:#ff0000;" x="341.768771" xlink:href="#m9784a3a184" y="93.62944"/>
     <use style="fill:#ff0000;stroke:#ff0000;" x="342.482427" xlink:href="#m9784a3a184" y="93.232858"/>
     <use style="fill:#ff0000;stroke:#ff0000;" x="343.218245" xlink:href="#m9784a3a184" y="92.609183"/>
     <use style="fill:#ff0000;stroke:#ff0000;" x="343.582349" xlink:href="#m9784a3a184" y="92.609346"/>
     <use style="fill:#ff0000;stroke:#ff0000;" x="343.849835" xlink:href="#m9784a3a184" y="92.609509"/>
     <use style="fill:#ff0000;stroke:#ff0000;" x="345.468904" xlink:href="#m9784a3a184" y="91.50139"/>
     <use style="fill:#ff0000;stroke:#ff0000;" x="346.700502" xlink:href="#m9784a3a184" y="90.974591"/>
     <use style="fill:#ff0000;stroke:#ff0000;" x="348.962839" xlink:href="#m9784a3a184" y="89.45293"/>
     <use style="fill:#ff0000;stroke:#ff0000;" x="350.428327" xlink:href="#m9784a3a184" y="88.183046"/>
     <use style="fill:#ff0000;stroke:#ff0000;" x="353.260094" xlink:href="#m9784a3a184" y="86.508286"/>
     <use style="fill:#ff0000;stroke:#ff0000;" x="354.898046" xlink:href="#m9784a3a184" y="85.257574"/>
     <use style="fill:#ff0000;stroke:#ff0000;" x="356.792416" xlink:href="#m9784a3a184" y="84.012673"/>
     <use style="fill:#ff0000;stroke:#ff0000;" x="358.529844" xlink:href="#m9784a3a184" y="82.775628"/>
     <use style="fill:#ff0000;stroke:#ff0000;" x="359.857609" xlink:href="#m9784a3a184" y="81.814425"/>
     <use style="fill:#ff0000;stroke:#ff0000;" x="361.459888" xlink:href="#m9784a3a184" y="80.572375"/>
     <use style="fill:#ff0000;stroke:#ff0000;" x="362.798832" xlink:href="#m9784a3a184" y="79.215334"/>
     <use style="fill:#ff0000;stroke:#ff0000;" x="364.308671" xlink:href="#m9784a3a184" y="77.884455"/>
     <use style="fill:#ff0000;stroke:#ff0000;" x="365.716805" xlink:href="#m9784a3a184" y="76.636215"/>
     <use style="fill:#ff0000;stroke:#ff0000;" x="366.46082" xlink:href="#m9784a3a184" y="76.15331"/>
     <use style="fill:#ff0000;stroke:#ff0000;" x="367.765349" xlink:href="#m9784a3a184" y="74.917326"/>
     <use style="fill:#ff0000;stroke:#ff0000;" x="369.346182" xlink:href="#m9784a3a184" y="73.497126"/>
     <use style="fill:#ff0000;stroke:#ff0000;" x="370.604878" xlink:href="#m9784a3a184" y="72.44359"/>
     <use style="fill:#ff0000;stroke:#ff0000;" x="371.529587" xlink:href="#m9784a3a184" y="71.690599"/>
     <use style="fill:#ff0000;stroke:#ff0000;" x="372.702313" xlink:href="#m9784a3a184" y="70.681124"/>
     <use style="fill:#ff0000;stroke:#ff0000;" x="373.90633" xlink:href="#m9784a3a184" y="69.642964"/>
     <use style="fill:#ff0000;stroke:#ff0000;" x="376.27589" xlink:href="#m9784a3a184" y="67.991614"/>
     <use style="fill:#ff0000;stroke:#ff0000;" x="377.433876" xlink:href="#m9784a3a184" y="66.863573"/>
     <use style="fill:#ff0000;stroke:#ff0000;" x="379.07651" xlink:href="#m9784a3a184" y="65.64634"/>
     <use style="fill:#ff0000;stroke:#ff0000;" x="379.750105" xlink:href="#m9784a3a184" y="65.315463"/>
     <use style="fill:#ff0000;stroke:#ff0000;" x="380.454714" xlink:href="#m9784a3a184" y="64.608884"/>
     <use style="fill:#ff0000;stroke:#ff0000;" x="382.733003" xlink:href="#m9784a3a184" y="63.169775"/>
     <use style="fill:#ff0000;stroke:#ff0000;" x="383.800856" xlink:href="#m9784a3a184" y="62.908141"/>
     <use style="fill:#ff0000;stroke:#ff0000;" x="384.58583" xlink:href="#m9784a3a184" y="62.338844"/>
     <use style="fill:#ff0000;stroke:#ff0000;" x="386.070086" xlink:href="#m9784a3a184" y="61.118949"/>
     <use style="fill:#ff0000;stroke:#ff0000;" x="387.319908" xlink:href="#m9784a3a184" y="60.22011"/>
     <use style="fill:#ff0000;stroke:#ff0000;" x="388.294542" xlink:href="#m9784a3a184" y="59.577847"/>
     <use style="fill:#ff0000;stroke:#ff0000;" x="389.77572" xlink:href="#m9784a3a184" y="58.831972"/>
     <use style="fill:#ff0000;stroke:#ff0000;" x="391.299469" xlink:href="#m9784a3a184" y="57.756385"/>
     <use style="fill:#ff0000;stroke:#ff0000;" x="392.065973" xlink:href="#m9784a3a184" y="57.229609"/>
     <use style="fill:#ff0000;stroke:#ff0000;" x="393.689231" xlink:href="#m9784a3a184" y="56.162429"/>
     <use style="fill:#ff0000;stroke:#ff0000;" x="395.095865" xlink:href="#m9784a3a184" y="55.123026"/>
     <use style="fill:#ff0000;stroke:#ff0000;" x="398.487273" xlink:href="#m9784a3a184" y="53.568"/>
    </g>
   </g>
   <g id="patch_7">
    <path d="M 57.6 307.584 
L 57.6 41.472 
" style="fill:none;stroke:#000000;stroke-linecap:square;stroke-linejoin:miter;stroke-width:0.8;"/>
   </g>
   <g id="patch_8">
    <path d="M 414.72 307.584 
L 414.72 41.472 
" style="fill:none;stroke:#000000;stroke-linecap:square;stroke-linejoin:miter;stroke-width:0.8;"/>
   </g>
   <g id="patch_9">
    <path d="M 57.6 307.584 
L 414.72 307.584 
" style="fill:none;stroke:#000000;stroke-linecap:square;stroke-linejoin:miter;stroke-width:0.8;"/>
   </g>
   <g id="patch_10">
    <path d="M 57.6 41.472 
L 414.72 41.472 
" style="fill:none;stroke:#000000;stroke-linecap:square;stroke-linejoin:miter;stroke-width:0.8;"/>
   </g>
  </g>
 </g>
 <defs>
  <clipPath id="p2139869cbd">
   <rect height="266.112" width="357.12" x="57.6" y="41.472"/>
  </clipPath>
 </defs>
</svg>
