<?xml version="1.0" encoding="utf-8" standalone="no"?>
<!DOCTYPE svg PUBLIC "-//W3C//DTD SVG 1.1//EN"
  "http://www.w3.org/Graphics/SVG/1.1/DTD/svg11.dtd">
<!-- Created with matplotlib (http://matplotlib.org/) -->
<svg height="345.6pt" version="1.1" viewBox="0 0 460.8 345.6" width="460.8pt" xmlns="http://www.w3.org/2000/svg" xmlns:xlink="http://www.w3.org/1999/xlink">
 <defs>
  <style type="text/css">
*{stroke-linecap:butt;stroke-linejoin:round;}
  </style>
 </defs>
 <g id="figure_1">
  <g id="patch_1">
   <path d="M 0 345.6 
L 460.8 345.6 
L 460.8 0 
L 0 0 
z
" style="fill:#ffffff;"/>
  </g>
  <g id="axes_1">
   <g id="patch_2">
    <path d="M 57.6 307.584 
L 414.72 307.584 
L 414.72 41.472 
L 57.6 41.472 
z
" style="fill:#ffffff;"/>
   </g>
   <g id="matplotlib.axis_1">
    <g id="xtick_1">
     <g id="line2d_1">
      <defs>
       <path d="M 0 0 
L 0 3.5 
" id="m20b9ca88b0" style="stroke:#000000;stroke-width:0.8;"/>
      </defs>
      <g>
       <use style="stroke:#000000;stroke-width:0.8;" x="157.642745" xlink:href="#m20b9ca88b0" y="307.584"/>
      </g>
     </g>
     <g id="text_1">
      <!-- $\mathdefault{10^{4}}$ -->
      <defs>
       <path d="M 12.40625 8.296875 
L 28.515625 8.296875 
L 28.515625 63.921875 
L 10.984375 60.40625 
L 10.984375 69.390625 
L 28.421875 72.90625 
L 38.28125 72.90625 
L 38.28125 8.296875 
L 54.390625 8.296875 
L 54.390625 0 
L 12.40625 0 
z
" id="DejaVuSans-31"/>
       <path d="M 31.78125 66.40625 
Q 24.171875 66.40625 20.328125 58.90625 
Q 16.5 51.421875 16.5 36.375 
Q 16.5 21.390625 20.328125 13.890625 
Q 24.171875 6.390625 31.78125 6.390625 
Q 39.453125 6.390625 43.28125 13.890625 
Q 47.125 21.390625 47.125 36.375 
Q 47.125 51.421875 43.28125 58.90625 
Q 39.453125 66.40625 31.78125 66.40625 
z
M 31.78125 74.21875 
Q 44.046875 74.21875 50.515625 64.515625 
Q 56.984375 54.828125 56.984375 36.375 
Q 56.984375 17.96875 50.515625 8.265625 
Q 44.046875 -1.421875 31.78125 -1.421875 
Q 19.53125 -1.421875 13.0625 8.265625 
Q 6.59375 17.96875 6.59375 36.375 
Q 6.59375 54.828125 13.0625 64.515625 
Q 19.53125 74.21875 31.78125 74.21875 
z
" id="DejaVuSans-30"/>
       <path d="M 37.796875 64.3125 
L 12.890625 25.390625 
L 37.796875 25.390625 
z
M 35.203125 72.90625 
L 47.609375 72.90625 
L 47.609375 25.390625 
L 58.015625 25.390625 
L 58.015625 17.1875 
L 47.609375 17.1875 
L 47.609375 0 
L 37.796875 0 
L 37.796875 17.1875 
L 4.890625 17.1875 
L 4.890625 26.703125 
z
" id="DejaVuSans-34"/>
      </defs>
      <g transform="translate(148.842745 322.182437)scale(0.1 -0.1)">
       <use transform="translate(0 0.684375)" xlink:href="#DejaVuSans-31"/>
       <use transform="translate(63.623047 0.684375)" xlink:href="#DejaVuSans-30"/>
       <use transform="translate(128.203125 38.965625)scale(0.7)" xlink:href="#DejaVuSans-34"/>
      </g>
     </g>
    </g>
    <g id="xtick_2">
     <g id="line2d_2">
      <g>
       <use style="stroke:#000000;stroke-width:0.8;" x="395.905863" xlink:href="#m20b9ca88b0" y="307.584"/>
      </g>
     </g>
     <g id="text_2">
      <!-- $\mathdefault{10^{5}}$ -->
      <defs>
       <path d="M 10.796875 72.90625 
L 49.515625 72.90625 
L 49.515625 64.59375 
L 19.828125 64.59375 
L 19.828125 46.734375 
Q 21.96875 47.46875 24.109375 47.828125 
Q 26.265625 48.1875 28.421875 48.1875 
Q 40.625 48.1875 47.75 41.5 
Q 54.890625 34.8125 54.890625 23.390625 
Q 54.890625 11.625 47.5625 5.09375 
Q 40.234375 -1.421875 26.90625 -1.421875 
Q 22.3125 -1.421875 17.546875 -0.640625 
Q 12.796875 0.140625 7.71875 1.703125 
L 7.71875 11.625 
Q 12.109375 9.234375 16.796875 8.0625 
Q 21.484375 6.890625 26.703125 6.890625 
Q 35.15625 6.890625 40.078125 11.328125 
Q 45.015625 15.765625 45.015625 23.390625 
Q 45.015625 31 40.078125 35.4375 
Q 35.15625 39.890625 26.703125 39.890625 
Q 22.75 39.890625 18.8125 39.015625 
Q 14.890625 38.140625 10.796875 36.28125 
z
" id="DejaVuSans-35"/>
      </defs>
      <g transform="translate(387.105863 322.182437)scale(0.1 -0.1)">
       <use transform="translate(0 0.684375)" xlink:href="#DejaVuSans-31"/>
       <use transform="translate(63.623047 0.684375)" xlink:href="#DejaVuSans-30"/>
       <use transform="translate(128.203125 38.965625)scale(0.7)" xlink:href="#DejaVuSans-35"/>
      </g>
     </g>
    </g>
    <g id="xtick_3">
     <g id="line2d_3">
      <defs>
       <path d="M 0 0 
L 0 2 
" id="mcce32d8a37" style="stroke:#000000;stroke-width:0.6;"/>
      </defs>
      <g>
       <use style="stroke:#000000;stroke-width:0.6;" x="62.828317" xlink:href="#mcce32d8a37" y="307.584"/>
      </g>
     </g>
    </g>
    <g id="xtick_4">
     <g id="line2d_4">
      <g>
       <use style="stroke:#000000;stroke-width:0.6;" x="85.918399" xlink:href="#mcce32d8a37" y="307.584"/>
      </g>
     </g>
    </g>
    <g id="xtick_5">
     <g id="line2d_5">
      <g>
       <use style="stroke:#000000;stroke-width:0.6;" x="104.78437" xlink:href="#mcce32d8a37" y="307.584"/>
      </g>
     </g>
    </g>
    <g id="xtick_6">
     <g id="line2d_6">
      <g>
       <use style="stroke:#000000;stroke-width:0.6;" x="120.735321" xlink:href="#mcce32d8a37" y="307.584"/>
      </g>
     </g>
    </g>
    <g id="xtick_7">
     <g id="line2d_7">
      <g>
       <use style="stroke:#000000;stroke-width:0.6;" x="134.552663" xlink:href="#mcce32d8a37" y="307.584"/>
      </g>
     </g>
    </g>
    <g id="xtick_8">
     <g id="line2d_8">
      <g>
       <use style="stroke:#000000;stroke-width:0.6;" x="146.740422" xlink:href="#mcce32d8a37" y="307.584"/>
      </g>
     </g>
    </g>
    <g id="xtick_9">
     <g id="line2d_9">
      <g>
       <use style="stroke:#000000;stroke-width:0.6;" x="229.36709" xlink:href="#mcce32d8a37" y="307.584"/>
      </g>
     </g>
    </g>
    <g id="xtick_10">
     <g id="line2d_10">
      <g>
       <use style="stroke:#000000;stroke-width:0.6;" x="271.323142" xlink:href="#mcce32d8a37" y="307.584"/>
      </g>
     </g>
    </g>
    <g id="xtick_11">
     <g id="line2d_11">
      <g>
       <use style="stroke:#000000;stroke-width:0.6;" x="301.091435" xlink:href="#mcce32d8a37" y="307.584"/>
      </g>
     </g>
    </g>
    <g id="xtick_12">
     <g id="line2d_12">
      <g>
       <use style="stroke:#000000;stroke-width:0.6;" x="324.181517" xlink:href="#mcce32d8a37" y="307.584"/>
      </g>
     </g>
    </g>
    <g id="xtick_13">
     <g id="line2d_13">
      <g>
       <use style="stroke:#000000;stroke-width:0.6;" x="343.047488" xlink:href="#mcce32d8a37" y="307.584"/>
      </g>
     </g>
    </g>
    <g id="xtick_14">
     <g id="line2d_14">
      <g>
       <use style="stroke:#000000;stroke-width:0.6;" x="358.998439" xlink:href="#mcce32d8a37" y="307.584"/>
      </g>
     </g>
    </g>
    <g id="xtick_15">
     <g id="line2d_15">
      <g>
       <use style="stroke:#000000;stroke-width:0.6;" x="372.815781" xlink:href="#mcce32d8a37" y="307.584"/>
      </g>
     </g>
    </g>
    <g id="xtick_16">
     <g id="line2d_16">
      <g>
       <use style="stroke:#000000;stroke-width:0.6;" x="385.00354" xlink:href="#mcce32d8a37" y="307.584"/>
      </g>
     </g>
    </g>
    <g id="text_3">
     <!-- Execution time (s) -->
     <defs>
      <path d="M 9.8125 72.90625 
L 55.90625 72.90625 
L 55.90625 64.59375 
L 19.671875 64.59375 
L 19.671875 43.015625 
L 54.390625 43.015625 
L 54.390625 34.71875 
L 19.671875 34.71875 
L 19.671875 8.296875 
L 56.78125 8.296875 
L 56.78125 0 
L 9.8125 0 
z
" id="DejaVuSans-45"/>
      <path d="M 54.890625 54.6875 
L 35.109375 28.078125 
L 55.90625 0 
L 45.3125 0 
L 29.390625 21.484375 
L 13.484375 0 
L 2.875 0 
L 24.125 28.609375 
L 4.6875 54.6875 
L 15.28125 54.6875 
L 29.78125 35.203125 
L 44.28125 54.6875 
z
" id="DejaVuSans-78"/>
      <path d="M 56.203125 29.59375 
L 56.203125 25.203125 
L 14.890625 25.203125 
Q 15.484375 15.921875 20.484375 11.0625 
Q 25.484375 6.203125 34.421875 6.203125 
Q 39.59375 6.203125 44.453125 7.46875 
Q 49.3125 8.734375 54.109375 11.28125 
L 54.109375 2.78125 
Q 49.265625 0.734375 44.1875 -0.34375 
Q 39.109375 -1.421875 33.890625 -1.421875 
Q 20.796875 -1.421875 13.15625 6.1875 
Q 5.515625 13.8125 5.515625 26.8125 
Q 5.515625 40.234375 12.765625 48.109375 
Q 20.015625 56 32.328125 56 
Q 43.359375 56 49.78125 48.890625 
Q 56.203125 41.796875 56.203125 29.59375 
z
M 47.21875 32.234375 
Q 47.125 39.59375 43.09375 43.984375 
Q 39.0625 48.390625 32.421875 48.390625 
Q 24.90625 48.390625 20.390625 44.140625 
Q 15.875 39.890625 15.1875 32.171875 
z
" id="DejaVuSans-65"/>
      <path d="M 48.78125 52.59375 
L 48.78125 44.1875 
Q 44.96875 46.296875 41.140625 47.34375 
Q 37.3125 48.390625 33.40625 48.390625 
Q 24.65625 48.390625 19.8125 42.84375 
Q 14.984375 37.3125 14.984375 27.296875 
Q 14.984375 17.28125 19.8125 11.734375 
Q 24.65625 6.203125 33.40625 6.203125 
Q 37.3125 6.203125 41.140625 7.25 
Q 44.96875 8.296875 48.78125 10.40625 
L 48.78125 2.09375 
Q 45.015625 0.34375 40.984375 -0.53125 
Q 36.96875 -1.421875 32.421875 -1.421875 
Q 20.0625 -1.421875 12.78125 6.34375 
Q 5.515625 14.109375 5.515625 27.296875 
Q 5.515625 40.671875 12.859375 48.328125 
Q 20.21875 56 33.015625 56 
Q 37.15625 56 41.109375 55.140625 
Q 45.0625 54.296875 48.78125 52.59375 
z
" id="DejaVuSans-63"/>
      <path d="M 8.5 21.578125 
L 8.5 54.6875 
L 17.484375 54.6875 
L 17.484375 21.921875 
Q 17.484375 14.15625 20.5 10.265625 
Q 23.53125 6.390625 29.59375 6.390625 
Q 36.859375 6.390625 41.078125 11.03125 
Q 45.3125 15.671875 45.3125 23.6875 
L 45.3125 54.6875 
L 54.296875 54.6875 
L 54.296875 0 
L 45.3125 0 
L 45.3125 8.40625 
Q 42.046875 3.421875 37.71875 1 
Q 33.40625 -1.421875 27.6875 -1.421875 
Q 18.265625 -1.421875 13.375 4.4375 
Q 8.5 10.296875 8.5 21.578125 
z
M 31.109375 56 
z
" id="DejaVuSans-75"/>
      <path d="M 18.3125 70.21875 
L 18.3125 54.6875 
L 36.8125 54.6875 
L 36.8125 47.703125 
L 18.3125 47.703125 
L 18.3125 18.015625 
Q 18.3125 11.328125 20.140625 9.421875 
Q 21.96875 7.515625 27.59375 7.515625 
L 36.8125 7.515625 
L 36.8125 0 
L 27.59375 0 
Q 17.1875 0 13.234375 3.875 
Q 9.28125 7.765625 9.28125 18.015625 
L 9.28125 47.703125 
L 2.6875 47.703125 
L 2.6875 54.6875 
L 9.28125 54.6875 
L 9.28125 70.21875 
z
" id="DejaVuSans-74"/>
      <path d="M 9.421875 54.6875 
L 18.40625 54.6875 
L 18.40625 0 
L 9.421875 0 
z
M 9.421875 75.984375 
L 18.40625 75.984375 
L 18.40625 64.59375 
L 9.421875 64.59375 
z
" id="DejaVuSans-69"/>
      <path d="M 30.609375 48.390625 
Q 23.390625 48.390625 19.1875 42.75 
Q 14.984375 37.109375 14.984375 27.296875 
Q 14.984375 17.484375 19.15625 11.84375 
Q 23.34375 6.203125 30.609375 6.203125 
Q 37.796875 6.203125 41.984375 11.859375 
Q 46.1875 17.53125 46.1875 27.296875 
Q 46.1875 37.015625 41.984375 42.703125 
Q 37.796875 48.390625 30.609375 48.390625 
z
M 30.609375 56 
Q 42.328125 56 49.015625 48.375 
Q 55.71875 40.765625 55.71875 27.296875 
Q 55.71875 13.875 49.015625 6.21875 
Q 42.328125 -1.421875 30.609375 -1.421875 
Q 18.84375 -1.421875 12.171875 6.21875 
Q 5.515625 13.875 5.515625 27.296875 
Q 5.515625 40.765625 12.171875 48.375 
Q 18.84375 56 30.609375 56 
z
" id="DejaVuSans-6f"/>
      <path d="M 54.890625 33.015625 
L 54.890625 0 
L 45.90625 0 
L 45.90625 32.71875 
Q 45.90625 40.484375 42.875 44.328125 
Q 39.84375 48.1875 33.796875 48.1875 
Q 26.515625 48.1875 22.3125 43.546875 
Q 18.109375 38.921875 18.109375 30.90625 
L 18.109375 0 
L 9.078125 0 
L 9.078125 54.6875 
L 18.109375 54.6875 
L 18.109375 46.1875 
Q 21.34375 51.125 25.703125 53.5625 
Q 30.078125 56 35.796875 56 
Q 45.21875 56 50.046875 50.171875 
Q 54.890625 44.34375 54.890625 33.015625 
z
" id="DejaVuSans-6e"/>
      <path id="DejaVuSans-20"/>
      <path d="M 52 44.1875 
Q 55.375 50.25 60.0625 53.125 
Q 64.75 56 71.09375 56 
Q 79.640625 56 84.28125 50.015625 
Q 88.921875 44.046875 88.921875 33.015625 
L 88.921875 0 
L 79.890625 0 
L 79.890625 32.71875 
Q 79.890625 40.578125 77.09375 44.375 
Q 74.3125 48.1875 68.609375 48.1875 
Q 61.625 48.1875 57.5625 43.546875 
Q 53.515625 38.921875 53.515625 30.90625 
L 53.515625 0 
L 44.484375 0 
L 44.484375 32.71875 
Q 44.484375 40.625 41.703125 44.40625 
Q 38.921875 48.1875 33.109375 48.1875 
Q 26.21875 48.1875 22.15625 43.53125 
Q 18.109375 38.875 18.109375 30.90625 
L 18.109375 0 
L 9.078125 0 
L 9.078125 54.6875 
L 18.109375 54.6875 
L 18.109375 46.1875 
Q 21.1875 51.21875 25.484375 53.609375 
Q 29.78125 56 35.6875 56 
Q 41.65625 56 45.828125 52.96875 
Q 50 49.953125 52 44.1875 
z
" id="DejaVuSans-6d"/>
      <path d="M 31 75.875 
Q 24.46875 64.65625 21.28125 53.65625 
Q 18.109375 42.671875 18.109375 31.390625 
Q 18.109375 20.125 21.3125 9.0625 
Q 24.515625 -2 31 -13.1875 
L 23.1875 -13.1875 
Q 15.875 -1.703125 12.234375 9.375 
Q 8.59375 20.453125 8.59375 31.390625 
Q 8.59375 42.28125 12.203125 53.3125 
Q 15.828125 64.359375 23.1875 75.875 
z
" id="DejaVuSans-28"/>
      <path d="M 44.28125 53.078125 
L 44.28125 44.578125 
Q 40.484375 46.53125 36.375 47.5 
Q 32.28125 48.484375 27.875 48.484375 
Q 21.1875 48.484375 17.84375 46.4375 
Q 14.5 44.390625 14.5 40.28125 
Q 14.5 37.15625 16.890625 35.375 
Q 19.28125 33.59375 26.515625 31.984375 
L 29.59375 31.296875 
Q 39.15625 29.25 43.1875 25.515625 
Q 47.21875 21.78125 47.21875 15.09375 
Q 47.21875 7.46875 41.1875 3.015625 
Q 35.15625 -1.421875 24.609375 -1.421875 
Q 20.21875 -1.421875 15.453125 -0.5625 
Q 10.6875 0.296875 5.421875 2 
L 5.421875 11.28125 
Q 10.40625 8.6875 15.234375 7.390625 
Q 20.0625 6.109375 24.8125 6.109375 
Q 31.15625 6.109375 34.5625 8.28125 
Q 37.984375 10.453125 37.984375 14.40625 
Q 37.984375 18.0625 35.515625 20.015625 
Q 33.0625 21.96875 24.703125 23.78125 
L 21.578125 24.515625 
Q 13.234375 26.265625 9.515625 29.90625 
Q 5.8125 33.546875 5.8125 39.890625 
Q 5.8125 47.609375 11.28125 51.796875 
Q 16.75 56 26.8125 56 
Q 31.78125 56 36.171875 55.265625 
Q 40.578125 54.546875 44.28125 53.078125 
z
" id="DejaVuSans-73"/>
      <path d="M 8.015625 75.875 
L 15.828125 75.875 
Q 23.140625 64.359375 26.78125 53.3125 
Q 30.421875 42.28125 30.421875 31.390625 
Q 30.421875 20.453125 26.78125 9.375 
Q 23.140625 -1.703125 15.828125 -13.1875 
L 8.015625 -13.1875 
Q 14.5 -2 17.703125 9.0625 
Q 20.90625 20.125 20.90625 31.390625 
Q 20.90625 42.671875 17.703125 53.65625 
Q 14.5 64.65625 8.015625 75.875 
z
" id="DejaVuSans-29"/>
     </defs>
     <g transform="translate(190.49125 335.860562)scale(0.1 -0.1)">
      <use xlink:href="#DejaVuSans-45"/>
      <use x="63.183594" xlink:href="#DejaVuSans-78"/>
      <use x="122.316406" xlink:href="#DejaVuSans-65"/>
      <use x="183.839844" xlink:href="#DejaVuSans-63"/>
      <use x="238.820312" xlink:href="#DejaVuSans-75"/>
      <use x="302.199219" xlink:href="#DejaVuSans-74"/>
      <use x="341.408203" xlink:href="#DejaVuSans-69"/>
      <use x="369.191406" xlink:href="#DejaVuSans-6f"/>
      <use x="430.373047" xlink:href="#DejaVuSans-6e"/>
      <use x="493.751953" xlink:href="#DejaVuSans-20"/>
      <use x="525.539062" xlink:href="#DejaVuSans-74"/>
      <use x="564.748047" xlink:href="#DejaVuSans-69"/>
      <use x="592.53125" xlink:href="#DejaVuSans-6d"/>
      <use x="689.943359" xlink:href="#DejaVuSans-65"/>
      <use x="751.466797" xlink:href="#DejaVuSans-20"/>
      <use x="783.253906" xlink:href="#DejaVuSans-28"/>
      <use x="822.267578" xlink:href="#DejaVuSans-73"/>
      <use x="874.367188" xlink:href="#DejaVuSans-29"/>
     </g>
    </g>
   </g>
   <g id="matplotlib.axis_2">
    <g id="ytick_1">
     <g id="line2d_17">
      <defs>
       <path d="M 0 0 
L -3.5 0 
" id="m8ea98507d1" style="stroke:#000000;stroke-width:0.8;"/>
      </defs>
      <g>
       <use style="stroke:#000000;stroke-width:0.8;" x="57.6" xlink:href="#m8ea98507d1" y="295.488"/>
      </g>
     </g>
     <g id="text_4">
      <!-- 0 -->
      <g transform="translate(44.2375 299.287219)scale(0.1 -0.1)">
       <use xlink:href="#DejaVuSans-30"/>
      </g>
     </g>
    </g>
    <g id="ytick_2">
     <g id="line2d_18">
      <g>
       <use style="stroke:#000000;stroke-width:0.8;" x="57.6" xlink:href="#m8ea98507d1" y="260.205084"/>
      </g>
     </g>
     <g id="text_5">
      <!-- 2500 -->
      <defs>
       <path d="M 19.1875 8.296875 
L 53.609375 8.296875 
L 53.609375 0 
L 7.328125 0 
L 7.328125 8.296875 
Q 12.9375 14.109375 22.625 23.890625 
Q 32.328125 33.6875 34.8125 36.53125 
Q 39.546875 41.84375 41.421875 45.53125 
Q 43.3125 49.21875 43.3125 52.78125 
Q 43.3125 58.59375 39.234375 62.25 
Q 35.15625 65.921875 28.609375 65.921875 
Q 23.96875 65.921875 18.8125 64.3125 
Q 13.671875 62.703125 7.8125 59.421875 
L 7.8125 69.390625 
Q 13.765625 71.78125 18.9375 73 
Q 24.125 74.21875 28.421875 74.21875 
Q 39.75 74.21875 46.484375 68.546875 
Q 53.21875 62.890625 53.21875 53.421875 
Q 53.21875 48.921875 51.53125 44.890625 
Q 49.859375 40.875 45.40625 35.40625 
Q 44.1875 33.984375 37.640625 27.21875 
Q 31.109375 20.453125 19.1875 8.296875 
z
" id="DejaVuSans-32"/>
      </defs>
      <g transform="translate(25.15 264.004303)scale(0.1 -0.1)">
       <use xlink:href="#DejaVuSans-32"/>
       <use x="63.623047" xlink:href="#DejaVuSans-35"/>
       <use x="127.246094" xlink:href="#DejaVuSans-30"/>
       <use x="190.869141" xlink:href="#DejaVuSans-30"/>
      </g>
     </g>
    </g>
    <g id="ytick_3">
     <g id="line2d_19">
      <g>
       <use style="stroke:#000000;stroke-width:0.8;" x="57.6" xlink:href="#m8ea98507d1" y="224.922169"/>
      </g>
     </g>
     <g id="text_6">
      <!-- 5000 -->
      <g transform="translate(25.15 228.721387)scale(0.1 -0.1)">
       <use xlink:href="#DejaVuSans-35"/>
       <use x="63.623047" xlink:href="#DejaVuSans-30"/>
       <use x="127.246094" xlink:href="#DejaVuSans-30"/>
       <use x="190.869141" xlink:href="#DejaVuSans-30"/>
      </g>
     </g>
    </g>
    <g id="ytick_4">
     <g id="line2d_20">
      <g>
       <use style="stroke:#000000;stroke-width:0.8;" x="57.6" xlink:href="#m8ea98507d1" y="189.639253"/>
      </g>
     </g>
     <g id="text_7">
      <!-- 7500 -->
      <defs>
       <path d="M 8.203125 72.90625 
L 55.078125 72.90625 
L 55.078125 68.703125 
L 28.609375 0 
L 18.3125 0 
L 43.21875 64.59375 
L 8.203125 64.59375 
z
" id="DejaVuSans-37"/>
      </defs>
      <g transform="translate(25.15 193.438472)scale(0.1 -0.1)">
       <use xlink:href="#DejaVuSans-37"/>
       <use x="63.623047" xlink:href="#DejaVuSans-35"/>
       <use x="127.246094" xlink:href="#DejaVuSans-30"/>
       <use x="190.869141" xlink:href="#DejaVuSans-30"/>
      </g>
     </g>
    </g>
    <g id="ytick_5">
     <g id="line2d_21">
      <g>
       <use style="stroke:#000000;stroke-width:0.8;" x="57.6" xlink:href="#m8ea98507d1" y="154.356337"/>
      </g>
     </g>
     <g id="text_8">
      <!-- 10000 -->
      <g transform="translate(18.7875 158.155556)scale(0.1 -0.1)">
       <use xlink:href="#DejaVuSans-31"/>
       <use x="63.623047" xlink:href="#DejaVuSans-30"/>
       <use x="127.246094" xlink:href="#DejaVuSans-30"/>
       <use x="190.869141" xlink:href="#DejaVuSans-30"/>
       <use x="254.492188" xlink:href="#DejaVuSans-30"/>
      </g>
     </g>
    </g>
    <g id="ytick_6">
     <g id="line2d_22">
      <g>
       <use style="stroke:#000000;stroke-width:0.8;" x="57.6" xlink:href="#m8ea98507d1" y="119.073422"/>
      </g>
     </g>
     <g id="text_9">
      <!-- 12500 -->
      <g transform="translate(18.7875 122.87264)scale(0.1 -0.1)">
       <use xlink:href="#DejaVuSans-31"/>
       <use x="63.623047" xlink:href="#DejaVuSans-32"/>
       <use x="127.246094" xlink:href="#DejaVuSans-35"/>
       <use x="190.869141" xlink:href="#DejaVuSans-30"/>
       <use x="254.492188" xlink:href="#DejaVuSans-30"/>
      </g>
     </g>
    </g>
    <g id="ytick_7">
     <g id="line2d_23">
      <g>
       <use style="stroke:#000000;stroke-width:0.8;" x="57.6" xlink:href="#m8ea98507d1" y="83.790506"/>
      </g>
     </g>
     <g id="text_10">
      <!-- 15000 -->
      <g transform="translate(18.7875 87.589725)scale(0.1 -0.1)">
       <use xlink:href="#DejaVuSans-31"/>
       <use x="63.623047" xlink:href="#DejaVuSans-35"/>
       <use x="127.246094" xlink:href="#DejaVuSans-30"/>
       <use x="190.869141" xlink:href="#DejaVuSans-30"/>
       <use x="254.492188" xlink:href="#DejaVuSans-30"/>
      </g>
     </g>
    </g>
    <g id="ytick_8">
     <g id="line2d_24">
      <g>
       <use style="stroke:#000000;stroke-width:0.8;" x="57.6" xlink:href="#m8ea98507d1" y="48.50759"/>
      </g>
     </g>
     <g id="text_11">
      <!-- 17500 -->
      <g transform="translate(18.7875 52.306809)scale(0.1 -0.1)">
       <use xlink:href="#DejaVuSans-31"/>
       <use x="63.623047" xlink:href="#DejaVuSans-37"/>
       <use x="127.246094" xlink:href="#DejaVuSans-35"/>
       <use x="190.869141" xlink:href="#DejaVuSans-30"/>
       <use x="254.492188" xlink:href="#DejaVuSans-30"/>
      </g>
     </g>
    </g>
    <g id="text_12">
     <!-- Memory (MB) -->
     <defs>
      <path d="M 9.8125 72.90625 
L 24.515625 72.90625 
L 43.109375 23.296875 
L 61.8125 72.90625 
L 76.515625 72.90625 
L 76.515625 0 
L 66.890625 0 
L 66.890625 64.015625 
L 48.09375 14.015625 
L 38.1875 14.015625 
L 19.390625 64.015625 
L 19.390625 0 
L 9.8125 0 
z
" id="DejaVuSans-4d"/>
      <path d="M 41.109375 46.296875 
Q 39.59375 47.171875 37.8125 47.578125 
Q 36.03125 48 33.890625 48 
Q 26.265625 48 22.1875 43.046875 
Q 18.109375 38.09375 18.109375 28.8125 
L 18.109375 0 
L 9.078125 0 
L 9.078125 54.6875 
L 18.109375 54.6875 
L 18.109375 46.1875 
Q 20.953125 51.171875 25.484375 53.578125 
Q 30.03125 56 36.53125 56 
Q 37.453125 56 38.578125 55.875 
Q 39.703125 55.765625 41.0625 55.515625 
z
" id="DejaVuSans-72"/>
      <path d="M 32.171875 -5.078125 
Q 28.375 -14.84375 24.75 -17.8125 
Q 21.140625 -20.796875 15.09375 -20.796875 
L 7.90625 -20.796875 
L 7.90625 -13.28125 
L 13.1875 -13.28125 
Q 16.890625 -13.28125 18.9375 -11.515625 
Q 21 -9.765625 23.484375 -3.21875 
L 25.09375 0.875 
L 2.984375 54.6875 
L 12.5 54.6875 
L 29.59375 11.921875 
L 46.6875 54.6875 
L 56.203125 54.6875 
z
" id="DejaVuSans-79"/>
      <path d="M 19.671875 34.8125 
L 19.671875 8.109375 
L 35.5 8.109375 
Q 43.453125 8.109375 47.28125 11.40625 
Q 51.125 14.703125 51.125 21.484375 
Q 51.125 28.328125 47.28125 31.5625 
Q 43.453125 34.8125 35.5 34.8125 
z
M 19.671875 64.796875 
L 19.671875 42.828125 
L 34.28125 42.828125 
Q 41.5 42.828125 45.03125 45.53125 
Q 48.578125 48.25 48.578125 53.8125 
Q 48.578125 59.328125 45.03125 62.0625 
Q 41.5 64.796875 34.28125 64.796875 
z
M 9.8125 72.90625 
L 35.015625 72.90625 
Q 46.296875 72.90625 52.390625 68.21875 
Q 58.5 63.53125 58.5 54.890625 
Q 58.5 48.1875 55.375 44.234375 
Q 52.25 40.28125 46.1875 39.3125 
Q 53.46875 37.75 57.5 32.78125 
Q 61.53125 27.828125 61.53125 20.40625 
Q 61.53125 10.640625 54.890625 5.3125 
Q 48.25 0 35.984375 0 
L 9.8125 0 
z
" id="DejaVuSans-42"/>
     </defs>
     <g transform="translate(12.707812 208.098312)rotate(-90)scale(0.1 -0.1)">
      <use xlink:href="#DejaVuSans-4d"/>
      <use x="86.279297" xlink:href="#DejaVuSans-65"/>
      <use x="147.802734" xlink:href="#DejaVuSans-6d"/>
      <use x="245.214844" xlink:href="#DejaVuSans-6f"/>
      <use x="306.396484" xlink:href="#DejaVuSans-72"/>
      <use x="347.509766" xlink:href="#DejaVuSans-79"/>
      <use x="406.689453" xlink:href="#DejaVuSans-20"/>
      <use x="438.476562" xlink:href="#DejaVuSans-28"/>
      <use x="477.490234" xlink:href="#DejaVuSans-4d"/>
      <use x="563.769531" xlink:href="#DejaVuSans-42"/>
      <use x="632.373047" xlink:href="#DejaVuSans-29"/>
     </g>
    </g>
   </g>
   <g id="line2d_25">
    <path clip-path="url(#pb41f0a38f6)" d="M 73.832727 233.194665 
L 74.816164 232.595085 
L 76.740116 232.238181 
L 80.494938 232.077996 
L 81.49953 231.893706 
L 87.030305 231.7093 
L 87.270883 231.482695 
L 101.246686 231.118334 
L 111.162072 230.936587 
L 117.269782 230.722294 
L 117.821291 230.486093 
L 136.086146 229.640195 
L 138.027136 229.474403 
L 142.008701 229.326589 
L 142.436102 228.834243 
L 151.350525 228.488669 
L 153.769009 228.33652 
L 155.672415 227.981928 
L 164.587033 227.716303 
L 175.54055 227.076316 
L 179.096463 226.603219 
L 179.8692 226.54651 
L 181.157338 226.211688 
L 185.000168 225.652921 
L 186.098082 225.318273 
L 198.128031 224.735053 
L 205.299128 224.552959 
L 217.260652 223.551328 
L 220.535559 223.144479 
L 223.760103 222.691326 
L 225.545201 221.172201 
L 227.206255 220.994559 
L 231.256529 215.486369 
L 234.012896 213.587333 
L 238.620274 213.591091 
L 241.977286 212.169951 
L 243.806575 212.000228 
L 245.379773 211.030333 
L 246.43676 210.783321 
L 247.711874 210.627646 
L 250.792244 207.437595 
L 251.586815 207.404818 
L 253.76241 206.045879 
L 254.592241 205.76505 
L 256.260178 205.57943 
L 257.91343 204.996499 
L 259.25443 203.687621 
L 260.15209 203.374246 
L 261.182442 202.321976 
L 262.744828 199.018564 
L 263.800268 198.782536 
L 265.440184 197.292027 
L 266.706513 197.266707 
L 267.74121 195.610059 
L 269.322514 195.374204 
L 270.42078 194.898044 
L 271.443292 195.107133 
L 271.872636 194.779191 
L 273.487454 193.162315 
L 276.189372 185.940767 
L 278.786261 183.319485 
L 280.169349 183.303299 
L 284.469263 177.150265 
L 286.179277 176.153952 
L 290.194571 173.967787 
L 292.013586 171.753759 
L 294.418239 172.280443 
L 300.01198 171.902209 
L 301.498224 171.49322 
L 303.696009 171.11435 
L 306.064539 169.054147 
L 308.158855 168.807078 
L 308.736814 168.373695 
L 310.118371 168.25438 
L 311.246618 167.784347 
L 312.397554 167.913373 
L 313.075508 167.429814 
L 314.203707 165.227404 
L 315.014542 164.9934 
L 316.578884 164.829284 
L 318.116387 160.382613 
L 319.051676 159.873618 
L 321.466999 159.117785 
L 322.989562 155.504005 
L 323.957621 155.407466 
L 324.376746 154.907431 
L 325.995052 154.717591 
L 327.316678 151.130229 
L 328.65038 149.71643 
L 332.464349 144.982456 
L 333.918677 141.456197 
L 335.000775 141.010443 
L 336.25342 139.761801 
L 337.728644 139.159909 
L 339.995579 134.797868 
L 341.768771 133.394706 
L 342.482427 133.11353 
L 343.218245 132.110627 
L 343.582349 132.110627 
L 343.849835 131.902115 
L 345.468904 131.552149 
L 346.700502 127.843969 
L 348.962839 123.786459 
L 350.428327 124.063704 
L 353.260094 118.043743 
L 354.898046 115.134695 
L 358.529844 115.342339 
L 359.857609 114.924391 
L 361.459888 114.924333 
L 362.798832 111.92366 
L 364.308671 111.595024 
L 366.46082 110.884454 
L 367.765349 110.655305 
L 369.346182 107.385769 
L 370.604878 106.998285 
L 371.529587 106.329625 
L 372.702313 105.850401 
L 373.90633 100.783109 
L 376.27589 91.375454 
L 379.07651 89.691809 
L 379.750105 89.691809 
L 380.454714 89.373926 
L 382.733003 81.41036 
L 383.800856 81.016287 
L 384.58583 81.006575 
L 386.070086 80.118536 
L 387.319908 78.393096 
L 389.77572 75.968707 
L 391.299469 71.271556 
L 392.065973 70.479766 
L 393.689231 65.002676 
L 395.095865 64.772429 
L 398.487273 53.568 
L 398.487273 53.568 
" style="fill:none;stroke:#000000;stroke-linecap:square;stroke-width:1.5;"/>
    <defs>
     <path d="M 0 3 
C 0.795609 3 1.55874 2.683901 2.12132 2.12132 
C 2.683901 1.55874 3 0.795609 3 0 
C 3 -0.795609 2.683901 -1.55874 2.12132 -2.12132 
C 1.55874 -2.683901 0.795609 -3 0 -3 
C -0.795609 -3 -1.55874 -2.683901 -2.12132 -2.12132 
C -2.683901 -1.55874 -3 -0.795609 -3 0 
C -3 0.795609 -2.683901 1.55874 -2.12132 2.12132 
C -1.55874 2.683901 -0.795609 3 0 3 
z
" id="mb71bba654c" style="stroke:#000000;"/>
    </defs>
    <g clip-path="url(#pb41f0a38f6)">
     <use style="stroke:#000000;" x="73.832727" xlink:href="#mb71bba654c" y="233.194665"/>
     <use style="stroke:#000000;" x="74.604469" xlink:href="#mb71bba654c" y="232.753767"/>
     <use style="stroke:#000000;" x="74.816164" xlink:href="#mb71bba654c" y="232.595085"/>
     <use style="stroke:#000000;" x="76.072255" xlink:href="#mb71bba654c" y="232.416228"/>
     <use style="stroke:#000000;" x="76.740116" xlink:href="#mb71bba654c" y="232.238181"/>
     <use style="stroke:#000000;" x="78.912357" xlink:href="#mb71bba654c" y="232.162569"/>
     <use style="stroke:#000000;" x="80.494938" xlink:href="#mb71bba654c" y="232.077996"/>
     <use style="stroke:#000000;" x="81.49953" xlink:href="#mb71bba654c" y="231.893706"/>
     <use style="stroke:#000000;" x="87.030305" xlink:href="#mb71bba654c" y="231.7093"/>
     <use style="stroke:#000000;" x="87.270883" xlink:href="#mb71bba654c" y="231.482695"/>
     <use style="stroke:#000000;" x="91.09478" xlink:href="#mb71bba654c" y="231.360316"/>
     <use style="stroke:#000000;" x="95.089159" xlink:href="#mb71bba654c" y="231.241811"/>
     <use style="stroke:#000000;" x="98.713706" xlink:href="#mb71bba654c" y="231.211924"/>
     <use style="stroke:#000000;" x="101.246686" xlink:href="#mb71bba654c" y="231.118334"/>
     <use style="stroke:#000000;" x="104.904148" xlink:href="#mb71bba654c" y="231.063301"/>
     <use style="stroke:#000000;" x="108.601993" xlink:href="#mb71bba654c" y="230.974509"/>
     <use style="stroke:#000000;" x="111.162072" xlink:href="#mb71bba654c" y="230.936587"/>
     <use style="stroke:#000000;" x="117.269782" xlink:href="#mb71bba654c" y="230.722294"/>
     <use style="stroke:#000000;" x="117.821291" xlink:href="#mb71bba654c" y="230.486093"/>
     <use style="stroke:#000000;" x="121.846984" xlink:href="#mb71bba654c" y="230.30978"/>
     <use style="stroke:#000000;" x="126.242222" xlink:href="#mb71bba654c" y="230.151734"/>
     <use style="stroke:#000000;" x="128.58206" xlink:href="#mb71bba654c" y="230.09884"/>
     <use style="stroke:#000000;" x="131.422655" xlink:href="#mb71bba654c" y="229.97993"/>
     <use style="stroke:#000000;" x="133.555624" xlink:href="#mb71bba654c" y="229.847493"/>
     <use style="stroke:#000000;" x="136.086146" xlink:href="#mb71bba654c" y="229.640195"/>
     <use style="stroke:#000000;" x="138.027136" xlink:href="#mb71bba654c" y="229.474403"/>
     <use style="stroke:#000000;" x="142.008701" xlink:href="#mb71bba654c" y="229.326589"/>
     <use style="stroke:#000000;" x="142.225621" xlink:href="#mb71bba654c" y="229.02362"/>
     <use style="stroke:#000000;" x="142.436102" xlink:href="#mb71bba654c" y="228.834243"/>
     <use style="stroke:#000000;" x="147.619096" xlink:href="#mb71bba654c" y="228.695794"/>
     <use style="stroke:#000000;" x="151.350525" xlink:href="#mb71bba654c" y="228.488669"/>
     <use style="stroke:#000000;" x="153.769009" xlink:href="#mb71bba654c" y="228.33652"/>
     <use style="stroke:#000000;" x="155.672415" xlink:href="#mb71bba654c" y="227.981928"/>
     <use style="stroke:#000000;" x="158.064649" xlink:href="#mb71bba654c" y="227.925335"/>
     <use style="stroke:#000000;" x="160.942454" xlink:href="#mb71bba654c" y="227.775498"/>
     <use style="stroke:#000000;" x="164.587033" xlink:href="#mb71bba654c" y="227.716303"/>
     <use style="stroke:#000000;" x="166.865939" xlink:href="#mb71bba654c" y="227.597913"/>
     <use style="stroke:#000000;" x="170.021761" xlink:href="#mb71bba654c" y="227.450041"/>
     <use style="stroke:#000000;" x="173.427503" xlink:href="#mb71bba654c" y="227.254189"/>
     <use style="stroke:#000000;" x="175.54055" xlink:href="#mb71bba654c" y="227.076316"/>
     <use style="stroke:#000000;" x="177.078192" xlink:href="#mb71bba654c" y="226.845086"/>
     <use style="stroke:#000000;" x="179.096463" xlink:href="#mb71bba654c" y="226.603219"/>
     <use style="stroke:#000000;" x="179.8692" xlink:href="#mb71bba654c" y="226.54651"/>
     <use style="stroke:#000000;" x="181.157338" xlink:href="#mb71bba654c" y="226.211688"/>
     <use style="stroke:#000000;" x="183.298803" xlink:href="#mb71bba654c" y="225.885596"/>
     <use style="stroke:#000000;" x="185.000168" xlink:href="#mb71bba654c" y="225.652921"/>
     <use style="stroke:#000000;" x="186.098082" xlink:href="#mb71bba654c" y="225.318273"/>
     <use style="stroke:#000000;" x="191.584518" xlink:href="#mb71bba654c" y="225.006922"/>
     <use style="stroke:#000000;" x="194.964253" xlink:href="#mb71bba654c" y="224.853443"/>
     <use style="stroke:#000000;" x="198.128031" xlink:href="#mb71bba654c" y="224.735053"/>
     <use style="stroke:#000000;" x="201.664506" xlink:href="#mb71bba654c" y="224.686726"/>
     <use style="stroke:#000000;" x="205.299128" xlink:href="#mb71bba654c" y="224.552959"/>
     <use style="stroke:#000000;" x="208.374744" xlink:href="#mb71bba654c" y="224.313174"/>
     <use style="stroke:#000000;" x="210.483463" xlink:href="#mb71bba654c" y="224.138653"/>
     <use style="stroke:#000000;" x="213.13895" xlink:href="#mb71bba654c" y="223.976676"/>
     <use style="stroke:#000000;" x="215.258912" xlink:href="#mb71bba654c" y="223.736601"/>
     <use style="stroke:#000000;" x="217.260652" xlink:href="#mb71bba654c" y="223.551328"/>
     <use style="stroke:#000000;" x="219.37426" xlink:href="#mb71bba654c" y="223.322006"/>
     <use style="stroke:#000000;" x="220.535559" xlink:href="#mb71bba654c" y="223.144479"/>
     <use style="stroke:#000000;" x="222.599518" xlink:href="#mb71bba654c" y="222.821855"/>
     <use style="stroke:#000000;" x="223.760103" xlink:href="#mb71bba654c" y="222.691326"/>
     <use style="stroke:#000000;" x="225.545201" xlink:href="#mb71bba654c" y="221.172201"/>
     <use style="stroke:#000000;" x="227.206255" xlink:href="#mb71bba654c" y="220.994559"/>
     <use style="stroke:#000000;" x="231.256529" xlink:href="#mb71bba654c" y="215.486369"/>
     <use style="stroke:#000000;" x="234.012896" xlink:href="#mb71bba654c" y="213.587333"/>
     <use style="stroke:#000000;" x="236.910944" xlink:href="#mb71bba654c" y="213.616989"/>
     <use style="stroke:#000000;" x="238.620274" xlink:href="#mb71bba654c" y="213.591091"/>
     <use style="stroke:#000000;" x="241.977286" xlink:href="#mb71bba654c" y="212.169951"/>
     <use style="stroke:#000000;" x="243.806575" xlink:href="#mb71bba654c" y="212.000228"/>
     <use style="stroke:#000000;" x="245.379773" xlink:href="#mb71bba654c" y="211.030333"/>
     <use style="stroke:#000000;" x="246.43676" xlink:href="#mb71bba654c" y="210.783321"/>
     <use style="stroke:#000000;" x="247.711874" xlink:href="#mb71bba654c" y="210.627646"/>
     <use style="stroke:#000000;" x="250.792244" xlink:href="#mb71bba654c" y="207.437595"/>
     <use style="stroke:#000000;" x="251.586815" xlink:href="#mb71bba654c" y="207.404818"/>
     <use style="stroke:#000000;" x="252.406889" xlink:href="#mb71bba654c" y="206.847611"/>
     <use style="stroke:#000000;" x="252.965982" xlink:href="#mb71bba654c" y="206.492442"/>
     <use style="stroke:#000000;" x="253.76241" xlink:href="#mb71bba654c" y="206.045879"/>
     <use style="stroke:#000000;" x="254.592241" xlink:href="#mb71bba654c" y="205.76505"/>
     <use style="stroke:#000000;" x="256.260178" xlink:href="#mb71bba654c" y="205.57943"/>
     <use style="stroke:#000000;" x="257.91343" xlink:href="#mb71bba654c" y="204.996499"/>
     <use style="stroke:#000000;" x="259.25443" xlink:href="#mb71bba654c" y="203.687621"/>
     <use style="stroke:#000000;" x="260.15209" xlink:href="#mb71bba654c" y="203.374246"/>
     <use style="stroke:#000000;" x="261.182442" xlink:href="#mb71bba654c" y="202.321976"/>
     <use style="stroke:#000000;" x="262.744828" xlink:href="#mb71bba654c" y="199.018564"/>
     <use style="stroke:#000000;" x="263.800268" xlink:href="#mb71bba654c" y="198.782536"/>
     <use style="stroke:#000000;" x="265.440184" xlink:href="#mb71bba654c" y="197.292027"/>
     <use style="stroke:#000000;" x="266.706513" xlink:href="#mb71bba654c" y="197.266707"/>
     <use style="stroke:#000000;" x="267.74121" xlink:href="#mb71bba654c" y="195.610059"/>
     <use style="stroke:#000000;" x="269.322514" xlink:href="#mb71bba654c" y="195.374204"/>
     <use style="stroke:#000000;" x="270.42078" xlink:href="#mb71bba654c" y="194.898044"/>
     <use style="stroke:#000000;" x="271.443292" xlink:href="#mb71bba654c" y="195.107133"/>
     <use style="stroke:#000000;" x="271.872636" xlink:href="#mb71bba654c" y="194.779191"/>
     <use style="stroke:#000000;" x="273.487454" xlink:href="#mb71bba654c" y="193.162315"/>
     <use style="stroke:#000000;" x="276.189372" xlink:href="#mb71bba654c" y="185.940767"/>
     <use style="stroke:#000000;" x="278.786261" xlink:href="#mb71bba654c" y="183.319485"/>
     <use style="stroke:#000000;" x="280.169349" xlink:href="#mb71bba654c" y="183.303299"/>
     <use style="stroke:#000000;" x="284.469263" xlink:href="#mb71bba654c" y="177.150265"/>
     <use style="stroke:#000000;" x="286.179277" xlink:href="#mb71bba654c" y="176.153952"/>
     <use style="stroke:#000000;" x="290.194571" xlink:href="#mb71bba654c" y="173.967787"/>
     <use style="stroke:#000000;" x="292.013586" xlink:href="#mb71bba654c" y="171.753759"/>
     <use style="stroke:#000000;" x="294.418239" xlink:href="#mb71bba654c" y="172.280443"/>
     <use style="stroke:#000000;" x="296.886936" xlink:href="#mb71bba654c" y="172.131762"/>
     <use style="stroke:#000000;" x="298.594881" xlink:href="#mb71bba654c" y="172.130895"/>
     <use style="stroke:#000000;" x="300.01198" xlink:href="#mb71bba654c" y="171.902209"/>
     <use style="stroke:#000000;" x="301.498224" xlink:href="#mb71bba654c" y="171.49322"/>
     <use style="stroke:#000000;" x="303.696009" xlink:href="#mb71bba654c" y="171.11435"/>
     <use style="stroke:#000000;" x="306.064539" xlink:href="#mb71bba654c" y="169.054147"/>
     <use style="stroke:#000000;" x="308.158855" xlink:href="#mb71bba654c" y="168.807078"/>
     <use style="stroke:#000000;" x="308.5357" xlink:href="#mb71bba654c" y="168.519832"/>
     <use style="stroke:#000000;" x="308.736814" xlink:href="#mb71bba654c" y="168.373695"/>
     <use style="stroke:#000000;" x="310.118371" xlink:href="#mb71bba654c" y="168.25438"/>
     <use style="stroke:#000000;" x="311.246618" xlink:href="#mb71bba654c" y="167.784347"/>
     <use style="stroke:#000000;" x="312.397554" xlink:href="#mb71bba654c" y="167.913373"/>
     <use style="stroke:#000000;" x="313.075508" xlink:href="#mb71bba654c" y="167.429814"/>
     <use style="stroke:#000000;" x="314.203707" xlink:href="#mb71bba654c" y="165.227404"/>
     <use style="stroke:#000000;" x="315.014542" xlink:href="#mb71bba654c" y="164.9934"/>
     <use style="stroke:#000000;" x="316.578884" xlink:href="#mb71bba654c" y="164.829284"/>
     <use style="stroke:#000000;" x="318.116387" xlink:href="#mb71bba654c" y="160.382613"/>
     <use style="stroke:#000000;" x="319.051676" xlink:href="#mb71bba654c" y="159.873618"/>
     <use style="stroke:#000000;" x="319.957436" xlink:href="#mb71bba654c" y="159.558394"/>
     <use style="stroke:#000000;" x="321.466999" xlink:href="#mb71bba654c" y="159.117785"/>
     <use style="stroke:#000000;" x="322.989562" xlink:href="#mb71bba654c" y="155.504005"/>
     <use style="stroke:#000000;" x="323.957621" xlink:href="#mb71bba654c" y="155.407466"/>
     <use style="stroke:#000000;" x="324.376746" xlink:href="#mb71bba654c" y="154.907431"/>
     <use style="stroke:#000000;" x="325.995052" xlink:href="#mb71bba654c" y="154.717591"/>
     <use style="stroke:#000000;" x="327.316678" xlink:href="#mb71bba654c" y="151.130229"/>
     <use style="stroke:#000000;" x="328.65038" xlink:href="#mb71bba654c" y="149.71643"/>
     <use style="stroke:#000000;" x="330.339904" xlink:href="#mb71bba654c" y="147.692589"/>
     <use style="stroke:#000000;" x="332.464349" xlink:href="#mb71bba654c" y="144.982456"/>
     <use style="stroke:#000000;" x="333.918677" xlink:href="#mb71bba654c" y="141.456197"/>
     <use style="stroke:#000000;" x="335.000775" xlink:href="#mb71bba654c" y="141.010443"/>
     <use style="stroke:#000000;" x="336.25342" xlink:href="#mb71bba654c" y="139.761801"/>
     <use style="stroke:#000000;" x="337.728644" xlink:href="#mb71bba654c" y="139.159909"/>
     <use style="stroke:#000000;" x="339.995579" xlink:href="#mb71bba654c" y="134.797868"/>
     <use style="stroke:#000000;" x="341.768771" xlink:href="#mb71bba654c" y="133.394706"/>
     <use style="stroke:#000000;" x="342.482427" xlink:href="#mb71bba654c" y="133.11353"/>
     <use style="stroke:#000000;" x="343.218245" xlink:href="#mb71bba654c" y="132.110627"/>
     <use style="stroke:#000000;" x="343.582349" xlink:href="#mb71bba654c" y="132.110627"/>
     <use style="stroke:#000000;" x="343.849835" xlink:href="#mb71bba654c" y="131.902115"/>
     <use style="stroke:#000000;" x="345.468904" xlink:href="#mb71bba654c" y="131.552149"/>
     <use style="stroke:#000000;" x="346.700502" xlink:href="#mb71bba654c" y="127.843969"/>
     <use style="stroke:#000000;" x="348.962839" xlink:href="#mb71bba654c" y="123.786459"/>
     <use style="stroke:#000000;" x="350.428327" xlink:href="#mb71bba654c" y="124.063704"/>
     <use style="stroke:#000000;" x="353.260094" xlink:href="#mb71bba654c" y="118.043743"/>
     <use style="stroke:#000000;" x="354.898046" xlink:href="#mb71bba654c" y="115.134695"/>
     <use style="stroke:#000000;" x="356.792416" xlink:href="#mb71bba654c" y="115.272103"/>
     <use style="stroke:#000000;" x="358.529844" xlink:href="#mb71bba654c" y="115.342339"/>
     <use style="stroke:#000000;" x="359.857609" xlink:href="#mb71bba654c" y="114.924391"/>
     <use style="stroke:#000000;" x="361.459888" xlink:href="#mb71bba654c" y="114.924333"/>
     <use style="stroke:#000000;" x="362.798832" xlink:href="#mb71bba654c" y="111.92366"/>
     <use style="stroke:#000000;" x="364.308671" xlink:href="#mb71bba654c" y="111.595024"/>
     <use style="stroke:#000000;" x="365.716805" xlink:href="#mb71bba654c" y="111.086491"/>
     <use style="stroke:#000000;" x="366.46082" xlink:href="#mb71bba654c" y="110.884454"/>
     <use style="stroke:#000000;" x="367.765349" xlink:href="#mb71bba654c" y="110.655305"/>
     <use style="stroke:#000000;" x="369.346182" xlink:href="#mb71bba654c" y="107.385769"/>
     <use style="stroke:#000000;" x="370.604878" xlink:href="#mb71bba654c" y="106.998285"/>
     <use style="stroke:#000000;" x="371.529587" xlink:href="#mb71bba654c" y="106.329625"/>
     <use style="stroke:#000000;" x="372.702313" xlink:href="#mb71bba654c" y="105.850401"/>
     <use style="stroke:#000000;" x="373.90633" xlink:href="#mb71bba654c" y="100.783109"/>
     <use style="stroke:#000000;" x="376.27589" xlink:href="#mb71bba654c" y="91.375454"/>
     <use style="stroke:#000000;" x="377.433876" xlink:href="#mb71bba654c" y="90.707777"/>
     <use style="stroke:#000000;" x="379.07651" xlink:href="#mb71bba654c" y="89.691809"/>
     <use style="stroke:#000000;" x="379.750105" xlink:href="#mb71bba654c" y="89.691809"/>
     <use style="stroke:#000000;" x="380.454714" xlink:href="#mb71bba654c" y="89.373926"/>
     <use style="stroke:#000000;" x="382.733003" xlink:href="#mb71bba654c" y="81.41036"/>
     <use style="stroke:#000000;" x="383.800856" xlink:href="#mb71bba654c" y="81.016287"/>
     <use style="stroke:#000000;" x="384.58583" xlink:href="#mb71bba654c" y="81.006575"/>
     <use style="stroke:#000000;" x="386.070086" xlink:href="#mb71bba654c" y="80.118536"/>
     <use style="stroke:#000000;" x="387.319908" xlink:href="#mb71bba654c" y="78.393096"/>
     <use style="stroke:#000000;" x="388.294542" xlink:href="#mb71bba654c" y="77.463783"/>
     <use style="stroke:#000000;" x="389.77572" xlink:href="#mb71bba654c" y="75.968707"/>
     <use style="stroke:#000000;" x="391.299469" xlink:href="#mb71bba654c" y="71.271556"/>
     <use style="stroke:#000000;" x="392.065973" xlink:href="#mb71bba654c" y="70.479766"/>
     <use style="stroke:#000000;" x="393.689231" xlink:href="#mb71bba654c" y="65.002676"/>
     <use style="stroke:#000000;" x="395.095865" xlink:href="#mb71bba654c" y="64.772429"/>
     <use style="stroke:#000000;" x="398.487273" xlink:href="#mb71bba654c" y="53.568"/>
    </g>
   </g>
   <g id="line2d_26">
    <path clip-path="url(#pb41f0a38f6)" d="M 73.832727 295.488 
L 398.487273 295.488 
L 398.487273 295.488 
" style="fill:none;stroke:#008000;stroke-linecap:square;stroke-width:1.5;"/>
    <defs>
     <path d="M 0 3 
C 0.795609 3 1.55874 2.683901 2.12132 2.12132 
C 2.683901 1.55874 3 0.795609 3 0 
C 3 -0.795609 2.683901 -1.55874 2.12132 -2.12132 
C 1.55874 -2.683901 0.795609 -3 0 -3 
C -0.795609 -3 -1.55874 -2.683901 -2.12132 -2.12132 
C -2.683901 -1.55874 -3 -0.795609 -3 0 
C -3 0.795609 -2.683901 1.55874 -2.12132 2.12132 
C -1.55874 2.683901 -0.795609 3 0 3 
z
" id="m3b2f9295b0" style="stroke:#008000;"/>
    </defs>
    <g clip-path="url(#pb41f0a38f6)">
     <use style="fill:#008000;stroke:#008000;" x="73.832727" xlink:href="#m3b2f9295b0" y="295.488"/>
     <use style="fill:#008000;stroke:#008000;" x="74.604469" xlink:href="#m3b2f9295b0" y="295.488"/>
     <use style="fill:#008000;stroke:#008000;" x="74.816164" xlink:href="#m3b2f9295b0" y="295.488"/>
     <use style="fill:#008000;stroke:#008000;" x="76.072255" xlink:href="#m3b2f9295b0" y="295.488"/>
     <use style="fill:#008000;stroke:#008000;" x="76.740116" xlink:href="#m3b2f9295b0" y="295.488"/>
     <use style="fill:#008000;stroke:#008000;" x="78.912357" xlink:href="#m3b2f9295b0" y="295.488"/>
     <use style="fill:#008000;stroke:#008000;" x="80.494938" xlink:href="#m3b2f9295b0" y="295.488"/>
     <use style="fill:#008000;stroke:#008000;" x="81.49953" xlink:href="#m3b2f9295b0" y="295.488"/>
     <use style="fill:#008000;stroke:#008000;" x="87.030305" xlink:href="#m3b2f9295b0" y="295.488"/>
     <use style="fill:#008000;stroke:#008000;" x="87.270883" xlink:href="#m3b2f9295b0" y="295.488"/>
     <use style="fill:#008000;stroke:#008000;" x="91.09478" xlink:href="#m3b2f9295b0" y="295.488"/>
     <use style="fill:#008000;stroke:#008000;" x="95.089159" xlink:href="#m3b2f9295b0" y="295.488"/>
     <use style="fill:#008000;stroke:#008000;" x="98.713706" xlink:href="#m3b2f9295b0" y="295.488"/>
     <use style="fill:#008000;stroke:#008000;" x="101.246686" xlink:href="#m3b2f9295b0" y="295.488"/>
     <use style="fill:#008000;stroke:#008000;" x="104.904148" xlink:href="#m3b2f9295b0" y="295.488"/>
     <use style="fill:#008000;stroke:#008000;" x="108.601993" xlink:href="#m3b2f9295b0" y="295.488"/>
     <use style="fill:#008000;stroke:#008000;" x="111.162072" xlink:href="#m3b2f9295b0" y="295.488"/>
     <use style="fill:#008000;stroke:#008000;" x="117.269782" xlink:href="#m3b2f9295b0" y="295.488"/>
     <use style="fill:#008000;stroke:#008000;" x="117.821291" xlink:href="#m3b2f9295b0" y="295.488"/>
     <use style="fill:#008000;stroke:#008000;" x="121.846984" xlink:href="#m3b2f9295b0" y="295.488"/>
     <use style="fill:#008000;stroke:#008000;" x="126.242222" xlink:href="#m3b2f9295b0" y="295.488"/>
     <use style="fill:#008000;stroke:#008000;" x="128.58206" xlink:href="#m3b2f9295b0" y="295.488"/>
     <use style="fill:#008000;stroke:#008000;" x="131.422655" xlink:href="#m3b2f9295b0" y="295.488"/>
     <use style="fill:#008000;stroke:#008000;" x="133.555624" xlink:href="#m3b2f9295b0" y="295.488"/>
     <use style="fill:#008000;stroke:#008000;" x="136.086146" xlink:href="#m3b2f9295b0" y="295.488"/>
     <use style="fill:#008000;stroke:#008000;" x="138.027136" xlink:href="#m3b2f9295b0" y="295.488"/>
     <use style="fill:#008000;stroke:#008000;" x="142.008701" xlink:href="#m3b2f9295b0" y="295.488"/>
     <use style="fill:#008000;stroke:#008000;" x="142.225621" xlink:href="#m3b2f9295b0" y="295.488"/>
     <use style="fill:#008000;stroke:#008000;" x="142.436102" xlink:href="#m3b2f9295b0" y="295.488"/>
     <use style="fill:#008000;stroke:#008000;" x="147.619096" xlink:href="#m3b2f9295b0" y="295.488"/>
     <use style="fill:#008000;stroke:#008000;" x="151.350525" xlink:href="#m3b2f9295b0" y="295.488"/>
     <use style="fill:#008000;stroke:#008000;" x="153.769009" xlink:href="#m3b2f9295b0" y="295.488"/>
     <use style="fill:#008000;stroke:#008000;" x="155.672415" xlink:href="#m3b2f9295b0" y="295.488"/>
     <use style="fill:#008000;stroke:#008000;" x="158.064649" xlink:href="#m3b2f9295b0" y="295.488"/>
     <use style="fill:#008000;stroke:#008000;" x="160.942454" xlink:href="#m3b2f9295b0" y="295.488"/>
     <use style="fill:#008000;stroke:#008000;" x="164.587033" xlink:href="#m3b2f9295b0" y="295.488"/>
     <use style="fill:#008000;stroke:#008000;" x="166.865939" xlink:href="#m3b2f9295b0" y="295.488"/>
     <use style="fill:#008000;stroke:#008000;" x="170.021761" xlink:href="#m3b2f9295b0" y="295.488"/>
     <use style="fill:#008000;stroke:#008000;" x="173.427503" xlink:href="#m3b2f9295b0" y="295.488"/>
     <use style="fill:#008000;stroke:#008000;" x="175.54055" xlink:href="#m3b2f9295b0" y="295.488"/>
     <use style="fill:#008000;stroke:#008000;" x="177.078192" xlink:href="#m3b2f9295b0" y="295.488"/>
     <use style="fill:#008000;stroke:#008000;" x="179.096463" xlink:href="#m3b2f9295b0" y="295.488"/>
     <use style="fill:#008000;stroke:#008000;" x="179.8692" xlink:href="#m3b2f9295b0" y="295.488"/>
     <use style="fill:#008000;stroke:#008000;" x="181.157338" xlink:href="#m3b2f9295b0" y="295.488"/>
     <use style="fill:#008000;stroke:#008000;" x="183.298803" xlink:href="#m3b2f9295b0" y="295.488"/>
     <use style="fill:#008000;stroke:#008000;" x="185.000168" xlink:href="#m3b2f9295b0" y="295.488"/>
     <use style="fill:#008000;stroke:#008000;" x="186.098082" xlink:href="#m3b2f9295b0" y="295.488"/>
     <use style="fill:#008000;stroke:#008000;" x="191.584518" xlink:href="#m3b2f9295b0" y="295.488"/>
     <use style="fill:#008000;stroke:#008000;" x="194.964253" xlink:href="#m3b2f9295b0" y="295.488"/>
     <use style="fill:#008000;stroke:#008000;" x="198.128031" xlink:href="#m3b2f9295b0" y="295.488"/>
     <use style="fill:#008000;stroke:#008000;" x="201.664506" xlink:href="#m3b2f9295b0" y="295.488"/>
     <use style="fill:#008000;stroke:#008000;" x="205.299128" xlink:href="#m3b2f9295b0" y="295.488"/>
     <use style="fill:#008000;stroke:#008000;" x="208.374744" xlink:href="#m3b2f9295b0" y="295.488"/>
     <use style="fill:#008000;stroke:#008000;" x="210.483463" xlink:href="#m3b2f9295b0" y="295.488"/>
     <use style="fill:#008000;stroke:#008000;" x="213.13895" xlink:href="#m3b2f9295b0" y="295.488"/>
     <use style="fill:#008000;stroke:#008000;" x="215.258912" xlink:href="#m3b2f9295b0" y="295.488"/>
     <use style="fill:#008000;stroke:#008000;" x="217.260652" xlink:href="#m3b2f9295b0" y="295.488"/>
     <use style="fill:#008000;stroke:#008000;" x="219.37426" xlink:href="#m3b2f9295b0" y="295.488"/>
     <use style="fill:#008000;stroke:#008000;" x="220.535559" xlink:href="#m3b2f9295b0" y="295.488"/>
     <use style="fill:#008000;stroke:#008000;" x="222.599518" xlink:href="#m3b2f9295b0" y="295.488"/>
     <use style="fill:#008000;stroke:#008000;" x="223.760103" xlink:href="#m3b2f9295b0" y="295.488"/>
     <use style="fill:#008000;stroke:#008000;" x="225.545201" xlink:href="#m3b2f9295b0" y="295.488"/>
     <use style="fill:#008000;stroke:#008000;" x="227.206255" xlink:href="#m3b2f9295b0" y="295.488"/>
     <use style="fill:#008000;stroke:#008000;" x="231.256529" xlink:href="#m3b2f9295b0" y="295.488"/>
     <use style="fill:#008000;stroke:#008000;" x="234.012896" xlink:href="#m3b2f9295b0" y="295.488"/>
     <use style="fill:#008000;stroke:#008000;" x="236.910944" xlink:href="#m3b2f9295b0" y="295.488"/>
     <use style="fill:#008000;stroke:#008000;" x="238.620274" xlink:href="#m3b2f9295b0" y="295.488"/>
     <use style="fill:#008000;stroke:#008000;" x="241.977286" xlink:href="#m3b2f9295b0" y="295.488"/>
     <use style="fill:#008000;stroke:#008000;" x="243.806575" xlink:href="#m3b2f9295b0" y="295.488"/>
     <use style="fill:#008000;stroke:#008000;" x="245.379773" xlink:href="#m3b2f9295b0" y="295.488"/>
     <use style="fill:#008000;stroke:#008000;" x="246.43676" xlink:href="#m3b2f9295b0" y="295.488"/>
     <use style="fill:#008000;stroke:#008000;" x="247.711874" xlink:href="#m3b2f9295b0" y="295.488"/>
     <use style="fill:#008000;stroke:#008000;" x="250.792244" xlink:href="#m3b2f9295b0" y="295.488"/>
     <use style="fill:#008000;stroke:#008000;" x="251.586815" xlink:href="#m3b2f9295b0" y="295.488"/>
     <use style="fill:#008000;stroke:#008000;" x="252.406889" xlink:href="#m3b2f9295b0" y="295.488"/>
     <use style="fill:#008000;stroke:#008000;" x="252.965982" xlink:href="#m3b2f9295b0" y="295.488"/>
     <use style="fill:#008000;stroke:#008000;" x="253.76241" xlink:href="#m3b2f9295b0" y="295.488"/>
     <use style="fill:#008000;stroke:#008000;" x="254.592241" xlink:href="#m3b2f9295b0" y="295.488"/>
     <use style="fill:#008000;stroke:#008000;" x="256.260178" xlink:href="#m3b2f9295b0" y="295.488"/>
     <use style="fill:#008000;stroke:#008000;" x="257.91343" xlink:href="#m3b2f9295b0" y="295.488"/>
     <use style="fill:#008000;stroke:#008000;" x="259.25443" xlink:href="#m3b2f9295b0" y="295.488"/>
     <use style="fill:#008000;stroke:#008000;" x="260.15209" xlink:href="#m3b2f9295b0" y="295.488"/>
     <use style="fill:#008000;stroke:#008000;" x="261.182442" xlink:href="#m3b2f9295b0" y="295.488"/>
     <use style="fill:#008000;stroke:#008000;" x="262.744828" xlink:href="#m3b2f9295b0" y="295.488"/>
     <use style="fill:#008000;stroke:#008000;" x="263.800268" xlink:href="#m3b2f9295b0" y="295.488"/>
     <use style="fill:#008000;stroke:#008000;" x="265.440184" xlink:href="#m3b2f9295b0" y="295.488"/>
     <use style="fill:#008000;stroke:#008000;" x="266.706513" xlink:href="#m3b2f9295b0" y="295.488"/>
     <use style="fill:#008000;stroke:#008000;" x="267.74121" xlink:href="#m3b2f9295b0" y="295.488"/>
     <use style="fill:#008000;stroke:#008000;" x="269.322514" xlink:href="#m3b2f9295b0" y="295.488"/>
     <use style="fill:#008000;stroke:#008000;" x="270.42078" xlink:href="#m3b2f9295b0" y="295.488"/>
     <use style="fill:#008000;stroke:#008000;" x="271.443292" xlink:href="#m3b2f9295b0" y="295.488"/>
     <use style="fill:#008000;stroke:#008000;" x="271.872636" xlink:href="#m3b2f9295b0" y="295.488"/>
     <use style="fill:#008000;stroke:#008000;" x="273.487454" xlink:href="#m3b2f9295b0" y="295.488"/>
     <use style="fill:#008000;stroke:#008000;" x="276.189372" xlink:href="#m3b2f9295b0" y="295.488"/>
     <use style="fill:#008000;stroke:#008000;" x="278.786261" xlink:href="#m3b2f9295b0" y="295.488"/>
     <use style="fill:#008000;stroke:#008000;" x="280.169349" xlink:href="#m3b2f9295b0" y="295.488"/>
     <use style="fill:#008000;stroke:#008000;" x="284.469263" xlink:href="#m3b2f9295b0" y="295.488"/>
     <use style="fill:#008000;stroke:#008000;" x="286.179277" xlink:href="#m3b2f9295b0" y="295.488"/>
     <use style="fill:#008000;stroke:#008000;" x="290.194571" xlink:href="#m3b2f9295b0" y="295.488"/>
     <use style="fill:#008000;stroke:#008000;" x="292.013586" xlink:href="#m3b2f9295b0" y="295.488"/>
     <use style="fill:#008000;stroke:#008000;" x="294.418239" xlink:href="#m3b2f9295b0" y="295.488"/>
     <use style="fill:#008000;stroke:#008000;" x="296.886936" xlink:href="#m3b2f9295b0" y="295.488"/>
     <use style="fill:#008000;stroke:#008000;" x="298.594881" xlink:href="#m3b2f9295b0" y="295.488"/>
     <use style="fill:#008000;stroke:#008000;" x="300.01198" xlink:href="#m3b2f9295b0" y="295.488"/>
     <use style="fill:#008000;stroke:#008000;" x="301.498224" xlink:href="#m3b2f9295b0" y="295.488"/>
     <use style="fill:#008000;stroke:#008000;" x="303.696009" xlink:href="#m3b2f9295b0" y="295.488"/>
     <use style="fill:#008000;stroke:#008000;" x="306.064539" xlink:href="#m3b2f9295b0" y="295.488"/>
     <use style="fill:#008000;stroke:#008000;" x="308.158855" xlink:href="#m3b2f9295b0" y="295.488"/>
     <use style="fill:#008000;stroke:#008000;" x="308.5357" xlink:href="#m3b2f9295b0" y="295.488"/>
     <use style="fill:#008000;stroke:#008000;" x="308.736814" xlink:href="#m3b2f9295b0" y="295.488"/>
     <use style="fill:#008000;stroke:#008000;" x="310.118371" xlink:href="#m3b2f9295b0" y="295.488"/>
     <use style="fill:#008000;stroke:#008000;" x="311.246618" xlink:href="#m3b2f9295b0" y="295.488"/>
     <use style="fill:#008000;stroke:#008000;" x="312.397554" xlink:href="#m3b2f9295b0" y="295.488"/>
     <use style="fill:#008000;stroke:#008000;" x="313.075508" xlink:href="#m3b2f9295b0" y="295.488"/>
     <use style="fill:#008000;stroke:#008000;" x="314.203707" xlink:href="#m3b2f9295b0" y="295.488"/>
     <use style="fill:#008000;stroke:#008000;" x="315.014542" xlink:href="#m3b2f9295b0" y="295.488"/>
     <use style="fill:#008000;stroke:#008000;" x="316.578884" xlink:href="#m3b2f9295b0" y="295.488"/>
     <use style="fill:#008000;stroke:#008000;" x="318.116387" xlink:href="#m3b2f9295b0" y="295.488"/>
     <use style="fill:#008000;stroke:#008000;" x="319.051676" xlink:href="#m3b2f9295b0" y="295.488"/>
     <use style="fill:#008000;stroke:#008000;" x="319.957436" xlink:href="#m3b2f9295b0" y="295.488"/>
     <use style="fill:#008000;stroke:#008000;" x="321.466999" xlink:href="#m3b2f9295b0" y="295.488"/>
     <use style="fill:#008000;stroke:#008000;" x="322.989562" xlink:href="#m3b2f9295b0" y="295.488"/>
     <use style="fill:#008000;stroke:#008000;" x="323.957621" xlink:href="#m3b2f9295b0" y="295.488"/>
     <use style="fill:#008000;stroke:#008000;" x="324.376746" xlink:href="#m3b2f9295b0" y="295.488"/>
     <use style="fill:#008000;stroke:#008000;" x="325.995052" xlink:href="#m3b2f9295b0" y="295.488"/>
     <use style="fill:#008000;stroke:#008000;" x="327.316678" xlink:href="#m3b2f9295b0" y="295.488"/>
     <use style="fill:#008000;stroke:#008000;" x="328.65038" xlink:href="#m3b2f9295b0" y="295.488"/>
     <use style="fill:#008000;stroke:#008000;" x="330.339904" xlink:href="#m3b2f9295b0" y="295.488"/>
     <use style="fill:#008000;stroke:#008000;" x="332.464349" xlink:href="#m3b2f9295b0" y="295.488"/>
     <use style="fill:#008000;stroke:#008000;" x="333.918677" xlink:href="#m3b2f9295b0" y="295.488"/>
     <use style="fill:#008000;stroke:#008000;" x="335.000775" xlink:href="#m3b2f9295b0" y="295.488"/>
     <use style="fill:#008000;stroke:#008000;" x="336.25342" xlink:href="#m3b2f9295b0" y="295.488"/>
     <use style="fill:#008000;stroke:#008000;" x="337.728644" xlink:href="#m3b2f9295b0" y="295.488"/>
     <use style="fill:#008000;stroke:#008000;" x="339.995579" xlink:href="#m3b2f9295b0" y="295.488"/>
     <use style="fill:#008000;stroke:#008000;" x="341.768771" xlink:href="#m3b2f9295b0" y="295.488"/>
     <use style="fill:#008000;stroke:#008000;" x="342.482427" xlink:href="#m3b2f9295b0" y="295.488"/>
     <use style="fill:#008000;stroke:#008000;" x="343.218245" xlink:href="#m3b2f9295b0" y="295.488"/>
     <use style="fill:#008000;stroke:#008000;" x="343.582349" xlink:href="#m3b2f9295b0" y="295.488"/>
     <use style="fill:#008000;stroke:#008000;" x="343.849835" xlink:href="#m3b2f9295b0" y="295.488"/>
     <use style="fill:#008000;stroke:#008000;" x="345.468904" xlink:href="#m3b2f9295b0" y="295.488"/>
     <use style="fill:#008000;stroke:#008000;" x="346.700502" xlink:href="#m3b2f9295b0" y="295.488"/>
     <use style="fill:#008000;stroke:#008000;" x="348.962839" xlink:href="#m3b2f9295b0" y="295.488"/>
     <use style="fill:#008000;stroke:#008000;" x="350.428327" xlink:href="#m3b2f9295b0" y="295.488"/>
     <use style="fill:#008000;stroke:#008000;" x="353.260094" xlink:href="#m3b2f9295b0" y="295.488"/>
     <use style="fill:#008000;stroke:#008000;" x="354.898046" xlink:href="#m3b2f9295b0" y="295.488"/>
     <use style="fill:#008000;stroke:#008000;" x="356.792416" xlink:href="#m3b2f9295b0" y="295.488"/>
     <use style="fill:#008000;stroke:#008000;" x="358.529844" xlink:href="#m3b2f9295b0" y="295.488"/>
     <use style="fill:#008000;stroke:#008000;" x="359.857609" xlink:href="#m3b2f9295b0" y="295.488"/>
     <use style="fill:#008000;stroke:#008000;" x="361.459888" xlink:href="#m3b2f9295b0" y="295.488"/>
     <use style="fill:#008000;stroke:#008000;" x="362.798832" xlink:href="#m3b2f9295b0" y="295.488"/>
     <use style="fill:#008000;stroke:#008000;" x="364.308671" xlink:href="#m3b2f9295b0" y="295.488"/>
     <use style="fill:#008000;stroke:#008000;" x="365.716805" xlink:href="#m3b2f9295b0" y="295.488"/>
     <use style="fill:#008000;stroke:#008000;" x="366.46082" xlink:href="#m3b2f9295b0" y="295.488"/>
     <use style="fill:#008000;stroke:#008000;" x="367.765349" xlink:href="#m3b2f9295b0" y="295.488"/>
     <use style="fill:#008000;stroke:#008000;" x="369.346182" xlink:href="#m3b2f9295b0" y="295.488"/>
     <use style="fill:#008000;stroke:#008000;" x="370.604878" xlink:href="#m3b2f9295b0" y="295.488"/>
     <use style="fill:#008000;stroke:#008000;" x="371.529587" xlink:href="#m3b2f9295b0" y="295.488"/>
     <use style="fill:#008000;stroke:#008000;" x="372.702313" xlink:href="#m3b2f9295b0" y="295.488"/>
     <use style="fill:#008000;stroke:#008000;" x="373.90633" xlink:href="#m3b2f9295b0" y="295.488"/>
     <use style="fill:#008000;stroke:#008000;" x="376.27589" xlink:href="#m3b2f9295b0" y="295.488"/>
     <use style="fill:#008000;stroke:#008000;" x="377.433876" xlink:href="#m3b2f9295b0" y="295.488"/>
     <use style="fill:#008000;stroke:#008000;" x="379.07651" xlink:href="#m3b2f9295b0" y="295.488"/>
     <use style="fill:#008000;stroke:#008000;" x="379.750105" xlink:href="#m3b2f9295b0" y="295.488"/>
     <use style="fill:#008000;stroke:#008000;" x="380.454714" xlink:href="#m3b2f9295b0" y="295.488"/>
     <use style="fill:#008000;stroke:#008000;" x="382.733003" xlink:href="#m3b2f9295b0" y="295.488"/>
     <use style="fill:#008000;stroke:#008000;" x="383.800856" xlink:href="#m3b2f9295b0" y="295.488"/>
     <use style="fill:#008000;stroke:#008000;" x="384.58583" xlink:href="#m3b2f9295b0" y="295.488"/>
     <use style="fill:#008000;stroke:#008000;" x="386.070086" xlink:href="#m3b2f9295b0" y="295.488"/>
     <use style="fill:#008000;stroke:#008000;" x="387.319908" xlink:href="#m3b2f9295b0" y="295.488"/>
     <use style="fill:#008000;stroke:#008000;" x="388.294542" xlink:href="#m3b2f9295b0" y="295.488"/>
     <use style="fill:#008000;stroke:#008000;" x="389.77572" xlink:href="#m3b2f9295b0" y="295.488"/>
     <use style="fill:#008000;stroke:#008000;" x="391.299469" xlink:href="#m3b2f9295b0" y="295.488"/>
     <use style="fill:#008000;stroke:#008000;" x="392.065973" xlink:href="#m3b2f9295b0" y="295.488"/>
     <use style="fill:#008000;stroke:#008000;" x="393.689231" xlink:href="#m3b2f9295b0" y="295.488"/>
     <use style="fill:#008000;stroke:#008000;" x="395.095865" xlink:href="#m3b2f9295b0" y="295.488"/>
     <use style="fill:#008000;stroke:#008000;" x="398.487273" xlink:href="#m3b2f9295b0" y="295.488"/>
    </g>
   </g>
   <g id="patch_3">
    <path d="M 57.6 307.584 
L 57.6 41.472 
" style="fill:none;stroke:#000000;stroke-linecap:square;stroke-linejoin:miter;stroke-width:0.8;"/>
   </g>
   <g id="patch_4">
    <path d="M 414.72 307.584 
L 414.72 41.472 
" style="fill:none;stroke:#000000;stroke-linecap:square;stroke-linejoin:miter;stroke-width:0.8;"/>
   </g>
   <g id="patch_5">
    <path d="M 57.6 307.584 
L 414.72 307.584 
" style="fill:none;stroke:#000000;stroke-linecap:square;stroke-linejoin:miter;stroke-width:0.8;"/>
   </g>
   <g id="patch_6">
    <path d="M 57.6 41.472 
L 414.72 41.472 
" style="fill:none;stroke:#000000;stroke-linecap:square;stroke-linejoin:miter;stroke-width:0.8;"/>
   </g>
   <g id="legend_1">
    <g id="patch_7">
     <path d="M 64.6 78.82825 
L 151.392188 78.82825 
Q 153.392188 78.82825 153.392188 76.82825 
L 153.392188 48.472 
Q 153.392188 46.472 151.392188 46.472 
L 64.6 46.472 
Q 62.6 46.472 62.6 48.472 
L 62.6 76.82825 
Q 62.6 78.82825 64.6 78.82825 
z
" style="fill:#ffffff;opacity:0.8;stroke:#cccccc;stroke-linejoin:miter;"/>
    </g>
    <g id="line2d_27">
     <path d="M 66.6 54.570437 
L 86.6 54.570437 
" style="fill:none;stroke:#000000;stroke-linecap:square;stroke-width:1.5;"/>
    </g>
    <g id="line2d_28">
     <g>
      <use style="stroke:#000000;" x="76.6" xlink:href="#mb71bba654c" y="54.570437"/>
     </g>
    </g>
    <g id="text_13">
     <!-- RAM -->
     <defs>
      <path d="M 44.390625 34.1875 
Q 47.5625 33.109375 50.5625 29.59375 
Q 53.5625 26.078125 56.59375 19.921875 
L 66.609375 0 
L 56 0 
L 46.6875 18.703125 
Q 43.0625 26.03125 39.671875 28.421875 
Q 36.28125 30.8125 30.421875 30.8125 
L 19.671875 30.8125 
L 19.671875 0 
L 9.8125 0 
L 9.8125 72.90625 
L 32.078125 72.90625 
Q 44.578125 72.90625 50.734375 67.671875 
Q 56.890625 62.453125 56.890625 51.90625 
Q 56.890625 45.015625 53.6875 40.46875 
Q 50.484375 35.9375 44.390625 34.1875 
z
M 19.671875 64.796875 
L 19.671875 38.921875 
L 32.078125 38.921875 
Q 39.203125 38.921875 42.84375 42.21875 
Q 46.484375 45.515625 46.484375 51.90625 
Q 46.484375 58.296875 42.84375 61.546875 
Q 39.203125 64.796875 32.078125 64.796875 
z
" id="DejaVuSans-52"/>
      <path d="M 34.1875 63.1875 
L 20.796875 26.90625 
L 47.609375 26.90625 
z
M 28.609375 72.90625 
L 39.796875 72.90625 
L 67.578125 0 
L 57.328125 0 
L 50.6875 18.703125 
L 17.828125 18.703125 
L 11.1875 0 
L 0.78125 0 
z
" id="DejaVuSans-41"/>
     </defs>
     <g transform="translate(94.6 58.070437)scale(0.1 -0.1)">
      <use xlink:href="#DejaVuSans-52"/>
      <use x="69.419922" xlink:href="#DejaVuSans-41"/>
      <use x="137.828125" xlink:href="#DejaVuSans-4d"/>
     </g>
    </g>
    <g id="line2d_29">
     <path d="M 66.6 69.248562 
L 86.6 69.248562 
" style="fill:none;stroke:#008000;stroke-linecap:square;stroke-width:1.5;"/>
    </g>
    <g id="line2d_30">
     <g>
      <use style="fill:#008000;stroke:#008000;" x="76.6" xlink:href="#m3b2f9295b0" y="69.248562"/>
     </g>
    </g>
    <g id="text_14">
     <!-- Restart file -->
     <defs>
      <path d="M 34.28125 27.484375 
Q 23.390625 27.484375 19.1875 25 
Q 14.984375 22.515625 14.984375 16.5 
Q 14.984375 11.71875 18.140625 8.90625 
Q 21.296875 6.109375 26.703125 6.109375 
Q 34.1875 6.109375 38.703125 11.40625 
Q 43.21875 16.703125 43.21875 25.484375 
L 43.21875 27.484375 
z
M 52.203125 31.203125 
L 52.203125 0 
L 43.21875 0 
L 43.21875 8.296875 
Q 40.140625 3.328125 35.546875 0.953125 
Q 30.953125 -1.421875 24.3125 -1.421875 
Q 15.921875 -1.421875 10.953125 3.296875 
Q 6 8.015625 6 15.921875 
Q 6 25.140625 12.171875 29.828125 
Q 18.359375 34.515625 30.609375 34.515625 
L 43.21875 34.515625 
L 43.21875 35.40625 
Q 43.21875 41.609375 39.140625 45 
Q 35.0625 48.390625 27.6875 48.390625 
Q 23 48.390625 18.546875 47.265625 
Q 14.109375 46.140625 10.015625 43.890625 
L 10.015625 52.203125 
Q 14.9375 54.109375 19.578125 55.046875 
Q 24.21875 56 28.609375 56 
Q 40.484375 56 46.34375 49.84375 
Q 52.203125 43.703125 52.203125 31.203125 
z
" id="DejaVuSans-61"/>
      <path d="M 37.109375 75.984375 
L 37.109375 68.5 
L 28.515625 68.5 
Q 23.6875 68.5 21.796875 66.546875 
Q 19.921875 64.59375 19.921875 59.515625 
L 19.921875 54.6875 
L 34.71875 54.6875 
L 34.71875 47.703125 
L 19.921875 47.703125 
L 19.921875 0 
L 10.890625 0 
L 10.890625 47.703125 
L 2.296875 47.703125 
L 2.296875 54.6875 
L 10.890625 54.6875 
L 10.890625 58.5 
Q 10.890625 67.625 15.140625 71.796875 
Q 19.390625 75.984375 28.609375 75.984375 
z
" id="DejaVuSans-66"/>
      <path d="M 9.421875 75.984375 
L 18.40625 75.984375 
L 18.40625 0 
L 9.421875 0 
z
" id="DejaVuSans-6c"/>
     </defs>
     <g transform="translate(94.6 72.748562)scale(0.1 -0.1)">
      <use xlink:href="#DejaVuSans-52"/>
      <use x="69.419922" xlink:href="#DejaVuSans-65"/>
      <use x="130.943359" xlink:href="#DejaVuSans-73"/>
      <use x="183.042969" xlink:href="#DejaVuSans-74"/>
      <use x="222.251953" xlink:href="#DejaVuSans-61"/>
      <use x="283.53125" xlink:href="#DejaVuSans-72"/>
      <use x="324.644531" xlink:href="#DejaVuSans-74"/>
      <use x="363.853516" xlink:href="#DejaVuSans-20"/>
      <use x="395.640625" xlink:href="#DejaVuSans-66"/>
      <use x="430.845703" xlink:href="#DejaVuSans-69"/>
      <use x="458.628906" xlink:href="#DejaVuSans-6c"/>
      <use x="486.412109" xlink:href="#DejaVuSans-65"/>
     </g>
    </g>
   </g>
  </g>
 </g>
 <defs>
  <clipPath id="pb41f0a38f6">
   <rect height="266.112" width="357.12" x="57.6" y="41.472"/>
  </clipPath>
 </defs>
</svg>
